<svg width="33" height="8" viewBox="0 0 33 8" fill="none" xmlns="http://www.w3.org/2000/svg">
<path d="M9.59961 6.10001L9.99961 6.50001" stroke="#8A8A8A" stroke-width="0.52" stroke-miterlimit="10" stroke-linecap="round" stroke-linejoin="round"/>
<path d="M9.59961 6.10001L13.0996 2.10001" stroke="#8A8A8A" stroke-width="0.52" stroke-miterlimit="10" stroke-linecap="round" stroke-linejoin="round"/>
<path d="M9.59961 6.10001L9.99961 6.50001" stroke="#8A8A8A" stroke-width="0.52" stroke-miterlimit="10" stroke-linecap="round" stroke-linejoin="round"/>
<path d="M9.59961 6.10001L13.0996 2.10001" stroke="#8A8A8A" stroke-width="0.52" stroke-miterlimit="10" stroke-linecap="round" stroke-linejoin="round"/>
<path d="M13.0996 2.10001L14.6996 3.40001" stroke="#8A8A8A" stroke-width="0.52" stroke-miterlimit="10" stroke-linecap="round" stroke-linejoin="round"/>
<path d="M14.6992 3.4L15.0992 3" stroke="#8A8A8A" stroke-width="0.52" stroke-miterlimit="10" stroke-linecap="round" stroke-linejoin="round"/>
<path d="M14.6992 3.4L15.0992 3" stroke="#8A8A8A" stroke-width="0.52" stroke-miterlimit="10" stroke-linecap="round" stroke-linejoin="round"/>
<path d="M15.0996 2.99999L17.0996 0.799988" stroke="#8A8A8A" stroke-width="0.52" stroke-miterlimit="10" stroke-linecap="round" stroke-linejoin="round"/>
<path d="M15.0996 2.99999L17.0996 0.799988" stroke="#8A8A8A" stroke-width="0.52" stroke-miterlimit="10" stroke-linecap="round" stroke-linejoin="round"/>
<path d="M32.9 0.200012H0V7.80001H32.9V0.200012Z" fill="#C3D8A1"/>
<path d="M32.5996 0H0.0996094V7.9H32.5996V0Z" fill="#D5DDA2"/>
<path d="M32.2012 0V4H32.5012V0H32.2012Z" fill="white"/>
<path d="M31.7 4V0H31.5V4H31.7Z" fill="white"/>
<path d="M31.0008 4V0H30.8008V4H31.0008Z" fill="white"/>
<path d="M30.3 4V0H30V4H30.3Z" fill="white"/>
<path d="M29.6008 4V0H29.3008V4H29.6008Z" fill="white"/>
<path d="M28.9016 4V0H28.6016V4H28.9016Z" fill="white"/>
<path d="M28.2004 4V0H27.9004V4H28.2004Z" fill="white"/>
<path d="M27.5012 4V0H27.2012V4H27.5012Z" fill="white"/>
<path d="M26.8 4V0H26.5V4H26.8Z" fill="white"/>
<path d="M26.1008 4V0H25.8008V4H26.1008Z" fill="white"/>
<path d="M25.4016 4V0H25.1016V4H25.4016Z" fill="white"/>
<path d="M24.7004 4V0H24.4004V4H24.7004Z" fill="white"/>
<path d="M24.0012 4V0H23.7012V4H24.0012Z" fill="white"/>
<path d="M23.2 4V0H23V4H23.2Z" fill="white"/>
<path d="M22.5008 4V0H22.3008V4H22.5008Z" fill="white"/>
<path d="M21.8 4V0H21.5V4H21.8Z" fill="white"/>
<path d="M21.1008 4V0H20.8008V4H21.1008Z" fill="white"/>
<path d="M20.4016 4V0H20.1016V4H20.4016Z" fill="white"/>
<path d="M19.7004 4V0H19.4004V4H19.7004Z" fill="white"/>
<path d="M19.0012 4V0H18.7012V4H19.0012Z" fill="white"/>
<path d="M18.3 4V0H18V4H18.3Z" fill="white"/>
<path d="M17.6008 4V0H17.3008V4H17.6008Z" fill="white"/>
<path d="M16.9016 4V0H16.6016V4H16.9016Z" fill="white"/>
<path d="M16.2004 4V0H15.9004V4H16.2004Z" fill="white"/>
<path d="M15.4012 4V0H15.2012V4H15.4012Z" fill="white"/>
<path d="M14.7 4V0H14.5V4H14.7Z" fill="white"/>
<path d="M14.0012 4V0H13.7012V4H14.0012Z" fill="white"/>
<path d="M13.3 4V0H13V4H13.3Z" fill="white"/>
<path d="M12.6008 4V0H12.3008V4H12.6008Z" fill="white"/>
<path d="M11.9016 4V0H11.6016V4H11.9016Z" fill="white"/>
<path d="M11.2004 4V0H10.9004V4H11.2004Z" fill="white"/>
<path d="M10.5012 4V0H10.2012V4H10.5012Z" fill="white"/>
<path d="M9.8 4V0H9.5V4H9.8Z" fill="white"/>
<path d="M9.10078 4V0H8.80078V4H9.10078Z" fill="white"/>
<path d="M8.40156 4V0H8.10156V4H8.40156Z" fill="white"/>
<path d="M7.70039 4V0H7.40039V4H7.70039Z" fill="white"/>
<path d="M6.90117 4V0H6.70117V4H6.90117Z" fill="white"/>
<path d="M6.2 4V0H6V4H6.2Z" fill="white"/>
<path d="M5.50117 4V0H5.20117V4H5.50117Z" fill="white"/>
<path d="M4.8 4V0H4.5V4H4.8Z" fill="white"/>
<path d="M4.10078 4V0H3.80078V4H4.10078Z" fill="white"/>
<path d="M3.40156 4V0H3.10156V4H3.40156Z" fill="white"/>
<path d="M2.70039 4V0H2.40039V4H2.70039Z" fill="white"/>
<path d="M2.00117 4V0H1.70117V4H2.00117Z" fill="white"/>
<path d="M1.3 4V0H1V4H1.3Z" fill="white"/>
<path d="M0.600781 4V0H0.300781V4H0.600781Z" fill="white"/>
</svg>
