<svg width="33" height="10" viewBox="0 0 33 10" fill="none" xmlns="http://www.w3.org/2000/svg">
<path d="M32.9 0.5H0V8.10001H32.9V0.5Z" fill="#899CAD"/>
<path d="M12.8004 0L12.2004 0.300003L11.9004 0.900002V8.2L12.2004 8.8L12.8004 9.10001H20.1004L20.7004 8.8L21.0004 8.2V0.900002L20.7004 0.300003L20.1004 0H12.8004Z" fill="white"/>
<path d="M13.7004 4.5L14.0004 2.3L14.4004 1.8L16.5004 1.4L18.6004 1.8L19.0004 2.3L19.3004 4.4V4.5V7.3H18.8004V7.8L18.7004 8.10001L18.4004 8.2L18.1004 8.10001L18.0004 7.8V7.3H15.0004V7.8L14.9004 8.10001L14.5004 8.2L14.2004 8.10001V7.8V7.3H13.7004V4.5ZM12.8004 0L12.2004 0.300003L11.9004 0.900002V8.3L12.2004 8.9L12.8004 9.10001H20.2004L20.8004 8.9L21.1004 8.3V0.900002L20.8004 0.300003L20.2004 0H12.8004Z" fill="#00B3FF"/>
<path d="M15.2996 1.89999H15.1996L15.0996 2.1L15.1996 2.2H15.2996H17.5996H17.6996L17.7996 2.1L17.6996 1.89999H17.5996H15.2996Z" fill="#00B3FF"/>
<path fill-rule="evenodd" clip-rule="evenodd" d="M14.6992 2.60001H18.1992H18.3992L18.4992 2.8L18.7992 4.5L18.6992 4.60001L18.5992 4.7H14.3992L14.1992 4.60001V4.5L14.3992 2.8L14.4992 2.60001H14.6992Z" fill="#00B3FF"/>
<path d="M14.2992 5.80001L14.1992 6.10001L14.2992 6.30001L14.4992 6.40001L14.7992 6.30001L14.8992 6.10001L14.7992 5.80001L14.4992 5.70001L14.2992 5.80001Z" fill="#00B3FF"/>
<path d="M18.1 5.80001L18 6.10001L18.1 6.30001L18.4 6.40001L18.7 6.30001L18.8 6.10001L18.7 5.80001L18.4 5.70001L18.1 5.80001Z" fill="#00B3FF"/>
</svg>
