<svg width="65" height="52" viewBox="0 0 65 52" fill="none" xmlns="http://www.w3.org/2000/svg">
<path d="M62.9528 9.15654C60.0281 3.73587 54.2154 0 47.5253 0C41.4932 0 35.644 2.98099 32.5 7.55926L28.5517 3.919C28.1496 3.62599 27.7475 3.29635 27.3453 3.00335C24.5304 1.09878 21.1305 0 17.4747 0C13.2705 0 9.43195 1.46505 6.4342 3.88237C6.28796 3.99225 6.14173 4.13876 5.95894 4.28526C4.71597 5.34742 3.65579 6.59271 2.74184 7.94788C2.63217 8.13101 2.5225 8.27751 2.41282 8.46064C2.23003 8.79028 2.04724 9.11992 1.86445 9.44955C1.20641 10.7315 0.731159 12.1233 0.402137 13.5517C0.365579 13.7714 0.329021 13.9546 0.292463 14.1743C0.109674 15.1632 0 16.1888 0 17.2143C0 17.8369 0.0365579 18.4596 0.109674 19.0456C0.146232 19.2287 0.146232 19.4119 0.18279 19.595C0.329021 20.7304 0.621485 21.7926 0.987064 22.8547C1.46232 24.393 2.74184 26.4075 2.99775 26.7737C2.99775 26.8104 3.03431 26.8104 3.03431 26.847C3.14398 26.9935 3.25366 27.14 3.32677 27.2865C3.32677 27.3231 3.36333 27.3231 3.36333 27.3597C3.473 27.5062 3.58268 27.6528 3.69235 27.7993C3.72891 27.8359 3.76547 27.9091 3.80202 27.9458C3.87514 28.0556 3.98481 28.1655 4.05793 28.2754C4.1676 28.4219 4.31384 28.5684 4.46007 28.7149L4.49663 28.7515C4.78909 29.0445 5.04499 29.3376 5.33746 29.6306C5.37402 29.6306 5.37402 29.6672 5.41057 29.6672L7.64061 31.4985L11.1136 34.392L28.5152 48.8593L32.0979 51.8626C32.3172 52.0458 32.6828 52.0458 32.9021 51.8626L43.9061 42.7061L47.5253 39.7028L51.9488 36.0035L53.7767 34.5018L53.8498 34.4286L54.1057 34.2088L57.0669 31.7183L57.14 31.645L59.5894 29.6672C59.626 29.6672 59.626 29.6306 59.6625 29.6306C61.3442 28.019 62.7334 26.0778 63.6474 23.9169C64.5247 21.8658 65 19.6316 65 17.2509C65 14.2842 64.2688 11.5372 62.9528 9.15654Z" fill="#83529B"/>
<path d="M23.5 35.5V33.524H41.2798V35.5H23.5Z" stroke="white"/>
<path d="M23.5 22.2945V21.3026L32.7706 15.591L41.6201 21.296V22.2945H23.5Z" stroke="white"/>
<path d="M27.9528 31.4317V31.9317H28.4528H28.4885V31.9767H28.4528H25.4869H25.4512V31.9317H25.4869H25.9869V31.4317V24.421V23.921H25.4869H25.4512V23.876H25.4869H28.4528H28.4885V23.921H28.4528H27.9528V24.421V31.4317Z" stroke="white"/>
<path d="M33.4919 31.4317V31.9317H33.9919H34.0276V31.9767H33.9919H31.0257H30.9902V31.9317H31.0257H31.5257V31.4317V24.421V23.921H31.0257H30.9902V23.876H31.0257H33.9919H34.0276V23.921H33.9919H33.4919V24.421V31.4317Z" stroke="white"/>
<path d="M39.0292 31.4317V31.9317H39.5292H39.5649V31.9767H39.5292H36.563H36.5273V31.9317H36.563H37.063V31.4317V24.421V23.921H36.563H36.5273V23.876H36.563H39.5292H39.5649V23.921H39.5292H39.0292V24.421V31.4317Z" stroke="white"/>
</svg>
