<svg width="65" height="52" viewBox="0 0 65 52" fill="none" xmlns="http://www.w3.org/2000/svg">
<path d="M62.9528 9.15654C60.0281 3.73587 54.2154 0 47.5253 0C41.4932 0 35.644 2.98099 32.5 7.55926L28.5517 3.919C28.1496 3.62599 27.7475 3.29635 27.3453 3.00335C24.5304 1.09878 21.1305 0 17.4747 0C13.2705 0 9.43195 1.46505 6.4342 3.88237C6.28796 3.99225 6.14173 4.13876 5.95894 4.28526C4.71597 5.34742 3.65579 6.59271 2.74184 7.94788C2.63217 8.13101 2.5225 8.27751 2.41282 8.46064C2.23003 8.79028 2.04724 9.11992 1.86445 9.44955C1.20641 10.7315 0.731159 12.1233 0.402137 13.5517C0.365579 13.7714 0.329021 13.9546 0.292463 14.1743C0.109674 15.1632 0 16.1888 0 17.2143C0 17.8369 0.0365579 18.4596 0.109674 19.0456C0.146232 19.2287 0.146232 19.4119 0.18279 19.595C0.329021 20.7304 0.621485 21.7926 0.987064 22.8547C1.46232 24.393 2.74184 26.4075 2.99775 26.7737C2.99775 26.8104 3.03431 26.8104 3.03431 26.847C3.14398 26.9935 3.25366 27.14 3.32677 27.2865C3.32677 27.3231 3.36333 27.3231 3.36333 27.3597C3.473 27.5062 3.58268 27.6528 3.69235 27.7993C3.72891 27.8359 3.76547 27.9091 3.80202 27.9458C3.87514 28.0556 3.98481 28.1655 4.05793 28.2754C4.1676 28.4219 4.31384 28.5684 4.46007 28.7149L4.49663 28.7515C4.78909 29.0445 5.04499 29.3376 5.33746 29.6306C5.37402 29.6306 5.37402 29.6672 5.41057 29.6672L7.64061 31.4985L11.1136 34.392L28.5152 48.8593L32.0979 51.8626C32.3172 52.0458 32.6828 52.0458 32.9021 51.8626L43.9061 42.7061L47.5253 39.7028L51.9488 36.0035L53.7767 34.5018L53.8498 34.4286L54.1057 34.2088L57.0669 31.7183L57.14 31.645L59.5894 29.6672C59.626 29.6672 59.626 29.6306 59.6625 29.6306C61.3442 28.019 62.7334 26.0778 63.6474 23.9169C64.5247 21.8658 65 19.6316 65 17.2509C65 14.2842 64.2688 11.5372 62.9528 9.15654Z" fill="#83529B"/>
<path d="M41.0231 24.3898C41.0231 22.6683 40.4232 21.0773 39.406 19.8253C39.406 19.7992 39.4321 19.7731 39.4321 19.747V15.4434C39.4321 15.2087 39.2495 15.0261 39.0147 15.0261H36.3022C36.0674 15.0261 35.8848 15.2087 35.8848 15.4434V17.4779C35.4936 17.3474 35.0763 17.2692 34.6329 17.217C34.4242 16.0955 33.407 15.2347 32.2333 15.2347C31.0595 15.2347 30.0423 16.0955 29.8337 17.217C29.4163 17.2692 28.999 17.3474 28.6078 17.4518V15.4173C28.6078 15.1826 28.4252 15 28.1904 15H25.5039C25.2692 15 25.0866 15.1826 25.0866 15.4173V19.721C25.0866 19.747 25.0866 19.747 25.0866 19.7731C24.0433 21.0251 23.4434 22.6161 23.4434 24.3376L23 32.8405C23 37.0138 26.469 37.5876 30.1988 37.5876H34.2677C37.9975 37.5876 41.4665 37.0138 41.4665 32.8405L41.0231 24.3898ZM36.6934 15.8607H38.5713V19.0167C38.0236 18.5212 37.3715 18.1038 36.6934 17.7908V15.8607ZM32.2333 16.0955C32.9375 16.0955 33.5374 16.565 33.7721 17.1909H30.6944C30.9291 16.5389 31.529 16.0955 32.2333 16.0955ZM25.9213 15.8607H27.7992V17.7908C27.095 18.1038 26.469 18.4951 25.9213 18.9906V15.8607ZM29.9641 18.0256C29.9641 18.0256 30.3227 17.993 30.4596 17.9995C30.5118 17.9995 30.5901 17.9995 30.6422 17.9995H33.8243C33.8765 17.9995 34.359 18.0125 34.5024 18.0256C37.5541 18.3386 39.9798 20.8425 40.1885 23.9724H35.0241C34.8415 23.216 34.1634 22.6683 33.3548 22.6683H31.3204C30.5118 22.6683 29.8337 23.216 29.6511 23.9724H24.278C24.4867 20.8686 26.8863 18.3647 29.9641 18.0256ZM34.2677 24.3898C34.2677 24.8853 33.8765 25.2766 33.3809 25.2766H31.3464C30.8509 25.2766 30.4596 24.8853 30.4596 24.3898C30.4596 23.8942 30.8509 23.5029 31.3464 23.5029H33.3809C33.8765 23.5029 34.2677 23.8942 34.2677 24.3898ZM34.2677 36.779H30.1988C26.2603 36.779 23.8086 36.1269 23.8086 32.8927L24.252 24.8071H29.7032C29.8858 25.5635 30.564 26.1112 31.3725 26.1112H33.407C34.2155 26.1112 34.8937 25.5635 35.0763 24.8071H40.2667L40.7101 32.8666C40.658 36.1269 38.2062 36.779 34.2677 36.779Z" fill="white"/>
<path d="M33.5096 27.5979H31.2144C28.8408 27.5979 26.9629 28.7195 26.9629 30.1801V32.3711C26.9629 33.7534 28.6322 34.6663 31.2144 34.6663H33.5096C36.0918 34.6663 37.7611 33.7795 37.7611 32.3711V30.1801C37.7611 28.7456 35.8832 27.5979 33.5096 27.5979ZM31.2144 28.4326H33.5096C35.2311 28.4326 36.457 29.0586 36.8221 29.7628H27.9019C28.2409 29.0586 29.4929 28.4326 31.2144 28.4326ZM36.9265 32.3711C36.9265 33.2318 35.4919 33.8317 33.5096 33.8317H31.2144C29.2321 33.8317 27.7975 33.2057 27.7975 32.3711V30.5974H36.9265V32.3711Z" fill="white"/>
</svg>
