<svg width="94" height="75" viewBox="0 0 94 75" fill="none" xmlns="http://www.w3.org/2000/svg">
<path d="M91.0394 13.2066C86.8099 5.38827 78.4038 0 68.7289 0C60.0056 0 51.5467 4.2995 47 10.9028L41.2902 5.6524C40.7087 5.22979 40.1271 4.75436 39.5456 4.33175C35.4747 1.58479 30.5579 0 25.2711 0C19.1912 0 13.64 2.11305 9.30484 5.59958C9.09336 5.75806 8.88189 5.96936 8.61755 6.18067C6.82002 7.71263 5.28684 9.50872 3.96513 11.4633C3.80652 11.7274 3.64792 11.9387 3.48931 12.2029C3.22497 12.6783 2.96063 13.1537 2.69629 13.6292C1.74466 15.4781 1.05737 17.4855 0.581552 19.5457C0.528684 19.8627 0.475816 20.1268 0.422947 20.4437C0.158605 21.87 0 23.3492 0 24.8283C0 25.7264 0.0528684 26.6244 0.158605 27.4696C0.211474 27.7338 0.211474 27.9979 0.264342 28.262C0.475816 29.8996 0.898763 31.4316 1.42745 32.9636C2.11474 35.1823 3.96513 38.0877 4.33521 38.616C4.33521 38.6688 4.38808 38.6688 4.38808 38.7216C4.54668 38.9329 4.70529 39.1442 4.81102 39.3555C4.81102 39.4083 4.86389 39.4083 4.86389 39.4612C5.0225 39.6725 5.1811 39.8838 5.33971 40.0951C5.39258 40.1479 5.44544 40.2536 5.49831 40.3064C5.60405 40.4649 5.76265 40.6233 5.86839 40.7818C6.027 40.9931 6.23847 41.2044 6.44994 41.4157L6.50281 41.4686C6.92576 41.8912 7.29584 42.3138 7.71879 42.7364C7.77165 42.7364 7.77165 42.7892 7.82452 42.7892L11.0495 45.4305L16.072 49.6038L41.2373 70.4701L46.4184 74.8019C46.7357 75.066 47.2643 75.066 47.5816 74.8019L63.4949 61.5954L68.7289 57.2636L75.126 51.9282L77.7694 49.7623L77.8751 49.6566L78.2452 49.3397L82.5276 45.7475L82.6333 45.6418L86.1755 42.7892C86.2283 42.7892 86.2283 42.7364 86.2812 42.7364C88.7132 40.412 90.7222 37.6123 92.0439 34.4955C93.3127 31.5372 94 28.3148 94 24.8811C94 20.6022 92.9426 16.6403 91.0394 13.2066Z" fill="#AFBE2D"/>
<g clip-path="url(#clip0)">
<path d="M27.6396 45.4215V49.6671H26.578V47.9392H25.1121V49.6671H24V45.4215H25.1121V47.0506H26.578V45.4215H27.6396Z" fill="white"/>
<path d="M28.5996 47.4949C28.5996 46.2608 29.4084 45.3228 30.8743 45.3228C32.2897 45.3228 33.048 46.3101 33.048 47.5937C33.048 48.8278 32.2392 49.8152 30.9249 49.8152C29.4589 49.7658 28.5996 48.8278 28.5996 47.4949ZM31.8853 47.5443C31.8853 46.7544 31.5315 46.162 30.8743 46.162C30.1666 46.162 29.7622 46.7051 29.7622 47.4456C29.7622 48.2354 30.1666 48.8278 30.9249 48.8278C31.5315 48.8772 31.8853 48.2848 31.8853 47.5443Z" fill="white"/>
<path d="M35.5748 45.4215C36.6364 45.4215 37.0408 45.8658 37.0408 46.557C37.0408 46.8532 36.9397 47.1 36.7375 47.3468C37.1419 47.5937 37.3946 47.9886 37.3946 48.4329C37.3946 49.1241 36.788 49.6671 35.7265 49.6671H34.0078V45.4215H35.5748ZM35.1199 46.3101V47.0506H35.5748C35.8276 47.0506 35.9287 46.8532 35.9287 46.6557C35.9287 46.5076 35.8276 46.3101 35.5748 46.3101H35.1199ZM35.6254 47.8899H35.1199V48.7785H35.6759C35.9792 48.7785 36.1814 48.6304 36.1814 48.3342C36.1309 48.0873 35.9792 47.8899 35.6254 47.8899Z" fill="white"/>
<path d="M39.3679 45.4215V47.7911L40.9855 45.4215H42.0976V49.6671H40.9855V47.2481L39.3679 49.6671H38.2559V45.4215H39.3679Z" fill="white"/>
<path d="M44.3211 45.4215V47.7911L45.9387 45.4215H47.0507V49.6671H45.9387V47.2481L44.3211 49.6671H43.209V45.4215H44.3211ZM44.6749 43.6937C44.7255 43.9899 44.9782 44.2861 45.2815 44.2861C45.5848 44.2861 45.787 44.0886 45.9387 43.6937L46.5452 43.8911C46.3936 44.5823 45.9892 45.0759 45.2815 45.0759C44.5738 45.0759 44.1694 44.5823 44.0683 43.8911L44.6749 43.6937Z" fill="white"/>
<path d="M53.571 45.4215V49.6671H52.4589V46.3101H50.993V49.6671H49.8809V45.4215H53.571Z" fill="white"/>
<path d="M54.4805 47.4949C54.4805 46.2608 55.2893 45.3228 56.7552 45.3228C58.1706 45.3228 58.9288 46.3101 58.9288 47.5937C58.9288 48.8278 58.12 49.8152 56.8057 49.8152C55.3398 49.7658 54.4805 48.8278 54.4805 47.4949ZM57.7662 47.5443C57.7662 46.7544 57.4123 46.162 56.7552 46.162C56.0475 46.162 55.6431 46.7051 55.6431 47.4456C55.6431 48.2354 56.0475 48.8278 56.8057 48.8278C57.4123 48.8772 57.7662 48.2848 57.7662 47.5443Z" fill="white"/>
<path d="M59.8907 48.7785C60.2951 47.6924 60.4468 46.557 60.4973 45.4215H63.1764V48.7785H63.5808V50.6051H62.6709V49.6177H60.3962V50.6051H59.4863V48.7785H59.8907ZM61.0028 48.7785H62.0644V46.3101H61.5083C61.3567 47.1494 61.2556 48.038 61.0028 48.7785Z" fill="white"/>
<path d="M65.6023 45.4215V49.6671H64.4902V45.4215H65.6023Z" fill="white"/>
<path d="M70.0007 45.4215V49.6671H68.8886V46.3101H68.282L68.0292 48.3342C67.9281 49.0253 67.4732 49.6671 66.3105 49.6671V48.7785C66.8666 48.7785 66.9677 48.5316 67.0182 47.9392L67.3215 45.3722H70.0007V45.4215Z" fill="white"/>
<path d="M33.6552 14.0241C33.5541 14.0734 33.453 14.1228 33.3014 14.1722C32.897 14.3696 32.5937 14.4684 32.0882 14.3696C31.886 14.3203 31.7343 14.2709 31.5321 14.1722C33.3014 12.8392 35.5255 12 37.9014 12C40.0244 12 41.9453 12.6418 43.5629 13.6785C42.9563 13.4316 42.3497 13.3329 41.642 13.4316C41.086 13.5304 40.631 13.7278 40.2772 13.9747L40.1761 14.0241C40.075 14.0734 39.9739 14.1228 39.8222 14.1722C39.4179 14.3696 39.1146 14.4684 38.6596 14.3696C38.3563 14.3203 38.1036 14.1722 37.8003 14.0241C37.5981 13.9253 37.3959 13.8266 37.1431 13.7278C36.486 13.481 35.8794 13.3329 35.1211 13.4316C34.5651 13.5304 34.1102 13.7278 33.7563 13.9747L33.6552 14.0241ZM31.2794 20.0468C31.0772 19.9481 30.875 19.8494 30.6222 19.7506C30.0662 19.5532 29.5607 19.4051 28.9541 19.4544V17.3316C29.0552 17.1342 29.1563 16.9367 29.2574 16.7886C29.6618 16.7886 30.0662 16.9367 30.4706 17.0848C30.7233 17.1835 30.9255 17.2823 31.1277 17.381C31.431 17.5291 31.7343 17.6772 32.0376 17.7266C32.1893 17.7759 32.3409 17.7759 32.4926 17.7759C32.8464 17.7759 33.0992 17.6772 33.453 17.5291C33.6047 17.4797 33.7058 17.381 33.8574 17.3316C34.2618 17.1342 34.6157 16.9367 35.1211 16.838C35.8288 16.7392 36.3849 16.838 36.9915 17.0848C37.2442 17.1835 37.4464 17.2823 37.6486 17.381C37.9519 17.5291 38.2552 17.6772 38.5585 17.7266C39.1146 17.8747 39.519 17.7266 39.9739 17.5291C40.1255 17.4797 40.2266 17.381 40.3783 17.3316C40.7827 17.1342 41.1365 16.9367 41.642 16.838C42.2992 16.7392 42.8552 16.838 43.4618 17.0848C43.108 17.8747 42.8552 18.7139 42.7036 19.5532C42.3497 19.5038 42.0464 19.5038 41.642 19.5532C41.086 19.6519 40.631 19.8987 40.2772 20.0962L40.1761 20.0468C40.075 20.0962 39.9739 20.1456 39.8222 20.1949C39.4179 20.3924 39.064 20.4911 38.6091 20.3924C38.3058 20.343 38.053 20.1949 37.7497 20.0468C37.5475 19.9481 37.3453 19.8494 37.0926 19.7506C36.4354 19.5038 35.8288 19.3557 35.0706 19.4544C34.5146 19.5532 34.0596 19.8 33.7058 19.9975L33.6552 20.0468C33.5541 20.0962 33.453 20.1456 33.3014 20.1949C32.897 20.4418 32.5937 20.4911 32.0882 20.3924C31.8354 20.343 31.5321 20.1949 31.2794 20.0468ZM31.2794 17.0354C31.5827 17.1835 31.8354 17.3316 32.1387 17.381C32.5937 17.4797 32.9475 17.381 33.3519 17.1835C33.453 17.1342 33.5541 17.0848 33.7058 17.0354L33.7563 16.9861C34.1102 16.7886 34.5651 16.5418 35.1211 16.4924C35.8794 16.3937 36.486 16.4924 37.1431 16.7886C37.3959 16.8873 37.5981 16.9861 37.8003 17.0848C38.1036 17.2329 38.3563 17.381 38.6596 17.4304C39.1146 17.5291 39.4684 17.4304 39.8728 17.2329C39.9739 17.1835 40.075 17.1342 40.2266 17.0848L40.2772 17.0354C40.6816 16.838 41.086 16.5911 41.642 16.4924C42.4003 16.3937 42.9563 16.4924 43.6135 16.7392C43.9167 16.0975 44.2706 15.5051 44.675 14.962C44.7761 14.8139 44.7761 14.6658 44.675 14.5671C44.5233 14.4684 44.3717 14.3696 44.22 14.3203C44.0178 14.2215 43.8157 14.1228 43.5629 14.0241C42.9058 13.7772 42.4003 13.6785 41.6926 13.7772C41.1871 13.8759 40.7827 14.0734 40.4288 14.2709C40.2772 14.3696 40.1761 14.419 40.0244 14.4684C39.5695 14.7152 39.1651 14.8139 38.6091 14.6658C38.2552 14.6165 37.9519 14.4684 37.6486 14.3203C37.4464 14.2215 37.2442 14.1228 36.9915 14.0241C36.3343 13.7772 35.8288 13.6785 35.1211 13.7772C34.6157 13.8759 34.2113 14.0734 33.8574 14.2709C33.7058 14.3203 33.6047 14.419 33.453 14.4684C33.0992 14.6165 32.8464 14.7152 32.4926 14.7152C32.3409 14.7152 32.1893 14.7152 32.0376 14.6658C31.7849 14.6165 31.5321 14.5177 31.2794 14.3696C30.5717 15.0114 29.9651 15.7025 29.4596 16.443C29.864 16.4924 30.2179 16.5911 30.6222 16.7392C30.8244 16.838 31.0772 16.9367 31.2794 17.0354ZM37.6992 23.3544L29.0047 25.4278H28.9541V22.762C29.5102 22.7127 29.9651 22.8608 30.4706 23.0582C30.7233 23.157 30.9255 23.2557 31.1277 23.3544C31.431 23.5025 31.7343 23.6506 32.0376 23.7C32.1893 23.7494 32.3409 23.7494 32.4926 23.7494C32.8464 23.7494 33.0992 23.6506 33.453 23.5025C33.6047 23.4532 33.7058 23.3544 33.8574 23.3051C34.2618 23.1076 34.6157 22.9101 35.1211 22.8114C35.8288 22.7127 36.3849 22.8114 36.9915 23.0582C37.2442 23.157 37.497 23.2557 37.6992 23.3544ZM28.9541 22.4658V19.7506C28.853 19.7506 28.7519 19.7506 28.6003 19.8C28.3981 19.8 28.1959 19.8987 28.0442 19.9481C27.9431 20.4911 27.8926 21.0835 27.8926 21.6266C27.8926 21.9722 27.8926 22.3177 27.9431 22.6633C28.1453 22.6139 28.3475 22.5152 28.5497 22.5152C28.7014 22.4658 28.8025 22.4658 28.9541 22.4658ZM27.9937 22.9595C28.1959 22.8608 28.3981 22.8114 28.6508 22.762C28.7519 22.762 28.853 22.7127 29.0047 22.7127V25.3785C28.853 25.3785 28.7014 25.3291 28.6508 25.181C28.297 24.4899 28.0948 23.7494 27.9937 22.9595ZM28.9541 19.4544V17.3316C28.6003 18.0722 28.297 18.8127 28.0948 19.6025C28.2464 19.5532 28.3981 19.5038 28.5497 19.5038C28.7014 19.4544 28.8025 19.4544 28.9541 19.4544ZM40.4288 20.2937C40.8332 20.0962 41.1871 19.8987 41.6926 19.8C42.0464 19.7506 42.3497 19.7506 42.653 19.8C42.5519 20.3924 42.5014 20.9848 42.5014 21.5772C42.5014 21.5772 42.5014 21.5772 42.5014 21.6266C42.5014 21.6266 42.5014 21.6266 42.5014 21.676C42.5014 21.7747 42.5014 21.8734 42.5014 21.9722C42.5014 22.1203 42.4003 22.2684 42.2486 22.3177L38.1541 23.3051C38.053 23.2557 37.9014 23.2063 37.8003 23.157C37.5981 23.0582 37.3959 22.9595 37.1431 22.8608C36.486 22.6139 35.8794 22.4658 35.1211 22.5646C34.5651 22.6633 34.1102 22.8608 33.7563 23.1076C33.7563 23.1076 33.7058 23.1076 33.7058 23.157C33.6047 23.2063 33.5036 23.2557 33.3519 23.3051C32.9475 23.5025 32.5937 23.6013 32.1387 23.5025C31.8354 23.4532 31.5827 23.3051 31.2794 23.157C31.0772 23.0582 30.875 22.9595 30.6222 22.8608C30.0662 22.6633 29.5607 22.5152 28.9541 22.5646V19.8494C29.5102 19.8 29.9651 19.9481 30.4706 20.1456C30.7233 20.2443 30.9255 20.343 31.1277 20.4418C31.431 20.5899 31.7343 20.738 32.0376 20.7873C32.1893 20.8367 32.3409 20.8367 32.4926 20.8367C32.8464 20.8367 33.0992 20.738 33.453 20.5899C33.6047 20.5405 33.7058 20.4418 33.8574 20.3924C34.2618 20.1949 34.6157 19.9975 35.1211 19.8987C35.8288 19.8 36.3849 19.8987 36.9915 20.1456C37.2442 20.2443 37.4464 20.343 37.6486 20.4418C37.9519 20.5899 38.2552 20.738 38.5585 20.7873C39.1146 20.9354 39.519 20.7873 39.9739 20.5899C40.1255 20.4418 40.2772 20.343 40.4288 20.2937Z" fill="white"/>
<path d="M46.5449 30.5127L46.4944 30.4633L46.4438 30.4139C44.624 28.7354 43.4108 26.662 42.8548 24.3418C42.8043 24.0456 42.4504 23.8481 42.1471 23.9468L41.035 24.243C40.7823 24.2924 40.5801 24.5392 40.5801 24.7861V36.1405C40.5801 36.2886 40.6306 36.4367 40.7823 36.5848L46.3427 41.0772C46.4944 41.176 46.6966 41.176 46.7977 41.0772L53.1163 35.943L53.0658 35.8443L46.5449 30.5127Z" fill="white"/>
<path d="M37.1935 25.1316L29.5605 27.0076C29.5605 27.0076 29.5605 27.0076 29.5605 27.057C29.6111 27.1557 29.6616 27.2051 29.7122 27.3038C29.7122 27.3038 29.7122 27.3038 29.7627 27.3532C29.8133 27.4519 29.8638 27.5013 29.9649 27.6C29.9649 27.6494 30.0155 27.6494 30.0155 27.6987C30.066 27.7481 30.1166 27.8468 30.1671 27.8962C30.2177 27.9949 30.3188 28.0443 30.3693 28.143C30.521 28.2911 30.6726 28.4886 30.8748 28.6367C30.8748 28.6367 30.8748 28.6367 30.9254 28.6861L32.1891 29.7228L36.8902 33.5241C37.2441 33.8203 37.8507 33.5734 37.8507 33.0797V25.6747C37.9518 25.3291 37.5979 25.0329 37.1935 25.1316Z" fill="white"/>
<path d="M51.4476 19.5532C51.6498 19.5532 51.7509 19.7013 51.7509 19.8494V19.9481L51.8014 31.1544L48.4146 28.3899L48.263 28.5873L48.4146 28.3899C46.4937 26.6127 45.4322 24.1937 45.4322 21.6266V21.5772C45.4322 21.3797 45.4322 21.1823 45.4322 20.9848L51.3465 19.5532C51.397 19.6025 51.397 19.5532 51.4476 19.5532ZM51.4476 19.3063C51.397 19.3063 51.3465 19.3063 51.2959 19.3063L45.1795 20.7873C45.1795 21.0342 45.1289 21.281 45.1289 21.5772V21.6266C45.1289 24.3418 46.2915 26.8101 48.2124 28.5873C48.2124 28.5873 48.2124 28.5873 48.263 28.6367L52.0542 31.7468L52.0036 19.9975V19.8987C52.0036 19.5532 51.7509 19.3063 51.4476 19.3063Z" fill="white"/>
<path d="M52.0039 19.9481L52.0545 31.6975L52.0039 19.9481Z" fill="#9975B0"/>
<path d="M64.0346 17.1342C62.3665 14.0734 59.0302 12 55.1885 12C49.9313 12 45.6346 15.9 45.1797 20.8367L51.2962 19.3557C51.65 19.257 52.0039 19.5532 52.0039 19.8987V19.9975C52.0039 19.6025 52.4083 19.3557 52.7621 19.4544L53.3687 19.6519L58.3225 21.3797C58.5753 21.4785 58.7269 21.676 58.7269 21.9228V24.2924L59.9907 23.9962C60.294 23.9468 60.5467 24.0949 60.6478 24.3418C60.6984 24.1443 60.9006 23.8975 61.3555 24.0949L64.2874 25.1316C64.3885 25.181 64.4896 25.2797 64.439 25.4278C64.9445 24.2924 65.2478 23.0089 65.2478 21.676C65.2478 19.9975 64.7929 18.4671 64.0346 17.1342Z" fill="white"/>
<path d="M60.1439 24.1937C60.245 24.1937 60.3461 24.243 60.4472 24.3418V29.6241L59.0318 30.7595L58.9813 24.4405L60.0428 24.1937C60.0934 24.1937 60.0933 24.1937 60.1439 24.1937ZM60.1439 23.9468C60.0933 23.9468 60.0428 23.9468 59.9922 23.9468L58.7285 24.243L58.7791 31.3025L60.6999 29.7722V24.3418V24.2924C60.5483 24.0949 60.3461 23.9468 60.1439 23.9468Z" fill="white"/>
<path d="M61.0528 24.243C61.1034 24.243 61.1539 24.243 61.255 24.2924L64.1869 25.3291C63.6814 26.5139 62.9232 27.5013 62.0133 28.3899L61.9627 28.4392L61.0023 29.2291V24.5392C61.0023 24.4899 61.0023 24.3911 60.9517 24.3418C60.9517 24.243 61.0023 24.243 61.0528 24.243ZM61.0528 23.9962C60.8001 23.9962 60.6484 24.1443 60.6484 24.3418C60.6484 24.3911 60.699 24.4899 60.699 24.5392V29.7722L62.0638 28.6367C62.0638 28.6367 62.0638 28.6367 62.1144 28.5873C63.0748 27.6987 63.8836 26.6127 64.3891 25.3785C64.4397 25.2797 64.3385 25.1316 64.2375 25.0823L61.3056 24.0456C61.255 23.9962 61.1539 23.9962 61.0528 23.9962Z" fill="white"/>
<path d="M60.6484 24.2924V24.3418V29.7722L60.699 29.7228V24.4899C60.699 24.4405 60.699 24.3418 60.6484 24.2924Z" fill="white"/>
<path d="M52.6124 19.6519C52.6629 19.6519 52.7135 19.6519 52.7135 19.6519L53.3201 19.8987L58.2739 21.6266C58.4256 21.6759 58.4761 21.7747 58.4761 21.9228V24.2924C58.4761 24.2924 58.4761 24.2924 58.4761 24.3418L58.5267 31.2532L57.5662 31.9937L57.4146 32.0924C57.4146 32.0924 57.4146 32.0924 57.364 32.0924C57.364 32.0924 57.364 32.0924 57.3135 32.1418H57.2629C57.1618 32.1911 57.1113 32.2405 57.1113 32.3392L55.1904 33.919L52.3091 31.5987L52.2585 19.9975C52.2585 19.8987 52.3091 19.8 52.3596 19.8C52.4102 19.7013 52.5113 19.6519 52.6124 19.6519ZM52.6124 19.4051C52.3091 19.4051 52.0058 19.6519 52.0563 19.9481L52.1069 31.6975L55.2409 34.2152L57.7684 32.1418L57.5662 32.2899L57.7684 32.1418L58.83 31.3025L58.7794 24.243V21.8734C58.7794 21.6266 58.6278 21.4291 58.375 21.3304L53.4212 19.6025L52.8146 19.4544C52.7135 19.4051 52.6629 19.4051 52.6124 19.4051ZM57.4146 32.3886C57.364 32.3886 57.364 32.3886 57.4146 32.3886C57.364 32.3886 57.364 32.3886 57.4146 32.3886Z" fill="white"/>
</g>
<defs>
<clipPath id="clip0">
<rect width="46" height="39" fill="white" transform="translate(24 12)"/>
</clipPath>
</defs>
</svg>
