<svg width="65" height="52" viewBox="0 0 65 52" fill="none" xmlns="http://www.w3.org/2000/svg">
<path d="M62.9528 9.15654C60.0281 3.73587 54.2154 0 47.5253 0C41.4932 0 35.644 2.98099 32.5 7.55926L28.5517 3.919C28.1496 3.62599 27.7475 3.29635 27.3453 3.00335C24.5304 1.09878 21.1305 0 17.4747 0C13.2705 0 9.43195 1.46505 6.4342 3.88237C6.28796 3.99225 6.14173 4.13876 5.95894 4.28526C4.71597 5.34742 3.65579 6.59271 2.74184 7.94788C2.63217 8.13101 2.5225 8.27751 2.41282 8.46064C2.23003 8.79028 2.04724 9.11992 1.86445 9.44955C1.20641 10.7315 0.731159 12.1233 0.402137 13.5517C0.365579 13.7714 0.329021 13.9546 0.292463 14.1743C0.109674 15.1632 0 16.1888 0 17.2143C0 17.8369 0.0365579 18.4596 0.109674 19.0456C0.146232 19.2287 0.146232 19.4119 0.18279 19.595C0.329021 20.7304 0.621485 21.7926 0.987064 22.8547C1.46232 24.393 2.74184 26.4075 2.99775 26.7737C2.99775 26.8104 3.03431 26.8104 3.03431 26.847C3.14398 26.9935 3.25366 27.14 3.32677 27.2865C3.32677 27.3231 3.36333 27.3231 3.36333 27.3597C3.473 27.5062 3.58268 27.6528 3.69235 27.7993C3.72891 27.8359 3.76547 27.9091 3.80202 27.9458C3.87514 28.0556 3.98481 28.1655 4.05793 28.2754C4.1676 28.4219 4.31384 28.5684 4.46007 28.7149L4.49663 28.7515C4.78909 29.0445 5.04499 29.3376 5.33746 29.6306C5.37402 29.6306 5.37402 29.6672 5.41057 29.6672L7.64061 31.4985L11.1136 34.392L28.5152 48.8593L32.0979 51.8626C32.3172 52.0458 32.6828 52.0458 32.9021 51.8626L43.9061 42.7061L47.5253 39.7028L51.9488 36.0035L53.7767 34.5018L53.8498 34.4286L54.1057 34.2088L57.0669 31.7183L57.14 31.645L59.5894 29.6672C59.626 29.6672 59.626 29.6306 59.6625 29.6306C61.3442 28.019 62.7334 26.0778 63.6474 23.9169C64.5247 21.8658 65 19.6316 65 17.2509C65 14.2842 64.2688 11.5372 62.9528 9.15654Z" fill="#83529B"/>
<path d="M30.6667 18.3125C30.4022 18.3125 30.1875 18.5262 30.1875 18.7917C30.1875 19.0571 30.4022 19.2708 30.6667 19.2708C30.9312 19.2708 31.1459 19.0561 31.1459 18.7916C31.1459 18.5271 30.9312 18.3125 30.6667 18.3125Z" fill="white"/>
<path d="M36.8971 15.9167C36.6326 15.9167 36.418 16.1314 36.418 16.3959C36.418 16.6604 36.6326 16.875 36.8971 16.875C37.1607 16.875 37.3763 17.0897 37.3763 17.3542C37.3763 17.6187 37.591 17.8334 37.8555 17.8334C38.12 17.8334 38.3346 17.6187 38.3346 17.3542C38.3346 16.5607 37.6897 15.9167 36.8971 15.9167Z" fill="white"/>
<path d="M34.5001 23.1042C34.271 23.1042 34.0803 23.2652 34.0324 23.4798C33.9615 23.521 33.7919 23.5833 33.5417 23.5833C33.2993 23.5833 33.1373 23.5258 33.0625 23.4847V22.8243L33.881 22.0059C34.017 21.8689 34.0583 21.6628 33.9845 21.4836C33.9107 21.3044 33.7353 21.1875 33.5417 21.1875H31.625C31.4315 21.1875 31.257 21.3044 31.1823 21.4836C31.1075 21.6628 31.1487 21.8689 31.2858 22.0059L32.1042 22.8243V23.4847C32.0295 23.5258 31.8675 23.5833 31.625 23.5833C31.3749 23.5833 31.2053 23.522 31.1344 23.4798C31.0864 23.2642 30.8957 23.1042 30.6667 23.1042C30.4022 23.1042 30.1875 23.3188 30.1875 23.5833C30.1876 24.1392 30.7923 24.5417 31.6251 24.5417C32.0056 24.5417 32.3343 24.4545 32.5835 24.3107C32.8326 24.4545 33.1613 24.5417 33.5418 24.5417C34.3746 24.5417 34.9793 24.1392 34.9793 23.5833C34.9792 23.3188 34.7646 23.1042 34.5001 23.1042Z" fill="white"/>
<path d="M34.5007 18.3125C34.2362 18.3125 34.0215 18.5262 34.0215 18.7917C34.0215 19.0571 34.2362 19.2708 34.5007 19.2708C34.7652 19.2708 34.9798 19.0561 34.9798 18.7916C34.9798 18.5271 34.7652 18.3125 34.5007 18.3125Z" fill="white"/>
<path d="M39.2916 30.2917C40.8767 30.2917 42.1666 29.0017 42.1666 27.4167C42.1666 25.8316 40.8767 24.5417 39.2916 24.5417C38.6994 24.5417 38.1483 24.7228 37.6902 25.0314C37.4832 24.7841 37.2638 24.557 37.0319 24.3471C37.8445 23.3552 38.3333 22.0874 38.3333 20.7083C38.3333 20.5971 38.3295 20.486 38.3218 20.3767C39.489 19.8276 40.25 18.6565 40.25 17.3542C40.25 15.5046 38.7454 14 36.8958 14C35.8857 14 34.9427 14.4523 34.3083 15.2267C33.1832 14.8702 31.9834 14.8702 30.8583 15.2267C30.2239 14.4514 29.2819 14 28.2708 14C26.4212 14 24.9166 15.5046 24.9166 17.3542C24.9166 18.6575 25.6776 19.8286 26.8448 20.3767C26.8371 20.486 26.8333 20.5962 26.8333 20.7083C26.8333 22.0883 27.3221 23.3552 28.1357 24.3471C27.9028 24.556 27.6843 24.7841 27.4773 25.0304C27.0183 24.7218 26.4672 24.5417 25.875 24.5417C24.2899 24.5417 23 25.8316 23 27.4167C23 29.0017 24.2899 30.2917 25.875 30.2917C25.9028 30.2917 25.9287 30.284 25.9555 30.283C25.9785 30.444 26.0072 30.6021 26.0417 30.7593C25.9086 30.8408 25.7792 30.9299 25.6671 31.0411C24.6052 32.1038 24.9473 34.1106 26.4452 35.6094C27.1352 36.2985 27.9709 36.77 28.7969 36.9348C29.0135 36.9798 29.2253 37 29.4275 37C30.06 37 30.6091 36.7901 31.0136 36.3866C31.1544 36.2458 31.2685 36.0848 31.3614 35.9103C31.7726 35.9889 32.1827 36.0416 32.5833 36.0416C32.9839 36.0416 33.394 35.9889 33.8061 35.9113C33.8991 36.0858 34.0131 36.2468 34.154 36.3876C34.5574 36.7901 35.1066 37 35.7391 37C35.9412 37 36.1531 36.9789 36.3706 36.9348C37.1967 36.77 38.0324 36.2994 38.7224 35.6094C40.2212 34.1106 40.5624 32.1039 39.5005 31.0411C39.3884 30.929 39.259 30.8398 39.1249 30.7584C39.1584 30.6012 39.1881 30.4431 39.2102 30.2821C39.238 30.284 39.2639 30.2917 39.2916 30.2917ZM27.7916 20.7083C27.7916 20.5109 27.8079 20.3173 27.8309 20.1247C27.8587 19.8995 27.7246 19.6848 27.5089 19.612C26.5324 19.2823 25.875 18.3748 25.875 17.3542C25.875 16.0336 26.9493 14.9584 28.2708 14.9584C29.0835 14.9584 29.8339 15.3695 30.2785 16.0566C30.4021 16.2473 30.6427 16.3249 30.8544 16.2435C31.9738 15.8094 33.1918 15.8094 34.3111 16.2435C34.5219 16.3259 34.7634 16.2473 34.8871 16.0566C35.3327 15.3695 36.0831 14.9584 36.8957 14.9584C38.2173 14.9584 39.2916 16.0336 39.2916 17.3542C39.2916 18.3748 38.6341 19.2824 37.6576 19.613C37.442 19.6858 37.3078 19.9005 37.3356 20.1257C37.3586 20.3164 37.3749 20.5109 37.3749 20.7084C37.3749 22.0155 36.8459 23.199 35.9949 24.0644C35.8196 24.2427 35.626 24.3941 35.4295 24.5407C35.372 24.5829 35.3241 24.6365 35.2647 24.6768C35.1296 24.7688 34.9801 24.833 34.8372 24.9106C34.4549 25.1167 34.0495 25.2863 33.6134 25.3821C33.5904 25.3869 33.5694 25.3984 33.5454 25.4032C33.236 25.4655 32.913 25.5 32.5833 25.5C32.2536 25.5 31.9307 25.4664 31.6192 25.4022C31.5953 25.3974 31.5742 25.3859 31.5512 25.3812C31.1171 25.2853 30.7146 25.1176 30.3331 24.9125C30.1884 24.8349 30.037 24.7688 29.9009 24.6758C29.8415 24.6356 29.7936 24.5829 29.7361 24.5398C29.5397 24.3932 29.3461 24.2417 29.1707 24.0635C28.3206 23.199 27.7916 22.0145 27.7916 20.7083ZM25.875 29.3333C24.8179 29.3333 23.9583 28.4737 23.9583 27.4167C23.9583 26.3596 24.8179 25.5 25.875 25.5C26.3944 25.5 26.864 25.7089 27.2099 26.0453C27.4898 26.3184 27.6766 26.6596 27.7533 27.0324C27.7782 27.156 27.7916 27.2844 27.7916 27.4167C27.7916 27.5383 27.7773 27.6572 27.7552 27.7732C27.7456 27.8211 27.7303 27.868 27.7169 27.915C27.6996 27.9792 27.6814 28.0434 27.6584 28.1047C27.6364 28.1603 27.6105 28.213 27.5846 28.2657C27.5607 28.3146 27.5348 28.3625 27.507 28.4085C27.4744 28.4612 27.4389 28.513 27.4016 28.5628C27.3709 28.604 27.3374 28.6433 27.3029 28.6826C27.2617 28.7296 27.2195 28.7756 27.1735 28.8178C27.1352 28.8532 27.093 28.8858 27.0518 28.9184C27.0039 28.9567 26.956 28.9951 26.9042 29.0286C26.8582 29.0583 26.8084 29.0813 26.7605 29.1072C26.7059 29.1359 26.6541 29.1675 26.5966 29.1905C26.564 29.204 26.5286 29.2107 26.495 29.2222C26.4232 29.2471 26.3522 29.273 26.2766 29.2892C26.2717 29.2902 26.2689 29.293 26.2641 29.294C26.1386 29.3189 26.0082 29.3333 25.875 29.3333ZM30.6533 34.9204C30.6523 34.9242 30.6523 34.9252 30.6523 34.9261C30.6437 35.0325 30.6255 35.1351 30.5968 35.2328C30.5958 35.2366 30.5968 35.2405 30.5958 35.2443C30.5412 35.4245 30.4598 35.5864 30.3351 35.711C30.0361 36.0091 29.557 36.1097 28.9839 35.9966C28.3408 35.8682 27.6806 35.4906 27.1228 34.9328C26.0418 33.8509 25.6853 32.3789 26.3447 31.7195C26.4462 31.618 26.5737 31.5432 26.7146 31.4886C26.727 31.4848 26.7414 31.4876 26.7539 31.4828C26.8162 31.4608 26.8833 31.4512 26.9494 31.4378C27.004 31.4272 27.0586 31.4157 27.1171 31.41C27.5043 31.3755 27.9451 31.4713 28.3859 31.6745C28.4386 31.6994 28.4913 31.7224 28.544 31.7502C28.6226 31.7914 28.7002 31.8374 28.7778 31.8844C28.8516 31.9304 28.9235 31.9792 28.9954 32.03C29.0538 32.0712 29.1123 32.1115 29.1698 32.1565C29.3021 32.262 29.4334 32.3731 29.557 32.4967C29.5589 32.4987 29.5608 32.5005 29.5628 32.5025C29.6854 32.6252 29.7956 32.7545 29.9001 32.8858C29.9375 32.9327 29.97 32.9807 30.0045 33.0276C30.0687 33.1158 30.1281 33.2059 30.1837 33.2959C30.2182 33.3525 30.2527 33.409 30.2834 33.4656C30.3371 33.5642 30.3831 33.6639 30.4262 33.7636C30.4521 33.824 30.478 33.8844 30.5 33.9447C30.5403 34.0578 30.5738 34.1709 30.5997 34.284C30.6179 34.3645 30.6304 34.445 30.6399 34.5236C30.6447 34.5581 30.6486 34.5916 30.6514 34.6251C30.659 34.7258 30.6609 34.8245 30.6533 34.9204ZM34.4166 32.4239C34.2978 32.584 34.1886 32.7469 34.0937 32.9136C34.086 32.927 34.0765 32.9395 34.0688 32.9538C33.972 33.1273 33.8915 33.3037 33.8206 33.48C33.7985 33.5355 33.7784 33.5912 33.7593 33.6467C33.7123 33.7799 33.674 33.9132 33.6433 34.0463C33.6337 34.0885 33.6155 34.1297 33.6069 34.1709C33.6011 34.1997 33.604 34.2255 33.5983 34.2543C33.5733 34.399 33.5599 34.5418 33.5551 34.6827C33.5513 34.7737 33.5523 34.8628 33.5571 34.951C33.558 34.9654 33.5561 34.9807 33.5571 34.996C32.8987 35.1139 32.2681 35.1139 31.6088 34.996C31.6097 34.9865 31.6088 34.9769 31.6088 34.9673C31.6145 34.8686 31.6155 34.7689 31.6107 34.6654C31.6069 34.5562 31.5934 34.445 31.5781 34.3338C31.5695 34.2792 31.5733 34.2275 31.5618 34.1719C31.5503 34.1153 31.5264 34.0588 31.512 34.0023C31.4852 33.8921 31.4536 33.7818 31.4152 33.6707C31.3913 33.6017 31.3673 33.5327 31.3385 33.4637C31.2705 33.296 31.1948 33.1293 31.1028 32.9644C31.0874 32.9366 31.0683 32.9098 31.052 32.882C30.9638 32.7305 30.8641 32.581 30.7568 32.4354C30.7252 32.3923 30.6935 32.3501 30.66 32.308C30.5297 32.1412 30.3907 31.9783 30.2354 31.823C30.0811 31.6687 29.9182 31.5307 29.7524 31.4004C29.7035 31.3621 29.6547 31.3266 29.6058 31.2902C29.4822 31.2001 29.3557 31.1168 29.2272 31.0401C29.1726 31.0065 29.1189 30.9711 29.0634 30.9404C28.9081 30.8561 28.7509 30.7823 28.5938 30.719C28.5009 30.6807 28.4079 30.652 28.314 30.6213C28.2421 30.5983 28.1702 30.5772 28.0974 30.558C28.0255 30.5389 27.9546 30.5101 27.8837 30.4957C27.5617 30.4315 27.2598 30.4325 26.9723 30.4632C26.9657 30.4641 26.958 30.4632 26.9513 30.4641C26.9273 30.3462 26.9082 30.2264 26.8918 30.1067C26.9091 30.1 26.9244 30.0904 26.9417 30.0827C26.9982 30.0607 27.05 30.0319 27.1046 30.006C27.2033 29.9591 27.2991 29.9083 27.3911 29.8508C27.4486 29.8153 27.5033 29.778 27.5579 29.7387C27.6422 29.6773 27.7208 29.6112 27.7975 29.5412C27.8454 29.4972 27.8962 29.4569 27.9412 29.4099C28.0485 29.2978 28.1482 29.1799 28.2364 29.0525C28.2718 29.0017 28.2996 28.9452 28.3313 28.8915C28.3859 28.8014 28.4376 28.7104 28.4817 28.6145C28.5105 28.5513 28.5354 28.4871 28.5603 28.4219C28.5986 28.3203 28.6302 28.2178 28.6571 28.1114C28.6715 28.053 28.6878 27.9955 28.6993 27.9351C28.729 27.7645 28.7501 27.592 28.7501 27.4167C28.7501 27.2346 28.729 27.0573 28.6964 26.8829C28.6868 26.8311 28.6715 26.7822 28.659 26.7314C28.6293 26.6107 28.5938 26.4928 28.5488 26.3778C28.5268 26.3212 28.5028 26.2676 28.4779 26.213C28.43 26.1104 28.3763 26.0127 28.316 25.9159C28.2815 25.8603 28.2489 25.8057 28.2115 25.753C28.1943 25.729 28.1818 25.7022 28.1636 25.6792C28.3591 25.4415 28.568 25.223 28.7894 25.0256C28.8028 25.0371 28.8181 25.0457 28.8325 25.0572C29.0577 25.2518 29.2973 25.4272 29.5503 25.5853C29.6021 25.6179 29.6538 25.6495 29.7065 25.6802C29.9518 25.823 30.2077 25.9475 30.4732 26.053C30.5336 26.0769 30.5939 26.098 30.6543 26.1191C30.9274 26.2168 31.2073 26.2973 31.4967 26.3529C31.5417 26.3615 31.5868 26.3663 31.6318 26.373C31.9414 26.4248 32.2586 26.4583 32.5834 26.4583C32.9083 26.4583 33.2255 26.4248 33.5351 26.373C33.5801 26.3654 33.6251 26.3606 33.6702 26.3529C33.9596 26.2973 34.2404 26.2168 34.5126 26.1191C34.5729 26.097 34.6342 26.0769 34.6937 26.053C34.9601 25.9475 35.215 25.822 35.4604 25.6802C35.5131 25.6495 35.5648 25.6179 35.6166 25.5853C35.8696 25.4272 36.1101 25.2518 36.3344 25.0572C36.3478 25.0457 36.3641 25.038 36.3775 25.0256C36.5989 25.222 36.8078 25.4405 37.0033 25.6792C36.9851 25.7031 36.9726 25.729 36.9554 25.753C36.918 25.8057 36.8844 25.8603 36.8509 25.9159C36.7915 26.0127 36.7369 26.1105 36.6899 26.213C36.665 26.2676 36.6401 26.3222 36.618 26.3778C36.573 26.4928 36.5375 26.6107 36.5078 26.7314C36.4954 26.7822 36.48 26.832 36.4695 26.8838C36.4379 27.0563 36.4168 27.2345 36.4168 27.4166C36.4168 27.5929 36.4379 27.7645 36.4695 27.9332C36.4801 27.9935 36.4973 28.051 36.5117 28.1105C36.5385 28.2159 36.5702 28.3184 36.6075 28.419C36.6325 28.4852 36.6573 28.5494 36.6861 28.6136C36.7302 28.7085 36.781 28.7985 36.8347 28.8877C36.8672 28.9423 36.895 28.9998 36.9315 29.0515C37.0196 29.178 37.1183 29.2959 37.2247 29.4071C37.2717 29.456 37.3234 29.4972 37.3733 29.5422C37.448 29.6103 37.5247 29.6754 37.6071 29.7348C37.6627 29.7751 37.7202 29.8134 37.7786 29.8498C37.8678 29.9054 37.9607 29.9553 38.0575 30.0013C38.1141 30.0281 38.1687 30.0578 38.2281 30.0808C38.2444 30.0875 38.2597 30.0971 38.276 30.1038C38.2597 30.2236 38.2396 30.3434 38.2166 30.4613C38.2118 30.4603 38.206 30.4613 38.2013 30.4603C37.9118 30.4287 37.6081 30.4278 37.2841 30.4929C37.2161 30.5063 37.1481 30.5351 37.0791 30.5523C37.0005 30.5725 36.9219 30.5955 36.8433 30.6213C36.7542 30.6501 36.667 30.6779 36.5788 30.7133C36.4178 30.7775 36.2588 30.8523 36.1006 30.9385C36.0489 30.9673 35.9981 31.0008 35.9473 31.0315C35.816 31.11 35.6866 31.1953 35.5592 31.2873C35.5113 31.3228 35.4634 31.3573 35.4154 31.3947C35.2487 31.525 35.0858 31.664 34.9305 31.8182C34.7733 31.9754 34.6334 32.1412 34.5012 32.3099C34.4722 32.3482 34.4444 32.3856 34.4166 32.4239ZM38.0439 34.9309C37.4861 35.4887 36.8258 35.8662 36.1828 35.9947C35.6097 36.1068 35.1305 36.0071 34.8315 35.7091C34.707 35.5845 34.6255 35.4225 34.5709 35.2424C34.5699 35.2395 34.5709 35.2366 34.5699 35.2328C34.5412 35.1351 34.523 35.0335 34.5144 34.9271C34.5144 34.9252 34.5144 34.9233 34.5134 34.9214C34.5057 34.8265 34.5077 34.7268 34.5153 34.6262C34.5182 34.5946 34.522 34.562 34.5259 34.5284C34.5355 34.4479 34.548 34.3655 34.5671 34.2821C34.5901 34.1825 34.6198 34.0838 34.6543 33.9841C34.683 33.8998 34.7175 33.8164 34.754 33.7311C34.7923 33.6448 34.8306 33.5595 34.8766 33.4743C34.9111 33.4101 34.9505 33.3458 34.9897 33.2816C35.0395 33.2021 35.0923 33.1226 35.1478 33.045C35.1881 32.9884 35.2283 32.9309 35.2724 32.8753C35.3577 32.769 35.4497 32.6645 35.5465 32.5639C35.5675 32.5418 35.5858 32.5179 35.6078 32.4968C35.6327 32.4719 35.6595 32.4518 35.6845 32.4269C35.7832 32.3329 35.8838 32.2438 35.9873 32.1614C36.0515 32.1106 36.1167 32.0656 36.1818 32.0196C36.248 31.9727 36.315 31.9276 36.3831 31.8854C36.4636 31.8356 36.5441 31.7886 36.6255 31.7455C36.6735 31.7206 36.7214 31.6995 36.7693 31.6765C37.3577 31.4024 37.95 31.3181 38.4109 31.481C38.4195 31.4839 38.4291 31.4819 38.4377 31.4848C38.5824 31.5404 38.7157 31.6113 38.8201 31.7158C39.4814 32.3779 39.1249 33.8509 38.0439 34.9309ZM38.892 29.2892C38.8911 29.2892 38.8911 29.2883 38.8901 29.2883C38.8728 29.2845 38.8575 29.2777 38.8412 29.273C38.7473 29.25 38.6553 29.2241 38.5672 29.1877C38.5173 29.1675 38.4713 29.1388 38.4234 29.1148C38.3678 29.0861 38.3122 29.0593 38.2595 29.0257C38.2107 28.9941 38.1666 28.9577 38.1206 28.9222C38.0765 28.8877 38.0315 28.8532 37.9903 28.8149C37.9462 28.7737 37.9059 28.7296 37.8657 28.6846C37.8303 28.6443 37.7958 28.6031 37.7631 28.56C37.7267 28.5111 37.6922 28.4613 37.6606 28.4096C37.6309 28.3616 37.605 28.3118 37.5801 28.262C37.5542 28.2102 37.5293 28.1585 37.5082 28.1048C37.4843 28.0425 37.466 27.9774 37.4478 27.9122C37.4354 27.8662 37.42 27.8211 37.4105 27.7732C37.3894 27.6573 37.375 27.5384 37.375 27.4167C37.375 27.2854 37.3884 27.1571 37.4143 27.0324C37.49 26.6606 37.6769 26.3185 37.9577 26.0454C38.3027 25.709 38.7723 25.5001 39.2917 25.5001C40.3487 25.5 41.2083 26.3596 41.2083 27.4167C41.2083 28.4737 40.3487 29.3333 39.2916 29.3333C39.1546 29.3333 39.0214 29.317 38.892 29.2892Z" fill="white"/>
<path d="M33.6257 27.4167C33.2471 27.4167 32.8859 27.5393 32.584 27.7636C32.2812 27.5393 31.9208 27.4167 31.5423 27.4167C30.5312 27.4167 29.709 28.2955 29.709 29.3783C29.709 29.8585 29.8844 30.3262 30.214 30.7305C30.6961 31.319 32.1671 32.9395 32.2294 33.0085C32.3205 33.1091 32.4489 33.1666 32.584 33.1666C32.7191 33.1666 32.8475 33.1091 32.9385 33.0094C33.0018 32.9414 34.4719 31.3209 34.9539 30.7315C35.2836 30.3262 35.459 29.8594 35.459 29.3783C35.4589 28.2954 34.6367 27.4167 33.6257 27.4167ZM34.2121 30.1249C33.8872 30.5217 33.0612 31.4436 32.5839 31.9735C32.1067 31.4436 31.2806 30.5217 30.9557 30.1249C30.7651 29.8901 30.6673 29.64 30.6673 29.3783C30.6673 28.8244 31.0592 28.375 31.5422 28.375C31.7952 28.375 32.0358 28.5015 32.2025 28.7209C32.3846 28.9595 32.7852 28.9595 32.9664 28.7209C33.1322 28.5015 33.3727 28.375 33.6257 28.375C34.1087 28.375 34.5006 28.8244 34.5006 29.3783C34.5006 29.64 34.4029 29.8901 34.2121 30.1249Z" fill="white"/>
<path d="M28.2715 15.9167C27.4789 15.9167 26.834 16.5607 26.834 17.3542C26.834 17.6187 27.0487 17.8334 27.3132 17.8334C27.5777 17.8334 27.7923 17.6187 27.7923 17.3542C27.7923 17.0897 28.0079 16.875 28.2715 16.875C28.536 16.875 28.7507 16.6603 28.7507 16.3958C28.7507 16.1313 28.536 15.9167 28.2715 15.9167Z" fill="white"/>
</svg>
