<svg width="65" height="52" viewBox="0 0 65 52" fill="none" xmlns="http://www.w3.org/2000/svg">
<path d="M62.9528 9.15654C60.0281 3.73587 54.2154 0 47.5253 0C41.4932 0 35.644 2.98099 32.5 7.55926L28.5517 3.919C28.1496 3.62599 27.7475 3.29635 27.3453 3.00335C24.5304 1.09878 21.1305 0 17.4747 0C13.2705 0 9.43195 1.46505 6.4342 3.88237C6.28796 3.99225 6.14173 4.13876 5.95894 4.28526C4.71597 5.34742 3.65579 6.59271 2.74184 7.94788C2.63217 8.13101 2.5225 8.27751 2.41282 8.46064C2.23003 8.79028 2.04724 9.11992 1.86445 9.44955C1.20641 10.7315 0.731159 12.1233 0.402137 13.5517C0.365579 13.7714 0.329021 13.9546 0.292463 14.1743C0.109674 15.1632 0 16.1888 0 17.2143C0 17.8369 0.0365579 18.4596 0.109674 19.0456C0.146232 19.2287 0.146232 19.4119 0.18279 19.595C0.329021 20.7304 0.621485 21.7926 0.987064 22.8547C1.46232 24.393 2.74184 26.4075 2.99775 26.7737C2.99775 26.8104 3.03431 26.8104 3.03431 26.847C3.14398 26.9935 3.25366 27.14 3.32677 27.2865C3.32677 27.3231 3.36333 27.3231 3.36333 27.3597C3.473 27.5062 3.58268 27.6528 3.69235 27.7993C3.72891 27.8359 3.76547 27.9091 3.80202 27.9458C3.87514 28.0556 3.98481 28.1655 4.05793 28.2754C4.1676 28.4219 4.31384 28.5684 4.46007 28.7149L4.49663 28.7515C4.78909 29.0445 5.04499 29.3376 5.33746 29.6306C5.37402 29.6306 5.37402 29.6672 5.41057 29.6672L7.64061 31.4985L11.1136 34.392L28.5152 48.8593L32.0979 51.8626C32.3172 52.0458 32.6828 52.0458 32.9021 51.8626L43.9061 42.7061L47.5253 39.7028L51.9488 36.0035L53.7767 34.5018L53.8498 34.4286L54.1057 34.2088L57.0669 31.7183L57.14 31.645L59.5894 29.6672C59.626 29.6672 59.626 29.6306 59.6625 29.6306C61.3442 28.019 62.7334 26.0778 63.6474 23.9169C64.5247 21.8658 65 19.6316 65 17.2509C65 14.2842 64.2688 11.5372 62.9528 9.15654Z" fill="#83529B"/>
<path d="M28.5594 17.0017C27.5815 17.0248 26.6876 17.3041 26.0278 17.8713C25.1399 18.6345 24.8458 19.7744 25.0741 20.9709C25.2952 22.13 25.9876 23.3642 27.0657 24.5264C27.0525 25.3207 26.8415 26.7369 26.8974 28.4326C26.9554 30.1918 27.3123 32.2461 28.5174 34.2041C28.5312 34.227 28.5476 34.2482 28.5665 34.2672C28.6769 34.376 28.8065 34.4637 28.9732 34.4916C29.1399 34.5196 29.3233 34.454 29.436 34.3584C29.6615 34.1671 29.7407 33.9175 29.8358 33.608C30.0259 32.989 30.1676 32.1036 30.3617 31.1816C30.5559 30.2595 30.805 29.3109 31.1612 28.6149C31.5145 27.9246 31.9228 27.5208 32.5006 27.4928C33.0785 27.5208 33.4868 27.9246 33.8401 28.6149C34.1963 29.3109 34.4454 30.2595 34.6395 31.1816C34.8337 32.1036 34.9754 32.989 35.1655 33.608C35.2606 33.9175 35.3398 34.1671 35.5652 34.3584C35.678 34.454 35.8614 34.5196 36.0281 34.4916C36.1948 34.4636 36.3244 34.376 36.4348 34.2672C36.4536 34.2482 36.4701 34.227 36.4839 34.2041C37.6891 32.2461 38.046 30.1918 38.1039 28.4326C38.1597 26.7369 37.9487 25.3206 37.9356 24.5264C39.0137 23.3642 39.7061 22.13 39.9272 20.9709C40.1551 19.7762 39.8513 18.6415 38.9665 17.8783L38.9735 17.8713C38.9719 17.8691 38.9679 17.8736 38.9665 17.8713C38.3071 17.3067 37.4177 17.0248 36.4418 17.0018C35.2392 16.9735 33.8682 17.2888 32.5006 17.9485C31.1329 17.2888 29.7621 16.9735 28.5594 17.0017V17.0017Z" stroke="white"/>
</svg>
