<svg width="65" height="52" viewBox="0 0 65 52" fill="none" xmlns="http://www.w3.org/2000/svg">
<path d="M62.9528 9.15654C60.0281 3.73587 54.2154 0 47.5253 0C41.4932 0 35.644 2.98099 32.5 7.55926L28.5517 3.919C28.1496 3.62599 27.7475 3.29635 27.3453 3.00335C24.5304 1.09878 21.1305 0 17.4747 0C13.2705 0 9.43195 1.46505 6.4342 3.88237C6.28796 3.99225 6.14173 4.13876 5.95894 4.28526C4.71597 5.34742 3.65579 6.59271 2.74184 7.94788C2.63217 8.13101 2.5225 8.27751 2.41282 8.46064C2.23003 8.79028 2.04724 9.11992 1.86445 9.44955C1.20641 10.7315 0.731159 12.1233 0.402137 13.5517C0.365579 13.7714 0.329021 13.9546 0.292463 14.1743C0.109674 15.1632 0 16.1888 0 17.2143C0 17.8369 0.0365579 18.4596 0.109674 19.0456C0.146232 19.2287 0.146232 19.4119 0.18279 19.595C0.329021 20.7304 0.621485 21.7926 0.987064 22.8547C1.46232 24.393 2.74184 26.4075 2.99775 26.7737C2.99775 26.8104 3.03431 26.8104 3.03431 26.847C3.14398 26.9935 3.25366 27.14 3.32677 27.2865C3.32677 27.3231 3.36333 27.3231 3.36333 27.3597C3.473 27.5062 3.58268 27.6528 3.69235 27.7993C3.72891 27.8359 3.76547 27.9091 3.80202 27.9458C3.87514 28.0556 3.98481 28.1655 4.05793 28.2754C4.1676 28.4219 4.31384 28.5684 4.46007 28.7149L4.49663 28.7515C4.78909 29.0445 5.04499 29.3376 5.33746 29.6306C5.37402 29.6306 5.37402 29.6672 5.41057 29.6672L7.64061 31.4985L11.1136 34.392L28.5152 48.8593L32.0979 51.8626C32.3172 52.0458 32.6828 52.0458 32.9021 51.8626L43.9061 42.7061L47.5253 39.7028L51.9488 36.0035L53.7767 34.5018L53.8498 34.4286L54.1057 34.2088L57.0669 31.7183L57.14 31.645L59.5894 29.6672C59.626 29.6672 59.626 29.6306 59.6625 29.6306C61.3442 28.019 62.7334 26.0778 63.6474 23.9169C64.5247 21.8658 65 19.6316 65 17.2509C65 14.2842 64.2688 11.5372 62.9528 9.15654Z" fill="#83529B"/>
<path d="M42.1964 37.01L41.31 19.8904C41.2853 19.414 40.8919 19.0405 40.415 19.0405H37.7993V18.1992C37.7993 15.3323 35.4668 13 32.5998 13C29.733 13 27.4008 15.3323 27.4008 18.1992V19.0405H24.785C24.3081 19.0405 23.9146 19.414 23.8899 19.8904L23.0012 37.0574C22.9885 37.3027 23.0771 37.5427 23.2464 37.7209C23.4155 37.899 23.6505 38 23.8963 38H41.3038C41.3042 38.0001 41.3046 38.0001 41.305 38C41.8 38 42.2012 37.5987 42.2012 37.1038C42.2011 37.072 42.1996 37.0407 42.1964 37.01ZM28.6776 22.6682C28.1474 22.6682 27.7175 22.2383 27.7175 21.7081C27.7175 21.178 28.1474 20.7481 28.6776 20.7481C29.2077 20.7481 29.6376 21.178 29.6376 21.7081C29.6376 22.2383 29.2077 22.6682 28.6776 22.6682ZM35.1329 19.0405H30.0671V18.1992C30.0671 16.8025 31.2032 15.6663 32.5998 15.6663C33.9966 15.6663 35.1329 16.8025 35.1329 18.1992V19.0405V19.0405ZM36.5236 22.6682C35.9934 22.6682 35.5635 22.2383 35.5635 21.7081C35.5635 21.178 35.9934 20.7481 36.5236 20.7481C37.0537 20.7481 37.4836 21.178 37.4836 21.7081C37.4836 22.2383 37.0537 22.6682 36.5236 22.6682Z" stroke="white"/>
</svg>
