<svg width="65" height="52" viewBox="0 0 65 52" fill="none" xmlns="http://www.w3.org/2000/svg">
<path d="M62.9528 9.15654C60.0281 3.73587 54.2154 0 47.5253 0C41.4932 0 35.644 2.98099 32.5 7.55926L28.5517 3.919C28.1496 3.62599 27.7475 3.29635 27.3453 3.00335C24.5304 1.09878 21.1305 0 17.4747 0C13.2705 0 9.43195 1.46505 6.4342 3.88237C6.28796 3.99225 6.14173 4.13876 5.95894 4.28526C4.71597 5.34742 3.65579 6.59271 2.74184 7.94788C2.63217 8.13101 2.5225 8.27751 2.41282 8.46064C2.23003 8.79028 2.04724 9.11992 1.86445 9.44955C1.20641 10.7315 0.731159 12.1233 0.402137 13.5517C0.365579 13.7714 0.329021 13.9546 0.292463 14.1743C0.109674 15.1632 0 16.1888 0 17.2143C0 17.8369 0.0365579 18.4596 0.109674 19.0456C0.146232 19.2287 0.146232 19.4119 0.18279 19.595C0.329021 20.7304 0.621485 21.7926 0.987064 22.8547C1.46232 24.393 2.74184 26.4075 2.99775 26.7737C2.99775 26.8104 3.03431 26.8104 3.03431 26.847C3.14398 26.9935 3.25366 27.14 3.32677 27.2865C3.32677 27.3231 3.36333 27.3231 3.36333 27.3597C3.473 27.5062 3.58268 27.6528 3.69235 27.7993C3.72891 27.8359 3.76547 27.9091 3.80202 27.9458C3.87514 28.0556 3.98481 28.1655 4.05793 28.2754C4.1676 28.4219 4.31384 28.5684 4.46007 28.7149L4.49663 28.7515C4.78909 29.0445 5.04499 29.3376 5.33746 29.6306C5.37402 29.6306 5.37402 29.6672 5.41057 29.6672L7.64061 31.4985L11.1136 34.392L28.5152 48.8593L32.0979 51.8626C32.3172 52.0458 32.6828 52.0458 32.9021 51.8626L43.9061 42.7061L47.5253 39.7028L51.9488 36.0035L53.7767 34.5018L53.8498 34.4286L54.1057 34.2088L57.0669 31.7183L57.14 31.645L59.5894 29.6672C59.626 29.6672 59.626 29.6306 59.6625 29.6306C61.3442 28.019 62.7334 26.0778 63.6474 23.9169C64.5247 21.8658 65 19.6316 65 17.2509C65 14.2842 64.2688 11.5372 62.9528 9.15654Z" fill="#83529B"/>
<path d="M36.65 33.8C36.6437 34.0797 36.6933 34.3578 36.7959 34.618C36.8986 34.8782 37.0521 35.1153 37.2477 35.3153C37.4432 35.5154 37.6767 35.6743 37.9345 35.7829C38.1923 35.8915 38.4692 35.9474 38.7489 35.9475C39.0287 35.9475 39.3056 35.8917 39.5634 35.7833C39.8213 35.6749 40.0549 35.516 40.2505 35.3161C40.4462 35.1161 40.5999 34.8791 40.7026 34.619C40.8054 34.3588 40.8551 34.0807 40.8489 33.801C40.8368 33.2524 40.6104 32.7302 40.2181 32.3464C39.8258 31.9626 39.2988 31.7476 38.75 31.7475C38.2012 31.7473 37.6741 31.9621 37.2816 32.3457C36.8891 32.7293 36.6624 33.2513 36.65 33.8ZM26.15 33.8C26.15 34.357 26.3712 34.8911 26.7651 35.2849C27.1589 35.6787 27.693 35.9 28.25 35.9C28.807 35.9 29.3411 35.6787 29.7349 35.2849C30.1288 34.8911 30.35 34.357 30.35 33.8C30.35 33.243 30.1288 32.7089 29.7349 32.3151C29.3411 31.9212 28.807 31.7 28.25 31.7C27.693 31.7 27.1589 31.9212 26.7651 32.3151C26.3712 32.7089 26.15 33.243 26.15 33.8V33.8ZM29.8743 28.7306L41.4957 25.4105C41.6094 25.3726 41.7089 25.3011 41.781 25.2055C41.8532 25.1099 41.8947 24.9947 41.9 24.875V19.1H27.2V17.42C27.2 17.189 27.0099 17 26.781 17H23.4189C23.3078 17.0006 23.2014 17.045 23.1229 17.1237C23.0445 17.2024 23.0003 17.3089 23 17.42V19.1H25.1L27.1055 28.5048L27.2 29.495V31.2264C27.2 31.4564 27.389 31.6464 27.62 31.6464H41.48C41.711 31.6464 41.9 31.4553 41.9 31.2264V29.6H30.0896C28.8821 29.6 28.8569 29.0214 29.8743 28.7306V28.7306Z" stroke="white"/>
</svg>
