<svg width="65" height="52" viewBox="0 0 65 52" fill="none" xmlns="http://www.w3.org/2000/svg">
<path d="M62.9528 9.15654C60.0281 3.73587 54.2154 0 47.5253 0C41.4932 0 35.644 2.98099 32.5 7.55926L28.5517 3.919C28.1496 3.62599 27.7475 3.29635 27.3453 3.00335C24.5304 1.09878 21.1305 0 17.4747 0C13.2705 0 9.43195 1.46505 6.4342 3.88237C6.28796 3.99225 6.14173 4.13876 5.95894 4.28526C4.71597 5.34742 3.65579 6.59271 2.74184 7.94788C2.63217 8.13101 2.5225 8.27751 2.41282 8.46064C2.23003 8.79028 2.04724 9.11992 1.86445 9.44955C1.20641 10.7315 0.731159 12.1233 0.402137 13.5517C0.365579 13.7714 0.329021 13.9546 0.292463 14.1743C0.109674 15.1632 0 16.1888 0 17.2143C0 17.8369 0.0365579 18.4596 0.109674 19.0456C0.146232 19.2287 0.146232 19.4119 0.18279 19.595C0.329021 20.7304 0.621485 21.7926 0.987064 22.8547C1.46232 24.393 2.74184 26.4075 2.99775 26.7737C2.99775 26.8104 3.03431 26.8104 3.03431 26.847C3.14398 26.9935 3.25366 27.14 3.32677 27.2865C3.32677 27.3231 3.36333 27.3231 3.36333 27.3597C3.473 27.5062 3.58268 27.6528 3.69235 27.7993C3.72891 27.8359 3.76547 27.9091 3.80202 27.9458C3.87514 28.0556 3.98481 28.1655 4.05793 28.2754C4.1676 28.4219 4.31384 28.5684 4.46007 28.7149L4.49663 28.7515C4.78909 29.0445 5.04499 29.3376 5.33746 29.6306C5.37402 29.6306 5.37402 29.6672 5.41057 29.6672L7.64061 31.4985L11.1136 34.392L28.5152 48.8593L32.0979 51.8626C32.3172 52.0458 32.6828 52.0458 32.9021 51.8626L43.9061 42.7061L47.5253 39.7028L51.9488 36.0035L53.7767 34.5018L53.8498 34.4286L54.1057 34.2088L57.0669 31.7183L57.14 31.645L59.5894 29.6672C59.626 29.6672 59.626 29.6306 59.6625 29.6306C61.3442 28.019 62.7334 26.0778 63.6474 23.9169C64.5247 21.8658 65 19.6316 65 17.2509C65 14.2842 64.2688 11.5372 62.9528 9.15654Z" fill="#83529B"/>
<path d="M43.168 22.979C44.073 22.1226 44.689 21.0156 44.9334 19.8063C45.1414 18.6354 44.8587 17.6031 44.1334 16.9001C43.408 16.1971 42.3627 15.9227 41.168 16.1161C39.9342 16.3576 38.8048 16.9621 37.9306 17.8488C36.3305 19.4169 35.7092 21.4815 36.3305 22.9972L33.5331 25.6891L30.7411 23.0129L31.2744 22.4902C31.4215 22.345 31.5357 22.171 31.6097 21.9797C31.6837 21.7883 31.7157 21.5838 31.7038 21.3795C31.6838 20.9605 31.504 20.564 31.1998 20.2688L26.1756 15.3347C26.0685 15.2287 25.941 15.1445 25.8005 15.087C25.66 15.0296 25.5092 15 25.3569 15C25.2047 15 25.0539 15.0296 24.9134 15.087C24.7729 15.1445 24.6454 15.2287 24.5383 15.3347L24.2263 15.6405C24.1559 15.71 24.1164 15.8039 24.1164 15.9018C24.1164 15.9997 24.1559 16.0936 24.2263 16.1631L28.6317 20.4936L28.3197 20.7994L23.9142 16.4794C23.842 16.4129 23.7467 16.3758 23.6476 16.3758C23.5485 16.3758 23.4531 16.4129 23.3809 16.4794L22.5222 17.3209C22.486 17.3559 22.4573 17.3976 22.4377 17.4436C22.418 17.4896 22.4079 17.5389 22.4079 17.5888C22.4079 17.6386 22.418 17.688 22.4377 17.7339C22.4573 17.7799 22.486 17.8216 22.5222 17.8566L26.917 22.1766L26.5996 22.4824L22.1969 18.1598C22.1235 18.0955 22.0286 18.06 21.9302 18.06C21.8318 18.06 21.7369 18.0955 21.6635 18.1598L21.3382 18.4682C21.1216 18.6813 21 18.9698 21 19.2705C21 19.5713 21.1216 19.8598 21.3382 20.0728L26.3703 25.0044C26.514 25.1554 26.6867 25.2772 26.8785 25.3627C27.0704 25.4482 27.2775 25.4957 27.4882 25.5025C27.6988 25.5093 27.9087 25.4753 28.1058 25.4023C28.303 25.3294 28.4835 25.219 28.637 25.0775L29.1704 24.5548L31.8851 27.2702L23.8262 34.9772C23.8004 35.002 23.7779 35.0302 23.7596 35.0608C23.5996 35.3221 23.4929 35.9572 24.0956 36.5478C24.2235 36.6856 24.3785 36.7966 24.5513 36.8743C24.724 36.952 24.911 36.9947 25.1009 37C25.2794 37.0016 25.4555 36.9594 25.613 36.8771C25.6438 36.8585 25.6724 36.8366 25.6983 36.8118L33.5331 28.9349L41.384 36.8118C41.4088 36.8378 41.4376 36.8598 41.4693 36.8771C41.6268 36.9594 41.8029 37.0016 41.9813 37C42.1713 36.9944 42.3581 36.9515 42.5308 36.8739C42.7035 36.7962 42.8586 36.6853 42.9867 36.5478C43.5894 35.9572 43.48 35.3352 43.3227 35.0608C43.3043 35.0302 43.2819 35.002 43.256 34.9772L35.1945 27.2702L37.9119 24.5418C39.4613 25.1533 41.576 24.5392 43.168 22.979ZM29.4557 23.7473C29.3859 23.6759 29.29 23.6345 29.189 23.6323C29.1394 23.6324 29.0903 23.6422 29.0445 23.6611C28.9987 23.6799 28.9572 23.7074 28.9224 23.7421L28.1063 24.5418C27.9405 24.6837 27.7241 24.7557 27.5043 24.742C27.2845 24.7283 27.0792 24.63 26.933 24.4686L21.8849 19.5371C21.8164 19.4666 21.7782 19.373 21.7782 19.2757C21.7782 19.1784 21.8164 19.0849 21.8849 19.0144L21.9249 18.9752L26.333 23.2847C26.4058 23.3551 26.504 23.3946 26.6063 23.3946C26.7086 23.3946 26.8068 23.3551 26.8797 23.2847L27.7383 22.4432C27.8062 22.3724 27.844 22.279 27.844 22.1819C27.844 22.0847 27.8062 21.9913 27.7383 21.9205L23.3276 17.5875L23.6396 17.2817L28.0477 21.6017C28.1193 21.6694 28.2149 21.7072 28.3144 21.7072C28.4138 21.7072 28.5094 21.6694 28.581 21.6017L29.4504 20.7732C29.5207 20.7037 29.5602 20.6098 29.5602 20.5119C29.5602 20.414 29.5207 20.32 29.4504 20.2505L25.0449 15.907L25.0823 15.8678C25.1564 15.7999 25.2541 15.762 25.3556 15.762C25.4571 15.762 25.5548 15.7999 25.629 15.8678L30.6611 20.7994C30.8281 20.9603 30.928 21.1765 30.9411 21.4057C30.9479 21.5053 30.9331 21.6053 30.8978 21.699C30.8624 21.7927 30.8072 21.878 30.7357 21.9493L29.9197 22.749C29.8488 22.8183 29.8086 22.9122 29.8077 23.0103C29.8101 23.1087 29.8512 23.2023 29.9224 23.2717L32.9998 26.217L32.4504 26.7397L29.4557 23.7473ZM42.6614 35.4659C42.6643 35.5671 42.6461 35.6678 42.6079 35.7619C42.5696 35.856 42.5121 35.9414 42.4389 36.0129C42.3657 36.0844 42.2784 36.1404 42.1823 36.1776C42.0861 36.2147 41.9833 36.2322 41.88 36.229L34.0798 28.3887L34.6558 27.8112L42.6614 35.4659ZM37.5492 23.8231L25.1969 36.2316C25.1196 36.2525 24.9089 36.2734 24.6396 36.0121C24.3703 35.7507 24.3943 35.5521 24.4209 35.4659L32.7011 27.5498L37.0799 23.3684C37.1395 23.312 37.1787 23.2382 37.1917 23.158C37.2047 23.0779 37.1907 22.9957 37.1519 22.9241C36.5012 21.6984 37.0612 19.788 38.4853 18.4002C39.2459 17.6237 40.2302 17.0931 41.3067 16.8792C42.248 16.7198 43.0614 16.921 43.5947 17.4437C44.7334 18.5518 44.2987 20.7994 42.6214 22.4432C41.1947 23.8414 39.2533 24.3902 38.0052 23.7499C37.9314 23.7119 37.847 23.6986 37.7647 23.7118C37.6825 23.725 37.6068 23.764 37.5492 23.8231ZM39.4506 23.486C41.176 23.2769 43.2934 21.5285 43.352 20.261C43.3545 20.2116 43.3471 20.1621 43.3301 20.1155C43.3131 20.0689 43.2868 20.0261 43.2529 19.9894C43.219 19.9527 43.178 19.923 43.1323 19.9019C43.0866 19.8808 43.0371 19.8687 42.9867 19.8664C42.8843 19.8621 42.7843 19.8976 42.7084 19.9651C42.6325 20.0326 42.5869 20.1267 42.5814 20.227C42.5413 21.0685 40.8053 22.5608 39.3546 22.7359C38.6559 22.8195 38.2212 22.5608 38.0212 21.9519C38.009 21.9016 37.9865 21.8542 37.9549 21.8128C37.9233 21.7713 37.8835 21.7367 37.8377 21.7109C37.7919 21.6851 37.7413 21.6688 37.6889 21.6629C37.6364 21.6571 37.5833 21.6618 37.5328 21.6768C37.4823 21.6918 37.4355 21.7168 37.3952 21.7502C37.3549 21.7836 37.3221 21.8248 37.2986 21.8711C37.2752 21.9174 37.2616 21.968 37.2589 22.0196C37.2561 22.0713 37.2642 22.1229 37.2826 22.1714C37.3813 22.5669 37.6166 22.9168 37.9486 23.1616C38.2806 23.4064 38.6888 23.5312 39.1039 23.5147C39.22 23.5119 39.3357 23.5023 39.4506 23.486Z" fill="white"/>
</svg>
