<svg width="65" height="52" viewBox="0 0 65 52" fill="none" xmlns="http://www.w3.org/2000/svg">
<path d="M62.9528 9.15654C60.0281 3.73587 54.2154 0 47.5253 0C41.4932 0 35.644 2.98099 32.5 7.55926L28.5517 3.919C28.1496 3.62599 27.7475 3.29635 27.3453 3.00335C24.5304 1.09878 21.1305 0 17.4747 0C13.2705 0 9.43195 1.46505 6.4342 3.88237C6.28796 3.99225 6.14173 4.13876 5.95894 4.28526C4.71597 5.34742 3.65579 6.59271 2.74184 7.94788C2.63217 8.13101 2.5225 8.27751 2.41282 8.46064C2.23003 8.79028 2.04724 9.11992 1.86445 9.44955C1.20641 10.7315 0.731159 12.1233 0.402137 13.5517C0.365579 13.7714 0.329021 13.9546 0.292463 14.1743C0.109674 15.1632 0 16.1888 0 17.2143C0 17.8369 0.0365579 18.4596 0.109674 19.0456C0.146232 19.2287 0.146232 19.4119 0.18279 19.595C0.329021 20.7304 0.621485 21.7926 0.987064 22.8547C1.46232 24.393 2.74184 26.4075 2.99775 26.7737C2.99775 26.8104 3.03431 26.8104 3.03431 26.847C3.14398 26.9935 3.25366 27.14 3.32677 27.2865C3.32677 27.3231 3.36333 27.3231 3.36333 27.3597C3.473 27.5062 3.58268 27.6528 3.69235 27.7993C3.72891 27.8359 3.76547 27.9091 3.80202 27.9458C3.87514 28.0556 3.98481 28.1655 4.05793 28.2754C4.1676 28.4219 4.31384 28.5684 4.46007 28.7149L4.49663 28.7515C4.78909 29.0445 5.04499 29.3376 5.33746 29.6306C5.37402 29.6306 5.37402 29.6672 5.41057 29.6672L7.64061 31.4985L11.1136 34.392L28.5152 48.8593L32.0979 51.8626C32.3172 52.0458 32.6828 52.0458 32.9021 51.8626L43.9061 42.7061L47.5253 39.7028L51.9488 36.0035L53.7767 34.5018L53.8498 34.4286L54.1057 34.2088L57.0669 31.7183L57.14 31.645L59.5894 29.6672C59.626 29.6672 59.626 29.6306 59.6625 29.6306C61.3442 28.019 62.7334 26.0778 63.6474 23.9169C64.5247 21.8658 65 19.6316 65 17.2509C65 14.2842 64.2688 11.5372 62.9528 9.15654Z" fill="#83529B"/>
<path d="M39.3553 17.4341C39.065 17.4341 38.7844 17.4734 38.5039 17.5325C37.249 14.8159 35.0246 13 32.5 13C29.9705 13 27.751 14.811 26.4911 17.5325C26.2106 17.4734 25.9301 17.439 25.6447 17.439C22.5344 17.4341 20 20.874 20 25.0965C20 29.1368 22.3179 32.4439 25.2411 32.7293V38H26.0482V32.7343C27.1604 32.626 28.2185 32.0797 29.0945 31.1594C29.9951 31.8337 31.0138 32.252 32.0965 32.3356V37.9951H32.9035V32.3406C33.9862 32.2569 35.0049 31.8386 35.9055 31.1644C36.7815 32.0797 37.8396 32.6309 38.9518 32.7343V38H39.7589V32.7293C42.6821 32.4488 45 29.1368 45 25.0965C45 20.874 42.4655 17.4341 39.3553 17.4341ZM25.6447 31.9518C22.9774 31.9518 20.8071 28.876 20.8071 25.0965C20.8071 21.3169 22.9774 18.2411 25.6447 18.2411C25.8219 18.2411 25.9941 18.2559 26.1663 18.2805C25.6594 19.6339 25.3937 21.1447 25.3937 22.6752C25.3937 25.8986 26.5354 28.8415 28.4646 30.6526C27.6476 31.4941 26.6585 31.9518 25.6447 31.9518ZM32.9035 31.5285V30.1014L35.6102 27.3947L35.0344 26.8287L32.8986 28.9646V27.2815L35.6053 24.5748L35.0344 24.0039L32.9035 26.1398V24.4567L35.6102 21.75L35.0394 21.1791L32.9035 23.315V20.6575H32.0965V23.315L29.9606 21.1791L29.3898 21.75L32.0965 24.4567V26.1398L29.9606 24.0039L29.3898 24.5748L32.0965 27.2815V28.9646L29.9606 26.8287L29.3898 27.3996L32.0965 30.1063V31.5335C28.814 31.2382 26.2057 27.3848 26.2057 22.685C26.2057 17.7933 29.0305 13.812 32.5 13.812C35.9695 13.812 38.7943 17.7933 38.7943 22.685C38.7943 27.3799 36.186 31.2333 32.9035 31.5285ZM39.3553 31.9518C38.3415 31.9518 37.3474 31.4941 36.5305 30.6526C38.4596 28.8465 39.6014 25.9035 39.6014 22.6752C39.6014 21.1447 39.3356 19.6339 38.8287 18.2805C39.001 18.251 39.1781 18.2411 39.3553 18.2411C42.0226 18.2411 44.1929 21.3169 44.1929 25.0965C44.1929 28.876 42.0226 31.9518 39.3553 31.9518Z" fill="white"/>
</svg>
