<svg width="65" height="52" viewBox="0 0 65 52" fill="none" xmlns="http://www.w3.org/2000/svg">
<path d="M62.9528 9.15654C60.0281 3.73587 54.2154 0 47.5253 0C41.4932 0 35.644 2.98099 32.5 7.55926L28.5517 3.919C28.1496 3.62599 27.7475 3.29635 27.3453 3.00335C24.5304 1.09878 21.1305 0 17.4747 0C13.2705 0 9.43195 1.46505 6.4342 3.88237C6.28796 3.99225 6.14173 4.13876 5.95894 4.28526C4.71597 5.34742 3.65579 6.59271 2.74184 7.94788C2.63217 8.13101 2.5225 8.27751 2.41282 8.46064C2.23003 8.79028 2.04724 9.11992 1.86445 9.44955C1.20641 10.7315 0.731159 12.1233 0.402137 13.5517C0.365579 13.7714 0.329021 13.9546 0.292463 14.1743C0.109674 15.1632 0 16.1888 0 17.2143C0 17.8369 0.0365579 18.4596 0.109674 19.0456C0.146232 19.2287 0.146232 19.4119 0.18279 19.595C0.329021 20.7304 0.621485 21.7926 0.987064 22.8547C1.46232 24.393 2.74184 26.4075 2.99775 26.7737C2.99775 26.8104 3.03431 26.8104 3.03431 26.847C3.14398 26.9935 3.25366 27.14 3.32677 27.2865C3.32677 27.3231 3.36333 27.3231 3.36333 27.3597C3.473 27.5062 3.58268 27.6528 3.69235 27.7993C3.72891 27.8359 3.76547 27.9091 3.80202 27.9458C3.87514 28.0556 3.98481 28.1655 4.05793 28.2754C4.1676 28.4219 4.31384 28.5684 4.46007 28.7149L4.49663 28.7515C4.78909 29.0445 5.04499 29.3376 5.33746 29.6306C5.37402 29.6306 5.37402 29.6672 5.41057 29.6672L7.64061 31.4985L11.1136 34.392L28.5152 48.8593L32.0979 51.8626C32.3172 52.0458 32.6828 52.0458 32.9021 51.8626L43.9061 42.7061L47.5253 39.7028L51.9488 36.0035L53.7767 34.5018L53.8498 34.4286L54.1057 34.2088L57.0669 31.7183L57.14 31.645L59.5894 29.6672C59.626 29.6672 59.626 29.6306 59.6625 29.6306C61.3442 28.019 62.7334 26.0778 63.6474 23.9169C64.5247 21.8658 65 19.6316 65 17.2509C65 14.2842 64.2688 11.5372 62.9528 9.15654Z" fill="#83529B"/>
<path d="M33.9034 36.9822C33.9452 36.9798 33.987 36.9773 34.0288 36.9743C34.0723 36.9713 34.1156 36.9682 34.1589 36.9646C34.1705 36.9637 34.182 36.9626 34.1935 36.9616C36.7146 36.7485 39.0572 35.6373 40.8661 33.7777C40.9056 33.737 40.9443 33.6955 40.9832 33.6543C40.9918 33.6452 41.0005 33.6361 41.0092 33.627C41.0472 33.5863 41.0848 33.5453 41.1222 33.5042C41.1261 33.4999 41.1299 33.4957 41.1337 33.4915C42.9846 31.4496 44 28.8051 44 26C44 23.0614 42.887 20.299 40.8661 18.2216C39.0562 16.3612 36.7119 15.2501 34.1889 15.038C34.1793 15.0372 34.1697 15.0363 34.1601 15.0355C34.1162 15.0319 34.0722 15.0287 34.0283 15.0256C33.987 15.0227 33.9459 15.0202 33.9047 15.0179C33.8702 15.0159 33.8358 15.0138 33.8013 15.0122C33.7342 15.009 33.667 15.0065 33.5997 15.0046C33.5773 15.004 33.5548 15.0035 33.5324 15.0029C33.4547 15.0012 33.3769 15 33.2991 15C33.2214 15 33.1437 15.0012 33.0661 15.0029C33.0435 15.0035 33.0209 15.004 32.9983 15.0046C32.9319 15.0066 32.8654 15.0089 32.799 15.0121C32.7629 15.0138 32.7269 15.016 32.6909 15.0181C32.6511 15.0204 32.6114 15.0228 32.5717 15.0255C32.5266 15.0286 32.4816 15.032 32.4365 15.0356C32.4304 15.0361 32.4241 15.0367 32.418 15.0373C29.892 15.2475 27.5446 16.3591 25.7329 18.2216C23.712 20.299 22.5991 23.0614 22.5991 25.9999C22.5991 28.9377 23.712 31.6998 25.7329 33.7776C26.6754 34.7467 27.7629 35.5126 28.945 36.0542H21.4604C21.2061 36.0542 21 36.266 21 36.5271C21 36.7882 21.2061 37 21.4604 37H33.5946C33.6199 37 33.6445 36.9974 33.6687 36.9933C33.7132 36.9917 33.7578 36.9899 33.8022 36.9878C33.8361 36.9862 33.8697 36.9841 33.9034 36.9822ZM24.0279 29.1999C24.0074 29.1374 23.9875 29.0745 23.9682 29.0114C23.9616 28.9898 23.9552 28.9682 23.9488 28.9464C23.9358 28.9031 23.9233 28.8596 23.9109 28.816L24.3171 28.0911L25.2271 26.4729H28.8648L30.6834 29.711L28.8647 32.9509H26.2401C25.2677 31.9074 24.5115 30.6495 24.0459 29.2539C24.0398 29.2359 24.0338 29.2179 24.0279 29.1999ZM23.962 23.0082C24.4177 21.5078 25.207 20.1575 26.24 19.049H28.864L29.3459 19.906L30.6833 22.2873L29.6624 24.1059L28.8646 25.527H25.2272L23.911 23.1837C23.9263 23.13 23.9415 23.0763 23.9576 23.0229C23.9591 23.0179 23.9605 23.013 23.962 23.0082ZM31.0532 16.2138C31.0927 16.2042 31.1323 16.195 31.1718 16.186C31.2144 16.1763 31.257 16.1665 31.2998 16.1573C31.3786 16.1405 31.4575 16.1245 31.5368 16.1097C31.5421 16.1087 31.5474 16.1075 31.5528 16.1065C32.7028 15.894 33.8924 15.8939 35.0421 16.1058C35.0605 16.1092 35.0788 16.1132 35.0972 16.1167C35.1628 16.1292 35.2282 16.1423 35.2934 16.1562C35.3432 16.1668 35.3927 16.1781 35.4421 16.1895C35.4738 16.1968 35.5056 16.2042 35.5372 16.2117C35.5654 16.2186 35.5934 16.2259 35.6215 16.2329L36.9368 18.576L35.1181 21.8142H31.4808L30.5714 20.1941L30.188 19.5124L29.6621 18.576L30.9775 16.2328C31.0027 16.2264 31.0279 16.2199 31.0532 16.2138ZM42.6441 23.0321C42.6592 23.0823 42.6736 23.1328 42.6879 23.1833L41.3716 25.527H37.7343L35.9157 22.2872L37.7343 19.049L40.3588 19.049C41.3907 20.1563 42.1794 21.5048 42.6354 23.0031C42.6384 23.0128 42.6413 23.0225 42.6441 23.0321ZM42.6458 28.9621C42.6419 28.9749 42.6381 28.9877 42.6343 29.0006C42.6122 29.073 42.5894 29.1453 42.5657 29.2171C42.5646 29.2205 42.5635 29.2238 42.5624 29.2271C42.0975 30.6334 41.3375 31.9007 40.3588 32.9509H37.7345L35.9157 29.7109L37.7344 26.4728H41.3718L42.6881 28.8162C42.6742 28.865 42.6603 28.9137 42.6458 28.9621ZM31.4808 29.238L29.6622 25.9998L30.2284 24.9912L31.4808 22.7601H35.1182L36.4973 25.2168L36.9368 25.9998L35.2856 28.9399L35.1182 29.238H31.4808ZM23.5199 25.9999C23.5199 25.5109 23.5547 25.0301 23.6207 24.5595L24.4297 25.9998L23.6205 27.4387C23.5547 26.9686 23.5199 26.4884 23.5199 25.9999ZM37.7345 33.8967H39.3459C38.6158 34.4888 37.8019 34.9761 36.9258 35.337L37.7345 33.8967ZM42.1692 25.9999L42.9783 24.5593C43.0443 25.03 43.0791 25.5108 43.0791 25.9999C43.0791 26.489 43.0443 26.9699 42.9783 27.4404L42.1692 25.9999ZM37.7344 18.1032L36.9258 16.6628C37.8018 17.0237 38.6158 17.5111 39.3459 18.1032H37.7344ZM28.8646 18.1032H27.2527C27.983 17.511 28.7971 17.0235 29.6733 16.6626L28.8646 18.1032ZM28.8646 33.8967L29.6734 35.3374C28.7971 34.9764 27.983 34.489 27.2527 33.8967H28.8646ZM29.6621 33.4238L31.4809 30.1838H35.1182L36.937 33.4239L35.6215 35.767C35.5935 35.774 35.5654 35.7814 35.5373 35.7881C35.5055 35.7958 35.4736 35.8031 35.4417 35.8105C35.3925 35.8218 35.3433 35.8331 35.2939 35.8436C35.2269 35.8579 35.1598 35.8713 35.0925 35.8841C35.0759 35.8873 35.0594 35.8909 35.0427 35.8939C33.8926 36.106 32.7024 36.1059 31.5521 35.8932C31.5491 35.8926 31.5462 35.892 31.5432 35.8915C31.4615 35.8763 31.3801 35.8596 31.2989 35.8423C31.2572 35.8334 31.2156 35.8238 31.1741 35.8143C31.1334 35.8051 31.0927 35.7957 31.0522 35.7858C31.0272 35.7798 31.0025 35.7733 30.9776 35.7671L29.6621 33.4238Z" fill="white"/>
</svg>
