<svg viewBox="0 0 20 20" fill="none" xmlns="http://www.w3.org/2000/svg">
<path d="M18.6667 13.3333V12H19.3333V11.3333H18V10H18.6667V9.33333H17.3333V8H18V7.33333H17.3333V4.66667H18V0H2V4.66667H2.66667V7.33333H2V8H2.66667V9.33333H1.33333V10H2V11.3333H0.666667V12H1.33333V13.3333H0V14H0.666667V15.3947C0.472364 15.4634 0.30403 15.5904 0.184696 15.7584C0.0653613 15.9265 0.000854322 16.1272 0 16.3333V20H0.666667V18.6667H1.66667V20H2.33333V18.6667H3.66667V20H4.33333V18.6667H5.66667V20H6.33333V18.6667H7.66667V20H8.33333V18.6667H9.66667V20H10.3333V18.6667H11.6667V20H12.3333V18.6667H13.6667V20H14.3333V18.6667H15.6667V20H16.3333V18.6667H17.6667V20H18.3333V18.6667H19.3333V20H20V16.3333C19.9991 16.1272 19.9346 15.9265 19.8153 15.7584C19.696 15.5904 19.5276 15.4634 19.3333 15.3947V14H20V13.3333H18.6667ZM18 13.3333H12V12H18V13.3333ZM19.3333 16.3333V16.6667H18.3333V16H19C19.0884 16 19.1732 16.0351 19.2357 16.0976C19.2982 16.1601 19.3333 16.2449 19.3333 16.3333ZM17.6667 16.6667H16.3333V16H17.6667V16.6667ZM15.6667 16.6667H14.3333V16H15.6667V16.6667ZM13.6667 16.6667H12.3333V16H13.6667V16.6667ZM3.66667 16V16.6667H2.33333V16H3.66667ZM4.33333 16H5.66667V16.6667H4.33333V16ZM6.33333 16H7.66667V16.6667H6.33333V16ZM8.33333 16H9.66667V16.6667H8.33333V16ZM10.3333 16H11.6667V16.6667H10.3333V16ZM12 15.3333H8V14H12V15.3333ZM8.66667 12H11.3333V13.3333H8.66667V12ZM9.33333 10H10.6667V11.3333H9.33333V10ZM17.3333 11.3333H11.3333V10H17.3333V11.3333ZM16.6667 9.33333H10.3333V8H16.6667V9.33333ZM4.66667 7.33333V4.66667H15.3333V7.33333H4.66667ZM16.6667 7.33333H16V4.66667H16.6667V7.33333ZM2.66667 0.666667H17.3333V4H2.66667V0.666667ZM3.33333 4.66667H4V7.33333H3.33333V4.66667ZM3.33333 8H9.66667V9.33333H3.33333V8ZM2.66667 10H8.66667V11.3333H2.66667V10ZM2 12H8V13.3333H2V12ZM7.33333 14V15.3333H1.33333V14H7.33333ZM1 16H1.66667V16.6667H0.666667V16.3333C0.666667 16.2449 0.701786 16.1601 0.764298 16.0976C0.82681 16.0351 0.911595 16 1 16ZM0.666667 18V17.3333H1.66667V18H0.666667ZM2.33333 18V17.3333H3.66667V18H2.33333ZM4.33333 18V17.3333H5.66667V18H4.33333ZM6.33333 18V17.3333H7.66667V18H6.33333ZM8.33333 18V17.3333H9.66667V18H8.33333ZM10.3333 18V17.3333H11.6667V18H10.3333ZM12.3333 18V17.3333H13.6667V18H12.3333ZM14.3333 18V17.3333H15.6667V18H14.3333ZM16.3333 18V17.3333H17.6667V18H16.3333ZM18.3333 18V17.3333H19.3333V18H18.3333ZM18.6667 15.3333H12.6667V14H18.6667V15.3333Z" fill="#83529B"/>
</svg>
