<svg  viewBox="0 0 22 25" fill="none" xmlns="http://www.w3.org/2000/svg">
<path d="M21.3811 20.0276C20.9855 20.0276 20.6061 19.8705 20.3264 19.5907C20.0466 19.311 19.8894 18.9316 19.8894 18.5359C19.8894 18.1403 20.0466 17.7609 20.3264 17.4811C20.6061 17.2014 20.9855 17.0442 21.3811 17.0442C21.513 17.0442 21.6395 16.9918 21.7327 16.8986C21.826 16.8053 21.8784 16.6789 21.8784 16.547C21.8784 16.4151 21.826 16.2886 21.7327 16.1954C21.6395 16.1021 21.513 16.0498 21.3811 16.0498H19.3922C18.9966 16.0498 18.6172 15.8926 18.3374 15.6128C18.0577 15.3331 17.9005 14.9537 17.9005 14.558C17.9005 14.1624 18.0577 13.783 18.3374 13.5033C18.6172 13.2235 18.9966 13.0663 19.3922 13.0663C19.5241 13.0663 19.6506 13.014 19.7438 12.9207C19.8371 12.8275 19.8894 12.701 19.8894 12.5691C19.8894 12.4372 19.8371 12.3108 19.7438 12.2175C19.6506 12.1243 19.5241 12.0719 19.3922 12.0719H13.91C14.5304 11.6106 15.0345 11.0107 15.382 10.32C15.7295 9.62939 15.9108 8.86712 15.9116 8.09398C15.9116 5.72874 14.2331 4.27127 11.398 4.13006C11.3759 3.36912 11.5238 1.73268 13.1129 1.09723C13.1737 1.07308 13.2291 1.03717 13.276 0.99156C13.3229 0.945951 13.3604 0.891538 13.3862 0.831437C13.4121 0.771335 13.4258 0.706727 13.4266 0.641312C13.4275 0.575897 13.4154 0.51096 13.3911 0.45022C13.3668 0.389481 13.3307 0.334133 13.285 0.287346C13.2393 0.240558 13.1848 0.203251 13.1246 0.17756C13.0644 0.151869 12.9998 0.1383 12.9344 0.13763C12.869 0.136959 12.8041 0.149201 12.7434 0.173653C12.2089 0.38518 11.7329 0.721529 11.355 1.1546C10.9771 1.58767 10.7083 2.10489 10.5711 2.66305C10.1869 2.05025 9.65512 1.54356 9.02451 1.18935C8.3939 0.83513 7.68453 0.644688 6.9613 0.635441C6.89071 0.635423 6.82092 0.650439 6.75657 0.67949C6.69223 0.708542 6.63481 0.750962 6.58814 0.80393C6.54147 0.856897 6.50661 0.919196 6.48589 0.986683C6.46516 1.05417 6.45905 1.1253 6.46795 1.19533C6.56043 1.86168 6.79523 2.50032 7.15641 3.06788C7.51759 3.63545 7.99668 4.11863 8.56115 4.48463C7.78886 4.71199 7.11443 5.19037 6.64456 5.84408C6.17469 6.49779 5.9362 7.28951 5.96683 8.09398C5.96754 8.86712 6.14887 9.62939 6.49638 10.32C6.84388 11.0107 7.34794 11.6106 7.96837 12.0719H2.48618C1.8268 12.0719 1.19443 12.3338 0.728185 12.8001C0.261936 13.2663 0 13.8987 0 14.558C0 15.2174 0.261936 15.8498 0.728185 16.316C1.19443 16.7823 1.8268 17.0442 2.48618 17.0442H2.49889C2.16832 17.4712 1.98894 17.9959 1.98894 18.5359C1.98894 19.0759 2.16832 19.6006 2.49889 20.0276H2.48618C1.8268 20.0276 1.19443 20.2896 0.728185 20.7558C0.261936 21.2221 0 21.8544 0 22.5138C0 23.1732 0.261936 23.8056 0.728185 24.2718C1.19443 24.7381 1.8268 25 2.48618 25H19.3922C19.5241 25 19.6506 24.9476 19.7438 24.8544C19.8371 24.7611 19.8894 24.6346 19.8894 24.5028C19.8894 24.3709 19.8371 24.2444 19.7438 24.1512C19.6506 24.0579 19.5241 24.0055 19.3922 24.0055C18.9966 24.0055 18.6172 23.8484 18.3374 23.5686C18.0577 23.2889 17.9005 22.9095 17.9005 22.5138C17.9005 22.1182 18.0577 21.7388 18.3374 21.459C18.6172 21.1793 18.9966 21.0221 19.3922 21.0221H21.3811C21.513 21.0221 21.6395 20.9697 21.7327 20.8765C21.826 20.7832 21.8784 20.6568 21.8784 20.5249C21.8784 20.393 21.826 20.2665 21.7327 20.1733C21.6395 20.08 21.513 20.0276 21.3811 20.0276ZM17.4045 13.0663C17.185 13.3609 17.0338 13.7006 16.9618 14.0608H11.4364C11.3046 14.0608 11.1781 14.1132 11.0848 14.2064C10.9916 14.2997 10.9392 14.4262 10.9392 14.558C10.9392 14.6899 10.9916 14.8164 11.0848 14.9096C11.1781 15.0029 11.3046 15.0553 11.4364 15.0553H16.9618C17.0338 15.4155 17.185 15.7552 17.4045 16.0498H9.44748C9.05186 16.0498 8.67244 15.8926 8.39269 15.6128C8.11294 15.3331 7.95578 14.9537 7.95578 14.558C7.95578 14.1624 8.11294 13.783 8.39269 13.5033C8.67244 13.2235 9.05186 13.0663 9.44748 13.0663H17.4045ZM7.60834 1.69256C9.07844 1.98634 9.85684 3.24982 10.2113 4.05493C9.60041 3.94279 9.03301 3.66219 8.57309 3.24478C8.11316 2.82737 7.77902 2.28975 7.60834 1.69256ZM6.9613 8.09398C6.9613 5.49806 9.45356 5.11056 10.9392 5.11056C12.4248 5.11056 14.9171 5.49806 14.9171 8.09398C14.9171 9.14898 14.498 10.1608 13.752 10.9068C13.006 11.6528 11.9942 12.0719 10.9392 12.0719C9.88419 12.0719 8.8724 11.6528 8.1264 10.9068C7.3804 10.1608 6.9613 9.14898 6.9613 8.09398ZM0.994472 14.558C0.994904 14.1626 1.1522 13.7834 1.43186 13.5037C1.71152 13.2241 2.09069 13.0668 2.48618 13.0663H7.45975C7.13624 13.4964 6.9613 14.0199 6.9613 14.558C6.9613 15.0962 7.13624 15.6197 7.45975 16.0498H2.48618C2.09069 16.0493 1.71152 15.892 1.43186 15.6124C1.1522 15.3327 0.994904 14.9535 0.994472 14.558ZM2.98342 18.5359C2.98385 18.1404 3.14115 17.7613 3.4208 17.4816C3.70046 17.202 4.07963 17.0447 4.47512 17.0442H9.4487C9.12519 17.4743 8.95025 17.9978 8.95025 18.5359C8.95025 19.0741 9.12519 19.5976 9.4487 20.0276H4.47512C4.07963 20.0272 3.70046 19.8699 3.4208 19.5903C3.14115 19.3106 2.98385 18.9314 2.98342 18.5359ZM2.48618 24.0055C2.09055 24.0055 1.71113 23.8484 1.43138 23.5686C1.15163 23.2889 0.994472 22.9095 0.994472 22.5138C0.994472 22.1182 1.15163 21.7388 1.43138 21.459C1.71113 21.1793 2.09055 21.0221 2.48618 21.0221H7.45975C7.13624 21.4521 6.9613 21.9757 6.9613 22.5138C6.9613 23.052 7.13624 23.5755 7.45975 24.0055H2.48618ZM16.9618 22.0166H11.4364C11.3046 22.0166 11.1781 22.069 11.0848 22.1622C10.9916 22.2555 10.9392 22.3819 10.9392 22.5138C10.9392 22.6457 10.9916 22.7722 11.0848 22.8654C11.1781 22.9587 11.3046 23.0111 11.4364 23.0111H16.9618C17.0338 23.3713 17.185 23.711 17.4045 24.0055H9.44748C9.05186 24.0055 8.67244 23.8484 8.39269 23.5686C8.11294 23.2889 7.95578 22.9095 7.95578 22.5138C7.95578 22.1182 8.11294 21.7388 8.39269 21.459C8.67244 21.1793 9.05186 21.0221 9.44748 21.0221H17.4045C17.185 21.3167 17.0338 21.6564 16.9618 22.0166ZM11.4364 20.0276C11.0408 20.0276 10.6614 19.8705 10.3816 19.5907C10.1019 19.311 9.94472 18.9316 9.94472 18.5359C9.94472 18.1403 10.1019 17.7609 10.3816 17.4811C10.6614 17.2014 11.0408 17.0442 11.4364 17.0442H19.3934C19.174 17.3388 19.0227 17.6785 18.9507 18.0387H13.4254C13.2935 18.0387 13.167 18.0911 13.0738 18.1843C12.9805 18.2776 12.9281 18.4041 12.9281 18.5359C12.9281 18.6678 12.9805 18.7943 13.0738 18.8875C13.167 18.9808 13.2935 19.0332 13.4254 19.0332H18.9507C19.0227 19.3934 19.174 19.7331 19.3934 20.0276H11.4364Z" fill="#83529B"/>
</svg>
