<svg  viewBox="0 0 21 20" fill="none" xmlns="http://www.w3.org/2000/svg">
<path d="M11.7814 19.9838C11.8196 19.9816 11.8577 19.9794 11.8959 19.9767C11.9355 19.9739 11.9751 19.9711 12.0147 19.9678C12.0252 19.967 12.0357 19.966 12.0462 19.9651C14.3481 19.7714 16.487 18.7612 18.1386 17.0706C18.1747 17.0336 18.21 16.9959 18.2456 16.9585C18.2534 16.9502 18.2614 16.9419 18.2692 16.9336C18.304 16.8967 18.3383 16.8594 18.3725 16.822C18.376 16.8181 18.3794 16.8143 18.3829 16.8105C20.0729 14.9542 21 12.5501 21 9.99998C21 7.32859 19.9838 4.8173 18.1386 2.92874C16.4861 1.23746 14.3457 0.227338 12.042 0.034565C12.0332 0.0337912 12.0245 0.0329743 12.0157 0.0322434C11.9757 0.0289761 11.9355 0.0260528 11.8954 0.0233013C11.8577 0.0206789 11.8202 0.0184003 11.7825 0.0162507C11.7511 0.0144451 11.7197 0.0125535 11.6882 0.0110918C11.6269 0.00816839 11.5655 0.00593285 11.5041 0.00421321C11.4836 0.00361133 11.4631 0.00313837 11.4426 0.00266547C11.3716 0.00107479 11.3006 0 11.2296 0C11.1587 0 11.0878 0.00107479 11.0168 0.00266547C10.9962 0.00313837 10.9756 0.00361133 10.955 0.00421321C10.8943 0.00597585 10.8336 0.00812537 10.773 0.0110058C10.7401 0.0125535 10.7072 0.014531 10.6743 0.0164227C10.638 0.0185292 10.6017 0.0207218 10.5655 0.0232153C10.5243 0.0260097 10.4832 0.0290621 10.442 0.0323724C10.4364 0.0328453 10.4307 0.0333612 10.4251 0.0338771C8.11875 0.225016 5.97551 1.23557 4.32134 2.92874C2.47619 4.81726 1.46004 7.32855 1.46004 9.99994C1.46004 12.6706 2.47619 15.1817 4.3213 17.0706C5.18191 17.9516 6.17486 18.6478 7.25415 19.1402H0.420384C0.188206 19.1402 0 19.3327 0 19.5701C0 19.8075 0.188206 20 0.420384 20H11.4994C11.5225 20 11.545 19.9976 11.5671 19.9939C11.6077 19.9925 11.6484 19.9908 11.689 19.9889C11.7199 19.9874 11.7506 19.9856 11.7814 19.9838ZM2.76457 12.909C2.74587 12.8521 2.72775 12.795 2.71013 12.7377C2.70408 12.718 2.69824 12.6983 2.69235 12.6786C2.68054 12.6392 2.6691 12.5996 2.6578 12.56L3.02866 11.901L3.85955 10.4299H7.18088L8.84139 13.3737L7.18083 16.319H4.78448C3.89658 15.3704 3.20614 14.2268 2.78105 12.9581C2.7755 12.9417 2.76995 12.9254 2.76457 12.909ZM2.70442 7.28014C3.12055 5.9162 3.84122 4.68862 4.78439 3.68095H7.18016L7.62018 4.46L8.84127 6.62478L7.90919 8.27805L7.18075 9.57002H3.85963L2.65784 7.43972C2.67179 7.39088 2.68571 7.34204 2.70042 7.29355C2.70177 7.28904 2.70307 7.28456 2.70442 7.28014ZM9.179 1.10341C9.21503 1.09473 9.25119 1.08639 9.28734 1.07822C9.32622 1.06932 9.36507 1.06047 9.40412 1.05212C9.47609 1.03686 9.54819 1.02225 9.62053 1.00879C9.62541 1.00789 9.63025 1.00681 9.63516 1.00591C10.6852 0.812706 11.7713 0.812621 12.821 1.00531C12.8379 1.0084 12.8546 1.01201 12.8714 1.0152C12.9312 1.02654 12.9909 1.03845 13.0505 1.05105C13.0959 1.06072 13.1411 1.071 13.1863 1.0814C13.2152 1.08802 13.2442 1.09469 13.2731 1.10156C13.2988 1.1078 13.3244 1.11442 13.3501 1.12082L14.551 3.25091L12.8905 6.19469H9.56942L8.73912 4.72194L8.38906 4.10218L7.90886 3.25091L9.10989 1.1207C9.13293 1.11494 9.15588 1.10896 9.179 1.10341ZM19.762 7.30189C19.7758 7.34755 19.789 7.39346 19.802 7.43938L18.6002 9.56998H15.2792L13.6186 6.62469L15.2792 3.68091L17.6754 3.68095C18.6176 4.68751 19.3377 5.91345 19.7541 7.27558C19.7568 7.28435 19.7594 7.29316 19.762 7.30189ZM19.7635 12.6928C19.76 12.7045 19.7565 12.7161 19.753 12.7278C19.7328 12.7937 19.712 12.8594 19.6904 12.9246C19.6895 12.9277 19.6884 12.9307 19.6874 12.9337C19.263 14.2122 18.569 15.3643 17.6754 16.319H15.2793L13.6187 13.3736L15.2792 10.4298H18.6004L19.8022 12.5602C19.7895 12.6045 19.7768 12.6488 19.7635 12.6928ZM9.56946 12.9437L7.90894 9.99985L8.42589 9.08289L9.56946 7.05461H12.8905L14.1497 9.28804L14.551 9.99985L13.0434 12.6726L12.8905 12.9437H9.56946ZM2.3008 9.99994C2.3008 9.55532 2.33259 9.11823 2.39283 8.69046L3.13148 9.99981L2.39262 11.3079C2.33254 10.8806 2.3008 10.444 2.3008 9.99994ZM15.2793 17.1788H16.7506C16.084 17.7171 15.3409 18.1601 14.541 18.4882L15.2793 17.1788ZM19.3284 9.99989L20.0672 8.69029C20.1274 9.11814 20.1592 9.55528 20.1592 9.99994C20.1592 10.4446 20.1274 10.8817 20.0672 11.3095L19.3284 9.99989ZM15.2792 2.82109L14.541 1.51166C15.3408 1.83977 16.084 2.28279 16.7506 2.82109H15.2792ZM7.18071 2.82113H5.70903C6.37576 2.28271 7.11908 1.83955 7.91911 1.51144L7.18071 2.82113ZM7.18075 17.1788L7.91916 18.4885C7.11908 18.1604 6.37576 17.7172 5.70899 17.1788H7.18075ZM7.9089 16.7489L9.5695 13.8035H12.8905L14.5511 16.749L13.3501 18.879C13.3245 18.8855 13.2989 18.8922 13.2732 18.8983C13.2441 18.9053 13.215 18.9119 13.1859 18.9186C13.141 18.9289 13.0961 18.9392 13.051 18.9487C12.9898 18.9617 12.9285 18.9739 12.8671 18.9855C12.8519 18.9884 12.8368 18.9917 12.8216 18.9945C11.7715 19.1873 10.6848 19.1872 9.63449 18.9938C9.6318 18.9933 9.62911 18.9928 9.62638 18.9922C9.5518 18.9784 9.47748 18.9633 9.40332 18.9476C9.36524 18.9395 9.32732 18.9308 9.2894 18.9221C9.25224 18.9137 9.21512 18.9051 9.17808 18.8962C9.1553 18.8907 9.13272 18.8848 9.11002 18.8792L7.9089 16.7489Z" fill="#83529B"/>
</svg>
