<svg viewBox="0 0 20 22" fill="none" xmlns="http://www.w3.org/2000/svg">
<path d="M18.7969 12.8019C18.7562 12.8019 18.7156 12.7816 18.675 12.7613C18.0047 12.3347 17.2531 11.9488 16.4405 11.6034C12.3576 9.91745 7.66529 9.91745 3.58236 11.6034C2.74953 11.9488 1.99794 12.3347 1.34792 12.7613C1.28698 12.8019 1.18542 12.8019 1.12448 12.7613C1.04323 12.7207 1.0026 12.6394 1.0026 12.5581V1.22344C0.982288 1.10157 1.08385 1 1.20573 1H18.7766C18.8984 1 19 1.10157 19 1.22344V12.5785C19 12.6597 18.9594 12.741 18.8781 12.7816C18.8578 12.8019 18.8375 12.8019 18.7969 12.8019ZM1.42918 1.44689V12.1722C2.01826 11.8066 2.68859 11.4816 3.39955 11.1972C7.60436 9.45025 12.4186 9.45025 16.6031 11.1972C17.314 11.4816 17.964 11.8269 18.5734 12.1722V1.44689H1.42918Z" fill="#83529B" stroke="#83529B" stroke-width="0.5"/>
<path d="M2.83087 10.1612C2.79024 10.1612 2.74961 10.1409 2.70899 10.1206C2.64805 10.08 2.60742 10.019 2.60742 9.93779V2.82821C2.60742 2.70633 2.70899 2.60477 2.83087 2.60477H17.1922C17.3141 2.60477 17.4157 2.70633 17.4157 2.82821V9.93779C17.4157 10.019 17.375 10.08 17.3141 10.1206C17.2532 10.1612 17.1719 10.1612 17.111 10.1409L17.0703 10.1206C14.8156 9.18621 12.439 8.71901 10.0014 8.71901C7.56382 8.71901 5.18718 9.18621 2.95274 10.1206L2.91212 10.1409C2.87149 10.1612 2.85118 10.1612 2.83087 10.1612ZM10.0014 8.27212C12.3983 8.27212 14.7343 8.71901 16.9688 9.59247V3.05165H3.034V9.61278C5.26844 8.71901 7.60444 8.27212 10.0014 8.27212Z" fill="#83529B" stroke="#83529B" stroke-width="0.5"/>
<path d="M14.4862 8.92207H14.0393V5.26572H5.9547V8.92207H5.50781V5.06259C5.50781 4.94071 5.60938 4.83914 5.73126 4.83914H14.2628C14.3846 4.83914 14.4862 4.94071 14.4862 5.06259V8.92207Z" fill="#83529B" stroke="#83529B" stroke-width="0.5"/>
<path d="M10.2848 10.1206H9.83789V12.1113H10.2848V10.1206Z" fill="#83529B" stroke="#83529B" stroke-width="0.5"/>
<path d="M10.0603 15.4629C7.62273 15.4629 5.04297 14.8129 5.04297 13.5941C5.04297 12.3753 7.62273 11.7253 10.0603 11.7253C12.4979 11.7253 15.0979 12.3753 15.0979 13.5941C15.0979 14.7926 12.4979 15.4629 10.0603 15.4629ZM10.0603 12.1722C7.35866 12.1722 5.46954 12.9238 5.46954 13.5941C5.46954 14.2644 7.35866 15.016 10.0603 15.016C12.7619 15.016 14.6511 14.2644 14.6511 13.5941C14.6511 12.9238 12.7619 12.1722 10.0603 12.1722Z" fill="#83529B" stroke="#83529B" stroke-width="0.5"/>
<path d="M12.4787 21.3131H7.66453C7.01451 21.3131 6.46606 20.8053 6.42543 20.1553C6.2223 16.9864 5.08477 13.6957 5.06445 13.6754L5.49103 13.5332C5.51134 13.5738 6.66919 16.9052 6.87232 20.135C6.89263 20.5615 7.25827 20.8865 7.66453 20.8865H12.499C12.9256 20.8865 13.2709 20.5615 13.2913 20.135C13.4944 16.9052 14.6725 13.5535 14.6725 13.5332L15.0991 13.6754C15.0788 13.716 13.9413 16.9864 13.7381 20.1553C13.6772 20.8053 13.1287 21.3131 12.4787 21.3131Z" fill="#83529B" stroke="#83529B" stroke-width="0.5"/>
</svg>
