<svg viewBox="0 0 63 36" fill="none" xmlns="http://www.w3.org/2000/svg">
<path d="M12.9029 35.4C11.771 35.4 10.6075 35.2428 9.44408 34.8969C3.15523 32.9788 -0.397975 26.3126 1.52012 20.0238C3.43822 13.7349 10.1044 10.1817 16.3933 12.0998C22.6821 14.0179 26.2353 20.6841 24.3172 26.973C22.745 32.0669 18.0284 35.4 12.9029 35.4ZM12.9344 12.5086C8.21775 12.5086 3.87844 15.5587 2.43201 20.2753C0.671128 26.0611 3.94134 32.1927 9.72708 33.9536C15.5128 35.7145 21.6445 32.4443 23.4053 26.6585C25.1662 20.8728 21.896 14.7412 16.1103 12.9803C15.0412 12.6658 13.9721 12.5086 12.9344 12.5086Z" fill="#83529B" stroke="#83529B" stroke-width="0.5"/>
<path d="M50.1986 35.4C43.6268 35.4 38.2812 30.0545 38.2812 23.4826C38.2812 16.9108 43.6268 11.5652 50.1986 11.5652C56.7705 11.5652 62.116 16.9108 62.116 23.4826C62.116 30.0545 56.7705 35.4 50.1986 35.4ZM50.1986 12.5086C44.1613 12.5086 39.2246 17.4139 39.2246 23.4826C39.2246 29.5514 44.1299 34.4567 50.1986 34.4567C56.2674 34.4567 61.1727 29.5514 61.1727 23.4826C61.1727 17.4139 56.2674 12.5086 50.1986 12.5086Z" fill="#83529B" stroke="#83529B" stroke-width="0.5"/>
<path d="M41.8882 5.32842L41.043 5.74725L48.1213 20.0315L48.9665 19.6126L41.8882 5.32842Z" fill="#83529B" stroke="#83529B" stroke-width="0.5"/>
<path d="M32.3061 24.992L21.9609 5.71666L22.8099 5.27645L32.2747 22.9167L42.5255 1.53458L43.3745 1.94335L32.3061 24.992Z" fill="#83529B" stroke="#83529B" stroke-width="0.5"/>
<path d="M41.457 5.05627H22.4961V5.9996H41.457V5.05627Z" fill="#83529B" stroke="#83529B" stroke-width="0.5"/>
<path d="M15.3529 21.03L14.5039 20.6527L23.0567 1.94333H15.2271V1H24.5346L15.3529 21.03Z" fill="#83529B" stroke="#83529B" stroke-width="0.5"/>
<path d="M47.7455 1H36.457V1.94333H47.7455V1Z" fill="#83529B" stroke="#83529B" stroke-width="0.5"/>
</svg>
