<svg viewBox="0 0 31 14" fill="none" xmlns="http://www.w3.org/2000/svg">
<path d="M19.4627 12.8104H1L6.20874 5.52493H30.3023L25.7689 10.1427C24.0721 11.8649 21.8349 12.8104 19.4627 12.8104ZM1.57406 12.5149H19.4627C21.759 12.5149 23.9201 11.6032 25.5579 9.94012L29.6016 5.8204H6.36069L1.57406 12.5149Z" fill="#83529B" stroke="#83529B" stroke-width="0.5"/>
<path d="M17.8759 5.76975L14.3893 2.22409C13.7984 1.62471 13.0133 1.29547 12.186 1.29547H9.18061L10.6411 5.63467L10.3625 5.72754L8.77539 1H12.186C13.0977 1 13.9504 1.36301 14.6004 2.02148L18.087 5.56714L17.8759 5.76975Z" fill="#83529B" stroke="#83529B" stroke-width="0.5"/>
<path d="M26.5112 9.01993H3.83594V9.3154H26.5112V9.01993Z" fill="#83529B" stroke="#83529B" stroke-width="0.5"/>
</svg>
