<svg viewBox="0 0 25 20" fill="none" xmlns="http://www.w3.org/2000/svg">
<path d="M24.2126 3.52175C23.0877 1.43687 20.8521 0 18.279 0C15.9589 0 13.7092 1.14653 12.5 2.90741L10.9814 1.50731C10.8268 1.39461 10.6721 1.26783 10.5174 1.15513C9.43476 0.42261 8.12711 0 6.72103 0C5.10405 0 3.62767 0.563479 2.47469 1.49322C2.41845 1.53548 2.3622 1.59183 2.2919 1.64818C1.81384 2.0567 1.40607 2.53566 1.05456 3.05688C1.01237 3.12731 0.970191 3.18366 0.928009 3.25409C0.857705 3.38088 0.787402 3.50766 0.717098 3.63444C0.464004 4.12749 0.281215 4.66279 0.154668 5.21218C0.140607 5.29671 0.126547 5.36714 0.112486 5.45166C0.0421822 5.83201 0 6.22645 0 6.62088C0 6.86036 0.0140607 7.09984 0.0421822 7.32523C0.056243 7.39567 0.056243 7.4661 0.0703037 7.53654C0.126547 7.97323 0.239033 8.38176 0.37964 8.79028C0.56243 9.38193 1.05456 10.1567 1.15298 10.2976C1.15298 10.3117 1.16704 10.3117 1.16704 10.3258C1.20922 10.3821 1.25141 10.4385 1.27953 10.4948C1.27953 10.5089 1.29359 10.5089 1.29359 10.523C1.33577 10.5793 1.37795 10.6357 1.42013 10.692C1.4342 10.7061 1.44826 10.7343 1.46232 10.7484C1.49044 10.7906 1.53262 10.8329 1.56074 10.8752C1.60292 10.9315 1.65917 10.9878 1.71541 11.0442L1.72947 11.0583C1.84196 11.171 1.94038 11.2837 2.05287 11.3964C2.06693 11.3964 2.06693 11.4105 2.08099 11.4105L2.93869 12.1148L4.27447 13.2277L10.9674 18.792L12.3453 19.9472C12.4297 20.0176 12.5703 20.0176 12.6547 19.9472L16.887 16.4254L18.279 15.2703L19.9803 13.8475L20.6834 13.2699L20.7115 13.2418L20.8099 13.1572L21.9488 12.1993L21.9769 12.1712L22.919 11.4105C22.9331 11.4105 22.9331 11.3964 22.9471 11.3964C23.5939 10.7765 24.1282 10.0299 24.4798 9.1988C24.8172 8.40993 25 7.55062 25 6.63497C25 5.49392 24.7188 4.4374 24.2126 3.52175Z" />
</svg>
