<svg viewBox="0 0 37 55" fill="none" xmlns="http://www.w3.org/2000/svg">
<path d="M12.4557 29.4399C12.2231 29.6726 12.2231 30.0215 12.4557 30.2542C12.572 30.3705 12.7465 30.4286 12.8628 30.4286C12.9792 30.4286 13.1536 30.3705 13.27 30.2542L19.7838 23.7403C20.8307 22.6935 22.5754 22.6935 23.6223 23.7403L28.4495 28.5676C28.6822 28.8002 29.0311 28.8002 29.2638 28.5676C29.4964 28.3349 29.4964 27.986 29.2638 27.7533L24.4365 22.9261C22.9244 21.414 20.4817 21.414 18.9696 22.9261L12.4557 29.4399Z" fill="#83529B" stroke="#83529B" stroke-width="0.5"/>
<path d="M28.8571 43.9216C29.0316 43.9216 29.1479 43.8635 29.2642 43.7472C29.4969 43.5145 29.4969 43.1656 29.2642 42.9329L19.0864 32.755C18.8537 32.5224 18.5048 32.5224 18.2721 32.755C18.0395 32.9877 18.0395 33.3366 18.2721 33.5693L28.45 43.7472C28.5663 43.8635 28.6827 43.9216 28.8571 43.9216Z" fill="#83529B" stroke="#83529B" stroke-width="0.5"/>
<path d="M12.2235 20.9487C11.9908 20.7161 11.6419 20.7161 11.4092 20.9487L6.34937 26.0086C6.23305 26.1249 6.17489 26.2412 6.17489 26.4157V34.3254C6.17489 34.907 5.70962 35.3722 5.12802 35.3722C4.54643 35.3722 4.08116 34.907 4.08116 34.3254V26.0667C4.08116 25.5433 4.25563 25.078 4.66275 24.7291L10.5368 18.855C11.0603 18.3315 11.7582 18.0407 12.4561 18.0407C13.9682 18.0407 15.1896 19.2621 15.1896 20.7742V23.7404C15.1896 24.0893 15.4222 24.322 15.7712 24.322C16.1201 24.322 16.3528 24.0893 16.3528 23.7404V20.7742C16.3528 18.6223 14.608 16.8776 12.4561 16.8776C11.4092 16.8776 10.4205 17.2847 9.72261 18.0407L3.79036 23.9148C3.20877 24.4964 2.91797 25.2525 2.91797 26.0667V34.3254C2.91797 35.5467 3.90668 36.5354 5.12802 36.5354C6.34937 36.5354 7.33808 35.5467 7.33808 34.3254V26.6483L12.2235 21.7629C12.3979 21.5303 12.3979 21.1814 12.2235 20.9487Z" fill="#83529B" stroke="#83529B" stroke-width="0.5"/>
<path d="M13.6801 15.6561L20.95 8.38621C21.3571 7.97909 22.0551 7.97909 22.4622 8.38621C22.6366 8.56069 22.753 8.85148 22.753 9.14228C22.753 9.43307 22.6366 9.72387 22.4622 9.89835L15.9483 16.4122C15.7157 16.6448 15.7157 16.9938 15.9483 17.2264C16.0646 17.3427 16.2391 17.4009 16.3554 17.4009C16.4718 17.4009 16.6462 17.3427 16.7626 17.2264L23.2764 10.7126C23.6835 10.3055 23.9162 9.72387 23.9162 9.14228C23.9162 8.56068 23.6835 7.97909 23.2764 7.57198C22.4622 6.75775 20.95 6.75775 20.1358 7.57198L12.8659 14.8419C12.6332 15.0745 12.6332 15.4235 12.8659 15.6561C13.0985 15.8888 13.4475 15.8888 13.6801 15.6561Z" fill="#83529B" stroke="#83529B" stroke-width="0.5"/>
<path d="M7.10673 11.934C7.572 12.3993 8.26991 12.3993 8.73519 11.934L10.3636 10.3055C10.5963 10.5963 10.7708 10.9453 10.8871 11.3524C11.1779 12.283 11.0616 13.2135 10.5963 14.0277C10.131 14.842 9.37494 15.4817 8.50255 15.7144C7.572 16.0051 6.64145 15.8888 5.82722 15.4236C5.53643 15.2491 5.18747 15.3654 5.01299 15.6562C4.83852 15.947 4.95483 16.2959 5.24563 16.4704C5.94354 16.8775 6.69961 17.052 7.51384 17.052C7.97912 17.052 8.38623 16.9939 8.85151 16.8775C10.0729 16.5286 11.0616 15.7144 11.6432 14.6093C12.2247 13.5043 12.3992 12.2248 12.0503 11.0034C11.7013 9.7821 10.8871 8.79339 9.78206 8.2118C7.51384 6.99045 4.66404 7.80468 3.38453 10.0729C2.68662 11.3524 2.62846 12.8645 3.21005 14.2022L1.17448 16.2378C0.941841 16.4704 0.941841 16.8194 1.17448 17.052C1.2908 17.1683 1.46527 17.2265 1.58159 17.2265C1.69791 17.2265 1.87239 17.1683 1.98871 17.052L7.10673 11.934ZM4.37324 10.6545C5.18747 9.20051 6.87409 8.5026 8.44439 8.96787L4.08244 13.3298C3.84981 12.3993 3.96613 11.4687 4.37324 10.6545Z" fill="#83529B" stroke="#83529B" stroke-width="0.5"/>
<path d="M36.3583 22.9261L24.9009 11.5269C24.6683 11.2943 24.3193 11.2943 24.0867 11.5269C23.8541 11.7595 23.8541 12.1085 24.0867 12.3411L35.3114 23.5659V28.3349C35.137 28.2768 34.9043 28.2768 34.7299 28.3349L28.7394 29.9634C28.4486 30.0216 28.2742 30.3705 28.3323 30.6613C28.3905 30.9521 28.7394 31.1847 29.0302 31.0684L35.0206 29.4981C35.0788 29.4981 35.1951 29.4981 35.2533 29.5563C35.3114 29.6144 35.3114 29.6726 35.3114 29.7308C35.3114 29.7889 35.3114 29.8471 35.2533 29.9052L31.1821 33.9764C30.775 34.3835 30.0771 34.3835 29.67 33.9764L22.1093 26.4157C21.8766 26.183 21.5277 26.183 21.2951 26.4157L14.3159 33.3948C13.7925 33.9182 13.0946 34.209 12.3967 34.209C10.8845 34.209 9.66319 32.9877 9.66319 31.4755V27.3462C9.66319 26.9973 9.43055 26.7646 9.08159 26.7646C8.73264 26.7646 8.5 26.9973 8.5 27.3462V31.4755C8.5 33.6274 10.2448 35.3722 12.3967 35.3722C13.4435 35.3722 14.4322 34.9651 15.1302 34.209L21.7022 27.637L28.8558 34.7906C29.2629 35.1977 29.8445 35.4304 30.4261 35.4304C31.0077 35.4304 31.5893 35.1977 31.9964 34.7906L35.3114 31.4755V43.5145C35.137 43.4564 34.9043 43.4564 34.7299 43.5145L28.7394 45.143C28.4486 45.2011 28.216 45.5501 28.3323 45.8409C28.3905 46.1317 28.7394 46.3643 29.0302 46.248L35.0206 44.6777C35.0788 44.6777 35.1951 44.6777 35.2533 44.7359C35.3114 44.794 35.3114 44.8522 35.3114 44.9103C35.3114 44.9685 35.3114 45.0267 35.2533 45.0848L31.1821 49.156C30.775 49.5631 30.0771 49.5631 29.67 49.156L16.1189 35.6049C15.8862 35.3722 15.5373 35.3722 15.3046 35.6049C15.072 35.8375 15.072 36.1864 15.3046 36.4191L28.8558 49.9702C29.2629 50.3773 29.8445 50.61 30.4261 50.61C31.0077 50.61 31.5893 50.3773 31.9964 49.9702L35.3114 46.6551V53.3434C35.3114 53.6924 35.5441 53.925 35.893 53.925C36.242 53.925 36.4746 53.6924 36.4746 53.3434V23.3332C36.5328 23.2169 36.4746 23.0424 36.3583 22.9261Z" fill="#83529B" stroke="#83529B" stroke-width="0.5"/>
<path d="M18.4479 6.69961C18.5642 6.81593 18.7387 6.87409 18.855 6.87409C18.9713 6.87409 19.1458 6.81593 19.2621 6.69961C19.4948 6.46698 19.4948 6.11802 19.2621 5.88538L14.5512 1.17448C14.3186 0.941841 13.9696 0.941841 13.737 1.17448C13.5043 1.40712 13.5043 1.75607 13.737 1.98871L18.4479 6.69961Z" fill="#83529B" stroke="#83529B" stroke-width="0.5"/>
</svg>
