<svg viewBox="0 0 27 26" fill="none" xmlns="http://www.w3.org/2000/svg">
<path d="M5.44705 8.72787C5.62817 8.67125 5.7291 8.47853 5.67248 8.29741C5.61586 8.11628 5.42313 8.01536 5.24201 8.07198C5.06089 8.1286 4.95996 8.32133 5.01658 8.50245C5.0732 8.68357 5.26593 8.7845 5.44705 8.72787Z" fill="#83529B" stroke="#83529B" stroke-width="0.3"/>
<path d="M7.00992 9.74262C7.28274 9.70801 7.47584 9.4588 7.44123 9.18599C7.40662 8.91318 7.15741 8.72008 6.88459 8.75469C6.61178 8.7893 6.41868 9.03851 6.45329 9.31132C6.4879 9.58413 6.73711 9.77723 7.00992 9.74262Z" fill="#83529B" stroke="#83529B" stroke-width="0.3"/>
<path d="M7.99891 7.86585C8.11598 7.71649 8.08981 7.50052 7.94045 7.38345C7.7911 7.26639 7.57513 7.29256 7.45806 7.44191C7.34099 7.59127 7.36717 7.80724 7.51652 7.92431C7.66587 8.04137 7.88185 8.0152 7.99891 7.86585Z" fill="#83529B" stroke="#83529B" stroke-width="0.3"/>
<path d="M19.4964 22.1094C19.285 22.1094 19.0784 22.1721 18.9027 22.2895C18.7269 22.4069 18.59 22.5738 18.5091 22.7691C18.4282 22.9644 18.407 23.1792 18.4483 23.3865C18.4895 23.5938 18.5913 23.7843 18.7407 23.9337C18.8902 24.0832 19.0806 24.1849 19.2879 24.2262C19.4952 24.2674 19.7101 24.2462 19.9053 24.1654C20.1006 24.0845 20.2675 23.9475 20.3849 23.7718C20.5024 23.596 20.565 23.3894 20.565 23.1781C20.565 22.8946 20.4525 22.6228 20.252 22.4224C20.0516 22.222 19.7798 22.1094 19.4964 22.1094ZM19.4964 23.6614C19.4001 23.6614 19.306 23.6328 19.2259 23.5793C19.1459 23.5257 19.0836 23.4496 19.0468 23.3606C19.0101 23.2715 19.0007 23.1736 19.0197 23.0792C19.0387 22.9848 19.0853 22.8982 19.1536 22.8303C19.2219 22.7624 19.3088 22.7163 19.4033 22.6979C19.4978 22.6794 19.5957 22.6895 19.6845 22.7267C19.7733 22.764 19.8491 22.8268 19.9021 22.9071C19.9552 22.9875 19.9832 23.0818 19.9827 23.1781C19.9827 23.307 19.9314 23.4307 19.8402 23.5219C19.749 23.6131 19.6254 23.6643 19.4964 23.6643V23.6614Z" fill="#83529B" stroke="#83529B" stroke-width="0.3"/>
<path d="M7.60772 22.1094C7.39636 22.1094 7.18974 22.1721 7.014 22.2895C6.83827 22.4069 6.70129 22.5738 6.62041 22.7691C6.53953 22.9644 6.51836 23.1792 6.5596 23.3865C6.60083 23.5938 6.70261 23.7843 6.85206 23.9337C7.00152 24.0832 7.19193 24.1849 7.39923 24.2262C7.60653 24.2674 7.8214 24.2462 8.01667 24.1654C8.21194 24.0845 8.37884 23.9475 8.49627 23.7718C8.61369 23.596 8.67637 23.3894 8.67637 23.1781C8.67637 22.8946 8.56378 22.6228 8.36337 22.4224C8.16296 22.222 7.89114 22.1094 7.60772 22.1094ZM7.60772 23.6614C7.51141 23.6614 7.41728 23.6328 7.33725 23.5793C7.25722 23.5257 7.1949 23.4496 7.15818 23.3606C7.12146 23.2715 7.112 23.1736 7.131 23.0792C7.15 22.9848 7.19661 22.8982 7.26491 22.8303C7.33321 22.7624 7.42012 22.7163 7.51464 22.6979C7.60916 22.6794 7.70703 22.6895 7.79583 22.7267C7.88464 22.764 7.96038 22.8268 8.01346 22.9071C8.06654 22.9875 8.09457 23.0818 8.094 23.1781C8.094 23.307 8.04276 23.4307 7.95157 23.5219C7.86037 23.6131 7.73668 23.6643 7.60772 23.6643V23.6614Z" fill="#83529B" stroke="#83529B" stroke-width="0.3"/>
<path d="M22.9981 7.93047C23.109 7.71625 23.0252 7.45268 22.811 7.34178C22.5968 7.23088 22.3332 7.31464 22.2223 7.52886C22.1114 7.74309 22.1951 8.00665 22.4094 8.11755C22.6236 8.22845 22.8872 8.14469 22.9981 7.93047Z" fill="#83529B" stroke="#83529B" stroke-width="0.3"/>
<path d="M20.8262 6.8066C20.9371 6.59238 20.8533 6.32881 20.6391 6.21791C20.4249 6.10701 20.1613 6.19077 20.0504 6.40499C19.9395 6.61922 20.0233 6.88278 20.2375 6.99368C20.4517 7.10458 20.7153 7.02082 20.8262 6.8066Z" fill="#83529B" stroke="#83529B" stroke-width="0.3"/>
<path d="M20.2879 9.29721C20.601 9.45949 20.9485 9.54437 21.3012 9.54472C21.6343 9.54569 21.9631 9.46997 22.2621 9.32342C22.3256 9.28623 22.3726 9.22641 22.3937 9.15599C22.4149 9.08557 22.4086 9.00975 22.3762 8.94376C22.3437 8.87777 22.2875 8.8265 22.2188 8.80024C22.1501 8.77398 22.0741 8.77468 22.0059 8.8022C21.7783 8.91274 21.5278 8.96827 21.2748 8.96433C21.0218 8.9604 20.7732 8.8971 20.5491 8.77953C20.3251 8.66196 20.1317 8.49341 19.9847 8.28746C19.8376 8.0815 19.741 7.8439 19.7026 7.59378C19.6971 7.55554 19.684 7.51876 19.6643 7.48556C19.6445 7.45235 19.6184 7.42336 19.5875 7.40024C19.5565 7.37712 19.5213 7.36033 19.4838 7.35082C19.4464 7.34131 19.4074 7.33927 19.3692 7.34481C19.331 7.35036 19.2942 7.36338 19.261 7.38313C19.2278 7.40289 19.1988 7.42899 19.1757 7.45995C19.1525 7.49091 19.1358 7.52612 19.1262 7.56357C19.1167 7.60102 19.1147 7.63998 19.1202 7.67822C19.1729 8.02123 19.3061 8.34684 19.5091 8.6283C19.7121 8.90975 19.979 9.13901 20.2879 9.29721Z" fill="#83529B" stroke="#83529B" stroke-width="0.3"/>
<path d="M25.3847 11.8218L23.2328 10.229L23.2823 10.2057C23.2915 10.2141 23.3012 10.2219 23.3115 10.229C23.6297 10.3722 23.9759 10.4428 24.3248 10.4357C24.8635 10.4357 25.4167 10.2785 25.6322 9.85336V9.82715C26.1169 8.89581 26.2896 7.83344 26.125 6.79652C25.9604 5.7596 25.4672 4.80295 24.7179 4.0675C24.8167 3.92477 24.8878 3.76476 24.9275 3.59577C24.9826 3.35962 24.9745 3.11313 24.904 2.88111C24.8335 2.6491 24.7032 2.43974 24.526 2.27413C24.3489 2.10852 24.1313 1.99249 23.8951 1.93774C23.6588 1.88298 23.4124 1.89143 23.1804 1.96222L21.742 2.39609L20.6646 1.37985C20.406 1.13358 20.0618 0.997401 19.7047 1.00004C19.3475 1.00267 19.0054 1.14392 18.7504 1.39398C18.4955 1.64404 18.3476 1.98336 18.338 2.34036C18.3284 2.69736 18.4579 3.04413 18.6991 3.3075C17.9166 3.77409 17.281 4.4511 16.8646 5.26136L16.8384 5.31377C16.489 5.98932 17.2315 6.78717 17.7877 7.13951C17.7877 7.18319 17.7877 7.22686 17.8022 7.27054L15.298 6.51928C15.0954 6.45344 14.8816 6.4293 14.6694 6.44832C14.4572 6.46734 14.2511 6.52912 14.0634 6.62993C13.6835 6.82773 13.3961 7.16636 13.2626 7.57337C13.1269 7.97805 13.1574 8.42006 13.3474 8.80227C13.5374 9.18447 13.8714 9.4756 14.276 9.61168L15.6795 10.0747L15.2544 10.9133C14.8773 10.7931 14.4852 10.7264 14.0896 10.7153C14.0841 10.4741 14.0241 10.2373 13.9142 10.0226C13.8044 9.80781 13.6474 9.62066 13.4551 9.47507C13.2627 9.32948 13.04 9.22923 12.8035 9.18179C12.5669 9.13435 12.3228 9.14095 12.0892 9.2011L9.8645 9.75727C10.1859 9.13797 10.2727 8.42343 10.1091 7.74517C10.0235 7.40536 9.87536 7.08444 9.67232 6.79882C9.8232 6.65722 9.93906 6.48245 10.0107 6.28834C10.0824 6.09423 10.1079 5.88611 10.0853 5.68043C10.0626 5.47475 9.99245 5.27716 9.88026 5.1033C9.76807 4.92943 9.61696 4.78406 9.43889 4.67867C9.26082 4.57329 9.06067 4.51078 8.85427 4.49611C8.64787 4.48143 8.44089 4.51498 8.24969 4.5941C8.0585 4.67323 7.88834 4.79576 7.75267 4.952C7.61701 5.10824 7.51956 5.2939 7.46804 5.49431C6.47713 5.34563 5.4677 5.5959 4.66101 6.19024C4.4996 6.01146 4.29298 5.8795 4.06289 5.80827C3.8328 5.73704 3.58777 5.72917 3.35358 5.78549C3.18455 5.82329 3.02469 5.89421 2.88325 5.99417C2.7418 6.09414 2.62158 6.22115 2.52953 6.36787C2.42042 6.53927 2.35406 6.73436 2.336 6.93674C2.31794 7.13912 2.34872 7.34288 2.42576 7.5309C2.50279 7.71891 2.62382 7.88569 2.77869 8.01722C2.93355 8.14876 3.11772 8.2412 3.31573 8.28678C3.25168 8.66511 3.26555 9.05254 3.35649 9.42532C3.53064 10.1031 3.94442 10.6948 4.52124 11.0909L2.19175 11.6733C1.78477 11.781 1.43657 12.0446 1.2225 12.4071C1.00843 12.7696 0.945712 13.2019 1.04791 13.6103C1.1501 14.0187 1.409 14.3704 1.76857 14.5894C2.12814 14.8083 2.55947 14.8769 2.96922 14.7802L3.68262 14.6026C3.83204 14.5656 3.99004 14.5892 4.12208 14.6683C4.25413 14.7474 4.34948 14.8756 4.38729 15.0248L4.46009 15.316H3.60691C3.52969 15.316 3.45562 15.3467 3.40101 15.4013C3.34641 15.4559 3.31573 15.53 3.31573 15.6072V23.178C3.31573 23.2553 3.34641 23.3293 3.40101 23.3839C3.45562 23.4385 3.52969 23.4692 3.60691 23.4692H5.00461C5.0787 24.1077 5.38483 24.6966 5.86479 25.1241C6.34475 25.5516 6.96508 25.7878 7.60781 25.7878C8.25054 25.7878 8.87086 25.5516 9.35082 25.1241C9.83079 24.6966 10.1369 24.1077 10.211 23.4692H16.9432C17.0173 24.1077 17.3235 24.6966 17.8034 25.1241C18.2834 25.5516 18.9037 25.7878 19.5464 25.7878C20.1892 25.7878 20.8095 25.5516 21.2894 25.1241C21.7694 24.6966 22.0755 24.1077 22.1496 23.4692H23.9899C24.0672 23.4692 24.1412 23.4385 24.1958 23.3839C24.2504 23.3293 24.2811 23.2553 24.2811 23.178V15.6072C24.2811 15.53 24.2504 15.4559 24.1958 15.4013C24.1412 15.3467 24.0672 15.316 23.9899 15.316H21.1683L22.1555 13.4058L23.4745 14.39C23.6424 14.5251 23.8358 14.6248 24.0431 14.6834C24.2504 14.7419 24.4674 14.7581 24.6811 14.7308C24.8948 14.7035 25.1008 14.6334 25.2868 14.5247C25.4727 14.4159 25.6348 14.2708 25.7634 14.0979C25.892 13.9251 25.9843 13.7281 26.035 13.5187C26.0856 13.3093 26.0935 13.0918 26.0582 12.8793C26.0228 12.6668 25.9449 12.4636 25.8292 12.2819C25.7135 12.1002 25.5623 11.9437 25.3847 11.8218ZM18.6263 5.81461L18.6671 5.73308C18.6957 5.67509 18.7366 5.62399 18.7868 5.58328C18.8371 5.54256 18.8956 5.51321 18.9582 5.49722C19.2176 5.4418 19.4821 5.41447 19.7474 5.41569C20.5436 5.42685 21.3259 5.62642 22.0302 5.99806C22.9522 6.45358 23.702 7.19519 24.1676 8.11207C24.1965 8.17252 24.2115 8.23869 24.2115 8.30571C24.2115 8.37273 24.1965 8.4389 24.1676 8.49935L24.0977 8.63912C23.4163 9.95528 21.6342 10.3862 20.1288 9.61459C18.6234 8.84294 17.9449 7.13368 18.6263 5.81461ZM23.3668 2.53003C23.5003 2.49002 23.642 2.48582 23.7777 2.51785C23.9133 2.54988 24.0382 2.61701 24.1397 2.71252C24.2412 2.80803 24.3158 2.92855 24.3561 3.062C24.3963 3.19544 24.4008 3.33713 24.369 3.47284C24.3372 3.60855 24.2703 3.73351 24.1749 3.8352C24.0796 3.93689 23.9592 4.01172 23.8258 4.0522C23.6924 4.09267 23.5508 4.09737 23.415 4.06581C23.2792 4.03425 23.1542 3.96755 23.0523 3.8724L22.0477 2.92896L23.3668 2.53003ZM18.9437 2.21264C18.9746 2.07597 19.0413 1.94998 19.137 1.84763C19.2327 1.74528 19.3539 1.67026 19.4882 1.63027C19.5637 1.60733 19.6422 1.59555 19.7211 1.59533C19.9226 1.5951 20.1165 1.67224 20.2627 1.81081L21.2673 2.75425L19.9483 3.15317C19.8148 3.19355 19.6731 3.19812 19.5373 3.16643C19.4016 3.13473 19.2765 3.06789 19.1747 2.97261C19.073 2.87732 18.998 2.75694 18.9575 2.62355C18.9169 2.49016 18.9122 2.34845 18.9437 2.21264ZM17.5256 6.12618C17.3567 5.90197 17.2927 5.70105 17.3538 5.58458L17.38 5.53216C17.7873 4.73163 18.4363 4.07962 19.2349 3.66857C19.3873 3.72728 19.5491 3.75786 19.7124 3.75884C19.8496 3.75843 19.986 3.73783 20.1172 3.69769L21.5556 3.26382L22.6505 4.29171C22.9035 4.53214 23.239 4.66656 23.5881 4.66734C23.8394 4.6671 24.086 4.59867 24.3015 4.46933C24.9706 5.11712 25.4124 5.96386 25.5609 6.88325C25.7094 7.80264 25.5567 8.7454 25.1256 9.57091V9.59712C25.0003 9.8388 24.3568 9.90577 23.8909 9.80968C24.1865 9.55972 24.4299 9.25397 24.6072 8.90992L24.683 8.76141C24.7494 8.6228 24.7838 8.47105 24.7838 8.31735C24.7838 8.16366 24.7494 8.01191 24.683 7.8733C24.1393 6.83619 23.2852 5.99491 22.24 5.46708C21.1948 4.93924 20.0107 4.75126 18.8534 4.92941C18.7063 4.96325 18.5685 5.02906 18.4498 5.12216C18.331 5.21526 18.2342 5.33337 18.1662 5.4681L18.1254 5.54672C17.9817 5.82537 17.8834 6.12518 17.8343 6.43484C17.721 6.34291 17.6175 6.23947 17.5256 6.12618ZM19.8551 10.1358C20.4178 10.43 21.0429 10.5848 21.6779 10.5871C21.9833 10.5872 22.2875 10.549 22.5835 10.4736L22.93 10.7298C22.4546 11.1988 21.8412 11.5027 21.18 11.5966C20.5189 11.6905 19.845 11.5695 19.2579 11.2515C18.6707 10.9334 18.2012 10.4351 17.9187 9.83006C17.6362 9.22498 17.5555 8.54515 17.6887 7.89077C17.6899 7.87526 17.6899 7.85968 17.6887 7.84418L17.942 7.91989C18.2624 8.88197 18.9501 9.67844 19.8551 10.1358ZM13.8159 7.74517C13.904 7.4832 14.0896 7.26525 14.3342 7.1366C14.4541 7.07191 14.5859 7.03234 14.7216 7.02033C14.8572 7.00831 14.9939 7.02409 15.1233 7.06671L15.2456 7.10457L14.5934 9.09337L14.4594 9.04678C14.2017 8.95925 13.9892 8.77305 13.8685 8.52904C13.7479 8.28503 13.729 8.00312 13.8159 7.74517ZM17.5693 15.316H12.0076C12.1408 14.8106 12.3815 14.34 12.7134 13.9363C13.0453 13.5326 13.4604 13.2053 13.9305 12.9769C14.4006 12.7485 14.9144 12.6244 15.4369 12.6129C15.9594 12.6015 16.4782 12.7031 16.9578 12.9108C17.3688 13.5111 17.589 14.2216 17.5897 14.9491C17.5838 15.0743 17.5838 15.1966 17.5693 15.316ZM15.531 12.0023C14.5654 11.9996 13.6278 12.3265 12.8732 12.9291C12.1187 13.5316 11.5925 14.3737 11.3816 15.316H10.342C10.342 15.1966 10.3187 15.0743 10.3187 14.9549C10.3144 14.2772 10.4999 13.6117 10.8544 13.034C11.2089 12.4563 11.7181 11.9895 12.3243 11.6864C12.9305 11.3832 13.6095 11.256 14.2844 11.319C14.9592 11.3821 15.6029 11.6329 16.1425 12.0431C15.937 12.0144 15.7297 12.0008 15.5222 12.0023H15.531ZM8.57746 5.08956C8.73758 5.04985 8.90631 5.06375 9.05779 5.12912C9.20926 5.19449 9.33512 5.30772 9.41608 5.45146C9.49704 5.59521 9.52863 5.76153 9.50601 5.92495C9.4834 6.08837 9.40782 6.23986 9.29086 6.35622C9.07608 6.15282 8.83401 5.98034 8.57163 5.84373C8.39863 5.7549 8.21843 5.68087 8.03294 5.62243C8.06823 5.49327 8.13727 5.37583 8.23296 5.28218C8.32866 5.18853 8.44756 5.12205 8.57746 5.08956ZM2.94301 7.27345C2.90678 7.11323 2.92385 6.94556 2.99163 6.79593C3.05941 6.64629 3.1742 6.52288 3.31853 6.44445C3.46287 6.36602 3.62887 6.33686 3.79129 6.36141C3.95372 6.38595 4.10369 6.46286 4.2184 6.58043C3.86899 6.92997 3.6032 7.35404 3.44094 7.82088C3.31839 7.78013 3.2083 7.7087 3.12115 7.61339C3.03399 7.51808 2.97267 7.40206 2.94301 7.27636V7.27345ZM3.93013 9.28264C3.82983 8.82791 3.85846 8.35421 4.0128 7.91488C4.16713 7.47554 4.44104 7.08801 4.80369 6.79591C5.18298 6.47462 5.63145 6.2454 6.11402 6.12618C6.84508 5.93501 7.62082 6.01787 8.29501 6.35913C8.59883 6.50925 8.86683 6.72293 9.08085 6.98568C9.29487 7.24843 9.44991 7.55412 9.53546 7.88203C9.87324 9.23605 8.88903 10.6512 7.33992 11.0385C5.79081 11.4258 4.26791 10.6367 3.93013 9.28555V9.28264ZM4.95219 14.8792C4.87589 14.5826 4.68581 14.328 4.42312 14.1705C4.16043 14.0129 3.84628 13.9653 3.54868 14.0377L2.83527 14.2153C2.57425 14.2776 2.29918 14.2345 2.06978 14.0952C1.84037 13.956 1.67515 13.7319 1.60998 13.4716C1.5448 13.2112 1.58493 12.9357 1.72165 12.7048C1.85838 12.4739 2.08066 12.3062 2.34025 12.2382L5.30453 11.4986C5.70566 11.6453 6.1295 11.7202 6.55663 11.7199C6.87081 11.7192 7.18374 11.6801 7.48842 11.6034C8.2186 11.4244 8.87746 11.0285 9.37822 10.4678C9.39951 10.4701 9.42099 10.4701 9.44228 10.4678L12.226 9.77183C12.4882 9.70669 12.7655 9.74831 12.997 9.88754C13.2285 10.0268 13.3953 10.2522 13.4606 10.5144C13.4786 10.5878 13.4884 10.663 13.4898 10.7386C12.454 10.8571 11.4979 11.3521 10.8032 12.1295C10.1085 12.9069 9.72363 13.9124 9.72182 14.9549C9.72182 15.0743 9.72182 15.1966 9.73929 15.316H5.06284L4.95219 14.8792ZM7.60781 25.2163C7.20467 25.2163 6.81059 25.0968 6.47539 24.8728C6.14019 24.6488 5.87894 24.3305 5.72466 23.9581C5.57039 23.5856 5.53002 23.1758 5.60867 22.7804C5.68732 22.385 5.88145 22.0218 6.16651 21.7367C6.45157 21.4517 6.81476 21.2575 7.21016 21.1789C7.60555 21.1002 8.01538 21.1406 8.38783 21.2949C8.76028 21.4492 9.07862 21.7104 9.30259 22.0456C9.52657 22.3808 9.64611 22.7749 9.64611 23.178C9.64611 23.7186 9.43136 24.2371 9.04911 24.6193C8.66685 25.0016 8.1484 25.2163 7.60781 25.2163ZM19.5464 25.2163C19.1433 25.2163 18.7492 25.0968 18.414 24.8728C18.0788 24.6488 17.8176 24.3305 17.6633 23.9581C17.509 23.5856 17.4686 23.1758 17.5473 22.7804C17.6259 22.385 17.8201 22.0218 18.1051 21.7367C18.3902 21.4517 18.7534 21.2575 19.1488 21.1789C19.5442 21.1002 19.954 21.1406 20.3265 21.2949C20.6989 21.4492 21.0172 21.7104 21.2412 22.0456C21.4652 22.3808 21.5847 22.7749 21.5847 23.178C21.5847 23.7186 21.37 24.2371 20.9877 24.6193C20.6055 25.0016 20.087 25.2163 19.5464 25.2163ZM22.1496 22.8868C22.0755 22.2484 21.7694 21.6594 21.2894 21.232C20.8095 20.8045 20.1892 20.5683 19.5464 20.5683C18.9037 20.5683 18.2834 20.8045 17.8034 21.232C17.3235 21.6594 17.0173 22.2484 16.9432 22.8868H10.211C10.1369 22.2484 9.83079 21.6594 9.35082 21.232C8.87086 20.8045 8.25054 20.5683 7.60781 20.5683C6.96508 20.5683 6.34475 20.8045 5.86479 21.232C5.38483 21.6594 5.0787 22.2484 5.00461 22.8868H3.8981V18.9558C4.09637 19.1151 4.25988 19.3133 4.37856 19.5382C4.64354 19.9633 4.96093 20.4904 5.64522 20.4904C6.3295 20.4904 6.64689 19.9633 6.91187 19.5382C7.17685 19.1131 7.35156 18.8685 7.68352 18.8685C8.01547 18.8685 8.19309 19.1276 8.45516 19.5469C8.71723 19.9662 9.03753 20.4991 9.72182 20.4991C10.4061 20.4991 10.7235 19.9721 10.9885 19.5469C11.2535 19.1218 11.4253 18.8685 11.7601 18.8685C12.095 18.8685 12.2697 19.1276 12.5318 19.5469C12.7938 19.9662 13.1141 20.4991 13.7984 20.4991C14.4827 20.4991 14.8001 19.9721 15.0651 19.5469C15.3301 19.1218 15.5019 18.8685 15.8367 18.8685C16.1716 18.8685 16.3463 19.1247 16.6084 19.5469C16.8704 19.9692 17.1907 20.4991 17.875 20.4991C18.5593 20.4991 18.8767 19.9721 19.1417 19.5469C19.4067 19.1218 19.5785 18.8685 19.9133 18.8685C20.2482 18.8685 20.4229 19.1276 20.6879 19.5469C20.9529 19.9662 21.2703 20.4991 21.9545 20.4991C22.6388 20.4991 22.9562 19.9721 23.2212 19.5469C23.3406 19.3217 23.5051 19.1234 23.7046 18.9646V22.8868H22.1496ZM23.6987 18.3269C23.2183 18.455 22.9475 18.8801 22.7233 19.2383C22.4612 19.6576 22.2807 19.9167 21.9487 19.9167C21.6168 19.9167 21.4391 19.6576 21.1742 19.2383C20.9092 18.819 20.5918 18.2861 19.9075 18.2861C19.2232 18.2861 18.9087 18.8102 18.6438 19.2383C18.3788 19.6663 18.2012 19.9167 17.875 19.9167C17.5489 19.9167 17.3654 19.6605 17.1034 19.2383C16.8413 18.8161 16.521 18.2861 15.8367 18.2861C15.1524 18.2861 14.8321 18.8102 14.5672 19.2383C14.3022 19.6663 14.1275 19.9167 13.7984 19.9167C13.4694 19.9167 13.2888 19.6576 13.0268 19.2383C12.7647 18.819 12.4444 18.2861 11.7601 18.2861C11.0758 18.2861 10.7555 18.8102 10.4905 19.2383C10.2256 19.6663 10.0509 19.9167 9.72182 19.9167C9.39278 19.9167 9.21224 19.6576 8.95018 19.2383C8.68811 18.819 8.35324 18.2861 7.68352 18.2861C7.01379 18.2861 6.68184 18.8102 6.41686 19.2383C6.15188 19.6663 5.97717 19.9167 5.64522 19.9167C5.31326 19.9167 5.13564 19.6576 4.87357 19.2383C4.64936 18.8801 4.37856 18.455 3.8981 18.3269V15.8984H23.6987V18.3269ZM18.1808 15.316C18.1808 15.1966 18.1982 15.0743 18.1982 14.9549C18.1986 14.0734 17.9226 13.2139 17.4091 12.4973C17.3983 12.4795 17.3856 12.4629 17.3713 12.4478C16.96 11.8881 16.4182 11.4373 15.793 11.1346L16.355 10.0485C16.3745 10.0111 16.3856 9.97001 16.3876 9.92796C16.3896 9.88592 16.3825 9.84394 16.3667 9.80491C16.3509 9.76588 16.3269 9.73074 16.2962 9.70191C16.2655 9.67307 16.229 9.65123 16.1891 9.63788L15.1466 9.28846L15.8047 7.27928L17.1587 7.68403C17.143 7.70926 17.1312 7.73675 17.1238 7.76556C16.9596 8.55097 17.0556 9.36847 17.3972 10.0945C17.7388 10.8206 18.3074 11.4157 19.0172 11.79C19.7269 12.1642 20.5392 12.2973 21.3313 12.1691C22.1233 12.0409 22.8521 11.6583 23.4076 11.0793L24.4587 11.8567L23.2445 13.4903L22.2428 12.7536H22.2166C22.2049 12.7418 22.1923 12.7311 22.1788 12.7215C22.1447 12.7039 22.1076 12.6931 22.0694 12.6898C22.0312 12.6866 21.9927 12.6909 21.9562 12.7025C21.9197 12.7142 21.8858 12.7329 21.8565 12.7576C21.8273 12.7824 21.8032 12.8127 21.7857 12.8468L20.5132 15.316H18.1808ZM25.2479 13.7145C25.0861 13.931 24.8451 14.0746 24.5777 14.1139C24.3103 14.1532 24.0383 14.0849 23.821 13.9241L23.7046 13.8368L24.9217 12.2003L25.0382 12.2877C25.1457 12.3675 25.2364 12.4678 25.3052 12.5828C25.3739 12.6977 25.4193 12.8251 25.4388 12.9576C25.4582 13.0901 25.4514 13.2252 25.4186 13.3551C25.3859 13.4849 25.3278 13.6071 25.2479 13.7145Z" fill="#83529B" stroke="#83529B" stroke-width="0.3"/>
</svg>
