<svg  viewBox="0 0 34 40" fill="none" xmlns="http://www.w3.org/2000/svg">
<path d="M20.0527 38.61C19.9565 38.61 19.8602 38.61 19.788 38.5859C18.5366 38.2971 17.959 36.1311 18.0552 32.1602C18.1274 28.4539 18.8013 23.6888 19.9565 18.707C22.0503 9.53772 25.7565 0.127729 28.476 0.753457C29.7275 1.04225 30.3051 3.20824 30.2088 7.1792C30.1366 10.8854 29.4627 15.6506 28.3075 20.6324C27.1764 25.6141 25.6843 30.2108 24.144 33.5801C22.6038 36.9013 21.232 38.61 20.0527 38.61ZM28.1872 1.42731C27.5374 1.42731 26.31 2.63064 24.7457 6.04808C23.2295 9.36925 21.7615 13.9178 20.6303 18.8514C19.4992 23.7851 18.8254 28.5261 18.7532 32.1602C18.6569 36.1311 19.3067 37.7195 19.9324 37.8639C20.5581 38.0083 21.8337 36.8772 23.4702 33.2432C24.9864 29.922 26.4544 25.3734 27.5856 20.4398C28.7167 15.5062 29.3905 10.7651 29.4627 7.13107C29.559 3.1601 28.9092 1.57171 28.2835 1.42731C28.2594 1.42731 28.2113 1.42731 28.1872 1.42731Z" fill="#83529B" stroke="#83529B"/>
<path d="M28.0187 38.5859H10.715C7.92326 38.5859 5.56475 36.5884 5.08342 33.8448L0.919922 10.0431H33.0005L28.0187 38.5859ZM1.78632 10.7651L5.80542 33.7245C6.21455 36.1311 8.30833 37.8639 10.739 37.8639H27.4412L32.1822 10.7651H1.78632Z" fill="#83529B" stroke="#83529B"/>
<path d="M29.126 29.6332H4.72266V30.3552H29.126V29.6332Z" fill="#83529B" stroke="#83529B"/>
<path d="M14.4935 38.0806L13.7715 37.9602L19.4752 6.38504C19.4512 3.71367 17.2852 1.54768 14.5897 1.54768V0.825684C17.6703 0.825684 20.1972 3.32861 20.1972 6.43318H20.0047L20.1972 6.45724V6.4813L14.4935 38.0806Z" fill="#83529B" stroke="#83529B"/>
<path d="M16.2494 25.951C16.2494 28.2855 14.3722 30.1626 12.0378 30.1626C9.70335 30.1626 7.82617 28.2855 7.82617 25.951C7.82617 23.6166 9.70335 21.7394 12.0378 21.7394C14.3722 21.7394 16.2494 23.6166 16.2494 25.951Z" fill="white" stroke="#83529B" stroke-width="1.5"/>
<path d="M20.0527 38.61C19.9565 38.61 19.8602 38.61 19.788 38.5859C18.5366 38.2971 17.959 36.1311 18.0552 32.1602C18.1274 28.4539 18.8013 23.6888 19.9565 18.707C22.0503 9.53772 25.7565 0.127729 28.476 0.753457C29.7275 1.04225 30.3051 3.20824 30.2088 7.1792C30.1366 10.8854 29.4627 15.6506 28.3075 20.6324C27.1764 25.6141 25.6843 30.2108 24.144 33.5801C22.6038 36.9013 21.232 38.61 20.0527 38.61ZM28.1872 1.42731C27.5374 1.42731 26.31 2.63064 24.7457 6.04808C23.2295 9.36925 21.7615 13.9178 20.6303 18.8514C19.4992 23.7851 18.8254 28.5261 18.7532 32.1602C18.6569 36.1311 19.3067 37.7195 19.9324 37.8639C20.5581 38.0083 21.8337 36.8772 23.4702 33.2432C24.9864 29.922 26.4544 25.3734 27.5856 20.4398C28.7167 15.5062 29.3905 10.7651 29.4627 7.13107C29.559 3.1601 28.9092 1.57171 28.2835 1.42731C28.2594 1.42731 28.2113 1.42731 28.1872 1.42731Z" fill="#83529B" stroke="#83529B"/>
<path d="M28.0187 38.5859H10.715C7.92326 38.5859 5.56475 36.5884 5.08342 33.8448L0.919922 10.0431H33.0005L28.0187 38.5859ZM1.78632 10.7651L5.80542 33.7245C6.21455 36.1311 8.30833 37.8639 10.739 37.8639H27.4412L32.1822 10.7651H1.78632Z" fill="#83529B" stroke="#83529B"/>
<path d="M29.126 29.6332H4.72266V30.3552H29.126V29.6332Z" fill="#83529B" stroke="#83529B"/>
<path d="M14.4935 38.0806L13.7715 37.9602L19.4752 6.38504C19.4512 3.71367 17.2852 1.54768 14.5897 1.54768V0.825684C17.6703 0.825684 20.1972 3.32861 20.1972 6.43318H20.0047L20.1972 6.45724V6.4813L14.4935 38.0806Z" fill="#83529B" stroke="#83529B"/>
</svg>
