<svg viewBox="0 0 50 63" fill="none" xmlns="http://www.w3.org/2000/svg">
<path d="M49.3828 38.7278L48.0853 38.981C47.579 50.9852 37.9693 60.6055 25.9651 61.1013L25.7119 62.3987C25.6275 62.7996 25.2478 63.0633 24.8469 62.9789C24.5516 62.9156 24.3301 62.6941 24.2668 62.3987L24.0136 61.1013C12.0094 60.5949 2.38916 50.9852 1.89338 38.981L0.59591 38.7278C0.195066 38.6434 -0.0686467 38.2637 0.0157414 37.8629C0.0790325 37.5675 0.300551 37.346 0.59591 37.2827L1.89338 37.0295C2.39971 25.0253 12.0094 15.4051 24.0136 14.9093L24.2668 13.6118C24.3512 13.211 24.7309 12.9472 25.1318 13.0316C25.4271 13.0949 25.6486 13.3164 25.7119 13.6118L25.9651 14.9093C37.9693 15.4156 47.5895 25.0253 48.0853 37.0295L49.3828 37.2827C49.7836 37.3671 50.0473 37.7468 49.963 38.1477C49.8997 38.443 49.6676 38.6645 49.3828 38.7278ZM46.5874 39.2764L44.2246 39.751C44.1296 40.8481 43.9398 41.924 43.6549 42.9894C42.8533 45.9747 41.3448 48.7278 39.2562 51.0169L39.7625 51.7658C39.9841 52.1034 39.8997 52.5675 39.5621 52.789C39.309 52.9578 38.9925 52.9578 38.7393 52.789L37.9904 52.2827C35.7119 54.3713 32.9587 55.8797 29.9735 56.6814C28.9081 56.9662 27.8322 57.1561 26.7351 57.251L26.2604 59.6139C37.2309 59.0232 45.9967 50.2574 46.5874 39.2764ZM20.3216 33.3481L20.7225 31.3439L13.4862 26.5021L18.328 33.7384L20.3216 33.3481ZM11.5347 26.2595C9.15075 28.981 7.65287 32.3565 7.23093 35.9536L16.7457 34.0654L11.5347 26.2595ZM21.0284 29.7827L22.9166 20.2679C19.3195 20.6793 15.944 22.1772 13.2225 24.5717L21.0284 29.7827ZM31.6296 33.7489L36.4714 26.5126L29.2351 31.3544L29.636 33.3586L31.6296 33.7489ZM28.9187 29.7827L36.7246 24.5612C34.0031 22.1772 30.6275 20.6793 27.0305 20.2574L28.9187 29.7827ZM33.1908 34.0548L42.7056 35.943C42.2942 32.346 40.7963 28.9705 38.4018 26.2489L33.1908 34.0548ZM31.8406 35.2996C31.8301 35.2996 31.809 35.2996 31.7984 35.289L28.8448 34.6983C28.5495 34.635 28.328 34.4135 28.2647 34.1181L27.6739 31.1645C27.6739 31.154 27.6634 31.1329 27.6634 31.1224L25.3638 19.5717C25.3638 19.5612 25.3533 19.5506 25.3533 19.5401L24.9524 17.5359L24.5516 19.5401C24.5516 19.5506 24.5516 19.5612 24.541 19.5717L22.2415 31.1224C22.2415 31.1329 22.2309 31.154 22.2309 31.1645L21.6402 34.1181C21.5769 34.4135 21.3554 34.635 21.06 34.6983L18.1064 35.289C18.0959 35.289 18.0748 35.2996 18.0642 35.2996L4.49886 38L6.53472 38.4008C6.55582 38.4008 6.56637 38.4114 6.58747 38.4114L21.1022 41.2911C21.3976 41.3544 21.6191 41.5759 21.6824 41.8713L22.2731 44.8249C22.2731 44.8354 22.2837 44.8565 22.2837 44.8671L24.5832 56.4177C24.5832 56.4283 24.5938 56.4388 24.5938 56.4494L24.9946 58.4536L25.3955 56.4494C25.3955 56.4388 25.3955 56.4283 25.406 56.4072L27.7056 44.8565C27.7056 44.846 27.7161 44.8249 27.7161 44.8143L28.3069 41.8607C28.3701 41.5654 28.5917 41.3439 28.887 41.2806L43.4018 38.4008C43.4229 38.4008 43.4334 38.3903 43.4545 38.3903L45.4904 37.9894L31.8406 35.2996ZM29.6254 42.6519L29.2246 44.6561L36.4609 49.4979L31.6191 42.2616L29.6254 42.6519ZM38.4123 49.7405C40.2161 47.6835 41.5241 45.2468 42.2309 42.5991C42.4524 41.7658 42.6106 40.9114 42.7161 40.0464L33.2014 41.9346L38.4123 49.7405ZM28.9187 46.2173L27.0305 55.7321C27.8955 55.6371 28.7499 55.4789 29.5832 55.2468C32.2204 54.5401 34.6676 53.2321 36.7246 51.4283L28.9187 46.2173ZM18.3174 42.251L13.4756 49.4873L20.7119 44.6456L20.3111 42.6413L18.3174 42.251ZM21.0284 46.2173L13.2225 51.4388C15.944 53.8228 19.3195 55.3207 22.9166 55.7426L21.0284 46.2173ZM16.7562 41.9451L7.24147 40.0569C7.65287 43.654 9.15075 47.0295 11.5453 49.751L16.7562 41.9451ZM23.6972 59.6139L23.2225 57.251C19.0242 56.8713 15.0685 55.1308 11.9567 52.2827L11.2077 52.7785C10.8702 53 10.406 52.9156 10.1845 52.578C10.0157 52.3249 10.0157 52.0084 10.1845 51.7553L10.6803 51.0063C7.83219 47.8945 6.09169 43.9388 5.71194 39.7405L3.34907 39.2658C3.95034 50.2574 12.7162 59.0232 23.6972 59.6139ZM3.35962 36.7236L5.72249 36.2489C6.10223 32.0506 7.84274 28.0949 10.6908 24.9831L10.1951 24.2342C9.96299 23.8966 10.0579 23.4325 10.3955 23.211C10.6486 23.0422 10.9651 23.0422 11.2183 23.211L11.9672 23.7067C15.079 20.8586 19.0347 19.1181 23.233 18.7384L23.7077 16.3755C12.7162 16.9768 3.95034 25.7426 3.35962 36.7236ZM26.2499 16.3861L26.7246 18.7489C30.9229 19.1287 34.8786 20.8692 37.9904 23.7173L38.7393 23.2215C39.0769 23 39.541 23.0844 39.7625 23.4219C39.9313 23.6751 39.9313 23.9916 39.7625 24.2447L39.2668 24.9937C42.1149 28.1055 43.8554 32.0612 44.2351 36.2595L46.598 36.7342C45.9967 25.7426 37.2309 16.9768 26.2499 16.3861Z" fill="white"/>
<path d="M25.3193 43.7279C25.3932 43.3798 25.6885 43.1371 26.0472 43.1371C26.0999 43.1371 26.1421 43.1371 26.1948 43.1477C26.5957 43.2321 26.8594 43.6118 26.775 44.0127L26.332 46.2595C26.2476 46.6603 25.8678 46.9241 25.467 46.8397C25.0662 46.7553 24.8024 46.3755 24.8868 45.9747L25.3193 43.7279Z" fill="white"/>
<path d="M24.9732 41.27C23.1694 41.27 21.7031 39.8037 21.7031 37.9999C21.7031 36.1961 23.1694 34.7299 24.9732 34.7299C26.777 34.7299 28.2432 36.1961 28.2432 37.9999C28.2432 39.8037 26.777 41.27 24.9732 41.27ZM24.9732 36.2067C23.9816 36.2067 23.1799 37.0084 23.1799 37.9999C23.1799 38.9915 23.9816 39.7932 24.9732 39.7932C25.9647 39.7932 26.7664 38.9915 26.7664 37.9999C26.7664 37.0084 25.9647 36.2067 24.9732 36.2067Z" fill="white"/>
<path d="M17.5012 0.375999V9H19.1812V1.804H22.6392V9H24.3332V0.375999H17.5012ZM31.7447 0.375999V3.806H28.2867V0.375999H26.6067V9H28.2867V5.234H31.7447V9H33.4387V0.375999H31.7447Z" fill="white"/>
</svg>
