<svg viewBox="0 0 46 46" fill="none" xmlns="http://www.w3.org/2000/svg">
<path d="M1.55 40.0602H4.36445V44.45C4.36445 44.7537 4.61045 45 4.91445 45H9.1082C9.41221 45 9.6582 44.7537 9.6582 44.45V40.0602H36.4288V44.45C36.4288 44.7537 36.6748 45 36.9788 45H41.1726C41.4766 45 41.7226 44.7537 41.7226 44.45V40.0602H44.45C44.754 40.0602 45 39.8139 45 39.5102V34.6569C45 34.3531 44.754 34.1069 44.45 34.1069H43.5611V6.23064C43.5611 5.9269 43.3151 5.68064 43.0111 5.68064H35.5318V1.55C35.5318 1.24626 35.2858 1 34.9818 1H24.2536C23.9496 1 23.7036 1.24626 23.7036 1.55V34.1069H16.8076C17.0793 33.7215 17.2422 33.2543 17.2422 32.748V29.2119H17.3013C19.4701 29.2119 21.2351 27.4486 21.2351 25.2814C21.2351 23.1141 19.4701 21.3511 17.3013 21.3511H17.2422V18.8696C17.2422 18.5659 16.9962 18.3196 16.6922 18.3196H3.30796C3.00396 18.3196 2.75796 18.5659 2.75796 18.8696V32.748C2.75796 33.2543 2.9208 33.7215 3.19258 34.1069H1.55C1.246 34.1069 1 34.3531 1 34.6569V39.5102C1 39.8139 1.246 40.0602 1.55 40.0602ZM17.3013 22.4511C18.8637 22.4511 20.1351 23.7208 20.1351 25.2814C20.1351 26.8422 18.8637 28.1119 17.3013 28.1119H17.2422V22.4511H17.3013ZM3.85796 19.4196H16.1422V32.748C16.1422 33.447 15.5734 34.0156 14.8746 34.0156H5.12554C4.42676 34.0156 3.85796 33.447 3.85796 32.748V19.4196ZM8.5582 43.9H5.46445V40.0602H8.5582V43.9ZM40.6226 43.9H37.5288V40.0602H40.6226V43.9ZM42.4611 6.78064V34.1069H35.5318V6.78064H42.4611ZM24.8036 2.1H34.4318V34.1069H24.8036V2.1ZM2.1 35.2069H43.9V38.9602H2.1V35.2069Z" fill="#83529B" stroke="#83529B" stroke-width="0.5"/>
<path d="M31.6594 4.77667H27.5773C27.2733 4.77667 27.0273 5.02294 27.0273 5.32667V22.3568C27.0273 22.6605 27.2733 22.9068 27.5773 22.9068H31.6594C31.9634 22.9068 32.2094 22.6605 32.2094 22.3568V5.32667C32.2094 5.02294 31.9634 4.77667 31.6594 4.77667ZM31.1094 21.8068H28.1273V5.87667H31.1094V21.8068Z" fill="#83529B" stroke="#83529B" stroke-width="0.5"/>
<path d="M40.1675 29.4827H38.0266C37.7226 29.4827 37.4766 29.7289 37.4766 30.0327C37.4766 30.3364 37.7226 30.5827 38.0266 30.5827H40.1675C40.4715 30.5827 40.7175 30.3364 40.7175 30.0327C40.7175 29.7289 40.4715 29.4827 40.1675 29.4827Z" fill="#83529B" stroke="#83529B" stroke-width="0.5"/>
<path d="M38.0266 27.675H40.1675C40.4715 27.675 40.7175 27.4287 40.7175 27.125C40.7175 26.8213 40.4715 26.575 40.1675 26.575H38.0266C37.7226 26.575 37.4766 26.8213 37.4766 27.125C37.4766 27.4287 37.7226 27.675 38.0266 27.675Z" fill="#83529B" stroke="#83529B" stroke-width="0.5"/>
<path d="M6.23311 8.11215H8.29775C9.54009 8.11215 10.5504 7.10184 10.5504 5.85978V4.62147C10.5504 4.31774 10.3044 4.07147 10.0004 4.07147C9.69639 4.07147 9.45039 4.31774 9.45039 4.62147V5.85978C9.45039 6.49518 8.93315 7.01215 8.29775 7.01215H6.23311C4.99077 7.01215 3.98047 8.02272 3.98047 9.26478C3.98047 10.5068 4.99077 11.5172 6.23311 11.5172H13.2751C13.9105 11.5172 14.4278 12.0341 14.4278 12.6698V12.8245C14.4278 13.4601 13.9105 13.9771 13.2751 13.9771H11.703C10.4607 13.9771 9.45039 14.9874 9.45039 16.2295V16.3458C9.45039 16.6495 9.69639 16.8958 10.0004 16.8958C10.3044 16.8958 10.5504 16.6495 10.5504 16.3458V16.2295C10.5504 15.5941 11.0676 15.0771 11.703 15.0771H13.2751C14.5175 15.0771 15.5278 14.0665 15.5278 12.8245V12.6698C15.5278 11.4277 14.5175 10.4172 13.2751 10.4172H6.23311C5.59771 10.4172 5.08047 9.90018 5.08047 9.26478C5.08047 8.62911 5.59771 8.11215 6.23311 8.11215Z" fill="#83529B" stroke="#83529B" stroke-width="0.5"/>
</svg>
