<svg viewBox="0 0 51 27" fill="none" xmlns="http://www.w3.org/2000/svg">
<path d="M49.3301 9.50564H46.8418V6.12218C46.8411 5.54909 46.609 4.99967 46.1963 4.59443C45.7837 4.18919 45.2242 3.96122 44.6406 3.96053H41.5781C41.2821 3.96024 40.9891 4.01895 40.7168 4.13308V3.16165C40.7161 2.58856 40.484 2.03914 40.0713 1.6339C39.6587 1.22866 39.0992 1.0007 38.5156 1H34.6875C34.1039 1.0007 33.5445 1.22866 33.1318 1.6339C32.7192 2.03914 32.487 2.58856 32.4863 3.16165V9.50564H18.5125V3.16165C18.5118 2.58876 18.2798 2.03951 17.8674 1.6343C17.455 1.2291 16.8959 1.00099 16.3125 1H12.4844C11.9008 1.0007 11.3413 1.22866 10.9287 1.6339C10.516 2.03914 10.2839 2.58856 10.2832 3.16165V4.13308C10.0109 4.01895 9.71791 3.96024 9.42188 3.96053H6.35938C5.77581 3.96122 5.21634 4.18919 4.80369 4.59443C4.39105 4.99967 4.15891 5.54909 4.1582 6.12218V9.50564H1.66992C1.49225 9.50564 1.32185 9.57495 1.19622 9.69833C1.07058 9.82171 1 9.98905 1 10.1635V16.8365C1 17.011 1.07058 17.1783 1.19622 17.3017C1.32185 17.425 1.49225 17.4944 1.66992 17.4944H4.1582V20.8778C4.15891 21.4509 4.39105 22.0003 4.80369 22.4056C5.21634 22.8108 5.77581 23.0388 6.35938 23.0395H9.42188C9.71791 23.0398 10.0109 22.9811 10.2832 22.8669V23.8383C10.2839 24.4114 10.516 24.9609 10.9287 25.3661C11.3413 25.7713 11.9008 25.9993 12.4844 26H16.3125C16.8961 25.9993 17.4555 25.7713 17.8682 25.3661C18.2808 24.9609 18.513 24.4114 18.5137 23.8383V17.4944H32.4875V23.8383C32.4882 24.4112 32.7202 24.9605 33.1326 25.3657C33.545 25.7709 34.1041 25.999 34.6875 26H38.5156C39.0992 25.9993 39.6587 25.7713 40.0713 25.3661C40.484 24.9609 40.7161 24.4114 40.7168 23.8383V22.8669C40.9891 22.9811 41.2821 23.0398 41.5781 23.0395H44.6406C45.2242 23.0388 45.7837 22.8108 46.1963 22.4056C46.609 22.0003 46.8411 21.4509 46.8418 20.8778V17.4944H49.3301C49.5078 17.4944 49.6782 17.425 49.8038 17.3017C49.9294 17.1783 50 17.011 50 16.8365V10.1635C50 9.98905 49.9294 9.82171 49.8038 9.69833C49.6782 9.57495 49.5078 9.50564 49.3301 9.50564ZM2.33984 16.1786V10.8214H4.15744V16.1786H2.33984ZM9.42188 21.7237H6.35938C6.131 21.7235 5.91203 21.6343 5.75055 21.4757C5.58906 21.3171 5.49825 21.1021 5.49805 20.8778V6.12218C5.49825 5.8979 5.58906 5.68287 5.75055 5.52428C5.91203 5.3657 6.131 5.27652 6.35938 5.27632H9.42188C9.65025 5.27652 9.86922 5.3657 10.0307 5.52428C10.1922 5.68287 10.283 5.8979 10.2832 6.12218V20.8778C10.283 21.1021 10.1922 21.3171 10.0307 21.4757C9.86922 21.6343 9.65025 21.7235 9.42188 21.7237ZM17.1727 23.8383C17.1725 24.0624 17.0818 24.2773 16.9206 24.4358C16.7593 24.5944 16.5407 24.6837 16.3125 24.6842H12.4844C12.256 24.684 12.037 24.5948 11.8755 24.4362C11.7141 24.2777 11.6233 24.0626 11.623 23.8383V3.16165C11.6233 2.93738 11.7141 2.72234 11.8755 2.56376C12.037 2.40517 12.256 2.31599 12.4844 2.31579H16.3125C16.5409 2.31599 16.7598 2.40517 16.9213 2.56376C17.0828 2.72234 17.1736 2.93738 17.1738 3.16165L17.1727 23.8383ZM18.5125 16.1786V10.8214H32.4875V16.1786H18.5125ZM39.3781 23.8383C39.3779 24.0628 39.2869 24.278 39.1252 24.4366C38.9635 24.5953 38.7442 24.6843 38.5156 24.6842H34.6875C34.4591 24.684 34.2402 24.5948 34.0787 24.4362C33.9172 24.2777 33.8264 24.0626 33.8262 23.8383V3.16165C33.8264 2.93738 33.9172 2.72234 34.0787 2.56376C34.2402 2.40517 34.4591 2.31599 34.6875 2.31579H38.5156C38.744 2.31599 38.963 2.40517 39.1245 2.56376C39.2859 2.72234 39.3768 2.93738 39.377 3.16165L39.3781 23.8383ZM45.5031 20.8778C45.5029 21.1021 45.4121 21.3171 45.2506 21.4757C45.0891 21.6343 44.8701 21.7235 44.6418 21.7237H41.5793C41.3509 21.7235 41.1319 21.6343 40.9704 21.4757C40.809 21.3171 40.7181 21.1021 40.7179 20.8778V6.12218C40.7181 5.8979 40.809 5.68287 40.9704 5.52428C41.1319 5.3657 41.3509 5.27652 41.5793 5.27632H44.6418C44.8701 5.27652 45.0891 5.3657 45.2506 5.52428C45.4121 5.68287 45.5029 5.8979 45.5031 6.12218V20.8778ZM48.6605 16.1786H46.8429V10.8214H48.6602L48.6605 16.1786Z" fill="#83529B" stroke="#83529B" stroke-width="0.5"/>
</svg>
