<svg  viewBox="0 0 7 12" fill="none" xmlns="http://www.w3.org/2000/svg">
<path d="M6.24344 0.0024968L4.68732 0C2.93908 0 1.80929 1.15914 1.80929 2.95322V4.31485H0.244684C0.109484 4.31485 0 4.42446 0 4.55966V6.53251C0 6.66771 0.109609 6.77719 0.244684 6.77719H1.80929V11.7553C1.80929 11.8905 1.91877 12 2.05397 12H4.09534C4.23054 12 4.34002 11.8904 4.34002 11.7553V6.77719H6.16941C6.30461 6.77719 6.41409 6.66771 6.41409 6.53251L6.41484 4.55966C6.41484 4.49474 6.389 4.43257 6.34318 4.38663C6.29737 4.34069 6.23495 4.31485 6.17003 4.31485H4.34002V3.16058C4.34002 2.60579 4.47223 2.32415 5.19492 2.32415L6.24319 2.32377C6.37826 2.32377 6.48775 2.21416 6.48775 2.07909V0.247183C6.48775 0.112231 6.37839 0.00274648 6.24344 0.0024968Z" fill="white"/>
</svg>
