<svg viewBox="0 0 42 42" fill="none" xmlns="http://www.w3.org/2000/svg">
<path d="M40.186 11.0413C40.546 10.8856 40.8005 10.6329 40.923 10.3091C41.2725 9.38034 40.402 8.20182 38.893 7.53625C40.1085 6.87969 40.775 5.86131 40.4525 5.07213C40.332 4.77838 40.0925 4.55319 39.76 4.42108C39.226 4.20939 38.483 4.25143 37.7155 4.52366C38.281 2.92379 38.058 1.45803 37.17 1.08671C36.8705 0.961104 36.5335 0.972113 36.194 1.11874C35.5525 1.39548 34.92 2.17114 34.5125 3.16049C34.1215 2.38132 33.588 1.80483 33.039 1.58764C32.718 1.46053 32.4015 1.46053 32.1245 1.58664C31.258 1.98048 31.214 3.2806 31.609 4.48063C30.66 4.11982 29.728 4.06227 29.088 4.33951C28.734 4.49214 28.484 4.74135 28.3645 5.05912C28.0205 5.97341 28.8855 7.13791 30.383 7.80498C29.1745 8.46305 28.516 9.48493 28.841 10.2801C28.9635 10.5794 29.2065 10.8081 29.545 10.9422C29.776 11.0338 30.045 11.0788 30.338 11.0788C30.7195 11.0788 31.1415 11.0012 31.57 10.8516C31.016 12.441 31.241 13.8932 32.1235 14.263C32.261 14.3206 32.407 14.3496 32.5575 14.3496C32.734 14.3496 32.917 14.3101 33.1 14.231C33.4905 14.0624 33.8765 13.7061 34.2125 13.2331V17.0114C32.9125 15.8829 30.8005 16.2337 30.707 16.2507C30.4965 16.2878 30.333 16.4544 30.3 16.6656C30.284 16.7677 29.919 19.1843 31.1765 20.5104C31.9705 21.3476 33.174 21.5108 33.99 21.5108C34.0685 21.5108 34.142 21.5088 34.2125 21.5063V23.1056H21.5975V21.4967C21.718 21.5048 21.855 21.5108 22.008 21.5108C22.8245 21.5108 24.0285 21.3481 24.8225 20.5104C26.079 19.1848 25.715 16.7677 25.6995 16.6656C25.666 16.4544 25.502 16.2878 25.292 16.2507C25.193 16.2327 22.87 15.8439 21.598 17.1855L21.5975 17.186V12.9884C21.905 13.3853 22.251 13.678 22.605 13.8187C22.766 13.8822 22.926 13.9142 23.0805 13.9142C23.234 13.9142 23.382 13.8827 23.52 13.8197C24.3935 13.4218 24.4305 12.1027 24.0245 10.8936C24.574 11.1058 25.1205 11.2194 25.6085 11.2194C25.968 11.2194 26.296 11.1609 26.571 11.0418C26.9315 10.8866 27.1855 10.6334 27.3075 10.3096C27.657 9.38084 26.787 8.20232 25.278 7.53675C26.4935 6.88069 27.1605 5.86181 26.8375 5.07264C26.717 4.77888 26.4775 4.55369 26.145 4.42158C25.611 4.20989 24.868 4.25193 24.1005 4.52416C24.6655 2.92379 24.4425 1.45853 23.555 1.08721C23.255 0.961604 22.917 0.972613 22.578 1.11924C21.9365 1.39598 21.3045 2.17164 20.8975 3.16049C20.5065 2.38132 19.973 1.80533 19.424 1.58764C19.103 1.46053 18.7865 1.46053 18.5095 1.58664C17.643 1.98048 17.599 3.2806 17.994 4.48063C17.045 4.11982 16.113 4.06227 15.473 4.33951C15.119 4.49214 14.869 4.74135 14.7495 5.05912C14.4055 5.97391 15.2705 7.13841 16.7675 7.80498C15.559 8.46305 14.9 9.48443 15.226 10.2806C15.3485 10.5799 15.592 10.8086 15.93 10.9427C16.1615 11.0343 16.4305 11.0793 16.723 11.0793C17.1045 11.0793 17.526 11.0017 17.9545 10.8521C17.401 12.442 17.6265 13.8937 18.5085 14.263C18.646 14.3206 18.792 14.3496 18.9425 14.3496C19.119 14.3496 19.302 14.3101 19.485 14.231C19.8755 14.0624 20.2615 13.7061 20.5975 13.2331V17.0689C19.3045 15.8724 17.124 16.2332 17.029 16.2507C16.8185 16.2878 16.655 16.4544 16.622 16.6656C16.606 16.7677 16.241 19.1843 17.4985 20.5104C18.2925 21.3476 19.496 21.5108 20.312 21.5108C20.4145 21.5108 20.509 21.5078 20.5975 21.5038V23.1056H7.9825V21.5007C8.0875 21.5068 8.2045 21.5108 8.331 21.5108C9.147 21.5108 10.3505 21.3476 11.1445 20.5104C12.402 19.1843 12.037 16.7677 12.021 16.6656C11.988 16.4544 11.824 16.2878 11.614 16.2507C11.5165 16.2327 9.266 15.8594 7.9825 17.1275V12.9884C8.29 13.3853 8.636 13.678 8.99 13.8187C9.151 13.8822 9.311 13.9142 9.465 13.9142C9.619 13.9142 9.767 13.8827 9.905 13.8197C10.7785 13.4218 10.8155 12.1027 10.4095 10.8936C10.959 11.1058 11.5055 11.2189 11.9935 11.2189C12.353 11.2189 12.681 11.1604 12.9565 11.0418C13.3165 10.8861 13.571 10.6334 13.6925 10.3096C14.042 9.38084 13.172 8.20232 11.663 7.53675C12.8785 6.88069 13.5455 5.86181 13.2225 5.07264C13.1025 4.77888 12.863 4.55369 12.5305 4.42208C11.997 4.20989 11.253 4.25193 10.4855 4.52416C11.0505 2.92379 10.827 1.45853 9.94 1.08771C9.64 0.962105 9.302 0.973114 8.963 1.11974C8.3215 1.39698 7.689 2.17264 7.2825 3.16149C6.8915 2.38182 6.358 1.80583 5.8095 1.58814C5.488 1.46053 5.1725 1.46053 4.8945 1.58714C4.0285 1.98148 3.9845 3.2811 4.379 4.48113C3.43 4.12032 2.498 4.06277 1.858 4.34001C1.504 4.49264 1.254 4.74185 1.1345 5.05962C0.7905 5.97441 1.6555 7.13891 3.1525 7.80548C1.944 8.46355 1.285 9.48493 1.6105 10.2806C1.733 10.5794 1.976 10.8086 2.3145 10.9427C2.5455 11.0348 2.8145 11.0793 3.1075 11.0793C3.4895 11.0793 3.911 11.0017 4.3395 10.8521C3.786 12.442 4.0115 13.8937 4.8935 14.263C5.031 14.3206 5.177 14.3496 5.3275 14.3496C5.504 14.3496 5.687 14.3101 5.87 14.231C6.2605 14.0624 6.6465 13.7061 6.9825 13.2331V17.1275C5.699 15.8594 3.448 16.2332 3.351 16.2507C3.1405 16.2878 2.977 16.4544 2.9435 16.6656C2.928 16.7677 2.564 19.1843 3.8205 20.5104C4.6145 21.3476 5.818 21.5108 6.634 21.5108C6.7605 21.5108 6.8775 21.5068 6.9825 21.5007V23.1056H1.5C1.2235 23.1056 1 23.3298 1 23.6061V28.3626C1 28.6389 1.2235 28.8631 1.5 28.8631H2.193V35.2426H1.5C1.2235 35.2426 1 35.4668 1 35.743V40.4996C1 40.7758 1.2235 41 1.5 41H40.5C40.7765 41 41 40.7758 41 40.4996V35.743C41 35.4668 40.7765 35.2426 40.5 35.2426H39.8065V28.8626H40.5C40.7765 28.8626 41 28.6384 41 28.3621V23.6056C41 23.3293 40.7765 23.1051 40.5 23.1051H35.213V21.4917C35.3465 21.5023 35.507 21.5098 35.6865 21.5098C36.503 21.5098 37.707 21.3471 38.501 20.5094C39.758 19.1838 39.393 16.7667 39.377 16.6646C39.344 16.4534 39.18 16.2868 38.97 16.2497C38.871 16.2317 36.5475 15.8424 35.2765 17.1845C35.2535 17.2086 35.235 17.2356 35.213 17.2606V12.9874C35.52 13.3838 35.8665 13.677 36.2205 13.8171C36.3815 13.8812 36.5415 13.9132 36.696 13.9132C36.8495 13.9132 36.998 13.8817 37.136 13.8187C38.0095 13.4203 38.046 12.1012 37.64 10.8926C38.19 11.1048 38.736 11.2179 39.2245 11.2179C39.583 11.2184 39.911 11.1604 40.186 11.0413ZM22.3235 17.8741C22.979 17.183 24.151 17.1575 24.748 17.1971C24.7875 17.8306 24.7715 19.1092 24.097 19.8208C23.4415 20.5119 22.2725 20.5359 21.6725 20.4979C21.633 19.8643 21.6495 18.5857 22.3235 17.8741ZM20.095 7.27253C20.201 6.99128 20.4025 6.7746 20.663 6.6625C20.784 6.60996 20.912 6.58393 21.0395 6.58393C21.164 6.58393 21.288 6.60896 21.406 6.658C21.9405 6.88169 22.1995 7.53125 21.9835 8.10574C21.8775 8.38698 21.676 8.60367 21.4155 8.71577C21.176 8.81985 20.9115 8.81986 20.6725 8.72027C20.1385 8.49608 19.8795 7.84702 20.095 7.27253ZM23.106 12.9084C23.0825 12.9184 23.033 12.9114 22.9735 12.8874C22.677 12.7697 22.211 12.2828 21.887 11.4922C21.595 10.7795 21.553 10.151 21.6365 9.79469C21.7085 9.77267 21.7815 9.75666 21.8515 9.72663C21.915 9.69911 21.97 9.66008 22.03 9.62705C22.3225 9.81371 22.704 10.2631 22.985 10.9497C23.4175 12.0061 23.281 12.8283 23.106 12.9084ZM26.3715 9.95633C26.347 10.0204 26.281 10.0764 26.1745 10.1225C25.827 10.2721 25.1025 10.2676 24.268 9.9178C23.55 9.61704 23.068 9.20118 22.837 8.85188C22.904 8.73879 22.965 8.62068 23.013 8.49358C23.0555 8.38098 23.0815 8.26588 23.105 8.15078C23.4915 8.07572 24.101 8.12526 24.7945 8.41501C25.9145 8.88391 26.485 9.65357 26.3715 9.95633ZM25.7765 5.35138C25.819 5.36789 25.892 5.40342 25.912 5.45096C25.997 5.65864 25.539 6.33822 24.5665 6.7811C23.9395 7.06735 23.3905 7.1239 23.0595 7.05984C23.0125 6.8977 22.9485 6.74307 22.868 6.59594C23.0485 6.28718 23.475 5.88583 24.121 5.59158C24.848 5.2608 25.4775 5.23277 25.7765 5.35138ZM21.764 3.67844C22.111 2.75665 22.622 2.19016 22.974 2.03803C23.0225 2.01751 23.112 1.98548 23.1695 2.01C23.418 2.11409 23.591 3.0574 23.128 4.28796C22.844 5.04261 22.446 5.55605 22.121 5.80026C22.028 5.74271 21.9345 5.68516 21.831 5.64212C21.7285 5.59959 21.6235 5.57206 21.518 5.54654C21.4305 5.12518 21.472 4.45511 21.764 3.67844ZM18.9235 2.49742C18.9305 2.49442 18.9395 2.49292 18.9505 2.49292C18.977 2.49292 19.0145 2.50193 19.056 2.51794C19.3525 2.63554 19.8185 3.12246 20.1425 3.91364C20.431 4.61825 20.475 5.23978 20.395 5.59809C20.339 5.6166 20.282 5.62811 20.227 5.65163C20.1465 5.68666 20.0745 5.7347 19.9995 5.77874C19.707 5.59208 19.325 5.1427 19.0445 4.45611C18.612 3.3997 18.7485 2.57699 18.9235 2.49742ZM15.685 5.41143C15.713 5.33836 15.8 5.28732 15.869 5.25779C16.214 5.10817 16.9395 5.11667 17.7815 5.46898C18.515 5.77574 19.003 6.1991 19.23 6.5499C19.1685 6.6565 19.11 6.76609 19.0655 6.88469C19.0265 6.98878 19.004 7.09437 18.981 7.20046C18.5965 7.27853 17.9775 7.23049 17.269 6.93424C16.0635 6.4288 15.59 5.66364 15.685 5.41143ZM16.2985 10.0114C16.2525 9.99336 16.173 9.95483 16.151 9.90028C16.061 9.6811 16.5015 9.00351 17.49 8.55313C17.962 8.33794 18.392 8.25337 18.717 8.25337C18.8295 8.25337 18.9245 8.26588 19.0095 8.28439C19.055 8.45154 19.12 8.61068 19.2015 8.76231C19.024 9.07457 18.598 9.48142 17.9495 9.77668C17.2285 10.1055 16.6005 10.1315 16.2985 10.0114ZM20.299 11.6708C19.952 12.5931 19.441 13.1596 19.089 13.3112C19.0415 13.3322 18.952 13.3633 18.894 13.3392C18.6455 13.2351 18.4725 12.2913 18.935 11.0608C19.2145 10.3181 19.6045 9.80921 19.9265 9.55999C20.028 9.62555 20.133 9.6876 20.2475 9.73514C20.3465 9.77668 20.4485 9.8027 20.5505 9.82822C20.6315 10.2521 20.5855 10.9102 20.299 11.6708ZM18.224 19.8208C17.5495 19.1097 17.533 17.8321 17.573 17.1986C18.168 17.162 19.3475 17.188 19.9975 17.8741C20.3475 18.243 20.518 18.7644 20.5975 19.2698V20.4989C19.9865 20.5314 18.857 20.4889 18.224 19.8208ZM6.9695 20.4964C6.3725 20.5339 5.195 20.5069 4.5455 19.8213C3.8715 19.1102 3.855 17.8326 3.8945 17.1986C4.4925 17.1615 5.6695 17.1885 6.319 17.8741C6.993 18.5847 7.0095 19.8623 6.9695 20.4964ZM8.6455 17.8741C9.3015 17.181 10.477 17.158 11.0725 17.1971C11.1185 17.9202 11.052 19.1532 10.4185 19.8208C9.7625 20.5129 8.588 20.5374 7.9915 20.4974C7.9865 20.4173 7.9835 20.3292 7.9815 20.2382V20.1166C7.983 19.3949 8.113 18.4356 8.6455 17.8741ZM6.48 7.27253C6.586 6.99128 6.7875 6.7746 7.048 6.662C7.169 6.60996 7.2965 6.58343 7.4245 6.58343C7.5485 6.58343 7.6725 6.60846 7.7905 6.6575C8.325 6.88119 8.5845 7.53075 8.368 8.10574C8.2625 8.38698 8.061 8.60317 7.8005 8.71577C7.561 8.81935 7.2965 8.81986 7.0575 8.72027C6.523 8.49608 6.2635 7.84702 6.48 7.27253ZM9.4905 12.9084C9.467 12.9184 9.4175 12.9114 9.358 12.8874C9.0615 12.7697 8.5955 12.2828 8.2715 11.4922C7.9795 10.7795 7.9375 10.151 8.021 9.79469C8.093 9.77267 8.166 9.75666 8.2365 9.72663C8.2995 9.69911 8.355 9.66008 8.4145 9.62705C8.707 9.81371 9.0885 10.2631 9.3695 10.9497C9.8015 12.0056 9.666 12.8283 9.4905 12.9084ZM12.756 9.95633C12.7315 10.0204 12.6655 10.0764 12.559 10.1225C12.211 10.2726 11.4865 10.2676 10.652 9.9178C9.9335 9.61704 9.4525 9.20118 9.2215 8.85188C9.2885 8.73879 9.3495 8.62068 9.397 8.49358C9.4395 8.38098 9.4655 8.26588 9.489 8.15078C9.8755 8.07572 10.4855 8.12476 11.1785 8.41501C12.299 8.88391 12.87 9.65357 12.756 9.95633ZM12.1615 5.35138C12.2035 5.36839 12.2765 5.40342 12.2965 5.45096C12.3815 5.65864 11.9235 6.33822 10.951 6.7811C10.323 7.06735 9.775 7.1239 9.444 7.05984C9.397 6.8977 9.333 6.74307 9.2525 6.59645C9.433 6.28718 9.859 5.88583 10.505 5.59208C11.2325 5.2608 11.8605 5.23277 12.1615 5.35138ZM8.149 3.67844C8.496 2.75665 9.007 2.19016 9.359 2.03803C9.408 2.01751 9.497 1.98548 9.5545 2.01C9.803 2.11409 9.976 3.0574 9.513 4.28796C9.2285 5.04261 8.8305 5.55655 8.5055 5.80076C8.4125 5.74321 8.319 5.68566 8.2155 5.64263C8.1135 5.60009 8.0085 5.57257 7.903 5.54704C7.815 5.12568 7.8565 4.45561 8.149 3.67844ZM5.308 2.49742C5.315 2.49442 5.324 2.49292 5.335 2.49292C5.362 2.49292 5.3995 2.50193 5.4405 2.51794C5.737 2.63554 6.2035 3.12246 6.5275 3.91364C6.8155 4.61774 6.86 5.23928 6.7805 5.59809C6.7245 5.6166 6.6675 5.62811 6.6125 5.65163C6.5315 5.68666 6.46 5.7347 6.385 5.77874C6.0925 5.59208 5.711 5.1427 5.43 4.45611C4.9735 3.34215 5.1605 2.56448 5.308 2.49742ZM2.0695 5.41143C2.0975 5.33836 2.1845 5.28732 2.2535 5.25779C2.5985 5.10817 3.324 5.11667 4.166 5.46848C4.8995 5.77524 5.3875 6.1991 5.6145 6.5494C5.553 6.656 5.495 6.76559 5.4505 6.88369C5.4115 6.98778 5.389 7.09337 5.3655 7.19946C4.981 7.27753 4.3615 7.22899 3.6535 6.93323C2.448 6.4288 1.975 5.66364 2.0695 5.41143ZM2.683 10.0114C2.6375 9.99336 2.558 9.95533 2.536 9.90028C2.446 9.6811 2.8865 9.00351 3.875 8.55313C4.347 8.33794 4.777 8.25337 5.102 8.25337C5.214 8.25337 5.3095 8.26588 5.394 8.28389C5.4395 8.45104 5.5045 8.61068 5.586 8.76231C5.4085 9.07457 4.9825 9.48092 4.3345 9.77668C3.6125 10.1055 2.9845 10.1315 2.683 10.0114ZM6.684 11.6708C6.337 12.5931 5.826 13.1596 5.474 13.3112C5.426 13.3322 5.3375 13.3633 5.279 13.3392C5.0305 13.2351 4.8575 12.2913 5.32 11.0608C5.5995 10.3181 5.9895 9.8087 6.3115 9.55999C6.413 9.62555 6.518 9.6876 6.6325 9.73564C6.7315 9.77718 6.8335 9.8032 6.9355 9.82872C7.0165 10.2521 6.9705 10.9102 6.684 11.6708ZM40 39.9986H2V36.2429H40V39.9986ZM38.8065 35.2416H3.193V28.8626H38.807V35.2416H38.8065ZM40 27.8617H2V24.106H40V27.8617ZM35.031 8.71577C34.7925 8.81885 34.5285 8.82036 34.2885 8.71977C33.754 8.49558 33.4945 7.84652 33.711 7.27152C33.8165 6.99028 34.018 6.7741 34.2785 6.6615C34.3995 6.60946 34.5275 6.58293 34.655 6.58293C34.7795 6.58293 34.9035 6.60795 35.0215 6.657C35.556 6.88069 35.8155 7.53025 35.599 8.10474C35.493 8.38698 35.2915 8.60367 35.031 8.71577ZM39.3915 5.35138C39.434 5.36789 39.507 5.40342 39.527 5.45096C39.612 5.65864 39.1545 6.33822 38.182 6.7811C37.554 7.06635 37.0055 7.1229 36.675 7.05934C36.628 6.8972 36.564 6.74257 36.4835 6.59594C36.664 6.28718 37.0905 5.88583 37.7365 5.59158C38.4635 5.2608 39.092 5.23277 39.3915 5.35138ZM35.3795 3.67844C35.7265 2.75615 36.238 2.19016 36.59 2.03803C36.6385 2.01751 36.728 1.98548 36.785 2.01C37.0335 2.11409 37.2065 3.0579 36.7435 4.28796C36.4595 5.04261 36.0615 5.55605 35.7365 5.80026C35.6435 5.74271 35.55 5.68516 35.4465 5.64212C35.344 5.59909 35.239 5.57206 35.1335 5.54654C35.0455 5.12468 35.0875 4.45511 35.3795 3.67844ZM32.539 2.49742C32.546 2.49442 32.555 2.49292 32.566 2.49292C32.5925 2.49292 32.63 2.50193 32.6715 2.51794C32.968 2.63554 33.434 3.12246 33.758 3.91364C34.0465 4.61825 34.0905 5.23978 34.011 5.59809C33.955 5.6166 33.8975 5.62811 33.8425 5.65163C33.762 5.68666 33.69 5.7347 33.6155 5.77874C33.3235 5.59208 32.941 5.1427 32.6605 4.45611C32.2275 3.3997 32.3635 2.57699 32.539 2.49742ZM29.3 5.41143C29.328 5.33836 29.415 5.28732 29.484 5.25779C29.829 5.10817 30.5545 5.11667 31.3965 5.46898C32.13 5.77574 32.6185 6.1991 32.8455 6.5494C32.784 6.656 32.726 6.76559 32.6815 6.88419C32.6425 6.98828 32.6195 7.09387 32.5965 7.19996C32.212 7.27853 31.5925 7.23049 30.8845 6.93373C29.679 6.4288 29.2055 5.66314 29.3 5.41143ZM29.914 10.0114C29.8685 9.99336 29.789 9.95533 29.767 9.90028C29.677 9.6811 30.1175 9.00351 31.1055 8.55313C31.5775 8.33794 32.0075 8.25337 32.3325 8.25337C32.445 8.25337 32.5405 8.26588 32.625 8.28389C32.6705 8.45104 32.7355 8.61018 32.817 8.76181C32.6395 9.07457 32.2135 9.48092 31.565 9.77618C30.843 10.1055 30.215 10.1315 29.914 10.0114ZM33.9145 11.6708C33.5675 12.5931 33.0565 13.1596 32.7045 13.3112C32.6565 13.3322 32.5675 13.3633 32.5095 13.3392C32.261 13.2351 32.088 12.2908 32.551 11.0608C32.8305 10.3181 33.2205 9.80921 33.542 9.55999C33.6435 9.62555 33.7485 9.6876 33.8635 9.73564C33.9625 9.77718 34.0645 9.8032 34.166 9.82872C34.2465 10.2521 34.201 10.9102 33.9145 11.6708ZM31.902 19.8208C31.227 19.1092 31.211 17.8301 31.251 17.1971C31.8485 17.1565 33.02 17.1825 33.675 17.8736C33.954 18.1679 34.116 18.5587 34.2125 18.9611V20.5004C33.591 20.5274 32.515 20.4674 31.902 19.8208ZM36.002 17.8736C36.6575 17.1825 37.8285 17.1565 38.426 17.1971C38.466 17.8306 38.45 19.1092 37.7755 19.8208C37.1195 20.5129 35.944 20.5374 35.3485 20.4974C35.343 20.4073 35.339 20.3087 35.3375 20.2051C35.338 20.1731 35.339 20.1436 35.339 20.1101C35.34 19.3889 35.4705 18.4341 36.002 17.8736C36.002 17.8741 36.002 17.8741 36.002 17.8736ZM36.7215 12.9084C36.699 12.9189 36.648 12.9109 36.5885 12.8874C36.292 12.7697 35.8255 12.2828 35.502 11.4922C35.21 10.7795 35.168 10.151 35.2515 9.79469C35.3235 9.77267 35.3965 9.75666 35.4665 9.72663C35.53 9.69911 35.5855 9.66008 35.645 9.62705C35.9375 9.81371 36.319 10.2631 36.6 10.9497C37.0325 12.0061 36.8965 12.8283 36.7215 12.9084ZM36.4525 8.85188C36.5195 8.73879 36.5805 8.62068 36.6285 8.49358C36.671 8.38098 36.697 8.26588 36.7205 8.15078C37.1075 8.07572 37.717 8.12526 38.4095 8.41501C39.53 8.88441 40.101 9.65357 39.987 9.95583C39.9625 10.0204 39.896 10.0764 39.7895 10.1225C39.4435 10.2726 38.7175 10.2671 37.883 9.9178C37.165 9.61704 36.6835 9.20118 36.4525 8.85188Z" fill="#83529B"/>
<path d="M36.002 17.8736C36.6575 17.1825 37.8285 17.1565 38.426 17.1971C38.466 17.8306 38.45 19.1092 37.7755 19.8208C37.1195 20.5129 35.944 20.5374 35.3485 20.4974C35.343 20.4073 35.339 20.3087 35.3375 20.2051C35.338 20.1731 35.339 20.1436 35.339 20.1101C35.34 19.3889 35.4705 18.4341 36.002 17.8736ZM36.002 17.8736C36.002 17.8741 36.002 17.8741 36.002 17.8736ZM40.186 11.0413C40.546 10.8856 40.8005 10.6329 40.923 10.3091C41.2725 9.38034 40.402 8.20182 38.893 7.53625C40.1085 6.87969 40.775 5.86131 40.4525 5.07213C40.332 4.77838 40.0925 4.55319 39.76 4.42108C39.226 4.20939 38.483 4.25143 37.7155 4.52366C38.281 2.92379 38.058 1.45803 37.17 1.08671C36.8705 0.961104 36.5335 0.972113 36.194 1.11874C35.5525 1.39548 34.92 2.17114 34.5125 3.16049C34.1215 2.38132 33.588 1.80483 33.039 1.58764C32.718 1.46053 32.4015 1.46053 32.1245 1.58664C31.258 1.98048 31.214 3.2806 31.609 4.48063C30.66 4.11982 29.728 4.06227 29.088 4.33951C28.734 4.49214 28.484 4.74135 28.3645 5.05912C28.0205 5.97341 28.8855 7.13791 30.383 7.80498C29.1745 8.46305 28.516 9.48493 28.841 10.2801C28.9635 10.5794 29.2065 10.8081 29.545 10.9422C29.776 11.0338 30.045 11.0788 30.338 11.0788C30.7195 11.0788 31.1415 11.0012 31.57 10.8516C31.016 12.441 31.241 13.8932 32.1235 14.263C32.261 14.3206 32.407 14.3496 32.5575 14.3496C32.734 14.3496 32.917 14.3101 33.1 14.231C33.4905 14.0624 33.8765 13.7061 34.2125 13.2331V17.0114C32.9125 15.8829 30.8005 16.2337 30.707 16.2507C30.4965 16.2878 30.333 16.4544 30.3 16.6656C30.284 16.7677 29.919 19.1843 31.1765 20.5104C31.9705 21.3476 33.174 21.5108 33.99 21.5108C34.0685 21.5108 34.142 21.5088 34.2125 21.5063V23.1056H21.5975V21.4967C21.718 21.5048 21.855 21.5108 22.008 21.5108C22.8245 21.5108 24.0285 21.3481 24.8225 20.5104C26.079 19.1848 25.715 16.7677 25.6995 16.6656C25.666 16.4544 25.502 16.2878 25.292 16.2507C25.193 16.2327 22.87 15.8439 21.598 17.1855L21.5975 17.186V12.9884C21.905 13.3853 22.251 13.678 22.605 13.8187C22.766 13.8822 22.926 13.9142 23.0805 13.9142C23.234 13.9142 23.382 13.8827 23.52 13.8197C24.3935 13.4218 24.4305 12.1027 24.0245 10.8936C24.574 11.1058 25.1205 11.2194 25.6085 11.2194C25.968 11.2194 26.296 11.1609 26.571 11.0418C26.9315 10.8866 27.1855 10.6334 27.3075 10.3096C27.657 9.38084 26.787 8.20232 25.278 7.53675C26.4935 6.88069 27.1605 5.86181 26.8375 5.07264C26.717 4.77888 26.4775 4.55369 26.145 4.42158C25.611 4.20989 24.868 4.25193 24.1005 4.52416C24.6655 2.92379 24.4425 1.45853 23.555 1.08721C23.255 0.961604 22.917 0.972613 22.578 1.11924C21.9365 1.39598 21.3045 2.17164 20.8975 3.16049C20.5065 2.38132 19.973 1.80533 19.424 1.58764C19.103 1.46053 18.7865 1.46053 18.5095 1.58664C17.643 1.98048 17.599 3.2806 17.994 4.48063C17.045 4.11982 16.113 4.06227 15.473 4.33951C15.119 4.49214 14.869 4.74135 14.7495 5.05912C14.4055 5.97391 15.2705 7.13841 16.7675 7.80498C15.559 8.46305 14.9 9.48443 15.226 10.2806C15.3485 10.5799 15.592 10.8086 15.93 10.9427C16.1615 11.0343 16.4305 11.0793 16.723 11.0793C17.1045 11.0793 17.526 11.0017 17.9545 10.8521C17.401 12.442 17.6265 13.8937 18.5085 14.263C18.646 14.3206 18.792 14.3496 18.9425 14.3496C19.119 14.3496 19.302 14.3101 19.485 14.231C19.8755 14.0624 20.2615 13.7061 20.5975 13.2331V17.0689C19.3045 15.8724 17.124 16.2332 17.029 16.2507C16.8185 16.2878 16.655 16.4544 16.622 16.6656C16.606 16.7677 16.241 19.1843 17.4985 20.5104C18.2925 21.3476 19.496 21.5108 20.312 21.5108C20.4145 21.5108 20.509 21.5078 20.5975 21.5038V23.1056H7.9825V21.5007C8.0875 21.5068 8.2045 21.5108 8.331 21.5108C9.147 21.5108 10.3505 21.3476 11.1445 20.5104C12.402 19.1843 12.037 16.7677 12.021 16.6656C11.988 16.4544 11.824 16.2878 11.614 16.2507C11.5165 16.2327 9.266 15.8594 7.9825 17.1275V12.9884C8.29 13.3853 8.636 13.678 8.99 13.8187C9.151 13.8822 9.311 13.9142 9.465 13.9142C9.619 13.9142 9.767 13.8827 9.905 13.8197C10.7785 13.4218 10.8155 12.1027 10.4095 10.8936C10.959 11.1058 11.5055 11.2189 11.9935 11.2189C12.353 11.2189 12.681 11.1604 12.9565 11.0418C13.3165 10.8861 13.571 10.6334 13.6925 10.3096C14.042 9.38084 13.172 8.20232 11.663 7.53675C12.8785 6.88069 13.5455 5.86181 13.2225 5.07264C13.1025 4.77888 12.863 4.55369 12.5305 4.42208C11.997 4.20989 11.253 4.25193 10.4855 4.52416C11.0505 2.92379 10.827 1.45853 9.94 1.08771C9.64 0.962105 9.302 0.973114 8.963 1.11974C8.3215 1.39698 7.689 2.17264 7.2825 3.16149C6.8915 2.38182 6.358 1.80583 5.8095 1.58814C5.488 1.46053 5.1725 1.46053 4.8945 1.58714C4.0285 1.98148 3.9845 3.2811 4.379 4.48113C3.43 4.12032 2.498 4.06277 1.858 4.34001C1.504 4.49264 1.254 4.74185 1.1345 5.05962C0.7905 5.97441 1.6555 7.13891 3.1525 7.80548C1.944 8.46355 1.285 9.48493 1.6105 10.2806C1.733 10.5794 1.976 10.8086 2.3145 10.9427C2.5455 11.0348 2.8145 11.0793 3.1075 11.0793C3.4895 11.0793 3.911 11.0017 4.3395 10.8521C3.786 12.442 4.0115 13.8937 4.8935 14.263C5.031 14.3206 5.177 14.3496 5.3275 14.3496C5.504 14.3496 5.687 14.3101 5.87 14.231C6.2605 14.0624 6.6465 13.7061 6.9825 13.2331V17.1275C5.699 15.8594 3.448 16.2332 3.351 16.2507C3.1405 16.2878 2.977 16.4544 2.9435 16.6656C2.928 16.7677 2.564 19.1843 3.8205 20.5104C4.6145 21.3476 5.818 21.5108 6.634 21.5108C6.7605 21.5108 6.8775 21.5068 6.9825 21.5007V23.1056H1.5C1.2235 23.1056 1 23.3298 1 23.6061V28.3626C1 28.6389 1.2235 28.8631 1.5 28.8631H2.193V35.2426H1.5C1.2235 35.2426 1 35.4667 1 35.743V40.4996C1 40.7758 1.2235 41 1.5 41H40.5C40.7765 41 41 40.7758 41 40.4996V35.743C41 35.4667 40.7765 35.2426 40.5 35.2426H39.8065V28.8626H40.5C40.7765 28.8626 41 28.6384 41 28.3621V23.6056C41 23.3293 40.7765 23.1051 40.5 23.1051H35.213V21.4917C35.3465 21.5023 35.507 21.5098 35.6865 21.5098C36.503 21.5098 37.707 21.3471 38.501 20.5094C39.758 19.1838 39.393 16.7667 39.377 16.6646C39.344 16.4534 39.18 16.2868 38.97 16.2497C38.871 16.2317 36.5475 15.8424 35.2765 17.1845C35.2535 17.2086 35.235 17.2356 35.213 17.2606V12.9874C35.52 13.3838 35.8665 13.677 36.2205 13.8171C36.3815 13.8812 36.5415 13.9132 36.696 13.9132C36.8495 13.9132 36.998 13.8817 37.136 13.8187C38.0095 13.4203 38.046 12.1012 37.64 10.8926C38.19 11.1048 38.736 11.2179 39.2245 11.2179C39.583 11.2184 39.911 11.1604 40.186 11.0413ZM22.3235 17.8741C22.979 17.183 24.151 17.1575 24.748 17.1971C24.7875 17.8306 24.7715 19.1092 24.097 19.8208C23.4415 20.5119 22.2725 20.5359 21.6725 20.4979C21.633 19.8643 21.6495 18.5857 22.3235 17.8741ZM20.095 7.27253C20.201 6.99128 20.4025 6.7746 20.663 6.6625C20.784 6.60996 20.912 6.58393 21.0395 6.58393C21.164 6.58393 21.288 6.60896 21.406 6.658C21.9405 6.88169 22.1995 7.53125 21.9835 8.10574C21.8775 8.38698 21.676 8.60367 21.4155 8.71577C21.176 8.81985 20.9115 8.81986 20.6725 8.72027C20.1385 8.49608 19.8795 7.84702 20.095 7.27253ZM23.106 12.9084C23.0825 12.9184 23.033 12.9114 22.9735 12.8874C22.677 12.7697 22.211 12.2828 21.887 11.4922C21.595 10.7795 21.553 10.151 21.6365 9.79469C21.7085 9.77267 21.7815 9.75666 21.8515 9.72663C21.915 9.69911 21.97 9.66008 22.03 9.62705C22.3225 9.81371 22.704 10.2631 22.985 10.9497C23.4175 12.0061 23.281 12.8283 23.106 12.9084ZM26.3715 9.95633C26.347 10.0204 26.281 10.0764 26.1745 10.1225C25.827 10.2721 25.1025 10.2676 24.268 9.9178C23.55 9.61704 23.068 9.20118 22.837 8.85188C22.904 8.73879 22.965 8.62068 23.013 8.49358C23.0555 8.38098 23.0815 8.26588 23.105 8.15078C23.4915 8.07572 24.101 8.12526 24.7945 8.41501C25.9145 8.88391 26.485 9.65357 26.3715 9.95633ZM25.7765 5.35138C25.819 5.36789 25.892 5.40342 25.912 5.45096C25.997 5.65864 25.539 6.33822 24.5665 6.7811C23.9395 7.06735 23.3905 7.1239 23.0595 7.05984C23.0125 6.8977 22.9485 6.74307 22.868 6.59594C23.0485 6.28718 23.475 5.88583 24.121 5.59158C24.848 5.2608 25.4775 5.23277 25.7765 5.35138ZM21.764 3.67844C22.111 2.75665 22.622 2.19016 22.974 2.03803C23.0225 2.01751 23.112 1.98548 23.1695 2.01C23.418 2.11409 23.591 3.0574 23.128 4.28796C22.844 5.04261 22.446 5.55605 22.121 5.80026C22.028 5.74271 21.9345 5.68516 21.831 5.64212C21.7285 5.59959 21.6235 5.57206 21.518 5.54654C21.4305 5.12518 21.472 4.45511 21.764 3.67844ZM18.9235 2.49742C18.9305 2.49442 18.9395 2.49292 18.9505 2.49292C18.977 2.49292 19.0145 2.50193 19.056 2.51794C19.3525 2.63554 19.8185 3.12246 20.1425 3.91364C20.431 4.61825 20.475 5.23978 20.395 5.59809C20.339 5.6166 20.282 5.62811 20.227 5.65163C20.1465 5.68666 20.0745 5.7347 19.9995 5.77874C19.707 5.59208 19.325 5.1427 19.0445 4.45611C18.612 3.3997 18.7485 2.57699 18.9235 2.49742ZM15.685 5.41143C15.713 5.33836 15.8 5.28732 15.869 5.25779C16.214 5.10817 16.9395 5.11667 17.7815 5.46898C18.515 5.77574 19.003 6.1991 19.23 6.5499C19.1685 6.6565 19.11 6.76609 19.0655 6.88469C19.0265 6.98878 19.004 7.09437 18.981 7.20046C18.5965 7.27853 17.9775 7.23049 17.269 6.93423C16.0635 6.4288 15.59 5.66364 15.685 5.41143ZM16.2985 10.0114C16.2525 9.99336 16.173 9.95483 16.151 9.90028C16.061 9.6811 16.5015 9.00351 17.49 8.55313C17.962 8.33794 18.392 8.25337 18.717 8.25337C18.8295 8.25337 18.9245 8.26588 19.0095 8.28439C19.055 8.45154 19.12 8.61068 19.2015 8.76231C19.024 9.07457 18.598 9.48142 17.9495 9.77668C17.2285 10.1055 16.6005 10.1315 16.2985 10.0114ZM20.299 11.6708C19.952 12.5931 19.441 13.1596 19.089 13.3112C19.0415 13.3322 18.952 13.3633 18.894 13.3392C18.6455 13.2351 18.4725 12.2913 18.935 11.0608C19.2145 10.3181 19.6045 9.80921 19.9265 9.55999C20.028 9.62555 20.133 9.6876 20.2475 9.73514C20.3465 9.77668 20.4485 9.8027 20.5505 9.82822C20.6315 10.2521 20.5855 10.9102 20.299 11.6708ZM18.224 19.8208C17.5495 19.1097 17.533 17.8321 17.573 17.1986C18.168 17.162 19.3475 17.188 19.9975 17.8741C20.3475 18.243 20.518 18.7644 20.5975 19.2698V20.4989C19.9865 20.5314 18.857 20.4889 18.224 19.8208ZM6.9695 20.4964C6.3725 20.5339 5.195 20.5069 4.5455 19.8213C3.8715 19.1102 3.855 17.8326 3.8945 17.1986C4.4925 17.1615 5.6695 17.1885 6.319 17.8741C6.993 18.5847 7.0095 19.8623 6.9695 20.4964ZM8.6455 17.8741C9.3015 17.181 10.477 17.158 11.0725 17.1971C11.1185 17.9202 11.052 19.1532 10.4185 19.8208C9.7625 20.5129 8.588 20.5374 7.9915 20.4974C7.9865 20.4173 7.9835 20.3292 7.9815 20.2382V20.1166C7.983 19.3949 8.113 18.4356 8.6455 17.8741ZM6.48 7.27253C6.586 6.99128 6.7875 6.7746 7.048 6.662C7.169 6.60996 7.2965 6.58343 7.4245 6.58343C7.5485 6.58343 7.6725 6.60846 7.7905 6.6575C8.325 6.88119 8.5845 7.53075 8.368 8.10574C8.2625 8.38698 8.061 8.60317 7.8005 8.71577C7.561 8.81935 7.2965 8.81986 7.0575 8.72027C6.523 8.49608 6.2635 7.84702 6.48 7.27253ZM9.4905 12.9084C9.467 12.9184 9.4175 12.9114 9.358 12.8874C9.0615 12.7697 8.5955 12.2828 8.2715 11.4922C7.9795 10.7795 7.9375 10.151 8.021 9.79469C8.093 9.77267 8.166 9.75666 8.2365 9.72663C8.2995 9.69911 8.355 9.66008 8.4145 9.62705C8.707 9.81371 9.0885 10.2631 9.3695 10.9497C9.8015 12.0056 9.666 12.8283 9.4905 12.9084ZM12.756 9.95633C12.7315 10.0204 12.6655 10.0764 12.559 10.1225C12.211 10.2726 11.4865 10.2676 10.652 9.9178C9.9335 9.61704 9.4525 9.20118 9.2215 8.85188C9.2885 8.73879 9.3495 8.62068 9.397 8.49358C9.4395 8.38098 9.4655 8.26588 9.489 8.15078C9.8755 8.07572 10.4855 8.12476 11.1785 8.41501C12.299 8.88391 12.87 9.65357 12.756 9.95633ZM12.1615 5.35138C12.2035 5.36839 12.2765 5.40342 12.2965 5.45096C12.3815 5.65864 11.9235 6.33822 10.951 6.7811C10.323 7.06735 9.775 7.1239 9.444 7.05984C9.397 6.8977 9.333 6.74307 9.2525 6.59645C9.433 6.28718 9.859 5.88583 10.505 5.59208C11.2325 5.2608 11.8605 5.23277 12.1615 5.35138ZM8.149 3.67844C8.496 2.75665 9.007 2.19016 9.359 2.03803C9.408 2.01751 9.497 1.98548 9.5545 2.01C9.803 2.11409 9.976 3.0574 9.513 4.28796C9.2285 5.04261 8.8305 5.55655 8.5055 5.80076C8.4125 5.74321 8.319 5.68566 8.2155 5.64263C8.1135 5.60009 8.0085 5.57257 7.903 5.54704C7.815 5.12568 7.8565 4.45561 8.149 3.67844ZM5.308 2.49742C5.315 2.49442 5.324 2.49292 5.335 2.49292C5.362 2.49292 5.3995 2.50193 5.4405 2.51794C5.737 2.63554 6.2035 3.12246 6.5275 3.91364C6.8155 4.61774 6.86 5.23928 6.7805 5.59809C6.7245 5.6166 6.6675 5.62811 6.6125 5.65163C6.5315 5.68666 6.46 5.7347 6.385 5.77874C6.0925 5.59208 5.711 5.1427 5.43 4.45611C4.9735 3.34215 5.1605 2.56448 5.308 2.49742ZM2.0695 5.41143C2.0975 5.33836 2.1845 5.28732 2.2535 5.25779C2.5985 5.10817 3.324 5.11667 4.166 5.46848C4.8995 5.77524 5.3875 6.1991 5.6145 6.5494C5.553 6.656 5.495 6.76559 5.4505 6.88369C5.4115 6.98778 5.389 7.09337 5.3655 7.19946C4.981 7.27753 4.3615 7.22899 3.6535 6.93323C2.448 6.4288 1.975 5.66364 2.0695 5.41143ZM2.683 10.0114C2.6375 9.99336 2.558 9.95533 2.536 9.90028C2.446 9.6811 2.8865 9.00351 3.875 8.55313C4.347 8.33794 4.777 8.25337 5.102 8.25337C5.214 8.25337 5.3095 8.26588 5.394 8.28389C5.4395 8.45104 5.5045 8.61068 5.586 8.76231C5.4085 9.07457 4.9825 9.48092 4.3345 9.77668C3.6125 10.1055 2.9845 10.1315 2.683 10.0114ZM6.684 11.6708C6.337 12.5931 5.826 13.1596 5.474 13.3112C5.426 13.3322 5.3375 13.3633 5.279 13.3392C5.0305 13.2351 4.8575 12.2913 5.32 11.0608C5.5995 10.3181 5.9895 9.8087 6.3115 9.55999C6.413 9.62555 6.518 9.6876 6.6325 9.73564C6.7315 9.77718 6.8335 9.8032 6.9355 9.82872C7.0165 10.2521 6.9705 10.9102 6.684 11.6708ZM40 39.9986H2V36.2429H40V39.9986ZM38.8065 35.2416H3.193V28.8626H38.807V35.2416H38.8065ZM40 27.8617H2V24.106H40V27.8617ZM35.031 8.71577C34.7925 8.81885 34.5285 8.82036 34.2885 8.71977C33.754 8.49558 33.4945 7.84652 33.711 7.27152C33.8165 6.99028 34.018 6.7741 34.2785 6.6615C34.3995 6.60946 34.5275 6.58293 34.655 6.58293C34.7795 6.58293 34.9035 6.60796 35.0215 6.657C35.556 6.88069 35.8155 7.53025 35.599 8.10474C35.493 8.38698 35.2915 8.60367 35.031 8.71577ZM39.3915 5.35138C39.434 5.36789 39.507 5.40342 39.527 5.45096C39.612 5.65864 39.1545 6.33822 38.182 6.7811C37.554 7.06635 37.0055 7.1229 36.675 7.05934C36.628 6.8972 36.564 6.74257 36.4835 6.59594C36.664 6.28718 37.0905 5.88583 37.7365 5.59158C38.4635 5.2608 39.092 5.23277 39.3915 5.35138ZM35.3795 3.67844C35.7265 2.75615 36.238 2.19016 36.59 2.03803C36.6385 2.01751 36.728 1.98548 36.785 2.01C37.0335 2.11409 37.2065 3.0579 36.7435 4.28796C36.4595 5.04261 36.0615 5.55605 35.7365 5.80026C35.6435 5.74271 35.55 5.68516 35.4465 5.64212C35.344 5.59909 35.239 5.57206 35.1335 5.54654C35.0455 5.12468 35.0875 4.45511 35.3795 3.67844ZM32.539 2.49742C32.546 2.49442 32.555 2.49292 32.566 2.49292C32.5925 2.49292 32.63 2.50193 32.6715 2.51794C32.968 2.63554 33.434 3.12246 33.758 3.91364C34.0465 4.61825 34.0905 5.23978 34.011 5.59809C33.955 5.6166 33.8975 5.62811 33.8425 5.65163C33.762 5.68666 33.69 5.7347 33.6155 5.77874C33.3235 5.59208 32.941 5.1427 32.6605 4.45611C32.2275 3.3997 32.3635 2.57699 32.539 2.49742ZM29.3 5.41143C29.328 5.33836 29.415 5.28732 29.484 5.25779C29.829 5.10817 30.5545 5.11667 31.3965 5.46898C32.13 5.77574 32.6185 6.1991 32.8455 6.5494C32.784 6.656 32.726 6.76559 32.6815 6.88419C32.6425 6.98828 32.6195 7.09387 32.5965 7.19996C32.212 7.27853 31.5925 7.23049 30.8845 6.93373C29.679 6.4288 29.2055 5.66314 29.3 5.41143ZM29.914 10.0114C29.8685 9.99336 29.789 9.95533 29.767 9.90028C29.677 9.6811 30.1175 9.00351 31.1055 8.55313C31.5775 8.33794 32.0075 8.25337 32.3325 8.25337C32.445 8.25337 32.5405 8.26588 32.625 8.28389C32.6705 8.45104 32.7355 8.61018 32.817 8.76181C32.6395 9.07457 32.2135 9.48092 31.565 9.77618C30.843 10.1055 30.215 10.1315 29.914 10.0114ZM33.9145 11.6708C33.5675 12.5931 33.0565 13.1596 32.7045 13.3112C32.6565 13.3322 32.5675 13.3633 32.5095 13.3392C32.261 13.2351 32.088 12.2908 32.551 11.0608C32.8305 10.3181 33.2205 9.80921 33.542 9.55999C33.6435 9.62555 33.7485 9.6876 33.8635 9.73564C33.9625 9.77718 34.0645 9.8032 34.166 9.82872C34.2465 10.2521 34.201 10.9102 33.9145 11.6708ZM31.902 19.8208C31.227 19.1092 31.211 17.8301 31.251 17.1971C31.8485 17.1565 33.02 17.1825 33.675 17.8736C33.954 18.1679 34.116 18.5587 34.2125 18.9611V20.5004C33.591 20.5274 32.515 20.4674 31.902 19.8208ZM36.7215 12.9084C36.699 12.9189 36.648 12.9109 36.5885 12.8874C36.292 12.7697 35.8255 12.2828 35.502 11.4922C35.21 10.7795 35.168 10.151 35.2515 9.79469C35.3235 9.77267 35.3965 9.75666 35.4665 9.72663C35.53 9.69911 35.5855 9.66008 35.645 9.62705C35.9375 9.81371 36.319 10.2631 36.6 10.9497C37.0325 12.0061 36.8965 12.8283 36.7215 12.9084ZM36.4525 8.85188C36.5195 8.73879 36.5805 8.62068 36.6285 8.49358C36.671 8.38098 36.697 8.26588 36.7205 8.15078C37.1075 8.07572 37.717 8.12526 38.4095 8.41501C39.53 8.88441 40.101 9.65357 39.987 9.95583C39.9625 10.0204 39.896 10.0764 39.7895 10.1225C39.4435 10.2726 38.7175 10.2671 37.883 9.9178C37.165 9.61704 36.6835 9.20118 36.4525 8.85188Z" stroke="#83529B" stroke-width="0.5"/>
</svg>
