<svg viewBox="0 0 11 12" fill="none" xmlns="http://www.w3.org/2000/svg">
<path d="M10.3814 9.33392C10.1104 8.69188 9.71704 8.1087 9.22332 7.61686C8.73109 7.12359 8.148 6.73031 7.50625 6.45874C7.50051 6.45587 7.49476 6.45443 7.48901 6.45155C8.38418 5.80496 8.96612 4.75174 8.96612 3.56344C8.96612 1.59493 7.37119 0 5.40267 0C3.43416 0 1.83923 1.59493 1.83923 3.56344C1.83923 4.75174 2.42116 5.80496 3.31634 6.45299C3.31059 6.45586 3.30484 6.4573 3.29909 6.46018C2.65538 6.73174 2.07775 7.12114 1.58203 7.61829C1.08877 8.11052 0.695488 8.69361 0.423913 9.33536C0.157118 9.96363 0.0132292 10.6372 3.59304e-05 11.3197C-0.000347578 11.335 0.00234229 11.3503 0.0079471 11.3645C0.0135519 11.3788 0.0219582 11.3918 0.0326707 11.4028C0.0433832 11.4138 0.0561852 11.4225 0.0703222 11.4285C0.0844592 11.4344 0.0996454 11.4375 0.114986 11.4375H0.977109C1.04033 11.4375 1.09062 11.3872 1.09206 11.3254C1.1208 10.2162 1.56623 9.1773 2.35363 8.3899C3.16834 7.57519 4.2503 7.12688 5.40267 7.12688C6.55505 7.12688 7.63701 7.57519 8.45172 8.3899C9.23912 9.1773 9.68455 10.2162 9.71329 11.3254C9.71473 11.3886 9.76502 11.4375 9.82824 11.4375H10.6904C10.7057 11.4375 10.7209 11.4344 10.735 11.4285C10.7492 11.4225 10.762 11.4138 10.7727 11.4028C10.7834 11.3918 10.7918 11.3788 10.7974 11.3645C10.803 11.3503 10.8057 11.335 10.8053 11.3197C10.7909 10.6329 10.6487 9.96471 10.3814 9.33392ZM5.40267 6.03486C4.74315 6.03486 4.12242 5.77766 3.65544 5.31068C3.18845 4.8437 2.93125 4.22297 2.93125 3.56344C2.93125 2.90392 3.18845 2.28319 3.65544 1.81621C4.12242 1.34922 4.74315 1.09202 5.40267 1.09202C6.0622 1.09202 6.68293 1.34922 7.14991 1.81621C7.61689 2.28319 7.87409 2.90392 7.87409 3.56344C7.87409 4.22297 7.61689 4.8437 7.14991 5.31068C6.68293 5.77766 6.0622 6.03486 5.40267 6.03486Z" fill="white"/>
</svg>
