<svg viewBox="0 0 12 12" fill="none" xmlns="http://www.w3.org/2000/svg">
<path d="M7.875 6.375H4.125C3.918 6.375 3.75 6.543 3.75 6.75C3.75 6.957 3.918 7.125 4.125 7.125H7.875C8.082 7.125 8.25 6.957 8.25 6.75C8.25 6.543 8.082 6.375 7.875 6.375ZM8.625 4.125H3.375C3.168 4.125 3 4.293 3 4.5C3 4.707 3.168 4.875 3.375 4.875H8.625C8.832 4.875 9 4.707 9 4.5C9 4.293 8.832 4.125 8.625 4.125ZM6 0C2.68651 0 0 2.35049 0 5.25C0 6.90714 0.879373 8.38237 2.25 9.34463V12L4.87837 10.4051C5.24214 10.4651 5.61637 10.5 6 10.5C9.31388 10.5 12 8.14951 12 5.25C12 2.35049 9.31388 0 6 0ZM6 9.75C5.562 9.75 5.139 9.699 4.73249 9.61237L2.96698 10.6736L2.99061 8.93437C1.63725 8.12026 0.75 6.77477 0.75 5.25C0.75 2.76488 3.10049 0.75 6 0.75C8.89951 0.75 11.25 2.76488 11.25 5.25C11.25 7.73512 8.89951 9.75 6 9.75Z" fill="white"/>
</svg>
