<svg viewBox="0 0 12 12" fill="none" xmlns="http://www.w3.org/2000/svg">
<path d="M0.343265 1.24711L0.36302 1.23476L2.86896 0L5.5737 3.60611L4.32906 5.26563C4.36668 5.88995 4.6312 6.47898 5.07283 6.92187C5.51447 7.36475 6.10275 7.63094 6.72696 7.67032L6.73437 7.67094L8.39389 6.4263L12 9.13104L10.7652 11.637L10.7529 11.6567C10.6226 11.8642 10.3954 12 10.1361 12H9.48727C4.24757 12 9.53674e-07 7.75243 9.53674e-07 2.51273V1.86634V1.86387C9.53674e-07 1.60457 0.135824 1.37737 0.340177 1.24896L0.343265 1.24711ZM0.926069 2.51273C0.926069 7.23321 4.76679 11.0739 9.48727 11.0739H10.0108L10.8301 9.41071L8.39389 7.58389L7.03751 8.60133H6.88316C5.95948 8.60018 5.07394 8.23279 4.42074 7.5797C3.76753 6.92661 3.39998 6.04114 3.39867 5.11746V4.96311L4.41611 3.60673L2.58929 1.17055L0.926069 1.98981V2.51273Z" fill="white"/>
</svg>
