<svg viewBox="0 0 42 39" fill="none" xmlns="http://www.w3.org/2000/svg">
<path d="M12.5 21.6216C6.175 21.6216 1 15.4795 1 7.92613C1 5.57386 1.49659 3.27386 2.46364 1.23523L2.56818 1H22.4318L22.5364 1.23523C23.5034 3.27386 24 5.6 24 7.92613C24 15.4795 18.8511 21.6216 12.5 21.6216ZM3.09091 1.78409C2.25455 3.66591 1.81023 5.78295 1.81023 7.92613C1.81023 15.0352 6.61932 20.8375 12.5261 20.8375C18.433 20.8375 23.242 15.0352 23.242 7.92613C23.242 5.78295 22.7977 3.66591 21.9614 1.78409H3.09091Z" fill="#83529B" stroke="#83529B"/>
<path d="M12.9677 21.2296H12.1836V37.8001H12.9677V21.2296Z" fill="#83529B" stroke="#83529B"/>
<path d="M30.2997 21.2295H29.5156V37.7999H30.2997V21.2295Z" fill="#83529B" stroke="#83529B"/>
<path d="M29.8281 21.6216C23.5031 21.6216 18.3281 15.4795 18.3281 7.92613C18.3281 5.57386 18.8247 3.27386 19.7918 1.23523L19.8963 1H39.7338L39.8383 1.23523C40.8054 3.27386 41.302 5.6 41.302 7.92613C41.3281 15.4795 36.1793 21.6216 29.8281 21.6216ZM20.419 1.78409C19.5827 3.66591 19.1384 5.78295 19.1384 7.92613C19.1384 15.0352 23.9474 20.8375 29.8543 20.8375C35.7611 20.8375 40.5702 15.0352 40.5702 7.92613C40.5702 5.78295 40.1258 3.66591 39.2895 1.78409H20.419Z" fill="#83529B" stroke="#83529B"/>
</svg>
