<svg viewBox="0 0 51 51" fill="none" xmlns="http://www.w3.org/2000/svg">
<path d="M48.2951 7.75411H40.0328V5.5246H40.4098C41.0098 5.5246 41.5853 5.28625 42.0095 4.86199C42.4338 4.43772 42.6721 3.8623 42.6721 3.2623C42.6721 2.6623 42.4338 2.08688 42.0095 1.66262C41.5853 1.23835 41.0098 1.00001 40.4098 1.00001H10.5847C10.2874 0.999286 9.9929 1.05731 9.71811 1.17075C9.44331 1.28418 9.19363 1.45079 8.98341 1.66101C8.77319 1.87123 8.60658 2.12091 8.49314 2.39571C8.37971 2.67051 8.32168 2.96501 8.3224 3.2623C8.32385 3.86186 8.56266 4.43644 8.98661 4.86039C9.41056 5.28434 9.98515 5.52315 10.5847 5.5246H10.9945V7.75411H2.70492C2.25275 7.75411 1.81909 7.93373 1.49936 8.25346C1.17962 8.5732 1 9.00685 1 9.45902V10.623C1.00898 13.868 1.99122 17.0358 3.81973 19.7167C5.64823 22.3976 8.23892 24.4684 11.2568 25.6612C11.7122 28.0161 12.7442 30.2215 14.2604 32.0801C15.7766 33.9386 17.7298 35.3924 19.9454 36.3115V42.2514H15.8415C15.4384 42.2494 15.0421 42.3557 14.694 42.5592C14.346 42.7627 14.059 43.056 13.863 43.4083C13.667 43.7606 13.5692 44.1591 13.5799 44.5622C13.5905 44.9652 13.7092 45.358 13.9235 45.6995C12.9976 45.7578 12.1286 46.1665 11.4932 46.8425C10.8578 47.5185 10.5037 48.4111 10.5027 49.3388C10.5027 49.5692 10.5943 49.7902 10.7572 49.9532C10.9202 50.1161 11.1412 50.2077 11.3716 50.2077H39.5628C39.7933 50.2077 40.0143 50.1161 40.1772 49.9532C40.3402 49.7902 40.4317 49.5692 40.4317 49.3388C40.4308 48.4119 40.0774 47.5201 39.4432 46.8443C38.8089 46.1684 37.9413 45.7591 37.0164 45.6995C37.2307 45.358 37.3494 44.9652 37.36 44.5622C37.3707 44.1591 37.2729 43.7606 37.0769 43.4083C36.8809 43.056 36.5939 42.7627 36.2459 42.5592C35.8978 42.3557 35.5015 42.2494 35.0984 42.2514H31.0219V36.3388C33.2512 35.4219 35.2175 33.9649 36.7438 32.0991C38.27 30.2333 39.3082 28.0172 39.765 25.6503C42.7767 24.4541 45.3611 22.3834 47.1853 19.705C49.0095 17.0267 49.9898 13.8635 50 10.623V9.45902C50 9.00685 49.8204 8.5732 49.5006 8.25346C49.1809 7.93373 48.7473 7.75411 48.2951 7.75411ZM9.4153 3.2623C9.41474 3.10794 9.44489 2.95501 9.50399 2.81242C9.56309 2.66982 9.64997 2.5404 9.75956 2.4317C9.86771 2.32326 9.99637 2.23745 10.138 2.17928C10.2797 2.12111 10.4316 2.09175 10.5847 2.0929H40.4098C40.72 2.0929 41.0174 2.21611 41.2367 2.43541C41.456 2.65472 41.5792 2.95216 41.5792 3.2623C41.5778 3.572 41.4541 3.86861 41.2351 4.0876C41.0161 4.3066 40.7195 4.43026 40.4098 4.4317H10.5847C10.2746 4.4317 9.97712 4.3085 9.75781 4.08919C9.53851 3.86989 9.4153 3.57245 9.4153 3.2623ZM2.0929 10.623V9.45902C2.0929 9.29671 2.15738 9.14104 2.27215 9.02626C2.38693 8.91148 2.5426 8.847 2.70492 8.847H10.9945V22.9016C10.996 23.402 11.0251 23.9018 11.082 24.3989C8.41382 23.2153 6.14527 21.2848 4.55019 18.8403C2.95511 16.3958 2.10167 13.5418 2.0929 10.623ZM39.3279 49.1148H11.6066C11.6626 48.4779 11.9551 47.8852 12.4264 47.4533C12.8977 47.0214 13.5137 46.7817 14.153 46.7814H36.7814C37.4207 46.7817 38.0367 47.0214 38.508 47.4533C38.9794 47.8852 39.2719 48.4779 39.3279 49.1148ZM36.2678 44.5137C36.2678 44.8238 36.1446 45.1213 35.9253 45.3406C35.7059 45.5599 35.4085 45.6831 35.0984 45.6831H15.8415C15.5314 45.6831 15.2339 45.5599 15.0146 45.3406C14.7953 45.1213 14.6721 44.8238 14.6721 44.5137C14.6721 44.2035 14.7953 43.9061 15.0146 43.6868C15.2339 43.4675 15.5314 43.3443 15.8415 43.3443H35.0984C35.4085 43.3443 35.7059 43.4675 35.9253 43.6868C36.1446 43.9061 36.2678 44.2035 36.2678 44.5137ZM30.2842 35.4536H30.2295C30.1386 35.4994 30.0622 35.5697 30.0091 35.6566C29.956 35.7435 29.9283 35.8435 29.929 35.9454V42.2295H21.0492V35.9727C21.05 35.8617 21.0169 35.7531 20.9544 35.6613C20.892 35.5695 20.803 35.499 20.6995 35.459C18.5251 34.6198 16.6058 33.2304 15.1297 31.4267C13.6536 29.623 12.6712 27.4668 12.2787 25.1694C12.1501 24.4204 12.0861 23.6616 12.0874 22.9016V5.5246H38.9399V22.9016C38.9417 23.6601 38.8758 24.4172 38.7432 25.1639C38.3497 27.4665 37.3625 29.6267 35.879 31.4312C34.3956 33.2357 32.4672 34.6221 30.2842 35.4536ZM48.9071 10.623C48.8963 13.5357 48.0457 16.3836 46.4571 18.8251C44.8685 21.2666 42.6095 23.1981 39.9508 24.388C40.0031 23.8942 40.0305 23.3982 40.0328 22.9016V8.847H48.2951C48.4574 8.847 48.6131 8.91148 48.7278 9.02626C48.8426 9.14104 48.9071 9.29671 48.9071 9.45902V10.623Z" fill="#83529B" stroke="#83529B" stroke-width="0.5"/>
<path d="M35.5081 14.3225H29.0327C28.9806 14.3227 28.9298 14.3065 28.8876 14.276C28.8454 14.2456 28.8139 14.2025 28.7977 14.1531L26.7977 7.9946C26.7101 7.72445 26.5391 7.489 26.3094 7.322C26.0797 7.15501 25.803 7.06506 25.519 7.06506C25.235 7.06506 24.9583 7.15501 24.7286 7.322C24.4989 7.489 24.3279 7.72445 24.2403 7.9946L22.2403 14.1531C22.2249 14.203 22.1936 14.2466 22.1512 14.2771C22.1088 14.3077 22.0576 14.3236 22.0053 14.3225H15.5299C15.2459 14.322 14.969 14.4116 14.739 14.5783C14.509 14.7449 14.3377 14.9802 14.2497 15.2503C14.1617 15.5203 14.1615 15.8113 14.2492 16.0815C14.3368 16.3517 14.5078 16.5872 14.7376 16.7542L19.978 20.5793C20.0209 20.6112 20.0525 20.656 20.0683 20.7071C20.084 20.7582 20.083 20.8129 20.0655 20.8635L18.0655 27.0001C17.9804 27.2692 17.9822 27.5584 18.0706 27.8264C18.1591 28.0945 18.3297 28.328 18.5583 28.4936C18.7868 28.6593 19.0617 28.7488 19.344 28.7495C19.6263 28.7502 19.9017 28.6619 20.131 28.4973L25.3715 24.6722C25.414 24.6403 25.4658 24.623 25.519 24.623C25.5722 24.623 25.624 24.6403 25.6665 24.6722L30.907 28.4973C31.1347 28.6662 31.4104 28.7581 31.6939 28.7596C31.9791 28.7581 32.2564 28.6663 32.4862 28.4973C32.717 28.3328 32.8889 28.0985 32.9765 27.829C33.064 27.5594 33.0627 27.2688 32.9726 27.0001L30.9726 20.8416C30.955 20.7911 30.954 20.7363 30.9698 20.6852C30.9855 20.6341 31.0171 20.5894 31.06 20.5574L36.3004 16.7323C36.5302 16.5653 36.7012 16.3298 36.7888 16.0597C36.8765 15.7895 36.8763 15.4985 36.7883 15.2284C36.7003 14.9583 36.529 14.7231 36.299 14.5564C36.069 14.3897 35.7921 14.3002 35.5081 14.3006V14.3225ZM35.6556 15.8689L30.4206 19.6941C30.1895 19.8584 30.0171 20.0924 29.9286 20.3618C29.8401 20.6313 29.8402 20.9219 29.9288 21.1913L31.9343 27.3498C31.9522 27.4008 31.9528 27.4562 31.936 27.5076C31.9192 27.559 31.886 27.6034 31.8414 27.6339C31.7992 27.6667 31.7473 27.6845 31.6939 27.6845C31.6404 27.6845 31.5885 27.6667 31.5463 27.6339L26.3059 23.8088C26.0775 23.6418 25.8019 23.5519 25.519 23.5519C25.2361 23.5519 24.9605 23.6418 24.7321 23.8088L19.4917 27.6339C19.4495 27.6667 19.3976 27.6845 19.3441 27.6845C19.2907 27.6845 19.2388 27.6667 19.1966 27.6339C19.1527 27.6028 19.12 27.5583 19.1033 27.5072C19.0866 27.456 19.0867 27.4009 19.1037 27.3498L21.0928 21.1749C21.1814 20.9056 21.1815 20.6149 21.093 20.3454C21.0045 20.076 20.8321 19.842 20.601 19.6777L15.366 15.8525C15.3204 15.8243 15.2861 15.7809 15.2691 15.73C15.2522 15.6791 15.2536 15.6238 15.2731 15.5738C15.2878 15.522 15.3195 15.4765 15.3631 15.4448C15.4067 15.4131 15.4597 15.3969 15.5135 15.399H22.0053C22.286 15.401 22.5602 15.3145 22.7888 15.1516C23.0175 14.9887 23.1888 14.7578 23.2786 14.4919L25.2786 8.32793C25.2942 8.27707 25.3264 8.23284 25.3699 8.20218C25.4134 8.17153 25.4658 8.15618 25.519 8.15854C25.5717 8.15546 25.6238 8.17063 25.6666 8.20148C25.7094 8.23234 25.7402 8.27699 25.754 8.32793L27.7594 14.4919C27.8471 14.7605 28.0174 14.9944 28.2461 15.1603C28.4748 15.3262 28.7501 15.4155 29.0327 15.4154H35.5081C35.562 15.4133 35.615 15.4295 35.6586 15.4612C35.7022 15.4929 35.7338 15.5383 35.7485 15.5902C35.7681 15.6402 35.7695 15.6955 35.7525 15.7464C35.7355 15.7973 35.7012 15.8407 35.6556 15.8689Z" fill="#83529B" stroke="#83529B" stroke-width="0.5"/>
</svg>
