<svg viewBox="0 0 51 46" fill="none" xmlns="http://www.w3.org/2000/svg">
<path d="M25.7363 1.00562C25.5601 1.0277 25.3986 1.11509 25.2837 1.25052C25.1688 1.38594 25.1088 1.55955 25.1157 1.73701V5.99239C25.1144 6.08637 25.1318 6.17968 25.1668 6.26689C25.2019 6.35411 25.2539 6.43349 25.3199 6.50042C25.3859 6.56735 25.4645 6.62049 25.5512 6.65677C25.6379 6.69304 25.731 6.71172 25.825 6.71172C25.919 6.71172 26.012 6.69304 26.0987 6.65677C26.1854 6.62049 26.2641 6.56735 26.3301 6.50042C26.3961 6.43349 26.4481 6.35411 26.4831 6.26689C26.5182 6.17968 26.5355 6.08637 26.5342 5.99239V1.73701C26.5382 1.63408 26.5198 1.53151 26.4802 1.43643C26.4405 1.34135 26.3807 1.25604 26.3047 1.18644C26.2288 1.11683 26.1386 1.0646 26.0405 1.03337C25.9423 1.00215 25.8385 0.992678 25.7363 1.00562ZM15.12 3.13331C15.002 3.14156 14.8879 3.1792 14.7881 3.24282C14.6884 3.30644 14.6061 3.394 14.5488 3.49754C14.4915 3.60108 14.4611 3.7173 14.4602 3.83563C14.4593 3.95395 14.4881 4.07061 14.5438 4.17499L15.9623 7.01191C16.0475 7.18237 16.1969 7.312 16.3778 7.37227C16.5586 7.43254 16.7559 7.41851 16.9264 7.33328C17.0968 7.24805 17.2265 7.09859 17.2867 6.91778C17.347 6.73698 17.333 6.53964 17.2477 6.36917L15.8293 3.53225C15.7663 3.40101 15.6644 3.29233 15.5376 3.22096C15.4107 3.14959 15.2649 3.11899 15.12 3.13331ZM36.4413 3.13331C36.3112 3.13649 36.1845 3.17539 36.075 3.24575C35.9656 3.31611 35.8776 3.41523 35.8207 3.53225L34.4022 6.36917C34.317 6.53964 34.303 6.73698 34.3632 6.91778C34.4235 7.09859 34.5531 7.24805 34.7236 7.33328C34.8941 7.41851 35.0914 7.43254 35.2722 7.37227C35.453 7.312 35.6025 7.18237 35.6877 7.01191L37.1062 4.17499C37.1653 4.064 37.1938 3.9393 37.1889 3.81364C37.1839 3.68799 37.1457 3.56591 37.078 3.45992C37.0103 3.35392 36.9157 3.26781 36.8038 3.21042C36.692 3.15303 36.5668 3.12642 36.4413 3.13331ZM9.40188 12.3755C9.22252 12.4108 9.06372 12.514 8.95861 12.6636L1.13492 23.302C1.03068 23.4459 0.984229 23.6236 1.00475 23.8001C1.02527 23.9766 1.11127 24.1389 1.24574 24.2551L9.20241 30.9927C7.75108 31.4373 6.67578 32.7699 6.67578 34.3616C6.67578 36.3117 8.27184 37.9077 10.2219 37.9077C10.7453 37.9077 11.2364 37.7812 11.6847 37.5753C11.8708 38.9584 13.0463 40.0354 14.4773 40.0354C14.7288 40.0354 14.9759 39.9871 15.2087 39.9246C15.2072 39.9621 15.1865 39.9976 15.1865 40.0354C15.1865 41.5938 16.4651 42.8723 18.0235 42.8723C18.5609 42.8723 19.056 42.7147 19.4862 42.4512C19.6332 43.8754 20.8183 45 22.2788 45C23.0078 45 23.6579 44.7043 24.1627 44.2465C24.9075 44.7622 25.6167 45 26.5342 45C27.4657 45 28.3254 44.5331 28.9722 43.8918C29.5381 43.3307 29.961 42.6155 30.0582 41.8085C30.4903 42.0369 30.9821 42.1631 31.4988 42.1631C32.9583 42.1631 34.178 41.1515 34.5574 39.7916C34.9264 39.9491 35.3326 40.0354 35.7542 40.0354C37.3469 40.0354 38.6629 38.8334 38.9014 37.2871C38.95 37.3239 39.0275 37.3869 39.0787 37.4201C39.6472 37.7889 40.3079 37.9077 40.9183 37.9077C41.786 37.9077 42.6381 37.6322 43.2676 37.0434C43.8971 36.4546 44.2649 35.5449 44.2649 34.4946C44.2433 33.3616 43.5 32.3476 42.5805 31.6798V31.6576L42.5362 31.6355L41.9378 31.1479L50.3821 24.2551C50.52 24.142 50.6102 23.9812 50.6349 23.8045C50.6595 23.6279 50.6167 23.4485 50.515 23.302L42.6913 12.6636C42.6148 12.5566 42.51 12.4729 42.3887 12.422C42.2673 12.3712 42.1343 12.355 42.0043 12.3755C41.9668 12.3799 41.9298 12.3873 41.8935 12.3976C37.585 13.8721 35.0434 13.7939 30.0804 13.7939C28.487 13.7939 27.1248 14.2186 25.825 15.0572C24.5223 14.2131 23.1693 13.7939 21.5696 13.7939C16.6065 13.7939 14.065 13.8721 9.7565 12.3976C9.64209 12.3603 9.52005 12.3526 9.40188 12.3755ZM9.82299 13.8826C14.0066 15.2327 16.8254 15.2124 21.5696 15.2124C22.7955 15.2124 23.7368 15.4775 24.7168 16.0546L18.91 22.5263C18.8264 22.6218 18.77 22.738 18.7466 22.8627C18.7232 22.9875 18.7337 23.1162 18.777 23.2355C19.1904 24.4757 20.0212 25.2204 20.8604 25.5627C21.6995 25.905 22.5148 25.8792 23.0546 25.8287C23.6596 25.7719 24.1944 25.4993 24.8276 25.1416C25.4609 24.7839 26.1479 24.3211 26.778 23.8783C27.785 23.1705 28.3244 22.7324 28.6397 22.482L41.694 32.788C41.7085 32.7959 41.7233 32.8033 41.7383 32.8101C42.3486 33.2418 42.8276 34.0576 42.8465 34.4946C42.8467 34.5016 42.8464 34.5118 42.8465 34.5167C42.8412 35.2346 42.6172 35.6979 42.2924 36.0017C41.9637 36.3091 41.4903 36.4893 40.9183 36.4893C40.5793 36.4893 40.0072 36.3224 39.8544 36.2233C39.9225 36.2673 39.6705 36.0878 39.389 35.8687C39.1075 35.6496 38.707 35.3361 38.2587 34.9822C37.3619 34.2744 36.2143 33.3679 35.0671 32.4555C32.7729 30.6306 30.5236 28.8429 30.5236 28.8429C30.3767 28.7253 30.189 28.6709 30.002 28.6917C29.815 28.7125 29.6438 28.8067 29.5263 28.9537C29.4087 29.1007 29.3543 29.2883 29.3751 29.4753C29.3959 29.6624 29.4901 29.8335 29.6371 29.9511C29.6371 29.9511 31.8849 31.7376 34.1806 33.5637C35.3284 34.4767 36.4949 35.4025 37.3943 36.1125C37.5106 36.2043 37.5766 36.2514 37.6824 36.3341C37.5819 36.46 37.5271 36.6163 37.5273 36.7774C37.5273 37.8083 36.7285 38.617 35.7542 38.617C35.3811 38.617 35.0426 38.4881 34.7568 38.2845C34.8027 38.3171 34.6381 38.1953 34.4465 38.0407C34.255 37.8861 33.9763 37.669 33.6708 37.4201C33.0599 36.9223 32.2807 36.2655 31.4988 35.6249C29.9351 34.3438 28.3959 33.0983 28.3959 33.0983C28.256 32.9743 28.0728 32.9106 27.8862 32.921C27.7447 32.9335 27.6103 32.9882 27.5002 33.0781C27.3902 33.1679 27.3097 33.2887 27.2691 33.4248C27.2285 33.5609 27.2297 33.706 27.2726 33.8414C27.3154 33.9768 27.3979 34.0963 27.5094 34.1843C27.5094 34.1843 29.0254 35.4511 30.5901 36.7331C31.3725 37.374 32.1715 38.029 32.7843 38.5283C32.9805 38.6882 33.1209 38.7866 33.2719 38.9051C33.2719 39.9359 32.4731 40.7446 31.4988 40.7446C31.1257 40.7446 30.7873 40.6157 30.5015 40.4122C30.4027 40.342 27.348 38.1123 25.559 36.6444C25.4871 36.5803 25.4028 36.5314 25.3113 36.501C25.2199 36.4705 25.1232 36.459 25.0271 36.4671C24.8874 36.4834 24.7557 36.5409 24.6488 36.6322C24.5418 36.7235 24.4644 36.8445 24.4264 36.9799C24.3884 37.1153 24.3915 37.259 24.4353 37.3926C24.4791 37.5262 24.5617 37.6438 24.6725 37.7304C26.0294 38.8438 27.6296 40.0465 28.6619 40.8111V41.4539C28.6619 41.9086 28.4046 42.4685 27.9748 42.8945C27.5451 43.3206 26.9705 43.5816 26.5342 43.5816C25.7573 43.5816 25.5187 43.5165 24.9384 43.094C25.041 42.8019 25.1157 42.4885 25.1157 42.1631C25.1157 40.6047 23.8372 39.3262 22.2788 39.3262C21.7414 39.3262 21.2463 39.4838 20.816 39.7473C20.669 38.3231 19.484 37.1985 18.0235 37.1985C17.7719 37.1985 17.5249 37.2468 17.2921 37.3093C17.2936 37.2718 17.3142 37.2363 17.3142 37.1985C17.3142 35.6401 16.0357 34.3616 14.4773 34.3616C14.2333 34.3616 13.9946 34.4134 13.7681 34.4724C13.7693 34.4347 13.7681 34.3995 13.7681 34.3616C13.7681 32.8503 12.8022 31.5671 11.4631 31.0592C11.4432 31.028 11.421 30.9984 11.3966 30.9706L2.68636 23.5902L9.82299 13.8826ZM41.827 13.8826L48.9636 23.6123L40.8075 30.2613L29.1052 21.0192C28.9769 20.9216 28.8192 20.8706 28.658 20.8746C28.4969 20.8787 28.3419 20.9375 28.2186 21.0414C28.2186 21.0414 27.1719 21.8724 25.958 22.7258C25.351 23.1524 24.7072 23.5804 24.1406 23.9004C23.574 24.2204 23.0419 24.4211 22.9216 24.4324C22.5126 24.4707 21.9117 24.4451 21.3923 24.2329C20.9655 24.0588 20.5955 23.7102 20.3063 23.1247L26.2461 16.4979C26.2552 16.4915 26.2591 16.4822 26.2682 16.4757C27.5141 15.5819 28.579 15.2124 30.0804 15.2124C34.8245 15.2124 37.6434 15.2327 41.827 13.8826ZM10.2219 32.2339C11.4054 32.2339 12.3496 33.1781 12.3496 34.3616C12.3496 35.5451 11.4054 36.4893 10.2219 36.4893C9.03844 36.4893 8.09424 35.5451 8.09424 34.3616C8.09424 33.1781 9.03844 32.2339 10.2219 32.2339ZM14.4773 35.78C15.2691 35.78 15.8958 36.4067 15.8958 37.1985C15.8958 37.9903 15.2691 38.617 14.4773 38.617C13.6855 38.617 13.0588 37.9903 13.0588 37.1985C13.0588 36.4067 13.6855 35.78 14.4773 35.78ZM18.0235 38.617C18.8152 38.617 19.4419 39.2436 19.4419 40.0354C19.4419 40.8272 18.8152 41.4539 18.0235 41.4539C17.2317 41.4539 16.605 40.8272 16.605 40.0354C16.605 39.2436 17.2317 38.617 18.0235 38.617ZM22.2788 40.7446C23.0706 40.7446 23.6973 41.3713 23.6973 42.1631C23.6973 42.9549 23.0706 43.5816 22.2788 43.5816C21.487 43.5816 20.8604 42.9549 20.8604 42.1631C20.8604 41.3713 21.487 40.7446 22.2788 40.7446Z" fill="#83529B" stroke="#83529B" stroke-width="0.5"/>
</svg>
