<svg viewBox="0 0 42 42" fill="none" xmlns="http://www.w3.org/2000/svg">
<path d="M41.418 37.3299L39.4126 34.6579C38.6812 33.6832 37.605 33.2002 36.3451 33.1459C35.7781 33.1529 35.2426 33.2912 34.7562 33.5222C34.7509 33.5169 34.7492 33.5099 34.7439 33.5047L25.2858 24.0465C25.284 24.0448 25.2858 24.0448 25.284 24.043L19.2662 18.0252C19.2644 18.0234 19.2627 18.0234 19.2627 18.0234L8.49559 7.25635C8.48859 7.2511 8.47984 7.24935 8.47459 7.24235C8.70732 6.75588 8.84557 6.22042 8.85257 5.65695C8.86831 4.43903 8.3171 3.32085 7.34066 2.5894L4.66858 0.584025C3.6869 -0.154428 2.33598 -0.194675 1.3088 0.484282C0.113623 1.27348 -0.327348 2.79588 0.255364 4.1048L1.61853 7.15486C2.08225 8.19604 2.97994 8.96424 4.07887 9.26172C4.40785 9.35097 4.74208 9.39471 5.07456 9.39471C5.85326 9.39471 6.61796 9.15323 7.26717 8.69126L6.75795 7.97905L7.27067 8.68776C7.30741 8.66326 7.33191 8.62826 7.36691 8.60201L12.9963 14.2314C12.5098 16.3943 12.2526 18.6656 12.2526 20.9982C12.2526 35.2896 21.002 41.5787 21.3748 41.8394C21.5253 41.9444 21.702 41.9969 21.877 41.9969C22.0537 41.9969 22.2305 41.9444 22.381 41.8394C22.5892 41.6907 27.2386 38.3414 29.8197 31.0548L33.3948 34.6299C33.379 34.6509 33.3563 34.6666 33.3405 34.6876L33.337 34.6911C33.3283 34.7033 33.3178 34.7174 33.309 34.7296C32.6458 35.657 32.4376 36.819 32.7368 37.9179C33.0343 39.0168 33.8025 39.9145 34.8419 40.3782L37.8937 41.7414C38.2839 41.9164 38.6882 41.9986 39.0889 41.9986C40.0408 41.9986 40.9595 41.5297 41.5177 40.6897C42.1949 39.6643 42.1564 38.3134 41.418 37.3299ZM6.25398 7.2651C5.75526 7.61858 5.1288 7.72882 4.54084 7.57133C3.94938 7.41209 3.46991 6.99912 3.21968 6.4409L1.85651 3.3891C1.62203 2.86588 1.80052 2.25867 2.27649 1.94194C2.47247 1.8142 2.69646 1.74945 2.92044 1.74945C3.16718 1.74945 3.41391 1.8282 3.6239 1.98044L6.29598 3.98581C6.8192 4.37953 7.11493 4.97975 7.10793 5.6342C7.09918 6.27466 6.8017 6.85738 6.25398 7.2651ZM19.2644 20.4995L23.6059 24.841C23.1142 25.7317 22.4894 26.2479 21.877 26.2479C20.6363 26.2479 19.2522 24.092 19.2522 20.9982C19.2522 20.832 19.2557 20.6657 19.2644 20.4995ZM21.877 40.0003C20.0659 38.4499 14.0025 32.404 14.0025 20.9982C14.0025 19.1871 14.16 17.4145 14.4715 15.7066L17.7088 18.9439C17.5828 19.6123 17.5023 20.2965 17.5023 20.9982C17.5023 24.9232 19.4236 27.9978 21.877 27.9978C23.0284 27.9978 24.0783 27.3171 24.8745 26.1096L28.4426 29.6777C26.5702 35.5485 23.1597 38.8996 21.877 40.0003ZM40.0566 39.7255C39.7398 40.2015 39.1309 40.3782 38.6094 40.1455L35.5576 38.7823C34.9994 38.5321 34.5882 38.0526 34.4272 37.4612C34.2662 36.8697 34.3782 36.2467 34.7334 35.748L34.7369 35.7445C35.1166 35.2126 35.7099 34.9028 36.3643 34.8958H36.3888C37.0345 34.8958 37.626 35.1898 38.0127 35.7078L40.0181 38.3799C40.3121 38.7753 40.3278 39.3161 40.0566 39.7255ZM14.8249 11.0116C15.2729 11.1883 15.7839 10.9766 15.9659 10.5304C17.8872 5.79869 20.7291 2.99887 21.8787 2.00143C23.6986 3.57808 29.7532 9.68169 29.7532 20.9982C29.7532 22.3911 29.6535 23.777 29.447 25.2365C29.3788 25.7142 29.713 26.1569 30.1907 26.2251C30.231 26.2321 30.273 26.2339 30.3132 26.2339C30.7419 26.2339 31.1164 25.9189 31.1776 25.4814C31.3946 23.9415 31.5014 22.4734 31.5014 20.9982C31.5014 6.85912 22.7589 0.430035 22.388 0.164052C22.0817 -0.054684 21.674 -0.054684 21.3678 0.164052C21.191 0.290044 16.993 3.35235 14.3437 9.87068C14.1617 10.3187 14.3787 10.8296 14.8249 11.0116ZM19.8559 14.7774C19.4814 15.0819 19.4236 15.6331 19.7281 16.0075C20.0309 16.3838 20.5821 16.4398 20.9583 16.1353C22.6539 14.7564 24.2848 17.2622 24.4668 20.4383C24.4948 20.9037 24.8798 21.2642 25.34 21.2642C25.3575 21.2642 25.375 21.2625 25.389 21.2642C25.872 21.238 26.2412 20.8232 26.2132 20.342C26.0032 16.6672 24.1781 14.0004 21.8752 14.0004C21.17 14.0004 20.4911 14.2612 19.8559 14.7774Z" fill="#83529B"/>
</svg>
