<svg viewBox="0 0 16 16" fill="none" xmlns="http://www.w3.org/2000/svg">
<path d="M6.29785 7.09459L6.51427 6.87817L6.41997 6.58699C5.8828 4.92832 6.314 3.10094 7.5535 1.86144C9.36875 0.0462025 12.3233 0.0461792 14.1386 1.86141C15.9538 3.67665 15.9538 6.63128 14.1386 8.44648L14.1384 8.4466C12.9029 9.68296 11.1121 10.0839 9.44862 9.54459L9.15954 9.45088L8.94323 9.66432L7.74798 10.8438H6.90398H6.40398V11.3438V12.1813L5.72671 12.1026L5.21907 12.0435L5.17115 12.5523L5.08066 13.5133L4.11966 13.6038L3.61115 13.6517L3.66985 14.1591L3.75054 14.8565L3.10752 15.5H0.5V12.8925L6.29785 7.09459ZM5.10673 13.5109L5.1066 13.5109L5.10673 13.5109ZM0.490898 12.9016L0.490989 12.9015C0.490958 12.9015 0.490927 12.9015 0.490896 12.9016L0.468779 12.8794L0.490898 12.9016ZM12.3536 6.34208L12.3536 6.34207C13.0972 5.59842 13.0972 4.39013 12.3536 3.64645C11.6099 2.90278 10.4016 2.90278 9.65791 3.64645C8.91424 4.39011 8.91424 5.59842 9.65791 6.34208C10.4016 7.08575 11.6099 7.08575 12.3536 6.34208Z" stroke="white"/>
</svg>
