<svg viewBox="0 0 52 32" fill="none" xmlns="http://www.w3.org/2000/svg">
<path d="M50.5373 27.0231H46.6039V3.08817C46.6039 1.95128 45.6784 1 44.5215 1H7.47848C6.34475 1 5.39611 1.92807 5.39611 3.08817V27.0463H1.48589C1.23137 27.0463 1 27.2551 1 27.5335V29.4919C1 30.3271 1.67099 31 2.50393 31H49.4961C50.329 31 51 30.3271 51 29.4919V27.5335C51 27.2551 50.7918 27.0231 50.5373 27.0231ZM6.36788 3.08817C6.36788 2.46172 6.87691 1.97448 7.47848 1.97448H44.5215C45.1462 1.97448 45.6321 2.48492 45.6321 3.08817V27.0231H6.36788V3.08817ZM50.0514 29.4687C50.0514 29.7703 49.7969 30.0023 49.5192 30.0023H2.52707C2.22628 30.0023 1.99491 29.7471 1.99491 29.4687V27.9975H22.3559C22.4947 28.3224 22.7261 28.5312 22.9806 28.5312H29.2277C29.4822 28.5312 29.7136 28.3224 29.8524 27.9975H50.0745V29.4687H50.0514Z" fill="#83529B" stroke="#83529B" stroke-width="0.5"/>
</svg>
