<svg viewBox="0 0 18 23" fill="none" xmlns="http://www.w3.org/2000/svg">
<path d="M2.23193 4.29469L2.2319 4.29473C0.679358 6.54138 0.324656 9.37971 1.27248 11.8859L1.27429 11.8908C1.51355 12.537 1.90285 13.1858 2.44261 13.8114L2.44583 13.8151L8.97857 21.4886L8.97882 21.4889C8.98415 21.4951 8.99183 21.4986 8.99974 21.4986C9.00756 21.4986 9.01531 21.4951 9.02071 21.4888L9.0209 21.4886L15.5555 13.8131L15.5555 13.813L15.559 13.8089C16.0955 13.1879 16.4855 12.5385 16.7273 11.8857L16.7273 11.8857L16.7291 11.881C17.6747 9.37995 17.3203 6.54158 15.7676 4.29473L15.7675 4.29469C14.2094 2.03967 11.7485 0.75 8.99974 0.75C6.25098 0.75 3.79003 2.03967 2.23193 4.29469Z" stroke="white" stroke-width="1.5"/>
<path d="M11.7803 9.38535C11.7803 7.85609 10.5349 6.61087 9.00579 6.61087C7.47671 6.61087 6.23131 7.85627 6.23131 9.38535C6.23131 10.9146 7.47649 12.1598 9.00579 12.1598C10.5351 12.1598 11.7803 10.9146 11.7803 9.38535Z" stroke="white" stroke-width="1.5"/>
</svg>
