<svg viewBox="0 0 43 43" xmlns="http://www.w3.org/2000/svg">
<circle cx="21.5" cy="21.5" r="21" />
<path d="M16.6674 16.2929L16.6674 16.293C15.4445 18.0625 15.1647 20.2988 15.9118 22.274L15.913 22.2773C16.103 22.7905 16.4113 23.3036 16.8367 23.7966L16.8389 23.7991L21.9199 29.7674L21.92 29.7675C21.94 29.791 21.9692 29.8045 21.9998 29.8045C22.0303 29.8045 22.0596 29.791 22.0796 29.7675L22.0797 29.7674L27.1622 23.7975L27.1621 23.7975L27.1645 23.7948C27.5875 23.3052 27.8964 22.7916 28.0883 22.2734L28.0883 22.2734L28.0895 22.2702C28.8348 20.2989 28.5551 18.0626 27.3322 16.293L27.3322 16.2929C26.1047 14.5165 24.165 13.5 21.9998 13.5C19.8346 13.5 17.8948 14.5165 16.6674 16.2929Z" />
<path d="M24.2461 20.2997C24.2461 19.0643 23.2402 18.0585 22.0048 18.0585C20.7695 18.0585 19.7636 19.0644 19.7636 20.2997C19.7636 21.5352 20.7694 22.541 22.0048 22.541C23.2403 22.541 24.2461 21.5352 24.2461 20.2997Z" />
</svg>
