<svg viewBox="0 0 70 55" fill="none" xmlns="http://www.w3.org/2000/svg">
<path d="M67.7953 9.6848C64.6457 3.9514 58.3858 0 51.1811 0C44.685 0 38.3858 3.15297 35 7.99537L30.748 4.1451C30.315 3.83518 29.8819 3.48653 29.4488 3.17662C26.4173 1.16218 22.7559 0 18.8189 0C14.2913 0 10.1575 1.54957 6.92913 4.10636C6.77165 4.22257 6.61417 4.37753 6.41732 4.53249C5.07874 5.65592 3.93701 6.97306 2.95276 8.40641C2.83465 8.60011 2.71654 8.75506 2.59843 8.94876C2.40157 9.29741 2.20472 9.64606 2.00787 9.99472C1.29921 11.3506 0.787402 12.8227 0.433071 14.3335C0.393701 14.5659 0.354331 14.7596 0.314961 14.9921C0.11811 16.038 0 17.1227 0 18.2074C0 18.866 0.0393701 19.5246 0.11811 20.1444C0.15748 20.3381 0.15748 20.5318 0.19685 20.7255C0.354331 21.9264 0.669291 23.0498 1.06299 24.1733C1.5748 25.8003 2.95276 27.931 3.22835 28.3184C3.22835 28.3571 3.26772 28.3571 3.26772 28.3958C3.38583 28.5508 3.50394 28.7058 3.58268 28.8607C3.58268 28.8995 3.62205 28.8995 3.62205 28.9382C3.74016 29.0931 3.85827 29.2481 3.97638 29.4031C4.01575 29.4418 4.05512 29.5193 4.09449 29.558C4.17323 29.6742 4.29134 29.7905 4.37008 29.9067C4.48819 30.0616 4.64567 30.2166 4.80315 30.3715L4.84252 30.4103C5.15748 30.7202 5.43307 31.0301 5.74803 31.34C5.7874 31.34 5.7874 31.3788 5.82677 31.3788L8.22835 33.3157L11.9685 36.3761L30.7087 51.6781L34.5669 54.8547C34.8032 55.0484 35.1968 55.0484 35.4331 54.8547L47.2835 45.1699L51.1811 41.9933L55.9449 38.0806L57.9134 36.4923L57.9921 36.4149L58.2677 36.1824L61.4567 33.5482L61.5354 33.4707L64.1732 31.3788C64.2126 31.3788 64.2126 31.34 64.252 31.34C66.063 29.6355 67.5591 27.5823 68.5433 25.2967C69.4882 23.1273 70 20.7642 70 18.2462C70 15.1083 69.2126 12.2029 67.7953 9.6848Z" />
</svg>
