<svg  viewBox="0 0 50 39" fill="none" xmlns="http://www.w3.org/2000/svg">
<path d="M47.9877 7.10951L47.9902 7.11402C48.9597 8.82383 49.5 10.799 49.5 12.9382C49.5 14.654 49.149 16.2613 48.5016 17.7368L48.5008 17.7387C47.8481 19.2433 46.8635 20.6057 45.6663 21.7504H45.6648L45.5287 21.8575L43.6446 23.3409L43.6236 23.3574L43.6045 23.3761L43.5638 23.4158L41.3027 25.27L41.2988 25.2733L41.102 25.4381L41.0873 25.4504L41.0736 25.4638L41.0349 25.5015L39.648 26.6124L39.6447 26.6151L36.2434 29.3884L36.242 29.3896L33.4594 31.6409L33.4589 31.6413L25.0054 38.4997C25.0051 38.4997 25.0048 38.4998 25.0045 38.4998C25.0031 38.4999 25.0016 38.5 25 38.5C24.9981 38.5 24.9963 38.4999 24.9947 38.4997L22.2512 36.2573L22.2496 36.2561L8.86418 25.4059L8.86378 25.4056L6.19265 23.2358L6.1899 23.2336L4.47449 21.8601L4.34908 21.7597C4.28083 21.6906 4.21332 21.6203 4.14308 21.5471L4.14069 21.5446C4.03673 21.4363 3.92659 21.3215 3.80833 21.206L3.80831 21.206L3.7802 21.1785C3.7802 21.1785 3.7802 21.1785 3.78019 21.1785C3.66529 21.0663 3.58258 20.9842 3.52445 20.9103C3.48325 20.8519 3.43783 20.7987 3.40854 20.7644L3.40344 20.7584C3.36429 20.7125 3.34776 20.6923 3.33762 20.6775L3.30959 20.6364L3.29553 20.6227C3.2955 20.6226 3.29547 20.6226 3.29544 20.6225C3.28962 20.614 3.27669 20.5949 3.26241 20.5757C3.2537 20.564 3.24045 20.5468 3.22321 20.5272L3.11031 20.3801L3.02318 20.2666C3.01852 20.258 3.01372 20.2498 3.00883 20.2418C3.00497 20.2355 3.0011 20.2295 2.99726 20.2238C2.94081 20.1164 2.86946 20.0146 2.80596 19.9296V19.9196L2.71238 19.7891C2.52197 19.5233 1.57664 18.0653 1.23592 16.99L1.23347 16.9823L1.23076 16.9746C0.956403 16.1974 0.742707 15.4363 0.636301 14.6308L0.633988 14.6133L0.630446 14.596C0.622217 14.5558 0.617315 14.5119 0.609886 14.4393L0.609132 14.4319C0.603033 14.3722 0.594678 14.2904 0.578228 14.2043C0.526281 13.7922 0.5 13.3524 0.5 12.9107C0.5 12.1776 0.580472 11.4399 0.716222 10.7239L0.716305 10.7239L0.717849 10.7148C0.731186 10.6367 0.74458 10.5647 0.758712 10.4887L0.758965 10.4874C0.772021 10.4172 0.785715 10.3437 0.799494 10.2637C1.04392 9.23378 1.39395 8.2386 1.87289 7.3272L2.07973 6.96351L2.28627 6.60036C2.31989 6.54604 2.35434 6.49544 2.39555 6.43505L2.3978 6.43176C2.43663 6.37487 2.48173 6.30878 2.52766 6.23474C3.20633 5.2553 3.98807 4.3621 4.89816 3.60284C4.9714 3.5453 5.03737 3.4884 5.09115 3.44201C5.09536 3.43838 5.0995 3.4348 5.10357 3.4313C5.16517 3.37821 5.20701 3.34286 5.24487 3.31512L5.25173 3.3101L5.25842 3.30484C7.47844 1.55942 10.3229 0.5 13.4421 0.5C16.1524 0.5 18.6694 1.29308 20.7523 2.66511C20.8978 2.76865 21.0444 2.87928 21.1976 2.99495L21.2004 2.99705C21.3457 3.1067 21.4971 3.22096 21.6497 3.33002L24.6657 6.04129L25.0845 6.41775L25.4088 5.95736C27.7246 2.66933 32.0644 0.5 36.5579 0.5C41.521 0.5 45.8254 3.20199 47.9877 7.10951ZM45.5168 21.879C45.5154 21.8803 45.5173 21.8784 45.5197 21.8761L45.5168 21.879ZM4.48324 21.879L4.48027 21.8761C4.48268 21.8784 4.48459 21.8803 4.48324 21.879ZM2.9225 20.1347C2.92115 20.1334 2.92308 20.1352 2.92542 20.1376L2.9225 20.1347Z" />
</svg>
