<svg viewBox="0 0 62 32" fill="none" xmlns="http://www.w3.org/2000/svg">
<path d="M59.3106 30.2433C59.5714 29.7964 59.7317 29.2845 59.7317 28.7318V19.6821C59.7317 17.8629 58.9197 16.232 57.6434 15.1221H58.2172C59.0527 15.1221 59.7317 14.4431 59.7317 13.6084V12.0999C59.7317 11.2645 59.0527 10.5855 58.2172 10.5855H54.8443L53.9483 8.90241C52.7469 6.64244 50.5005 5.2928 47.9396 5.2928H44.2317H36.2692H33.7189C31.158 5.2928 28.9117 6.64244 27.7095 8.90241L26.8135 10.5855H23.4405C22.6058 10.5855 21.9268 11.2645 21.9268 12.0999V13.6084C21.9268 14.4431 22.6058 15.1221 23.4405 15.1221H24.0144C22.7381 16.232 21.9268 17.8629 21.9268 19.6821V28.7318C21.9268 29.2845 22.0864 29.7964 22.3472 30.2433H12.0976V17.3904H17.1846C18.1312 17.3904 18.9024 16.6191 18.9024 15.6718V1.71722C18.9024 0.770585 18.1312 0.00012207 17.1846 0.00012207H3.23005C2.28341 0.00012207 1.5122 0.770585 1.5122 1.71722V15.671C1.5122 16.6191 2.28341 17.3904 3.23005 17.3904H7.56098V30.2433H0V31.7555H24.9437C24.9459 31.7555 24.9482 31.7562 24.9512 31.7562H26.505C26.5073 31.7562 26.5095 31.7555 26.5126 31.7555H55.1467C55.1498 31.7555 55.1513 31.7562 55.1543 31.7562H56.7073C56.7096 31.7562 56.7119 31.7555 56.7149 31.7555H62V30.2433H59.3106ZM3.23005 15.8782C3.11815 15.8782 3.02439 15.7837 3.02439 15.6718V1.71722C3.02439 1.60607 3.11815 1.51232 3.23005 1.51232H17.1838C17.2957 1.51232 17.3902 1.60607 17.3902 1.71722V15.671C17.3902 15.7837 17.2957 15.8782 17.1846 15.8782H3.23005ZM10.5854 30.2433H9.07317V17.3904H10.5854V30.2433ZM58.2195 12.0999L58.2172 13.6099H55.9512V12.6648L55.6495 12.0977L58.2195 12.0999ZM27.2195 13.0428L29.044 9.61315C29.9936 7.82876 31.6971 6.805 33.7189 6.805H36.2692H44.2317H47.9396C49.9607 6.805 51.6641 7.82876 52.6138 9.61315L54.439 13.0428V13.6862C54.1903 13.6552 53.9392 13.6341 53.6829 13.6341H27.9756C27.7193 13.6341 27.4675 13.6552 27.2195 13.6862V13.0428ZM52.7151 15.1455L49.7996 19.0795C49.1403 19.9687 48.1944 20.4382 47.0625 20.4382H35.0459C33.914 20.4382 32.9681 19.9687 32.3096 19.0795L29.3933 15.1455H52.7151ZM23.439 13.6084L23.4405 12.0977H26.0082L25.7073 12.6648V13.6099L23.439 13.6084ZM29.1067 30.2433C29.3646 29.8025 29.5256 29.2974 29.5294 28.7522C29.5324 28.3371 29.8719 27.9992 30.287 27.9992H30.4148H51.2438H51.3723C51.7874 27.9992 52.1269 28.3371 52.1299 28.7522C52.1337 29.2974 52.294 29.8025 52.5518 30.2433H29.1067ZM58.2195 28.7318C58.2195 29.5635 57.5443 30.2395 56.7149 30.2433H55.1467C54.3218 30.2395 53.6481 29.5673 53.6421 28.7424C53.6406 28.4808 53.5846 28.2328 53.5007 27.9999H57.4634V26.4877H51.3715H51.243H30.4148H30.287H24.1951V27.9999H28.1571C28.0739 28.2336 28.018 28.4816 28.0164 28.7424C28.0104 29.5681 27.336 30.2395 26.5118 30.2433H24.9437C24.1135 30.2395 23.439 29.5635 23.439 28.7318V19.6821C23.439 17.3321 25.2355 15.3943 27.5265 15.1682L31.0938 19.98C31.837 20.9826 32.8713 21.623 34.063 21.8513V21.9504H35.0459H47.0625H48.0455V21.8513C49.2371 21.6238 50.2707 20.9833 51.0139 19.98L54.5366 15.2279C56.6302 15.6294 58.2195 17.472 58.2195 19.6821V28.7318Z" fill="#83529B"/>
<path d="M26.9111 18.2817C25.4889 18.2817 24.332 19.4378 24.332 20.86C24.332 22.2823 25.4889 23.4391 26.9111 23.4391C28.3333 23.4391 29.4894 22.2823 29.4894 20.86C29.4894 19.4378 28.3333 18.2817 26.9111 18.2817ZM26.9111 21.9269C26.3228 21.9269 25.8442 21.4483 25.8442 20.86C25.8442 20.2725 26.3228 19.7939 26.9111 19.7939C27.4986 19.7939 27.9772 20.2725 27.9772 20.86C27.9772 21.4483 27.4986 21.9269 26.9111 21.9269Z" fill="#83529B"/>
<path d="M52.3047 20.86C52.3047 22.2823 53.4615 23.4391 54.8837 23.4391C56.306 23.4391 57.462 22.2823 57.462 20.86C57.462 19.4378 56.306 18.2817 54.8837 18.2817C53.4615 18.2817 52.3047 19.4378 52.3047 20.86ZM55.9498 20.86C55.9498 21.4483 55.4712 21.9269 54.8837 21.9269C54.2955 21.9269 53.8169 21.4483 53.8169 20.86C53.8169 20.2725 54.2955 19.7939 54.8837 19.7939C55.4712 19.7939 55.9498 20.2725 55.9498 20.86Z" fill="#83529B"/>
<path d="M10.6813 3.06458H7.44141V3.53411V10.6263V14.3985H8.9536V10.6263H10.6813C12.6471 10.6263 14.2455 9.11109 14.2455 7.24882V6.44206C14.2455 4.57979 12.6471 3.06458 10.6813 3.06458ZM12.7333 7.24882C12.7333 8.27711 11.8124 9.11411 10.6813 9.11411H8.9536V4.57677H10.6813C11.8124 4.57677 12.7333 5.41301 12.7333 6.44206V7.24882Z" fill="#83529B"/>
</svg>
