<svg  viewBox="0 0 27 20" fill="none" xmlns="http://www.w3.org/2000/svg">
<path fill-rule="evenodd" clip-rule="evenodd" d="M14.1081 18.8959V5.60568H0.410614C0.194736 5.60568 0.0195312 5.4303 0.0195312 5.2146C0.0195312 4.99872 0.194736 4.82352 0.410614 4.82352H9.00575L8.95761 2.60738H7.37954L7.26257 2.44417C6.66429 1.61003 6.72826 0.817783 7.27717 0.143904L7.39449 -1.52588e-05H13.1389L13.2543 0.179535C13.6494 0.793797 13.7266 1.52191 13.2724 2.39637L13.1631 2.60738H11.5652L11.6131 4.82352H14.4992C14.5125 4.82352 14.5259 4.82421 14.539 4.8256C14.7361 4.84559 14.8902 5.01228 14.8902 5.2146L14.8901 11.636C15.5313 11.2675 16.2599 11.1474 17.0502 11.2423C17.9289 11.3478 18.8854 11.7184 19.905 12.3043C19.9185 12.312 19.9319 12.3208 19.9444 12.3301C21.9464 13.8269 23.8177 13.4696 25.7295 12.0592C25.9032 11.9311 26.1482 11.968 26.2763 12.1418C26.4044 12.3155 26.3676 12.5605 26.1938 12.6886C24.1492 14.1972 21.9609 14.6788 19.6954 13.1145L19.4995 12.9737L19.1577 12.7851C18.3356 12.3502 17.6018 12.0964 16.9569 12.0189C16.229 11.9315 15.618 12.0685 15.1037 12.4257C15.0383 12.4712 14.9639 12.4938 14.8901 12.4955L14.8902 18.8959C14.8902 19.1116 14.7149 19.287 14.4992 19.287C14.2833 19.287 14.1081 19.1116 14.1081 18.8959ZM20.7635 16.5332L20.6566 16.4637L20.4641 16.3678C19.9912 16.1418 19.5753 16.013 19.2158 15.9741C18.811 15.9301 18.4847 16.0002 18.2171 16.1681C18.0342 16.2828 17.7926 16.2273 17.6779 16.0445C17.5632 15.8616 17.6186 15.62 17.8015 15.5053C18.2449 15.2274 18.7545 15.1373 19.3003 15.1964C19.8398 15.255 20.4203 15.4594 21.0306 15.7761C21.0438 15.7831 21.057 15.7909 21.0694 15.7992C21.6423 16.1861 22.1797 16.3188 22.6951 16.2807C23.2182 16.2423 23.7538 16.0254 24.3105 15.6543C24.49 15.5345 24.733 15.5832 24.8528 15.7629C24.9725 15.9424 24.9239 16.1854 24.7442 16.3052C24.117 16.7232 23.4525 17.0093 22.7524 17.0608C22.0886 17.1098 21.4236 16.9455 20.7635 16.5332ZM10.8308 4.82352L10.7658 1.82521H12.675L12.6838 1.80627C12.8295 1.4383 12.8272 1.14507 12.7393 0.890957L12.6932 0.78215L7.7774 0.78441C7.58638 1.08563 7.55718 1.40058 7.7708 1.78819L7.79444 1.82521H9.72291L9.78809 4.82352H10.8308Z" fill="#83529B"/>
</svg>
