<svg viewBox="0 0 53 53" fill="none" xmlns="http://www.w3.org/2000/svg">
<path d="M40.6542 25.7291L45.8026 51.0751C46.0077 52.0848 44.4932 52.3924 44.2881 51.3827L39.0772 25.7291H13.9228L8.71193 51.3827C8.50684 52.3924 6.99233 52.0848 7.19742 51.0751L12.3458 25.7291H9.20497L2.46405 39.2109C2.2732 39.5926 1.80904 39.7473 1.42733 39.5565C1.04562 39.3656 0.89089 38.9015 1.08174 38.5198L7.4771 25.7291H1.7729C1.34613 25.7291 1.00018 25.3831 1.00018 24.9564C1.00018 24.5296 1.34613 24.1836 1.7729 24.1836H51.2271C51.6539 24.1836 51.9998 24.5296 51.9998 24.9564C51.9998 25.3831 51.6539 25.7291 51.2271 25.7291H45.5229L51.9183 38.5198C52.1091 38.9015 51.9544 39.3656 51.5727 39.5565C51.191 39.7473 50.7268 39.5926 50.536 39.2109L43.795 25.7291H40.6542ZM34.2427 1.92851C34.0376 0.918832 35.5521 0.611198 35.7572 1.62087L38.1428 13.3655H48.1362C48.563 13.3655 48.9089 13.7115 48.9089 14.1382C48.9089 14.565 48.563 14.911 48.1362 14.911H4.86379C4.43702 14.911 4.09106 14.565 4.09106 14.1382C4.09106 13.7115 4.43702 13.3655 4.86379 13.3655H14.8572L17.2428 1.62087C17.4479 0.611198 18.9624 0.918832 18.7573 1.92851L16.4342 13.3655H36.5658L34.2427 1.92851ZM25.7273 1.77469C25.7273 1.34793 26.0732 1.00197 26.5 1.00197C26.9268 1.00197 27.2727 1.34793 27.2727 1.77469V6.41102C27.2727 6.83779 26.9268 7.18375 26.5 7.18375C26.0732 7.18375 25.7273 6.83779 25.7273 6.41102V1.77469ZM25.7273 31.1381C25.7273 30.7114 26.0732 30.3654 26.5 30.3654C26.9268 30.3654 27.2727 30.7114 27.2727 31.1381V35.7745C27.2727 36.2012 26.9268 36.5472 26.5 36.5472C26.0732 36.5472 25.7273 36.2012 25.7273 35.7745V31.1381ZM25.7273 45.0471C25.7273 44.6204 26.0732 44.2744 26.5 44.2744C26.9268 44.2744 27.2727 44.6204 27.2727 45.0471V49.6835C27.2727 50.1102 26.9268 50.4562 26.5 50.4562C26.0732 50.4562 25.7273 50.1102 25.7273 49.6835V45.0471Z" fill="#83529B" stroke="#83529B" stroke-width="0.5"/>
</svg>
