<svg viewBox="0 0 31 43" fill="none" xmlns="http://www.w3.org/2000/svg">
<path d="M13.4593 29.6437L7.96211 27.0428L5.06572 33.344H3.0619C2.6598 33.344 2.26165 33.4232 1.89016 33.577C1.51867 33.7309 1.18113 33.9565 0.89681 34.2408C0.612486 34.5251 0.386949 34.8626 0.233074 35.2341C0.0791995 35.6056 0 36.0038 0 36.4059C0 36.808 0.0791995 37.2061 0.233074 37.5776C0.386949 37.9491 0.612486 38.2866 0.89681 38.571C1.18113 38.8553 1.51867 39.0808 1.89016 39.2347C2.26165 39.3886 2.6598 39.4678 3.0619 39.4678H6.64396C7.33078 39.4666 8.00293 39.2689 8.58108 38.8982C9.15923 38.5274 9.61924 37.999 9.90683 37.3753L13.4593 29.6437ZM8.55912 36.7369C8.39036 37.1043 8.11958 37.4156 7.779 37.6335C7.43843 37.8515 7.0424 37.967 6.63805 37.9664H3.0619C2.64175 37.9664 2.23882 37.7995 1.94173 37.5024C1.64465 37.2053 1.47775 36.8024 1.47775 36.3822C1.47775 35.9621 1.64465 35.5591 1.94173 35.2621C2.23882 34.965 2.64175 34.7981 3.0619 34.7981H5.67456C5.77543 34.7981 5.8742 34.7692 5.95909 34.7147C6.04398 34.6602 6.11141 34.5824 6.15335 34.4907L8.68325 28.9935L11.5028 30.3353L9.44577 34.804L8.55912 36.7369Z" fill="#83529B"/>
<path d="M22.9814 9.61128C23.9321 9.61128 24.8615 9.32928 25.6519 8.80097C26.4423 8.27266 27.0583 7.52177 27.4218 6.64331C27.7854 5.76485 27.8802 4.79829 27.6943 3.86593C27.5084 2.93357 27.0501 2.0773 26.3774 1.40545C25.7048 0.733606 24.8479 0.27638 23.9153 0.0916218C22.9827 -0.0931368 22.0163 0.00287393 21.1383 0.367508C20.2603 0.732142 19.5101 1.34901 18.9828 2.14007C18.4555 2.93113 18.1746 3.86084 18.1758 4.81155C18.1774 6.08506 18.6843 7.30588 19.5854 8.20583C20.4865 9.10578 21.7079 9.61128 22.9814 9.61128ZM22.9814 1.53686C23.6303 1.53218 24.266 1.72039 24.8078 2.07762C25.3495 2.43485 25.7729 2.94499 26.0242 3.54328C26.2755 4.14157 26.3434 4.80103 26.2193 5.43797C26.0951 6.07491 25.7845 6.66061 25.3269 7.12072C24.8693 7.58082 24.2853 7.8946 23.649 8.02221C23.0128 8.14983 22.353 8.08553 21.7533 7.83748C21.1537 7.58942 20.6412 7.1688 20.2811 6.629C19.9209 6.08921 19.7292 5.45457 19.7304 4.80564C19.7304 3.94122 20.0721 3.11185 20.6811 2.4984C21.2902 1.88496 22.117 1.53719 22.9814 1.53095V1.53686Z" fill="#83529B"/>
<path d="M6.03963 20.8777C6.49944 20.8834 6.95393 20.779 7.36523 20.5734C7.77652 20.3677 8.13269 20.0667 8.40403 19.6955L8.50452 19.5654L10.201 15.8474H13.0383L10.1241 22.1958C9.73396 23.0552 9.69211 24.0323 10.0074 24.9219C10.3226 25.8114 10.9704 26.5441 11.8147 26.966L20.3561 31.1333V39.852C20.3561 40.6601 20.6771 41.4352 21.2485 42.0066C21.82 42.5781 22.595 42.8991 23.4032 42.8991C24.2113 42.8991 24.9864 42.5781 25.5578 42.0066C26.1293 41.4352 26.4503 40.6601 26.4503 39.852V29.1531C26.4499 28.5585 26.2838 27.9758 25.9705 27.4704C25.6573 26.9651 25.2093 26.557 24.677 26.2922L18.6596 23.3367L20.5984 19.1044L21.6269 20.1447C21.9566 20.4795 22.3495 20.7454 22.7828 20.927C23.216 21.1087 23.6811 21.2024 24.1509 21.2028H26.9114C27.7081 21.205 28.4747 20.8983 29.05 20.3472C29.6254 19.796 29.9648 19.0434 29.9969 18.2473C30.0163 17.838 29.9547 17.429 29.8157 17.0435C29.6768 16.6581 29.4632 16.3039 29.1871 16.0011C28.9033 15.7013 28.5615 15.4623 28.1825 15.2987C27.8035 15.1351 27.3951 15.0503 26.9823 15.0494H25.209L22.5077 12.3777C22.3461 12.2168 22.1582 12.0848 21.952 11.9875L17.5129 9.87732C17.2484 9.75304 16.9598 9.68846 16.6676 9.68817H7.65333C7.26276 9.68813 6.88025 9.79928 6.55052 10.0086C6.22079 10.218 5.95748 10.5169 5.79137 10.8704L2.83587 17.3725C2.7029 17.678 2.64944 18.0122 2.68044 18.344C2.71145 18.6758 2.82592 18.9943 3.0132 19.2699C3.35552 19.7572 3.80803 20.1568 4.33392 20.4361C4.85981 20.7155 5.44423 20.8668 6.03963 20.8777ZM4.17767 18.0168L7.13317 11.5147C7.17979 11.4139 7.25387 11.3283 7.34692 11.2676C7.43996 11.207 7.54821 11.1738 7.65925 11.1718H16.6676C16.7455 11.1725 16.8223 11.1907 16.8922 11.225L21.3255 13.3353C21.3801 13.3601 21.4301 13.3941 21.4732 13.4357L24.4287 16.3912C24.5257 16.489 24.6575 16.5442 24.7952 16.5449H26.9646C27.1793 16.5462 27.3915 16.5911 27.5883 16.6769C27.7851 16.7627 27.9625 16.8876 28.1095 17.0441C28.2566 17.2005 28.3703 17.3853 28.4438 17.587C28.5172 17.7888 28.5489 18.0034 28.5369 18.2177C28.5025 18.6248 28.315 19.0037 28.0122 19.278C27.7095 19.5522 27.3139 19.7014 26.9054 19.6955H24.145C23.5998 19.6968 23.0758 19.4846 22.685 19.1044L20.6989 17.0946C20.6394 17.0344 20.5661 16.9896 20.4854 16.9641C20.4047 16.9386 20.319 16.9332 20.2357 16.9483C20.1524 16.9635 20.0741 16.9987 20.0075 17.051C19.9409 17.1033 19.8881 17.171 19.8536 17.2483L16.9277 23.5908C16.8686 23.7172 16.8614 23.8618 16.9079 23.9933C16.9543 24.1249 17.0506 24.233 17.1759 24.2942L24.0268 27.6399C24.3099 27.7788 24.5485 27.9941 24.7156 28.2615C24.8827 28.5289 24.9717 28.8377 24.9726 29.1531V39.852C24.9741 40.06 24.9347 40.2663 24.8565 40.4591C24.7783 40.6519 24.6629 40.8274 24.5169 40.9756C24.3709 41.1238 24.1972 41.2418 24.0056 41.3229C23.814 41.4039 23.6083 41.4464 23.4002 41.448C23.1922 41.4464 22.9865 41.4039 22.7949 41.3229C22.6033 41.2418 22.4295 41.1238 22.2835 40.9756C22.1375 40.8274 22.0221 40.6519 21.944 40.4591C21.8658 40.2663 21.8263 40.06 21.8279 39.852V30.5303C21.8283 30.4309 21.8008 30.3333 21.7486 30.2487C21.6964 30.164 21.6214 30.0958 21.5324 30.0515L15.3554 27.0369L12.4531 25.6065C11.9587 25.3603 11.5786 24.9324 11.3924 24.4124C11.2063 23.8924 11.2284 23.3206 11.4541 22.8165L11.9447 21.7407L15.0007 15.1026C15.0325 15.0218 15.0441 14.9345 15.0344 14.8482C15.0247 14.7619 14.9941 14.6793 14.9451 14.6076C14.8961 14.5358 14.8303 14.4772 14.7535 14.4368C14.6766 14.3963 14.591 14.3753 14.5042 14.3756H9.58623C9.48535 14.3755 9.38659 14.4045 9.3017 14.459C9.21681 14.5135 9.14938 14.5912 9.10744 14.683L7.22774 18.8207C6.18741 20.1743 3.84074 18.7202 4.17176 17.999L4.17767 18.0168Z" fill="#83529B"/>
</svg>
