<svg viewBox="0 0 24 24" fill="none" xmlns="http://www.w3.org/2000/svg">
<path d="M22.9729 6.36434C22.9414 6.29868 22.885 6.24819 22.8161 6.22402L19.5219 5.06741L19.6196 4.78885C19.8379 4.16687 19.4511 3.46271 18.7571 3.21913L18.1416 3.00335C18.2853 2.19526 17.8258 1.37656 17.0267 1.09619C16.2279 0.815946 15.3572 1.16843 14.9647 1.88897L14.3492 1.67305C13.6551 1.42987 12.9132 1.73777 12.695 2.35975L12.5981 2.63613L9.30439 1.47955C9.23524 1.45498 9.16004 1.45928 9.09411 1.4911C9.02845 1.52266 8.97796 1.57905 8.95379 1.6478L6.76059 7.89398L6.18445 3.25767C6.17546 3.18529 6.13813 3.1195 6.08066 3.07465C6.02305 3.02993 5.95094 3.00912 5.87763 3.01879L1.24102 3.59498C1.09036 3.61364 0.983343 3.75101 1.00214 3.90181L3.34542 22.759C3.35442 22.8313 3.39175 22.8971 3.44922 22.942C3.49783 22.9797 3.55731 23 3.61827 23C3.62955 23 3.64083 22.9993 3.65225 22.9979L8.28885 22.4217C8.43951 22.403 8.54653 22.2656 8.52773 22.1148L8.25733 19.9388L10.7412 20.8109L10.4799 22.4339C10.4557 22.5839 10.5577 22.725 10.7076 22.7492L12.2436 22.9965C12.2582 22.9988 12.2729 23 12.2874 23C12.3448 23 12.4012 22.982 12.4485 22.9479C12.5076 22.9052 12.5473 22.8407 12.5589 22.7688L12.76 21.5198L16.9311 22.9844C16.9606 22.9949 16.9914 23 17.0221 23C17.063 23 17.1036 22.9909 17.1412 22.9729C17.2069 22.9413 17.2574 22.8849 17.2816 22.816L18.1623 20.3077C18.5107 20.4105 18.8713 20.462 19.2319 20.462C20.1959 20.462 21.1604 20.0947 21.8947 19.3604C22.6055 18.6496 22.9972 17.7049 22.9979 16.7C22.9986 15.6952 22.6078 14.7509 21.8976 14.0408C21.5307 13.6738 21.106 13.3989 20.6525 13.2158L22.9845 6.57462C23.0086 6.50574 23.0045 6.43014 22.9729 6.36434ZM14.1671 2.19217L15.0213 2.49174C15.09 2.51578 15.1657 2.51148 15.2314 2.48006C15.2972 2.44837 15.3477 2.39198 15.3719 2.32323C15.4739 2.03197 15.6834 1.79793 15.9616 1.66418C16.2394 1.53058 16.5534 1.51299 16.8446 1.61531C17.4459 1.82626 17.7633 2.48691 17.5524 3.08808C17.5284 3.15696 17.5325 3.23256 17.5641 3.29822C17.5956 3.36402 17.6522 3.41451 17.7209 3.43868L18.5751 3.73812C18.9827 3.88126 19.2185 4.27094 19.1006 4.60677L18.7034 5.73941L12.8167 3.67447L13.2142 2.54183C13.332 2.20587 13.7601 2.04957 14.1671 2.19217ZM12.2184 3.9621C12.2499 4.02789 12.3064 4.07838 12.3752 4.10255L18.7809 6.34957C18.8104 6.35991 18.8412 6.36502 18.8719 6.36502C18.9128 6.36502 18.9536 6.35588 18.991 6.33789C19.0568 6.30633 19.1073 6.2498 19.1315 6.18105L19.34 5.58633L20.356 5.94308L17.7975 13.2296C17.3539 13.4131 16.9381 13.6837 16.5779 14.0437C15.8671 14.7545 15.4754 15.6993 15.4747 16.7041C15.4743 17.3493 15.6372 17.9688 15.9405 18.5182L15.5428 19.6507L13.1937 18.8259L14.2457 12.2918C14.2578 12.2934 14.2698 12.2946 14.2817 12.2946C14.4143 12.2946 14.5311 12.1985 14.5529 12.0634L15.2043 8.01768L15.8504 8.12165L15.0203 13.2774C14.9962 13.4274 15.0982 13.5685 15.2481 13.5927C15.263 13.5951 15.2776 13.5962 15.2922 13.5962C15.4248 13.5962 15.5416 13.5 15.5633 13.365L16.4372 7.93769C16.4488 7.86558 16.4313 7.792 16.3886 7.73278C16.3459 7.6737 16.2815 7.63395 16.2093 7.6224L15.2917 7.47469L15.4069 6.75953C15.4185 6.68742 15.401 6.61383 15.3583 6.55462C15.3156 6.49553 15.2511 6.45579 15.1792 6.44424L13.1159 6.11203C12.9649 6.08773 12.8247 6.18992 12.8006 6.33977L11.9466 11.6436C11.935 11.7158 11.9525 11.7893 11.9952 11.8486C12.0363 11.9054 12.0981 11.943 12.1668 11.9561L11.1749 18.1169L7.8875 16.9626L7.50563 13.8896L11.4 2.79832L12.416 3.15508L12.2067 3.75195C12.1826 3.82084 12.1868 3.89643 12.2184 3.9621ZM18.8933 13.5123C18.8269 14.2442 18.5108 14.9286 17.9881 15.4513C17.4643 15.9751 16.7783 16.2914 16.0447 16.3569C16.1228 15.6304 16.4426 14.9569 16.9668 14.4326C17.5056 13.8939 18.1894 13.5882 18.8933 13.5123ZM12.5334 11.4597L13.2998 6.69883L14.8201 6.94349L14.0537 11.7043L12.5334 11.4597ZM9.3816 2.08958L10.8811 2.61612L7.35325 12.6635L6.91294 9.12008L9.3816 2.08958ZM3.85729 22.4182L1.58182 4.10685L5.67259 3.59847L5.90806 5.49343L4.5609 5.66086C4.41024 5.67952 4.30322 5.81689 4.32202 5.96768C4.33921 6.1068 4.45778 6.20871 4.59447 6.20871C4.60588 6.20871 4.6173 6.20804 4.62885 6.20657L5.97589 6.03915L6.2554 8.28856L4.90828 8.456C4.75762 8.47467 4.6506 8.61204 4.6694 8.76283C4.68672 8.90194 4.80515 9.00386 4.94185 9.00386C4.95326 9.00386 4.96467 9.00319 4.97622 9.00171L6.32321 8.83428L6.60274 11.0837L5.25565 11.2511C5.10499 11.2698 4.99798 11.4072 5.01677 11.558C5.03396 11.6971 5.15253 11.799 5.28922 11.799C5.30064 11.799 5.31205 11.7983 5.3236 11.7969L6.67055 11.6294L6.95009 13.8789L5.60303 14.0463C5.45237 14.065 5.34535 14.2023 5.36415 14.3531C5.38147 14.4922 5.49991 14.5942 5.6366 14.5942C5.64801 14.5942 5.65943 14.5935 5.67097 14.592L7.0179 14.4246L7.29743 16.674L5.95027 16.8414C5.79961 16.8601 5.69259 16.9975 5.71139 17.1483C5.72858 17.2874 5.84715 17.3893 5.98384 17.3893C5.99525 17.3893 6.00667 17.3886 6.01822 17.3871L7.36524 17.2197L7.64477 19.4691L6.29765 19.6366C6.14699 19.6553 6.03997 19.7926 6.05877 19.9434C6.07596 20.0825 6.19452 20.1844 6.33122 20.1844C6.34263 20.1844 6.35404 20.1838 6.36559 20.1823L7.71258 20.0149L7.94805 21.9098L3.85729 22.4182ZM8.1816 19.3294L7.96321 17.572L11.0861 18.6685L10.83 20.2593L8.1816 19.3294ZM12.0596 22.4097L11.0665 22.2499L12.7096 12.0451L13.7026 12.205L12.0596 22.4097ZM16.8537 22.3744L12.8488 20.9681L13.1049 19.3775L15.62 20.2607C15.6502 20.2713 15.681 20.2764 15.7112 20.2764C15.8246 20.2764 15.9309 20.2055 15.9706 20.0925L16.3238 19.0866C16.4025 19.1823 16.4862 19.2747 16.575 19.3635C16.895 19.6835 17.2604 19.9293 17.6491 20.1095L16.8537 22.3744ZM21.5058 18.9715C20.9825 19.4947 20.3221 19.7965 19.6396 19.8832C19.7174 19.1734 20.0307 18.5115 20.5394 18.0027C21.0482 17.494 21.7099 17.1807 22.4197 17.1029C22.3313 17.8079 22.0164 18.4607 21.5058 18.9715ZM22.4407 16.5493C21.5762 16.6249 20.7676 16.9969 20.1505 17.6138C19.5333 18.2312 19.1613 19.0403 19.0859 19.9052C18.3137 19.8703 17.5519 19.5627 16.9639 18.9746C16.4065 18.4172 16.0832 17.69 16.0346 16.9096C16.9187 16.8449 17.7476 16.4696 18.377 15.8401C19.0054 15.2117 19.3804 14.3845 19.446 13.5018C20.1978 13.5496 20.9359 13.8568 21.5088 14.4297C22.0791 15 22.4043 15.7483 22.4407 16.5493ZM20.1273 13.052C19.5772 12.9193 19.0041 12.9103 18.451 13.0282L20.8749 6.12529L22.3744 6.65183L20.1273 13.052Z" fill="#83529B" stroke="#83529B" stroke-width="0.2"/>
</svg>
