<svg  viewBox="0 0 37 38" fill="none" xmlns="http://www.w3.org/2000/svg">
<path d="M36.1808 12.4398L32.6167 6.27075C32.4143 5.91268 32.0901 5.63908 31.7031 5.49963C31.3161 5.36019 30.8919 5.36415 30.5075 5.5108L26.4761 7.13637C25.7239 6.59297 24.9193 6.126 24.0743 5.74244L23.4647 1.4631C23.4103 1.05627 23.2095 0.683242 22.8997 0.413914C22.59 0.144587 22.1927 -0.00254863 21.7823 8.17861e-05H14.6297C14.2215 -0.00394167 13.8257 0.140607 13.5162 0.406786C13.2066 0.672966 13.0044 1.04262 12.9472 1.44685L12.3336 5.73838C11.4914 6.12492 10.6885 6.59172 9.93584 7.13231L5.89628 5.50673C5.51701 5.35733 5.09647 5.35034 4.71245 5.48706C4.32843 5.62378 4.00692 5.89496 3.80741 6.25043L0.231134 12.4358C0.0250623 12.7903 -0.0464568 13.2073 0.0296619 13.6102C0.105781 14.0132 0.324448 14.3753 0.645657 14.6303L4.05937 17.3003C3.95418 18.2253 3.95418 19.1592 4.05937 20.0841L0.641593 22.7582C0.324826 23.0156 0.109993 23.3774 0.0355355 23.7787C-0.0389225 24.18 0.031853 24.5947 0.235198 24.9487L3.80334 31.1177C4.00644 31.4752 4.33065 31.7483 4.71745 31.8876C5.10424 32.027 5.52811 32.0235 5.91253 31.8777L9.94397 30.2521C10.6963 30.7954 11.5008 31.2624 12.3458 31.646L12.9472 35.9254C13.0016 36.3322 13.2025 36.7052 13.5122 36.9746C13.8219 37.2439 14.2193 37.391 14.6297 37.3884H21.7823C22.1898 37.3914 22.5846 37.2464 22.8933 36.9804C23.202 36.7143 23.4036 36.3452 23.4607 35.9416L24.0743 31.6542C24.9165 31.2677 25.7195 30.8009 26.472 30.2602L30.5116 31.8858C30.891 32.0343 31.3112 32.0409 31.695 31.9042C32.0788 31.7676 32.4003 31.497 32.6005 31.1421L36.1849 24.9365C36.3852 24.5828 36.4531 24.1694 36.3764 23.7703C36.2997 23.3712 36.0834 23.0124 35.7663 22.7582L32.3526 20.0882C32.4567 19.1632 32.4567 18.2294 32.3526 17.3044L35.7704 14.6303C36.0885 14.3739 36.3046 14.0124 36.3799 13.6108C36.4551 13.2092 36.3845 12.794 36.1808 12.4398ZM34.7625 13.3502L30.9912 16.3006C30.8809 16.3871 30.7949 16.5007 30.7415 16.6303C30.6881 16.7599 30.6691 16.9011 30.6864 17.0402C30.8446 18.1359 30.8446 19.2486 30.6864 20.3442C30.6691 20.4833 30.6881 20.6245 30.7415 20.7541C30.7949 20.8837 30.8809 20.9973 30.9912 21.0838L34.7625 24.0302C34.7728 24.0451 34.7783 24.0629 34.7783 24.081C34.7783 24.0992 34.7728 24.1169 34.7625 24.1318L31.2065 30.3415C31.1997 30.3541 31.1885 30.3639 31.1752 30.3691C31.1618 30.3743 31.147 30.3746 31.1334 30.37L26.6631 28.5818C26.5331 28.5297 26.3918 28.512 26.2529 28.5305C26.1141 28.549 25.9824 28.6031 25.8706 28.6875C24.997 29.3572 24.0409 29.9117 23.0258 30.3375C22.8947 30.3913 22.78 30.4786 22.693 30.5905C22.606 30.7024 22.5499 30.8351 22.53 30.9755L21.8595 35.7222C21.8595 35.7222 21.831 35.7628 21.7904 35.7628H14.6297C14.613 35.7652 14.5961 35.761 14.5825 35.7512C14.5688 35.7413 14.5595 35.7266 14.5566 35.71L13.8779 30.9714C13.858 30.8311 13.8018 30.6984 13.7149 30.5864C13.6279 30.4745 13.5132 30.3873 13.3821 30.3334C12.3657 29.9206 11.409 29.3739 10.5373 28.7078C10.4237 28.6191 10.2886 28.5622 10.1458 28.5429C10.0029 28.5236 9.85756 28.5427 9.72452 28.5981L5.32326 30.3578C5.30346 30.3642 5.28213 30.3641 5.26239 30.3575C5.24265 30.3509 5.22553 30.3382 5.21353 30.3212L1.64539 24.1521C1.63348 24.1355 1.62707 24.1156 1.62707 24.0952C1.62707 24.0748 1.63348 24.0549 1.64539 24.0383L5.41673 21.0879C5.527 21.0014 5.61302 20.8878 5.66643 20.7582C5.71983 20.6286 5.73882 20.4874 5.72153 20.3483C5.64776 19.7999 5.60839 19.2475 5.60367 18.6942C5.60859 18.1423 5.64796 17.5913 5.72153 17.0443C5.73882 16.9052 5.71983 16.764 5.66643 16.6344C5.61302 16.5048 5.527 16.3912 5.41673 16.3046L1.64945 13.3542C1.63629 13.3406 1.62894 13.3224 1.62894 13.3034C1.62894 13.2845 1.63629 13.2663 1.64945 13.2526L5.23385 7.04697C5.24074 7.03437 5.25186 7.02461 5.26524 7.01941C5.27863 7.0142 5.29342 7.01389 5.30701 7.01852L9.77735 8.80666C9.90735 8.85883 10.0486 8.87651 10.1875 8.858C10.3263 8.83949 10.458 8.7854 10.5698 8.701C11.4433 8.03114 12.3994 7.47659 13.4146 7.05103C13.5457 6.99715 13.6604 6.90991 13.7474 6.79799C13.8344 6.68606 13.8905 6.55334 13.9104 6.41299L14.5444 1.6663C14.5444 1.6663 14.5728 1.62566 14.6134 1.62566H21.766C21.7827 1.62329 21.7996 1.62747 21.8132 1.63732C21.8269 1.64717 21.8362 1.66193 21.8391 1.67849L22.5178 6.41706C22.5377 6.55741 22.5938 6.69013 22.6808 6.80205C22.7678 6.91398 22.8825 7.00121 23.0136 7.0551C24.03 7.46804 24.9866 8.01472 25.8584 8.68068C25.972 8.76938 26.1071 8.82629 26.2499 8.84558C26.3928 8.86486 26.5381 8.84581 26.6712 8.7904L31.0887 7.03071C31.1084 7.02361 31.13 7.02336 31.1499 7.02999C31.1698 7.03662 31.1869 7.04976 31.1984 7.06729L34.7666 13.2364C34.7779 13.2534 34.7836 13.2735 34.7829 13.2939C34.7821 13.3143 34.775 13.334 34.7625 13.3502Z" fill="#83529B"/>
<path d="M18.2035 9.72107C16.429 9.72187 14.6945 10.2488 13.2194 11.2353C11.7443 12.2218 10.5948 13.6235 9.91626 15.2632C9.23772 16.9029 9.0606 18.707 9.40729 20.4473C9.75398 22.1877 10.6089 23.7862 11.864 25.0407C13.1191 26.2952 14.718 27.1494 16.4585 27.4953C18.199 27.8412 20.003 27.6633 21.6424 26.984C23.2818 26.3048 24.683 25.1546 25.6688 23.6791C26.6546 22.2035 27.1808 20.4688 27.1808 18.6943C27.1775 16.3147 26.2306 14.0336 24.5476 12.3514C22.8646 10.6692 20.5831 9.72322 18.2035 9.72107ZM18.2035 26.0419C16.7505 26.0411 15.3303 25.6095 14.1225 24.8016C12.9147 23.9938 11.9736 22.8459 11.4181 21.5033C10.8626 20.1606 10.7177 18.6834 11.0016 17.2583C11.2856 15.8333 11.9857 14.5245 13.0135 13.4973C14.0412 12.4701 15.3504 11.7707 16.7756 11.4875C18.2008 11.2044 19.678 11.3501 21.0203 11.9063C22.3627 12.4626 23.51 13.4043 24.3172 14.6126C25.1244 15.8208 25.5552 17.2412 25.5552 18.6943C25.553 20.643 24.7777 22.5113 23.3993 23.8889C22.021 25.2665 20.1523 26.0408 18.2035 26.0419Z" fill="#83529B"/>
</svg>
