<svg viewBox="0 0 40 49" fill="none" xmlns="http://www.w3.org/2000/svg">
<path d="M26.6599 28.3528C26.0346 28.3528 25.4787 28.1675 24.8534 27.8432C24.5986 27.7274 24.3439 27.5884 24.0891 27.4263C23.3943 27.0326 22.6531 26.6157 21.7267 26.4767C20.4297 26.2683 19.4338 26.4999 18.2758 26.9631C17.8589 27.1252 17.4651 27.3337 17.0946 27.519C16.5387 27.8201 16.006 28.0748 15.3807 28.237C14.3384 28.4917 13.6204 28.2833 12.7172 27.8432C12.4624 27.7274 12.2076 27.5884 11.9529 27.4263C11.2581 27.0326 10.5169 26.6157 9.59048 26.4767C8.29347 26.2683 7.29756 26.4999 6.13953 26.9631C5.72263 27.1252 5.3289 27.3337 4.95833 27.519C4.40247 27.8201 3.86978 28.0748 3.2676 28.237L3.10547 27.5653C3.63817 27.4495 4.12454 27.1947 4.65724 26.9168C5.05097 26.7083 5.4447 26.4999 5.90792 26.3378C7.13544 25.8514 8.27031 25.5735 9.72944 25.8051C10.7948 25.9672 11.6055 26.4304 12.3234 26.8473C12.5782 26.9863 12.8098 27.1252 13.0646 27.241C13.8289 27.6116 14.4079 27.7969 15.2649 27.5885C15.7976 27.4726 16.2839 27.2179 16.8166 26.94C17.2104 26.7315 17.6041 26.5231 18.0673 26.3609C19.2948 25.8746 20.4297 25.5966 21.8888 25.8282C22.9542 25.9904 23.7649 26.4536 24.4828 26.8705C24.7376 27.0094 24.9692 27.1484 25.224 27.2642C25.9883 27.6348 26.5673 27.8201 27.4242 27.6116C27.9569 27.4958 28.4433 27.241 28.976 26.9631C29.3697 26.7547 29.7635 26.5462 30.2267 26.3841C31.4542 25.8977 32.5891 25.6198 34.0482 25.8514C35.1136 26.0135 35.9242 26.4767 36.6422 26.8936C36.897 27.0326 37.1286 27.1716 37.3834 27.2874L37.0823 27.9127C36.8275 27.7969 36.5727 27.6579 36.318 27.4958C35.6231 27.1021 34.882 26.6852 33.9556 26.5462C32.6586 26.3378 31.6627 26.5694 30.5046 27.0326C30.0877 27.1947 29.694 27.4032 29.3234 27.5885C28.7676 27.8895 28.2349 28.1443 27.6327 28.3064C27.2158 28.3064 26.9379 28.3528 26.6599 28.3528Z" fill="#83529B" stroke="#83529B" stroke-width="0.5"/>
<path d="M14.4562 34.9305C13.8077 34.9305 13.2287 34.722 12.5802 34.4209C12.3023 34.282 12.0475 34.143 11.7927 34.004C11.0748 33.5872 10.3105 33.1703 9.33771 33.0081C7.99438 32.7997 6.97531 33.0313 5.77096 33.5177C5.3309 33.703 4.93717 33.8882 4.54344 34.0967C3.96442 34.3978 3.40856 34.6757 2.78322 34.8378L2.62109 34.1662C3.17695 34.0272 3.68649 33.7724 4.21919 33.4945C4.61292 33.2861 5.02982 33.0776 5.49303 32.8923C6.76687 32.3828 7.92491 32.1049 9.43036 32.3365C10.5189 32.5218 11.3759 32.985 12.117 33.4019C12.3718 33.5408 12.6265 33.6798 12.8813 33.8188C13.6919 34.2125 14.2941 34.3746 15.1742 34.1662C15.7301 34.0272 16.2396 33.7724 16.7723 33.4945C17.166 33.2861 17.5829 33.0776 18.0461 32.8923C19.32 32.3828 20.478 32.1049 21.9835 32.3365C23.072 32.5218 23.929 32.985 24.6701 33.4019C24.9249 33.5408 25.1797 33.6798 25.4344 33.8188C26.245 34.2125 26.8472 34.3746 27.7273 34.1662C28.2832 34.0272 28.7927 33.7724 29.3254 33.4945C29.7192 33.2861 30.1361 33.0776 30.5993 32.8923C31.8731 32.3828 33.0311 32.1049 34.5366 32.3365C35.6251 32.5218 36.4821 32.985 37.2232 33.4019C37.478 33.5408 37.7328 33.6798 37.9875 33.8188L37.6865 34.4441C37.4085 34.3051 37.1538 34.1662 36.899 34.0272C36.181 33.6103 35.4167 33.1934 34.444 33.0313C33.1006 32.8228 32.0816 33.0545 30.8772 33.5408C30.4371 33.7261 30.0434 33.9114 29.6497 34.1199C29.0707 34.4209 28.5148 34.6989 27.8895 34.861C26.8009 35.1158 26.0598 34.9073 25.1333 34.4441C24.8554 34.3051 24.6006 34.1662 24.3459 34.0272C23.6279 33.6103 22.8636 33.1934 21.8908 33.0313C20.5475 32.8228 19.5284 33.0545 18.3241 33.5408C17.884 33.7261 17.4903 33.9114 17.0966 34.1199C16.5175 34.4209 15.9617 34.6989 15.3363 34.861C15.0121 34.9073 14.711 34.9305 14.4562 34.9305Z" fill="#83529B" stroke="#83529B" stroke-width="0.5"/>
<path d="M39.7016 48.6416H1L4.96049 7.76294H35.7179L39.7016 48.6416ZM19.158 47.9468H38.9373L35.1158 8.45776H5.60899L1.78747 47.9468H19.158Z" fill="#83529B" stroke="#83529B" stroke-width="0.5"/>
<path d="M27.6577 8.29563H26.9628C26.9628 4.6594 23.9983 1.69482 20.362 1.69482C16.7258 1.69482 13.7612 4.6594 13.7612 8.29563H13.0664C13.0664 4.26566 16.3321 1 20.362 1C24.392 1 27.6577 4.26566 27.6577 8.29563Z" fill="#83529B" stroke="#83529B" stroke-width="0.5"/>
</svg>
