<svg viewBox="0 0 51 50" fill="none" xmlns="http://www.w3.org/2000/svg">
<path d="M47.519 1.89126C47.4551 1.42796 47.0291 1.10252 46.5636 1.16806C46.1003 1.23247 45.776 1.66017 45.8409 2.12404C46.2822 5.30666 45.2432 8.42318 42.9911 10.6758L10.7134 42.9529C8.4625 45.2044 5.34767 46.2434 2.16279 45.8022C1.69497 45.7378 1.27123 46.0615 1.20738 46.5254C1.14297 46.9892 1.46672 47.4169 1.93001 47.4813C2.46845 47.5559 3.00802 47.5926 3.5459 47.5926C6.66185 47.5926 9.70153 46.3621 11.9118 44.1513L44.1889 11.8742C46.7816 9.28197 48.0263 5.55017 47.519 1.89126Z" fill="#83529B" stroke="#83529B" stroke-width="0.5"/>
<path d="M16.0927 42.9077C15.4186 43.5817 15.0469 44.4784 15.0469 45.4321C15.0469 46.3858 15.4181 47.2819 16.0927 47.9559C16.7882 48.652 17.7029 49 18.6171 49C19.5312 49 20.4454 48.652 21.1415 47.9565C21.8155 47.2825 22.1873 46.3858 22.1873 45.4321C22.1873 44.4784 21.8161 43.5823 21.1415 42.9077C19.7493 41.5155 17.4837 41.5155 16.0927 42.9077ZM19.9426 46.7576C19.2341 47.4661 17.9995 47.4661 17.291 46.7576C16.9368 46.4039 16.7419 45.9333 16.7419 45.4321C16.7419 44.931 16.9368 44.4603 17.291 44.1061C17.6453 43.7518 18.1159 43.5569 18.6171 43.5569C19.1182 43.5569 19.5889 43.7518 19.9431 44.1061C20.2974 44.4603 20.4923 44.931 20.4923 45.4321C20.4923 45.9333 20.2968 46.4033 19.9426 46.7576Z" fill="#83529B" stroke="#83529B" stroke-width="0.5"/>
<path d="M48.8524 15.1969C47.4608 13.8048 45.1952 13.8053 43.8036 15.1969C43.1296 15.871 42.7578 16.7676 42.7578 17.7213C42.7578 18.675 43.129 19.5711 43.8036 20.2457C44.4991 20.9418 45.4139 21.2898 46.328 21.2898C47.2422 21.2898 48.1563 20.9418 48.8524 20.2457C49.5265 19.5717 49.8982 18.675 49.8982 17.7213C49.8982 16.7676 49.5265 15.871 48.8524 15.1969ZM47.6541 19.0468C46.9456 19.7553 45.711 19.7553 45.0025 19.0468C44.6483 18.6925 44.4534 18.2219 44.4534 17.7208C44.4534 17.2196 44.6483 16.7495 45.0025 16.3953C45.3568 16.041 45.8274 15.8461 46.3286 15.8461C46.8297 15.8461 47.3004 16.041 47.6546 16.3953C48.0089 16.749 48.2038 17.2196 48.2038 17.7208C48.2038 18.2219 48.0083 18.6925 47.6541 19.0468Z" fill="#83529B" stroke="#83529B" stroke-width="0.5"/>
</svg>
