<svg viewBox="0 0 32 50" fill="none" xmlns="http://www.w3.org/2000/svg">
<path d="M16.4342 1.18352C16.22 1.06124 15.9806 0.999975 15.7411 0.999748C15.5378 0.999556 15.3345 1.04375 15.1479 1.12958C12.9111 2.17623 10.7909 3.47269 8.83761 4.9885C6.43013 6.85901 4.32588 9.0156 2.29409 11.0973L1.40501 12.0093C0.869885 12.5581 0.880194 13.4349 1.431 13.9709C1.97345 14.5041 2.86446 14.4939 3.39958 13.945L4.28866 13.0358C6.25635 11.0151 8.29093 8.93057 10.5479 7.17644C11.6987 6.28413 12.9302 5.50566 14.1977 4.78826C14.8486 14.311 15.0768 37.9566 14.9452 47.5951C14.9361 48.3609 15.5481 48.9913 16.3194 49.0003C16.3249 49.0003 16.3305 49.0003 16.3361 49.0003C17.0962 49.0011 17.7205 48.3912 17.7296 47.631C17.864 37.9759 17.6358 14.3025 16.9877 4.76871C21.1257 7.30575 25.0545 10.2421 28.6738 13.5666C29.2358 14.086 30.1185 14.0508 30.6425 13.488C31.1637 12.9253 31.1283 12.0458 30.5608 11.5264C26.2265 7.54364 21.4713 4.06546 16.4342 1.18352Z" />
</svg>
