<svg viewBox="0 0 48 45" fill="none" xmlns="http://www.w3.org/2000/svg">
<path d="M46.8698 44.4163H2.44452C2.11141 44.4163 1.62688 44.2346 1.29376 43.4472C0.8698 42.4176 0.90009 41.2063 1.4149 40.1464C2.53538 37.754 4.53406 35.9067 6.98698 34.968L26.3076 24.0963C26.8224 23.6421 27.5189 23.4301 28.1851 23.521C28.8816 23.5815 29.5176 23.9449 29.9718 24.49L33.6058 29.1839L46.8698 25.4288V44.4163ZM27.9731 24.3992C27.5795 24.3992 27.1858 24.5506 26.883 24.8231L26.7921 24.8837L7.38066 35.8159H7.35038C5.07915 36.6638 3.26216 38.3597 2.23254 40.54C1.83886 41.388 1.80858 42.3267 2.14169 43.1141C2.26283 43.4169 2.38396 43.5381 2.44452 43.5381H45.9613V26.6401L33.2727 30.2135L29.2753 25.0351C29.0028 24.6717 28.5788 24.4597 28.1246 24.3992C28.064 24.3992 28.0034 24.3992 27.9731 24.3992Z" fill="#83529B" stroke="#83529B"/>
<path d="M24.1641 26.0175L23.4277 26.5497L36.2004 44.2217L36.9367 43.6895L24.1641 26.0175Z" fill="#83529B" stroke="#83529B"/>
<path d="M19.3691 28.4816L18.6328 29.0138L29.6315 44.2313L30.3678 43.6991L19.3691 28.4816Z" fill="#83529B" stroke="#83529B"/>
<path d="M46.8698 21.916H2.44452C2.11141 21.916 1.62688 21.7343 1.29376 20.9469C0.8698 19.9173 0.90009 18.706 1.4149 17.6461C2.53538 15.2537 4.53406 13.4064 6.98698 12.4676L26.3076 1.59603C26.8224 1.14178 27.5189 0.929801 28.1851 1.02065C28.8816 1.08122 29.5176 1.44461 29.9718 1.9897L33.6058 6.68358L46.8698 2.92848V21.916ZM2.14169 20.5835C2.26283 20.8863 2.38396 21.0075 2.44452 21.0075H45.9613V4.10952L33.2727 7.71321L29.2753 2.5348C29.0028 2.17141 28.5788 1.95942 28.1246 1.89886C27.6703 1.86857 27.2161 1.9897 26.883 2.29253L26.7921 2.3531L7.38066 13.2853H7.35038C5.07915 14.1332 3.26216 15.8291 2.23254 18.0095C1.83886 18.8574 1.80858 19.7962 2.14169 20.5835Z" fill="#83529B" stroke="#83529B"/>
<path d="M24.1641 3.51669L23.4277 4.04889L36.2004 21.7209L36.9367 21.1887L24.1641 3.51669Z" fill="#83529B" stroke="#83529B"/>
<path d="M19.3691 5.98166L18.6328 6.51385L29.6315 21.7314L30.3678 21.1992L19.3691 5.98166Z" fill="#83529B" stroke="#83529B"/>
</svg>
