<svg viewBox="0 0 40 37" fill="none" xmlns="http://www.w3.org/2000/svg">
<path d="M36.9467 13.4191C38.455 11.979 39.4816 10.1171 39.889 8.08325C40.2357 6.11416 39.7646 4.37801 38.5556 3.19568C37.3467 2.01334 35.6045 1.55184 33.6133 1.87709C31.557 2.28328 29.6747 3.29984 28.2176 4.79117C25.5509 7.42835 24.5153 10.9006 25.5509 13.4499L20.8886 17.9771L16.2351 13.4763L17.124 12.5972C17.3692 12.3529 17.5596 12.0604 17.6828 11.7385C17.8061 11.4167 17.8595 11.0728 17.8396 10.7292C17.8064 10.0244 17.5066 9.35767 16.9996 8.86122L8.62606 0.562894C8.44752 0.384554 8.23501 0.242983 8.0008 0.146365C7.7666 0.049747 7.51535 0 7.26158 0C7.00782 0 6.75657 0.049747 6.52236 0.146365C6.28816 0.242983 6.07564 0.384554 5.89711 0.562894L5.37709 1.07714C5.25984 1.19404 5.19405 1.35202 5.19405 1.51667C5.19405 1.68133 5.25984 1.83931 5.37709 1.9562L12.7195 9.23921L12.1995 9.75346L4.85708 2.48804C4.73674 2.37616 4.57779 2.31388 4.41263 2.31388C4.24746 2.31388 4.08851 2.37616 3.96817 2.48804L2.53703 3.90332C2.47669 3.9622 2.42878 4.03234 2.39608 4.10968C2.36338 4.18702 2.34655 4.27001 2.34655 4.35384C2.34655 4.43767 2.36338 4.52066 2.39608 4.598C2.42878 4.67534 2.47669 4.74548 2.53703 4.80436L9.86164 12.0698L9.33274 12.584L1.99479 5.31421C1.87256 5.2061 1.71433 5.14633 1.55034 5.14633C1.38635 5.14633 1.22811 5.2061 1.10588 5.31421L0.56365 5.83286C0.202676 6.19121 0 6.67641 0 7.18221C0 7.68802 0.202676 8.17322 0.56365 8.53157L8.95051 16.8255C9.18997 17.0796 9.47782 17.2844 9.79754 17.4282C10.1173 17.5719 10.4626 17.6518 10.8136 17.6633C11.1646 17.6747 11.5145 17.6175 11.8431 17.4948C12.1717 17.3722 12.4725 17.1865 12.7284 16.9486L13.6173 16.0695L18.1418 20.6362L4.71041 33.598C4.66726 33.6398 4.6299 33.6871 4.5993 33.7386C4.33263 34.1781 4.15484 35.2462 5.15931 36.2395C5.37256 36.4712 5.63086 36.6579 5.91876 36.7886C6.20667 36.9192 6.51826 36.9911 6.83491 36.9999C7.13235 37.0027 7.42576 36.9317 7.68826 36.7933C7.7396 36.762 7.7873 36.7251 7.83049 36.6835L20.8886 23.436L33.9733 36.6835C34.0147 36.7272 34.0626 36.7642 34.1155 36.7933C34.378 36.9317 34.6714 37.0027 34.9689 36.9999C35.2854 36.9906 35.5969 36.9185 35.8847 36.7879C36.1726 36.6573 36.4309 36.4708 36.6445 36.2395C37.649 35.2462 37.4667 34.2001 37.2045 33.7386C37.1739 33.6871 37.1365 33.6398 37.0934 33.598L23.6575 20.6362L28.1865 16.0475C30.7688 17.076 34.2933 16.0431 36.9467 13.4191ZM14.0929 14.7114C13.9764 14.5913 13.8166 14.5217 13.6484 14.518C13.5657 14.5182 13.4838 14.5346 13.4075 14.5663C13.3312 14.598 13.262 14.6443 13.2039 14.7026L11.8439 16.0475C11.5675 16.2863 11.2068 16.4073 10.8405 16.3843C10.4742 16.3612 10.1319 16.196 9.88831 15.9245L1.47478 7.63054C1.36066 7.51203 1.297 7.35465 1.297 7.19101C1.297 7.02736 1.36066 6.86998 1.47478 6.75148L1.54145 6.68555L8.88829 13.9334C9.0097 14.0518 9.17335 14.1181 9.34385 14.1181C9.51435 14.1181 9.678 14.0518 9.79942 13.9334L11.2306 12.5181C11.3437 12.3991 11.4067 12.2419 11.4067 12.0786C11.4067 11.9152 11.3437 11.7581 11.2306 11.639L3.87928 4.35164L4.39929 3.83739L11.7461 11.1028C11.8654 11.2167 12.0248 11.2803 12.1906 11.2803C12.3564 11.2803 12.5157 11.2167 12.635 11.1028L14.084 9.70951C14.2012 9.59261 14.267 9.43463 14.267 9.26998C14.267 9.10533 14.2012 8.94735 14.084 8.83045L6.74157 1.52547L6.80379 1.45954C6.92732 1.34521 7.09017 1.2816 7.25936 1.2816C7.42855 1.2816 7.5914 1.34521 7.71493 1.45954L16.1018 9.75346C16.3802 10.0241 16.5466 10.3877 16.5685 10.7732C16.5798 10.9408 16.5552 11.1089 16.4963 11.2665C16.4373 11.4241 16.3453 11.5675 16.2262 11.6874L14.8662 13.0324C14.748 13.1489 14.681 13.3068 14.6795 13.4719C14.6836 13.6373 14.752 13.7947 14.8706 13.9114L19.9997 18.8649L19.0841 19.744L14.0929 14.7114ZM36.1023 34.4199C36.1072 34.5901 36.0769 34.7596 36.0131 34.9178C35.9493 35.076 35.8535 35.2196 35.7315 35.3399C35.6096 35.4601 35.464 35.5543 35.3038 35.6168C35.1436 35.6794 34.9721 35.7088 34.8 35.7033L21.7997 22.5174L22.7597 21.5461L36.1023 34.4199ZM27.5821 14.8388L6.99491 35.7077C6.86602 35.7429 6.5149 35.778 6.066 35.3385C5.6171 34.899 5.6571 34.5649 5.70155 34.4199L19.5019 21.1065L26.7998 14.074C26.8991 13.9793 26.9646 13.8551 26.9862 13.7203C27.0079 13.5855 26.9846 13.4474 26.9198 13.3268C25.8353 11.2654 26.7687 8.05248 29.1421 5.71858C30.4098 4.4126 32.0503 3.52019 33.8444 3.16052C35.4133 2.8924 36.7689 3.23084 37.6578 4.1099C39.5557 5.97351 38.8312 9.75346 36.0356 12.5181C33.6578 14.8696 30.4221 15.7926 28.3421 14.7158C28.219 14.6519 28.0784 14.6294 27.9413 14.6516C27.8041 14.6738 27.6781 14.7395 27.5821 14.8388ZM30.751 14.2718C33.6266 13.9202 37.1556 10.9798 37.2534 8.84803C37.2576 8.76489 37.2451 8.68175 37.2168 8.60337C37.1884 8.525 37.1447 8.45292 37.0882 8.39127C37.0316 8.32962 36.9633 8.27961 36.8872 8.2441C36.811 8.20859 36.7286 8.18829 36.6445 8.18434C36.4738 8.17715 36.3072 8.23681 36.1807 8.35036C36.0542 8.46392 35.9781 8.62221 35.9689 8.79089C35.9022 10.2062 33.0089 12.7159 30.591 13.0104C29.4265 13.151 28.7021 12.7159 28.3687 11.6918C28.3484 11.6072 28.3108 11.5276 28.2582 11.4578C28.2056 11.3881 28.1391 11.3298 28.0628 11.2865C27.9866 11.2432 27.9021 11.2157 27.8148 11.2059C27.7274 11.196 27.6389 11.2039 27.5547 11.2292C27.4705 11.2544 27.3925 11.2964 27.3253 11.3526C27.2582 11.4088 27.2034 11.478 27.1644 11.5559C27.1253 11.6339 27.1027 11.7189 27.0981 11.8057C27.0935 11.8926 27.107 11.9795 27.1376 12.061C27.3022 12.7262 27.6944 13.3146 28.2477 13.7263C28.801 14.1381 29.4813 14.3479 30.1732 14.3202C30.3666 14.3155 30.5596 14.2993 30.751 14.2718Z" fill="#83529B"/>
</svg>
