<svg viewBox="0 0 41 34" fill="none" xmlns="http://www.w3.org/2000/svg">
<path d="M36.2975 6.61386H27.9594V4.21782C27.9581 3.3648 27.6196 2.5471 27.0181 1.94392C26.4166 1.34075 25.6011 1.00131 24.7505 1H16.1952C15.3445 1.00131 14.5291 1.34075 13.9276 1.94392C13.3261 2.5471 12.9876 3.3648 12.9863 4.21782V6.61386H4.70253C3.72096 6.61517 2.77997 7.00677 2.08589 7.70278C1.39181 8.3988 1.00131 9.34242 1 10.3267V29.2871C1.00131 30.2714 1.39181 31.2151 2.08589 31.9111C2.77997 32.6071 3.72096 32.9987 4.70253 33H36.2975C37.279 32.9987 38.22 32.6071 38.9141 31.9111C39.6082 31.2151 39.9987 30.2714 40 29.2871V10.3267C39.9987 9.34242 39.6082 8.3988 38.9141 7.70278C38.22 7.00677 37.279 6.61517 36.2975 6.61386ZM14.4673 4.21782C14.4673 3.75829 14.6494 3.31758 14.9734 2.99264C15.2975 2.6677 15.7369 2.48515 16.1952 2.48515H24.7505C25.2088 2.48515 25.6482 2.6677 25.9723 2.99264C26.2963 3.31758 26.4784 3.75829 26.4784 4.21782V6.61386H14.4673V4.21782ZM38.519 29.2871C38.519 29.878 38.2849 30.4446 37.8683 30.8624C37.4517 31.2801 36.8867 31.5149 36.2975 31.5149H4.70253C4.11335 31.5149 3.5483 31.2801 3.13168 30.8624C2.71507 30.4446 2.48101 29.878 2.48101 29.2871V18.0297L16.7678 20.0594V20.5545C16.7692 21.4075 17.1076 22.2252 17.7091 22.8284C18.3106 23.4315 19.1261 23.771 19.9767 23.7723H21.5515C22.4022 23.771 23.2176 23.4315 23.8191 22.8284C24.4206 22.2252 24.7591 21.4075 24.7604 20.5545V19.9604L38.519 18.0792V29.2871ZM18.2489 20.5545V18.9703C18.2489 18.5108 18.4309 18.0701 18.7549 17.7451C19.079 17.4202 19.5185 17.2376 19.9767 17.2376H21.5515C22.0098 17.2376 22.4493 17.4202 22.7733 17.7451C23.0973 18.0701 23.2794 18.5108 23.2794 18.9703V20.5545C23.2794 21.014 23.0973 21.4547 22.7733 21.7796C22.4493 22.1046 22.0098 22.2871 21.5515 22.2871H19.9767C19.5185 22.2871 19.079 22.1046 18.7549 21.7796C18.4309 21.4547 18.2489 21.014 18.2489 20.5545ZM38.519 16.5545L24.6962 18.4653C24.5765 17.7097 24.1922 17.0216 23.6123 16.5245C23.0323 16.0273 22.2947 15.7536 21.5318 15.7525H19.9767C19.1997 15.7539 18.4496 16.0375 17.8651 16.5508C17.2806 17.0641 16.9013 17.7724 16.7975 18.5446L2.48101 16.5347V10.3267C2.48101 9.7359 2.71507 9.16927 3.13168 8.75149C3.5483 8.33372 4.11335 8.09901 4.70253 8.09901H36.2975C36.8867 8.09901 37.4517 8.33372 37.8683 8.75149C38.2849 9.16927 38.519 9.7359 38.519 10.3267V16.5545Z" fill="#83529B" stroke="#83529B" stroke-width="0.5"/>
</svg>
