<svg  viewBox="0 0 13 17" fill="none" xmlns="http://www.w3.org/2000/svg">
<path d="M12.2892 2.28752H8.52442V0.529406C8.52442 0.269729 8.31389 0.0592041 8.05421 0.0592041H4.70522C4.44554 0.0592041 4.23501 0.269729 4.23501 0.529406V2.28752H0.470202C0.210525 2.28752 0 2.49805 0 2.75772V4.65132C0 4.911 0.210525 5.12152 0.470202 5.12152H0.554807L1.25337 15.6202C1.2698 15.8672 1.47496 16.0592 1.72254 16.0592H11.0369C11.2845 16.0592 11.4896 15.8672 11.5061 15.6202L12.2046 5.12152H12.2892C12.5489 5.12152 12.7594 4.911 12.7594 4.65132V2.75772C12.7594 2.49805 12.5489 2.28752 12.2892 2.28752ZM5.17542 0.999608H7.58401V2.28752H5.17542V0.999608ZM0.940404 3.22793H11.819V4.18112H0.940404V3.22793ZM10.5969 15.1188H2.16249L1.49731 5.12152H11.2621L10.5969 15.1188Z" fill="#FFDA05"/>
<path d="M4.75578 8.31836C5.13216 7.94198 5.63261 7.73469 6.16491 7.73469C6.69721 7.73469 7.19763 7.94198 7.57401 8.31836C7.82416 8.56848 7.99923 8.87386 8.08879 9.20623C7.90469 9.06934 7.64354 9.08395 7.47649 9.25096C7.29286 9.43456 7.29286 9.73232 7.47646 9.91592L8.29539 10.7349C8.38357 10.8231 8.50316 10.8726 8.62786 10.8726C8.75255 10.8726 8.87214 10.8231 8.96035 10.7349L9.77929 9.91592C9.96289 9.73232 9.96289 9.43459 9.77926 9.25096C9.59566 9.06736 9.29793 9.06736 9.1143 9.25096L9.06677 9.29848C8.97628 8.67775 8.69024 8.10461 8.23897 7.65337C7.68498 7.09935 6.94839 6.79425 6.16491 6.79425C5.38143 6.79425 4.64484 7.09935 4.09085 7.65337C3.90722 7.83697 3.90722 8.1347 4.09085 8.31833C4.27445 8.50196 4.57218 8.50196 4.75578 8.31836Z" fill="#FFDA05"/>
<path d="M3.64253 10.9893L3.69008 10.9418C3.78058 11.5625 4.06659 12.1357 4.51789 12.587C5.07188 13.141 5.80847 13.4461 6.59195 13.4461C7.37543 13.4461 8.11201 13.141 8.66601 12.587C8.84964 12.4034 8.84964 12.1056 8.66601 11.922C8.48241 11.7384 8.18468 11.7384 8.00105 11.922C7.62467 12.2984 7.12422 12.5057 6.59192 12.5057C6.05965 12.5057 5.5592 12.2984 5.18282 11.922C4.93267 11.6718 4.7576 11.3665 4.66804 11.0341C4.75095 11.0957 4.84929 11.1271 4.94787 11.1271C5.06821 11.1271 5.18855 11.0811 5.28037 10.9894C5.46396 10.8058 5.46396 10.508 5.28037 10.3244L4.46143 9.5055C4.27783 9.3219 3.9801 9.3219 3.79647 9.5055L2.97757 10.3244C2.79394 10.508 2.79394 10.8057 2.97754 10.9894C3.16123 11.173 3.45893 11.1729 3.64253 10.9893Z" fill="#FFDA05"/>
</svg>
