<svg viewBox="0 0 48 48" fill="none" xmlns="http://www.w3.org/2000/svg">
<path d="M37.1622 8.51339C36.6047 8.51339 36.0661 8.58898 35.5276 8.70236C33.1181 3.48661 28.8472 0 24 0C19.1433 0 14.8819 3.47717 12.463 8.70236C11.9244 8.58898 11.3858 8.52283 10.8378 8.52283C4.86614 8.51339 0 15.1181 0 23.2252C0 30.9827 4.45039 37.3323 10.063 37.8803V48H11.6126V37.8898C13.748 37.6819 15.7795 36.6331 17.4614 34.8661C19.1906 36.1606 21.1465 36.9638 23.2252 37.1244V47.9906H24.7748V37.1339C26.8535 36.9732 28.8095 36.1701 30.5386 34.8756C32.2205 36.6331 34.252 37.6913 36.3874 37.8898V48H37.937V37.8803C43.5496 37.3417 48 30.9827 48 23.2252C48 15.1181 43.1339 8.51339 37.1622 8.51339ZM10.8378 36.3874C5.71654 36.3874 1.54961 30.4819 1.54961 23.2252C1.54961 15.9685 5.71654 10.063 10.8378 10.063C11.178 10.063 11.5087 10.0913 11.8394 10.1386C10.8661 12.737 10.3559 15.6378 10.3559 18.5764C10.3559 24.7654 12.548 30.4157 16.252 33.8929C14.6835 35.5087 12.7843 36.3874 10.8378 36.3874ZM24.7748 35.5748V32.8346L29.9717 27.6378L28.8661 26.5512L24.7654 30.652V27.4205L29.9622 22.2236L28.8661 21.1276L24.7748 25.2283V21.9969L29.9717 16.8L28.8756 15.7039L24.7748 19.8047V14.7024H23.2252V19.8047L19.1244 15.7039L18.0283 16.8L23.2252 21.9969V25.2283L19.1244 21.1276L18.0283 22.2236L23.2252 27.4205V30.652L19.1244 26.5512L18.0283 27.6472L23.2252 32.8441V35.5843C16.9228 35.0173 11.915 27.6189 11.915 18.5953C11.915 9.20315 17.3386 1.55906 24 1.55906C30.6614 1.55906 36.085 9.20315 36.085 18.5953C36.085 27.6094 31.0772 35.0079 24.7748 35.5748ZM37.1622 36.3874C35.2157 36.3874 33.3071 35.5087 31.7386 33.8929C35.4425 30.4252 37.6346 24.7748 37.6346 18.5764C37.6346 15.6378 37.1244 12.737 36.1512 10.1386C36.4819 10.0819 36.822 10.063 37.1622 10.063C42.2835 10.063 46.4504 15.9685 46.4504 23.2252C46.4504 30.4819 42.2835 36.3874 37.1622 36.3874Z" fill="#83529B"/>
</svg>
