<svg viewBox="0 0 22 22" fill="none" xmlns="http://www.w3.org/2000/svg">
<path d="M2.6107 8.57237C2.51504 8.57237 2.42329 8.61037 2.35565 8.67802C2.288 8.74566 2.25 8.83741 2.25 8.93307C2.25 9.02874 2.288 9.12048 2.35565 9.18813C2.42329 9.25578 2.51504 9.29378 2.6107 9.29378H6.52435V10.6753C6.52435 10.7709 6.56235 10.8627 6.62999 10.9303C6.69764 10.998 6.78939 11.036 6.88505 11.036C6.98071 11.036 7.07246 10.998 7.14011 10.9303C7.20775 10.8627 7.24575 10.7709 7.24575 10.6753V9.29378H8.42526V12.5726C8.42526 12.6682 8.46326 12.76 8.5309 12.8276C8.59855 12.8953 8.6903 12.9333 8.78596 12.9333C8.88163 12.9333 8.97337 12.8953 9.04102 12.8276C9.10866 12.76 9.14667 12.6682 9.14667 12.5726V9.29378H9.89332C9.98899 9.29378 10.0807 9.25578 10.1484 9.18813C10.216 9.12048 10.254 9.02874 10.254 8.93307C10.254 8.83741 10.216 8.74566 10.1484 8.67802C10.0807 8.61037 9.98899 8.57237 9.89332 8.57237H9.14306V7.39287H11.7906C11.8863 7.39287 11.978 7.35486 12.0457 7.28722C12.1133 7.21957 12.1513 7.12783 12.1513 7.03216C12.1513 6.9365 12.1133 6.84475 12.0457 6.77711C11.978 6.70946 11.8863 6.67146 11.7906 6.67146H9.14306V5.29357C9.14306 5.1979 9.10506 5.10616 9.03741 5.03851C8.96977 4.97087 8.87802 4.93286 8.78236 4.93286C8.68669 4.93286 8.59494 4.97087 8.5273 5.03851C8.45965 5.10616 8.42165 5.1979 8.42165 5.29357V6.67507H7.24575V3.39266C7.24575 3.29699 7.20775 3.20524 7.14011 3.1376C7.07246 3.06995 6.98071 3.03195 6.88505 3.03195C6.78939 3.03195 6.69764 3.06995 6.62999 3.1376C6.56235 3.20524 6.52435 3.29699 6.52435 3.39266V6.67146H4.50801C4.41234 6.67146 4.3206 6.70946 4.25295 6.77711C4.18531 6.84475 4.1473 6.9365 4.1473 7.03216C4.1473 7.12783 4.18531 7.21957 4.25295 7.28722C4.3206 7.35486 4.41234 7.39287 4.50801 7.39287H6.52074V8.57237H2.6107ZM7.24575 7.39287H8.42526V8.57237H7.24575V7.39287Z" fill="#83529B"/>
<path d="M2.98932 11.8295C3.06151 11.7691 3.1072 11.6828 3.11664 11.5891C3.12607 11.4954 3.0985 11.4018 3.03982 11.3282C0.356176 8.17199 -0.0550272 4.19342 2.07313 2.06527C4.37442 -0.236027 8.83273 0.470953 12.0105 3.64876C13.5025 5.08592 14.5012 6.95842 14.8637 8.998C14.9027 9.26216 14.9267 9.5283 14.9358 9.79516C14.9555 10.2988 14.9119 10.8029 14.806 11.2957C14.806 11.3498 14.7843 11.4075 14.7699 11.458C14.7555 11.5085 14.7122 11.66 14.6797 11.761C14.6473 11.862 14.6256 11.9269 14.5932 12.0099C14.5607 12.0928 14.5282 12.1722 14.4922 12.2516C14.4561 12.3309 14.402 12.4391 14.3551 12.5329C14.3082 12.6267 14.2866 12.6628 14.2469 12.7277C14.2072 12.7926 14.117 12.9297 14.0485 13.0271C13.98 13.1245 13.9836 13.1245 13.9475 13.1714C13.7488 13.432 13.5186 13.6671 13.2622 13.8711L13.1756 13.9397C13.0638 14.0262 12.952 14.1092 12.8149 14.1813C12.6853 14.2614 12.5516 14.3349 12.4145 14.4014L12.3424 14.4338C12.0485 14.5711 11.7415 14.6787 11.4262 14.7548C10.8948 14.8804 10.3486 14.9326 9.80302 14.9099C9.35723 14.8898 8.91417 14.8294 8.47924 14.7296C8.49665 13.9495 8.21671 13.1921 7.6962 12.6108C7.17569 12.0296 6.45359 11.6681 5.67636 11.5997C4.89913 11.5312 4.12496 11.761 3.51089 12.2423C2.89682 12.7237 2.48882 13.4206 2.36966 14.1916C2.25049 14.9627 2.42907 15.7503 2.86919 16.3945C3.3093 17.0388 3.97799 17.4915 4.73962 17.6609C5.50125 17.8303 6.29879 17.7037 6.97048 17.3067C7.64217 16.9097 8.13772 16.2721 8.3566 15.5231C8.3566 15.4979 8.3566 15.469 8.3566 15.4438C8.81924 15.5461 9.28995 15.6076 9.76334 15.6277C11.4833 15.662 13.184 15.9978 14.788 16.6197L14.889 16.6594L19.2932 21.0672C19.4098 21.1847 19.5486 21.278 19.7015 21.3417C19.8545 21.4054 20.0185 21.4382 20.1841 21.4382C20.3497 21.4382 20.5137 21.4054 20.6666 21.3417C20.8196 21.278 20.9583 21.1847 21.075 21.0672C21.3103 20.8318 21.4424 20.5126 21.4424 20.1798C21.4424 19.8471 21.3103 19.5279 21.075 19.2925L16.6889 14.9027L16.6492 14.8017C16.032 13.2054 15.6988 11.5135 15.6645 9.80237C15.6558 9.49689 15.6293 9.19218 15.5851 8.88979C15.2 6.69747 14.1305 4.68344 12.5299 3.13656C9.06358 -0.318989 4.14718 -1.02958 1.56454 1.55667C-0.830541 3.95175 -0.437374 8.34873 2.48072 11.7899C2.51151 11.8259 2.54909 11.8554 2.59131 11.8769C2.63354 11.8984 2.67957 11.9113 2.7268 11.915C2.77403 11.9187 2.82152 11.9131 2.86656 11.8984C2.91161 11.8837 2.95332 11.8603 2.98932 11.8295ZM3.71073 12.9802C3.93142 12.758 4.19372 12.5815 4.48263 12.4608C4.51507 12.5098 4.54284 12.5617 4.56559 12.6159C4.56559 12.6159 4.56559 12.6519 4.56559 12.6664C4.57883 12.7041 4.58967 12.7427 4.59806 12.7818C4.59806 12.8034 4.59806 12.8251 4.59806 12.8467C4.60011 12.8828 4.60011 12.9189 4.59806 12.9549C4.59806 12.9766 4.59806 12.9982 4.59806 13.0235C4.59997 13.0583 4.59997 13.0932 4.59806 13.1281C4.59806 13.1497 4.59806 13.1714 4.59806 13.193C4.58926 13.2285 4.57842 13.2634 4.56559 13.2976C4.56559 13.3192 4.5656 13.3373 4.54395 13.3589C4.52709 13.3962 4.50781 13.4324 4.48624 13.4671L4.45738 13.514C4.39029 13.6159 4.30316 13.703 4.20128 13.7701L4.15078 13.799L4.04618 13.8531L3.98125 13.8747L3.88026 13.9036H3.81172H3.71073H3.64219H3.53759H3.47266L3.35363 13.8675H3.30674C3.25386 13.8444 3.20315 13.8167 3.15524 13.7845C3.28019 13.4832 3.46556 13.2107 3.6999 12.9838L3.71073 12.9802ZM3.71073 16.3419C3.47076 16.1018 3.28509 15.8131 3.16624 15.4951C3.04739 15.1771 2.99813 14.8374 3.02178 14.4987H3.05785L3.13721 14.5276C3.20434 14.5525 3.27302 14.5729 3.34281 14.5889L3.43659 14.607C3.51057 14.6192 3.58528 14.6264 3.66023 14.6286H3.72876C3.8256 14.6273 3.92215 14.6177 4.01732 14.5997H4.07504C4.15101 14.5834 4.22574 14.5617 4.29867 14.5348L4.38524 14.4987C4.4511 14.4693 4.51497 14.4355 4.57642 14.3977L4.65577 14.3509C4.73958 14.2944 4.81806 14.2304 4.89023 14.1597C4.9624 14.0865 5.02761 14.0068 5.08501 13.9216L5.1319 13.8459C5.16975 13.7844 5.20349 13.7206 5.2329 13.6547L5.26897 13.5681C5.29603 13.494 5.31773 13.4181 5.3339 13.3409C5.3339 13.3228 5.3339 13.3048 5.3339 13.2868C5.35069 13.1915 5.35914 13.095 5.35914 12.9982C5.35914 12.973 5.35914 12.9441 5.35914 12.9189C5.35662 12.8463 5.34939 12.774 5.3375 12.7024C5.3375 12.67 5.3375 12.6375 5.31586 12.605C5.2998 12.5353 5.27932 12.4666 5.25454 12.3994C5.25454 12.3706 5.23651 12.3453 5.22568 12.3201V12.2912C5.5629 12.2695 5.90086 12.3199 6.21705 12.4391C6.53324 12.5583 6.82037 12.7436 7.05931 12.9825C7.29825 13.2215 7.4835 13.5086 7.60271 13.8248C7.72191 14.141 7.77234 14.479 7.75061 14.8162H7.72537C7.65606 14.7885 7.58496 14.7656 7.51255 14.7476C7.47648 14.7476 7.44041 14.7224 7.40073 14.7152C7.28805 14.6914 7.17322 14.6793 7.05806 14.6791C6.78725 14.6766 6.52004 14.7412 6.28025 14.8671C6.04046 14.9929 5.83555 15.1762 5.68378 15.4005L5.63689 15.4799C5.60042 15.5402 5.56789 15.6029 5.5395 15.6674L5.50343 15.754C5.47637 15.8281 5.45468 15.904 5.4385 15.9812C5.4385 15.9993 5.4385 16.0173 5.4385 16.0389C5.42172 16.1342 5.41327 16.2308 5.41325 16.3275C5.41325 16.3528 5.41325 16.378 5.41325 16.4033C5.4156 16.477 5.42283 16.5505 5.43489 16.6233C5.43489 16.6558 5.43489 16.6846 5.45293 16.7171C5.47 16.7881 5.49169 16.858 5.51785 16.9263C5.51785 16.9515 5.51785 16.9768 5.54671 17.002V17.0309C5.20782 17.0548 4.86773 17.0061 4.54922 16.8879C4.23071 16.7697 3.94114 16.5848 3.6999 16.3455L3.71073 16.3419ZM7.07249 16.3419C6.84814 16.5682 6.58078 16.7472 6.28615 16.8686C6.25372 16.8196 6.22595 16.7676 6.20319 16.7135C6.20319 16.7135 6.20319 16.681 6.20319 16.6666C6.18859 16.6277 6.17654 16.588 6.16712 16.5475C6.16712 16.5259 6.16712 16.5079 6.16712 16.4862C6.16507 16.4502 6.16507 16.4141 6.16712 16.378C6.16712 16.3564 6.16712 16.3347 6.16712 16.3131C6.16509 16.277 6.16509 16.2409 6.16712 16.2049C6.16712 16.1832 6.16712 16.1616 6.16712 16.1399C6.17592 16.1045 6.18676 16.0696 6.19959 16.0353C6.19959 16.0137 6.19959 15.9957 6.22123 15.974C6.23707 15.9381 6.25514 15.9031 6.27533 15.8694L6.30419 15.8189C6.33805 15.7684 6.37671 15.7213 6.41962 15.6782C6.57762 15.531 6.77936 15.4394 6.9942 15.4172C7.20904 15.3951 7.42523 15.4437 7.60994 15.5556C7.48273 15.8534 7.29618 16.1222 7.06167 16.3455L7.07249 16.3419ZM12.6742 15.0975L12.8402 15.0182C12.9484 14.9604 13.0566 14.8991 13.1612 14.8342L13.2946 14.7548C13.4065 14.6827 13.5111 14.6033 13.6157 14.524L13.7203 14.4482C14.0145 14.2124 14.2797 13.9423 14.5102 13.6439L14.6148 13.5032C14.7014 13.3854 14.7819 13.2651 14.8565 13.1425L14.9539 12.9766C15.0332 12.8359 15.1018 12.6952 15.1667 12.5473C15.1667 12.5077 15.2064 12.4716 15.2208 12.4319C15.3833 13.3186 15.6321 14.1872 15.9639 15.0254L15.4985 15.4907L15.0332 15.956C14.1884 15.6203 13.3124 15.369 12.4181 15.2057C12.5119 15.1733 12.5877 15.1336 12.6634 15.0975H12.6742ZM20.7143 20.1726C20.7107 20.3083 20.6552 20.4374 20.5592 20.5333C20.4572 20.6308 20.3216 20.6852 20.1805 20.6852C20.0394 20.6852 19.9038 20.6308 19.8017 20.5333L15.6248 16.378L16.3823 15.6205L20.5592 19.7939C20.6089 19.8436 20.6482 19.9027 20.6748 19.9677C20.7014 20.0327 20.7149 20.1024 20.7143 20.1726Z" fill="#83529B"/>
</svg>
