<svg viewBox="0 0 59 43" fill="none" xmlns="http://www.w3.org/2000/svg">
<path fill-rule="evenodd" clip-rule="evenodd" d="M10.9558 9.15822C17.6621 9.15822 20.9116 16.9708 20.9116 22.7092C20.9116 28.3093 17.8695 35.8453 11.5089 36.2601V40.9615H30.3834V36.2601C25.8895 35.9836 22.2943 32.2501 22.2943 27.7562C22.2943 22.9857 26.166 19.1832 30.8674 19.1832C35.5687 19.1832 39.4404 22.9857 39.4404 27.7562C39.4404 32.2501 35.8453 35.9836 31.3514 36.2601V40.9615H48.4974V33.4946C42.0677 33.1489 38.0577 26.0969 41.0997 20.3585C40.6849 14.8966 41.8602 1 49.0505 1C56.2408 1 57.4162 14.8966 57.0014 20.3585C59.9743 26.0969 55.9643 33.1489 49.5345 33.4946V40.9615H55.8952C56.5174 40.9615 56.4483 41.9294 55.826 41.8602C51.3321 41.8602 10.4027 41.8602 5.90876 41.8602C5.28652 41.9294 5.21739 40.9615 5.83962 40.9615H10.4718V36.2601C4.11119 35.8453 1 28.3093 1 22.7092C1 16.9708 4.24946 9.15822 10.9558 9.15822ZM15.7263 21.3264L11.5089 25.8204V35.223C16.1411 34.8774 19.8745 29.4155 19.8745 22.7092C19.8745 15.7954 15.8646 10.1953 10.9558 10.1953C6.04704 10.1953 2.03706 15.7954 2.03706 22.7092C2.03706 29.4155 5.77049 34.8774 10.4718 35.223V30.5217L6.25445 26.0278C5.83962 25.6129 6.531 24.9907 6.94582 25.4055L10.4718 29.2081V20.1511C10.4027 19.4597 11.5089 19.4597 11.5089 20.1511V24.5067L15.0349 20.7042C15.4497 20.2202 16.1411 20.8425 15.7263 21.3264ZM28.8624 29.5538L30.3834 31.3514V25.7512C30.3143 25.0598 31.3514 25.0598 31.3514 25.7512V35.223C35.2922 34.9465 38.4034 31.697 38.4034 27.7562C38.4034 23.5388 35.0156 20.2202 30.8674 20.2202C26.7191 20.2202 23.3314 23.5388 23.3314 27.7562C23.3314 31.697 26.4426 34.9465 30.3834 35.223V32.8032L28.171 30.176C27.7562 29.6921 28.4476 29.0698 28.8624 29.5538ZM44.2801 16.8325L48.4974 21.3264V32.4576C42.6899 32.1119 39.233 25.6129 42.2059 20.5659C41.6528 15.6571 42.759 2.03706 49.0505 2.03706C55.3421 2.03706 56.4483 15.6571 55.8952 20.5659C58.7989 25.6129 55.4112 32.1119 49.5345 32.4576V27.7562L53.7519 23.3314C54.1667 22.8474 53.4753 22.2252 53.0605 22.7092L49.5345 26.4426V13.0991C49.5345 12.4077 48.4974 12.4077 48.4974 13.1682V20.0128L44.9714 16.2794C44.5566 15.7954 43.8652 16.4177 44.2801 16.8325Z" fill="#83529B" stroke="#83529B" stroke-width="0.5"/>
</svg>