<svg viewBox="0 0 21 22" fill="none" xmlns="http://www.w3.org/2000/svg">
<path d="M20 10.8312H1L1.01084 10.6253C1.1409 8.72851 2.13805 6.92931 3.81803 5.57449L3.8397 5.56365C3.85054 5.55281 5.43297 4.41476 7.0154 3.28755C10.1152 1.09816 10.397 1.00062 10.5163 1.00062C10.6355 0.989777 10.9173 1.09816 14.0063 3.28755C15.5887 4.41476 17.1603 5.55281 17.1711 5.56365L17.1928 5.57449C18.8728 6.92931 19.8591 8.71767 20 10.6253V10.8312ZM1.40103 10.4518H19.5881C19.4039 8.72851 18.4718 7.11356 16.9435 5.87797C14.6891 4.24135 11.004 1.61841 10.5054 1.3908C10.0068 1.61841 6.3109 4.23051 4.04564 5.86713L3.92641 5.72623L4.04564 5.87797C2.5174 7.11356 1.58528 8.73935 1.40103 10.4518Z" fill="#83529B" stroke="#83529B" stroke-width="0.5"/>
<path d="M13.8229 10.6577C13.8229 10.6252 13.6062 7.21109 10.3438 1.29324L10.6797 1.10898C13.9747 7.11354 14.1914 10.4952 14.2023 10.6361L13.8229 10.6577Z" fill="#83529B" stroke="#83529B" stroke-width="0.5"/>
<path d="M7.17818 10.6577L6.79883 10.6361C6.80967 10.4952 7.0156 7.11354 10.3214 1.10898L10.6574 1.29324C8.9557 4.38222 8.09946 6.7667 7.68759 8.21907C7.23237 9.79066 7.17818 10.6469 7.17818 10.6577Z" fill="#83529B" stroke="#83529B" stroke-width="0.5"/>
<path d="M10.645 10.7336H10.2656V21.1061H10.645V10.7336Z" fill="#83529B" stroke="#83529B" stroke-width="0.5"/>
</svg>
