<svg viewBox="0 0 16 24" fill="none" xmlns="http://www.w3.org/2000/svg">
<path d="M8.3535 23.8535L15.8535 16.3535C16.0488 16.1582 16.0488 15.8418 15.8535 15.6465C15.6582 15.4512 15.3418 15.4512 15.1465 15.6465L8.49999 22.293L8.49999 0.500015C8.49999 0.22364 8.27635 -3.37612e-07 7.99997 -3.49692e-07C7.72359 -3.61773e-07 7.49995 0.22364 7.49995 0.500015L7.49995 22.293L0.853499 15.6465C0.658171 15.4512 0.341766 15.4512 0.146484 15.6465C0.0488436 15.7441 -6.93791e-07 15.8721 -6.99383e-07 16C-7.04975e-07 16.1279 0.0488436 16.2559 0.146484 16.3536L7.64649 23.8535C7.84177 24.0488 8.15817 24.0488 8.3535 23.8535Z" fill="white"/>
</svg>
