<svg viewBox="0 0 43 43" fill="none" xmlns="http://www.w3.org/2000/svg">
<circle cx="21.5" cy="21.5" r="21" />
<path d="M26.0213 21.0361L26.0213 21.036L18.6251 15.7123L18.6249 15.7122C18.3256 15.4966 18.0651 15.4141 17.8952 15.4141C17.7506 15.4141 17.6522 15.4677 17.576 15.5733C17.4888 15.694 17.4141 15.9107 17.4141 16.2478V27.754C17.4141 28.0907 17.4887 28.3069 17.5756 28.4273C17.6516 28.5326 17.7496 28.5859 17.8934 28.5859C18.0623 28.5859 18.3171 28.5045 18.6188 28.287L18.6191 28.2868L26.0185 22.9634L26.0213 21.0361ZM26.0213 21.0361C26.4116 21.3169 26.586 21.6622 26.5859 21.9993V21.9994M26.0213 21.0361L26.5859 21.9994M26.5859 21.9994C26.5859 22.3354 26.4098 22.6814 26.0188 22.9632L26.5859 21.9994Z"  stroke-width="0.828125"/>
</svg>
