<svg viewBox="0 0 48 37" fill="none" xmlns="http://www.w3.org/2000/svg">
<path d="M16.3977 36.062C15.5327 36.062 14.783 35.8025 13.9468 35.37C13.6008 35.197 13.2548 35.024 12.9087 34.8221C11.9572 34.3031 10.9768 33.7553 9.73692 33.5534C7.978 33.2651 6.68044 33.5822 5.12336 34.2166C4.54667 34.4473 4.02764 34.7068 3.53745 34.9663C2.78775 35.37 2.06688 35.7449 1.23068 35.9179L1 34.9375C1.72087 34.7645 2.38407 34.4185 3.0761 34.0724C3.59512 33.8129 4.14298 33.5246 4.74851 33.2651C6.42093 32.6019 7.94917 32.227 9.90993 32.5442C11.3517 32.7749 12.4474 33.4092 13.4278 33.9283C13.7738 34.1301 14.091 34.3031 14.4081 34.4473C15.475 34.9663 16.2247 35.1682 17.3493 34.9086C18.0702 34.7356 18.7334 34.3896 19.4254 34.0436C19.9444 33.7841 20.4923 33.4957 21.0978 33.2362C22.7702 32.573 24.2985 32.1982 26.2592 32.5154C27.7009 32.746 28.7967 33.3804 29.777 33.8994C30.1231 34.1013 30.4402 34.2743 30.7574 34.4185C31.8243 34.9375 32.5452 35.1393 33.6986 34.8798C34.4194 34.7068 35.0826 34.3608 35.7747 34.0148C36.2937 33.7553 36.8415 33.4669 37.4471 33.2074C39.1195 32.5442 40.6477 32.1693 42.6085 32.4865C44.0502 32.7172 45.146 33.3516 46.1263 33.8706C46.4723 34.0724 46.7895 34.2454 47.1067 34.3896L46.6742 35.2835C46.3282 35.1105 45.9822 34.9375 45.6361 34.7356C44.6846 34.2166 43.7042 33.6688 42.4643 33.4669C40.7054 33.1786 39.4078 33.4957 37.8508 34.1301C37.2741 34.3608 36.755 34.6203 36.2649 34.8798C35.5152 35.2835 34.7943 35.6295 33.9581 35.8314C32.5452 36.1774 31.5648 35.889 30.3537 35.2835C30.0077 35.1105 29.6617 34.9375 29.3157 34.7356C28.3641 34.2166 27.3838 33.6688 26.1439 33.4669C24.385 33.1786 23.0874 33.4957 21.5303 34.1301C20.9536 34.3608 20.4346 34.6203 19.9444 34.8798C19.1947 35.2835 18.4738 35.6295 17.6376 35.8314C17.1474 36.0044 16.7726 36.062 16.3977 36.062Z" fill="#AFBE2D" stroke="#83529B"/>
<path d="M16.3977 28.219C15.5327 28.219 14.783 27.9595 13.9468 27.527C13.6008 27.354 13.2548 27.1521 12.9087 26.9791C11.9572 26.4601 10.9768 25.9122 9.73692 25.7104C7.978 25.422 6.68044 25.7392 5.12336 26.3736C4.54667 26.6043 4.02764 26.8638 3.53745 27.1233C2.78775 27.527 2.06688 27.9018 1.23068 28.0748L1 27.0945C1.72087 26.9214 2.38407 26.5754 3.0761 26.2294C3.59512 25.9699 4.14298 25.6816 4.74851 25.422C6.42093 24.7588 7.94917 24.384 9.90993 24.7012C11.3517 24.9319 12.4474 25.5662 13.4278 26.0852C13.7738 26.2871 14.091 26.4601 14.4081 26.6043C15.475 27.1233 16.1959 27.3251 17.3493 27.0656C18.0702 26.8926 18.7334 26.5466 19.4254 26.2006C19.9444 25.9411 20.4923 25.6527 21.0978 25.3932C22.7702 24.73 24.2985 24.3552 26.2592 24.6723C27.7009 24.903 28.7967 25.5374 29.777 26.0564C30.1231 26.2583 30.4402 26.4313 30.7574 26.5754C31.8243 27.0945 32.5452 27.2963 33.6986 27.0368C34.4194 26.8638 35.0826 26.5178 35.7747 26.1717C36.2937 25.9122 36.8415 25.6239 37.4471 25.3644C39.1195 24.7012 40.6477 24.3263 42.6085 24.6435C44.0502 24.8742 45.146 25.5085 46.1263 26.0276C46.4723 26.2294 46.7895 26.4024 47.1067 26.5466L46.6742 27.4405C46.3282 27.2675 45.9822 27.0945 45.6361 26.8926C44.6846 26.3736 43.7042 25.8257 42.4643 25.6239C40.7054 25.3355 39.4078 25.6527 37.8508 26.2871C37.2741 26.5178 36.755 26.7773 36.2649 27.0368C35.5152 27.4405 34.7943 27.8153 33.9581 27.9883C32.5452 28.3344 31.5648 28.046 30.3537 27.4405C30.0077 27.2675 29.6617 27.0945 29.3157 26.8926C28.3641 26.3736 27.3838 25.8257 26.1439 25.6239C24.385 25.3355 23.0874 25.6527 21.5303 26.2871C20.9536 26.5178 20.4346 26.7773 19.9444 27.0368C19.1947 27.4405 18.4738 27.8153 17.6376 27.9883C17.1474 28.1613 16.7726 28.219 16.3977 28.219Z" fill="#AFBE2D" stroke="#83529B"/>
<path d="M16.3977 20.3759C15.5327 20.3759 14.783 20.1164 13.9468 19.6838C13.6008 19.5108 13.2548 19.3378 12.9087 19.136C11.9572 18.617 10.9768 18.0691 9.73692 17.8673C7.978 17.5789 6.68044 17.8961 5.12336 18.5305C4.54667 18.7611 4.02764 19.0206 3.53745 19.2802C2.78775 19.6838 2.06688 20.0587 1.23068 20.2317L1 19.2513C1.72087 19.0783 2.38407 18.7323 3.0761 18.3863C3.59512 18.1268 4.14298 17.8384 4.74851 17.5789C6.42093 16.9157 7.94917 16.5409 9.90993 16.858C11.3517 17.0887 12.4474 17.7231 13.4278 18.2421C13.7738 18.4439 14.091 18.617 14.4081 18.7611C15.475 19.2802 16.1959 19.482 17.3493 19.2225C18.0702 19.0495 18.7334 18.7035 19.4254 18.3574C19.9444 18.0979 20.4923 17.8096 21.0978 17.5501C22.7702 16.8869 24.2985 16.512 26.2592 16.8292C27.7009 17.0599 28.7967 17.6942 29.777 18.2133C30.1231 18.4151 30.4402 18.5881 30.7574 18.7323C31.8243 19.2513 32.5452 19.4532 33.6986 19.1937C34.4194 19.0206 35.0826 18.6746 35.7747 18.3286C36.2937 18.0691 36.8415 17.7807 37.4471 17.5212C39.1195 16.858 40.6477 16.4832 42.6085 16.8004C44.0502 17.031 45.146 17.6654 46.1263 18.1844C46.4723 18.3863 46.7895 18.5593 47.1067 18.7035L46.6742 19.5973C46.3282 19.4243 45.9822 19.2513 45.6361 19.0495C44.6846 18.5305 43.7042 17.9826 42.4643 17.7807C40.7054 17.4924 39.4078 17.8096 37.8508 18.4439C37.2741 18.6746 36.755 18.9341 36.2649 19.1937C35.5152 19.5973 34.7943 19.9722 33.9581 20.1452C32.5452 20.4912 31.5648 20.2029 30.3537 19.5973C30.0077 19.4243 29.6617 19.2513 29.3157 19.0495C28.3641 18.5305 27.3838 17.9826 26.1439 17.7807C24.385 17.4924 23.0874 17.8096 21.5303 18.4439C20.9536 18.6746 20.4346 18.9341 19.9444 19.1937C19.1947 19.5973 18.4738 19.9722 17.6376 20.1452C17.1474 20.3182 16.7726 20.3759 16.3977 20.3759Z" fill="#AFBE2D" stroke="#83529B"/>
<path d="M16.3977 12.533C15.5327 12.533 14.783 12.2735 13.9468 11.8409C13.6008 11.6679 13.2548 11.4949 12.9087 11.2931C11.9572 10.7741 10.9768 10.2262 9.73692 10.0244C7.978 9.73601 6.68044 10.0532 5.12336 10.6876C4.54667 10.9182 4.02764 11.1777 3.53745 11.4373C2.78775 11.8409 2.06688 12.2158 1.23068 12.3888L1 11.4084C1.72087 11.2354 2.38407 10.8894 3.0761 10.5434C3.59512 10.2839 4.14298 9.99552 4.74851 9.73601C6.42093 9.07281 7.94917 8.69796 9.90993 9.01514C11.3517 9.24582 12.4474 9.88018 13.4278 10.3992C13.7738 10.6011 14.091 10.7741 14.4081 10.9182C15.475 11.4373 16.2247 11.6391 17.3493 11.3796C18.0702 11.2066 18.7334 10.8606 19.4254 10.5145C19.9444 10.255 20.4923 9.96668 21.0978 9.70717C22.7702 9.04397 24.2985 8.66912 26.2592 8.9863C27.7009 9.21698 28.7967 9.85135 29.777 10.3704C30.1231 10.5722 30.4402 10.7452 30.7574 10.8894C31.8243 11.4084 32.5452 11.6103 33.6986 11.3508C34.4194 11.1777 35.0826 10.8317 35.7747 10.4857C36.2937 10.2262 36.8415 9.93785 37.4471 9.67834C39.1195 9.01514 40.6477 8.64029 42.6085 8.95747C44.0502 9.18815 45.146 9.82251 46.1263 10.3415C46.4723 10.5434 46.7895 10.7164 47.1067 10.8606L46.6742 11.7544C46.3282 11.5814 45.9822 11.4084 45.6361 11.2066C44.6846 10.6876 43.7042 10.1397 42.4643 9.93785C40.7054 9.6495 39.4078 9.96669 37.8508 10.601C37.2741 10.8317 36.755 11.0912 36.2649 11.3508C35.5152 11.7544 34.7943 12.1005 33.9581 12.3023C32.5452 12.6483 31.5648 12.36 30.3537 11.7544C30.0077 11.5814 29.6617 11.4084 29.3157 11.2066C28.3641 10.6876 27.3838 10.1397 26.1439 9.93785C24.385 9.6495 23.0874 9.96669 21.5303 10.601C20.9536 10.8317 20.4346 11.0912 19.9444 11.3508C19.1947 11.7544 18.4738 12.1005 17.6376 12.3023C17.1474 12.4753 16.7726 12.533 16.3977 12.533Z" fill="#AFBE2D" stroke="#83529B"/>
<path d="M16.3977 4.68996C15.5327 4.68996 14.783 4.43045 13.9468 3.99793C13.6008 3.82492 13.2548 3.62307 12.9087 3.45007C11.9572 2.93104 10.9768 2.38318 9.73692 2.18134C7.978 1.89299 6.68044 2.21017 5.12336 2.84454C4.54667 3.07522 4.02764 3.33473 3.53745 3.59424C2.78775 3.99793 2.06688 4.37278 1.23068 4.54579L1 3.56541C1.72087 3.3924 2.38407 3.04638 3.0761 2.70036C3.59512 2.44085 4.14298 2.15251 4.74851 1.89299C6.42093 1.22979 7.94917 0.854943 9.90993 1.17213C11.3517 1.4028 12.4474 2.03717 13.4278 2.55619C13.7738 2.75803 14.091 2.93104 14.4081 3.07522C15.475 3.59424 16.2247 3.79608 17.3493 3.53657C18.0702 3.36356 18.7334 3.01755 19.4254 2.67153C19.9444 2.41202 20.4923 2.12367 21.0978 1.86416C22.7702 1.20096 24.2985 0.826107 26.2592 1.14329C27.7009 1.37397 28.7967 2.00833 29.777 2.52736C30.1231 2.7292 30.4402 2.90221 30.7574 3.04638C31.8243 3.56541 32.5452 3.76725 33.6986 3.50774C34.4194 3.33473 35.0826 2.98871 35.7747 2.6427C36.2937 2.38318 36.8415 2.09483 37.4471 1.83532C39.1195 1.17212 40.6477 0.797272 42.6085 1.11445C44.0502 1.34513 45.146 1.9795 46.1263 2.49852C46.4723 2.70036 46.7895 2.87337 47.1067 3.01755L46.6742 3.91142C46.3282 3.73842 45.9822 3.56541 45.6361 3.36356C44.6846 2.84454 43.7042 2.29668 42.4643 2.09484C40.7054 1.80649 39.4078 2.12367 37.8508 2.75803C37.2741 2.98871 36.755 3.24822 36.2649 3.50774C35.5152 3.91142 34.7943 4.25744 33.9581 4.45928C32.5452 4.8053 31.5648 4.51695 30.3537 3.91142C30.0077 3.73842 29.6617 3.56541 29.3157 3.36356C28.3641 2.84454 27.3838 2.29668 26.1439 2.09484C24.385 1.80649 23.0874 2.12367 21.5303 2.75803C20.9536 2.98871 20.4346 3.24822 19.9444 3.50774C19.1947 3.91142 18.4738 4.25744 17.6376 4.45928C17.1474 4.66112 16.7726 4.68996 16.3977 4.68996Z" fill="#AFBE2D" stroke="#83529B"/>
</svg>
