<svg viewBox="0 0 104 61" fill="none" xmlns="http://www.w3.org/2000/svg">
<path d="M34.6681 60.973C32.6958 60.973 31.1027 60.3661 29.1303 59.4558C28.3717 59.0765 27.5373 58.6213 26.7787 58.242C24.6546 57.0282 22.4546 55.8145 19.6478 55.3593C15.7031 54.7524 12.7445 55.4352 9.25495 56.8765C7.96533 57.4075 6.82742 58.0144 5.68952 58.5454C4.02059 59.4558 2.35167 60.2902 0.53102 60.6695L0 58.4696C1.59307 58.0903 3.11026 57.3317 4.62747 56.4972C5.76537 55.8903 6.97914 55.2834 8.42048 54.6766C12.1376 53.1594 15.5513 52.3249 20.0271 53.0835C23.2132 53.6145 25.7166 54.98 27.9166 56.1938C28.6752 56.6489 29.4338 57.0282 30.1165 57.4075C32.4682 58.5454 34.1371 59.0765 36.7164 58.4696C38.3094 58.0903 39.8266 57.3317 41.3438 56.4972C42.4817 55.8903 43.6955 55.2834 45.1369 54.6766C48.854 53.1594 52.2677 52.3249 56.7435 53.0835C59.9296 53.6145 62.433 54.98 64.6329 56.1938C65.3915 56.6489 66.1501 57.0282 66.8329 57.4075C69.1846 58.5454 70.8535 59.0765 73.4327 58.4696C75.0258 58.0903 76.543 57.3317 78.0602 56.4972C79.1981 55.8903 80.4119 55.2834 81.8532 54.6766C85.5704 53.1594 88.9841 52.3249 93.4598 53.0835C96.646 53.6145 99.1494 54.98 101.349 56.1938C102.108 56.6489 102.867 57.0282 103.549 57.4075L102.563 59.4558C101.804 59.0765 100.97 58.6213 100.211 58.242C98.0873 57.0282 95.8874 55.8145 93.0805 55.3593C89.1358 54.7524 86.1772 55.4352 82.6877 56.8765C81.398 57.4075 80.2602 58.0144 79.1223 58.5454C77.4533 59.4558 75.7844 60.2902 73.9638 60.6695C70.7776 61.4281 68.5777 60.8212 65.8467 59.4558C65.0881 59.0765 64.2536 58.6213 63.495 58.242C61.3709 57.0282 59.171 55.8145 56.3642 55.3593C52.4194 54.7524 49.4609 55.4352 45.9713 56.8765C44.6817 57.4075 43.5438 58.0144 42.4059 58.5454C40.737 59.4558 39.068 60.2902 37.2474 60.6695C36.3371 60.8213 35.5026 60.973 34.6681 60.973Z" fill="white"/>
<path d="M34.6681 43.3732C32.6958 43.3732 31.1027 42.7664 29.1303 41.856C28.3717 41.4767 27.5373 41.0216 26.7787 40.6423C24.6546 39.4285 22.4546 38.2147 19.6478 37.7596C15.7031 37.1527 12.7445 37.8354 9.25495 39.2768C7.96533 39.8078 6.82742 40.4147 5.68952 40.9457C4.02059 41.856 2.35167 42.6905 0.53102 43.0698L0 40.8698C1.59307 40.4905 3.11026 39.7319 4.62747 38.8975C5.76537 38.2906 6.97914 37.6837 8.42048 37.0768C12.1376 35.5596 15.5513 34.7252 20.0271 35.4838C23.2132 36.0148 25.7166 37.3803 27.9166 38.594C28.6752 39.0492 29.4338 39.4285 30.1165 39.8078C32.4682 40.9457 34.1371 41.4767 36.7164 40.8698C38.3094 40.4905 39.8266 39.7319 41.3438 38.8975C42.4817 38.2906 43.6955 37.6837 45.1369 37.0768C48.854 35.5596 52.2677 34.7252 56.7435 35.4838C59.9296 36.0148 62.433 37.3803 64.6329 38.594C65.3915 39.0492 66.1501 39.4285 66.8329 39.8078C69.1846 40.9457 70.8535 41.4767 73.4327 40.8698C75.0258 40.4905 76.543 39.7319 78.0602 38.8975C79.1981 38.2906 80.4119 37.6837 81.8532 37.0768C85.5704 35.5596 88.9841 34.7252 93.4598 35.4838C96.646 36.0148 99.1494 37.3803 101.349 38.594C102.108 39.0492 102.867 39.4285 103.549 39.8078L102.563 41.856C101.804 41.4767 100.97 41.0216 100.211 40.6423C98.0873 39.4285 95.8874 38.2147 93.0805 37.7596C89.1358 37.1527 86.1772 37.8354 82.6877 39.2768C81.398 39.8078 80.2602 40.4147 79.1223 40.9457C77.4533 41.856 75.7844 42.6905 73.9638 43.0698C70.7776 43.8284 68.5777 43.2215 65.8467 41.856C65.0881 41.4767 64.2536 41.0216 63.495 40.6423C61.3709 39.4285 59.171 38.2147 56.3642 37.7596C52.4194 37.1527 49.4609 37.8354 45.9713 39.2768C44.6817 39.8078 43.5438 40.4147 42.4059 40.9457C40.737 41.856 39.068 42.6905 37.2474 43.0698C36.3371 43.2974 35.5026 43.3732 34.6681 43.3732Z" fill="white"/>
<path d="M34.6681 25.7737C32.6958 25.7737 31.1027 25.1668 29.1303 24.2565C28.3717 23.8772 27.5373 23.422 26.7787 23.0427C24.6546 21.829 22.4546 20.6152 19.6478 20.16C15.7031 19.5531 12.7445 20.2359 9.25495 21.6772C7.96533 22.2083 6.82742 22.8151 5.68952 23.3462C4.02059 24.2565 2.35167 25.0909 0.53102 25.4702L0 23.2703C1.59307 22.891 3.11026 22.1324 4.62747 21.2979C5.76537 20.6911 6.97914 20.0842 8.42048 19.4773C12.1376 17.9601 15.5513 17.1256 20.0271 17.8842C23.2132 18.4152 25.7166 19.7807 27.9166 20.9945C28.6752 21.4497 29.4338 21.829 30.1165 22.2083C32.4682 23.3462 34.1371 23.8772 36.7164 23.2703C38.3094 22.891 39.8266 22.1324 41.3438 21.2979C42.4817 20.6911 43.6955 20.0842 45.1369 19.4773C48.854 17.9601 52.2677 17.1256 56.7435 17.8842C59.9296 18.4152 62.433 19.7807 64.6329 20.9945C65.3915 21.4497 66.1501 21.829 66.8329 22.2083C69.1846 23.3462 70.8535 23.8772 73.4327 23.2703C75.0258 22.891 76.543 22.1324 78.0602 21.2979C79.1981 20.6911 80.4119 20.0842 81.8532 19.4773C85.5704 17.9601 88.9841 17.1256 93.4598 17.8842C96.646 18.4152 99.1494 19.7807 101.349 20.9945C102.108 21.4497 102.867 21.829 103.549 22.2083L102.563 24.2565C101.804 23.8772 100.97 23.422 100.211 23.0427C98.0873 21.829 95.8874 20.6152 93.0805 20.16C89.1358 19.5531 86.1772 20.2359 82.6877 21.6772C81.398 22.2083 80.2602 22.8151 79.1223 23.3462C77.4533 24.2565 75.7844 25.0909 73.9638 25.4702C70.7776 26.2288 68.5777 25.622 65.8467 24.2565C65.0881 23.8772 64.2536 23.422 63.495 23.0427C61.3709 21.829 59.171 20.6152 56.3642 20.16C52.4194 19.5531 49.4609 20.2359 45.9713 21.6772C44.6817 22.2083 43.5438 22.8151 42.4059 23.3462C40.737 24.2565 39.068 25.0909 37.2474 25.4702C36.3371 25.6978 35.5026 25.7737 34.6681 25.7737Z" fill="white"/>
<path d="M34.6681 8.17414C32.6958 8.17414 31.1027 7.56726 29.1303 6.65694C28.3717 6.27764 27.5373 5.82247 26.7787 5.44317C24.6546 4.22941 22.4546 3.01564 19.6478 2.56048C15.7031 1.9536 12.7445 2.63634 9.25495 4.07769C7.96533 4.60871 6.82742 5.21559 5.68952 5.74661C4.02059 6.65694 2.35167 7.4914 0.53102 7.8707L0 5.67075C1.59307 5.29145 3.11026 4.53285 4.62747 3.69839C5.76537 3.0915 6.97914 2.48462 8.42048 1.87774C12.1376 0.360533 15.5513 -0.473929 20.0271 0.284674C23.2132 0.815696 25.7166 2.18118 27.9166 3.39494C28.6752 3.85011 29.4338 4.22941 30.1165 4.60871C32.4682 5.74661 34.1371 6.27763 36.7164 5.67075C38.3094 5.29145 39.8266 4.53285 41.3438 3.69839C42.4817 3.0915 43.6955 2.48462 45.1369 1.87774C48.854 0.360533 52.2677 -0.473929 56.7435 0.284674C59.9296 0.815696 62.433 2.18118 64.6329 3.39494C65.3915 3.85011 66.1501 4.22941 66.8329 4.60871C69.1846 5.74661 70.8535 6.27763 73.4327 5.67075C75.0258 5.29145 76.543 4.53285 78.0602 3.69839C79.1981 3.0915 80.4119 2.48462 81.8532 1.87774C85.5704 0.360533 88.9841 -0.473929 93.4598 0.284674C96.646 0.815696 99.1494 2.18118 101.349 3.39494C102.108 3.85011 102.867 4.22941 103.549 4.60871L102.563 6.65694C101.804 6.27764 100.97 5.82247 100.211 5.44317C98.0873 4.22941 95.8874 3.01564 93.0805 2.56048C89.1358 1.9536 86.1772 2.63634 82.6877 4.07769C81.398 4.60871 80.2602 5.21559 79.1223 5.74661C77.4533 6.65694 75.7844 7.4914 73.9638 7.8707C70.7776 8.6293 68.5777 8.02242 65.8467 6.65694C65.0881 6.27764 64.2536 5.82247 63.495 5.44317C61.3709 4.22941 59.171 3.01564 56.3642 2.56048C52.4194 1.9536 49.4609 2.63634 45.9713 4.07769C44.6817 4.60871 43.5438 5.21559 42.4059 5.74661C40.737 6.65694 39.068 7.4914 37.2474 7.8707C36.3371 8.09828 35.5026 8.17414 34.6681 8.17414Z" fill="white"/>
</svg>
