<svg viewBox="0 0 18 12" fill="none" xmlns="http://www.w3.org/2000/svg">
<path d="M16.939 6.13747C16.9797 6.066 17 5.98618 17 5.90637C17 5.83861 16.9852 5.77086 16.9565 5.70867C16.6069 4.96339 16.1741 4.25708 15.6682 3.60646C15.044 2.80456 14.3245 2.10382 13.6299 1.42722L13.3256 1.13114C13.1425 0.952941 12.8503 0.956655 12.6718 1.14042C12.4942 1.32141 12.4979 1.61841 12.681 1.79661L12.9844 2.09268C13.6586 2.74794 14.354 3.42548 14.9395 4.17726C15.2373 4.56058 15.4971 4.97081 15.7367 5.39311C12.5626 5.61308 4.68085 5.69661 1.46797 5.65577C1.21271 5.65299 1.00277 5.85717 1 6.11427C1 6.11612 1 6.11798 1 6.11984C1 6.37321 1.20346 6.58112 1.45687 6.5839C4.6753 6.62567 12.5663 6.54213 15.7441 6.3231C14.8997 7.70322 13.9221 9.01374 12.8151 10.2212C12.6422 10.4087 12.6542 10.7029 12.8419 10.8774C13.0297 11.051 13.3229 11.0389 13.4958 10.8496C14.822 9.40355 15.9799 7.81738 16.939 6.13747Z" fill="white" stroke="white" stroke-width="0.5"/>
</svg>
