<svg viewBox="0 0 51 49" fill="none" xmlns="http://www.w3.org/2000/svg">
<path d="M13.9693 26.6211C13.5459 26.6211 13.1894 26.4874 12.7883 26.3091C12.6323 26.2422 12.4763 26.1531 12.3203 26.064C11.9192 25.8411 11.4958 25.596 10.961 25.5069C10.2256 25.3955 9.64626 25.5292 8.97775 25.7966C8.73262 25.8857 8.50979 26.0194 8.28695 26.1308C7.93041 26.3091 7.61844 26.4874 7.21733 26.5765L7.03906 25.8188C7.32875 25.752 7.61844 25.596 7.93041 25.44C8.17553 25.3063 8.42065 25.1949 8.68806 25.0835C9.46799 24.7715 10.1588 24.5932 11.0947 24.7492C11.7632 24.8606 12.2757 25.1503 12.7214 25.3955C12.8774 25.4846 13.0111 25.5514 13.1448 25.6406C13.635 25.8857 13.947 25.9303 14.3481 25.8411C14.6378 25.7743 14.9275 25.6183 15.2395 25.4623C15.4846 25.3286 15.7297 25.2172 15.9971 25.1058C16.777 24.7938 17.4678 24.6155 18.4038 24.7715C19.0723 24.8829 19.5848 25.1726 20.0305 25.4177C20.1865 25.5069 20.3202 25.5737 20.4539 25.6629C20.9441 25.908 21.2561 25.9525 21.6572 25.8634C21.9469 25.7966 22.2366 25.6406 22.5485 25.4846C22.7936 25.3509 23.0388 25.2395 23.3062 25.1281C24.0861 24.8161 24.7769 24.6378 25.7128 24.7938C26.3813 24.9052 26.8938 25.1949 27.3395 25.44C27.4955 25.5292 27.6292 25.596 27.7629 25.6629L27.4287 26.3537C27.2727 26.2868 27.1167 26.1977 26.9607 26.1085C26.5596 25.8857 26.1362 25.6406 25.6014 25.5514C24.866 25.44 24.2867 25.5737 23.6181 25.8411C23.373 25.9303 23.1502 26.064 22.9274 26.1754C22.5708 26.3537 22.2588 26.5319 21.8577 26.6211C21.1669 26.777 20.699 26.6433 20.1196 26.3759C19.9636 26.3091 19.8076 26.22 19.6516 26.1308C19.2505 25.908 18.8271 25.6629 18.2923 25.5737C17.557 25.4623 16.9776 25.596 16.3091 25.8634C16.064 25.9525 15.8411 26.0863 15.6183 26.1977C15.2618 26.3759 14.9498 26.5542 14.5487 26.6433C14.3258 26.5988 14.1476 26.6211 13.9693 26.6211Z" fill="#83529B" stroke="#83529B" stroke-width="0.5"/>
<path d="M40.3309 47.902H12.7882L9 38.0081H44.1191L40.3309 47.902ZM13.323 47.1444H39.7961L42.9827 38.8103H10.1365L13.323 47.1444Z" fill="#83529B" stroke="#83529B" stroke-width="0.5"/>
<path d="M27.9831 6.25378H27.2031V38.5206H27.9831V6.25378Z" fill="#83529B" stroke="#83529B" stroke-width="0.5"/>
<path d="M20.9643 37.0944H5.92282L3.2042 37.0721C2.37971 37.0721 1.62206 36.6042 1.24324 35.8688C0.864415 35.1334 0.931266 34.2421 1.42151 33.5736L23.9726 1.93072C24.552 1.1285 25.5102 0.81653 26.4461 1.10622C27.382 1.39591 27.9837 2.24269 27.9837 3.22317V30.075C27.9837 33.9301 24.8417 37.0944 20.9643 37.0944ZM25.733 1.77473C25.3319 1.77473 24.9085 1.93072 24.5743 2.37639L2.04545 33.997C1.73348 34.4427 1.68891 34.9997 1.93403 35.49C2.17915 35.9802 2.64711 36.2699 3.2042 36.2699L5.92282 36.2922H20.9643C24.4183 36.2922 27.2038 33.4845 27.2038 30.0528V3.20089C27.2038 2.42096 26.6912 1.97529 26.201 1.8193C26.0673 1.79702 25.9113 1.77473 25.733 1.77473Z" fill="#83529B" stroke="#83529B" stroke-width="0.5"/>
<path d="M27.6038 37.0944V36.3145H44.428L48.5059 36.27L27.2695 6.47663L27.9158 6.00867L49.9989 37.0276L44.428 37.0944H27.6038Z" fill="#83529B" stroke="#83529B" stroke-width="0.5"/>
</svg>
