<svg viewBox="0 0 14 10" fill="none" xmlns="http://www.w3.org/2000/svg">
<path d="M12.9262 0.894375C12.5601 0.243 12.1627 0.123188 11.3535 0.077625C10.5452 0.0227813 8.51259 0 6.75169 0C4.98741 0 2.95397 0.0227813 2.1465 0.0767813C1.33903 0.123188 0.940781 0.242156 0.571219 0.894375C0.194062 1.54491 0 2.66541 0 4.63809V4.64062V4.64316V4.64484C0 6.60909 0.194062 7.73803 0.571219 8.38181C0.940781 9.03319 1.33819 9.15131 2.14566 9.20616C2.95397 9.25341 4.98741 9.28125 6.75169 9.28125C8.51259 9.28125 10.5452 9.25341 11.3543 9.207C12.1635 9.15216 12.5609 9.03403 12.9271 8.38266C13.3076 7.73888 13.5 6.60994 13.5 4.64569V4.64147V4.63894C13.5 2.66541 13.3076 1.54491 12.9262 0.894375ZM5.0625 7.17188V2.10938L9.28125 4.64062L5.0625 7.17188Z" fill="white"/>
</svg>
