<svg width="225" height="97" viewBox="0 0 225 97" fill="none" xmlns="http://www.w3.org/2000/svg">
<path d="M188.971 87.3234C188.971 86.6816 189.22 86.0754 189.684 85.6119L196.066 79.2651L196.387 80.1565C196.851 81.3688 197.528 82.4385 198.455 83.3656C199.347 84.257 200.416 84.9344 201.593 85.398L202.484 85.7545L196.138 92.0656C195.674 92.5291 195.068 92.7787 194.39 92.7787C193.749 92.7787 193.107 92.5291 192.643 92.0656L189.613 89.0349C189.22 88.5713 188.971 87.9652 188.971 87.3234ZM195.603 81.4758L190.54 86.5033C190.326 86.7172 190.183 87.0025 190.183 87.3234C190.183 87.6443 190.29 87.9295 190.54 88.1435L193.57 91.1742C193.784 91.3881 194.105 91.5308 194.426 91.5308C194.747 91.5308 195.068 91.4238 195.282 91.1742L200.309 86.1824C199.311 85.6832 198.384 85.0414 197.6 84.2213C196.779 83.4369 196.102 82.5098 195.603 81.4758Z" fill="white"/>
<circle cx="205.368" cy="76.8202" r="9.56678" fill="#FFDA05"/>
<path d="M205.216 96.5938C199.975 96.5938 195.054 94.5614 191.346 90.8532C187.638 87.145 185.605 82.2245 185.605 76.9831C185.605 71.7416 187.638 66.8211 191.346 63.1129C195.054 59.4047 199.975 57.3723 205.216 57.3723C210.458 57.3723 215.378 59.4047 219.086 63.1129C222.795 66.8211 224.827 71.7416 224.827 76.9831C224.827 82.2245 222.795 87.145 219.086 90.8532C215.378 94.5258 210.458 96.5938 205.216 96.5938ZM205.216 58.6203C200.296 58.6203 195.696 60.5457 192.237 64.0043C188.779 67.4629 186.853 72.0982 186.853 76.9831C186.853 81.8679 188.779 86.5032 192.237 89.9618C195.696 93.4204 200.331 95.3459 205.216 95.3459C210.137 95.3459 214.736 93.4204 218.195 89.9618C221.654 86.5032 223.579 81.8679 223.579 76.9831C223.579 72.0982 221.654 67.4629 218.195 64.0043C214.736 60.51 210.101 58.6203 205.216 58.6203ZM205.216 87.145C202.613 87.145 200.01 86.1466 198.014 84.1856C194.056 80.2278 194.056 73.774 198.014 69.8162C199.939 67.8908 202.471 66.8568 205.216 66.8568C207.926 66.8568 210.493 67.9265 212.419 69.8162C214.344 71.706 215.378 74.2732 215.378 77.0187C215.378 79.7642 214.308 82.2958 212.419 84.2212C210.422 86.1466 207.819 87.145 205.216 87.145ZM198.905 83.2942C202.399 86.7884 208.033 86.7884 211.527 83.2942C213.203 81.6183 214.13 79.372 214.13 76.9831C214.13 74.5941 213.203 72.3478 211.527 70.672C209.851 68.9961 207.605 68.0691 205.216 68.0691C202.827 68.0691 200.581 68.9961 198.905 70.672C195.411 74.1663 195.411 79.7999 198.905 83.2942Z" fill="white"/>
<path d="M196.514 74.7375L190.203 68.3907C189.24 67.428 189.24 65.8592 190.203 64.8965L193.269 61.83C193.697 61.4022 194.303 61.1526 194.909 61.1526C195.515 61.1526 196.121 61.4022 196.549 61.83L202.967 68.2838L202.076 68.6047C200.864 69.0682 199.794 69.7457 198.867 70.6727C197.975 71.5641 197.298 72.6338 196.835 73.8104L196.514 74.7375ZM194.945 62.4005C194.659 62.4005 194.374 62.5075 194.196 62.7214L191.13 65.7879C190.63 66.2514 190.63 67.0358 191.13 67.535L196.121 72.5268C196.621 71.5285 197.262 70.6014 198.082 69.817C198.903 68.9969 199.83 68.3551 200.864 67.8559L195.765 62.7214C195.515 62.5075 195.23 62.4005 194.945 62.4005Z" fill="white"/>
<path d="M215.445 92.7787C214.803 92.7787 214.197 92.5291 213.733 92.0656L207.387 85.6832L208.278 85.3623C209.49 84.8988 210.56 84.2213 211.487 83.2943C212.379 82.4029 213.056 81.3332 213.52 80.1565L213.876 79.2651L220.187 85.6119C220.651 86.0754 220.9 86.6816 220.9 87.359C220.9 88.0008 220.651 88.6426 220.187 89.1062L217.156 92.1369C216.693 92.5291 216.087 92.7787 215.445 92.7787ZM209.597 86.1467L214.625 91.2099C214.839 91.4238 215.124 91.5664 215.445 91.5664C215.766 91.5664 216.051 91.4595 216.265 91.2099L219.296 88.1791C219.51 87.9652 219.652 87.6443 219.652 87.3234C219.652 87.0025 219.545 86.6816 219.296 86.4676L214.304 81.4401C213.805 82.4385 213.163 83.3656 212.343 84.15C211.558 84.9701 210.631 85.6475 209.597 86.1467Z" fill="white"/>
<path d="M213.918 74.7724L213.597 73.881C213.134 72.6687 212.456 71.5991 211.529 70.672C210.638 69.7806 209.568 69.1031 208.391 68.6396L207.5 68.2831L214.061 61.758C214.489 61.3302 215.023 61.1162 215.594 61.1162C216.164 61.1162 216.735 61.3302 217.127 61.758L220.336 64.9671C220.8 65.4306 221.049 66.0367 221.049 66.6785C221.049 67.3203 220.8 67.9265 220.336 68.39L213.918 74.7724ZM209.675 67.8552C210.673 68.3544 211.6 68.9962 212.385 69.8163C213.205 70.6363 213.847 71.5634 214.346 72.5974L219.409 67.5699C219.623 67.356 219.766 67.0708 219.766 66.7499C219.766 66.4289 219.659 66.1437 219.409 65.9298L216.2 62.7207C216.022 62.5424 215.772 62.4355 215.523 62.4355C215.273 62.4355 215.023 62.5424 214.845 62.7207L209.675 67.8552Z" fill="white"/>
<path d="M185.474 32.3419H122.969L123.004 31.6645C123.432 25.4247 126.713 19.5058 132.239 15.0488L132.311 15.0132C132.346 14.9775 137.552 11.2336 142.758 7.52541C152.955 0.32292 153.882 0.00202592 154.275 0.00202592C154.667 -0.03363 155.594 0.32292 165.756 7.52541C170.962 11.2336 176.132 14.9775 176.167 15.0132L176.239 15.0488C181.765 19.5058 185.01 25.389 185.474 31.6645V32.3419ZM124.288 31.094H184.119C183.512 25.4247 180.446 20.112 175.419 16.0472C168.002 10.6631 155.879 2.0344 154.239 1.28563C152.599 2.0344 140.44 10.6275 132.988 16.0115L132.596 15.548L132.988 16.0472C127.961 20.112 124.894 25.4604 124.288 31.094Z" fill="white"/>
<path d="M165.145 31.7714C165.145 31.6644 164.432 20.4328 153.699 0.964675L154.805 0.358521C165.644 20.1119 166.357 31.2365 166.393 31.7001L165.145 31.7714Z" fill="white"/>
<path d="M143.291 31.7715L142.043 31.7002C142.079 31.2367 142.756 20.112 153.631 0.358643L154.736 0.964797C149.138 11.1267 146.322 18.971 144.967 23.7489C143.469 28.919 143.291 31.7358 143.291 31.7715Z" fill="white"/>
<path d="M154.701 32.021H153.453V66.1437H154.701V32.021Z" fill="white"/>
<path d="M139.405 96.487H61.4258L83.4255 65.7159H185.187L166.04 85.2197C158.873 92.4935 149.425 96.487 139.405 96.487ZM63.8504 95.239H139.405C149.104 95.239 158.232 91.3882 165.149 84.364L182.228 66.9639H84.0673L63.8504 95.239Z" fill="white"/>
<path d="M132.699 66.75L117.973 51.7745C115.477 49.2429 112.161 47.8523 108.667 47.8523H95.9732L102.142 66.1794L100.965 66.5717L94.2617 46.6044H108.667C112.518 46.6044 116.119 48.1376 118.864 50.9187L133.59 65.8942L132.699 66.75Z" fill="white"/>
<path d="M169.178 80.4775H73.4062V81.7255H169.178V80.4775Z" fill="white"/>
<path d="M106.1 42.4326C105.031 42.4326 104.139 42.1117 103.07 41.5768C102.642 41.3629 102.214 41.1133 101.786 40.8994C100.609 40.2576 99.4327 39.5801 97.8639 39.3305C95.7245 38.9739 94.0844 39.3662 92.1589 40.1506C91.4458 40.4358 90.8397 40.7567 90.1979 41.0777C89.2708 41.5768 88.3794 42.0047 87.3454 42.2543C85.5983 42.6822 84.386 42.3256 82.8884 41.5768C82.4605 41.3629 82.0327 41.1133 81.6048 40.8994C80.4281 40.2576 79.2515 39.5801 77.6826 39.3305C75.5433 38.9739 73.9031 39.3662 71.9777 40.1506C71.2646 40.4358 70.6584 40.7567 70.0166 41.0777C69.0896 41.5768 68.1982 42.0047 67.1641 42.2543L66.8789 41.042C67.7703 40.828 68.5547 40.4002 69.4105 39.9723C70.0523 39.6514 70.6941 39.2949 71.4785 39.0096C73.5466 38.1895 75.4007 37.726 77.8253 38.1182C79.6081 38.4035 80.963 39.1522 82.1396 39.8297C82.5675 40.0793 82.9597 40.2932 83.3519 40.4715C84.6355 41.1133 85.5626 41.3629 86.9888 41.042C87.8802 40.828 88.6647 40.4002 89.5204 39.9723C90.1622 39.6514 90.804 39.2949 91.5884 39.0096C93.6565 38.1895 95.5106 37.726 97.9352 38.1182C99.718 38.4035 101.073 39.1522 102.25 39.8297C102.677 40.0793 103.07 40.2932 103.462 40.4715C104.745 41.1133 105.673 41.3629 107.099 41.042C107.99 40.828 108.775 40.4002 109.63 39.9723C110.272 39.6514 110.914 39.2949 111.698 39.0096C113.766 38.1895 115.621 37.726 118.045 38.1182C119.828 38.4035 121.183 39.1522 122.36 39.8297C122.787 40.0793 123.18 40.2932 123.572 40.4715L123.037 41.5768C122.609 41.3629 122.181 41.1133 121.753 40.8994C120.577 40.2576 119.4 39.5801 117.831 39.3305C115.692 38.9739 114.052 39.3662 112.126 40.1506C111.413 40.4358 110.807 40.7567 110.165 41.0777C109.238 41.5768 108.347 42.0047 107.313 42.2543C107.027 42.3969 106.564 42.4326 106.1 42.4326Z" fill="white"/>
<path d="M106.1 32.8055C105.031 32.8055 104.139 32.4846 103.07 31.9497C102.642 31.7358 102.214 31.4862 101.786 31.2723C100.609 30.6305 99.4327 29.953 97.8639 29.7034C95.7245 29.3469 94.0844 29.7391 92.1589 30.5235C91.4458 30.8088 90.8397 31.1297 90.1979 31.4506C89.2708 31.9498 88.3794 32.3776 87.3454 32.6272C85.5983 33.0551 84.386 32.6985 82.8884 31.9497C82.4605 31.7358 82.0327 31.4862 81.6048 31.2723C80.4281 30.6305 79.2515 29.953 77.6826 29.7034C75.5433 29.3469 73.9031 29.7391 71.9777 30.5235C71.2646 30.8088 70.6584 31.1297 70.0166 31.4506C69.0896 31.9498 68.1982 32.3776 67.1641 32.6272L66.8789 31.4149C67.7703 31.201 68.5547 30.7731 69.4105 30.3452C70.0523 30.0243 70.6941 29.6678 71.4785 29.3825C73.5466 28.5625 75.4007 28.0989 77.8253 28.4911C79.6081 28.7764 80.963 29.5252 82.1396 30.2026C82.5675 30.4522 82.9597 30.6661 83.3519 30.8444C84.6355 31.4862 85.5626 31.7358 86.9888 31.4149C87.8802 31.201 88.6647 30.7731 89.5204 30.3452C90.1622 30.0243 90.804 29.6678 91.5884 29.3825C93.6565 28.5625 95.5106 28.0989 97.9352 28.4911C99.718 28.7764 101.073 29.5252 102.25 30.2026C102.677 30.4522 103.07 30.6661 103.462 30.8444C104.745 31.4862 105.673 31.7358 107.099 31.4149C107.99 31.201 108.775 30.7731 109.63 30.3452C110.272 30.0243 110.914 29.6678 111.698 29.3825C113.766 28.5625 115.621 28.0989 118.045 28.4911C119.828 28.7764 121.183 29.5252 122.36 30.2026C122.787 30.4522 123.18 30.6661 123.572 30.8444L123.037 31.9497C122.609 31.7358 122.181 31.4862 121.753 31.2723C120.577 30.6305 119.4 29.953 117.831 29.7034C115.692 29.3469 114.052 29.7391 112.126 30.5235C111.413 30.8088 110.807 31.1297 110.165 31.4506C109.238 31.9498 108.347 32.3776 107.313 32.6272C107.027 32.7342 106.564 32.8055 106.1 32.8055Z" fill="white"/>
<path d="M106.1 23.1427C105.031 23.1427 104.139 22.8218 103.07 22.2869C102.642 22.073 102.214 21.8234 101.786 21.6095C100.609 20.9676 99.4328 20.2902 97.8639 20.0406C95.7245 19.684 94.0844 20.0763 92.1589 20.8607C91.4458 21.1459 90.8397 21.4668 90.1979 21.7877C89.2708 22.2869 88.3794 22.7148 87.3454 22.9644C85.5983 23.3923 84.386 23.0357 82.8884 22.2869C82.4605 22.073 82.0327 21.8234 81.6048 21.6095C80.4281 20.9676 79.2515 20.2902 77.6826 20.0406C75.5433 19.684 73.9031 20.0763 71.9777 20.8607C71.2646 21.1459 70.6584 21.4668 70.0166 21.7877C69.0896 22.2869 68.1982 22.7148 67.1641 22.9644L66.8789 21.7521C67.7703 21.5382 68.5547 21.1103 69.4105 20.6824C70.0523 20.3615 70.6941 20.0049 71.4785 19.7197C73.5466 18.8996 75.4007 18.4361 77.8253 18.8283C79.6081 19.1135 80.963 19.8623 82.1396 20.5398C82.5675 20.7894 82.9597 21.0033 83.3519 21.1816C84.6355 21.8234 85.5626 22.073 86.9532 21.7521C87.8446 21.5382 88.629 21.1103 89.4848 20.6824C90.1266 20.3615 90.7684 20.0049 91.5528 19.7197C93.6208 18.8996 95.4749 18.4361 97.8995 18.8283C99.6823 19.1135 101.037 19.8623 102.214 20.5398C102.642 20.7894 103.034 21.0033 103.426 21.1816C104.71 21.8234 105.637 22.073 107.027 21.7521C107.919 21.5382 108.703 21.1103 109.559 20.6824C110.201 20.3615 110.843 20.0049 111.627 19.7197C113.695 18.8996 115.549 18.4361 117.974 18.8283C119.757 19.1135 121.112 19.8623 122.288 20.5398C122.716 20.7894 123.108 21.0033 123.5 21.1816L122.966 22.2869C122.538 22.073 122.11 21.8234 121.682 21.6095C120.505 20.9676 119.329 20.2902 117.76 20.0406C115.621 19.684 113.98 20.0763 112.055 20.8607C111.342 21.1459 110.736 21.4668 110.094 21.7877C109.167 22.2869 108.275 22.7148 107.241 22.9644C107.027 23.107 106.564 23.1427 106.1 23.1427Z" fill="white"/>
<path d="M106.1 13.5156C105.031 13.5156 104.139 13.1947 103.07 12.6598C102.642 12.4459 102.214 12.1963 101.786 11.9824C100.609 11.3406 99.4328 10.6631 97.8639 10.4135C95.7245 10.057 94.0844 10.4492 92.1589 11.2336C91.4458 11.5189 90.8397 11.8398 90.1979 12.1607C89.2708 12.6598 88.3794 13.0877 87.3454 13.3373C85.5983 13.7652 84.386 13.4086 82.8884 12.6598C82.4605 12.4459 82.0327 12.1963 81.6048 11.9824C80.4281 11.3406 79.2515 10.6631 77.6826 10.4135C75.5433 10.057 73.9031 10.4492 71.9777 11.2336C71.2646 11.5189 70.6584 11.8398 70.0166 12.1607C69.0896 12.6598 68.1982 13.0877 67.1641 13.3373L66.8789 12.125C67.7703 11.9111 68.5547 11.4832 69.4105 11.0553C70.0523 10.7344 70.6941 10.3779 71.4785 10.0926C73.5466 9.27253 75.4007 8.80901 77.8253 9.20122C79.6081 9.48647 80.963 10.2352 82.1396 10.9127C82.5675 11.1623 82.9597 11.3762 83.3519 11.5545C84.6355 12.1963 85.5626 12.4459 86.9532 12.125C87.8446 11.9111 88.629 11.4832 89.4848 11.0553C90.1266 10.7344 90.7684 10.3779 91.5528 10.0926C93.6208 9.27253 95.4749 8.80901 97.8995 9.20122C99.6823 9.48647 101.037 10.2352 102.214 10.9127C102.642 11.1623 103.034 11.3762 103.426 11.5545C104.71 12.1963 105.637 12.4459 107.027 12.125C107.919 11.9111 108.703 11.4832 109.559 11.0553C110.201 10.7344 110.843 10.3779 111.627 10.0926C113.695 9.27253 115.549 8.80901 117.974 9.20122C119.757 9.48647 121.112 10.2352 122.288 10.9127C122.716 11.1623 123.108 11.3762 123.5 11.5545L122.966 12.6598C122.538 12.4459 122.11 12.1963 121.682 11.9824C120.505 11.3406 119.329 10.6631 117.76 10.4135C115.621 10.057 113.98 10.4492 112.055 11.2336C111.342 11.5189 110.736 11.8398 110.094 12.1607C109.167 12.6598 108.275 13.0877 107.241 13.3373C107.027 13.4443 106.564 13.5156 106.1 13.5156Z" fill="white"/>
<path d="M1.78516 62.8391V51.564H36.9772L43.1273 62.8391H1.78516Z" fill="#9975B0"/>
<path d="M63.7769 96.594H0.808594V27.3502C0.808594 22.8219 3.30451 17.5448 8.90248 16.0473C13.4308 14.835 17.7808 16.796 20.2767 21.1104L63.7769 96.594ZM2.05655 95.3817H61.6376L19.207 21.7522C16.5685 17.1882 12.3255 16.4395 9.22339 17.2596C4.26722 18.5788 2.05655 23.2854 2.05655 27.3502V95.3817Z" fill="white"/>
<path d="M37.0377 50.8118H1.45312V52.0597H37.0377V50.8118Z" fill="white"/>
<path d="M43.703 62.1146H1.34375V63.3626H43.703V62.1146Z" fill="white"/>
<path d="M50.0878 73.4531H1.45312V74.7011H50.0878V73.4531Z" fill="white"/>
<path d="M56.2919 84.1855H1.45312V85.4335H56.2919V84.1855Z" fill="white"/>
</svg>
