<svg xmlns="http://www.w3.org/2000/svg" width="143" height="42" viewBox="0 0 143 42" fill="none">
<path d="M26.3297 40.8111C26.0574 40.6849 25.8445 40.5099 25.6887 40.2861C25.5329 40.0623 25.4556 39.8099 25.4556 39.5278C25.4556 39.2457 25.5329 38.9933 25.6887 38.7695C25.8445 38.5457 26.0574 38.3707 26.3297 38.2445C26.6021 38.1183 26.9078 38.0552 27.2467 38.0552C27.5322 38.0552 27.7914 38.098 28.0222 38.1849C28.2529 38.2718 28.4468 38.3968 28.6038 38.5587L28.1138 38.9492C27.8902 38.7266 27.6142 38.6159 27.2836 38.6159C27.079 38.6159 26.8971 38.6552 26.7365 38.7314C26.5759 38.8087 26.451 38.9159 26.3618 39.0552C26.2726 39.1945 26.2275 39.3504 26.2275 39.5266C26.2275 39.7028 26.2726 39.8599 26.3618 39.998C26.451 40.1361 26.5759 40.2445 26.7365 40.3218C26.8971 40.3992 27.079 40.4373 27.2836 40.4373C27.613 40.4373 27.8902 40.3254 28.1138 40.0992L28.6038 40.4897C28.4468 40.6552 28.2517 40.7814 28.0198 40.8683C27.7867 40.9552 27.5274 40.998 27.242 40.998C26.9054 41.0004 26.6021 40.9373 26.3297 40.8111Z" fill="#ffffff"/>
<path d="M34.9917 40.9506L34.3554 40.1578H34.3173H33.6525V40.9506H32.8889V38.103H34.3173C34.6099 38.103 34.8632 38.1447 35.0785 38.2292C35.2938 38.3137 35.4591 38.4328 35.5757 38.5876C35.6922 38.7423 35.7505 38.9256 35.7505 39.1364C35.7505 39.3483 35.691 39.5304 35.5733 39.684C35.4555 39.8376 35.2878 39.9542 35.0714 40.0364L35.8111 40.9518H34.9917V40.9506ZM34.799 38.7685C34.6801 38.6828 34.5052 38.6399 34.2757 38.6399H33.6537V39.6328H34.2757C34.5052 39.6328 34.6789 39.5899 34.799 39.503C34.9179 39.4161 34.9786 39.2947 34.9786 39.1364C34.9774 38.9768 34.9179 38.8542 34.799 38.7685Z" fill="#ffffff"/>
<path d="M42.6809 40.4221V40.9506H40.1262V38.103H42.6203V38.6316H40.885V39.2495H42.4169V39.7626H40.885V40.4221H42.6809Z" fill="#ffffff"/>
<path d="M49.233 40.3414H47.7011L47.4086 40.9521H46.626L48.0972 38.1045H48.8512L50.3272 40.9521H49.5256L49.233 40.3414ZM48.9928 39.8414L48.4695 38.7509L47.9462 39.8414H48.9928Z" fill="#ffffff"/>
<path d="M54.9609 38.6414H53.9048V38.1045H56.7806V38.6414H55.7245V40.9521H54.9609V38.6414Z" fill="#ffffff"/>
<path d="M60.9624 38.103H61.726V40.9506H60.9624V38.103Z" fill="#ffffff"/>
<path d="M69.4328 38.103L68.0044 40.9506H67.2503L65.8267 38.103H66.6521L67.6559 40.1364L68.674 38.103H69.4328Z" fill="#ffffff"/>
<path d="M76.0337 40.4221V40.9506H73.4778V38.103H75.9719V38.6316H74.2366V39.2495H75.7685V39.7626H74.2366V40.4221H76.0337Z" fill="#ffffff"/>
<path d="M88.5445 38.103V40.9506H87.7809V39.7828H86.2824V40.9506H85.5188V38.103H86.2824V39.2256H87.7809V38.103H88.5445Z" fill="#ffffff"/>
<path d="M93.7705 40.8092C93.4958 40.6819 93.2805 40.5069 93.1247 40.283C92.9689 40.0592 92.8916 39.808 92.8916 39.5283C92.8916 39.2485 92.9689 38.9973 93.1247 38.7735C93.2805 38.5497 93.4958 38.3747 93.7705 38.2473C94.0453 38.1199 94.3545 38.0557 94.697 38.0557C95.0396 38.0557 95.3476 38.1199 95.6211 38.2473C95.8947 38.3747 96.11 38.5509 96.267 38.7735C96.424 38.9973 96.5025 39.2485 96.5025 39.5283C96.5025 39.808 96.424 40.0592 96.267 40.283C96.11 40.5069 95.8947 40.6819 95.6211 40.8092C95.3476 40.9366 95.0396 41.0009 94.697 41.0009C94.3533 40.9997 94.0453 40.9366 93.7705 40.8092ZM95.2239 40.3223C95.3809 40.245 95.5046 40.1378 95.5938 39.9985C95.683 39.8604 95.7282 39.7033 95.7282 39.5271C95.7282 39.3509 95.683 39.1938 95.5938 39.0557C95.5046 38.9176 95.3809 38.8092 95.2239 38.7319C95.0669 38.6545 94.8909 38.6164 94.6958 38.6164C94.5008 38.6164 94.3248 38.6557 94.1678 38.7319C94.0108 38.8092 93.8871 38.9164 93.7979 39.0557C93.7087 39.195 93.6635 39.3509 93.6635 39.5271C93.6635 39.7033 93.7087 39.8604 93.7979 39.9985C93.8871 40.1366 94.0108 40.245 94.1678 40.3223C94.3248 40.3997 94.5008 40.4378 94.6958 40.4378C94.8909 40.439 95.0669 40.3997 95.2239 40.3223Z" fill="#ffffff"/>
<path d="M101.213 40.6628C100.951 40.4378 100.82 40.1164 100.82 39.6985V38.1045H101.583V39.6747C101.583 40.1843 101.828 40.439 102.318 40.439C102.557 40.439 102.739 40.3771 102.866 40.2545C102.992 40.1307 103.055 39.9378 103.055 39.6747V38.1045H103.809V39.6985C103.809 40.1164 103.678 40.4378 103.415 40.6628C103.152 40.8878 102.786 41.0009 102.315 41.0009C101.843 40.9997 101.476 40.8878 101.213 40.6628Z" fill="#ffffff"/>
<path d="M108.662 40.9094C108.418 40.8487 108.223 40.769 108.075 40.6714L108.334 40.1749C108.476 40.2642 108.643 40.3368 108.838 40.3904C109.033 40.4452 109.228 40.4714 109.423 40.4714C109.64 40.4714 109.8 40.444 109.904 40.388C110.007 40.3321 110.06 40.2583 110.06 40.1666C110.06 40.0987 110.029 40.0428 109.968 39.9975C109.907 39.9523 109.828 39.9166 109.733 39.8892C109.636 39.8618 109.507 39.8321 109.344 39.7999C109.092 39.7487 108.887 39.6964 108.726 39.6452C108.566 39.594 108.429 39.5106 108.314 39.3975C108.198 39.2844 108.141 39.1321 108.141 38.9416C108.141 38.7761 108.194 38.6261 108.297 38.4916C108.401 38.3571 108.558 38.2511 108.766 38.1725C108.975 38.094 109.23 38.0547 109.532 38.0547C109.742 38.0547 109.948 38.0761 110.149 38.1202C110.35 38.1642 110.526 38.2261 110.677 38.3071L110.442 38.8071C110.137 38.6583 109.831 38.5833 109.527 38.5833C109.313 38.5833 109.155 38.613 109.054 38.6725C108.952 38.7321 108.9 38.8106 108.9 38.9083C108.9 39.0059 108.96 39.0785 109.077 39.1261C109.195 39.1737 109.375 39.2202 109.617 39.2666C109.868 39.3178 110.074 39.3702 110.235 39.4214C110.395 39.4725 110.532 39.5547 110.647 39.6654C110.761 39.7761 110.82 39.9273 110.82 40.1166C110.82 40.2797 110.767 40.4273 110.662 40.5618C110.556 40.6964 110.399 40.8023 110.188 40.8809C109.978 40.9594 109.722 40.9987 109.42 40.9987C109.158 40.9999 108.905 40.9702 108.662 40.9094Z" fill="#ffffff"/>
<path d="M117.668 40.4221V40.9506H115.113V38.103H117.607V38.6316H115.872V39.2495H117.404V39.7626H115.872V40.4221H117.668Z" fill="#ffffff"/>
<path d="M16.8792 9.71786C18.517 10.6321 19.8003 11.9095 20.7268 13.5488C21.6533 15.1893 22.1171 17.0845 22.1171 19.2345C22.1171 21.3857 21.6533 23.2869 20.7268 24.9405C19.8003 26.5941 18.517 27.8774 16.8792 28.7917C15.2403 29.706 13.3873 30.1631 11.3202 30.1631C9.73481 30.1631 8.28499 29.8548 6.96958 29.2357C5.65297 28.6179 4.5659 27.7179 3.70601 26.5345V29.9214H0V0H3.86776V11.775C4.72647 10.6464 5.80164 9.79286 7.09089 9.21429C8.38014 8.63691 9.78952 8.34762 11.3214 8.34762C13.3885 8.34762 15.2415 8.80476 16.8792 9.71786ZM14.6837 25.8274C15.7719 25.1964 16.6306 24.3095 17.2622 23.1655C17.8925 22.0226 18.2089 20.7131 18.2089 19.2345C18.2089 17.756 17.8925 16.4464 17.2622 15.3024C16.6306 14.1607 15.7719 13.2798 14.6837 12.6607C13.5954 12.0429 12.3668 11.7333 10.9979 11.7333C9.65512 11.7333 8.43247 12.0429 7.33233 12.6607C6.23099 13.2798 5.37109 14.1595 4.75382 15.3024C4.13536 16.4452 3.82732 17.756 3.82732 19.2345C3.82732 20.7131 4.13536 22.0238 4.75382 23.1655C5.37109 24.3083 6.23099 25.1952 7.33233 25.8274C8.43366 26.4595 9.65512 26.775 10.9979 26.775C12.368 26.775 13.5966 26.4595 14.6837 25.8274Z" fill="#ffffff"/>
<path d="M32.9129 28.7514C31.2204 27.811 29.8979 26.5134 28.9452 24.8598C27.9914 23.2062 27.5156 21.3312 27.5156 19.2348C27.5156 17.1383 27.9926 15.2633 28.9452 13.6098C29.8979 11.9562 31.2216 10.6657 32.9129 9.73835C34.6053 8.81097 36.5118 8.34668 38.6336 8.34668C40.7554 8.34668 42.6548 8.81097 44.3342 9.73835C46.0124 10.6657 47.329 11.9562 48.2816 13.6098C49.2343 15.2633 49.7112 17.1383 49.7112 19.2348C49.7112 21.3312 49.2343 23.2062 48.2816 24.8598C47.3278 26.5134 46.0124 27.8098 44.3342 28.7514C42.6548 29.6931 40.7554 30.1634 38.6336 30.1634C36.5118 30.1622 34.6053 29.6919 32.9129 28.7514ZM42.3194 25.8276C43.4077 25.1967 44.2593 24.3098 44.8777 23.1657C45.495 22.0229 45.8042 20.7134 45.8042 19.2348C45.8042 17.7562 45.495 16.4467 44.8777 15.3026C44.2593 14.161 43.4077 13.28 42.3194 12.661C41.2324 12.0431 40.0026 11.7336 38.6336 11.7336C37.2647 11.7336 36.0349 12.0431 34.9479 12.661C33.8596 13.28 32.9997 14.1598 32.3694 15.3026C31.7378 16.4455 31.4226 17.7562 31.4226 19.2348C31.4226 20.7134 31.7378 22.0241 32.3694 23.1657C32.9997 24.3086 33.8596 25.1955 34.9479 25.8276C36.0361 26.4598 37.2647 26.7753 38.6336 26.7753C40.0026 26.7753 41.2324 26.4598 42.3194 25.8276Z" fill="#ffffff"/>
<path d="M58.1721 29.4558C56.5606 28.9855 55.2975 28.3867 54.3853 27.6617L55.9968 24.5974C56.9364 25.2701 58.0782 25.807 59.421 26.2105C60.7637 26.6141 62.1196 26.8153 63.4897 26.8153C66.8734 26.8153 68.5659 25.8474 68.5659 23.9117C68.5659 23.2665 68.3375 22.7558 67.8808 22.3796C67.4241 22.0034 66.8532 21.7284 66.1681 21.5534C65.4831 21.3784 64.509 21.1843 63.2471 20.9689C61.5285 20.701 60.125 20.3915 59.0368 20.0415C57.9485 19.6927 57.0161 19.101 56.2371 18.2677C55.458 17.4343 55.0691 16.2653 55.0691 14.7593C55.0691 12.8236 55.8743 11.2713 57.4859 10.1022C59.0975 8.93316 61.2585 8.34863 63.9714 8.34863C65.395 8.34863 66.8175 8.52363 68.2412 8.87244C69.6648 9.22244 70.8327 9.69268 71.7462 10.2843L70.0942 13.3486C68.3482 12.2201 66.293 11.6546 63.931 11.6546C62.292 11.6546 61.0432 11.9236 60.1845 12.4605C59.3246 12.9986 58.8953 13.7105 58.8953 14.5974C58.8953 15.2963 59.1367 15.8474 59.6208 16.251C60.1036 16.6546 60.7019 16.951 61.4131 17.1379C62.1243 17.326 63.1258 17.5415 64.415 17.7832C66.1336 18.0796 67.5228 18.3951 68.5849 18.7308C69.6458 19.0677 70.5521 19.6379 71.3037 20.4451C72.0554 21.251 72.4312 22.3808 72.4312 23.832C72.4312 25.7677 71.6058 27.307 69.9538 28.4486C68.3018 29.5915 66.0528 30.1629 63.2055 30.1629C61.4607 30.1617 59.7837 29.926 58.1721 29.4558Z" fill="#ffffff"/>
<path d="M91.2859 28.6699C90.7222 29.1532 90.0228 29.5235 89.1915 29.7782C88.3589 30.033 87.499 30.1616 86.613 30.1616C84.4638 30.1616 82.7987 29.5842 81.6177 28.4282C80.4355 27.2723 79.8456 25.6199 79.8456 23.4687V11.7342H76.2205V8.54847H79.8456V3.87109H83.7133V8.54847H89.8373V11.7342H83.7133V23.3068C83.7133 24.4628 84.0012 25.3497 84.5792 25.9687C85.156 26.5878 85.9826 26.8961 87.0566 26.8961C88.2376 26.8961 89.245 26.5604 90.0775 25.8878L91.2859 28.6699Z" fill="#ffffff"/>
<path d="M100.672 28.7514C98.98 27.811 97.6574 26.5134 96.7047 24.8598C95.7509 23.2062 95.2751 21.3312 95.2751 19.2348C95.2751 17.1383 95.7521 15.2633 96.7047 13.6098C97.6574 11.9562 98.9812 10.6657 100.672 9.73835C102.365 8.81097 104.271 8.34668 106.393 8.34668C108.515 8.34668 110.414 8.81097 112.094 9.73835C113.772 10.6657 115.088 11.9562 116.041 13.6098C116.994 15.2633 117.471 17.1383 117.471 19.2348C117.471 21.3312 116.994 23.2062 116.041 24.8598C115.087 26.5134 113.772 27.8098 112.094 28.7514C110.414 29.6931 108.515 30.1634 106.393 30.1634C104.271 30.1622 102.365 29.6919 100.672 28.7514ZM110.079 25.8276C111.167 25.1967 112.019 24.3098 112.637 23.1657C113.255 22.0229 113.564 20.7134 113.564 19.2348C113.564 17.7562 113.255 16.4467 112.637 15.3026C112.019 14.161 111.167 13.28 110.079 12.661C108.992 12.0431 107.762 11.7336 106.393 11.7336C105.024 11.7336 103.794 12.0431 102.707 12.661C101.619 13.28 100.759 14.1598 100.129 15.3026C99.4973 16.4455 99.1822 17.7562 99.1822 19.2348C99.1822 20.7134 99.4973 22.0241 100.129 23.1657C100.759 24.3086 101.619 25.1955 102.707 25.8276C103.796 26.4598 105.024 26.7753 106.393 26.7753C107.762 26.7753 108.992 26.4598 110.079 25.8276Z" fill="#ffffff"/>
<path d="M142.999 18.1549V18.1489H135.304V8.54416L122.509 8.54297V30.1787H126.366V11.7775H131.474V21.2025H139.305V30.1787H143V18.1549H142.999Z" fill="#ffffff"/>
<path d="M142.979 8.54639H139.319V12.2095H142.979V8.54639Z" fill="#FF1E3C"/>
</svg>