<?xml version="1.0" encoding="UTF-8" standalone="no"?>
<svg
   xmlns:dc="http://purl.org/dc/elements/1.1/"
   xmlns:cc="http://creativecommons.org/ns#"
   xmlns:rdf="http://www.w3.org/1999/02/22-rdf-syntax-ns#"
   xmlns:svg="http://www.w3.org/2000/svg"
   xmlns="http://www.w3.org/2000/svg"
   xmlns:sodipodi="http://sodipodi.sourceforge.net/DTD/sodipodi-0.dtd"
   xmlns:inkscape="http://www.inkscape.org/namespaces/inkscape"
   version="1.1"
   id="Слой_1"
   x="0px"
   y="0px"
   viewBox="0 0 240.39999 142.3"
   enable-background="new 0 0 273 183"
   xml:space="preserve"
   inkscape:version="0.91 r13725"
   sodipodi:docname="bristol_logo.svg"
   width="240.39999"
   height="142.3"><metadata
     id="metadata67"><rdf:RDF><cc:Work
         rdf:about=""><dc:format>image/svg+xml</dc:format><dc:type
           rdf:resource="http://purl.org/dc/dcmitype/StillImage" /><dc:title /></cc:Work></rdf:RDF></metadata><defs
     id="defs65" /><sodipodi:namedview
     pagecolor="#ffffff"
     bordercolor="#666666"
     borderopacity="1"
     objecttolerance="10"
     gridtolerance="10"
     guidetolerance="10"
     inkscape:pageopacity="0"
     inkscape:pageshadow="2"
     inkscape:window-width="1375"
     inkscape:window-height="876"
     id="namedview63"
     showgrid="false"
     fit-margin-top="0"
     fit-margin-left="0"
     fit-margin-right="0"
     fit-margin-bottom="0"
     inkscape:zoom="1.2087912"
     inkscape:cx="-4.3363645"
     inkscape:cy="67.8"
     inkscape:window-x="65"
     inkscape:window-y="24"
     inkscape:window-maximized="1"
     inkscape:current-layer="Слой_1" /><g
     id="g3"
     transform="translate(-18.4,-17)"><g
       id="g5"><g
         id="g7"><path
           d="m 155.4,17 0,6.8 -8,0 0,-6.8 -7.4,0 0,6.8 -7.4,0 0,-6.8 -7.3,0 0,6.8 -7.3,0 0,-6.8 -12.9,0 c 0,0 0,63.7 0,63.4 27.2,9.4 37.8,-10.1 63.3,0 0,-1 0,-63.4 0,-63.4 l -13,0 z"
           id="path9"
           inkscape:connector-curvature="0"
           style="fill:#ffffff;fill-opacity:1" /></g><g
         id="g11"><path
           id="path816_45_"
           d="m 256.1,118.5 -4.7,-2.2 -1.7,4.9 -1.7,-4.9 -4.7,2.2 2.2,-4.7 -4.9,-1.7 4.9,-1.7 -2.2,-4.7 4.7,2.2 1.7,-4.9 1.7,4.9 4.7,-2.2 -2.2,4.7 4.9,1.7 -4.9,1.7 2.2,4.7 z"
           inkscape:connector-curvature="0"
           style="fill:#ffffff;fill-opacity:1" /><path
           id="path816_44_"
           d="m 33.9,118.5 -4.7,-2.2 -1.7,4.9 -1.7,-4.9 -4.7,2.2 2.2,-4.7 -4.9,-1.7 4.9,-1.7 -2.2,-4.7 4.7,2.2 1.7,-4.9 1.7,4.9 4.7,-2.2 -2.2,4.7 4.9,1.7 -4.9,1.7 2.2,4.7 z"
           inkscape:connector-curvature="0"
           style="fill:#ffffff;fill-opacity:1" /></g><g
         id="g15"><path
           d="m 142.5,68.1 c 0.6,0.6 1.6,0.6 2.2,0 0.3,-0.3 0.5,-0.8 0.5,-1.2 0.1,0.1 0.2,0.2 0.3,0.3 2.6,-0.8 5.2,-1.2 7.4,-0.7 0.1,-0.1 0.1,-0.1 0.2,-0.2 -0.3,0.6 -0.2,1.4 0.4,2 0.7,0.7 1.8,0.7 2.5,0 0.7,-0.7 0.7,-1.8 0,-2.5 -0.5,-0.5 -1.3,-0.6 -1.9,-0.4 0.1,-0.1 0.2,-0.1 0.3,-0.2 -0.5,-2.1 -0.2,-4.7 0.6,-7.3 -0.1,-0.1 -0.2,-0.2 -0.3,-0.3 0.4,0 0.8,-0.1 1.1,-0.5 0.6,-0.6 0.6,-1.6 0,-2.2 -0.6,-0.6 -1.6,-0.6 -2.2,0 -0.3,0.3 -0.5,0.7 -0.5,1.1 -0.1,-0.1 -0.2,-0.2 -0.3,-0.3 -2.6,0.8 -5,0.9 -7.1,0.4 0,0 0,0 0,0 l 0,0 c 0,0 0,0 0,0 0,0 0,0 0,0 0,0 0,0 0,0 0,0 0,0 0,0 -0.1,0 -0.1,0 -0.2,0 0.2,0 0.3,-0.1 0.4,-0.2 0.3,-0.3 0.3,-0.8 0,-1 -0.3,-0.2 -0.8,-0.3 -1,0 -0.1,0.1 -0.2,0.3 -0.2,0.5 l -15.4,-15.3 0.2,-0.7 2.7,-0.7 1,-1 -2,-2 -1.1,1.1 -0.8,-0.8 1.1,-1.1 -1.4,-1.4 -1.1,1.1 -0.6,-0.6 1.1,-1.1 -1.7,-1.7 -0.7,0.7 -0.6,3.1 -1.1,0.2 -0.7,-0.7 -1.5,1.5 21,20.9 c -0.2,0 -0.3,0.1 -0.5,0.2 -0.3,0.3 -0.3,0.8 0,1 0.3,0.3 0.8,0.3 1,0 0.1,-0.1 0.2,-0.3 0.2,-0.5 l 0.1,0.2 c 0.5,2.1 0.4,4.5 -0.4,7.1 0.1,0.1 0.2,0.2 0.4,0.3 -0.4,0 -0.9,0.1 -1.2,0.5 -0.8,0.8 -0.8,1.8 -0.2,2.4 z m -16.7,-31.4 1.5,-0.1 0.3,2 -1.8,-1.9 z M 146,64.9 c 0.1,-0.3 0.2,-0.5 0.3,-0.6 0.1,-0.1 0.1,-0.2 0.1,-0.3 0.7,-1.7 0.6,-2.9 0.3,-4.6 1.8,0.2 2.9,0.3 4.6,-0.4 0.1,0 0.2,-0.1 0.3,-0.1 0,0 0,0 0,0 0,0 0,0 0,0 0,0 0,0 0,0 0.1,-0.1 0.3,-0.2 0.6,-0.3 -1.1,2.3 -1.1,3.5 -0.8,5.5 -1.9,-0.3 -3.2,-0.3 -5.4,0.8 z"
           id="path17"
           inkscape:connector-curvature="0"
           style="fill:#000000;fill-opacity:1" /><path
           d="m 131,65.9 c -0.3,-0.3 -0.8,-0.5 -1.2,-0.5 0.1,-0.1 0.2,-0.2 0.4,-0.3 -0.8,-2.6 -0.9,-5 -0.4,-7.1 l 0.1,-0.2 c 0,0.2 0.1,0.4 0.2,0.5 0.3,0.3 0.8,0.3 1,0 0.3,-0.3 0.3,-0.8 0,-1 -0.1,-0.1 -0.3,-0.2 -0.5,-0.2 l 21,-20.9 -1.5,-1.5 -0.7,0.7 -1.1,-0.2 -0.6,-3.1 -0.7,-0.7 -1.7,1.7 1.1,1.1 -0.6,0.6 -1.1,-1.1 -1.4,1.4 1.1,1.1 -0.8,0.8 -1.1,-1.1 -2,2 1,1 2.7,0.7 0.2,0.7 -15.4,15.1 c 0,-0.2 -0.1,-0.3 -0.2,-0.5 -0.3,-0.3 -0.8,-0.3 -1,0 -0.3,0.3 -0.3,0.8 0,1 0.1,0.1 0.3,0.2 0.4,0.2 0,0 -0.1,0 -0.2,0 l 0,0 c 0,0 0,0 0,0 0,0 0,0 0,0 0,0 0,0 0,0 l 0,0 c 0,0 0,0 0,0 -2.1,0.5 -4.5,0.4 -7.1,-0.4 -0.1,0.1 -0.2,0.2 -0.3,0.3 0,-0.4 -0.1,-0.8 -0.5,-1.1 -0.6,-0.6 -1.6,-0.6 -2.2,0 -0.6,0.6 -0.6,1.6 0,2.2 0.3,0.3 0.7,0.5 1.1,0.5 -0.1,0.1 -0.2,0.2 -0.3,0.3 0.8,2.6 1.1,5.1 0.6,7.3 0.1,0.1 0.2,0.2 0.3,0.2 -0.6,-0.3 -1.4,-0.1 -1.9,0.4 -0.7,0.7 -0.7,1.8 0,2.5 0.7,0.7 1.8,0.7 2.5,0 0.5,-0.5 0.7,-1.3 0.4,-2 0.1,0.1 0.1,0.1 0.2,0.2 2.1,-0.5 4.8,-0.1 7.4,0.7 0.1,-0.1 0.2,-0.2 0.3,-0.3 0,0.4 0.1,0.9 0.5,1.2 0.6,0.6 1.6,0.6 2.2,0 0.4,-0.6 0.4,-1.6 -0.2,-2.2 z m 14.9,-27.3 0.3,-2 1.5,0.1 -1.8,1.9 z M 122,64.1 c 0.3,-2.1 0.3,-3.3 -0.8,-5.5 0.3,0.1 0.5,0.2 0.6,0.3 0,0 0,0 0,0 0,0 0,0 0,0 0,0 0,0 0,0 0.1,0.1 0.2,0.1 0.3,0.1 1.7,0.7 2.9,0.6 4.6,0.4 -0.3,1.7 -0.3,2.9 0.3,4.6 0,0.1 0.1,0.2 0.1,0.3 0.1,0.1 0.2,0.3 0.3,0.6 -2.1,-1.1 -3.3,-1.1 -5.4,-0.8 z"
           id="path19"
           inkscape:connector-curvature="0"
           style="fill:#000000;fill-opacity:1" /></g><g
         id="g21"><path
           d="m 56.7,128.7 -14.3,0 0,-32.8 12.8,0 c 2.2,0 4.1,0.3 5.7,0.8 1.6,0.5 2.8,1.3 3.6,2.2 1.5,1.7 2.3,3.6 2.3,5.7 0,2.6 -0.8,4.5 -2.4,5.7 -0.6,0.4 -1,0.7 -1.2,0.8 -0.2,0.1 -0.6,0.3 -1.2,0.5 2,0.4 3.7,1.4 4.9,2.7 1.2,1.4 1.8,3.1 1.8,5.2 0,2.3 -0.8,4.3 -2.3,6.1 -2.1,2.1 -5.2,3.1 -9.7,3.1 z m -8.8,-19.2 7,0 c 4,0 6,-1.4 6,-4.1 0,-1.6 -0.5,-2.7 -1.5,-3.4 -1,-0.7 -2.5,-1 -4.5,-1 l -7.1,0 0,8.5 z m 0,14.1 8.7,0 c 2,0 3.6,-0.3 4.7,-1 1.1,-0.6 1.6,-1.9 1.6,-3.6 0,-2.9 -2.3,-4.4 -7,-4.4 l -8,0 0,9 z"
           id="path23"
           inkscape:connector-curvature="0"
           style="fill:#ffffff;fill-opacity:1" /><path
           d="m 99.8,106.6 c 0,5.4 -2.4,8.8 -7.1,10.2 l 8.6,11.9 -7,0 -7.8,-11 -7.3,0 0,11 -5.5,0 0,-32.8 12.2,0 c 5,0 8.6,0.8 10.7,2.5 2.1,1.7 3.2,4.4 3.2,8.2 z m -7.4,4.6 c 1.1,-1 1.7,-2.5 1.7,-4.7 0,-2.1 -0.6,-3.6 -1.7,-4.4 -1.2,-0.8 -3.2,-1.2 -6.2,-1.2 l -7,0 0,11.7 6.8,0 c 3.2,0.1 5.3,-0.4 6.4,-1.4 z"
           id="path25"
           inkscape:connector-curvature="0"
           style="fill:#ffffff;fill-opacity:1" /><path
           d="m 106.8,95.9 5.5,0 0,32.8 -5.5,0 0,-32.8 z"
           id="path27"
           inkscape:connector-curvature="0"
           style="fill:#ffffff;fill-opacity:1" /><path
           d="m 130.5,100.2 c -1.6,0 -2.9,0.3 -4,1 -1,0.7 -1.5,1.7 -1.5,3 0,1.3 0.5,2.3 1.5,3.1 1,0.7 3.2,1.5 6.6,2.3 3.4,0.8 5.9,2 7.6,3.4 1.7,1.5 2.6,3.6 2.6,6.5 0,2.9 -1.1,5.2 -3.2,7 -2.2,1.8 -5,2.7 -8.5,2.7 -5.1,0 -9.7,-1.8 -13.7,-5.3 l 3.5,-4.2 c 3.3,2.9 6.8,4.3 10.3,4.3 1.8,0 3.2,-0.4 4.2,-1.1 1,-0.8 1.6,-1.8 1.6,-3.1 0,-1.3 -0.5,-2.3 -1.5,-3 -1,-0.7 -2.7,-1.3 -5.1,-1.9 -2.4,-0.6 -4.2,-1.1 -5.5,-1.6 -1.3,-0.5 -2.4,-1.1 -3.3,-1.9 -1.9,-1.5 -2.9,-3.7 -2.9,-6.8 0,-3 1.1,-5.4 3.3,-7 2.2,-1.6 4.9,-2.5 8.2,-2.5 2.1,0 4.2,0.3 6.2,1 2.1,0.7 3.8,1.7 5.3,2.9 l -3,4.2 c -1,-0.9 -2.3,-1.6 -3.9,-2.2 -1.6,-0.5 -3.2,-0.8 -4.8,-0.8 z"
           id="path29"
           inkscape:connector-curvature="0"
           style="fill:#ffffff;fill-opacity:1" /><path
           d="m 162.5,101 0,27.7 -5.5,0 0,-27.7 -10,0 0,-5.1 25.4,0 0,5.1 -9.9,0 z"
           id="path31"
           inkscape:connector-curvature="0"
           style="fill:#ffffff;fill-opacity:1" /><path
           d="m 204,124.2 c -3.3,3.2 -7.4,4.9 -12.3,4.9 -4.9,0 -9,-1.6 -12.3,-4.9 -3.3,-3.3 -5,-7.3 -5,-12.1 0,-4.8 1.7,-8.9 5,-12.1 3.3,-3.2 7.4,-4.9 12.3,-4.9 4.9,0 9,1.6 12.3,4.9 3.3,3.2 5,7.3 5,12.1 0,4.8 -1.7,8.9 -5,12.1 z m -4,-20.5 c -2.2,-2.3 -5,-3.5 -8.2,-3.5 -3.3,0 -6,1.2 -8.2,3.5 -2.2,2.3 -3.4,5.1 -3.4,8.4 0,3.3 1.1,6.1 3.4,8.4 2.2,2.3 5,3.5 8.2,3.5 3.3,0 6,-1.2 8.2,-3.5 2.2,-2.3 3.4,-5.1 3.4,-8.4 -0.1,-3.3 -1.2,-6.1 -3.4,-8.4 z"
           id="path33"
           inkscape:connector-curvature="0"
           style="fill:#ffffff;fill-opacity:1" /><path
           d="m 214.1,128.7 0,-32.8 5.5,0 0,27.5 15,0 0,5.3 -20.5,0 z"
           id="path35"
           inkscape:connector-curvature="0"
           style="fill:#ffffff;fill-opacity:1" /></g></g><g
       id="g37"><path
         d="m 58.2,159.2 c -4,0 -7.3,-3.3 -7.3,-7.3 0,-4 3.3,-7.3 7.3,-7.3 0,0 2.2,-0.1 4.2,1.4 l 0,2 c 0,0 -1.5,-1.9 -4.2,-1.9 -3.2,0 -5.7,2.7 -5.7,5.9 0,3.2 2.5,5.9 5.7,5.9 2.6,0 4,-1.7 4.2,-1.9 l 0,2 c -2.1,1.3 -4.2,1.2 -4.2,1.2 z"
         id="path39"
         inkscape:connector-curvature="0"
         style="fill:#ffffff;fill-opacity:1" /><path
         d="m 65.1,152 c 0,-4 3.3,-7.3 7.3,-7.3 4,0 7.3,3.3 7.3,7.3 0,4 -3.3,7.3 -7.3,7.3 -4,-0.1 -7.3,-3.3 -7.3,-7.3 z m 13,0 c 0,-3.2 -2.5,-5.9 -5.7,-5.9 -3.2,0 -5.7,2.7 -5.7,5.9 0,3.2 2.5,5.9 5.7,5.9 3.2,0 5.7,-2.7 5.7,-5.9 z"
         id="path41"
         inkscape:connector-curvature="0"
         style="fill:#ffffff;fill-opacity:1" /><path
         d="m 95.7,144.8 2.8,14.1 -1.5,0 -1.8,-9.9 -4.8,9.5 -4.7,-9.5 -1.9,9.9 -1.5,0 2.8,-14.1 5.3,10.3 5.3,-10.3 z"
         id="path43"
         inkscape:connector-curvature="0"
         style="fill:#ffffff;fill-opacity:1" /><path
         d="m 109,151.4 -0.5,1.4 -5.3,0 0,6.2 -1.5,0 0,-13.9 8.5,0 -0.5,1.4 -6.5,0 0,5 5.8,0 z"
         id="path45"
         inkscape:connector-curvature="0"
         style="fill:#ffffff;fill-opacity:1" /><path
         d="m 112.1,152 c 0,-4 3.3,-7.3 7.3,-7.3 4,0 7.3,3.3 7.3,7.3 0,4 -3.3,7.3 -7.3,7.3 -4,-0.1 -7.3,-3.3 -7.3,-7.3 z m 13,0 c 0,-3.2 -2.5,-5.9 -5.7,-5.9 -3.2,0 -5.7,2.7 -5.7,5.9 0,3.2 2.5,5.9 5.7,5.9 3.2,0 5.7,-2.7 5.7,-5.9 z"
         id="path47"
         inkscape:connector-curvature="0"
         style="fill:#ffffff;fill-opacity:1" /><path
         d="m 139,148.9 c 0,2.4 -1.3,3.3 -3,3.7 l 3.8,5.6 -1.2,1 -4.2,-6.3 c -0.1,0 -0.2,0 -0.3,0 l -2.6,0 0,6.1 -1.5,0 0,-14 4.1,0 c 2.6,0 4.9,0.8 4.9,3.9 z m -7.5,2.5 2.6,0 c 1.9,0 3.4,-0.6 3.4,-2.5 0,-2 -1.5,-2.5 -3.4,-2.5 l -2.6,0 0,5 z"
         id="path49"
         inkscape:connector-curvature="0"
         style="fill:#ffffff;fill-opacity:1" /><path
         d="m 147.8,146.4 0,12.5 -1.5,0 0,-12.5 -4.8,0 0.5,-1.4 10.6,0 -0.5,1.4 -4.3,0 z"
         id="path51"
         inkscape:connector-curvature="0"
         style="fill:#ffffff;fill-opacity:1" /><path
         d="m 170.1,145.3 1.5,-0.5 0,14.1 -1.5,0 0,-6.2 -8.2,0 0,6.2 -1.5,0 0,-13.6 1.5,-0.5 0,6.5 8.2,0 0,-6 z"
         id="path53"
         inkscape:connector-curvature="0"
         style="fill:#ffffff;fill-opacity:1" /><path
         d="m 174.9,152 c 0,-4 3.3,-7.3 7.3,-7.3 4,0 7.3,3.3 7.3,7.3 0,4 -3.3,7.3 -7.3,7.3 -4.1,-0.1 -7.3,-3.3 -7.3,-7.3 z m 12.9,0 c 0,-3.2 -2.5,-5.9 -5.7,-5.9 -3.2,0 -5.7,2.7 -5.7,5.9 0,3.2 2.5,5.9 5.7,5.9 3.2,0 5.7,-2.7 5.7,-5.9 z"
         id="path55"
         inkscape:connector-curvature="0"
         style="fill:#ffffff;fill-opacity:1" /><path
         d="m 192.7,145.3 1.5,-0.5 0,8.4 c 0,2 0.5,4.7 3.9,4.7 3.4,0 3.8,-2.7 3.8,-4.7 l 0,-7.9 1.5,-0.5 0,8.4 c 0,3.2 -0.9,6.1 -5.3,6.1 -4.4,0 -5.5,-2.9 -5.4,-6.1 l 0,-7.9 z"
         id="path57"
         inkscape:connector-curvature="0"
         style="fill:#ffffff;fill-opacity:1" /><path
         d="m 211.5,151 c 1.8,0.6 4.5,1.5 4.5,4.1 0,2.7 -1.7,4.1 -5.1,4.1 -2,0 -3.6,-0.8 -4.4,-1.5 l 0,-1.7 c 0.9,0.8 3,1.8 4.4,1.8 2.5,0 3.5,-1.1 3.5,-2.6 0,-1.5 -2,-2.1 -3.7,-2.7 -1.6,-0.5 -4.2,-1.5 -4.2,-3.9 0,-2.8 2.3,-3.8 4.4,-3.8 2,0 3.3,0.7 4,1.3 l 0,1.7 c -0.6,-0.7 -2.1,-1.5 -4,-1.5 -1.8,0 -2.8,0.7 -2.8,2.3 0.1,1.2 1.8,1.8 3.4,2.4 z"
         id="path59"
         inkscape:connector-curvature="0"
         style="fill:#ffffff;fill-opacity:1" /><path
         d="m 227.7,157.6 -0.5,1.4 -8,0 0,-14 8.5,0 -0.5,1.4 -6.5,0 0,5 5.8,0 -0.5,1.4 -5.3,0 0,4.9 7,0 z"
         id="path61"
         inkscape:connector-curvature="0"
         style="fill:#ffffff;fill-opacity:1" /></g></g></svg>