<?xml version="1.0" encoding="UTF-8" standalone="no"?>
<!-- Generator: Adobe Illustrator 17.1.0, SVG Export Plug-In . SVG Version: 6.00 Build 0)  -->

<svg
   xmlns:dc="http://purl.org/dc/elements/1.1/"
   xmlns:cc="http://creativecommons.org/ns#"
   xmlns:rdf="http://www.w3.org/1999/02/22-rdf-syntax-ns#"
   xmlns:svg="http://www.w3.org/2000/svg"
   xmlns="http://www.w3.org/2000/svg"
   xmlns:sodipodi="http://sodipodi.sourceforge.net/DTD/sodipodi-0.dtd"
   xmlns:inkscape="http://www.inkscape.org/namespaces/inkscape"
   version="1.1"
   id="Слой_1"
   x="0px"
   y="0px"
   viewBox="0 0 615.98497 159.52767"
   enable-background="new 0 0 841.9 595.3"
   xml:space="preserve"
   inkscape:version="0.91 r13725"
   sodipodi:docname="chicago_logo.svg"
   width="615.98499"
   height="159.52766"><metadata
     id="metadata51"><rdf:RDF><cc:Work
         rdf:about=""><dc:format>image/svg+xml</dc:format><dc:type
           rdf:resource="http://purl.org/dc/dcmitype/StillImage" /><dc:title></dc:title></cc:Work></rdf:RDF></metadata><defs
     id="defs49" /><sodipodi:namedview
     pagecolor="#ffffff"
     bordercolor="#666666"
     borderopacity="1"
     objecttolerance="10"
     gridtolerance="10"
     guidetolerance="10"
     inkscape:pageopacity="0"
     inkscape:pageshadow="2"
     inkscape:window-width="1375"
     inkscape:window-height="876"
     id="namedview47"
     showgrid="false"
     inkscape:zoom="0.33614443"
     inkscape:cx="-413.08932"
     inkscape:cy="206.12187"
     inkscape:window-x="65"
     inkscape:window-y="24"
     inkscape:window-maximized="1"
     inkscape:current-layer="Слой_1"
     fit-margin-top="0"
     fit-margin-left="0"
     fit-margin-right="0"
     fit-margin-bottom="0" /><g
     id="g3"
     transform="matrix(1.4002841,0,0,1.4002841,-281.87719,-376.39637)"><g
       id="g5"><path
         d="m 265.6,320.4 c -1.3,2.5 -2.9,4.9 -4.8,7 -1.8,2.1 -4,3.9 -6.4,5.4 -2.5,1.5 -5.3,2.7 -8.4,3.6 -3.1,0.9 -6.6,1.3 -10.4,1.3 -5,0 -9.6,-0.8 -13.8,-2.5 -4.2,-1.7 -7.8,-4.1 -10.9,-7.1 -3.1,-3.1 -5.4,-6.7 -7.1,-10.9 -1.7,-4.2 -2.5,-8.8 -2.5,-13.8 0,-5.1 0.8,-9.7 2.5,-14 1.7,-4.2 4.1,-7.9 7.1,-10.9 3.1,-3.1 6.7,-5.4 10.9,-7.1 4.2,-1.7 8.8,-2.5 13.8,-2.5 7.3,0 13.1,1.3 17.7,3.8 4.5,2.5 8.1,6.2 10.8,11 L 249.7,297 c -2.7,-6.3 -7.3,-9.4 -13.5,-9.4 -2.3,0 -4.3,0.4 -6.1,1.2 -1.8,0.8 -3.4,1.9 -4.7,3.3 -1.3,1.4 -2.4,3.1 -3.1,5 -0.7,1.9 -1.1,4 -1.1,6.3 0,2.3 0.4,4.3 1.1,6.2 0.7,1.9 1.7,3.6 3,5 1.3,1.4 2.9,2.5 4.7,3.3 1.8,0.8 3.9,1.2 6.1,1.2 3.9,0 7,-0.9 9.3,-2.7 2.3,-1.8 4,-4 5.1,-6.7 l 15.1,10.7 z m -50.1,-17.3 c 0,-1.2 -0.4,-2.2 -1.2,-2.9 -0.8,-0.7 -1.8,-1.1 -2.9,-1.1 -1.2,0 -2.2,0.4 -2.9,1.1 -0.7,0.7 -1.1,1.7 -1.1,2.9 0,1.1 0.4,2.1 1.1,2.9 0.7,0.8 1.7,1.2 2.9,1.2 1.1,0 2.1,-0.4 2.9,-1.2 0.8,-0.8 1.2,-1.8 1.2,-2.9 z m 1.6,-9.2 c 0,-1.2 -0.4,-2.2 -1.2,-3 -0.8,-0.8 -1.8,-1.2 -2.9,-1.2 -1.1,0 -2.1,0.4 -2.9,1.2 -0.8,0.8 -1.2,1.8 -1.2,3 0,1.1 0.4,2 1.2,2.8 0.8,0.8 1.7,1.2 2.8,1.2 1.1,0 2.1,-0.4 2.9,-1.2 0.9,-0.7 1.3,-1.7 1.3,-2.8 z m 0,18.8 c 0,-1.2 -0.4,-2.2 -1.2,-3 -0.8,-0.8 -1.8,-1.2 -2.9,-1.2 -1.1,0 -2.1,0.4 -2.9,1.2 -0.8,0.8 -1.2,1.8 -1.2,3 0,1.1 0.4,2 1.2,2.9 0.8,0.8 1.7,1.3 2.8,1.3 1.1,0 2.1,-0.4 2.9,-1.2 0.9,-0.9 1.3,-1.8 1.3,-3 z m 5.2,-26.6 c 0,-1.1 -0.4,-2.1 -1.2,-2.9 -0.8,-0.8 -1.8,-1.2 -2.9,-1.2 -1.1,0 -2.1,0.4 -2.9,1.2 -0.8,0.8 -1.2,1.8 -1.2,2.9 0,1.1 0.4,2.1 1.2,2.9 0.8,0.8 1.8,1.2 2.9,1.2 1.1,0 2,-0.4 2.9,-1.2 0.7,-0.8 1.2,-1.8 1.2,-2.9 z m -3.9,38.8 c 1.1,0 2,-0.4 2.8,-1.3 0.8,-0.8 1.2,-1.8 1.2,-2.9 0,-1.1 -0.4,-2.1 -1.2,-2.9 -0.8,-0.8 -1.7,-1.2 -2.9,-1.2 -1.1,0 -2.1,0.4 -2.9,1.2 -0.8,0.8 -1.2,1.7 -1.2,2.9 0,1.1 0.4,2.1 1.2,2.9 0.9,0.9 1.8,1.3 3,1.3 z M 230,280.3 c 0,-1.1 -0.4,-2.1 -1.2,-2.9 -0.8,-0.8 -1.8,-1.2 -2.9,-1.2 -1.2,0 -2.2,0.4 -2.9,1.2 -0.7,0.8 -1.1,1.7 -1.1,2.9 0,1.1 0.4,2.1 1.1,2.9 0.7,0.8 1.7,1.2 2.9,1.2 1.1,0 2,-0.4 2.9,-1.3 0.8,-0.8 1.2,-1.8 1.2,-2.8 z m 0.2,46 c 0,-1.1 -0.4,-2.1 -1.2,-2.9 -0.8,-0.8 -1.8,-1.2 -2.9,-1.2 -1.2,0 -2.2,0.4 -3,1.2 -0.8,0.8 -1.2,1.8 -1.2,2.9 0,1.1 0.4,2.1 1.2,2.9 0.8,0.8 1.8,1.2 3,1.2 1.1,0 2,-0.4 2.9,-1.2 0.8,-0.9 1.2,-1.8 1.2,-2.9 z m 9.3,-48.4 c 0,-1.1 -0.4,-2.1 -1.2,-2.9 -0.8,-0.8 -1.8,-1.2 -3,-1.2 -1.1,0 -2,0.4 -2.9,1.2 -0.8,0.8 -1.3,1.7 -1.3,2.8 0,1.2 0.4,2.2 1.2,3 0.8,0.8 1.8,1.2 2.9,1.2 1.2,0 2.2,-0.4 3,-1.2 0.9,-0.7 1.3,-1.7 1.3,-2.9 z m 0,50.6 c 0,-1.1 -0.4,-2.1 -1.2,-2.9 -0.8,-0.8 -1.8,-1.2 -3,-1.2 -1.1,0 -2.1,0.4 -2.9,1.2 -0.8,0.8 -1.2,1.7 -1.2,2.9 0,1.1 0.4,2.1 1.2,2.9 0.8,0.8 1.8,1.2 2.9,1.2 1.2,0 2.2,-0.4 3,-1.2 0.8,-0.8 1.2,-1.8 1.2,-2.9 z m 9.5,-48.8 c 0,-1.1 -0.4,-2.1 -1.2,-2.9 -0.8,-0.8 -1.8,-1.2 -3,-1.2 -1.1,0 -2.1,0.4 -2.9,1.2 -0.8,0.8 -1.2,1.7 -1.2,2.9 0,1.1 0.4,2.1 1.2,2.9 0.8,0.8 1.8,1.2 2.9,1.2 1.1,0 2.1,-0.4 2.9,-1.3 0.9,-0.7 1.3,-1.7 1.3,-2.8 z m -3.9,51 c 1.1,0 2.1,-0.4 2.9,-1.2 0.8,-0.8 1.2,-1.8 1.2,-2.9 0,-1.1 -0.4,-2.1 -1.1,-2.9 -0.7,-0.8 -1.7,-1.2 -2.9,-1.2 -1.1,0 -2.1,0.4 -2.9,1.2 -0.8,0.8 -1.2,1.8 -1.2,2.9 0,1.1 0.4,2.1 1.2,2.9 0.7,0.8 1.7,1.2 2.8,1.2 z m 12,-45.6 c 0,-1.1 -0.4,-2.1 -1.2,-2.9 -0.8,-0.8 -1.8,-1.2 -2.9,-1.2 -1.1,0 -2.1,0.4 -2.9,1.2 -0.8,0.8 -1.2,1.7 -1.2,2.9 0,1.1 0.4,2.1 1.2,2.9 0.8,0.8 1.7,1.2 2.9,1.2 1.1,0 2.1,-0.4 2.9,-1.2 0.7,-0.8 1.2,-1.7 1.2,-2.9 z m 0.3,35.9 c 0,-1.1 -0.4,-2.1 -1.2,-2.9 -0.8,-0.8 -1.8,-1.2 -2.9,-1.2 -1.1,0 -2.1,0.4 -2.9,1.2 -0.8,0.8 -1.2,1.8 -1.2,2.9 0,1.1 0.4,2.1 1.2,2.9 0.8,0.8 1.8,1.2 2.9,1.2 1.1,0 2,-0.4 2.9,-1.3 0.7,-0.8 1.2,-1.8 1.2,-2.8 z"
         id="path7"
         inkscape:connector-curvature="0"
         style="fill:#ffffff" /><path
         d="m 306,336.5 0,-25.1 -15,0 0,25.1 -20.6,0 0,-66.5 20.6,0 0,24.1 15,0 0,-24.1 20.6,0 0,66.5 -20.6,0 z m -21.4,-58 c 0,-1.1 -0.4,-2.1 -1.2,-2.9 -0.8,-0.8 -1.7,-1.2 -2.9,-1.2 -1.1,0 -2.1,0.4 -2.9,1.2 -0.8,0.8 -1.2,1.8 -1.2,2.9 0,1.1 0.4,2.1 1.2,2.9 0.8,0.8 1.8,1.2 2.9,1.2 1.1,0 2.1,-0.4 2.9,-1.2 0.9,-0.8 1.2,-1.8 1.2,-2.9 z m -4,13.8 c 1.1,0 2.1,-0.4 2.9,-1.2 0.8,-0.8 1.2,-1.8 1.2,-3 0,-1.1 -0.4,-2.1 -1.2,-2.9 -0.8,-0.8 -1.7,-1.2 -2.9,-1.2 -1.1,0 -2.1,0.4 -2.9,1.2 -0.8,0.8 -1.2,1.8 -1.2,2.9 0,1.2 0.4,2.2 1.2,3 0.8,0.8 1.8,1.2 2.9,1.2 z m 0,9.9 c 1.1,0 2.1,-0.4 2.9,-1.2 0.8,-0.8 1.2,-1.8 1.2,-2.9 0,-1.2 -0.4,-2.2 -1.2,-2.9 -0.8,-0.7 -1.7,-1.1 -2.9,-1.1 -1.1,0 -2.1,0.4 -2.9,1.1 -0.8,0.7 -1.2,1.7 -1.2,2.9 0,1.1 0.4,2.1 1.2,2.9 0.8,0.8 1.8,1.2 2.9,1.2 z m 4,5.7 c 0,-1.1 -0.4,-2.1 -1.2,-2.9 -0.8,-0.8 -1.7,-1.2 -2.9,-1.2 -1.1,0 -2.1,0.4 -2.9,1.2 -0.8,0.8 -1.2,1.8 -1.2,2.9 0,1.1 0.4,2.1 1.2,2.9 0.8,0.8 1.8,1.2 2.9,1.2 1.1,0 2.1,-0.4 2.9,-1.2 0.9,-0.9 1.2,-1.8 1.2,-2.9 z m -4,13.8 c 1.1,0 2.1,-0.4 2.9,-1.2 0.8,-0.8 1.2,-1.8 1.2,-3 0,-1.1 -0.4,-2.1 -1.2,-2.9 -0.8,-0.8 -1.7,-1.2 -2.9,-1.2 -1.1,0 -2.1,0.4 -2.9,1.2 -0.8,0.8 -1.2,1.8 -1.2,2.9 0,1.2 0.4,2.2 1.2,3 0.8,0.8 1.8,1.2 2.9,1.2 z m 0,9.8 c 1.1,0 2.1,-0.4 2.9,-1.2 0.8,-0.8 1.2,-1.8 1.2,-2.9 0,-1.1 -0.4,-2.1 -1.2,-2.9 -0.8,-0.8 -1.7,-1.2 -2.9,-1.2 -1.1,0 -2.1,0.4 -2.9,1.2 -0.8,0.8 -1.2,1.7 -1.2,2.9 0,1.1 0.4,2.1 1.2,2.9 0.8,0.8 1.8,1.2 2.9,1.2 z m 8.8,-24.8 c 1.1,0 2.1,-0.4 2.9,-1.2 0.8,-0.8 1.2,-1.8 1.2,-3 0,-1.1 -0.4,-2.1 -1.2,-2.9 -0.8,-0.8 -1.7,-1.2 -2.9,-1.2 -1.2,0 -2.2,0.4 -3,1.2 -0.8,0.8 -1.2,1.8 -1.2,2.9 0,1.2 0.4,2.2 1.2,3 0.8,0.8 1.8,1.2 3,1.2 z m 13.4,-4.1 c 0,-1.1 -0.4,-2.1 -1.2,-2.9 -0.8,-0.8 -1.8,-1.2 -2.9,-1.2 -1.1,0 -2.1,0.4 -2.9,1.2 -0.8,0.8 -1.2,1.8 -1.2,2.9 0,1.2 0.4,2.2 1.2,3 0.8,0.8 1.8,1.2 2.9,1.2 1.1,0 2.1,-0.4 2.9,-1.2 0.8,-0.8 1.2,-1.8 1.2,-3 z m 5.4,4.1 c 1.2,0 2.2,-0.4 2.9,-1.2 0.7,-0.8 1.1,-1.8 1.1,-3 0,-1.1 -0.4,-2.1 -1.1,-2.9 -0.7,-0.8 -1.7,-1.2 -2.9,-1.2 -1.1,0 -2.1,0.4 -2.9,1.2 -0.8,0.8 -1.2,1.8 -1.2,2.9 0,1.2 0.4,2.2 1.2,3 0.8,0.8 1.8,1.2 2.9,1.2 z m 12.4,-28.2 c 0,-1.1 -0.4,-2.1 -1.2,-2.9 -0.8,-0.8 -1.7,-1.2 -2.9,-1.2 -1.1,0 -2.1,0.4 -2.9,1.2 -0.8,0.8 -1.2,1.8 -1.2,2.9 0,1.1 0.4,2.1 1.2,2.9 0.8,0.8 1.8,1.2 2.9,1.2 1.1,0 2.1,-0.4 2.9,-1.2 0.8,-0.8 1.2,-1.8 1.2,-2.9 z m -4,13.8 c 1.1,0 2.1,-0.4 2.9,-1.2 0.8,-0.8 1.2,-1.8 1.2,-3 0,-1.1 -0.4,-2.1 -1.2,-2.9 -0.8,-0.8 -1.7,-1.2 -2.9,-1.2 -1.1,0 -2.1,0.4 -2.9,1.2 -0.8,0.8 -1.2,1.8 -1.2,2.9 0,1.2 0.4,2.2 1.2,3 0.8,0.8 1.7,1.2 2.9,1.2 z m 0,9.9 c 1.1,0 2.1,-0.4 2.9,-1.2 0.8,-0.8 1.2,-1.8 1.2,-2.9 0,-1.2 -0.4,-2.2 -1.2,-2.9 -0.8,-0.7 -1.7,-1.1 -2.9,-1.1 -1.1,0 -2.1,0.4 -2.9,1.1 -0.8,0.7 -1.2,1.7 -1.2,2.9 0,1.1 0.4,2.1 1.2,2.9 0.8,0.8 1.7,1.2 2.9,1.2 z m 4,5.7 c 0,-1.1 -0.4,-2.1 -1.2,-2.9 -0.8,-0.8 -1.7,-1.2 -2.9,-1.2 -1.1,0 -2.1,0.4 -2.9,1.2 -0.8,0.8 -1.2,1.8 -1.2,2.9 0,1.1 0.4,2.1 1.2,2.9 0.8,0.8 1.8,1.2 2.9,1.2 1.1,0 2.1,-0.4 2.9,-1.2 0.8,-0.9 1.2,-1.8 1.2,-2.9 z m -4,13.8 c 1.1,0 2.1,-0.4 2.9,-1.2 0.8,-0.8 1.2,-1.8 1.2,-3 0,-1.1 -0.4,-2.1 -1.2,-2.9 -0.8,-0.8 -1.7,-1.2 -2.9,-1.2 -1.1,0 -2.1,0.4 -2.9,1.2 -0.8,0.8 -1.2,1.8 -1.2,2.9 0,1.2 0.4,2.2 1.2,3 0.8,0.8 1.7,1.2 2.9,1.2 z m 0,9.8 c 1.1,0 2.1,-0.4 2.9,-1.2 0.8,-0.8 1.2,-1.8 1.2,-2.9 0,-1.1 -0.4,-2.1 -1.2,-2.9 -0.8,-0.8 -1.7,-1.2 -2.9,-1.2 -1.1,0 -2.1,0.4 -2.9,1.2 -0.8,0.8 -1.2,1.7 -1.2,2.9 0,1.1 0.4,2.1 1.2,2.9 0.8,0.8 1.7,1.2 2.9,1.2 z"
         id="path9"
         inkscape:connector-curvature="0"
         style="fill:#ffffff" /><path
         d="m 336.6,336.5 0,-66.5 20.8,0 0,66.5 -20.8,0 z m 14.4,-58 c 0,-1.1 -0.4,-2.1 -1.1,-2.9 -0.7,-0.8 -1.7,-1.2 -2.9,-1.2 -1.1,0 -2.1,0.4 -2.9,1.2 -0.8,0.8 -1.2,1.8 -1.2,2.9 0,1.1 0.4,2.1 1.2,2.9 0.8,0.8 1.8,1.2 2.9,1.2 1.2,0 2.2,-0.4 2.9,-1.2 0.8,-0.8 1.1,-1.8 1.1,-2.9 z m -4,13.8 c 1.2,0 2.2,-0.4 2.9,-1.2 0.7,-0.8 1.1,-1.8 1.1,-3 0,-1.1 -0.4,-2.1 -1.1,-2.9 -0.7,-0.8 -1.7,-1.2 -2.9,-1.2 -1.1,0 -2.1,0.4 -2.9,1.2 -0.8,0.8 -1.2,1.8 -1.2,2.9 0,1.2 0.4,2.2 1.2,3 0.8,0.8 1.8,1.2 2.9,1.2 z m 0,9.9 c 1.2,0 2.2,-0.4 2.9,-1.2 0.7,-0.8 1.1,-1.8 1.1,-2.9 0,-1.2 -0.4,-2.2 -1.1,-2.9 -0.7,-0.7 -1.7,-1.1 -2.9,-1.1 -1.1,0 -2.1,0.4 -2.9,1.1 -0.8,0.7 -1.2,1.7 -1.2,2.9 0,1.1 0.4,2.1 1.2,2.9 0.8,0.8 1.8,1.2 2.9,1.2 z m 4,5.7 c 0,-1.1 -0.4,-2.1 -1.1,-2.9 -0.7,-0.8 -1.7,-1.2 -2.9,-1.2 -1.1,0 -2.1,0.4 -2.9,1.2 -0.8,0.8 -1.2,1.8 -1.2,2.9 0,1.1 0.4,2.1 1.2,2.9 0.8,0.8 1.8,1.2 2.9,1.2 1.2,0 2.2,-0.4 2.9,-1.2 0.8,-0.9 1.1,-1.8 1.1,-2.9 z m -4,13.8 c 1.2,0 2.2,-0.4 2.9,-1.2 0.7,-0.8 1.1,-1.8 1.1,-3 0,-1.1 -0.4,-2.1 -1.1,-2.9 -0.7,-0.8 -1.7,-1.2 -2.9,-1.2 -1.1,0 -2.1,0.4 -2.9,1.2 -0.8,0.8 -1.2,1.8 -1.2,2.9 0,1.2 0.4,2.2 1.2,3 0.8,0.8 1.8,1.2 2.9,1.2 z m 0,9.8 c 1.2,0 2.2,-0.4 2.9,-1.2 0.7,-0.8 1.1,-1.8 1.1,-2.9 0,-1.1 -0.4,-2.1 -1.1,-2.9 -0.7,-0.8 -1.7,-1.2 -2.9,-1.2 -1.1,0 -2.1,0.4 -2.9,1.2 -0.8,0.8 -1.2,1.7 -1.2,2.9 0,1.1 0.4,2.1 1.2,2.9 0.8,0.8 1.8,1.2 2.9,1.2 z"
         id="path11"
         inkscape:connector-curvature="0"
         style="fill:#ffffff" /><path
         d="m 428.1,320.4 c -1.3,2.5 -2.9,4.9 -4.8,7 -1.8,2.1 -4,3.9 -6.4,5.4 -2.5,1.5 -5.3,2.7 -8.4,3.6 -3.1,0.9 -6.6,1.3 -10.4,1.3 -5,0 -9.6,-0.8 -13.8,-2.5 -4.2,-1.7 -7.8,-4.1 -10.9,-7.1 -3.1,-3.1 -5.4,-6.7 -7.1,-10.9 -1.7,-4.2 -2.5,-8.8 -2.5,-13.8 0,-5.1 0.8,-9.7 2.5,-14 1.7,-4.2 4.1,-7.9 7.1,-10.9 3.1,-3.1 6.7,-5.4 10.9,-7.1 4.2,-1.7 8.8,-2.5 13.8,-2.5 7.3,0 13.1,1.3 17.7,3.8 4.5,2.5 8.1,6.2 10.8,11 L 412.2,297 c -2.8,-6.3 -7.3,-9.4 -13.5,-9.4 -2.3,0 -4.3,0.4 -6.1,1.2 -1.8,0.8 -3.4,1.9 -4.7,3.3 -1.3,1.4 -2.4,3.1 -3.1,5 -0.7,1.9 -1.1,4 -1.1,6.3 0,2.3 0.4,4.3 1.1,6.2 0.7,1.9 1.7,3.6 3,5 1.3,1.4 2.9,2.5 4.7,3.3 1.8,0.8 3.9,1.2 6.1,1.2 3.9,0 7,-0.9 9.3,-2.7 2.3,-1.8 4,-4 5.1,-6.7 l 15.1,10.7 z M 378,303.1 c 0,-1.2 -0.4,-2.2 -1.2,-2.9 -0.8,-0.7 -1.8,-1.1 -2.9,-1.1 -1.2,0 -2.2,0.4 -2.9,1.1 -0.7,0.7 -1.1,1.7 -1.1,2.9 0,1.1 0.4,2.1 1.1,2.9 0.7,0.8 1.7,1.2 2.9,1.2 1.1,0 2.1,-0.4 2.9,-1.2 0.8,-0.8 1.2,-1.8 1.2,-2.9 z m 1.6,-9.2 c 0,-1.2 -0.4,-2.2 -1.2,-3 -0.8,-0.8 -1.8,-1.2 -2.9,-1.2 -1.1,0 -2.1,0.4 -2.9,1.2 -0.8,0.8 -1.2,1.8 -1.2,3 0,1.1 0.4,2 1.2,2.8 0.8,0.8 1.7,1.2 2.8,1.2 1.1,0 2.1,-0.4 2.9,-1.2 0.9,-0.7 1.3,-1.7 1.3,-2.8 z m 0,18.8 c 0,-1.2 -0.4,-2.2 -1.2,-3 -0.8,-0.8 -1.8,-1.2 -2.9,-1.2 -1.1,0 -2.1,0.4 -2.9,1.2 -0.8,0.8 -1.2,1.8 -1.2,3 0,1.1 0.4,2 1.2,2.9 0.8,0.8 1.7,1.3 2.8,1.3 1.1,0 2.1,-0.4 2.9,-1.2 0.9,-0.9 1.3,-1.8 1.3,-3 z m 5.2,-26.6 c 0,-1.1 -0.4,-2.1 -1.2,-2.9 -0.8,-0.8 -1.8,-1.2 -2.9,-1.2 -1.1,0 -2.1,0.4 -2.9,1.2 -0.8,0.8 -1.2,1.8 -1.2,2.9 0,1.1 0.4,2.1 1.2,2.9 0.8,0.8 1.8,1.2 2.9,1.2 1.1,0 2,-0.4 2.9,-1.2 0.7,-0.8 1.2,-1.8 1.2,-2.9 z m -4,38.8 c 1.1,0 2,-0.4 2.8,-1.3 0.8,-0.8 1.2,-1.8 1.2,-2.9 0,-1.1 -0.4,-2.1 -1.2,-2.9 -0.8,-0.8 -1.7,-1.2 -2.9,-1.2 -1.1,0 -2.1,0.4 -2.9,1.2 -0.8,0.8 -1.2,1.7 -1.2,2.9 0,1.1 0.4,2.1 1.2,2.9 1,0.9 1.9,1.3 3,1.3 z m 11.7,-44.6 c 0,-1.1 -0.4,-2.1 -1.2,-2.9 -0.8,-0.8 -1.8,-1.2 -2.9,-1.2 -1.2,0 -2.2,0.4 -2.9,1.2 -0.7,0.8 -1.1,1.7 -1.1,2.9 0,1.1 0.4,2.1 1.1,2.9 0.7,0.8 1.7,1.2 2.9,1.2 1.1,0 2,-0.4 2.9,-1.3 0.8,-0.8 1.2,-1.8 1.2,-2.8 z m 0.2,46 c 0,-1.1 -0.4,-2.1 -1.2,-2.9 -0.8,-0.8 -1.8,-1.2 -2.9,-1.2 -1.2,0 -2.2,0.4 -3,1.2 -0.8,0.8 -1.2,1.8 -1.2,2.9 0,1.1 0.4,2.1 1.2,2.9 0.8,0.8 1.8,1.2 3,1.2 1.1,0 2,-0.4 2.9,-1.2 0.8,-0.9 1.2,-1.8 1.2,-2.9 z m 9.3,-48.4 c 0,-1.1 -0.4,-2.1 -1.2,-2.9 -0.8,-0.8 -1.8,-1.2 -3,-1.2 -1.1,0 -2,0.4 -2.9,1.2 -0.8,0.8 -1.3,1.7 -1.3,2.8 0,1.2 0.4,2.2 1.2,3 0.8,0.8 1.8,1.2 2.9,1.2 1.2,0 2.2,-0.4 3,-1.2 0.9,-0.7 1.3,-1.7 1.3,-2.9 z m 0,50.6 c 0,-1.1 -0.4,-2.1 -1.2,-2.9 -0.8,-0.8 -1.8,-1.2 -3,-1.2 -1.1,0 -2.1,0.4 -2.9,1.2 -0.8,0.8 -1.2,1.7 -1.2,2.9 0,1.1 0.4,2.1 1.2,2.9 0.8,0.8 1.8,1.2 2.9,1.2 1.2,0 2.2,-0.4 3,-1.2 0.8,-0.8 1.2,-1.8 1.2,-2.9 z m 9.5,-48.8 c 0,-1.1 -0.4,-2.1 -1.2,-2.9 -0.8,-0.8 -1.8,-1.2 -3,-1.2 -1.1,0 -2.1,0.4 -2.9,1.2 -0.8,0.8 -1.2,1.7 -1.2,2.9 0,1.1 0.4,2.1 1.2,2.9 0.8,0.8 1.8,1.2 2.9,1.2 1.1,0 2.1,-0.4 2.9,-1.3 0.9,-0.7 1.3,-1.7 1.3,-2.8 z m -3.9,51 c 1.1,0 2.1,-0.4 2.9,-1.2 0.8,-0.8 1.2,-1.8 1.2,-2.9 0,-1.1 -0.4,-2.1 -1.1,-2.9 -0.7,-0.8 -1.7,-1.2 -2.9,-1.2 -1.1,0 -2.1,0.4 -2.9,1.2 -0.8,0.8 -1.2,1.8 -1.2,2.9 0,1.1 0.4,2.1 1.2,2.9 0.7,0.8 1.7,1.2 2.8,1.2 z m 11.9,-45.6 c 0,-1.1 -0.4,-2.1 -1.2,-2.9 -0.8,-0.8 -1.8,-1.2 -2.9,-1.2 -1.1,0 -2.1,0.4 -2.9,1.2 -0.8,0.8 -1.2,1.7 -1.2,2.9 0,1.1 0.4,2.1 1.2,2.9 0.8,0.8 1.7,1.2 2.9,1.2 1.1,0 2.1,-0.4 2.9,-1.2 0.8,-0.8 1.2,-1.7 1.2,-2.9 z m 0.4,35.9 c 0,-1.1 -0.4,-2.1 -1.2,-2.9 -0.8,-0.8 -1.8,-1.2 -2.9,-1.2 -1.1,0 -2.1,0.4 -2.9,1.2 -0.8,0.8 -1.2,1.8 -1.2,2.9 0,1.1 0.4,2.1 1.2,2.9 0.8,0.8 1.8,1.2 2.9,1.2 1.1,0 2,-0.4 2.9,-1.3 0.7,-0.8 1.2,-1.8 1.2,-2.8 z"
         id="path13"
         inkscape:connector-curvature="0"
         style="fill:#ffffff" /><path
         d="m 475.8,336.5 -2.1,-7 -21,0 -2.2,7 -21.9,0 23,-66.5 22.8,0 23.2,66.5 -21.8,0 z M 444.9,329 c 0,-1.1 -0.4,-2 -1.3,-2.8 -0.8,-0.8 -1.8,-1.2 -2.9,-1.2 -1.2,0 -2.2,0.4 -2.9,1.2 -0.7,0.8 -1.1,1.7 -1.1,2.9 0,1.2 0.4,2.2 1.1,3 0.7,0.8 1.7,1.2 2.9,1.2 1.1,0 2.1,-0.4 2.9,-1.2 0.9,-0.9 1.3,-1.9 1.3,-3.1 z m 3,-8.3 c 0,-1.1 -0.4,-2.1 -1.3,-2.9 -0.8,-0.8 -1.8,-1.2 -2.9,-1.2 -1.1,0 -2.1,0.4 -2.9,1.2 -0.8,0.8 -1.2,1.8 -1.2,3 0,1.1 0.4,2.1 1.2,2.9 0.8,0.8 1.8,1.2 2.9,1.2 1.1,0 2.1,-0.4 2.9,-1.2 0.9,-1 1.3,-1.9 1.3,-3 z m 2.8,-8.6 c 0,-1.1 -0.4,-2 -1.2,-2.9 -0.8,-0.8 -1.8,-1.3 -2.9,-1.3 -1.1,0 -2.1,0.4 -2.9,1.2 -0.8,0.8 -1.2,1.8 -1.2,2.9 0,1.1 0.4,2.1 1.2,2.9 0.8,0.8 1.7,1.2 2.9,1.2 1.1,0 2.1,-0.4 2.9,-1.2 0.8,-0.7 1.2,-1.7 1.2,-2.8 z m 3,-8.6 c 0,-1.1 -0.4,-2 -1.2,-2.9 -0.8,-0.8 -1.8,-1.3 -2.9,-1.3 -1.1,0 -2.1,0.4 -2.9,1.2 -0.8,0.8 -1.2,1.8 -1.2,2.9 0,1.1 0.4,2.1 1.2,2.9 0.8,0.8 1.7,1.2 2.9,1.2 1.1,0 2.1,-0.4 2.9,-1.2 0.8,-0.7 1.2,-1.6 1.2,-2.8 z m 2.9,-8.4 c 0,-1.1 -0.4,-2 -1.2,-2.9 -0.8,-0.8 -1.8,-1.3 -2.9,-1.3 -1.1,0 -2.1,0.4 -2.9,1.2 -0.8,0.8 -1.2,1.8 -1.2,2.9 0,1.1 0.4,2.1 1.2,2.9 0.8,0.8 1.7,1.2 2.9,1.2 1.1,0 2.1,-0.4 2.9,-1.2 0.8,-0.7 1.2,-1.7 1.2,-2.8 z m 0.8,25.9 c 0,-1.1 -0.4,-2.1 -1.2,-2.9 -0.8,-0.8 -1.8,-1.2 -2.9,-1.2 -1.1,0 -2.1,0.4 -2.9,1.2 -0.8,0.8 -1.2,1.8 -1.2,2.9 0,1.1 0.4,2.1 1.2,2.9 0.8,0.8 1.7,1.2 2.9,1.2 1.1,0 2.1,-0.4 2.9,-1.2 0.8,-0.7 1.2,-1.7 1.2,-2.9 z m 2.1,-34.5 c 0,-1.1 -0.4,-2 -1.2,-2.9 -0.8,-0.8 -1.8,-1.3 -2.9,-1.3 -1.1,0 -2.1,0.4 -2.9,1.2 -0.8,0.8 -1.2,1.8 -1.2,2.9 0,1.1 0.4,2.1 1.2,2.9 0.8,0.8 1.7,1.2 2.9,1.2 1.1,0 2.1,-0.4 2.9,-1.2 0.8,-0.7 1.2,-1.7 1.2,-2.8 z m -1.3,-4.3 c 1.1,0 2.1,-0.4 2.9,-1.2 0.8,-0.8 1.2,-1.8 1.2,-3 0,-1.1 -0.4,-2 -1.2,-2.8 -0.8,-0.8 -1.7,-1.2 -2.8,-1.2 -1.2,0 -2.2,0.4 -3,1.2 -0.8,0.8 -1.2,1.7 -1.2,2.9 0,1.2 0.4,2.2 1.2,3 0.7,0.7 1.7,1.1 2.9,1.1 z m 4.8,11.4 -5.6,19.3 11.3,0 -5.7,-19.3 z m 3.9,27.4 c 0,-1.1 -0.4,-2.1 -1.2,-2.9 -0.8,-0.8 -1.8,-1.2 -3,-1.2 -1.1,0 -2.1,0.4 -2.9,1.2 -0.8,0.8 -1.2,1.8 -1.2,2.9 0,1.1 0.4,2.1 1.3,2.9 0.8,0.8 1.8,1.2 2.9,1.2 1.2,0 2.2,-0.4 3,-1.2 0.7,-0.7 1.1,-1.7 1.1,-2.9 z m 1,-38.8 c 1.1,0 2.1,-0.4 2.9,-1.2 0.8,-0.8 1.2,-1.8 1.2,-3 0,-1.1 -0.4,-2 -1.2,-2.8 -0.8,-0.8 -1.7,-1.2 -2.8,-1.2 -1.1,0 -2.1,0.4 -2.9,1.2 -0.8,0.8 -1.2,1.7 -1.2,2.9 0,1.2 0.4,2.2 1.2,3 0.7,0.7 1.7,1.1 2.8,1.1 z m 6.5,4.4 c 0,-1.1 -0.4,-2.1 -1.2,-2.9 -0.8,-0.8 -1.8,-1.2 -2.9,-1.2 -1.1,0 -2.1,0.4 -2.9,1.2 -0.8,0.8 -1.2,1.8 -1.2,2.9 0,1.1 0.4,2.1 1.1,2.9 0.7,0.8 1.7,1.2 2.9,1.2 1.1,0 2.1,-0.4 2.9,-1.2 0.9,-0.8 1.3,-1.8 1.3,-2.9 z m -1.8,38.5 c 1.1,0 2.1,-0.4 2.9,-1.2 0.8,-0.8 1.2,-1.8 1.2,-3 0,-1.1 -0.4,-2.1 -1.2,-2.9 -0.8,-0.8 -1.7,-1.2 -2.9,-1.2 -1.1,0 -2.1,0.4 -2.9,1.2 -0.8,0.8 -1.2,1.8 -1.2,2.9 0,1.1 0.4,2.1 1.2,2.9 0.8,0.9 1.8,1.3 2.9,1.3 z m 4.7,-29.9 c 0,-1.2 -0.4,-2.2 -1.2,-3 -0.8,-0.8 -1.8,-1.2 -2.9,-1.2 -1.1,0 -2.1,0.4 -2.9,1.2 -0.8,0.8 -1.2,1.8 -1.2,2.9 0,1.1 0.4,2.1 1.2,2.9 0.8,0.8 1.8,1.2 3,1.2 1.1,0 2.1,-0.4 2.9,-1.2 0.7,-0.7 1.1,-1.7 1.1,-2.8 z m -1.1,12.5 c 1.1,0 2.1,-0.4 2.9,-1.2 0.8,-0.8 1.2,-1.8 1.2,-3 0,-1.1 -0.4,-2.1 -1.2,-2.9 -0.8,-0.8 -1.7,-1.2 -2.9,-1.2 -1.1,0 -2.1,0.4 -2.9,1.2 -0.8,0.8 -1.2,1.7 -1.2,2.9 0,1.2 0.4,2.2 1.2,3 0.8,0.8 1.7,1.2 2.9,1.2 z m 7,4.4 c 0,-1.1 -0.4,-2 -1.2,-2.9 -0.8,-0.8 -1.8,-1.3 -2.9,-1.3 -1.1,0 -2.1,0.4 -2.9,1.2 -0.8,0.8 -1.2,1.8 -1.2,2.9 0,1.1 0.4,2.1 1.2,2.9 0.8,0.8 1.7,1.2 2.9,1.2 1.1,0 2.1,-0.4 2.9,-1.2 0.7,-0.7 1.2,-1.7 1.2,-2.8 z m 2.9,8.6 c 0,-1.1 -0.4,-2.1 -1.3,-2.9 -0.8,-0.8 -1.8,-1.2 -2.9,-1.2 -1.1,0 -2.1,0.4 -2.9,1.2 -0.8,0.8 -1.2,1.8 -1.2,3 0,1.1 0.4,2.1 1.2,2.9 0.8,0.8 1.7,1.2 2.9,1.2 1.1,0 2.1,-0.4 2.9,-1.2 0.9,-1 1.3,-1.9 1.3,-3 z m 2.9,8.3 c 0,-1.1 -0.4,-2.1 -1.2,-2.9 -0.8,-0.8 -1.8,-1.2 -3,-1.2 -1.1,0 -2,0.4 -2.9,1.2 -0.8,0.8 -1.3,1.7 -1.3,2.8 0,1.2 0.4,2.2 1.2,3 0.8,0.8 1.8,1.2 2.9,1.2 1.2,0 2.2,-0.4 3,-1.2 0.9,-0.7 1.3,-1.7 1.3,-2.9 z"
         id="path15"
         inkscape:connector-curvature="0"
         style="fill:#ffffff" /><path
         d="m 529.5,313.5 0,-16.7 35.9,0 c 0.1,1.2 0.2,2.4 0.3,3.5 0.1,1.2 0.1,2.3 0.1,3.5 0,4 -0.6,7.9 -1.7,11.5 -1.1,3.7 -3.1,7.2 -5.8,10.6 -3.2,3.8 -7.1,6.7 -11.7,8.8 -4.7,2 -9.7,3.1 -15.2,3.1 -5.1,0 -9.7,-0.8 -14,-2.5 -4.3,-1.7 -7.9,-4.1 -11,-7.1 -3.1,-3 -5.5,-6.7 -7.2,-10.9 -1.7,-4.2 -2.6,-8.9 -2.6,-14 0,-4.9 0.9,-9.5 2.6,-13.7 1.8,-4.2 4.2,-7.9 7.3,-11 3.1,-3.1 6.8,-5.5 11.2,-7.2 4.3,-1.7 9,-2.6 14.1,-2.6 4,0 7.5,0.3 10.6,1 3,0.7 5.7,1.7 7.9,3 2.3,1.3 4.2,2.9 5.9,4.8 1.7,1.9 3.2,4.1 4.5,6.4 l -14.5,11.2 c -1.6,-2.8 -3.5,-4.9 -5.6,-6.1 -2.1,-1.3 -5.1,-1.9 -9,-1.9 -2,0 -3.9,0.4 -5.7,1.1 -1.7,0.7 -3.2,1.8 -4.5,3.2 -1.3,1.4 -2.3,3.1 -3.1,5.1 -0.7,2 -1.1,4.3 -1.1,6.8 0,2.2 0.3,4.2 1,6.2 0.7,1.9 1.6,3.6 2.9,5.1 1.3,1.5 2.8,2.6 4.7,3.5 1.8,0.8 3.9,1.3 6.1,1.3 4.8,0 8.7,-2 11.6,-5.9 l -14,0 z m -18.1,-10.2 c 0,-1.2 -0.4,-2.2 -1.2,-3 -0.8,-0.8 -1.8,-1.2 -2.9,-1.2 -1.2,0 -2.2,0.4 -2.9,1.2 -0.7,0.8 -1.1,1.8 -1.1,3 0,1.1 0.4,2.1 1.1,2.9 0.7,0.8 1.7,1.2 2.9,1.2 1.1,0 2.1,-0.4 2.9,-1.2 0.8,-0.8 1.2,-1.8 1.2,-2.9 z m 1.6,-9.2 c 0,-1.2 -0.4,-2.2 -1.2,-2.9 -0.8,-0.7 -1.8,-1.1 -2.9,-1.1 -1.1,0 -2.1,0.4 -2.9,1.1 -0.8,0.7 -1.2,1.7 -1.2,2.9 0,1.1 0.4,2 1.2,2.9 0.8,0.8 1.7,1.3 2.8,1.3 1.1,0 2.1,-0.4 2.9,-1.2 0.9,-0.9 1.3,-1.8 1.3,-3 z m 0,18.4 c 0,-1.2 -0.4,-2.2 -1.2,-2.9 -0.8,-0.7 -1.8,-1.1 -2.9,-1.1 -1.1,0 -2.1,0.4 -2.9,1.1 -0.8,0.7 -1.2,1.7 -1.2,2.9 0,1.1 0.4,2 1.2,2.9 0.8,0.8 1.7,1.3 2.8,1.3 1.1,0 2.1,-0.4 2.9,-1.2 0.9,-0.9 1.3,-1.9 1.3,-3 z m 5.3,-26.2 c 0,-1.1 -0.4,-2.1 -1.2,-2.9 -0.8,-0.8 -1.8,-1.2 -2.9,-1.2 -1.1,0 -2.1,0.4 -2.9,1.2 -0.8,0.8 -1.2,1.7 -1.2,2.9 0,1.1 0.4,2.1 1.2,2.9 0.8,0.8 1.8,1.2 2.9,1.2 1.1,0 2,-0.4 2.9,-1.2 0.8,-0.8 1.2,-1.8 1.2,-2.9 z m 0,33.9 c 0,-1.1 -0.4,-2.1 -1.2,-2.9 -0.8,-0.8 -1.8,-1.2 -2.9,-1.2 -1.1,0 -2.1,0.4 -2.9,1.2 -0.8,0.8 -1.2,1.7 -1.2,2.9 0,1.1 0.4,2.1 1.2,2.9 0.8,0.8 1.8,1.2 2.9,1.2 1.1,0 2,-0.4 2.9,-1.3 0.8,-0.8 1.2,-1.7 1.2,-2.8 z m 7.4,6 c 0,-1.1 -0.4,-2.1 -1.2,-2.9 -0.8,-0.8 -1.7,-1.2 -2.9,-1.2 -1.2,0 -2.2,0.4 -3,1.2 -0.8,0.8 -1.2,1.8 -1.2,2.9 0,1.1 0.4,2.1 1.2,2.9 0.8,0.8 1.8,1.2 3,1.2 1.1,0 2,-0.4 2.8,-1.2 0.9,-0.9 1.3,-1.8 1.3,-2.9 z m 0.3,-45.7 c 0,-1.1 -0.4,-2.1 -1.2,-2.9 -0.8,-0.8 -1.8,-1.2 -2.9,-1.2 -1.2,0 -2.2,0.4 -3,1.2 -0.8,0.8 -1.2,1.8 -1.2,2.9 0,1.1 0.4,2.1 1.2,2.9 0.8,0.8 1.8,1.2 3,1.2 1.1,0 2,-0.4 2.9,-1.3 0.8,-0.8 1.2,-1.8 1.2,-2.8 z m 5,52.1 c 1.2,0 2.2,-0.4 2.9,-1.2 0.7,-0.8 1.1,-1.8 1.1,-2.9 0,-1.1 -0.4,-2.1 -1.1,-2.9 -0.7,-0.8 -1.7,-1.2 -2.9,-1.2 -1.1,0 -2.1,0.4 -2.9,1.2 -0.8,0.8 -1.2,1.7 -1.2,2.9 0,1.1 0.4,2.1 1.2,2.9 0.8,0.8 1.7,1.2 2.9,1.2 z m 0.1,-50.3 c 1.2,0 2.2,-0.4 2.9,-1.2 0.7,-0.8 1.1,-1.8 1.1,-3 0,-1.1 -0.4,-2.1 -1.1,-2.9 -0.7,-0.8 -1.7,-1.2 -2.9,-1.2 -1.1,0 -2.1,0.4 -2.9,1.3 -0.8,0.8 -1.2,1.8 -1.2,2.9 0,1.2 0.4,2.2 1.2,3 0.8,0.7 1.7,1.1 2.9,1.1 z m 10.5,22.8 c 0,-1.1 -0.4,-2.1 -1.2,-2.9 -0.8,-0.8 -1.7,-1.2 -2.8,-1.2 -1.1,0 -2.1,0.4 -2.9,1.2 -0.8,0.8 -1.2,1.8 -1.2,3 0,1.1 0.4,2.1 1.2,2.9 0.8,0.8 1.8,1.2 2.9,1.2 1.1,0 2.1,-0.4 2.9,-1.2 0.8,-0.9 1.1,-1.9 1.1,-3 z m -1,25.8 c 1.1,0 2,-0.4 2.8,-1.2 0.8,-0.8 1.2,-1.8 1.2,-2.9 0,-1.2 -0.4,-2.2 -1.2,-2.9 -0.8,-0.7 -1.7,-1.1 -2.9,-1.1 -1.1,0 -2.1,0.4 -2.9,1.1 -0.8,0.7 -1.2,1.7 -1.2,2.9 0,1.1 0.4,2.1 1.2,2.9 0.9,0.8 1.9,1.2 3,1.2 z m 4.2,-51.3 c 0,-1.1 -0.4,-2.1 -1.2,-2.9 -0.8,-0.8 -1.8,-1.2 -3,-1.2 -1.1,0 -2.1,0.4 -2.9,1.2 -0.8,0.8 -1.2,1.7 -1.2,2.9 0,1.1 0.4,2.1 1.2,2.9 0.8,0.8 1.7,1.2 2.9,1.2 1.2,0 2.1,-0.4 2.9,-1.2 0.9,-0.8 1.3,-1.7 1.3,-2.9 z m 5.8,25.5 c 0,-1.1 -0.4,-2.1 -1.2,-2.9 -0.8,-0.8 -1.7,-1.2 -2.8,-1.2 -1.1,0 -2.1,0.4 -2.9,1.2 -0.8,0.8 -1.2,1.8 -1.2,3 0,1.1 0.4,2.1 1.2,2.9 0.8,0.8 1.8,1.2 2.9,1.2 1.1,0 2.1,-0.4 2.9,-1.2 0.7,-0.9 1.1,-1.9 1.1,-3 z m 1.5,16.4 c 0,-1.2 -0.4,-2.2 -1.2,-3 -0.8,-0.8 -1.8,-1.2 -2.9,-1.2 -1.2,0 -2.2,0.4 -3,1.2 -0.8,0.8 -1.2,1.8 -1.2,3 0,1.1 0.4,2.1 1.2,2.9 0.8,0.8 1.8,1.2 3,1.2 1.1,0 2,-0.4 2.9,-1.3 0.8,-0.8 1.2,-1.7 1.2,-2.8 z m 1.1,-36.6 c 0,-1.1 -0.4,-2.1 -1.2,-2.9 -0.8,-0.8 -1.8,-1.2 -2.9,-1.2 -1.1,0 -2.1,0.4 -2.9,1.2 -0.8,0.8 -1.2,1.8 -1.2,2.9 0,1.1 0.4,2.1 1.2,2.9 0.8,0.8 1.7,1.2 2.9,1.2 1.1,0 2,-0.4 2.9,-1.2 0.7,-0.8 1.2,-1.7 1.2,-2.9 z m 4.4,29.1 c 0,-1.1 -0.4,-2.1 -1.2,-2.9 -0.8,-0.8 -1.8,-1.2 -3,-1.2 -1.1,0 -2.1,0.4 -2.9,1.2 -0.8,0.8 -1.2,1.8 -1.2,2.9 0,1.1 0.4,2.1 1.2,2.9 0.8,0.8 1.7,1.2 2.9,1.2 1.2,0 2.2,-0.4 3,-1.2 0.8,-0.8 1.2,-1.8 1.2,-2.9 z m 2,-8.9 c 0,-1.1 -0.4,-2.1 -1.2,-2.9 -0.8,-0.8 -1.8,-1.2 -2.9,-1.2 -1.1,0 -2.1,0.4 -2.9,1.2 -0.8,0.8 -1.2,1.8 -1.2,3 0,1.1 0.4,2.1 1.2,2.9 0.8,0.8 1.7,1.2 2.9,1.2 1.2,0 2.2,-0.4 3,-1.2 0.7,-0.9 1.1,-1.9 1.1,-3 z"
         id="path17"
         inkscape:connector-curvature="0"
         style="fill:#ffffff" /><path
         d="m 641.2,303.3 c 0,5 -0.9,9.6 -2.7,13.8 -1.8,4.2 -4.3,7.8 -7.4,10.9 -3.1,3.1 -6.9,5.5 -11.2,7.2 -4.3,1.7 -8.9,2.6 -13.8,2.6 -5,0 -9.6,-0.9 -13.9,-2.6 -4.3,-1.7 -8,-4.1 -11.1,-7.2 -3.1,-3.1 -5.6,-6.7 -7.4,-10.9 -1.8,-4.2 -2.7,-8.8 -2.7,-13.8 0,-5.1 0.9,-9.7 2.6,-14 1.8,-4.2 4.2,-7.9 7.3,-10.9 3.1,-3.1 6.9,-5.4 11.2,-7.1 4.3,-1.7 8.9,-2.5 14,-2.5 4.9,0 9.5,0.9 13.8,2.6 4.3,1.7 8,4.1 11.2,7.2 3.2,3.1 5.7,6.7 7.5,10.9 1.7,4.2 2.6,8.8 2.6,13.8 z m -55.7,0 c 0,-1.2 -0.4,-2.2 -1.2,-3 -0.8,-0.8 -1.8,-1.2 -2.9,-1.2 -1.2,0 -2.2,0.4 -2.9,1.2 -0.7,0.8 -1.1,1.8 -1.1,3 0,1.1 0.4,2.1 1.1,2.9 0.7,0.8 1.7,1.2 2.9,1.2 1.1,0 2.1,-0.4 2.9,-1.2 0.8,-0.8 1.2,-1.8 1.2,-2.9 z m 1.4,9.4 c 0,-1.2 -0.4,-2.2 -1.2,-3 -0.8,-0.8 -1.8,-1.2 -2.9,-1.2 -1.1,0 -2.1,0.4 -2.9,1.2 -0.8,0.8 -1.2,1.8 -1.2,3 0,1.1 0.4,2 1.3,2.9 0.8,0.8 1.8,1.3 2.9,1.3 1.1,0 2.1,-0.4 2.9,-1.2 0.7,-0.9 1.1,-1.8 1.1,-3 z M 583,297.9 c 1.1,0 2.1,-0.4 2.9,-1.2 0.8,-0.8 1.2,-1.8 1.2,-2.9 0,-1.2 -0.4,-2.2 -1.2,-3 -0.8,-0.8 -1.7,-1.2 -2.9,-1.2 -1.1,0 -2.1,0.4 -2.9,1.2 -0.8,0.8 -1.2,1.8 -1.2,3 0,1.1 0.4,2 1.2,2.9 0.8,0.8 1.8,1.2 2.9,1.2 z m 9.1,-12.1 c 0,-1.1 -0.4,-2.1 -1.2,-2.9 -0.8,-0.8 -1.8,-1.2 -2.9,-1.2 -1.1,0 -2.1,0.4 -2.9,1.2 -0.8,0.8 -1.2,1.8 -1.2,2.9 0,1.1 0.4,2.1 1.2,2.9 0.8,0.8 1.7,1.2 2.9,1.2 1.1,0 2.1,-0.4 2.9,-1.2 0.8,-0.8 1.2,-1.8 1.2,-2.9 z m 0,35.1 c 0,-1.1 -0.4,-2.1 -1.2,-2.9 -0.8,-0.8 -1.8,-1.2 -2.9,-1.2 -1.1,0 -2.1,0.4 -2.9,1.2 -0.8,0.8 -1.2,1.7 -1.2,2.9 0,1.1 0.4,2.1 1.2,2.9 0.8,0.8 1.7,1.2 2.9,1.2 1.1,0 2.1,-0.4 2.9,-1.3 0.8,-0.8 1.2,-1.8 1.2,-2.8 z m 14,-1.8 c 4.3,0 7.8,-1.4 10.5,-4.1 2.7,-2.7 4,-6.6 4,-11.7 0,-5.1 -1.3,-9 -4,-11.7 -2.7,-2.7 -6.2,-4.1 -10.5,-4.1 -4.4,0 -8,1.4 -10.6,4.1 -2.6,2.7 -3.9,6.6 -3.9,11.8 0,5.1 1.3,9 3.9,11.7 2.7,2.6 6.2,4 10.6,4 z m -5.9,-38.6 c 0,-1.1 -0.4,-2.1 -1.2,-2.9 -0.8,-0.8 -1.8,-1.2 -2.9,-1.2 -1.2,0 -2.2,0.4 -3,1.2 -0.8,0.8 -1.2,1.8 -1.2,2.9 0,1.1 0.4,2.1 1.2,2.9 0.8,0.8 1.8,1.2 3,1.2 1.1,0 2,-0.4 2.9,-1.3 0.8,-0.8 1.2,-1.8 1.2,-2.8 z m 0,45.7 c 0,-1.1 -0.4,-2.1 -1.2,-2.9 -0.8,-0.8 -1.8,-1.2 -2.9,-1.2 -1.2,0 -2.2,0.4 -3,1.2 -0.8,0.8 -1.2,1.8 -1.2,2.9 0,1.1 0.4,2.1 1.2,2.9 0.8,0.8 1.8,1.2 3,1.2 1.1,0 2,-0.4 2.9,-1.2 0.8,-0.9 1.2,-1.8 1.2,-2.9 z m 5.9,-44.1 c 1.2,0 2.2,-0.4 2.9,-1.2 0.7,-0.8 1.1,-1.8 1.1,-3 0,-1.1 -0.4,-2.1 -1.1,-2.9 -0.7,-0.8 -1.7,-1.2 -2.9,-1.2 -1.1,0 -2,0.4 -2.9,1.2 -0.8,0.8 -1.3,1.7 -1.3,2.8 0,1.2 0.4,2.2 1.2,3 0.9,0.9 1.9,1.3 3,1.3 z m 0,50.5 c 1.2,0 2.2,-0.4 2.9,-1.2 0.7,-0.8 1.1,-1.8 1.1,-2.9 0,-1.1 -0.4,-2.1 -1.1,-2.9 -0.7,-0.8 -1.7,-1.2 -2.9,-1.2 -1.1,0 -2.1,0.4 -2.9,1.2 -0.8,0.8 -1.2,1.7 -1.2,2.9 0,1.1 0.4,2.1 1.2,2.9 0.8,0.8 1.8,1.2 2.9,1.2 z m 10.1,-48 c 1.2,0 2.2,-0.4 2.9,-1.2 0.7,-0.8 1.1,-1.8 1.1,-2.9 0,-1.1 -0.4,-2.1 -1.1,-2.9 -0.7,-0.8 -1.7,-1.2 -2.9,-1.2 -1.1,0 -2.1,0.4 -2.9,1.2 -0.8,0.8 -1.2,1.8 -1.2,2.9 0,1.1 0.4,2 1.3,2.9 0.8,0.8 1.7,1.2 2.8,1.2 z m 4,41.6 c 0,-1.1 -0.4,-2.1 -1.1,-2.9 -0.7,-0.8 -1.7,-1.2 -2.9,-1.2 -1.1,0 -2.1,0.4 -2.9,1.2 -0.8,0.8 -1.2,1.8 -1.2,2.9 0,1.1 0.4,2.1 1.3,2.9 0.8,0.8 1.8,1.2 2.9,1.2 1.2,0 2.2,-0.4 2.9,-1.2 0.6,-0.9 1,-1.8 1,-2.9 z m 8.1,-40.4 c 0,-1.1 -0.4,-2.1 -1.2,-2.9 -0.8,-0.8 -1.8,-1.2 -2.9,-1.2 -1.1,0 -2.1,0.4 -2.9,1.2 -0.8,0.8 -1.2,1.8 -1.2,2.9 0,1.1 0.4,2.1 1.2,2.9 0.8,0.8 1.7,1.2 2.8,1.2 1.1,0 2.1,-0.4 2.9,-1.2 0.9,-0.8 1.3,-1.8 1.3,-2.9 z m 0,35.1 c 0,-1.1 -0.4,-2.1 -1.2,-2.9 -0.8,-0.8 -1.8,-1.2 -2.9,-1.2 -1.1,0 -2.1,0.4 -2.9,1.2 -0.8,0.8 -1.2,1.7 -1.2,2.9 0,1.1 0.4,2 1.2,2.9 0.8,0.8 1.7,1.3 2.8,1.3 1.1,0 2.1,-0.4 2.9,-1.2 0.9,-0.9 1.3,-1.9 1.3,-3 z m 5.1,-27.1 c 0,-1.2 -0.4,-2.2 -1.2,-3 -0.8,-0.8 -1.8,-1.2 -2.9,-1.2 -1.1,0 -2.1,0.4 -2.9,1.2 -0.8,0.8 -1.2,1.8 -1.2,3 0,1.1 0.4,2.1 1.2,2.9 0.8,0.8 1.8,1.2 2.9,1.2 1.1,0 2,-0.4 2.9,-1.3 0.8,-0.8 1.2,-1.7 1.2,-2.8 z m -3.9,23.1 c 1.1,0 2,-0.4 2.8,-1.3 0.8,-0.8 1.2,-1.8 1.2,-2.9 0,-1.2 -0.4,-2.2 -1.2,-3 -0.8,-0.8 -1.7,-1.2 -2.9,-1.2 -1.1,0 -2.1,0.4 -2.9,1.2 -0.8,0.8 -1.2,1.8 -1.2,3 0,1.1 0.4,2.1 1.2,2.9 0.9,0.8 1.9,1.3 3,1.3 z m 5.4,-13.6 c 0,-1.2 -0.4,-2.2 -1.2,-3 -0.8,-0.8 -1.8,-1.2 -3,-1.2 -1.1,0 -2.1,0.4 -2.9,1.2 -0.8,0.8 -1.2,1.8 -1.2,3 0,1.1 0.4,2.1 1.2,2.9 0.8,0.8 1.7,1.2 2.9,1.2 1.2,0 2.2,-0.4 3,-1.2 0.8,-0.8 1.2,-1.8 1.2,-2.9 z"
         id="path19"
         inkscape:connector-curvature="0"
         style="fill:#ffffff" /></g><g
       id="g21"><path
         d="m 303.7,361.3 c 4.3,0 8.9,2.3 9.7,7.9 -1.8,0 -3.4,0 -5.2,0 -0.7,-2.1 -2.3,-3 -4.5,-3 -3.1,0 -5.1,2.3 -5.1,5.8 0,3 2,5.7 5.1,5.7 2.2,0 4,-1.1 4.6,-3.3 1.8,0 3.4,0 5.2,0 -0.8,5.8 -5.4,8.1 -9.8,8.1 -5.3,0 -10.6,-3.5 -10.6,-10.5 0,-7.1 5.4,-10.7 10.6,-10.7 z"
         id="path23"
         inkscape:connector-curvature="0" style="fill:#ffffff"/><path
         d="m 330.5,366.3 c -3.1,0 -4.6,0 -7.6,0 l 0,2.9 7,0 c 0,1.6 0,3.1 0,4.7 l -7,0 c 0,1.2 0,2.4 0,3.6 3,0 4.8,0 7.9,0 0,1.5 0,3.1 0,4.7 -4.8,0 -8.4,0 -13.2,0 0,-6.9 0,-13.8 0,-20.7 4.8,0 8.1,0 12.9,0 0,1.6 0,3.2 0,4.8 z"
         id="path25"
         inkscape:connector-curvature="0" style="fill:#ffffff"/><path
         d="m 340.7,372.1 0,10.2 c -1.8,0 -3.7,0 -5.5,0 l 0,-20.7 1.9,0 10.4,10.2 0,-10.1 c 1.8,0 3.6,0 5.4,0 l 0,20.7 -1.9,0 -10.3,-10.3 z"
         id="path27"
         inkscape:connector-curvature="0" style="fill:#ffffff"/><path
         d="m 356.2,366.3 c 0,-1.6 0,-3.2 0,-4.7 l 15.3,0 c 0,1.6 0,3.1 0,4.7 l -5,0 0,15.9 c -1.7,0 -3.5,0 -5.2,0 l 0,-15.9 -5.1,0 z"
         id="path29"
         inkscape:connector-curvature="0" style="fill:#ffffff"/><path
         d="m 392.3,381.5 0,0.8 -5.9,0 -3.5,-6.1 -2.7,0 0,6.1 c -1.8,0 -3.6,0 -5.3,0 0,-6.9 0,-13.8 0,-20.7 3,0 6.1,0 9.1,0 8.1,0 9.6,9.8 4.4,13.3 l 3.9,6.6 z m -8.4,-15.2 c -1.2,0 -2.5,0 -3.8,0 0,1.7 0,3.5 0,5.2 l 3.8,0 c 2.9,0 3,-5.2 0,-5.2 z"
         id="path31"
         inkscape:connector-curvature="0" style="fill:#ffffff"/><path
         d="m 408.4,379.6 -8.1,0 -1.2,2.6 -5.2,0 0,-0.8 9.3,-20.2 2.3,0 9.3,20.2 0,0.8 -5.2,0 -1.2,-2.6 z m -4.1,-9.9 -2.3,5.4 4.7,0 -2.4,-5.4 z"
         id="path33"
         inkscape:connector-curvature="0" style="fill:#ffffff"/><path
         d="m 422.7,377.5 7.5,0 c 0,1.8 0,3 0,4.8 -4.3,0 -8.6,0 -12.8,0 l 0,-20.7 c 1.8,0 3.5,0 5.3,0 0,10.7 0,7.1 0,15.9 z"
         id="path35"
         inkscape:connector-curvature="0" style="fill:#ffffff"/><path
         d="m 459.2,382.2 c -1.8,0 -3.6,0 -5.4,0 l 0,-8.3 -6.4,0 0,8.3 c -1.8,0 -3.6,0 -5.4,0 l 0,-20.7 c 1.8,0 3.6,0 5.4,0 l 0,7.5 6.4,0 0,-7.5 c 1.8,0 3.6,0 5.4,0 l 0,20.7 z"
         id="path37"
         inkscape:connector-curvature="0" style="fill:#ffffff"/><path
         d="m 463.2,371.9 c 0,-14.3 21.2,-14.3 21.2,0 0,14.4 -21.2,14.4 -21.2,0 z m 15.8,0 c 0,-7.4 -10.4,-7.4 -10.4,0 0,7.5 10.4,7.5 10.4,0 z"
         id="path39"
         inkscape:connector-curvature="0" style="fill:#ffffff"/><path
         d="m 499.5,375.3 0,-13.7 c 1.7,0 3.4,0 5,0 l 0,13.8 c 0,4.5 -3.9,7.2 -8.2,7.2 -4.2,0 -8.2,-2.6 -8.2,-7.2 l 0,-13.8 c 1.7,0 3.4,0 5,0 l 0,13.7 c 0,1.7 1.6,2.5 3.2,2.5 1.6,0 3.2,-0.8 3.2,-2.5 z"
         id="path41"
         inkscape:connector-curvature="0" style="fill:#ffffff"/><path
         d="m 519.8,376.2 c 0,-1.4 -1.7,-1.8 -3.8,-1.9 -4.5,-0.3 -7.4,-1.9 -7.5,-6.3 -0.2,-8.9 15.9,-8.9 15.8,0 -1.9,0 -3.2,0 -5,0 0,-2.7 -5.5,-2.5 -5.7,-0.1 -0.1,1.6 1.4,1.9 3.3,2.1 4.1,0.4 8.1,1.1 8.1,6.2 0,8.7 -16.8,8.8 -16.7,-0.3 1.8,0 3.3,0 5.1,0 -0.1,2.7 6.4,2.7 6.4,0.3 z"
         id="path43"
         inkscape:connector-curvature="0" style="fill:#ffffff"/><path
         d="m 541.7,366.3 c -3.1,0 -4.6,0 -7.6,0 l 0,2.9 7,0 c 0,1.6 0,3.1 0,4.7 l -7,0 c 0,1.2 0,2.4 0,3.6 3,0 4.8,0 7.9,0 0,1.5 0,3.1 0,4.7 -4.8,0 -8.4,0 -13.2,0 0,-6.9 0,-13.8 0,-20.7 4.8,0 8.1,0 12.9,0 0,1.6 0,3.2 0,4.8 z"
         id="path45"
         inkscape:connector-curvature="0" style="fill:#ffffff"/></g></g></svg>