<svg xmlns="http://www.w3.org/2000/svg" xmlns:xlink="http://www.w3.org/1999/xlink" x="0px" y="0px" viewBox="0 0 269.7 93.1" style="enable-background:new 0 0 269.7 93.1;/* background: red; */" xml:space="preserve">
<style type="text/css">
	.frank-leyar-svg{fill:#fff;}
</style>
<g style="&#10;    /* fill: #fff; */&#10;">
	<g>
		<path class="frank-leyar-svg" d="M36.8,21.2c-1.6,0-7.1,0.2-8.2,0.4c-1.1,0.3-2.2,1-2.9,1.9c-1.5,1.7-2.6,3.1-3,3.9c-0.3,0.3-0.3,0.4-0.5,0.3    l-0.8-0.3c-0.1,0-0.2-0.2-0.1-0.3c0.2-0.5,1.5-6.3,1.7-7c0-0.3,0.1-0.5,0.3-0.6c0.2,0,0.8,0.2,1.6,0.2c2.7,0,13.8,0.1,14.4,0.1    c4.8,0,6.4-0.1,6.8-0.1c0.2,0,0.3,0.1,0.3,0.3v1.2c0,0.1-0.2,0.2-0.3,0.2h-2.1c-1.1,0-1.7,0.4-1.7,1.2c0,0.5-0.1,6.4-0.1,8.3v3    c0,7.2,0.1,12.6,0.1,13.4c0,0.7,0.4,0.9,1.4,0.9h1.7c0.2,0,0.3,0.1,0.3,0.3v1.1c0,0.2-0.1,0.3-0.3,0.3c-0.6,0-2.2-0.1-6-0.1    c-4.1,0-5.8,0.1-6.2,0.1c-0.3,0-0.3-0.1-0.3-0.3v-1.1c0-0.2,0.1-0.3,0.3-0.3h2.3c1,0,1.3-0.2,1.3-1.3V36.2c-1.3,0-3.2,0-4.8,0.3    c-0.8,0.2-1.6,0.8-2.1,1.7c-0.2,0.4-0.6,1.7-0.6,2c0,0.3-0.2,0.3-0.3,0.3l-0.9-0.2c-0.2,0-0.3-0.1-0.3-0.4    c0.1-0.8,0.3-2.9,0.3-4.4c0-0.6,0-4-0.1-4.8c0-0.2,0.1-0.3,0.3-0.3l0.8-0.1c0.2,0,0.3,0.2,0.3,0.3c0.2,0.8,0.4,1.6,0.8,2.1    c0.7,1.1,1.4,1.6,2.2,1.6c0.7,0.2,3.3,0.2,4.5,0.2V21.2z"/>
		<path class="frank-leyar-svg" d="M57.4,38.5c0,2.5,0.1,7.2,0.2,7.9c0.1,0.8,0.4,1.6,1.1,1.6h2.1c0.3,0,0.3,0.1,0.3,0.3v1    c0,0.3-0.1,0.4-0.5,0.4c-0.5,0-1.4-0.1-5.8-0.1c-4.1,0-5.1,0.1-5.6,0.1c-0.3,0-0.3-0.1-0.3-0.4v-1c0-0.2,0.1-0.3,0.3-0.3h1.4    c0.9,0,1.6-0.3,1.6-1.4c0.1-4.2,0.1-8.2,0.1-12.1V23.4c0-1.4-0.6-2.1-1.3-2.1h-1.6c-0.2,0-0.3-0.1-0.3-0.3v-1.1    c0-0.2,0.1-0.3,0.3-0.3c0.3,0,1.6,0.1,5.8,0.1c2.4,0,6.2-0.1,7.5-0.1c3.4,0,6,1.1,7.7,2.7c1.5,1.3,2.3,3.1,2.3,4.7    c0,5.3-3.2,7.5-7.8,8.3v0.2c1.2,0.4,1.9,1.2,2.5,1.9c0.5,0.7,3.1,4.6,3.5,5.1c0.3,0.4,2.9,4.2,3.6,4.8c0.8,0.7,2,0.8,3,0.8    c0.3,0,0.3,0.1,0.3,0.3v0.9c0,0.3-0.1,0.4-0.3,0.4c-0.3,0-1.4-0.1-4.1-0.1c-1.2,0-2.8,0.1-3.7,0.1c-0.5-0.4-1.3-1.5-1.9-2.4    c-0.8-1.2-2.4-4.2-2.8-4.9c-0.4-0.8-1.6-2.7-2.3-3.6c-1.1-1.5-2-2.6-3.8-2.6c-0.2,0-0.9,0-1.3,0.1V38.5z M57.5,34.7    c0.6,0.1,1.1,0.2,1.6,0.2c6.6,0,7.9-5.3,7.9-7.2c0-1.9-0.8-3.7-1.9-4.7c-1.5-1.3-3.5-1.8-5.6-1.8c-0.7,0-1.2,0-1.5,0.3    c-0.3,0.2-0.5,0.7-0.5,1.2L57.5,34.7z"/>
		<path class="frank-leyar-svg" d="M85.4,38c-0.3,1-2.4,7-2.6,8.1c-0.1,0.3-0.1,0.7-0.1,0.9c0,0.5,0.7,1,1.5,1H86c0.3,0,0.4,0.1,0.4,0.2v1.1    c0,0.3-0.1,0.4-0.3,0.4c-0.6,0-2.4-0.1-5.3-0.1c-3.1,0-4,0.1-4.6,0.1c-0.3,0-0.3-0.3-0.3-0.5v-0.8c0-0.3,0.1-0.3,0.3-0.3h1.3    c1.2,0,1.9-0.6,2.7-1.9c0.4-0.8,3.5-8.3,4.7-11.9c0.3-0.8,3.7-9.9,4.1-11c0.1-0.4,0.3-1.2,0.1-1.4c-0.1-0.1-0.3-0.4-0.3-0.5    c0-0.2,0.1-0.3,0.4-0.4c1.3-0.3,3.7-1.6,4.2-2.1c0.3-0.3,0.4-0.4,0.6-0.4c0.3,0,0.4,0.5,0.5,0.8c0.8,2.6,4,12.1,4.8,14.7    c1,3.3,3.7,11.1,4.3,12.3c0.8,1.4,1.9,1.9,2.7,1.9h1.3c0.3,0,0.3,0.1,0.3,0.3v0.9c0,0.3-0.1,0.5-0.4,0.5c-0.8,0-1.6-0.1-6.2-0.1    c-3.5,0-5,0.1-5.9,0.1c-0.3,0-0.4-0.3-0.4-0.5v-0.8c0-0.3,0.1-0.3,0.3-0.3h1.1c1.2,0,1.5-0.4,1.3-1.6c-0.3-1.5-2-6.9-2.5-8.5H85.4    z M94.8,36.3c-0.4-1.2-3.3-10.8-3.5-11.7c-0.2-0.5-0.3-0.8-0.4-0.8c-0.3,0-0.4,0.2-0.5,0.5c-0.2,0.5-4,10.9-4.3,11.9H94.8z"/>
		<path class="frank-leyar-svg" d="M115.1,30.5c0,7.2,0.3,13.1,0.4,14.4c0.1,2.1,0.6,3.1,2.1,3.1h1.1c0.3,0,0.3,0.2,0.3,0.4v1    c0,0.3,0,0.3-0.3,0.3c-0.4,0-2.9-0.1-4.6-0.1c-1.1,0-4,0.1-4.4,0.1c-0.2,0-0.3-0.1-0.3-0.4v-1.1c0-0.1,0.1-0.3,0.3-0.3h1.4    c1.1,0,1.7-0.9,1.9-3.5c0-0.8,0.3-6.7,0.3-13.4v-5.4c0-2.5-1.4-4.5-3.3-4.5h-1.3c-0.2,0-0.3-0.1-0.3-0.3v-1.1    c0-0.2,0.1-0.3,0.3-0.3c0.2,0,0.5,0,1.3,0.1c0.8,0,1.9,0,3.8,0c0.7,0,1.3,0,1.9-0.1c0.5,0,0.9,0,1.2,0c0.5,0,0.8,0.1,1,0.4    c0.4,0.4,8.7,10.8,9.5,12c0.6,0.7,7.2,8.9,7.8,9.7h0.2v-4.4c0-3.7,0-5.8-0.1-7.9c-0.1-1.6-0.3-5.7-0.5-6.4c-0.3-1-1.2-1.6-2.2-1.6    h-1.3c-0.3,0-0.3-0.2-0.3-0.4v-1c0-0.3,0-0.3,0.3-0.3c0.5,0,1.9,0.1,4.7,0.1c2.5,0,3.5-0.1,4-0.1c0.3,0,0.4,0.2,0.4,0.3v1    c0,0.3-0.1,0.4-0.3,0.4h-1.2c-0.8,0-1.3,0.7-1.4,2.2c-0.2,2.9-0.6,9.9-0.6,14.2v11.1c0,0.6,0,1.2-0.5,1.2c-0.6,0-1.1-0.3-1.4-0.7    c-0.3-0.4-2.6-3-5.2-6.2c-2.9-3.6-6.2-7.6-6.7-8.3c-0.6-0.6-7.3-9-7.8-9.6h-0.3V30.5z"/>
		<path class="frank-leyar-svg" d="M152.5,38.2c0,2.1,0.1,8.3,0.1,8.9c0,0.6,0.5,0.9,1,0.9h1.6c0.2,0,0.3,0.1,0.3,0.2v1.1c0,0.2-0.1,0.3-0.3,0.3    c-0.5,0-1.8-0.1-5.4-0.1c-3.6,0-5,0.1-5.4,0.1c-0.2,0-0.3-0.1-0.3-0.3v-1.1c0-0.2,0.1-0.3,0.3-0.3h1.5c0.8,0,1.1-0.3,1.1-0.8    c0-0.3,0.1-8,0.1-13.2v-2.4c0-0.8-0.1-8.9-0.1-9.2c0-0.5-0.3-1-1.3-1h-1.3c-0.3,0-0.3-0.1-0.3-0.3v-1.1c0-0.2,0.1-0.3,0.3-0.3    c0.5,0,1.8,0.1,5.4,0.1c3.3,0,4.6-0.1,5.2-0.1c0.3,0,0.3,0.1,0.3,0.3V21c0,0.3-0.1,0.3-0.3,0.3h-1.3c-0.8,0-1.3,0.3-1.3,1.2    c0,0.7-0.2,7.2-0.2,9.3v1.9h0.8c0.5,0,0.9-0.2,1.4-0.6c0.8-0.7,8.1-9.8,8.6-10.4c0.6-0.8,0.1-1.3-0.7-1.3H162    c-0.2,0-0.2-0.1-0.2-0.3v-1c0-0.3,0.1-0.3,0.3-0.3c0.5,0,2.2,0.1,5,0.1c1.7,0,3.1-0.1,3.6-0.1c0.3,0,0.3,0.1,0.3,0.3V21    c0,0.3-0.2,0.3-0.3,0.3h-0.8c-0.6,0-1.5,0.2-2.4,0.7c-2,1.3-7.9,8.2-9.5,10.3c1.7,2.1,10.3,13.2,11.5,14.7c0.8,0.9,1.9,1,2.5,1    h0.9c0.3,0,0.3,0.2,0.3,0.3v1.1c0,0.3-0.1,0.3-0.3,0.3c-0.4,0-1.9-0.1-5.8-0.1c-3.5,0-5.1,0.1-5.7,0.1c-0.2,0-0.3-0.1-0.3-0.3    v-1.1c0-0.2,0.1-0.3,0.3-0.3h0.6c0.8,0,0.8-0.8,0.7-1.1c-0.4-0.8-7.2-10.6-7.9-11.3c-0.4-0.4-0.9-0.6-1.4-0.6h-0.8V38.2z"/>
		<path class="frank-leyar-svg" d="M199.6,40.9c0.1,0.1,0.1,0.2,0.1,0.4c-0.2,0.3-1.9,7.2-2.1,8.4c-1.1,0-13.2-0.1-17.5-0.1    c-3.8,0-5.3,0.1-5.8,0.1c-0.3,0-0.3-0.1-0.3-0.4v-1c0-0.3,0-0.3,0.3-0.3h1.7c1.5,0,1.8-0.6,1.8-1.1c0-0.8,0.2-11.3,0.2-13.8v-2.4    c0-2.7-0.1-7.2-0.2-7.9c-0.1-1.1-0.3-1.5-1.3-1.5h-1.8c-0.3,0-0.3-0.3-0.3-0.4v-1c0-0.3,0.1-0.3,0.3-0.3c0.4,0,1.9,0.1,5.8,0.1    c4.6,0,6.3-0.1,6.7-0.1c0.3,0,0.4,0.2,0.4,0.4v1c0,0.2-0.1,0.3-0.4,0.3h-2.3c-1.3,0-1.4,0.4-1.4,1.6c0,0.6-0.2,6.9-0.2,9.9v3.6    c0,0.8,0,9.9,0.2,11.7h2.4c2.4,0,5.4,0,7.1-0.2c2.4-0.3,5.1-5.4,5.6-7c0.2-0.2,0.3-0.3,0.5-0.2L199.6,40.9z"/>
		<path class="frank-leyar-svg" d="M210.1,35.9c0,0.4,0.1,10.1,0.1,10.6c0,1.3,0.7,1.5,1.7,1.5h1.8c0.2,0,0.3,0.1,0.3,0.3v1.1    c0,0.3-0.2,0.3-0.4,0.3c-0.5,0-2.2-0.1-6.2-0.1c-4.2,0-6.1,0.1-6.5,0.1c-0.3,0-0.3-0.1-0.3-0.3v-1.1c0-0.2,0.1-0.3,0.3-0.3h1.7    c0.8,0,1.8-0.1,1.9-1.2c0.1-0.6,0.2-9.7,0.2-12v-3c0-1-0.1-8.6-0.1-9.1c-0.1-1-0.5-1.4-1.7-1.4h-2.2c-0.3,0-0.3-0.1-0.3-0.3v-1.1    c0-0.2,0.1-0.3,0.3-0.3c0.5,0,2.7,0.1,6.8,0.1c4,0,5.4-0.1,6-0.1c0.3,0,0.3,0.2,0.3,0.4v1c0,0.3-0.2,0.3-0.3,0.3h-1.6    c-0.9,0-1.6,0.3-1.6,1.1c0,0.4-0.1,9.7-0.1,10.2V35.9z"/>
		<path class="frank-leyar-svg" d="M223,30.5c0,7.2,0.3,13.1,0.4,14.4c0.1,2.1,0.6,3.1,2.1,3.1h1.1c0.3,0,0.3,0.2,0.3,0.4v1c0,0.3,0,0.3-0.3,0.3    c-0.4,0-2.9-0.1-4.6-0.1c-1.1,0-4,0.1-4.4,0.1c-0.2,0-0.3-0.1-0.3-0.4v-1.1c0-0.1,0.1-0.3,0.3-0.3h1.4c1.1,0,1.7-0.9,1.9-3.5    c0-0.8,0.3-6.7,0.3-13.4v-5.4c0-2.5-1.4-4.5-3.3-4.5h-1.3c-0.2,0-0.3-0.1-0.3-0.3v-1.1c0-0.2,0.1-0.3,0.3-0.3c0.2,0,0.5,0,1.3,0.1    c0.8,0,1.9,0,3.8,0c0.7,0,1.3,0,1.9-0.1c0.5,0,0.9,0,1.2,0c0.5,0,0.8,0.1,1,0.4c0.4,0.4,8.7,10.8,9.5,12c0.6,0.7,7.2,8.9,7.8,9.7    h0.2v-4.4c0-3.7,0-5.8-0.1-7.9c-0.1-1.6-0.3-5.7-0.5-6.4c-0.3-1-1.2-1.6-2.2-1.6h-1.3c-0.3,0-0.3-0.2-0.3-0.4v-1    c0-0.3,0-0.3,0.3-0.3c0.5,0,1.9,0.1,4.7,0.1c2.5,0,3.5-0.1,4-0.1c0.3,0,0.4,0.2,0.4,0.3v1c0,0.3-0.1,0.4-0.3,0.4H247    c-0.8,0-1.3,0.7-1.4,2.2c-0.2,2.9-0.6,9.9-0.6,14.2v11.1c0,0.6,0,1.2-0.5,1.2c-0.6,0-1.1-0.3-1.4-0.7c-0.3-0.4-2.6-3-5.2-6.2    c-2.9-3.6-6.2-7.6-6.7-8.3c-0.6-0.6-7.3-9-7.8-9.6H223V30.5z"/>
	</g>
	<g>
		<path class="frank-leyar-svg" d="M56.5,66.7c0.4,0.1,0.7,0.2,0.9,0.4c0.2,0.2,0.5,0.3,0.6,0.5s0.3,0.3,0.4,0.4l0.1,0.2l-0.8,0.8    c0,0-0.1-0.1-0.1-0.1c0-0.1-0.1-0.2-0.3-0.3s-0.3-0.3-0.5-0.4c-0.2-0.1-0.4-0.2-0.7-0.3c-0.3-0.1-0.6-0.1-0.9-0.1    c-0.8,0-1.5,0.3-2.1,0.9c-0.6,0.6-0.9,1.3-0.9,2.1c0,0.8,0.3,1.5,0.9,2.1c0.6,0.6,1.3,0.9,2.1,0.9c0.3,0,0.6,0,0.9-0.1    c0.3-0.1,0.5-0.2,0.7-0.3c0.2-0.1,0.4-0.2,0.5-0.4c0.1-0.1,0.3-0.2,0.3-0.3l0.1-0.1l0.8,0.8c0,0-0.1,0.1-0.1,0.2    c-0.1,0.1-0.2,0.2-0.4,0.4c-0.2,0.2-0.4,0.3-0.7,0.5c-0.2,0.1-0.5,0.3-0.9,0.4c-0.4,0.1-0.8,0.2-1.2,0.2c-1.2,0-2.2-0.4-3-1.2    c-0.8-0.8-1.2-1.8-1.2-2.9s0.4-2.1,1.2-2.9c0.8-0.8,1.8-1.2,3-1.2C55.8,66.5,56.2,66.6,56.5,66.7z"/>
		<path class="frank-leyar-svg" d="M68.6,67.7c0.8-0.8,1.8-1.2,3-1.2c1.2,0,2.2,0.4,3,1.2c0.8,0.8,1.2,1.8,1.2,2.9s-0.4,2.1-1.2,2.9    c-0.8,0.8-1.8,1.2-3,1.2c-1.2,0-2.2-0.4-3-1.2s-1.2-1.8-1.2-2.9S67.8,68.5,68.6,67.7z M69.5,72.7c0.6,0.6,1.3,0.9,2.1,0.9    c0.8,0,1.5-0.3,2.1-0.9c0.6-0.6,0.9-1.3,0.9-2.1c0-0.8-0.3-1.5-0.9-2.1c-0.6-0.6-1.3-0.9-2.1-0.9c-0.8,0-1.5,0.3-2.1,0.9    c-0.6,0.6-0.9,1.3-0.9,2.1C68.6,71.5,68.9,72.2,69.5,72.7z"/>
		<path class="frank-leyar-svg" d="M92.2,66.6v8h-1.1l-4.5-5.8v5.8h-1.3v-8h1.1l4.5,5.8v-5.8H92.2z"/>
		<path class="frank-leyar-svg" d="M107.2,66.7c0.4,0.1,0.7,0.2,0.9,0.4c0.2,0.2,0.5,0.3,0.6,0.5c0.2,0.1,0.3,0.3,0.4,0.4l0.1,0.2l-0.8,0.8    c0,0-0.1-0.1-0.1-0.1c0-0.1-0.1-0.2-0.3-0.3c-0.2-0.1-0.3-0.3-0.5-0.4s-0.4-0.2-0.7-0.3c-0.3-0.1-0.6-0.1-0.9-0.1    c-0.8,0-1.5,0.3-2.1,0.9c-0.6,0.6-0.9,1.3-0.9,2.1c0,0.8,0.3,1.5,0.9,2.1c0.6,0.6,1.3,0.9,2.1,0.9c0.3,0,0.6,0,0.9-0.1    c0.3-0.1,0.5-0.2,0.7-0.3c0.2-0.1,0.4-0.2,0.5-0.4c0.1-0.1,0.3-0.2,0.3-0.3l0.1-0.1l0.8,0.8c0,0-0.1,0.1-0.1,0.2    c-0.1,0.1-0.2,0.2-0.4,0.4c-0.2,0.2-0.4,0.3-0.7,0.5c-0.2,0.1-0.5,0.3-0.9,0.4c-0.4,0.1-0.8,0.2-1.2,0.2c-1.2,0-2.2-0.4-3-1.2    c-0.8-0.8-1.2-1.8-1.2-2.9s0.4-2.1,1.2-2.9c0.8-0.8,1.8-1.2,3-1.2C106.5,66.5,106.8,66.6,107.2,66.7z"/>
		<path class="frank-leyar-svg" d="M124.5,73.5v1.1h-5.8v-8h5.7v1.1H120v2.1h3.5V71H120v2.5H124.5z"/>
		<path class="frank-leyar-svg" d="M137.2,66.6c0.8,0,1.4,0.3,1.9,0.8c0.5,0.5,0.8,1.1,0.8,1.8s-0.3,1.3-0.8,1.8c-0.5,0.5-1.2,0.7-1.9,0.7h-1.9    v2.9H134v-8H137.2z M135.2,67.8v2.9h1.9c0.4,0,0.7-0.1,1-0.4c0.3-0.3,0.4-0.6,0.4-1s-0.1-0.7-0.4-1c-0.3-0.3-0.6-0.4-1-0.4H135.2z    "/>
		<path class="frank-leyar-svg" d="M154.6,66.6v1.1h-2.4v6.9H151v-6.9h-2.4v-1.1H154.6z"/>
		<path class="frank-leyar-svg" d="M180.3,74.6H179v-3.5h-3.9v3.5h-1.3v-8h1.3V70h3.9v-3.4h1.3V74.6z"/>
		<path class="frank-leyar-svg" d="M191.1,67.7c0.8-0.8,1.8-1.2,3-1.2c1.2,0,2.2,0.4,3,1.2s1.2,1.8,1.2,2.9s-0.4,2.1-1.2,2.9s-1.8,1.2-3,1.2    c-1.2,0-2.2-0.4-3-1.2s-1.2-1.8-1.2-2.9S190.3,68.5,191.1,67.7z M192,72.7c0.6,0.6,1.3,0.9,2.1,0.9c0.8,0,1.5-0.3,2.1-0.9    c0.6-0.6,0.9-1.3,0.9-2.1c0-0.8-0.3-1.5-0.9-2.1c-0.6-0.6-1.3-0.9-2.1-0.9c-0.8,0-1.5,0.3-2.1,0.9c-0.6,0.6-0.9,1.3-0.9,2.1    C191.1,71.5,191.4,72.2,192,72.7z"/>
		<path class="frank-leyar-svg" d="M212.7,73c0.4-0.4,0.6-0.9,0.6-1.5v-4.8h1.3v4.8c0,0.9-0.3,1.7-1,2.3c-0.7,0.6-1.5,1-2.4,1    c-0.9,0-1.7-0.3-2.4-1c-0.7-0.6-1-1.4-1-2.3v-4.8h1.3v4.8c0,0.6,0.2,1.1,0.6,1.5c0.4,0.4,0.9,0.6,1.5,0.6    C211.7,73.6,212.2,73.4,212.7,73z"/>
		<path class="frank-leyar-svg" d="M228,71.7c-0.2-0.2-0.4-0.3-0.6-0.4c-0.2-0.1-0.5-0.2-0.8-0.3c-0.3-0.1-0.6-0.2-0.9-0.3    c-0.3-0.1-0.6-0.2-0.8-0.4c-0.2-0.2-0.4-0.4-0.6-0.7s-0.2-0.6-0.2-1c0-0.6,0.2-1.1,0.7-1.5c0.5-0.4,1.1-0.6,1.9-0.6    c0.3,0,0.6,0,0.9,0.1c0.3,0.1,0.5,0.2,0.7,0.3c0.2,0.1,0.3,0.2,0.5,0.3c0.1,0.1,0.2,0.2,0.3,0.3l0.1,0.1l-0.8,0.8c0,0,0,0-0.1-0.1    c0,0-0.1-0.1-0.2-0.2c-0.1-0.1-0.2-0.1-0.3-0.2c-0.1-0.1-0.3-0.1-0.4-0.2c-0.2,0-0.4-0.1-0.6-0.1c-0.4,0-0.7,0.1-1,0.3    c-0.3,0.2-0.4,0.4-0.4,0.7c0,0.2,0.1,0.5,0.2,0.6s0.4,0.3,0.6,0.4c0.2,0.1,0.5,0.2,0.8,0.3c0.3,0.1,0.6,0.2,0.9,0.3    c0.3,0.1,0.6,0.2,0.8,0.4c0.2,0.2,0.4,0.4,0.6,0.7c0.2,0.3,0.2,0.6,0.2,1c0,0.7-0.3,1.3-0.8,1.7c-0.5,0.4-1.2,0.7-2.1,0.7    c-0.4,0-0.7,0-1-0.1c-0.3-0.1-0.6-0.2-0.8-0.3s-0.4-0.2-0.6-0.4c-0.2-0.1-0.3-0.2-0.3-0.3l-0.1-0.1l0.8-0.8c0,0,0,0.1,0.1,0.1    c0,0,0.1,0.1,0.2,0.2c0.1,0.1,0.3,0.2,0.4,0.3c0.1,0.1,0.3,0.2,0.6,0.2c0.2,0.1,0.5,0.1,0.8,0.1c0.5,0,0.9-0.1,1.2-0.4    c0.3-0.2,0.4-0.5,0.4-0.9C228.3,72.1,228.2,71.9,228,71.7z"/>
		<path class="frank-leyar-svg" d="M244.8,73.5v1.1H239v-8h5.7v1.1h-4.4v2.1h3.5V71h-3.5v2.5H244.8z"/>
	</g>
</g>
</svg>