<svg xmlns="http://www.w3.org/2000/svg" height="154.6" width="663.4" fill="#fff"><path d="M40.2 36.6c-6 0-10.9 1.9-14.8 5.8V10H10.7v81.6h14.7V60.3c0-3.1 1-5.6 2.9-7.6 1.9-1.9 4.4-2.9 7.3-2.9 3 0 5.4 1 7.2 2.9 1.8 1.9 2.8 4.4 2.8 7.6v31.3h14.6V58.2c0-6.5-1.8-11.8-5.4-15.7-3.7-4-8.5-5.9-14.6-5.9zm56.2 0c-9.4 0-17.3 3.7-23.5 11.1l7.6 9c4.7-4.9 9.5-7.4 14.3-7.4 3.3 0 5.7.8 7.4 2.5 1.7 1.7 2.6 4 2.6 7v2.4H91.3c-6.2 0-11.2 1.4-14.8 4.2C72.8 68.2 71 72 71 76.9c0 4.7 1.7 8.6 5 11.6S83.9 93 89.6 93c6.8 0 12.3-2.2 16.4-6.5v5.2h13.5v-32c0-7.5-2.1-13.2-6.3-17.1-4.2-4.1-9.8-6-16.8-6zm8.4 34.9c0 3.1-1.1 5.7-3.3 7.7-2.2 2-4.9 3-8 3-2.3 0-4.2-.5-5.6-1.6-1.4-1-2.1-2.5-2.1-4.3 0-3.6 2.5-5.4 7.5-5.4h11.5zm59.6-34.9c-7.7 0-13.4 2.6-17.3 7.9v-6.7h-13.5v73.4h14.7V86.4c4 4.4 9.4 6.5 16.1 6.5 7.6 0 13.9-2.7 18.8-8 4.9-5.4 7.3-12.1 7.3-20.2s-2.5-14.8-7.3-20.1c-4.9-5.4-11.2-8-18.8-8zm7.2 38.8c-2.7 2.7-6 4.1-9.9 4.1-3.8 0-7-1.3-9.6-3.9-2.7-2.6-4-6.3-4-11 0-4.9 1.3-8.5 4-11s5.9-3.8 9.6-3.8c4 0 7.3 1.4 10 4.1 2.6 2.7 4 6.3 4 10.8-.1 4.5-1.4 8-4.1 10.7zm61.2-38.8c-7.7 0-13.4 2.6-17.3 7.9v-6.7H202v73.4h14.7V86.4c4 4.4 9.4 6.5 16.1 6.5 7.6 0 13.9-2.7 18.8-8 4.9-5.4 7.3-12.1 7.3-20.2s-2.4-14.8-7.3-20.1c-4.9-5.4-11.2-8-18.8-8zm7.2 38.8c-2.7 2.7-6 4.1-9.9 4.1-3.8 0-7-1.3-9.6-3.9-2.6-2.6-4-6.3-4-11 0-4.9 1.3-8.5 4-11s5.9-3.8 9.6-3.8c4 0 7.3 1.4 10 4.1 2.6 2.7 4 6.3 4 10.8-.1 4.5-1.4 8-4.1 10.7zm52-2.3l-13.2-35.4h-15.6l20.7 50.7-1.6 3.6c-1.2 2.8-2.8 4.8-4.6 5.8-1.8 1-4 1.5-6.6 1.5-.9 0-3-.1-6.3-.4v12.3c3.3.9 6.4 1.3 9.5 1.3 5 0 9.2-1.3 12.6-3.9 3.4-2.6 6.4-6.7 8.8-12.3l25.8-58.5h-15.4zm118 18.5V58.2c0-6.5-1.8-11.8-5.4-15.7-3.6-4-8.5-5.9-14.6-5.9-6 0-10.9 1.9-14.8 5.8V10h-14.7v81.6h14.7V60.3c0-3.1 1-5.6 2.9-7.6 1.9-1.9 4.4-2.9 7.3-2.9 3 0 5.4 1 7.2 2.9 1.8 1.9 2.8 4.4 2.8 7.6v31.3zm60.4-46.9c-5.7-5.4-12.5-8.1-20.5-8.1s-14.9 2.7-20.4 8.1c-5.6 5.4-8.4 12.1-8.4 20 0 8 2.8 14.7 8.3 20.1 5.5 5.4 12.3 8.1 20.4 8.1 8 0 14.9-2.7 20.6-8.2 5.7-5.4 8.5-12.1 8.5-20 0-8-2.8-14.6-8.5-20zm-10.5 30.5c-2.7 2.8-6 4.1-10 4.1-4.1 0-7.4-1.4-10-4.1-2.6-2.7-3.9-6.2-3.9-10.5s1.3-7.8 3.9-10.6c2.6-2.8 5.9-4.2 10-4.2 4 0 7.3 1.4 10 4.2 2.6 2.8 4 6.3 4 10.6 0 4.2-1.3 7.7-4 10.5zm116 4.5c-1.3.8-2.9 1.1-4.9 1.1-5.4 0-10.4-2.4-15.1-7.3l-7.4 8.9c5.3 7 12.7 10.4 22.3 10.4 6.1 0 11.1-1.5 15.1-4.6 4-3 5.9-7.3 5.9-12.6 0-4-1.2-7.2-3.7-9.6-2.4-2.4-6.2-4.7-11.5-6.8l-5.2-2.2c-2.1-.8-3.6-1.5-4.4-2.2-.8-.7-1.2-1.5-1.2-2.6 0-2.5 1.9-3.8 5.8-3.8 4.4 0 8.4 1.7 12.1 5.1l7.4-9c-4.9-5.4-11.3-8.2-19.4-8.2-5.9 0-10.6 1.4-14.3 4.3-3.7 2.9-5.5 6.8-5.5 11.9 0 4 1.2 7.2 3.6 9.7 2.4 2.5 6.1 4.7 11 6.7l5.8 2.4c2 .9 3.5 1.6 4.3 2.2.8.6 1.3 1.5 1.3 2.7 0 1.6-.6 2.7-2 3.5zm70.4-36c-4.7-4.8-10.8-7.2-18.3-7.2-8 0-14.7 2.7-20.1 8.2-5.4 5.4-8.1 12.1-8.1 20 0 8 2.8 14.7 8.4 20.1 5.6 5.4 12.6 8.1 21.1 8.1 8 0 15.2-2.7 21.5-8l-6.1-10c-4.7 3.6-9.7 5.4-15 5.4-3.9 0-7.2-.9-9.8-2.8-2.6-1.8-4.4-4.5-5.4-7.9h37.9c.7-2.8 1-5.4 1-8 0-7.1-2.4-13.1-7.1-17.9zm-31.7 15.6c.9-3.3 2.5-6 4.8-7.9 2.3-2 5-2.9 8.2-2.9 3.2 0 5.9 1 8.2 2.9 2.2 2 3.4 4.6 3.5 7.9zm-117.5-8.1c4.1 0 7.3-3.3 7.3-7.3s-3.3-7.3-7.3-7.3c-4.1 0-7.3 3.3-7.3 7.3 0 4.1 3.3 7.3 7.3 7.3zm34.8 10.9c-3.9 0-7.1 3.2-7.1 7.1-.4 5.3-4.8 9.5-10.3 9.5-5.4 0-9.8-4.2-10.3-9.5 0-3.9-3.2-7.1-7.1-7.1-3.9 0-7.1 3.2-7.1 7.1v.8c.8 12.8 11.4 22.9 24.4 22.9 13 0 23.6-10.1 24.4-22.9v-.8c.3-3.9-2.9-7.1-6.9-7.1zm.2-25.5c-4.1 0-7.3 3.3-7.3 7.3 0 4.1 3.3 7.3 7.3 7.3 4.1 0 7.3-3.3 7.3-7.3 0-4.1-3.3-7.3-7.3-7.3zm-128.6 95l-1.3 1.2c-.9-.9-2.1-1.4-3.5-1.4-2.5 0-4.5 1.9-4.5 4.6 0 2.7 2 4.6 4.5 4.6 1.4 0 2.6-.5 3.5-1.4l1.3 1.2c-1.2 1.3-2.9 2.1-4.8 2.1-3.5 0-6.4-2.9-6.4-6.4 0-3.5 2.9-6.4 6.4-6.4 2-.2 3.7.6 4.8 1.9zm10.5 3.3v1.8h-5.8v3.6h6.2v1.8h-8.2v-12.6h8.2v1.8h-6.2v3.5h5.8zm18.9 9.6v-2.3h-9.4v2.3h-1.9v-4.2h1.7l4.4-10.8h1.1l4.4 10.8h1.6v4.2zm-7.6-4.1h5.8l-2.9-7.2zm12.9 1.8h-2.1l5.2-12.6h1.1l5.1 12.6h-2.1l-3.6-9zm18.6 0v-3.3h-2c-1.3 0-1.7.3-2.8 1.9l-.9 1.4h-2.2l1.2-1.8c.8-1.2 1.4-1.8 2-2.1-1.8-.6-3-2-3-4 0-2.7 2.1-4.6 5.5-4.6h4.2v12.5zm-2.4-10.8c-1.9 0-3.4.9-3.4 2.8 0 2 1.5 2.8 3.4 2.8h2.4v-5.6zm24 .2l-1.3 1.2c-.9-.9-2.1-1.4-3.5-1.4-2.5 0-4.5 1.9-4.5 4.6 0 2.7 2 4.6 4.5 4.6 1.4 0 2.6-.5 3.5-1.4l1.3 1.2c-1.2 1.3-2.9 2.1-4.8 2.1-3.5 0-6.4-2.9-6.4-6.4 0-3.5 2.9-6.4 6.4-6.4 1.9-.2 3.6.6 4.8 1.9zm7.6 8.8v1.8h-4.9v-1.8h1.5v-8.9h-1.5v-1.8h4.9v1.8h-1.5v8.9zm13.9 1.8v-9l-4.2 5.3-4.3-5.3v9h-1.9v-12.6h1.1l5.1 6.4 5.1-6.4h1.1v12.6zm13.4-7.3v1.8h-5.8v3.6h6.2v1.8h-8.2v-12.6h8.2v1.8h-6.2v3.5h5.8zm10.8 7.3v-8.9l-6.7 8.9h-1.1v-12.6h1.9v8.9l6.7-8.9h1.1v12.6zm-5.6-16h1.3c0 .7.6 1.3 1.4 1.3.8 0 1.4-.6 1.4-1.3h1.3c0 1.5-1.2 2.5-2.7 2.5-1.5 0-2.7-1.1-2.7-2.5zm18.6 16v-5.4h-5.8v5.4h-1.9v-12.6h1.9v5.3h5.8v-5.3h1.9v12.6zm17.5-6.3c0 3.6-2.9 6.4-6.4 6.4-3.5 0-6.4-2.9-6.4-6.4 0-3.5 2.9-6.4 6.4-6.4 3.5 0 6.4 2.9 6.4 6.4zm-10.9 0c0 2.7 2 4.6 4.5 4.6s4.5-1.9 4.5-4.6c0-2.7-2-4.6-4.5-4.6s-4.5 1.9-4.5 4.6zm15.7 6.3h-2v-12.6h8v1.8h-6zm20.3-6.3c0 3.6-2.9 6.4-6.4 6.4-3.5 0-6.4-2.9-6.4-6.4 0-3.5 2.9-6.4 6.4-6.4 3.5 0 6.4 2.9 6.4 6.4zm-10.9 0c0 2.7 2 4.6 4.5 4.6s4.5-1.9 4.5-4.6c0-2.7-2-4.6-4.5-4.6s-4.5 1.9-4.5 4.6zm34.2 8.6v-2.3h-14.9v-12.6h1.9v10.8h4.7v-10.8h1.9v10.8h4.7v-10.8h1.9v10.8h1.7v4.2H603zm5.7-2.3h-2.1l5.2-12.6h1.1l5.1 12.6h-2.1l-1.1-2.8h-4.9zm1.8-4.7h3.6l-1.8-4.4zm19.2-5.9l-1.3 1.2c-.9-.9-2.1-1.4-3.5-1.4-2.5 0-4.5 1.9-4.5 4.6 0 2.7 2 4.6 4.5 4.6 1.4 0 2.6-.5 3.5-1.4l1.3 1.2c-1.2 1.3-2.9 2.1-4.8 2.1-3.5 0-6.4-2.9-6.4-6.4 0-3.5 2.9-6.4 6.4-6.4 1.9-.2 3.6.6 4.8 1.9zm7.1 10.6h-1.9v-10.8h-3.7v-1.8h9.3v1.8h-3.7zm12.9 0v-3.3h-2c-1.3 0-1.7.3-2.8 1.9l-.9 1.4h-2.2l1.2-1.8c.8-1.2 1.4-1.8 2-2.1-1.8-.6-3-2-3-4 0-2.7 2.1-4.6 5.5-4.6h4.2v12.5zm-2.3-10.8c-1.9 0-3.4.9-3.4 2.8 0 2 1.5 2.8 3.4 2.8h2.4v-5.6z"/><path class="st0" d="M388.428 135.82c1.018-.512 1.782-1.28 1.782-2.816 0-1.28-.509-3.327-4.073-3.327H381.3v12.54h4.837c3.31 0 4.582-1.535 4.582-3.582 0-1.536-.763-2.56-2.29-2.815zm-5.091-4.351h3.055c1.782 0 2.036.767 2.036 1.791 0 .768-.509 1.792-2.036 1.792h-3.055zm3.31 8.957h-3.31v-3.839h3.31c1.527 0 2.29.768 2.29 1.792 0 1.28-.509 2.047-2.29 2.047z" stroke-width="2.552"/></svg>