<svg xmlns="http://www.w3.org/2000/svg" data-name="Layer 1" viewBox="0 0 1413.03 794.83"><path d="M286 472.4h12.86v30.44h34.93V472.4h12.87v73.22h-12.9v-30.86h-34.94v30.86H286V472.4zm86.68 36.82V509c0-20.6 15.9-37.86 38.39-37.86s38.18 17 38.18 37.65v.21c0 20.61-15.9 37.86-38.39 37.86s-38.18-17.04-38.18-37.64zm63.08 0V509c0-14.23-10.35-25.94-24.9-25.94s-24.69 11.51-24.69 25.73v.21c0 14.23 10.35 25.94 24.9 25.94s24.69-11.5 24.69-25.72zm39.55-36.82H489l22.29 34.6 22.28-34.62h13.7v73.22h-12.86v-52.5l-23.12 34.51h-.42L488 493.32v52.3h-12.69V472.4zm101.27 0h54.28v11.51h-41.41v19h36.71v11.61h-36.71v19.56h41.94v11.51h-54.81V472.4zm152.6 66.6c-4.93 4.6-10.69 7.48-17.59 7.48-10.77 0-18.9-6.49-18.9-16.44v-.17c0-7.4 4.44-12.74 12.33-16-3.28-4.27-4.76-7.81-4.76-12v-.17c0-7.81 6.24-14.55 16.52-14.55 9.12 0 15.29 6.16 15.29 13.89v.17c0 7.56-5 12.08-12.66 15l9.86 10a92.62 92.62 0 0 0 6.16-11.21l7.64 4a85.9 85.9 0 0 1-7.81 13.07l9.12 9.21-7.56 5.42zm-5.75-6l-12.82-13c-5.35 2.3-7.65 5.84-7.65 9.53v.17c0 4.85 4 8.38 9.62 8.38 3.94-.02 7.56-1.91 10.85-5.08zm-.33-31.31v-.16a6.21 6.21 0 0 0-6.49-6.49 6.65 6.65 0 0 0-6.9 6.9v.16c0 2.88 1.15 5 4.36 8.55 5.93-2.1 9.03-4.81 9.03-8.92zm83.12-29.29h28.87c17.15 0 27.82 9.73 27.82 24.48v.21c0 16.42-13.18 25-29.28 25h-14.55v23.53h-12.86V472.4zM834 510.47c9.73 0 15.8-5.44 15.8-13.07v-.21c0-8.57-6.17-13.07-15.8-13.07h-15v26.36h15zm71.18-38.59h11.92l32.21 73.74h-13.59l-7.43-17.68h-34.62l-7.53 17.68H873zm18.41 44.66l-12.66-29.29-12.55 29.29h25.21zm48.76-44.14H1005c9.21 0 16.42 2.72 21.13 7.33a22.12 22.12 0 0 1 6.07 15.79v.21c0 12-7.22 19.24-17.36 22.17l19.77 27.72h-15.27l-18-25.52h-16.12v25.52h-12.87V472.4zm31.65 36.3c9.21 0 15.06-4.81 15.06-12.24v-.21c0-7.84-5.65-12.13-15.16-12.13h-18.68v24.58H1004zm54.45-36.3h12.86v36.82L1106 472.4h16l-30.54 31.48 31.9 41.73h-15.69l-25-32.95-11.4 11.72v21.23h-12.86V472.4zM332.3 594.76v-.07c0-7.1 6-12.66 14.07-12.66 5.47 0 9 2.09 11.35 5l-5.58 3.97a7.49 7.49 0 0 0-5.85-2.85 6.3 6.3 0 0 0-6.38 6.47v.07a6.27 6.27 0 0 0 6.38 6.5 7.52 7.52 0 0 0 6-3l5.58 3.62c-2.52 3.16-5.93 5.5-11.81 5.5-7.61.04-13.76-5.31-13.76-12.55zm57.8 0v-.07c0-7 6.19-12.66 14.45-12.66s14.38 5.6 14.38 12.59v.07c0 7-6.19 12.66-14.45 12.66s-14.38-5.6-14.38-12.59zm21.22 0v-.07a6.83 6.83 0 0 0-13.65-.07v.07a6.63 6.63 0 0 0 6.88 6.57 6.49 6.49 0 0 0 6.77-6.5zm42.05-12.24h7.84l6.38 9.43 6.38-9.43h7.84v24.35h-7.38v-14l-6.84 9.53h-.16l-6.8-9.5v13.95h-7.27v-24.33zm63.8 0h21.41v5.91h-14v4.14h12.66v5.6H524.6v8.69h-7.42v-24.34zm54.55 12.24v-.07c0-7 6.19-12.66 14.45-12.66s14.38 5.6 14.38 12.59v.07c0 7-6.19 12.66-14.45 12.66s-14.38-5.6-14.38-12.59zm21.22 0v-.07a6.57 6.57 0 0 0-6.84-6.57 6.5 6.5 0 0 0-6.8 6.5v.07a6.62 6.62 0 0 0 6.88 6.57 6.49 6.49 0 0 0 6.77-6.5zM635 582.52h12.66c4.09 0 6.92 1 8.71 2.61a7.24 7.24 0 0 1 2.37 5.67v.07c0 3.76-2.18 6.23-5.51 7.51l6.38 8.49h-8.52l-5.39-7.38h-3.29v7.38H635v-24.35zm12.35 11.69c2.48 0 4-1.11 4-2.89v-.07c0-1.95-1.57-2.92-4-2.92h-4.89v5.88h4.93zm52.29-5.78h-8v-5.91h23.44v5.91h-8v18.44h-7.42v-18.44zm90.51-5.91h7.42v9.11h9.52v-9.11h7.42v24.35h-7.42v-9.25h-9.52v9.25h-7.42v-24.35zM849 594.76v-.07c0-7 6.19-12.66 14.45-12.66s14.38 5.6 14.38 12.59v.07c0 7-6.19 12.66-14.45 12.66S849 601.75 849 594.76zm21.22 0v-.07a6.57 6.57 0 0 0-6.84-6.57 6.5 6.5 0 0 0-6.8 6.5v.07a6.62 6.62 0 0 0 6.88 6.57 6.49 6.49 0 0 0 6.74-6.5zm41.73 1.43v-13.67h7.49V596c0 3.52 2 5.18 4.93 5.18s5-1.6 5-5v-13.7h7.5V596c0 7.83-4.93 11.31-12.54 11.31s-12.38-3.51-12.38-11.12zm57.87 7.06l4.13-4.49a14.73 14.73 0 0 0 8.68 2.92c2 0 3.09-.63 3.09-1.67v-.07c0-1-.88-1.56-4.55-2.36-5.7-1.18-10.09-2.65-10.09-7.62v-.07c0-4.52 3.94-7.79 10.36-7.79a18 18 0 0 1 11 3.23l-3.71 4.76a14 14 0 0 0-7.5-2.4c-1.8 0-2.68.66-2.68 1.57v.07c0 1.11.92 1.6 4.67 2.37 6.12 1.22 9.94 3 9.94 7.59v.07c0 5-4.32 7.93-10.82 7.93a20 20 0 0 1-12.52-4.04zm57.57-20.73h21.53v5.7h-14.19v3.73h12.85v5.32h-12.85v3.86h14.38v5.74h-21.72v-24.35zM724.91 212.35a6.07 6.07 0 0 1-6-5.38c-.07-.65-1.71-16 7.08-28.16s24.07-15.84 24.72-16a6.07 6.07 0 0 1 7.44 5.21c.07.65 1.71 16-7.07 28.16-8.72 12.05-24.07 15.83-24.72 16a6.11 6.11 0 0 1-1.45.17zm20.74-34.58a28.62 28.62 0 0 0-9.86 8.16 26.78 26.78 0 0 0-4.44 11.3 28.66 28.66 0 0 0 9.86-8.15 26.78 26.78 0 0 0 4.44-11.31zm.48 14.86zM715 176.16a6.07 6.07 0 0 1-5.51-3.51c-.31-.67-7.55-16.56-2.71-32.42s19.7-25 20.33-25.39a6.07 6.07 0 0 1 8.65 2.64c.31.67 7.55 16.55 2.71 32.42-4.84 15.86-19.7 25-20.33 25.4a6.07 6.07 0 0 1-3.14.86zm12.13-45.87c-3.3 3.21-7 7.82-8.73 13.48s-1.22 11.56-.27 16.06c3.3-3.21 7-7.82 8.74-13.48s1.18-11.55.23-16.06zm5.54 17.83zm-32.38 54.77c-7.95 0-22.24-1.25-34.81-9-18.28-11.19-25.42-31.42-25.72-32.27a6.07 6.07 0 0 1 5-8c.92-.11 22.74-2.48 40.94 8.67 18.28 11.2 25.43 31.42 25.72 32.27a6.07 6.07 0 0 1-5 8 57.54 57.54 0 0 1-6.13.33zm-45.22-37.26c3.25 5.63 8.69 13 16.75 18s17.61 6.6 24.32 7c-3.26-5.62-8.7-13-16.74-17.93-8.25-5.07-17.64-6.7-24.33-7.06zm117.02 201.44V266.85l-66.14-34L639.89 267v100H612.1v15.4h187.79V367h-27.8zM655.3 276.41l50.7-26.2 50.71 26v90.81h-33.65v-54.21H689v54.26h-33.7v-90.66zM701 366.1v-41.3h10.05v41.3H701z" fill="#fff"/></svg>