<svg xmlns="http://www.w3.org/2000/svg" width="140" height="140" viewBox="0 0 140 140" fill="none" style="&#10;    /* background: black; */&#10;">
    <circle cx="70" cy="70" r="70" fill="none"/>
    <path d="M32.2356 98.6724V107.275H30.0745V103.73H27.1611V107.275H25V98.6724H27.1611V101.939H30.0745V98.6724H32.2356Z" fill="#ffffff"/>
    <path d="M34.1099 102.862C34.1099 100.376 35.7432 98.4645 38.5984 98.4645C41.3538 98.4645 42.9289 100.434 42.9289 103.015C42.9289 105.559 41.3787 107.483 38.6815 107.483C35.7847 107.483 34.1099 105.584 34.1099 102.862ZM40.6265 103.015C40.6265 101.436 39.9033 100.252 38.5942 100.252C37.1895 100.252 36.3915 101.37 36.3915 102.862C36.3915 104.466 37.2144 105.696 38.6773 105.696C39.9033 105.696 40.6265 104.466 40.6265 103.015Z" fill="#ffffff"/>
    <path d="M47.9122 98.6724C49.9985 98.6724 50.7673 99.6199 50.7673 100.962C50.7673 101.548 50.5263 102.109 50.1564 102.583C50.9253 103.086 51.4198 103.867 51.4198 104.802C51.4198 106.199 50.2395 107.275 48.1532 107.275H44.7993V98.6724H47.9122ZM46.9604 100.459V101.939H47.8415C48.3236 101.939 48.5231 101.548 48.5231 101.116C48.5231 100.809 48.3111 100.459 47.8415 100.459H46.9604ZM47.9704 103.726H46.9604V105.484H48.0701C48.6686 105.484 49.0218 105.164 49.0218 104.561C49.0218 104.092 48.7392 103.743 47.9704 103.726Z" fill="#ffffff"/>
    <path d="M55.397 98.6724V103.489L58.5514 98.6724H60.725V107.275H58.5514V102.359L55.397 107.275H53.2358V98.6724H55.397Z" fill="#ffffff"/>
    <path d="M65.2134 98.6723V103.489L68.3678 98.6723H70.5414V107.275H68.3678V102.359L65.2134 107.275H63.0522V98.6723H65.2134ZM65.9074 95.1938C66.0072 95.8213 66.5059 96.3658 67.0586 96.3658C67.628 96.3658 68.0976 95.9169 68.3221 95.1647L69.5439 95.5262C69.2447 96.8811 68.4218 97.9284 67.042 97.9284C65.6373 97.9284 64.8102 96.9102 64.5983 95.4971L65.9074 95.1938Z" fill="#ffffff"/>
    <path d="M83.45 98.6724V107.275H81.2888V100.459H78.3755V107.275H76.2144V98.6724H83.45Z" fill="#ffffff"/>
    <path d="M85.3203 102.862C85.3203 100.376 86.9536 98.4645 89.8088 98.4645C92.5642 98.4645 94.1394 100.434 94.1394 103.015C94.1394 105.559 92.5892 107.483 89.8919 107.483C86.9993 107.483 85.3203 105.584 85.3203 102.862ZM91.8411 103.015C91.8411 101.436 91.1179 100.252 89.8088 100.252C88.4041 100.252 87.6061 101.37 87.6061 102.862C87.6061 104.466 88.429 105.696 89.8919 105.696C91.1179 105.696 91.8411 104.466 91.8411 103.015Z" fill="#ffffff"/>
    <path d="M95.9597 105.488C96.741 103.294 97.0943 101.033 97.1234 98.6724H102.393V105.488H103.233V109.229H101.412V107.275H96.8823V109.229H95.062V105.488H95.9597ZM98.1749 105.488H100.236V100.459H99.1017C98.9437 102.247 98.6611 103.95 98.1749 105.488Z" fill="#ffffff"/>
    <path d="M107.293 98.6724V107.275H105.132V98.6724H107.293Z" fill="#ffffff"/>
    <path d="M116 98.6724V107.275H113.826V100.459H112.646L112.193 104.566C112.035 105.974 111.129 107.288 108.827 107.288V105.513C109.936 105.513 110.09 104.998 110.219 103.838L110.788 98.6724H116Z" fill="#ffffff"/>
    <path d="M38.054 46.7181C38.5402 46.9092 38.9641 47.1254 39.3714 47.3332C39.9325 47.6199 40.4603 47.8901 41.0338 48.0231C41.9606 48.2392 42.5882 48.0605 43.4277 47.6573C43.6895 47.5326 43.9472 47.3872 44.2132 47.2417C44.9779 46.822 45.8423 46.344 46.9645 46.1612C48.5063 45.916 49.695 46.2069 51.0041 46.7181C51.4904 46.9092 51.9143 47.1254 52.3216 47.3332C52.8826 47.6199 53.4104 47.8901 53.984 48.0231C54.9108 48.2392 55.5383 48.0605 56.3778 47.6573C56.6397 47.5326 56.8973 47.3872 57.1633 47.2417C57.928 46.822 58.7925 46.344 59.9146 46.1612C60.6876 46.0365 61.3734 46.049 62.03 46.157C62.3583 44.4073 62.8778 42.7241 63.5677 41.1282C62.3874 40.6794 61.3609 40.4508 60.0143 40.6669C59.0003 40.829 58.2189 41.2612 57.4667 41.6768C57.1924 41.8306 56.9223 41.9761 56.6521 42.1091C55.7087 42.5621 54.9482 42.7782 53.8468 42.5205C53.1985 42.3709 52.6374 42.0841 52.0431 41.7807C51.6483 41.5771 51.2368 41.3693 50.7797 41.1906C49.5287 40.7002 48.4731 40.4425 47.0642 40.6711C46.0501 40.8332 45.2688 41.2654 44.5166 41.681C44.2423 41.8348 43.9721 41.9802 43.702 42.1132C43.037 42.4332 42.4593 42.6369 41.7902 42.6369C41.5118 42.6369 41.2167 42.6036 40.8967 42.5288C40.2483 42.3792 39.6873 42.0924 39.093 41.789C38.6982 41.5854 38.2867 41.3776 37.8296 41.1989C36.9983 40.8747 36.2461 40.6545 35.4274 40.6087C35.203 40.9828 34.991 41.361 34.7915 41.7516V46.0947C35.9718 46.0282 36.9734 46.2942 38.054 46.7181Z" fill="#ffffff"/>
    <path d="M43.428 35.4376C43.6899 35.3129 43.9475 35.1675 44.2135 35.022C44.9782 34.6023 45.8427 34.1243 46.9648 33.9456C48.5067 33.7004 49.6953 33.9913 51.0044 34.5025C51.4907 34.6937 51.9146 34.9098 52.3219 35.1176C52.883 35.4044 53.4108 35.6745 53.9843 35.8075C54.9111 36.0236 55.5386 35.8449 56.3782 35.4418C56.64 35.3171 56.8977 35.1716 57.1636 35.0262C57.9283 34.6064 58.7928 34.1285 59.9149 33.9498C61.3737 33.717 62.5207 33.9664 63.7509 34.4319C60.5591 32.2749 56.694 31.0073 52.5255 31.0073C47.7586 31.0073 43.3865 32.6614 39.9619 35.4127C40.3152 35.5789 40.6643 35.7244 41.0383 35.8117C41.961 36.0195 42.5927 35.8408 43.428 35.4376Z" fill="#ffffff"/>
    <path d="M39.3713 41.2238C39.9324 41.5106 40.4602 41.7807 41.0337 41.9137C41.9605 42.1298 42.588 41.9511 43.4276 41.548C43.6894 41.4233 43.9471 41.2778 44.213 41.1324C44.9777 40.7126 45.8422 40.2347 46.9643 40.0518C48.5062 39.8066 49.6948 40.0975 51.004 40.6087C51.4902 40.7999 51.9141 41.016 52.3214 41.2238C52.8825 41.5106 53.4103 41.7807 53.9838 41.9137C54.9106 42.1298 55.5382 41.9511 56.3777 41.548C56.6395 41.4233 56.8972 41.2778 57.1632 41.1324C57.9279 40.7126 58.7923 40.2347 59.9144 40.0518C61.4023 39.8149 62.5618 40.0767 63.8211 40.5588C64.4113 39.2871 65.1095 38.0735 65.9033 36.9306C66.0861 36.673 66.0653 36.3322 65.8659 36.0953C65.5708 35.9664 65.284 35.821 64.9889 35.6672C64.5941 35.4636 64.1827 35.2558 63.7255 35.0771C62.4746 34.5866 61.4189 34.329 60.01 34.5576C58.996 34.7196 58.2146 35.1519 57.4624 35.5675C57.1881 35.7212 56.918 35.8667 56.6478 35.9997C55.7044 36.4527 54.9439 36.6688 53.8425 36.4111C53.1942 36.2615 52.6331 35.9748 52.0388 35.6714C51.644 35.4677 51.2325 35.2599 50.7754 35.0812C49.5244 34.5908 48.4688 34.3331 47.0599 34.5617C46.0458 34.7238 45.2645 35.156 44.5123 35.5716C44.238 35.7254 43.9678 35.8709 43.6977 36.0038C43.0327 36.3239 42.4551 36.5275 41.7859 36.5275C41.5075 36.5275 41.2124 36.4943 40.8924 36.4194C40.3687 36.2989 39.9074 36.087 39.4336 35.8542C38.0331 37.0636 36.8029 38.4642 35.793 40.0144C36.566 40.1017 37.2891 40.3178 38.0497 40.617C38.5401 40.7999 38.964 41.016 39.3713 41.2238Z" fill="#ffffff"/>
    <path d="M52.0724 54.0159C52.06 54.0118 52.0517 54.0035 52.0392 53.9993C51.6444 53.7957 51.2329 53.5879 50.7758 53.4091C49.5248 52.9187 48.4692 52.6611 47.0603 52.8896C46.0462 53.0517 45.2649 53.484 44.5127 53.8996C44.2384 54.0533 43.9682 54.1988 43.6981 54.3318C43.0331 54.6518 42.4554 54.8554 41.7863 54.8554C41.5079 54.8554 41.2128 54.8222 40.8928 54.7474C40.2444 54.5978 39.6834 54.311 39.0891 54.0076C38.6942 53.804 38.2828 53.5962 37.8256 53.4175C36.7866 53.0102 35.8723 52.7691 34.7876 52.8273V58.2052C34.8292 58.201 34.8666 58.1969 34.9081 58.1886L52.0724 54.0159Z" fill="#ffffff"/>
    <path d="M34.7873 52.1957V46.7097C34.5712 46.7222 34.3468 46.743 34.1099 46.7804C33.6984 46.8469 33.3244 46.9591 32.9753 47.0962C32.7758 48.21 32.6636 49.3571 32.6636 50.5291C32.6636 51.2356 32.7051 51.9297 32.7799 52.6154C33.1581 52.4699 33.5654 52.3494 34.0143 52.2788C34.2844 52.2289 34.5379 52.2081 34.7873 52.1957Z" fill="#ffffff"/>
    <path d="M34.114 52.8855C33.6527 52.9603 33.2454 53.0892 32.8589 53.2471C33.0833 54.8222 33.4948 56.335 34.0766 57.7647C34.193 58.0473 34.4839 58.2135 34.7873 58.1928V52.8149C34.5712 52.8315 34.3467 52.8481 34.114 52.8855Z" fill="#ffffff"/>
    <path d="M34.7874 46.0863V41.7433C34.0435 43.1937 33.4741 44.7522 33.1167 46.3855C33.3993 46.2941 33.6944 46.2152 34.0144 46.1653C34.2845 46.1196 34.5381 46.0988 34.7874 46.0863Z" fill="#ffffff"/>
    <path d="M60.0104 46.7762C58.9964 46.9383 58.215 47.3705 57.4628 47.7861C57.1885 47.9399 56.9184 48.0854 56.6482 48.2183C55.7048 48.6713 54.9442 48.8875 53.8429 48.6298C53.1946 48.4802 52.6335 48.1934 52.0392 47.89C51.6444 47.6864 51.2329 47.4786 50.7758 47.2999C49.5248 46.8095 48.4692 46.5518 47.0603 46.7804C46.0462 46.9424 45.2649 47.3747 44.5127 47.7903C44.2384 47.944 43.9682 48.0895 43.6981 48.2225C43.0331 48.5425 42.4554 48.7462 41.7863 48.7462C41.5079 48.7462 41.2128 48.7129 40.8928 48.6381C40.2444 48.4885 39.6834 48.2017 39.0891 47.8983C38.6942 47.6947 38.2828 47.4869 37.8256 47.3082C36.7866 46.9009 35.8765 46.6598 34.7876 46.718V52.204C35.9679 52.1458 36.9695 52.4118 38.0501 52.8357C38.5363 53.0268 38.9602 53.243 39.3675 53.4508C39.9286 53.7375 40.4564 54.0077 41.0299 54.1407C41.9567 54.3568 42.5843 54.1781 43.4238 53.7749C43.6856 53.6502 43.9433 53.5048 44.2093 53.3593C44.974 52.9396 45.8384 52.4616 46.9605 52.2829C48.5024 52.0377 49.691 52.3286 51.0002 52.8398C51.4864 53.031 51.9104 53.2471 52.3176 53.4549C52.5545 53.5754 52.7831 53.6918 53.0159 53.7957L61.0827 51.8382C61.411 51.7593 61.6313 51.4642 61.623 51.1359C61.6188 50.9322 61.6146 50.7327 61.6146 50.5291C61.6146 50.4917 61.6188 50.4584 61.6188 50.421C61.623 49.1825 61.7269 47.969 61.9139 46.7804C61.3237 46.6723 60.7128 46.664 60.0104 46.7762Z" fill="#ffffff"/>
    <path d="M69.5897 68.5247L69.465 68.4208L69.3487 68.3086C65.7537 64.9172 63.3266 60.6781 62.2585 56.0359C62.1172 55.4208 61.4813 55.0467 60.8579 55.2005L58.6428 55.7532C58.1316 55.8821 57.7783 56.3309 57.7783 56.8463V79.8539C57.7783 80.1864 57.9279 80.5023 58.1856 80.7184L69.1616 89.8408C69.4276 90.0611 69.8141 90.0611 70.076 89.8408L82.598 79.4342L82.5107 79.2638L69.5897 68.5247Z" fill="#ffffff"/>
    <path d="M51.133 57.6234L36.0425 61.3846C36.0591 61.4095 36.0757 61.4303 36.0924 61.4552C36.2087 61.6215 36.3251 61.7877 36.4415 61.9498C36.4581 61.9747 36.4789 61.9997 36.4955 62.0205C36.616 62.1825 36.7407 62.3488 36.8654 62.5067C36.9111 62.5649 36.9568 62.6189 37.0025 62.6729C37.1064 62.7976 37.2062 62.9265 37.3101 63.0511C37.4555 63.2215 37.601 63.3878 37.7506 63.5499C37.7631 63.5623 37.7714 63.5748 37.7838 63.5914C38.0956 63.9322 38.4197 64.2605 38.7564 64.5806C38.7771 64.6013 38.8021 64.6221 38.8229 64.6387L41.3456 66.7334L50.6675 74.4802C51.4156 75.0994 52.5585 74.5799 52.5585 73.6157V58.7164C52.5668 57.985 51.8603 57.4447 51.133 57.6234Z" fill="#ffffff"/>
    <path d="M80.4202 47.142V46.9674C80.4161 46.236 79.7137 45.6998 78.9906 45.8785L66.9132 48.8584C66.8675 49.3779 66.8384 49.9057 66.8342 50.4377C66.8342 50.4668 66.8301 50.4959 66.8301 50.525C66.8301 56.0483 69.1658 61.0313 72.9145 64.5806C72.9394 64.6014 72.9602 64.6221 72.9851 64.6429L80.52 70.906L80.4202 47.142Z" fill="#ffffff"/>
    <path d="M80.4204 47.142L80.5243 70.906L80.4204 47.142Z" fill="#ffffff"/>
    <path d="M104.234 41.3692C100.897 35.2017 94.2973 31 86.6959 31C76.3018 31 67.7778 38.8549 66.9175 48.8584L78.9948 45.8785C79.718 45.6998 80.4204 46.2359 80.4245 46.9674V47.1419C80.4245 46.3606 81.2142 45.812 81.9622 46.078L83.1218 46.4894L92.9383 49.9805C93.3913 50.1426 93.6947 50.5707 93.6947 51.0486L93.7154 55.8363L96.1716 55.2295C96.7493 55.0882 97.3104 55.4041 97.514 55.9111C97.5805 55.4997 98.0335 55.0259 98.9063 55.3916L104.687 57.5278C104.916 57.6109 105.066 57.852 104.995 58.0806C105.992 55.7574 106.545 53.2014 106.545 50.5208C106.549 47.2167 105.71 44.0997 104.234 41.3692Z" fill="#ffffff"/>
    <path d="M97.5139 55.9153C97.3103 55.4083 96.7492 55.0883 96.1715 55.2337L93.7153 55.8405L93.8026 70.1205L97.5555 67.0035L97.5056 56.0317C97.5056 55.9943 97.5098 55.9569 97.5139 55.9153Z" fill="#ffffff"/>
    <path d="M104.691 57.5319L98.9103 55.3958C98.0334 55.03 97.5804 55.5038 97.5181 55.9153C97.5679 56.0399 97.6054 56.1771 97.6054 56.3225L97.6511 66.9287L100.398 64.6429C100.423 64.6221 100.444 64.6013 100.469 64.5805C102.397 62.756 103.947 60.5451 105.003 58.0847C105.07 57.8561 104.916 57.6151 104.691 57.5319Z" fill="#ffffff"/>
    <path d="M97.5142 55.9153C97.5059 55.9568 97.5059 55.9942 97.5059 56.0358L97.5557 67.0077L97.6472 66.9329L97.6015 56.3267C97.6015 56.1771 97.5682 56.0441 97.5142 55.9153Z" fill="#ffffff"/>
    <path d="M89.8961 72.1072L89.7091 71.9534C89.6842 71.9327 89.6634 71.9119 89.6385 71.8911C86.2056 68.666 83.9489 64.244 83.5582 59.3025C83.5166 58.7581 83.8907 58.2635 84.4227 58.1347L93.7113 55.8406L93.6906 51.0529C93.6906 50.5708 93.3872 50.1427 92.9342 49.9848L83.1177 46.4937L81.9581 46.0823C81.2101 45.8163 80.4163 46.3649 80.4204 47.1462V47.1504L80.5243 70.9144L86.6918 76.0388H86.696L91.7331 71.8495L91.3798 72.1072C90.9559 72.4605 90.3283 72.4605 89.8961 72.1072Z" fill="white"/>
    <path d="M93.7155 55.8405L84.4268 58.1346C83.8948 58.2676 83.5166 58.758 83.5623 59.3025C83.953 64.244 86.2097 68.6701 89.6426 71.891C89.6675 71.9118 89.6883 71.9326 89.7132 71.9534L89.9003 72.1071C90.3283 72.4604 90.9559 72.4604 91.3839 72.103L91.7372 71.8453L93.8069 70.1247L93.7155 55.8405Z" fill="#ffffff"/>
    <path d="M34.7876 52.819V52.1956C34.5383 52.2081 34.2806 52.2289 34.0146 52.2704C33.5658 52.3411 33.1585 52.4616 32.7803 52.6071C32.8052 52.8232 32.8301 53.0351 32.8592 53.2471C33.2416 53.0892 33.653 52.9603 34.1144 52.8855C34.3471 52.8481 34.5715 52.8315 34.7876 52.819Z" fill="white"/>
    <path d="M51.0041 52.8274C49.695 52.3162 48.5063 52.0253 46.9645 52.2705C45.8423 52.4492 44.9779 52.9272 44.2132 53.3469C43.9472 53.4924 43.6895 53.6378 43.4277 53.7625C42.5923 54.1657 41.9606 54.3444 41.0338 54.1283C40.4603 53.9953 39.9325 53.7251 39.3714 53.4384C38.96 53.2306 38.5361 53.0144 38.054 52.8233C36.9734 52.3994 35.9718 52.1334 34.7915 52.1916V52.815C35.8762 52.7568 36.7864 52.9978 37.8295 53.4051C38.2867 53.5838 38.694 53.7916 39.093 53.9953C39.6873 54.2987 40.2483 54.5854 40.8967 54.735C41.2209 54.8098 41.5118 54.8431 41.7902 54.8431C42.4593 54.8431 43.0329 54.6436 43.702 54.3194C43.9721 54.1864 44.2423 54.041 44.5166 53.8872C45.2688 53.4716 46.0501 53.0394 47.0642 52.8773C48.4689 52.6529 49.5287 52.9105 50.7797 53.3968C51.2368 53.5755 51.6441 53.7833 52.0431 53.987C52.0556 53.9911 52.0639 53.9994 52.0763 54.0036L53.0239 53.775C52.7912 53.6669 52.5626 53.5547 52.3257 53.4342C51.9143 53.2347 51.4904 53.0186 51.0041 52.8274Z" fill="white"/>
    <path d="M34.7876 46.7098V46.0864C34.5382 46.0988 34.2806 46.1196 34.0146 46.1612C33.6946 46.211 33.3995 46.29 33.1169 46.3814C33.067 46.6183 33.0213 46.8552 32.9756 47.0921C33.3247 46.955 33.6987 46.8428 34.1102 46.7763C34.3471 46.7389 34.5715 46.7222 34.7876 46.7098Z" fill="white"/>
    <path d="M59.9146 46.1612C58.7925 46.3399 57.928 46.8179 57.1633 47.2418C56.8973 47.3872 56.6396 47.5327 56.3778 47.6574C55.5425 48.0605 54.9108 48.2392 53.984 48.0231C53.4104 47.8901 52.8826 47.62 52.3216 47.3332C51.9101 47.1254 51.4904 46.9093 51.0041 46.7181C49.695 46.2069 48.5063 45.916 46.9645 46.1612C45.8423 46.3399 44.9779 46.8179 44.2132 47.2418C43.9472 47.3872 43.6895 47.5327 43.4277 47.6574C42.5923 48.0605 41.9606 48.2392 41.0338 48.0231C40.4603 47.8901 39.9325 47.62 39.3714 47.3332C38.96 47.1254 38.5402 46.9093 38.054 46.7181C36.9734 46.2942 35.9718 46.0282 34.7915 46.0864V46.7098C35.8762 46.6516 36.7864 46.8927 37.8295 47.3C38.2867 47.4787 38.694 47.6865 39.093 47.8901C39.6873 48.1935 40.2483 48.4803 40.8967 48.6299C41.2209 48.7047 41.5118 48.7379 41.7902 48.7379C42.4593 48.7379 43.0329 48.5384 43.702 48.2143C43.9721 48.0813 44.2423 47.9358 44.5166 47.782C45.2688 47.3664 46.0501 46.9342 47.0642 46.7721C48.4689 46.5477 49.5287 46.8054 50.7797 47.2916C51.2368 47.4704 51.6441 47.6782 52.0431 47.8818C52.6374 48.1852 53.1985 48.4719 53.8468 48.6216C54.9482 48.8792 55.7087 48.6631 56.6521 48.2101C56.9223 48.0771 57.1924 47.9317 57.4667 47.7779C58.2189 47.3623 59.0003 46.9301 60.0143 46.768C60.7125 46.6558 61.3276 46.6641 61.9219 46.7597C61.9552 46.556 61.9926 46.3524 62.03 46.1487C61.3733 46.0532 60.6876 46.0407 59.9146 46.1612Z" fill="white"/>
    <path d="M39.0887 41.7807C39.683 42.0841 40.2441 42.3709 40.8924 42.5205C41.2166 42.5953 41.5075 42.6286 41.786 42.6286C42.4551 42.6286 43.0286 42.4291 43.6977 42.1049C43.9679 41.9719 44.238 41.8265 44.5123 41.6727C45.2645 41.2571 46.0459 40.8249 47.0599 40.6628C48.4647 40.4384 49.5244 40.696 50.7754 41.1823C51.2326 41.361 51.6399 41.5688 52.0388 41.7724C52.6331 42.0758 53.1942 42.3626 53.8425 42.5122C54.9439 42.7699 55.7044 42.5538 56.6478 42.1008C56.918 41.9678 57.1881 41.8223 57.4624 41.6685C58.2147 41.2529 58.996 40.8207 60.0101 40.6586C61.3525 40.4425 62.3831 40.6711 63.5635 41.1199C63.6466 40.9288 63.7297 40.7376 63.817 40.5506C62.5577 40.0726 61.3982 39.8066 59.9103 40.0435C58.7882 40.2222 57.9237 40.7002 57.159 41.1241C56.8931 41.2696 56.6354 41.415 56.3736 41.5397C55.5382 41.9428 54.9065 42.1215 53.9797 41.9054C53.4062 41.7724 52.8783 41.5023 52.3173 41.2155C51.9058 41.0077 51.4861 40.7916 50.9998 40.6004C49.6907 40.0892 48.5021 39.7983 46.9602 40.0435C45.8381 40.2222 44.9736 40.7002 44.2089 41.1241C43.9429 41.2696 43.6853 41.415 43.4234 41.5397C42.5881 41.9428 41.9563 42.1215 41.0296 41.9054C40.456 41.7724 39.9282 41.5023 39.3672 41.2155C38.9557 41.0077 38.5318 40.7916 38.0497 40.6004C37.2892 40.3012 36.566 40.0851 35.793 39.9978C35.6642 40.1931 35.5395 40.3885 35.4189 40.5921C36.2418 40.6378 36.9899 40.8581 37.8211 41.1823C38.2824 41.3693 38.6939 41.5771 39.0887 41.7807Z" fill="white"/>
    <path d="M41.7903 36.5234C42.4594 36.5234 43.0329 36.3239 43.7021 35.9997C43.9722 35.8667 44.2423 35.7212 44.5166 35.5675C45.2689 35.1519 46.0502 34.7196 47.0643 34.5576C48.469 34.3331 49.5288 34.5908 50.7797 35.0771C51.2369 35.2558 51.6442 35.4636 52.0432 35.6672C52.6375 35.9706 53.1985 36.2574 53.8469 36.407C54.9482 36.6647 55.7088 36.4485 56.6522 35.9955C56.9223 35.8626 57.1925 35.7171 57.4668 35.5633C58.219 35.1477 59.0003 34.7155 60.0144 34.5534C61.4191 34.329 62.4789 34.5867 63.7299 35.0729C64.187 35.2516 64.5943 35.4594 64.9933 35.6631C65.2884 35.8127 65.5751 35.9623 65.8702 36.0911C65.8494 36.0662 65.837 36.0371 65.812 36.0122C65.1637 35.4386 64.478 34.9067 63.7548 34.4163C62.5246 33.9549 61.3776 33.7014 59.9188 33.9342C58.7967 34.1129 57.9322 34.5908 57.1675 35.0106C56.9015 35.156 56.6439 35.3015 56.382 35.4262C55.5467 35.8293 54.915 36.008 53.9882 35.7919C53.4147 35.6589 52.8868 35.3888 52.3258 35.102C51.9143 34.8942 51.4946 34.6781 51.0083 34.4869C49.6992 33.9757 48.5106 33.6848 46.9687 33.93C45.8466 34.1087 44.9821 34.5867 44.2174 35.0064C43.9514 35.1519 43.6937 35.2973 43.4319 35.422C42.5966 35.8251 41.9648 36.0039 41.0381 35.7877C40.6682 35.7005 40.3149 35.555 39.9616 35.3888C39.7829 35.5301 39.6125 35.6797 39.438 35.8293C39.9076 36.0662 40.3731 36.274 40.8967 36.3945C41.2168 36.486 41.5118 36.5234 41.7903 36.5234Z" fill="white"/>
</svg>