<?xml version="1.0" encoding="UTF-8" standalone="no"?>
<!-- Generator: Adobe Illustrator 16.0.0, SVG Export Plug-In . SVG Version: 6.00 Build 0)  -->

<svg
   xmlns:dc="http://purl.org/dc/elements/1.1/"
   xmlns:cc="http://creativecommons.org/ns#"
   xmlns:rdf="http://www.w3.org/1999/02/22-rdf-syntax-ns#"
   xmlns:svg="http://www.w3.org/2000/svg"
   xmlns="http://www.w3.org/2000/svg"
   xmlns:sodipodi="http://sodipodi.sourceforge.net/DTD/sodipodi-0.dtd"
   xmlns:inkscape="http://www.inkscape.org/namespaces/inkscape"
   version="1.1"
   id="Layer_1"
   x="0px"
   y="0px"
   width="468.01511"
   height="104.7689"
   viewBox="125.309 161.114 468.01512 104.76889"
   enable-background="new 125.309 161.114 626.157 140.169"
   xml:space="preserve"
   inkscape:version="0.91 r13725"
   sodipodi:docname="new_york_logo.svg"><metadata
     id="metadata60"><rdf:RDF><cc:Work
         rdf:about=""><dc:format>image/svg+xml</dc:format><dc:type
           rdf:resource="http://purl.org/dc/dcmitype/StillImage" /><dc:title></dc:title></cc:Work></rdf:RDF></metadata><defs
     id="defs58" /><sodipodi:namedview
     pagecolor="#ffffff"
     bordercolor="#666666"
     borderopacity="1"
     objecttolerance="10"
     gridtolerance="10"
     guidetolerance="10"
     inkscape:pageopacity="0"
     inkscape:pageshadow="2"
     inkscape:window-width="1375"
     inkscape:window-height="876"
     id="namedview56"
     showgrid="false"
     inkscape:zoom="0.45196334"
     inkscape:cx="-181.44011"
     inkscape:cy="-229.88331"
     inkscape:window-x="65"
     inkscape:window-y="24"
     inkscape:window-maximized="1"
     inkscape:current-layer="Layer_1"
     fit-margin-top="0"
     fit-margin-left="0"
     fit-margin-right="0"
     fit-margin-bottom="0" /><g
     id="g3"
     style="fill:#ffffff"
     transform="matrix(0.74744167,0,0,0.74744167,31.647831,40.690666)"><g
       id="g5"
       style="fill:#ffffff"><g
         id="g7"
         style="fill:#ffffff"><path
           d="m 192.812,293.747 c -0.281,2.407 -1.17,4.267 -2.666,5.573 -1.495,1.31 -3.483,1.962 -5.964,1.962 -2.689,0 -4.845,-0.964 -6.465,-2.893 -1.621,-1.929 -2.432,-4.509 -2.432,-7.738 l 0,-2.189 c 0,-2.114 0.378,-3.977 1.134,-5.581 0.756,-1.604 1.826,-2.838 3.213,-3.697 1.386,-0.859 2.991,-1.289 4.815,-1.289 2.418,0 4.356,0.675 5.815,2.023 1.46,1.351 2.309,3.219 2.549,5.604 l -3.018,0 c -0.261,-1.818 -0.826,-3.136 -1.696,-3.951 -0.87,-0.815 -2.087,-1.224 -3.65,-1.224 -1.918,0 -3.422,0.71 -4.511,2.128 -1.089,1.419 -1.634,3.438 -1.634,6.056 l 0,2.207 c 0,2.472 0.516,4.438 1.548,5.899 1.032,1.46 2.476,2.189 4.331,2.189 1.667,0 2.947,-0.378 3.838,-1.134 0.892,-0.756 1.482,-2.071 1.774,-3.947 l 3.019,0.002 0,0 z"
           id="path9"
           style="fill:#ffffff"
           inkscape:connector-curvature="0" /><path
           d="m 238.136,290.322 c 0,2.231 -0.376,4.178 -1.126,5.84 -0.751,1.663 -1.813,2.933 -3.189,3.808 -1.376,0.876 -2.981,1.313 -4.815,1.313 -1.793,0 -3.383,-0.439 -4.769,-1.32 -1.387,-0.881 -2.463,-2.137 -3.229,-3.769 -0.767,-1.631 -1.16,-3.521 -1.181,-5.667 l 0,-1.644 c 0,-2.188 0.381,-4.122 1.142,-5.8 0.761,-1.678 1.837,-2.963 3.229,-3.854 1.392,-0.892 2.983,-1.336 4.776,-1.336 1.823,0 3.432,0.439 4.823,1.319 1.392,0.883 2.462,2.158 3.213,3.831 0.75,1.673 1.126,3.619 1.126,5.839 l 0,1.44 z m -2.987,-1.469 c 0,-2.699 -0.542,-4.771 -1.626,-6.214 -1.085,-1.444 -2.601,-2.166 -4.55,-2.166 -1.897,0 -3.391,0.722 -4.479,2.166 -1.089,1.442 -1.649,3.446 -1.681,6.011 l 0,1.673 c 0,2.617 0.55,4.673 1.649,6.168 1.1,1.496 2.613,2.244 4.542,2.244 1.938,0 3.439,-0.706 4.503,-2.119 1.063,-1.412 1.61,-3.437 1.642,-6.073 l 0,-1.69 z"
           id="path11"
           style="fill:#ffffff"
           inkscape:connector-curvature="0" /><path
           d="m 283.851,300.97 -3.018,0 -11.46,-17.542 0,17.542 -3.018,0 0,-22.765 3.018,0 11.491,17.62 0,-17.62 2.986,0 10e-4,22.765 0,0 z"
           id="path13"
           style="fill:#ffffff"
           inkscape:connector-curvature="0" /><path
           d="m 329.644,293.747 c -0.281,2.407 -1.17,4.267 -2.666,5.573 -1.495,1.31 -3.483,1.962 -5.964,1.962 -2.689,0 -4.845,-0.964 -6.465,-2.893 -1.621,-1.929 -2.432,-4.509 -2.432,-7.738 l 0,-2.189 c 0,-2.114 0.378,-3.977 1.134,-5.581 0.756,-1.604 1.826,-2.838 3.213,-3.697 1.386,-0.859 2.991,-1.289 4.815,-1.289 2.418,0 4.356,0.675 5.815,2.023 1.46,1.351 2.309,3.219 2.549,5.604 l -3.018,0 c -0.261,-1.818 -0.826,-3.136 -1.696,-3.951 -0.87,-0.815 -2.087,-1.224 -3.65,-1.224 -1.918,0 -3.422,0.71 -4.511,2.128 -1.089,1.419 -1.634,3.438 -1.634,6.056 l 0,2.207 c 0,2.472 0.516,4.438 1.548,5.899 1.032,1.46 2.476,2.189 4.331,2.189 1.667,0 2.947,-0.378 3.838,-1.134 0.892,-0.756 1.482,-2.071 1.774,-3.947 l 3.019,0.002 0,0 z"
           id="path15"
           style="fill:#ffffff"
           inkscape:connector-curvature="0" /><path
           d="m 370.324,290.447 -9.865,0 0,8.067 11.46,0 0,2.455 -14.462,0 0,-22.765 14.306,0 0,2.454 -11.304,0 0,7.333 9.865,0 0,2.456 z"
           id="path17"
           style="fill:#ffffff"
           inkscape:connector-curvature="0" /><path
           d="m 402.374,292.058 0,8.912 -3.002,0 0,-22.765 8.396,0 c 2.491,0 4.442,0.636 5.855,1.907 1.412,1.271 2.118,2.955 2.118,5.05 0,2.21 -0.69,3.911 -2.071,5.104 -1.382,1.193 -3.359,1.79 -5.934,1.79 l -5.362,0.002 0,0 z m 0,-2.454 5.394,0 c 1.604,0 2.835,-0.379 3.689,-1.136 0.854,-0.758 1.282,-1.852 1.282,-3.281 0,-1.357 -0.428,-2.443 -1.282,-3.258 -0.854,-0.815 -2.027,-1.237 -3.518,-1.27 l -5.565,0 0,8.945 z"
           id="path19"
           style="fill:#ffffff"
           inkscape:connector-curvature="0" /><path
           d="m 458.082,280.66 -7.316,0 0,20.311 -2.985,0 0,-20.311 -7.303,0 0,-2.454 17.604,0 0,2.454 z"
           id="path21"
           style="fill:#ffffff"
           inkscape:connector-curvature="0" /><path
           d="m 537.621,300.97 -3.019,0 0,-10.522 -11.476,0 0,10.522 -3.002,0 0,-22.765 3.002,0 0,9.787 11.476,0 0,-9.787 3.019,0 0,22.765 z"
           id="path23"
           style="fill:#ffffff"
           inkscape:connector-curvature="0" /><path
           d="m 584.181,290.322 c 0,2.231 -0.376,4.178 -1.126,5.84 -0.751,1.663 -1.813,2.933 -3.188,3.808 -1.376,0.876 -2.981,1.313 -4.815,1.313 -1.793,0 -3.383,-0.439 -4.769,-1.32 -1.387,-0.881 -2.463,-2.137 -3.229,-3.769 -0.767,-1.631 -1.159,-3.521 -1.181,-5.667 l 0,-1.644 c 0,-2.188 0.381,-4.122 1.142,-5.8 0.762,-1.678 1.837,-2.963 3.229,-3.854 1.392,-0.892 2.982,-1.336 4.775,-1.336 1.823,0 3.433,0.439 4.823,1.319 1.393,0.883 2.462,2.158 3.213,3.831 0.75,1.673 1.126,3.619 1.126,5.839 l 0,1.44 z m -2.987,-1.469 c 0,-2.699 -0.542,-4.771 -1.626,-6.214 -1.085,-1.444 -2.602,-2.166 -4.551,-2.166 -1.896,0 -3.391,0.722 -4.479,2.166 -1.089,1.442 -1.649,3.446 -1.681,6.011 l 0,1.673 c 0,2.617 0.55,4.673 1.648,6.168 1.1,1.496 2.613,2.244 4.542,2.244 1.938,0 3.439,-0.706 4.503,-2.119 1.063,-1.412 1.61,-3.437 1.643,-6.073 l 0,-1.69 z"
           id="path25"
           style="fill:#ffffff"
           inkscape:connector-curvature="0" /><path
           d="m 628.426,278.206 0,15.479 c -0.011,2.146 -0.686,3.903 -2.024,5.27 -1.34,1.365 -3.155,2.132 -5.448,2.299 l -0.798,0.03 c -2.491,0 -4.478,-0.672 -5.956,-2.017 -1.48,-1.346 -2.23,-3.194 -2.252,-5.552 l 0,-15.509 2.971,0 0,15.415 c 0,1.647 0.453,2.927 1.36,3.839 0.906,0.912 2.198,1.368 3.877,1.368 1.699,0 3,-0.454 3.9,-1.359 0.901,-0.907 1.354,-2.185 1.354,-3.831 l 0,-15.432 3.016,0 0,0 z"
           id="path27"
           style="fill:#ffffff"
           inkscape:connector-curvature="0" /><path
           d="m 663.587,290.823 c -2.575,-0.74 -4.448,-1.649 -5.621,-2.729 -1.172,-1.079 -1.759,-2.41 -1.759,-3.994 0,-1.793 0.717,-3.276 2.15,-4.448 1.433,-1.173 3.296,-1.759 5.589,-1.759 1.563,0 2.957,0.302 4.183,0.905 1.226,0.604 2.173,1.438 2.845,2.503 0.674,1.063 1.01,2.226 1.01,3.485 l -3.019,0 c 0,-1.381 -0.438,-2.466 -1.313,-3.256 -0.875,-0.789 -2.11,-1.185 -3.705,-1.185 -1.48,0 -2.636,0.325 -3.463,0.979 -0.829,0.652 -1.243,1.558 -1.243,2.717 0,0.931 0.394,1.716 1.181,2.357 0.787,0.643 2.126,1.229 4.019,1.763 1.893,0.532 3.371,1.119 4.439,1.76 1.068,0.643 1.86,1.39 2.377,2.244 0.517,0.854 0.773,1.86 0.773,3.018 0,1.846 -0.719,3.321 -2.157,4.433 -1.438,1.112 -3.361,1.665 -5.771,1.665 -1.563,0 -3.021,-0.3 -4.378,-0.897 -1.354,-0.601 -2.398,-1.42 -3.135,-2.464 -0.733,-1.042 -1.102,-2.226 -1.102,-3.549 l 3.018,0 c 0,1.376 0.508,2.462 1.524,3.26 1.016,0.798 2.373,1.196 4.072,1.196 1.584,0 2.799,-0.323 3.643,-0.97 0.845,-0.646 1.267,-1.526 1.267,-2.644 0,-1.114 -0.391,-1.978 -1.173,-2.587 -0.78,-0.607 -2.198,-1.209 -4.251,-1.803 z"
           id="path29"
           style="fill:#ffffff"
           inkscape:connector-curvature="0" /><path
           d="m 712.46,290.447 -9.865,0 0,8.067 11.46,0 0,2.455 -14.462,0 0,-22.765 14.307,0 0,2.454 -11.305,0 0,7.333 9.865,0 0,2.456 z"
           id="path31"
           style="fill:#ffffff"
           inkscape:connector-curvature="0" /></g></g><g
       id="g33"
       style="fill:#ffffff"><polygon
         points="213.531,161.854 213.531,254.54 200.797,254.54 200.797,202.724 184.547,180.973 184.547,254.54 171.814,254.54 171.814,161.854 184.547,161.854 200.797,183.295 200.797,161.854 "
         id="polygon35"
         style="fill:#ffffff" /><polygon
         points="256.949,173.644 256.949,184.531 279.673,184.531 279.673,197.213 256.949,197.213 256.949,241.807 272.879,241.807 272.879,254.54 244.217,254.54 244.217,197.537 236.888,197.537 236.888,184.531 244.217,184.531 244.217,161.854 273.188,161.854 273.188,173.644 "
         id="polygon37"
         style="fill:#ffffff" /><polygon
         points="299.313,161.854 312.43,161.863 320.921,215.684 329.254,161.854 335.671,161.854 335.684,161.854 342.111,161.854 350.432,215.684 358.936,161.863 372.049,161.854 357.191,254.54 342.852,254.54 335.68,204.75 328.51,254.54 314.175,254.54 "
         id="polygon39"
         style="fill:#ffffff" /><polygon
         points="452.15,254.54 452.15,195.51 434.742,161.854 447.334,161.854 458.553,184.471 469.629,161.854 482.373,161.854 464.91,195.723 464.91,254.54 "
         id="polygon41"
         style="fill:#ffffff" /><g
         id="XMLID_23_"
         style="fill:#ffffff"><g
           id="g44"
           style="fill:#ffffff"><path
             d="m 623.133,227.366 21.441,27.188 -15.021,0 -16.777,-22.512 0,22.512 -12.308,0 0,-92.684 c 0,0 9.415,-0.331 12.739,0.077 9.695,1.185 28.168,10.472 29.544,32.385 1.478,23.53 -19.618,33.034 -19.618,33.034 z m -9.925,-9.542 c 0,0 18.677,-3.847 17.62,-23.11 -0.918,-16.715 -17.62,-20.002 -17.62,-20.002 l 0,43.112 z"
             id="path46"
             style="fill:#ffffff"
             inkscape:connector-curvature="0" /></g></g><polygon
         points="696.291,180.445 712.984,161.863 697.115,161.863 683.046,177.54 683.046,161.863 670.359,161.863 670.359,254.54 683.046,254.54 683.046,195.186 686.441,191.411 699.846,254.54 713.736,254.54 "
         id="polygon48"
         style="fill:#ffffff" /><path
         d="m 533.934,161.114 c -22.522,0 -40.771,21.104 -40.771,47.148 0,26.021 18.248,47.129 40.771,47.129 22.515,0 40.773,-21.108 40.773,-47.129 0,-26.044 -18.26,-47.148 -40.773,-47.148 z m 0,82.942 c -15.878,0 -28.76,-17.436 -28.76,-35.793 0,-18.369 12.882,-35.813 28.76,-35.813 15.885,0 28.762,17.444 28.762,35.813 -0.002,18.358 -12.879,35.793 -28.762,35.793 z"
         id="path50"
         style="fill:#ffffff"
         inkscape:connector-curvature="0" /><rect
         x="125.309"
         y="213.83299"
         width="20.068001"
         height="12.733"
         id="rect52"
         style="fill:#ffffff" /><rect
         x="731.40002"
         y="213.83299"
         width="20.065001"
         height="12.733"
         id="rect54"
         style="fill:#ffffff" /></g></g></svg>