<svg xmlns="http://www.w3.org/2000/svg" viewBox="0 0 81.571038 67.310002">
	<defs>
		<style type="text/css">
    .fil0 {fill:#6781BA;fill-rule:nonzero}
    .fil2 {fill:#FEFEFE;fill-rule:nonzero}
    .fil1 {fill:#0B45BB;fill-rule:nonzero}
   </style>
	</defs>
	<g transform="translate(.066166 -163.23)">
		<g transform="matrix(.26458 0 0 .26458 -.066166 163.23)" style="&#10;    fill: #fff;&#10;">
			<polygon points="274.8 128.2 154.5 247.6 154.5 254.4 281.8 128.2" opacity=".5" style="&#10;    fill: #fff;&#10;"/>
			<polygon points="34.3 128.2 154.5 247.6 154.5 254.4 27.3 128.2" opacity=".2"/>
			<polygon points="34.3 126.2 154.5 6.8 154.5 0 27.3 126.3" opacity=".5"/>
			<polygon points="274.8 126.2 154.5 6.8 154.5 0 281.8 126.3" opacity=".2"/>
			<g style="&#10;    fill: #fff;&#10;">
				<path d="m58.5 158.5c-2 0-3.6 0.7-4.8 2s-1.7 3.2-1.7 5.5c0 2.4 0.6 4.3 1.7 5.6s2.7 2 4.8 2c1.3 0 2.7-0.2 4.4-0.7v1.9c-1.3 0.5-2.8 0.7-4.7 0.7-2.7 0-4.8-0.8-6.2-2.5s-2.2-4-2.2-7c0-1.9 0.4-3.5 1.1-5 0.7-1.4 1.7-2.5 3.1-3.3 1.3-0.8 2.9-1.2 4.7-1.2 1.9 0 3.6 0.4 5 1.1l-0.9 1.8c-1.5-0.5-2.9-0.9-4.3-0.9z"/>
				<path d="m82.7 166c0 2.9-0.7 5.2-2.2 6.9s-3.5 2.5-6.2 2.5-4.8-0.8-6.2-2.5c-1.5-1.6-2.2-4-2.2-7s0.7-5.3 2.2-6.9 3.6-2.5 6.3-2.5c2.6 0 4.7 0.8 6.2 2.5 1.4 1.8 2.1 4.1 2.1 7zm-14.6 0c0 2.5 0.5 4.4 1.6 5.6 1.1 1.3 2.6 1.9 4.6 1.9s3.6-0.6 4.6-1.9 1.6-3.2 1.6-5.7-0.5-4.3-1.5-5.6-2.6-1.9-4.6-1.9-3.6 0.6-4.6 1.9c-1.1 1.4-1.7 3.3-1.7 5.7z"/>
				<path d="m101.1 175.2h-2.4l-10-15.4h-0.1c0.1 1.8 0.2 3.5 0.2 5v10.4h-2v-18.3h2.4l10 15.3h0.1c0-0.2-0.1-1-0.1-2.2-0.1-1.2-0.1-2.1-0.1-2.6v-10.5h2z"/>
				<path d="m114 158.5c-2 0-3.6 0.7-4.8 2s-1.7 3.2-1.7 5.5c0 2.4 0.6 4.3 1.7 5.6s2.7 2 4.8 2c1.3 0 2.7-0.2 4.4-0.7v1.9c-1.3 0.5-2.8 0.7-4.7 0.7-2.7 0-4.8-0.8-6.2-2.5-1.5-1.6-2.2-4-2.2-7 0-1.9 0.4-3.5 1.1-5 0.7-1.4 1.7-2.5 3.1-3.3 1.3-0.8 2.9-1.2 4.7-1.2 1.9 0 3.6 0.4 5 1.1l-0.9 1.8c-1.5-0.5-2.9-0.9-4.3-0.9z"/>
				<path d="m132.6 175.2h-10.2v-18.3h10.2v1.9h-8.1v5.9h7.6v1.9h-7.6v6.7h8.1z"/>
				<path d="m148.3 162.2c0 1.9-0.6 3.3-1.9 4.3s-3.1 1.5-5.4 1.5h-2.2v7.2h-2.1v-18.3h4.7c4.6 0 6.9 1.8 6.9 5.3zm-9.5 4h1.9c1.9 0 3.3-0.3 4.1-0.9s1.3-1.6 1.3-2.9c0-1.2-0.4-2.1-1.2-2.7s-2-0.9-3.7-0.9h-2.4z"/>
				<path d="m157.7 175.2h-2.1v-16.4h-5.8v-1.9h13.7v1.9h-5.8z"/>
				<path d="m186.9 175.2h-2.1v-8.6h-9.6v8.6h-2.2v-18.3h2.1v7.8h9.6v-7.8h2.1v18.3z"/>
				<path d="m207.8 166c0 2.9-0.7 5.2-2.2 6.9s-3.5 2.5-6.2 2.5-4.8-0.8-6.2-2.5c-1.5-1.6-2.2-4-2.2-7s0.7-5.3 2.2-6.9 3.6-2.5 6.3-2.5c2.6 0 4.7 0.8 6.2 2.5 1.4 1.8 2.1 4.1 2.1 7zm-14.6 0c0 2.5 0.5 4.4 1.6 5.6 1.1 1.3 2.6 1.9 4.6 1.9s3.6-0.6 4.6-1.9 1.6-3.2 1.6-5.7-0.5-4.3-1.5-5.6-2.6-1.9-4.6-1.9-3.6 0.6-4.6 1.9c-1.2 1.4-1.7 3.3-1.7 5.7z"/>
				<path d="m225.7 156.9v11.9c0 2.1-0.6 3.7-1.9 4.9s-3 1.8-5.2 1.8-3.9-0.6-5.1-1.8-1.8-2.9-1.8-5v-11.8h2.1v12c0 1.5 0.4 2.7 1.3 3.5 0.8 0.8 2.1 1.2 3.7 1.2 1.5 0 2.7-0.4 3.6-1.2 0.8-0.8 1.3-2 1.3-3.5v-11.9h2z"/>
				<path d="m240.9 170.3c0 1.6-0.6 2.9-1.8 3.8s-2.8 1.4-4.8 1.4c-2.2 0-3.8-0.3-5-0.8v-2.1c0.8 0.3 1.6 0.6 2.5 0.8s1.8 0.3 2.6 0.3c1.4 0 2.5-0.3 3.2-0.8s1.1-1.3 1.1-2.2c0-0.6-0.1-1.2-0.4-1.6s-0.7-0.8-1.3-1.1-1.5-0.7-2.7-1.2c-1.7-0.6-2.9-1.3-3.7-2.2-0.7-0.8-1.1-1.9-1.1-3.3s0.5-2.5 1.6-3.4c1.1-0.8 2.5-1.3 4.2-1.3 1.8 0 3.5 0.3 5 1l-0.7 1.9c-1.5-0.6-3-1-4.4-1-1.1 0-2 0.2-2.6 0.7s-1 1.2-1 2c0 0.6 0.1 1.2 0.4 1.6 0.2 0.4 0.6 0.8 1.2 1.1s1.4 0.7 2.5 1.1c1.9 0.7 3.2 1.4 4 2.2 0.9 0.9 1.2 1.9 1.2 3.1z"/>
				<path d="m254.9 175.2h-10.2v-18.3h10.2v1.9h-8.1v5.9h7.6v1.9h-7.6v6.7h8.1z"/>
			</g>
			<path d="m74.7 128.2v-50.5h7.7v44.4" style="&#10;    fill: #fff;&#10;"/>
			<path d="m184.5 128.2v-50.5h7.7v44.4" style="&#10;    fill: #fff;&#10;"/>
			<g style="&#10;    fill: #fff;&#10;">
				<path d="m0 77.7h7.7c1 0 2 0 3.2 0.1s2.3 0.3 3.5 0.6 2.3 0.8 3.3 1.5c1.1 0.7 2 1.6 2.9 2.7 0.8 1.2 1.5 2.6 2 4.3s0.8 3.8 0.8 6.3v1.8c0 2.7-0.2 5-0.7 6.9s-1.1 3.5-1.8 4.8c-0.8 1.3-1.7 2.4-2.7 3.1-1 0.8-2.1 1.4-3.2 1.8s-2.2 0.7-3.3 0.8-2.2 0.2-3.1 0.2h-0.9v15.4h-7.7zm8 29.5c1.4 0 2.5-0.2 3.5-0.6 0.9-0.4 1.7-1 2.3-1.9s1-2 1.2-3.3 0.4-3 0.4-4.9v-4.5c0-1.5-0.1-2.8-0.3-3.9s-0.6-2-1.2-2.7-1.3-1.2-2.3-1.6c-0.9-0.3-2.1-0.5-3.6-0.5h-0.3v23.9z"/>
				<path d="m27.8 77.7h7.7v21.1h9.1v-21.1h7.7v50.5h-7.7v-23.3h-9.1v23.3h-7.7z"/>
				<path d="m59.7 77.7h7.7v50.5h-7.7z"/>
				<path d="m106.8 77.7h8.8l9.3 50.5h-7.7l-1.4-9h-9.2l-1.3 9h-7.8zm8.2 35.7-3.5-25.1h-0.3l-3.6 25.1z"/>
				<path d="m129.9 77.7h7.9c1.2 0 2.4 0 3.7 0.1s2.6 0.3 3.8 0.6c1.2 0.4 2.4 0.9 3.5 1.6s2.1 1.8 2.9 3.1 1.5 3 2 5 0.7 4.5 0.7 7.4v14.7c0 2.9-0.2 5.4-0.7 7.4s-1.1 3.7-2 5c-0.8 1.3-1.8 2.3-2.9 3.1-1.1 0.7-2.3 1.3-3.5 1.6-1.2 0.4-2.5 0.6-3.8 0.6-1.3 0.1-2.5 0.1-3.7 0.1h-7.9zm9.6 45.1c1.4 0 2.5-0.2 3.4-0.5 0.9-0.4 1.6-1 2.1-1.9s0.9-2.1 1.1-3.7 0.3-3.5 0.3-5.9v-15.6c0-2.4-0.1-4.3-0.3-5.9s-0.6-2.8-1.1-3.7-1.2-1.5-2.1-1.9-2-0.5-3.4-0.5h-2v39.5h2z"/>
				<path d="m160 77.7h18.7v6h-11.1v15.1h8.5v6h-8.5v17.3h11.4v6h-19z"/>
				<path d="m207.5 77.7h7.7c1 0 2 0 3.2 0.1s2.3 0.3 3.5 0.6 2.3 0.8 3.3 1.5c1.1 0.7 2 1.6 2.9 2.7 0.8 1.2 1.5 2.6 2 4.3s0.8 3.8 0.8 6.3v1.8c0 2.7-0.2 5-0.7 6.9s-1.1 3.5-1.8 4.8c-0.8 1.3-1.7 2.4-2.7 3.1-1 0.8-2.1 1.4-3.2 1.8s-2.2 0.7-3.3 0.8-2.2 0.2-3.1 0.2h-0.7v15.4h-7.7v-50.3zm8 29.5c1.4 0 2.5-0.2 3.5-0.6 0.9-0.4 1.7-1 2.3-1.9s1-2 1.2-3.3 0.4-3 0.4-4.9v-4.5c0-1.5-0.1-2.8-0.3-3.9s-0.6-2-1.2-2.7-1.3-1.2-2.3-1.6c-0.9-0.3-2.1-0.5-3.6-0.5h-0.4v23.9z"/>
				<path d="m235.3 77.7h7.7v21.1h9.1v-21.1h7.7v50.5h-7.8v-23.3h-9.1v23.3h-7.7v-50.5z"/>
				<path d="m267.1 77.7h7.7v50.5h-7.7z"/>
				<path d="m290.2 77.7h8.8l9.3 50.5h-7.7l-1.4-9h-9.2l-1.3 9h-7.8zm8.1 35.7-3.5-25.1h-0.3l-3.6 25.1z"/>
			</g>
			<polyline points="192.2 122.2 202.6 122.2 202.6 128.2 184.5 128.2" fill="#6e6e74" style="&#10;    fill: #fff;&#10;"/>
			<polyline points="82.4 122.2 92.8 122.2 92.8 128.2 74.7 128.2" fill="#6e6e74" style="&#10;    fill: #fff;&#10;"/>
		</g>
	</g>
</svg>