<svg xmlns="http://www.w3.org/2000/svg" id="icon-logo" viewBox="0 0 120 51" style="&#10;    fill: #fff;&#10;">
			<path d="M11.778 18.035h1.43c.091.657.335 1.165.791 1.463.457.299 1.035.448 1.705.448.334 0 .639-.03.943-.09.274-.06.548-.179.761-.298.213-.15.396-.299.517-.508.122-.209.183-.418.183-.687 0-.418-.122-.776-.365-1.015-.244-.239-.64-.448-1.157-.597l-1.978-.537c-.822-.21-1.46-.568-1.856-1.016-.396-.448-.609-1.045-.609-1.791 0-.358.091-.717.243-1.045.153-.329.396-.598.7-.836.305-.24.67-.418 1.096-.568.426-.149.883-.209 1.43-.209.487 0 .944.06 1.37.18.426.119.791.298 1.126.537.335.239.578.537.791.926.213.358.335.806.366 1.313h-1.43a2.258 2.258 0 0 0-.244-.836 1.752 1.752 0 0 0-.518-.537 2.611 2.611 0 0 0-.67-.269 3.378 3.378 0 0 0-.79-.09c-.64 0-1.157.12-1.522.389-.365.239-.548.597-.548 1.045 0 .477.122.806.396 1.045.274.239.67.418 1.247.567l1.613.448c.427.12.822.269 1.157.418.335.15.639.358.852.567.244.24.396.508.517.807.122.298.183.657.183 1.075 0 .448-.091.836-.304 1.194a2.921 2.921 0 0 1-.822.896 3.51 3.51 0 0 1-1.217.567c-.457.12-.944.21-1.461.21-.518 0-.974-.06-1.43-.18a3.49 3.49 0 0 1-1.218-.567 3.338 3.338 0 0 1-.882-.956 4.526 4.526 0 0 1-.396-1.463zM44.707 20.931l3.5-9.943h1.582l3.5 9.944H51.8l-.823-2.449H46.99l-.822 2.448h-1.461zm2.678-3.583h3.226l-1.582-4.807h-.061l-1.583 4.807zM78.306 16.065c0-.836.091-1.583.274-2.21.183-.657.426-1.194.791-1.672a3.423 3.423 0 0 1 1.309-1.045c.548-.239 1.156-.358 1.887-.358.517 0 .974.06 1.4.209.426.149.822.328 1.126.597.304.268.578.597.791.955.213.388.304.806.335 1.254h-1.4c-.06-.597-.304-1.045-.7-1.343-.396-.329-.944-.478-1.674-.478-.365 0-.73.06-1.035.18-.304.119-.578.298-.79.507a2.333 2.333 0 0 0-.518.776 2.587 2.587 0 0 0-.183.985v3.076c0 .358.061.687.213.955.122.299.304.568.548.777.243.209.517.388.822.507.334.12.67.18 1.034.18.792 0 1.4-.21 1.826-.628.427-.418.64-1.015.64-1.791v-.657h-2.313v-1.254h3.713v5.315h-1.34l-.06-1.045c-.244.388-.579.687-1.005.925-.395.24-.943.359-1.582.359a4.09 4.09 0 0 1-1.735-.358 3.256 3.256 0 0 1-1.278-1.016 5.021 5.021 0 0 1-.791-1.612c-.214-.627-.305-1.314-.305-2.09zM111.418 20.931l3.5-9.943h1.582l3.5 9.944h-1.491l-.822-2.449H113.7l-.821 2.448h-1.461zm2.648-3.583h3.226l-1.552-4.807h-.061l-1.613 4.807zM11.687 30.964c0-.806.091-1.552.244-2.18.182-.656.426-1.194.76-1.672A3.424 3.424 0 0 1 14 26.067c.517-.239 1.156-.358 1.856-.358.487 0 .944.06 1.37.209.426.15.791.329 1.126.597.304.269.578.597.76.956.183.388.305.806.336 1.254h-1.43c-.062-.597-.305-1.045-.7-1.344-.396-.328-.944-.478-1.583-.478-.365 0-.7.06-1.005.18-.304.119-.578.298-.79.507-.214.21-.396.478-.518.776a2.587 2.587 0 0 0-.183.986v3.075c0 .359.061.687.213.956.122.298.305.567.548.776.243.21.517.388.822.508.304.12.639.179 1.004.179.67 0 1.217-.15 1.643-.448.426-.299.67-.776.73-1.463h1.431c-.03.478-.152.896-.335 1.284a3.672 3.672 0 0 1-.79.985c-.336.269-.731.478-1.188.627-.456.15-.943.24-1.43.24-.67 0-1.278-.12-1.796-.36-.517-.238-.943-.596-1.308-1.044a5.025 5.025 0 0 1-.792-1.613c-.213-.627-.304-1.313-.304-2.09zM48.298 35.831v-9.943h1.43v9.943h-1.43zM29.369 0l-9.77 2.568-9.8 2.598L0 7.734l.396 1.343 9.769-2.568 9.8-2.597 9.769-2.568L29.368 0zM78.61 27.142v-1.254h7.457v1.254h-3.013v8.69h-1.43v-8.69H78.61zM111.631 25.888h1.552l2.526 4.628 2.587-4.628h1.491l-3.378 6.002v3.941h-1.43V31.86l-3.348-5.972zM11.778 47.835h1.43c.091.657.335 1.165.791 1.463.457.299 1.035.448 1.705.448.334 0 .639-.03.943-.09.274-.06.548-.179.761-.298.213-.15.396-.299.517-.508a1.29 1.29 0 0 0 .183-.687c0-.417-.122-.776-.365-1.015-.244-.239-.64-.448-1.157-.597l-1.978-.537c-.822-.21-1.46-.568-1.856-1.016-.396-.447-.609-1.045-.609-1.791 0-.358.091-.717.243-1.045.153-.329.396-.597.7-.836.305-.24.67-.418 1.096-.568.426-.149.883-.209 1.43-.209.487 0 .944.06 1.37.18.426.119.791.298 1.126.537.335.239.578.537.791.926.213.358.335.806.366 1.313h-1.43a2.258 2.258 0 0 0-.244-.836 1.751 1.751 0 0 0-.518-.537 2.612 2.612 0 0 0-.67-.269 3.378 3.378 0 0 0-.79-.09c-.64 0-1.157.12-1.522.389-.365.239-.548.597-.548 1.045 0 .478.122.806.396 1.045.274.239.67.418 1.247.567l1.613.448c.427.12.822.269 1.157.418.335.15.639.358.852.567.244.24.396.508.517.807.122.298.183.657.183 1.075 0 .447-.091.836-.304 1.194a2.921 2.921 0 0 1-.822.896c-.335.239-.73.448-1.217.567a5.74 5.74 0 0 1-1.461.21c-.518 0-.974-.06-1.43-.18a3.49 3.49 0 0 1-1.218-.567 3.341 3.341 0 0 1-.882-.956 4.526 4.526 0 0 1-.396-1.463zM37.434 50.731v-9.943h3.834c.609 0 1.096.06 1.492.18.395.119.7.298.973.567.244.268.426.597.548.985.122.388.152.836.152 1.284 0 .448-.06.896-.213 1.284a2.334 2.334 0 0 1-.639 1.045c-.548.537-1.339.806-2.313.806h-2.434v3.792h-1.4zm1.4-5.046h2.952c.334 0 .608-.12.821-.328.213-.21.305-.478.305-.807v-1.463c0-.328-.092-.597-.305-.806-.213-.209-.487-.298-.821-.298h-2.953v3.702zM61.628 50.731l3.5-9.943h1.583l3.5 9.943h-1.492l-.821-2.448H63.91l-.822 2.448h-1.46zm2.648-3.613h3.226l-1.582-4.807h-.061l-1.583 4.807zM86.95 45.834c0-.806.09-1.552.243-2.18.182-.656.426-1.194.76-1.672a3.424 3.424 0 0 1 1.31-1.045c.517-.238 1.156-.358 1.856-.358.487 0 .943.06 1.37.21.425.148.79.328 1.125.596.304.269.578.598.761.956.183.388.304.806.335 1.254h-1.43c-.061-.597-.305-1.045-.7-1.344-.396-.328-.944-.477-1.583-.477-.365 0-.7.06-1.004.179-.305.12-.579.298-.792.507-.213.21-.395.478-.517.777a2.587 2.587 0 0 0-.183.985v3.075c0 .359.061.687.213.956.122.299.305.567.548.776.244.21.517.388.822.508.304.12.639.18 1.004.18.67 0 1.218-.15 1.644-.449.426-.298.67-.776.73-1.463h1.43c-.03.478-.152.896-.334 1.284a3.673 3.673 0 0 1-.792.985c-.334.27-.73.478-1.187.628-.456.149-.943.238-1.43.238-.67 0-1.278-.12-1.796-.358-.517-.239-.943-.597-1.308-1.045a5.022 5.022 0 0 1-.791-1.612c-.214-.598-.305-1.314-.305-2.09zM112.331 50.731v-9.943h6.725v1.254h-5.295v3.016h4.626v1.254h-4.626v3.195h5.295v1.254h-6.725v-.03z"/>
		</svg>