<?xml version="1.0" encoding="UTF-8" standalone="no"?>
<!-- Generator: Adobe Illustrator 17.1.0, SVG Export Plug-In . SVG Version: 6.00 Build 0)  -->

<svg
   xmlns:dc="http://purl.org/dc/elements/1.1/"
   xmlns:cc="http://creativecommons.org/ns#"
   xmlns:rdf="http://www.w3.org/1999/02/22-rdf-syntax-ns#"
   xmlns:svg="http://www.w3.org/2000/svg"
   xmlns="http://www.w3.org/2000/svg"
   xmlns:sodipodi="http://sodipodi.sourceforge.net/DTD/sodipodi-0.dtd"
   xmlns:inkscape="http://www.inkscape.org/namespaces/inkscape"
   version="1.1"
   id="Слой_1"
   x="0px"
   y="0px"
   viewBox="0 0 229.49999 166.7"
   enable-background="new 0 0 841.9 595.3"
   xml:space="preserve"
   inkscape:version="0.91 r13725"
   sodipodi:docname="SF_logo_white.svg"
   width="229.5"
   height="166.7"><metadata
   id="metadata177"><rdf:RDF><cc:Work
       rdf:about=""><dc:format>image/svg+xml</dc:format><dc:type
         rdf:resource="http://purl.org/dc/dcmitype/StillImage" /><dc:title></dc:title></cc:Work></rdf:RDF></metadata><defs
   id="defs175" /><sodipodi:namedview
   pagecolor="#ffffff"
   bordercolor="#666666"
   borderopacity="1"
   objecttolerance="10"
   gridtolerance="10"
   guidetolerance="10"
   inkscape:pageopacity="0"
   inkscape:pageshadow="2"
   inkscape:window-width="1366"
   inkscape:window-height="705"
   id="namedview173"
   showgrid="false"
   fit-margin-top="0"
   fit-margin-left="0"
   fit-margin-right="0"
   fit-margin-bottom="0"
   inkscape:zoom="1.1212982"
   inkscape:cx="165.20206"
   inkscape:cy="-40.374543"
   inkscape:window-x="-8"
   inkscape:window-y="-8"
   inkscape:window-maximized="1"
   inkscape:current-layer="Слой_1" />
<g
   id="g3"
   transform="translate(-306.7,-214.8)"
   style="fill:#ffffff;fill-opacity:1">
	
	<g
   id="g25"
   style="fill:#ffffff;fill-opacity:1">
		<g
   id="g27"
   style="fill:#ffffff;fill-opacity:1">
			<path
   d="m 306.7,341.5 c 0,-0.2 0.1,-0.3 0.2,-0.4 0.1,-0.1 0.2,-0.1 0.4,-0.1 l 3.4,0 c 0.1,0 0.3,0 0.4,0.1 0.1,0.1 0.2,0.2 0.2,0.4 l 0,4.3 c 0,0.3 0.2,0.5 0.5,0.5 l 5,0 c 0.1,0 0.3,0 0.4,-0.1 0.1,-0.1 0.2,-0.2 0.2,-0.4 l 0,-6.8 c 0,-0.1 0,-0.3 -0.1,-0.5 -0.1,-0.2 -0.2,-0.3 -0.3,-0.4 l -9.6,-7.8 c -0.3,-0.2 -0.4,-0.5 -0.4,-0.8 l 0,-10.3 c 0,-0.1 0,-0.3 0.1,-0.5 0.1,-0.2 0.1,-0.3 0.3,-0.4 l 2.8,-3.2 c 0.1,-0.1 0.2,-0.2 0.4,-0.3 0.2,-0.1 0.3,-0.1 0.5,-0.1 l 7.1,0 c 0.3,0 0.6,0.1 0.9,0.4 l 2.6,3.2 c 0.1,0.1 0.2,0.3 0.2,0.4 0.1,0.2 0.1,0.3 0.1,0.5 l 0,4.2 c 0,0.1 0,0.3 -0.1,0.4 -0.1,0.1 -0.2,0.2 -0.4,0.2 l -3.3,0 c -0.1,0 -0.3,-0.1 -0.4,-0.2 -0.1,-0.1 -0.1,-0.2 -0.1,-0.4 l 0,-4.2 c 0,-0.1 -0.1,-0.3 -0.2,-0.4 -0.1,-0.1 -0.2,-0.1 -0.4,-0.1 l -5,0 c -0.3,0 -0.5,0.2 -0.5,0.5 l 0,8.4 c 0,0.1 0,0.3 0.1,0.5 0.1,0.2 0.2,0.3 0.3,0.4 l 9.6,7.8 c 0.1,0.1 0.2,0.2 0.3,0.4 0.1,0.2 0.1,0.3 0.1,0.5 l 0,8.7 c 0,0.1 0,0.3 -0.1,0.5 -0.1,0.2 -0.1,0.3 -0.2,0.4 l -2.6,3.2 c -0.1,0.1 -0.3,0.2 -0.4,0.3 -0.2,0.1 -0.3,0.1 -0.4,0.1 l -7.1,0 c -0.1,0 -0.3,0 -0.5,-0.1 -0.2,-0.1 -0.3,-0.2 -0.4,-0.3 l -2.8,-3.2 c -0.1,-0.1 -0.2,-0.3 -0.3,-0.4 -0.1,-0.2 -0.1,-0.3 -0.1,-0.5 l 0,-4.4 z"
   id="path29"
   inkscape:connector-curvature="0"
   style="fill:#ffffff;fill-opacity:1" />
			<path
   d="m 323.9,346.9 c 0,-0.1 0.1,-0.3 0.2,-0.4 0.1,-0.1 0.2,-0.2 0.4,-0.2 l 1,0 c 0.3,0 0.5,-0.2 0.6,-0.5 l 5.1,-26.6 c 0,-0.1 0,-0.3 -0.1,-0.4 -0.1,-0.1 -0.2,-0.1 -0.4,-0.1 l -0.4,0 c -0.1,0 -0.3,-0.1 -0.4,-0.2 -0.1,-0.1 -0.1,-0.2 -0.1,-0.4 l 0,-2.9 c 0,-0.1 0,-0.3 0.1,-0.4 0.1,-0.1 0.2,-0.2 0.4,-0.2 l 7.5,0 c 0.1,0 0.3,0.1 0.4,0.2 0.1,0.1 0.2,0.2 0.2,0.4 l 0,2.9 c 0,0.1 -0.1,0.3 -0.2,0.4 -0.1,0.1 -0.2,0.2 -0.4,0.2 l -0.3,0 c -0.3,0 -0.5,0.2 -0.4,0.5 l 5.1,26.6 c 0,0.1 0.1,0.3 0.2,0.4 0.1,0.1 0.2,0.1 0.4,0.1 l 0.9,0 c 0.1,0 0.3,0.1 0.4,0.2 0.1,0.1 0.1,0.2 0.1,0.4 l 0,2.9 c 0,0.1 0,0.3 -0.1,0.4 -0.1,0.1 -0.2,0.2 -0.4,0.2 l -6.9,0 c -0.1,0 -0.3,-0.1 -0.4,-0.2 -0.1,-0.1 -0.2,-0.2 -0.2,-0.4 l 0,-2.9 c 0,-0.1 0.1,-0.3 0.2,-0.4 0.1,-0.1 0.2,-0.2 0.4,-0.2 l 1.2,0 c 0.3,0 0.5,-0.2 0.4,-0.5 l -1.2,-5.9 c 0,-0.1 -0.1,-0.3 -0.2,-0.4 -0.1,-0.1 -0.2,-0.1 -0.4,-0.1 l -4.9,0 c -0.3,0 -0.5,0.2 -0.6,0.5 l -1.1,5.9 c 0,0.1 0,0.3 0.1,0.4 0.1,0.1 0.2,0.1 0.3,0.1 l 1.1,0 c 0.1,0 0.3,0.1 0.4,0.2 0.1,0.1 0.2,0.2 0.2,0.4 l 0,2.9 c 0,0.1 -0.1,0.3 -0.2,0.4 -0.1,0.1 -0.2,0.2 -0.4,0.2 l -7,0 c -0.1,0 -0.3,-0.1 -0.4,-0.2 -0.1,-0.1 -0.2,-0.2 -0.2,-0.4 l 0,-2.9 z m 8.1,-12 c 0,0.1 0,0.3 0.1,0.4 0.1,0.1 0.2,0.1 0.4,0.1 l 3.3,0 c 0.3,0 0.5,-0.2 0.4,-0.5 l -2,-10.4 c -0.1,-0.3 -0.1,-0.3 -0.2,0 l -2,10.4 z"
   id="path31"
   inkscape:connector-curvature="0"
   style="fill:#ffffff;fill-opacity:1" />
			<path
   d="m 352.7,314.8 c 0.1,0 0.3,0 0.4,0.1 0.1,0.1 0.2,0.2 0.3,0.4 l 6,19.7 c 0,0.1 0.1,0.2 0.1,0.2 0,0 0,-0.1 0,-0.2 l 0,-15.7 c 0,-0.1 -0.1,-0.3 -0.2,-0.4 -0.1,-0.1 -0.2,-0.1 -0.4,-0.1 l -1.4,0 c -0.1,0 -0.3,-0.1 -0.4,-0.2 -0.1,-0.1 -0.2,-0.2 -0.2,-0.4 l 0,-2.9 c 0,-0.1 0.1,-0.3 0.2,-0.4 0.1,-0.1 0.2,-0.2 0.4,-0.2 l 7.8,0 c 0.1,0 0.3,0.1 0.4,0.2 0.1,0.1 0.2,0.2 0.2,0.4 l 0,2.9 c 0,0.1 -0.1,0.3 -0.2,0.4 -0.1,0.1 -0.2,0.2 -0.4,0.2 l -1,0 c -0.3,0 -0.5,0.2 -0.5,0.5 l 0,30.5 c 0,0.1 -0.1,0.3 -0.2,0.4 -0.1,0.1 -0.2,0.2 -0.4,0.2 l -3.2,0 c -0.1,0 -0.3,0 -0.4,-0.1 -0.1,-0.1 -0.2,-0.2 -0.3,-0.4 l -6.7,-22 c 0,-0.1 -0.1,-0.2 -0.1,-0.2 0,0 0,0.1 0,0.2 l 0,17.9 c 0,0.3 0.2,0.5 0.5,0.5 l 1,0 c 0.1,0 0.3,0.1 0.4,0.2 0.1,0.1 0.2,0.2 0.2,0.4 l 0,2.9 c 0,0.1 -0.1,0.3 -0.2,0.4 -0.1,0.1 -0.2,0.2 -0.4,0.2 l -7.5,0 c -0.1,0 -0.3,-0.1 -0.4,-0.2 -0.1,-0.1 -0.2,-0.2 -0.2,-0.4 l 0,-2.9 c 0,-0.1 0.1,-0.3 0.2,-0.4 0.1,-0.1 0.2,-0.2 0.4,-0.2 l 1,0 c 0.1,0 0.3,0 0.4,-0.1 0.1,-0.1 0.2,-0.2 0.2,-0.4 l 0,-26.6 c 0,-0.1 -0.1,-0.3 -0.2,-0.4 -0.1,-0.1 -0.2,-0.1 -0.4,-0.1 l -1,0 c -0.1,0 -0.3,-0.1 -0.4,-0.2 -0.1,-0.1 -0.2,-0.2 -0.2,-0.4 l 0,-2.9 c 0,-0.1 0.1,-0.3 0.2,-0.4 0.1,-0.1 0.2,-0.2 0.4,-0.2 l 6.2,0 z"
   id="path33"
   inkscape:connector-curvature="0"
   style="fill:#ffffff;fill-opacity:1" />
			<path
   d="m 385.7,334.5 c 0,-0.1 -0.1,-0.3 -0.2,-0.4 -0.1,-0.1 -0.2,-0.2 -0.4,-0.2 l -1.7,0 c -0.1,0 -0.3,0.1 -0.4,0.2 -0.1,0.1 -0.1,0.2 -0.1,0.4 l 0,11.3 c 0,0.3 0.2,0.5 0.5,0.5 l 1.4,0 c 0.1,0 0.3,0.1 0.3,0.2 0.1,0.1 0.1,0.2 0.1,0.4 l 0,2.9 c 0,0.1 0,0.3 -0.1,0.4 -0.1,0.1 -0.2,0.2 -0.4,0.2 l -7.7,0 c -0.1,0 -0.3,-0.1 -0.4,-0.2 -0.1,-0.1 -0.2,-0.2 -0.2,-0.4 l 0,-2.9 c 0,-0.1 0.1,-0.3 0.2,-0.4 0.1,-0.1 0.2,-0.2 0.4,-0.2 l 1,0 c 0.1,0 0.3,0 0.4,-0.1 0.1,-0.1 0.2,-0.2 0.2,-0.4 l 0,-26.6 c 0,-0.1 -0.1,-0.3 -0.2,-0.4 -0.1,-0.1 -0.2,-0.1 -0.4,-0.1 l -1,0 c -0.1,0 -0.3,-0.1 -0.4,-0.2 -0.1,-0.1 -0.2,-0.2 -0.2,-0.4 l 0,-2.9 c 0,-0.1 0.1,-0.3 0.2,-0.4 0.1,-0.1 0.2,-0.2 0.4,-0.2 l 14,0 c 0.1,0 0.3,0.1 0.4,0.2 0.1,0.1 0.1,0.2 0.1,0.4 l 0,8.1 c 0,0.1 0,0.3 -0.1,0.4 -0.1,0.1 -0.2,0.2 -0.4,0.2 l -2.9,0 c -0.1,0 -0.3,-0.1 -0.4,-0.2 -0.1,-0.1 -0.1,-0.2 -0.1,-0.4 l 0,-4.2 c 0,-0.1 -0.1,-0.3 -0.2,-0.4 -0.1,-0.1 -0.2,-0.1 -0.4,-0.1 l -3.6,0 c -0.3,0 -0.5,0.2 -0.5,0.5 l 0,10.2 c 0,0.1 0,0.3 0.1,0.4 0.1,0.1 0.2,0.2 0.4,0.2 l 1.7,0 c 0.1,0 0.3,-0.1 0.4,-0.2 0.1,-0.1 0.2,-0.2 0.2,-0.4 l 0,-1.6 c 0,-0.3 0.2,-0.5 0.5,-0.5 l 3.2,0 c 0.1,0 0.3,0 0.4,0.1 0.1,0.1 0.2,0.2 0.2,0.4 l 0,8 c 0,0.1 -0.1,0.3 -0.2,0.4 -0.1,0.1 -0.2,0.2 -0.4,0.2 l -3.2,0 c -0.1,0 -0.3,-0.1 -0.4,-0.2 -0.1,-0.1 -0.1,-0.2 -0.1,-0.4 l 0,-1.2 z"
   id="path35"
   inkscape:connector-curvature="0"
   style="fill:#ffffff;fill-opacity:1" />
			<path
   d="m 395.2,346.3 c 0.1,0 0.3,0 0.4,-0.1 0.1,-0.1 0.2,-0.2 0.2,-0.4 l 0,-26.6 c 0,-0.1 -0.1,-0.3 -0.2,-0.4 -0.1,-0.1 -0.2,-0.1 -0.4,-0.1 l -1,0 c -0.1,0 -0.3,-0.1 -0.4,-0.2 -0.1,-0.1 -0.2,-0.2 -0.2,-0.4 l 0,-2.9 c 0,-0.1 0.1,-0.3 0.2,-0.4 0.1,-0.1 0.2,-0.2 0.4,-0.2 l 10.7,0 c 0.1,0 0.3,0 0.5,0.1 0.2,0.1 0.3,0.2 0.4,0.3 l 2.7,3.2 c 0.1,0.1 0.2,0.3 0.2,0.4 0.1,0.2 0.1,0.3 0.1,0.5 l 0,12.5 c 0,0.1 0,0.3 -0.1,0.5 -0.1,0.2 -0.1,0.3 -0.2,0.5 l -2.1,2.7 c -0.2,0.3 -0.2,0.6 -0.1,0.9 l 4.9,9.6 c 0.2,0.3 0.4,0.5 0.7,0.5 l 0.9,0 c 0.1,0 0.3,0.1 0.4,0.2 0.1,0.1 0.2,0.2 0.2,0.4 l 0,2.9 c 0,0.1 -0.1,0.3 -0.2,0.4 -0.1,0.1 -0.2,0.2 -0.4,0.2 l -7.7,0 c -0.1,0 -0.3,-0.1 -0.4,-0.2 -0.1,-0.1 -0.1,-0.2 -0.1,-0.4 l 0,-2.9 c 0,-0.1 0,-0.3 0.1,-0.4 0.1,-0.1 0.2,-0.2 0.4,-0.2 l 1,0 c 0.1,0 0.2,0 0.3,-0.1 0,-0.1 0,-0.2 0,-0.3 l -4.7,-9.1 c 0,-0.1 -0.1,-0.2 -0.3,-0.3 -0.2,-0.1 -0.3,-0.1 -0.4,-0.1 l -0.4,0 c -0.3,0 -0.5,0.2 -0.5,0.5 l 0,9 c 0,0.3 0.2,0.5 0.5,0.5 l 1.4,0 c 0.1,0 0.3,0.1 0.4,0.2 0.1,0.1 0.1,0.2 0.1,0.4 l 0,2.9 c 0,0.1 0,0.3 -0.1,0.4 -0.1,0.1 -0.2,0.2 -0.4,0.2 l -7.8,0 c -0.1,0 -0.3,-0.1 -0.4,-0.2 -0.1,-0.1 -0.2,-0.2 -0.2,-0.4 l 0,-2.9 c 0,-0.1 0.1,-0.3 0.2,-0.4 0.1,-0.1 0.2,-0.2 0.4,-0.2 l 1,0 z m 5.5,-27.5 c -0.3,0 -0.5,0.2 -0.5,0.5 l 0,12.5 c 0,0.1 0,0.3 0.1,0.4 0.1,0.1 0.2,0.2 0.4,0.2 l 3.2,0 c 0.1,0 0.3,-0.1 0.4,-0.2 0.1,-0.1 0.2,-0.2 0.2,-0.4 l 0,-10 c 0,-0.1 0,-0.3 -0.1,-0.5 -0.1,-0.2 -0.1,-0.3 -0.2,-0.5 l -0.9,-1.6 c -0.1,-0.1 -0.2,-0.2 -0.3,-0.3 -0.2,-0.1 -0.3,-0.1 -0.4,-0.1 l -1.9,0 z"
   id="path37"
   inkscape:connector-curvature="0"
   style="fill:#ffffff;fill-opacity:1" />
			<path
   d="m 415.3,346.9 c 0,-0.1 0.1,-0.3 0.2,-0.4 0.1,-0.1 0.2,-0.2 0.4,-0.2 l 1,0 c 0.3,0 0.5,-0.2 0.6,-0.5 l 5.1,-26.6 c 0,-0.1 0,-0.3 -0.1,-0.4 -0.1,-0.1 -0.2,-0.1 -0.4,-0.1 l -0.4,0 c -0.1,0 -0.3,-0.1 -0.4,-0.2 -0.1,-0.1 -0.1,-0.2 -0.1,-0.4 l 0,-2.9 c 0,-0.1 0,-0.3 0.1,-0.4 0.1,-0.1 0.2,-0.2 0.4,-0.2 l 7.5,0 c 0.1,0 0.3,0.1 0.4,0.2 0.1,0.1 0.2,0.2 0.2,0.4 l 0,2.9 c 0,0.1 -0.1,0.3 -0.2,0.4 -0.1,0.1 -0.2,0.2 -0.4,0.2 l -0.2,0 c -0.3,0 -0.5,0.2 -0.4,0.5 l 5.1,26.6 c 0,0.1 0.1,0.3 0.2,0.4 0.1,0.1 0.2,0.1 0.4,0.1 l 0.9,0 c 0.1,0 0.3,0.1 0.4,0.2 0.1,0.1 0.1,0.2 0.1,0.4 l 0,2.9 c 0,0.1 0,0.3 -0.1,0.4 -0.1,0.1 -0.2,0.2 -0.4,0.2 l -6.9,0 c -0.1,0 -0.3,-0.1 -0.4,-0.2 -0.1,-0.1 -0.2,-0.2 -0.2,-0.4 l 0,-2.9 c 0,-0.1 0.1,-0.3 0.2,-0.4 0.1,-0.1 0.2,-0.2 0.4,-0.2 l 1.2,0 c 0.3,0 0.5,-0.2 0.4,-0.5 l -1.2,-5.9 c 0,-0.1 -0.1,-0.3 -0.2,-0.4 -0.1,-0.1 -0.2,-0.1 -0.4,-0.1 l -4.9,0 c -0.3,0 -0.5,0.2 -0.6,0.5 l -1.1,5.9 c 0,0.1 0,0.3 0.1,0.4 0.1,0.1 0.2,0.1 0.3,0.1 l 1.1,0 c 0.1,0 0.3,0.1 0.4,0.2 0.1,0.1 0.2,0.2 0.2,0.4 l 0,2.9 c 0,0.1 -0.1,0.3 -0.2,0.4 -0.1,0.1 -0.2,0.2 -0.4,0.2 l -7,0 c -0.1,0 -0.3,-0.1 -0.4,-0.2 -0.1,-0.1 -0.2,-0.2 -0.2,-0.4 l 0,-2.9 z m 8.2,-12 c 0,0.1 0,0.3 0.1,0.4 0.1,0.1 0.2,0.1 0.4,0.1 l 3.3,0 c 0.3,0 0.5,-0.2 0.4,-0.5 l -2,-10.4 c -0.1,-0.3 -0.1,-0.3 -0.2,0 l -2,10.4 z"
   id="path39"
   inkscape:connector-curvature="0"
   style="fill:#ffffff;fill-opacity:1" />
			<path
   d="m 444.1,314.8 c 0.1,0 0.3,0 0.4,0.1 0.1,0.1 0.2,0.2 0.3,0.4 l 6,19.7 c 0,0.1 0.1,0.2 0.1,0.2 0,0 0,-0.1 0,-0.2 l 0,-15.7 c 0,-0.1 -0.1,-0.3 -0.2,-0.4 -0.1,-0.1 -0.2,-0.1 -0.4,-0.1 l -1.3,0 c -0.1,0 -0.3,-0.1 -0.4,-0.2 -0.1,-0.1 -0.2,-0.2 -0.2,-0.4 l 0,-2.9 c 0,-0.1 0.1,-0.3 0.2,-0.4 0.1,-0.1 0.2,-0.2 0.4,-0.2 l 7.8,0 c 0.1,0 0.3,0.1 0.4,0.2 0.1,0.1 0.2,0.2 0.2,0.4 l 0,2.9 c 0,0.1 -0.1,0.3 -0.2,0.4 -0.1,0.1 -0.2,0.2 -0.4,0.2 l -1,0 c -0.3,0 -0.5,0.2 -0.5,0.5 l 0,30.5 c 0,0.1 -0.1,0.3 -0.2,0.4 -0.1,0.1 -0.2,0.2 -0.4,0.2 l -3.4,0 c -0.1,0 -0.3,0 -0.4,-0.1 -0.1,-0.1 -0.2,-0.2 -0.3,-0.4 l -6.7,-22 c 0,-0.1 -0.1,-0.2 -0.1,-0.2 0,0 0,0.1 0,0.2 l 0,17.9 c 0,0.3 0.2,0.5 0.5,0.5 l 1,0 c 0.1,0 0.3,0.1 0.4,0.2 0.1,0.1 0.2,0.2 0.2,0.4 l 0,2.9 c 0,0.1 -0.1,0.3 -0.2,0.4 -0.1,0.1 -0.2,0.2 -0.4,0.2 l -7.3,0 c -0.1,0 -0.3,-0.1 -0.4,-0.2 -0.1,-0.1 -0.2,-0.2 -0.2,-0.4 l 0,-2.9 c 0,-0.1 0.1,-0.3 0.2,-0.4 0.1,-0.1 0.2,-0.2 0.4,-0.2 l 1,0 c 0.1,0 0.3,0 0.4,-0.1 0.1,-0.1 0.2,-0.2 0.2,-0.4 l 0,-26.6 c 0,-0.1 -0.1,-0.3 -0.2,-0.4 -0.1,-0.1 -0.2,-0.1 -0.4,-0.1 l -1,0 c -0.1,0 -0.3,-0.1 -0.4,-0.2 -0.1,-0.1 -0.2,-0.2 -0.2,-0.4 l 0,-2.9 c 0,-0.1 0.1,-0.3 0.2,-0.4 0.1,-0.1 0.2,-0.2 0.4,-0.2 l 6.1,0 z"
   id="path41"
   inkscape:connector-curvature="0"
   style="fill:#ffffff;fill-opacity:1" />
			<path
   d="m 464,350.3 c -0.1,0 -0.3,0 -0.5,-0.1 -0.2,-0.1 -0.3,-0.2 -0.4,-0.3 l -2.7,-3.2 c -0.1,-0.1 -0.2,-0.3 -0.3,-0.4 -0.1,-0.2 -0.1,-0.3 -0.1,-0.5 l 0,-26.6 c 0,-0.1 0,-0.3 0.1,-0.5 0.1,-0.2 0.1,-0.3 0.3,-0.4 l 2.7,-3.2 c 0.1,-0.1 0.2,-0.2 0.4,-0.3 0.2,-0.1 0.3,-0.1 0.5,-0.1 l 6.8,0 c 0.1,0 0.3,0 0.5,0.1 0.2,0.1 0.3,0.2 0.4,0.3 l 2.6,3.2 c 0.1,0.1 0.2,0.3 0.2,0.4 0.1,0.2 0.1,0.3 0.1,0.5 l 0,4.2 c 0,0.1 -0.1,0.3 -0.2,0.4 -0.1,0.1 -0.2,0.2 -0.4,0.2 l -3.4,0 c -0.1,0 -0.3,-0.1 -0.4,-0.2 -0.1,-0.1 -0.2,-0.2 -0.2,-0.4 l 0,-4.2 c 0,-0.1 -0.1,-0.3 -0.2,-0.4 -0.1,-0.1 -0.2,-0.1 -0.4,-0.1 l -4.4,0 c -0.3,0 -0.5,0.2 -0.5,0.5 l 0,26.6 c 0,0.3 0.2,0.5 0.5,0.5 l 4.6,0 c 0.1,0 0.3,0 0.4,-0.1 0.1,-0.1 0.2,-0.2 0.2,-0.4 l 0,-4.3 c 0,-0.2 0.1,-0.3 0.2,-0.4 0.1,-0.1 0.2,-0.1 0.4,-0.1 l 3.4,0 c 0.1,0 0.3,0 0.4,0.1 0.1,0.1 0.2,0.2 0.2,0.4 l 0,4.3 c 0,0.1 0,0.3 -0.1,0.5 -0.1,0.2 -0.2,0.3 -0.2,0.4 l -2.6,3.2 c -0.1,0.1 -0.2,0.2 -0.4,0.3 -0.2,0.1 -0.3,0.1 -0.5,0.1 l -7,0 z"
   id="path43"
   inkscape:connector-curvature="0"
   style="fill:#ffffff;fill-opacity:1" />
			<path
   d="m 476.5,346.9 c 0,-0.1 0.1,-0.3 0.2,-0.4 0.1,-0.1 0.2,-0.2 0.4,-0.2 l 1,0 c 0.1,0 0.3,0 0.4,-0.1 0.1,-0.1 0.2,-0.2 0.2,-0.4 l 0,-26.6 c 0,-0.1 -0.1,-0.3 -0.2,-0.4 -0.1,-0.1 -0.2,-0.1 -0.4,-0.1 l -1,0 c -0.1,0 -0.3,-0.1 -0.4,-0.2 -0.1,-0.1 -0.2,-0.2 -0.2,-0.4 l 0,-2.9 c 0,-0.1 0.1,-0.3 0.2,-0.4 0.1,-0.1 0.2,-0.2 0.4,-0.2 l 7.5,0 c 0.1,0 0.3,0.1 0.4,0.2 0.1,0.1 0.2,0.2 0.2,0.4 l 0,2.9 c 0,0.1 -0.1,0.3 -0.2,0.4 -0.1,0.1 -0.2,0.2 -0.4,0.2 l -1,0 c -0.3,0 -0.5,0.2 -0.5,0.5 l 0,26.6 c 0,0.3 0.2,0.5 0.5,0.5 l 1,0 c 0.1,0 0.3,0.1 0.4,0.2 0.1,0.1 0.2,0.2 0.2,0.4 l 0,2.9 c 0,0.1 -0.1,0.3 -0.2,0.4 -0.1,0.1 -0.2,0.2 -0.4,0.2 l -7.6,0 c -0.1,0 -0.3,-0.1 -0.4,-0.2 -0.1,-0.1 -0.2,-0.2 -0.2,-0.4 l 0,-2.9 z"
   id="path45"
   inkscape:connector-curvature="0"
   style="fill:#ffffff;fill-opacity:1" />
			<path
   d="m 487.6,341.5 c 0,-0.2 0.1,-0.3 0.2,-0.4 0.1,-0.1 0.2,-0.1 0.4,-0.1 l 3.4,0 c 0.1,0 0.3,0 0.4,0.1 0.1,0.1 0.2,0.2 0.2,0.4 l 0,4.3 c 0,0.3 0.2,0.5 0.5,0.5 l 5,0 c 0.1,0 0.3,0 0.4,-0.1 0.1,-0.1 0.2,-0.2 0.2,-0.4 l 0,-6.8 c 0,-0.1 0,-0.3 -0.1,-0.5 -0.1,-0.2 -0.2,-0.3 -0.3,-0.4 l -9.6,-7.8 c -0.3,-0.2 -0.4,-0.5 -0.4,-0.8 l 0,-10.3 c 0,-0.1 0,-0.3 0.1,-0.5 0.1,-0.2 0.1,-0.3 0.3,-0.4 l 2.8,-3.2 c 0.1,-0.1 0.2,-0.2 0.4,-0.3 0.2,-0.1 0.3,-0.1 0.5,-0.1 l 7.1,0 c 0.3,0 0.6,0.1 0.9,0.4 l 2.6,3.2 c 0.1,0.1 0.2,0.3 0.2,0.4 0.1,0.2 0.1,0.3 0.1,0.5 l 0,4.2 c 0,0.1 0,0.3 -0.1,0.4 -0.1,0.1 -0.2,0.2 -0.4,0.2 l -3.3,0 c -0.1,0 -0.3,-0.1 -0.4,-0.2 -0.1,-0.1 -0.1,-0.2 -0.1,-0.4 l 0,-4.2 c 0,-0.1 -0.1,-0.3 -0.2,-0.4 -0.1,-0.1 -0.2,-0.1 -0.4,-0.1 l -5,0 c -0.3,0 -0.5,0.2 -0.5,0.5 l 0,8.4 c 0,0.1 0,0.3 0.1,0.5 0.1,0.2 0.2,0.3 0.3,0.4 l 9.6,7.8 c 0.1,0.1 0.2,0.2 0.3,0.4 0.1,0.2 0.1,0.3 0.1,0.5 l 0,8.7 c 0,0.1 0,0.3 -0.1,0.5 -0.1,0.2 -0.1,0.3 -0.2,0.4 L 500,350 c -0.1,0.1 -0.3,0.2 -0.4,0.3 -0.2,0.1 -0.3,0.1 -0.4,0.1 l -7.1,0 c -0.1,0 -0.3,0 -0.5,-0.1 -0.2,-0.1 -0.3,-0.2 -0.4,-0.3 l -2.8,-3.2 c -0.1,-0.1 -0.2,-0.3 -0.3,-0.4 -0.1,-0.2 -0.1,-0.3 -0.1,-0.5 l 0,-4.4 z"
   id="path47"
   inkscape:connector-curvature="0"
   style="fill:#ffffff;fill-opacity:1" />
			<path
   d="m 508.8,350.3 c -0.1,0 -0.3,0 -0.5,-0.1 -0.2,-0.1 -0.3,-0.2 -0.4,-0.3 l -2.7,-3.2 c -0.1,-0.1 -0.2,-0.3 -0.3,-0.4 -0.1,-0.2 -0.1,-0.3 -0.1,-0.5 l 0,-26.6 c 0,-0.1 0,-0.3 0.1,-0.5 0.1,-0.2 0.1,-0.3 0.3,-0.4 l 2.7,-3.2 c 0.1,-0.1 0.2,-0.2 0.4,-0.3 0.2,-0.1 0.3,-0.1 0.5,-0.1 l 6.8,0 c 0.1,0 0.3,0 0.5,0.1 0.2,0.1 0.3,0.2 0.4,0.3 l 2.6,3.2 c 0.1,0.1 0.2,0.3 0.2,0.4 0.1,0.2 0.1,0.3 0.1,0.5 l 0,4.2 c 0,0.1 -0.1,0.3 -0.2,0.4 -0.1,0.1 -0.2,0.2 -0.4,0.2 l -3.4,0 c -0.1,0 -0.3,-0.1 -0.4,-0.2 -0.1,-0.1 -0.2,-0.2 -0.2,-0.4 l 0,-4.2 c 0,-0.1 -0.1,-0.3 -0.2,-0.4 -0.1,-0.1 -0.2,-0.1 -0.4,-0.1 l -4.6,0 c -0.3,0 -0.5,0.2 -0.5,0.5 l 0,26.6 c 0,0.3 0.2,0.5 0.5,0.5 l 4.6,0 c 0.1,0 0.3,0 0.4,-0.1 0.1,-0.1 0.2,-0.2 0.2,-0.4 l 0,-4.3 c 0,-0.2 0.1,-0.3 0.2,-0.4 0.1,-0.1 0.2,-0.1 0.4,-0.1 l 3.4,0 c 0.1,0 0.3,0 0.4,0.1 0.1,0.1 0.2,0.2 0.2,0.4 l 0,4.3 c 0,0.1 0,0.3 -0.1,0.5 -0.1,0.2 -0.2,0.3 -0.2,0.4 l -2.6,3.2 c -0.1,0.1 -0.2,0.2 -0.4,0.3 -0.2,0.1 -0.3,0.1 -0.5,0.1 l -6.8,0 z"
   id="path49"
   inkscape:connector-curvature="0"
   style="fill:#ffffff;fill-opacity:1" />
		</g>
		<g
   id="g51"
   style="fill:#ffffff;fill-opacity:1">
			<line
   x1="531.79999"
   y1="329"
   x2="531.79999"
   y2="328.89999"
   id="line53"
   style="fill:#ffffff;fill-opacity:1" />
			<path
   d="m 524.9,315 c -0.2,0.1 -0.3,0.2 -0.4,0.3 l -2.7,3.2 c -0.1,0.1 -0.2,0.3 -0.3,0.4 -0.1,0.2 -0.1,0.3 -0.1,0.5 l 0,9.6 0,0 0,3.7 0,3.7 0,0 0,9.6 c 0,0.1 0,0.3 0.1,0.5 0.1,0.2 0.1,0.3 0.3,0.4 l 2.7,3.2 c 0.1,0.1 0.2,0.2 0.4,0.3 0.2,0.1 0.3,0.1 0.5,0.1 l 7.1,0 c 0.1,0 0.3,0 0.4,-0.1 0.2,-0.1 0.3,-0.2 0.4,-0.3 l 2.6,-3.2 c 0.1,-0.1 0.2,-0.3 0.2,-0.4 0.1,-0.2 0.1,-0.3 0.1,-0.5 l 0,-13.3 0,-13.3 c 0,-0.1 0,-0.3 -0.1,-0.5 -0.1,-0.2 -0.1,-0.3 -0.2,-0.4 l -2.6,-3.2 c -0.1,-0.1 -0.3,-0.2 -0.4,-0.3 -0.2,-0.1 -0.3,-0.1 -0.4,-0.1 l -7.1,0 c -0.2,0 -0.4,0 -0.5,0.1 z m 0.9,21.4 0,-3.7 0,-3.7 m 0,0 0,-9.6 c 0,-0.3 0.2,-0.5 0.5,-0.5 l 4.9,0 c 0.3,0 0.5,0.2 0.5,0.5 l 0,9.6 0,0 0,3.7 0,3.7 0,0 0,9.6 c 0,0.3 -0.2,0.5 -0.5,0.5 l -4.9,0 c -0.3,0 -0.5,-0.2 -0.5,-0.5 l 0,-9.6"
   id="path55"
   inkscape:connector-curvature="0"
   style="fill:#ffffff;fill-opacity:1" />
			<line
   x1="531.79999"
   y1="336.5"
   x2="531.79999"
   y2="336.39999"
   id="line57"
   style="fill:#ffffff;fill-opacity:1" />
		</g>
	</g>
	<g
   id="g59"
   style="fill:#ffffff;fill-opacity:1">
		<g
   id="g61"
   style="fill:#ffffff;fill-opacity:1">
			<g
   id="g63"
   style="fill:#ffffff;fill-opacity:1">
				<path
   d="m 397.1,256.5 c -0.4,-1.2 -1.8,-1.9 -3,-1.4 -0.6,0.2 -1.1,0.6 -1.3,1.2 l -0.6,-0.3 c 0.3,-0.7 1,-1.3 1.7,-1.5 1.1,-0.4 2.3,-0.1 3.1,0.7 0.2,-1.1 0.9,-2 2,-2.4 0.8,-0.3 1.6,-0.2 2.3,0.1 l -0.3,0.6 c -0.6,-0.3 -1.2,-0.3 -1.8,-0.1 -1.2,0.4 -1.9,1.8 -1.4,3 l -0.7,0.1 z"
   id="path65"
   inkscape:connector-curvature="0"
   style="fill:#ffffff;fill-opacity:1" />
			</g>
			<g
   id="g67"
   style="fill:#ffffff;fill-opacity:1">
				<path
   d="m 402.4,256.5 c -0.1,-0.6 -0.7,-1.1 -1.3,-1 -0.3,0 -0.6,0.2 -0.8,0.4 l -0.5,-0.4 c 0.3,-0.4 0.7,-0.6 1.2,-0.7 0.6,-0.1 1.2,0.2 1.6,0.6 0.3,-0.5 0.8,-0.9 1.4,-1 0.5,-0.1 1,0.1 1.3,0.4 l -0.4,0.5 c -0.2,-0.2 -0.6,-0.3 -0.9,-0.2 -0.6,0.1 -1.1,0.7 -1,1.3 l -0.6,0.1 z"
   id="path69"
   inkscape:connector-curvature="0"
   style="fill:#ffffff;fill-opacity:1" />
			</g>
		</g>
		<path
   d="m 429.2,267.8 c 3,-0.2 5.7,1.6 6.5,4.5 l 0.1,0.4 0.3,-0.2 c 1.1,-0.5 2.5,-0.5 3.5,0.2 l 0.3,0.2 0.2,-0.2 c 0.9,-1.2 2.2,-2 3.7,-2.1 0.4,0 0.8,0 1.2,0 1.1,0.2 2.2,0.7 2.9,1.6 l 0.3,0.3 0.2,-0.3 c 1.1,-1.5 2.7,-2.4 4.5,-2.5 0.5,0 1,0 1.5,0.1 0.4,0.1 0.9,0.2 1.3,0.4 l 0.4,0.2 0.1,-0.5 c 0.3,-1.9 1.7,-3.5 3.4,-4 0,-0.2 0,-0.4 0,-0.7 -2,0.6 -3.6,2.2 -4,4.3 -0.4,-0.1 -0.7,-0.2 -1.1,-0.3 -0.5,-0.1 -1.1,-0.1 -1.6,-0.1 -1.9,0.2 -3.6,1.1 -4.7,2.5 -0.8,-0.8 -1.9,-1.3 -3,-1.5 -0.4,-0.1 -0.9,-0.1 -1.3,0 -1.6,0.1 -3,0.9 -4,2.1 -1.1,-0.6 -2.4,-0.7 -3.5,-0.2 -1,-3 -3.9,-4.9 -7.1,-4.6 -0.1,0 -0.2,0 -0.3,0 0,0.2 0.1,0.4 0.1,0.6 0,-0.2 0,-0.2 0.1,-0.2 z"
   id="path71"
   inkscape:connector-curvature="0"
   style="fill:#ffffff;fill-opacity:1" />
		<path
   d="m 419.1,266.9 c -2.6,1.4 -3.9,4.5 -3.1,7.3 l 0.1,0.4 -0.4,0 c -1.2,0.2 -2.3,0.9 -2.9,2 l -0.1,0.3 -0.3,-0.1 c -1.4,-0.6 -2.9,-0.5 -4.2,0.2 -0.4,0.2 -0.7,0.4 -1,0.7 -0.9,0.8 -1.4,1.8 -1.6,2.9 l -0.1,0.4 -0.4,-0.1 c -1.7,-0.7 -3.6,-0.5 -5.2,0.3 -0.4,0.2 -0.8,0.5 -1.2,0.8 -0.3,0.3 -0.6,0.6 -0.9,1 l -0.2,0.3 -0.3,-0.4 c -1.3,-1.5 -3.3,-2 -5.1,-1.5 -0.1,-0.2 -0.2,-0.4 -0.4,-0.6 2,-0.6 4.2,-0.1 5.7,1.5 0.2,-0.3 0.5,-0.6 0.8,-0.8 0.4,-0.4 0.9,-0.7 1.3,-0.9 1.6,-0.9 3.6,-1 5.3,-0.4 0.3,-1.1 0.9,-2.1 1.8,-2.9 0.3,-0.3 0.7,-0.6 1.1,-0.8 1.4,-0.7 3,-0.9 4.5,-0.3 0.6,-1.1 1.6,-1.8 2.8,-2.1 -0.7,-3 0.7,-6.2 3.5,-7.7 0.1,0 0.2,-0.1 0.2,-0.1 0.1,0.2 0.2,0.4 0.3,0.6 0.1,0 0.1,0 0,0 z"
   id="path73"
   inkscape:connector-curvature="0"
   style="fill:#ffffff;fill-opacity:1" />
		<polygon
   points="416.6,235.4 419.4,235.2 418.2,236.5 418.2,247.8 415.1,247.8 415.1,235.8 "
   id="polygon75"
   style="fill:#ffffff;fill-opacity:1" />
		<polygon
   points="415.6,266.3 415.1,264.5 415.1,252.8 418,252.4 424.6,252.6 419.9,252.6 418.7,253.7 418.7,265.4 420.6,266.3 "
   id="polygon77"
   style="fill:#ffffff;fill-opacity:1" />
		<polygon
   points="414.4,287.6 415.1,273.4 416.7,272.2 420.7,272.5 419.2,273.5 419.2,288.9 421.5,289.1 416.1,290.2 "
   id="polygon79"
   style="fill:#ffffff;fill-opacity:1" />
		<path
   d="m 461.2,261.2 c -1.8,-1.7 -3.6,-3.4 -5,-4.8 -5.6,-5.6 -28.3,-30.3 -28.3,-30.3 l -0.6,2.4 0.6,13.6 0,45.5 1.5,4.6 3.2,0 0,-3.8 -0.6,0 0,-22.9 -0.5,0 0,-19.7 -0.5,0 0,-13.8 c 0,0 19.8,20.9 23.7,25 1.2,1.3 3.4,3.4 5.7,5.6 0.3,-0.4 0.5,-0.9 0.8,-1.4 z"
   id="path81"
   inkscape:connector-curvature="0"
   style="fill:#ffffff;fill-opacity:1" />
		<path
   d="m 458.4,268.1 c -3.6,-2.8 -7,-5.5 -8.4,-6.8 -3.6,-3.2 -17.8,-16.5 -17.8,-16.5 l 0,1.8 c 0,0 12.8,11.8 17,15.5 1.7,1.6 5.4,4.4 9,7.3 0,-0.5 0.1,-0.9 0.2,-1.3 z"
   id="path83"
   inkscape:connector-curvature="0"
   style="fill:#ffffff;fill-opacity:1" />
		<polygon
   points="422.8,236.1 424.7,237.9 424.7,239.6 421.2,236.1 "
   id="polygon85"
   style="fill:#ffffff;fill-opacity:1" />
		<rect
   x="430.60001"
   y="265.60001"
   width="0.30000001"
   height="26.200001"
   id="rect87"
   style="fill:#ffffff;fill-opacity:1" />
		<rect
   x="429.60001"
   y="245.89999"
   width="0.30000001"
   height="19.700001"
   id="rect89"
   style="fill:#ffffff;fill-opacity:1" />
		<rect
   x="429"
   y="230.39999"
   width="0.30000001"
   height="15.4"
   id="rect91"
   style="fill:#ffffff;fill-opacity:1" />
		<rect
   x="416.5"
   y="274.5"
   width="0.30000001"
   height="14.6"
   id="rect93"
   style="fill:#ffffff;fill-opacity:1" />
		<rect
   x="416.60001"
   y="253.89999"
   width="0.30000001"
   height="11.6"
   id="rect95"
   style="fill:#ffffff;fill-opacity:1" />
		<rect
   x="416.89999"
   y="236.5"
   width="0.30000001"
   height="11.3"
   id="rect97"
   style="fill:#ffffff;fill-opacity:1" />
		<path
   d="m 429.1,288.4 0,-22.8 -0.5,0 0,-19.7 -0.4,0 0,-15.4 -0.4,0 0,-5.5 -0.8,0 -0.1,0.9 -7.1,4 -3,0 -1.4,-1.4 0,-1.2 -1.1,0 0,1.2 -0.9,0 -28.7,13.9 c -0.2,0.7 -0.3,1.5 -0.6,2.2 l 28.5,-14.2 0,3.6 -28.9,15.8 c -0.1,0.7 -0.2,1.5 -0.4,2.3 l 43,-24.5 0.4,-0.6 0,1.3 -13.6,8.2 0,10.3 -0.4,0 0,18.6 -0.6,0 0,27.4 17.8,0 0,-4.5 -0.8,0 z m -3.9,-0.2 -0.7,0.6 -7.6,0 -1.2,-0.5 0,-14.9 1.4,-0.9 7.2,0 0.8,0.5 0,15.2 z m 0.2,-23.4 -1.2,1.2 -7,0 -1.6,-0.9 0,-11.5 1.2,-1 7.4,0 1.1,0.6 0,11.6 z m -0.2,-18.2 -0.6,1 -8.1,0 -0.9,-0.9 0,-10.1 0.9,-1.1 8.9,0 -0.2,11.1 z"
   id="path99"
   inkscape:connector-curvature="0"
   style="fill:#ffffff;fill-opacity:1" />
		<path
   d="m 421.9,216.8 c 10.1,0 19.6,3.9 26.8,11.1 7.2,7.2 11.1,16.7 11.1,26.8 0,10.1 -3.9,19.6 -11.1,26.8 -7.2,7.2 -16.7,11.1 -26.8,11.1 -10.1,0 -19.6,-3.9 -26.8,-11.1 -7.2,-7.2 -11.1,-16.7 -11.1,-26.8 0,-10.1 3.9,-19.6 11.1,-26.8 7.2,-7.1 16.7,-11.1 26.8,-11.1 m 0,-2 c -22,0 -39.9,17.8 -39.9,39.9 0,22.1 17.8,39.9 39.9,39.9 22,0 39.9,-17.8 39.9,-39.9 0,-22.1 -17.8,-39.9 -39.9,-39.9 l 0,0 z"
   id="path101"
   inkscape:connector-curvature="0"
   style="fill:#ffffff;fill-opacity:1" />
		<rect
   x="423.89999"
   y="266.70001"
   width="0.30000001"
   height="1.8"
   id="rect103"
   style="fill:#ffffff;fill-opacity:1" />
		<rect
   x="422.70001"
   y="266.70001"
   width="0.30000001"
   height="1.8"
   id="rect105"
   style="fill:#ffffff;fill-opacity:1" />
		<rect
   x="421.39999"
   y="266.70001"
   width="0.30000001"
   height="1.8"
   id="rect107"
   style="fill:#ffffff;fill-opacity:1" />
		<rect
   x="420.20001"
   y="266.70001"
   width="0.30000001"
   height="1.8"
   id="rect109"
   style="fill:#ffffff;fill-opacity:1" />
		<rect
   x="419"
   y="266.70001"
   width="0.30000001"
   height="1.8"
   id="rect111"
   style="fill:#ffffff;fill-opacity:1" />
		<rect
   x="417.79999"
   y="266.70001"
   width="0.30000001"
   height="1.8"
   id="rect113"
   style="fill:#ffffff;fill-opacity:1" />
		<rect
   x="416.60001"
   y="266.70001"
   width="0.30000001"
   height="1.8"
   id="rect115"
   style="fill:#ffffff;fill-opacity:1" />
		<rect
   x="423.89999"
   y="248.39999"
   width="0.30000001"
   height="1.1"
   id="rect117"
   style="fill:#ffffff;fill-opacity:1" />
		<rect
   x="416.60001"
   y="251.39999"
   width="7.5"
   height="0.30000001"
   id="rect119"
   style="fill:#ffffff;fill-opacity:1" />
		<rect
   x="416.89999"
   y="234.5"
   width="7.3000002"
   height="0.30000001"
   id="rect121"
   style="fill:#ffffff;fill-opacity:1" />
		<rect
   x="416.60001"
   y="270.89999"
   width="7.5"
   height="0.30000001"
   id="rect123"
   style="fill:#ffffff;fill-opacity:1" />
		<rect
   x="427.89999"
   y="265.5"
   width="0.30000001"
   height="24.4"
   id="rect125"
   style="fill:#ffffff;fill-opacity:1" />
		<rect
   x="427.29999"
   y="245.89999"
   width="0.30000001"
   height="19.700001"
   id="rect127"
   style="fill:#ffffff;fill-opacity:1" />
		<rect
   x="426.79999"
   y="230.39999"
   width="0.30000001"
   height="15.4"
   id="rect129"
   style="fill:#ffffff;fill-opacity:1" />
		<rect
   x="413.20001"
   y="265.5"
   width="0.30000001"
   height="24.4"
   id="rect131"
   style="fill:#ffffff;fill-opacity:1" />
		<rect
   x="413.70001"
   y="245.89999"
   width="0.30000001"
   height="19.700001"
   id="rect133"
   style="fill:#ffffff;fill-opacity:1" />
		<polygon
   points="414.3,245.9 414.3,235.9 414.5,235.7 414.5,245.9 "
   id="polygon135"
   style="fill:#ffffff;fill-opacity:1" />
		<rect
   x="414.29999"
   y="230.39999"
   width="0.30000001"
   height="2.7"
   id="rect137"
   style="fill:#ffffff;fill-opacity:1" />
		<rect
   x="423.89999"
   y="290"
   width="0.30000001"
   height="1.8"
   id="rect139"
   style="fill:#ffffff;fill-opacity:1" />
		<rect
   x="422.70001"
   y="290"
   width="0.30000001"
   height="1.8"
   id="rect141"
   style="fill:#ffffff;fill-opacity:1" />
		<rect
   x="421.39999"
   y="290"
   width="0.30000001"
   height="1.8"
   id="rect143"
   style="fill:#ffffff;fill-opacity:1" />
		<rect
   x="420.20001"
   y="290"
   width="0.30000001"
   height="1.8"
   id="rect145"
   style="fill:#ffffff;fill-opacity:1" />
		<rect
   x="419"
   y="290"
   width="0.30000001"
   height="1.8"
   id="rect147"
   style="fill:#ffffff;fill-opacity:1" />
		<rect
   x="417.79999"
   y="290"
   width="0.30000001"
   height="1.8"
   id="rect149"
   style="fill:#ffffff;fill-opacity:1" />
		<rect
   x="416.60001"
   y="290"
   width="0.30000001"
   height="1.8"
   id="rect151"
   style="fill:#ffffff;fill-opacity:1" />
		<rect
   x="422.70001"
   y="248.39999"
   width="0.30000001"
   height="1.1"
   id="rect153"
   style="fill:#ffffff;fill-opacity:1" />
		<rect
   x="421.39999"
   y="248.39999"
   width="0.30000001"
   height="1.1"
   id="rect155"
   style="fill:#ffffff;fill-opacity:1" />
		<rect
   x="420.20001"
   y="248.39999"
   width="0.30000001"
   height="1.1"
   id="rect157"
   style="fill:#ffffff;fill-opacity:1" />
		<rect
   x="419"
   y="248.39999"
   width="0.30000001"
   height="1.1"
   id="rect159"
   style="fill:#ffffff;fill-opacity:1" />
		<rect
   x="417.79999"
   y="248.39999"
   width="0.30000001"
   height="1.1"
   id="rect161"
   style="fill:#ffffff;fill-opacity:1" />
		<rect
   x="416.60001"
   y="248.39999"
   width="0.30000001"
   height="1.1"
   id="rect163"
   style="fill:#ffffff;fill-opacity:1" />
		<rect
   x="423.89999"
   y="232.60001"
   width="0.30000001"
   height="0.60000002"
   id="rect165"
   style="fill:#ffffff;fill-opacity:1" />
		<rect
   x="422.70001"
   y="232.60001"
   width="0.30000001"
   height="0.60000002"
   id="rect167"
   style="fill:#ffffff;fill-opacity:1" />
		<rect
   x="421.39999"
   y="232.60001"
   width="0.30000001"
   height="0.60000002"
   id="rect169"
   style="fill:#ffffff;fill-opacity:1" />
		<rect
   x="420.20001"
   y="232.60001"
   width="0.30000001"
   height="0.60000002"
   id="rect171"
   style="fill:#ffffff;fill-opacity:1" />
	</g>
</g>
<text
   xml:space="preserve"
   style="font-style:normal;font-variant:normal;font-weight:normal;font-stretch:normal;font-size:15.44749928px;line-height:314.00001049%;font-family:sans-serif;-inkscape-font-specification:'sans-serif, Normal';text-align:start;letter-spacing:1.54465652px;word-spacing:0px;writing-mode:lr-tb;text-anchor:start;fill:#ffffff;fill-opacity:1;stroke:none;stroke-width:1px;stroke-linecap:butt;stroke-linejoin:miter;stroke-opacity:1;"
   x="20.264425"
   y="160.74335"
   id="text4305"
   sodipodi:linespacing="314.00001%"
   transform="scale(1.0136529,0.986531)"><tspan
     sodipodi:role="line"
     id="tspan4309"
     x="20.264425"
     y="160.74335"
     style="font-style:normal;font-variant:normal;font-weight:normal;font-stretch:normal;font-size:15.44749928px;line-height:314.00001049%;font-family:sans-serif;-inkscape-font-specification:'sans-serif, Normal';text-align:start;letter-spacing:4px;writing-mode:lr-tb;text-anchor:start;fill:#ffffff;fill-opacity:1;">CREATIVE HOUSE</tspan></text>

</svg>