<svg width="180" height="180" viewBox="0 0 180 180" fill="none" xmlns="http://www.w3.org/2000/svg">
<circle cx="90" cy="90" r="90" fill="white"/>
<circle cx="90" cy="90" r="84.5" stroke="#3C3C3B" stroke-opacity="0.2"/>
<path d="M128.078 77.2918C129.329 74.1284 129.755 70.6991 129.249 66.9243C128.69 62.671 126.934 58.9228 123.952 55.8391C118.203 49.8845 111.203 47.7844 103.165 49.6718C94.3816 51.7187 88.1001 59.162 87.275 67.7218C87.1952 68.4395 87.1686 69.1573 87.1686 69.875C87.1419 73.384 88.0203 76.6538 89.6971 79.7108C90.7884 81.7046 92.1458 83.5122 93.8759 84.9743C96.3778 87.0744 98.9064 89.1744 101.435 91.2479V90.7163C101.435 91.0619 101.595 91.3809 101.861 91.5935C103.857 93.2417 105.853 94.8898 107.85 96.538C108.329 96.9367 108.329 96.9367 108.808 96.538C110.964 94.7569 113.12 92.9493 115.302 91.1682L115.728 90.8226C117.059 89.7327 118.39 88.6162 119.72 87.5263L119.747 87.4997C120.838 86.4895 122.089 85.6655 123.154 84.6287C125.363 82.3691 127.013 79.9501 128.078 77.2918Z" fill="#FFDA05"/>
<path d="M77.5078 88.7491C77.5078 84.868 77.5078 81.0134 77.5078 77.1323C77.5078 76.9728 77.5078 76.7867 77.5078 76.6272C77.5344 75.936 77.8272 75.5107 78.5192 75.3246C79.2113 75.1385 79.9299 74.9524 80.6219 74.7929C81.5535 74.5803 82.1391 74.979 82.352 75.8828C83.5764 80.9071 86.0783 85.1604 89.8578 88.6694C91.2153 89.9188 92.6792 91.0619 94.1165 92.2315C97.2306 94.8101 100.345 97.3887 103.459 99.9672C103.512 100.02 103.592 100.074 103.645 100.127C104.018 100.472 104.018 100.472 103.619 100.791C101.143 102.838 98.6679 104.885 96.1926 106.959C94.5157 108.341 92.8655 109.723 91.1887 111.106C91.0822 111.212 90.9491 111.292 90.8426 111.398C90.2305 111.877 89.9909 111.877 89.4054 111.398C88.3673 110.547 87.3559 109.697 86.3179 108.819C83.6296 106.586 80.9679 104.353 78.2531 102.147C77.7207 101.722 77.5078 101.243 77.5078 100.552C77.5078 96.6443 77.5078 92.71 77.5078 88.7491Z" fill="#AFBE2D"/>
<path d="M54.457 81.3324C57.7575 80.5083 61.0579 79.6842 64.3583 78.8602C66.3013 78.3817 68.2443 77.9032 70.1607 77.4247C70.2938 77.3981 70.4003 77.3449 70.5334 77.3449C71.3318 77.2386 71.9174 77.7437 71.9706 78.5146C71.9706 78.6741 71.9706 78.807 71.9706 78.9665C71.9706 83.9641 71.9706 88.9618 71.9706 93.9594C71.9706 94.1189 71.9706 94.305 71.9706 94.4645C71.8642 95.4481 70.8261 95.9266 70.0276 95.3683C69.4155 94.943 68.8565 94.4379 68.2976 93.9594C64.8108 91.0619 61.3241 88.1643 57.8373 85.2667C56.5863 84.23 55.5217 83.0071 54.5901 81.7046C54.5369 81.5982 54.457 81.5185 54.457 81.3324Z" fill="#AE7F47"/>
<path d="M51.3425 65.3559C51.2892 65.0103 51.3957 64.7445 51.4755 64.4787C51.928 62.8039 52.5934 61.2355 53.4185 59.7203C53.6315 59.3481 53.8444 59.2684 54.217 59.3215C55.2018 59.481 56.1068 59.8 56.9851 60.2254C57.4908 60.4646 57.9699 60.7304 58.4757 60.9431C59.7799 61.5545 61.1107 61.5811 62.4149 60.9165C62.9738 60.6241 63.5062 60.3317 64.0385 60.0393C65.7686 59.1089 67.5519 59.0025 69.415 59.6405C70.107 59.8798 70.7991 60.1988 71.4645 60.5443C71.8903 60.757 72.3428 60.9963 72.7953 61.1558C73.8333 61.5013 74.8714 61.5013 75.9094 61.0494C76.5216 60.7836 77.0805 60.4646 77.6661 60.1456C78.5711 59.6405 79.5293 59.3215 80.5673 59.2684C81.5521 59.2152 82.4571 59.4279 83.3886 59.7203C83.6548 59.8 83.6282 59.9595 83.5483 60.1722C83.1491 61.1292 82.8031 62.1128 82.5369 63.1229C82.3772 63.7078 82.2441 64.266 82.111 64.8508C82.0578 65.0901 81.978 65.1698 81.7384 65.1167C80.1947 64.904 78.7308 65.3027 77.3733 66.0205C76.8144 66.3129 76.2554 66.6319 75.6699 66.8977C74.7915 67.3231 73.9132 67.3231 73.0082 67.0041C72.396 66.7648 71.8105 66.4458 71.2249 66.1534C70.32 65.7281 69.3884 65.3559 68.4036 65.1698C66.7534 64.8508 65.183 65.1698 63.7191 65.9407C63.1069 66.2597 62.5214 66.5787 61.9092 66.8712C61.0042 67.2965 60.0993 67.2965 59.1943 66.9509C58.6886 66.7648 58.1829 66.499 57.7038 66.2597C56.6657 65.7281 55.6011 65.3293 54.4566 65.1432C53.5516 64.9837 52.6733 65.0635 51.7949 65.2496C51.6352 65.2762 51.5288 65.3027 51.3425 65.3559Z" fill="#1999D5"/>
<path d="M50.8367 69.7687C50.7835 68.7054 50.8634 67.6421 51.0231 66.6053C51.0763 66.2863 51.236 66.1268 51.5288 66.0471C52.7797 65.6749 54.0041 65.6749 55.2284 66.0471C56.0003 66.2863 56.7456 66.5788 57.4642 66.9509C57.9699 67.2167 58.4757 67.4826 59.0346 67.6687C60.0993 68.0408 61.1107 68.0142 62.1487 67.5623C62.7343 67.2965 63.2932 67.0041 63.8522 66.6851C65.7419 65.5952 67.7116 65.4888 69.7344 66.2863C70.3998 66.5522 71.0652 66.8712 71.704 67.1902C72.0766 67.3762 72.4227 67.5357 72.8219 67.6687C73.86 68.0408 74.898 68.0142 75.936 67.5623C76.6281 67.2699 77.2669 66.8712 77.9323 66.5256C78.7574 66.1003 79.6091 65.8344 80.5407 65.7547C80.7004 65.7281 80.8867 65.7281 81.0464 65.7281C81.9513 65.7281 81.9513 65.7547 81.8449 66.6319C81.7118 67.8282 81.6319 69.051 81.6319 70.2472C81.6319 70.9118 81.4989 71.0713 80.8867 71.2308C78.225 71.8954 75.5634 72.5334 72.9018 73.1714C72.5824 73.2511 72.3162 73.1714 72.05 73.0385C71.2782 72.6397 70.4797 72.2676 69.6546 71.9751C67.5519 71.2574 65.5556 71.4435 63.6126 72.5068C63.0803 72.7992 62.5213 73.0916 61.9624 73.3575C61.0308 73.836 60.0726 73.836 59.1144 73.4372C58.6886 73.2777 58.2893 73.0651 57.8901 72.879C57.1981 72.5334 56.506 72.2144 55.7874 71.9751C54.3235 71.4701 52.833 71.4169 51.3424 71.8422C50.89 71.9751 50.8634 71.9751 50.8367 71.5232C50.8101 70.9384 50.8367 70.3536 50.8367 69.7687Z" fill="#1999D5"/>
<path d="M54.2162 58.6303C54.1896 58.4442 54.2695 58.3645 54.3227 58.2847C55.2543 56.8758 56.3988 55.6264 57.6231 54.4833C57.8627 54.2707 58.049 54.2175 58.3418 54.377C59.8323 55.1479 61.3228 55.0682 62.7867 54.2441C63.2126 54.0049 63.6384 53.7656 64.0909 53.5529C65.7944 52.6491 67.5777 52.5428 69.3876 53.1542C70.1062 53.3934 70.7716 53.7124 71.4371 54.0314C71.8629 54.2441 72.2888 54.4568 72.7146 54.6163C73.8325 55.0416 74.9238 55.015 75.9885 54.5099C76.5474 54.2441 77.1064 53.9517 77.6387 53.6593C79.5284 52.5959 81.4714 52.4896 83.4677 53.2339C84.3194 53.5529 85.1445 54.0049 85.9696 54.377C86.289 54.5365 86.3955 54.7758 86.289 55.1213C86.2624 55.2277 86.1826 55.3606 86.1027 55.4669C85.3574 56.5568 84.692 57.6999 84.1331 58.8962C84.0266 59.1354 83.9202 59.1886 83.654 59.1088C83.1217 58.8962 82.5627 58.7632 82.0038 58.6835C80.5665 58.4442 79.209 58.6835 77.9048 59.3215C77.2661 59.6405 76.6273 59.9861 75.9885 60.3317C74.8972 60.9165 73.7793 60.9165 72.688 60.4114C72.1823 60.1722 71.7032 59.9329 71.1975 59.6937C70.2659 59.2417 69.2811 58.8962 68.2431 58.7101C66.8058 58.4708 65.4484 58.7101 64.1442 59.3481C63.5586 59.6139 62.9996 59.9329 62.4407 60.2519C61.1631 60.9697 59.8855 60.9962 58.6079 60.3051C58.3418 60.1722 58.0756 60.0392 57.8094 59.9063C56.6383 59.2683 55.4938 58.8164 54.2162 58.6303Z" fill="#1999D5"/>
<path d="M83.6283 52.5693C82.9363 52.4098 82.404 52.2503 81.845 52.1706C80.461 51.9845 79.1834 52.1972 77.9324 52.8086C77.3468 53.0744 76.7879 53.3934 76.229 53.7124C74.9514 54.4567 73.6472 54.4567 72.343 53.7922C71.4646 53.3402 70.5597 52.8883 69.6015 52.5693C67.552 51.8782 65.5824 52.0377 63.6926 53.0478C63.0804 53.3668 62.4683 53.739 61.8295 54.0314C60.8713 54.4567 59.6469 54.4302 58.6621 53.8187C64.704 48.4224 75.5635 47.1198 83.6283 52.5693Z" fill="#1999D5"/>
<path d="M71.2789 73.5967C69.8948 73.9423 68.4841 74.2879 67.1001 74.6335C62.6019 75.7234 58.1037 76.8133 53.6056 77.9032C53.4725 77.9298 53.366 77.9829 53.2329 77.9829C52.7006 78.0627 52.4344 77.9298 52.2481 77.4247C51.7956 76.3082 51.4496 75.1917 51.2367 74.022C51.2101 73.9157 51.1835 73.8094 51.1835 73.703C51.0504 72.6663 50.7842 72.7992 51.9287 72.4802C53.0466 72.1878 54.1645 72.241 55.2558 72.56C56.001 72.7726 56.7463 73.0916 57.4383 73.4372C57.7311 73.5701 57.9973 73.7296 58.29 73.8625C59.7806 74.6069 61.2711 74.6335 62.735 73.8094C63.2407 73.517 63.7464 73.2777 64.2521 73.0119C65.8491 72.1878 67.4993 72.0549 69.2028 72.6131C69.8416 72.8258 70.4804 73.065 71.0926 73.384C71.1458 73.4106 71.2522 73.4372 71.2789 73.5967Z" fill="#1999D5"/>
<path d="M89.6971 79.6843C90.7884 81.678 92.1458 83.4857 93.8759 84.9478C96.3778 87.0478 98.9064 89.1479 101.435 91.2214V65.7015C101.435 64.9306 100.716 64.3989 99.9977 64.5584L87.275 67.6953C87.1952 68.413 87.1686 69.1307 87.1686 69.8485C87.1419 73.3841 88.0203 76.6538 89.6971 79.6843Z" fill="#83529B"/>
<path d="M115.701 75.2182V90.8226C117.032 89.7327 118.363 88.6162 119.694 87.5263V75.5904C119.694 74.8992 119.028 74.3941 118.363 74.5536L115.701 75.2182Z" fill="#83529B"/>
<path d="M101.461 65.861V91.248C103.59 93.0025 105.72 94.7836 107.849 96.538C108.328 96.9368 108.328 96.9368 108.807 96.538C110.963 94.757 113.119 92.9493 115.301 91.1682L115.727 90.8227V75.2183V70.0878C115.727 69.6093 115.408 69.1573 114.955 68.9978L102.978 64.7711C102.233 64.5053 101.461 65.0635 101.461 65.861Z" fill="#9975B0"/>
<path d="M119.693 87.4997C119.693 87.4997 119.667 87.4997 119.693 87.4997C120.785 86.4895 122.062 85.6654 123.127 84.6021C125.363 82.3691 127.04 79.9235 128.078 77.2917L121.131 74.7397C120.439 74.4739 119.693 75.0056 119.693 75.7499V87.4997Z" fill="#9975B0"/>
<path d="M119.693 75.7233V87.4997C119.72 87.4731 119.693 87.4997 119.693 87.4997" fill="#9975B0"/>
<path d="M49.8252 120.144V129.794H47.6959V125.673H44.1559V129.794H42V120.144H44.1559V123.892H47.6959V120.144H49.8252Z" fill="#3C3C3B"/>
<path d="M51.6621 124.849C51.6621 122.058 53.4188 119.905 56.5063 119.905C59.4873 119.905 61.2174 122.111 61.2174 125.009C61.2174 127.853 59.514 130.033 56.6128 130.033C53.4454 130.033 51.6621 127.906 51.6621 124.849ZM58.9018 125.035C58.9018 123.148 58.0501 121.712 56.5063 121.712C54.8561 121.712 53.9245 123.068 53.9245 124.876C53.9245 126.816 54.8827 128.252 56.5862 128.252C58.0501 128.225 58.9018 126.763 58.9018 125.035Z" fill="#3C3C3B"/>
<path d="M66.3798 120.144C68.6156 120.144 69.4673 121.181 69.4673 122.643C69.4673 123.307 69.2011 123.998 68.7753 124.53C69.627 125.088 70.1859 125.966 70.1859 127.029C70.1859 128.597 68.9083 129.794 66.646 129.794H63.0527V120.144H66.3798ZM66.3532 123.892C66.9387 123.892 67.2049 123.387 67.2049 122.855C67.2049 122.403 66.9121 121.952 66.3266 121.952H65.2087V123.892H66.3532ZM66.433 125.7H65.182V128.012H66.5395C67.338 128.012 67.7905 127.561 67.7905 126.816C67.7905 126.178 67.4444 125.7 66.433 125.7Z" fill="#3C3C3B"/>
<path d="M74.0993 120.144V125.992L77.8788 120.144H80.0081V129.794H77.8788V123.812L74.0993 129.794H71.9434V120.144H74.0993Z" fill="#3C3C3B"/>
<path d="M84.5329 120.144V125.992L88.3124 120.144H90.4417V129.794H88.3124V123.812L84.5329 129.794H82.377V120.144H84.5329ZM85.3846 116.369C85.4911 117.087 86.05 117.725 86.7154 117.725C87.3808 117.725 87.8866 117.167 88.1527 116.369L89.3771 116.741C89.0577 118.203 88.1793 119.32 86.6888 119.32C85.1717 119.32 84.32 118.23 84.0804 116.715L85.3846 116.369Z" fill="#3C3C3B"/>
<path d="M104.069 120.144V129.794H101.94V121.925H98.4001V129.794H96.2441V120.144H104.069Z" fill="#3C3C3B"/>
<path d="M105.906 124.849C105.906 122.058 107.663 119.905 110.75 119.905C113.731 119.905 115.462 122.111 115.462 125.009C115.462 127.853 113.758 130.033 110.857 130.033C107.69 130.033 105.906 127.906 105.906 124.849ZM113.173 125.035C113.173 123.148 112.321 121.712 110.777 121.712C109.127 121.712 108.195 123.068 108.195 124.876C108.195 126.816 109.153 128.252 110.857 128.252C112.294 128.225 113.173 126.763 113.173 125.035Z" fill="#3C3C3B"/>
<path d="M117.166 128.012C118.071 125.514 118.497 122.909 118.523 120.144H124.139V128.012H125.044V132H123.234V129.794H117.964V132H116.154V128.012H117.166ZM119.375 128.012H122.01V121.952H120.493C120.333 124.105 119.987 126.178 119.375 128.012Z" fill="#3C3C3B"/>
<path d="M129.062 120.144V129.794H126.906V120.144H129.062Z" fill="#3C3C3B"/>
<path d="M138.271 120.144V129.794H136.142V121.925H134.518L133.986 126.816C133.826 128.411 132.921 129.794 130.473 129.794V128.039C131.724 128.039 131.883 127.454 132.016 126.152L132.682 120.144H138.271Z" fill="#3C3C3B"/>
</svg>
