<svg version="1.1" viewBox="0 0 479.78 264.58" xmlns="http://www.w3.org/2000/svg" xmlns:xlink="http://www.w3.org/1999/xlink">
 <g transform="translate(118.18 5.2917)">
  <image x="-118.18" y="-5.2917" width="479.78" height="264.58" xlink:href="./assets/images/about/genplan/bg.jpg" preserveAspectRatio="none"/>
  <g transform="matrix(.35121 0 0 .35121 591.96 221.7)" fill="none" opacity=".996">
   <g transform="translate(-1949.7 -591.54)" fill="none">
    <g class="seafront" data-popup-text="Набережна">
    	<path d="m972.95 278.16c-2.925-5.421-8.738-9.157-15.428-9.157-6.032 0-11.881 2.981-15.025 7.559l-3.948-3.64c-0.402-0.293-0.805-0.623-1.207-0.916-2.815-1.904-6.215-3.003-9.87-3.003-4.204 0-8.043 1.465-11.041 3.882-0.146 0.11-0.292 0.257-0.475 0.403-1.243 1.062-2.303 2.308-3.217 3.663-0.11 0.183-0.22 0.33-0.329 0.513-0.183 0.329-0.366 0.659-0.549 0.989-0.658 1.281-1.133 2.673-1.462 4.102-0.036 0.219-0.073 0.403-0.11 0.622-0.182 0.989-0.292 2.015-0.292 3.04 0 0.623 0.037 1.246 0.11 1.832 0.036 0.183 0.036 0.366 0.073 0.549 0.146 1.135 0.438 2.198 0.804 3.26 0.475 1.538 1.755 3.552 2.011 3.919 0 0.036 0.036 0.036 0.036 0.073 0.11 0.146 0.22 0.293 0.293 0.439 0 0.037 0.036 0.037 0.036 0.074 0.11 0.146 0.22 0.293 0.329 0.439 0.037 0.037 0.073 0.11 0.11 0.147 0.073 0.11 0.183 0.22 0.256 0.329 0.11 0.147 0.256 0.293 0.402 0.44l0.037 0.037c0.292 0.293 0.548 0.586 0.84 0.879 0.037 0 0.037 0.036 0.074 0.036l2.23 1.832 3.473 2.893 17.401 14.467 3.583 3.004c0.219 0.183 0.585 0.183 0.804 0l11.004-9.157 3.619-3.003 4.424-3.699 1.828-1.502 0.073-0.073 0.256-0.22 2.961-2.491 0.073-0.073 2.449-1.978c0.037 0 0.037-0.036 0.074-0.036 1.681-1.612 3.07-3.553 3.984-5.714 0.878-2.051 1.353-4.285 1.353-6.666 0-2.967-0.731-5.714-2.047-8.094z" class="heart"/>
    	<path d="m943.09 303.61v-13.29h-13.698c-0.216 0-0.391-0.176-0.391-0.391 0-0.216 0.175-0.391 0.391-0.391h8.595l-0.048-2.217h-1.578l-0.117-0.163c-0.598-0.834-0.534-1.626 0.015-2.3l0.117-0.144h5.744l0.116 0.18c0.395 0.614 0.472 1.342 0.018 2.216l-0.109 0.211h-1.598l0.048 2.217h2.886c0.013 0 0.026 0 0.039 2e-3 0.198 0.02 0.352 0.186 0.352 0.389v6.421c0.641-0.368 1.369-0.489 2.16-0.394 0.878 0.106 1.835 0.476 2.854 1.062 0.014 8e-3 0.027 0.017 0.04 0.026 2.002 1.497 3.873 1.14 5.785-0.271 0.174-0.128 0.419-0.091 0.547 0.083 0.128 0.173 0.091 0.419-0.083 0.547-2.044 1.508-4.233 1.99-6.498 0.425l-0.196-0.14-0.342-0.189c-0.822-0.435-1.556-0.689-2.201-0.766-0.728-0.087-1.339 0.049-1.853 0.407-0.065 0.045-0.14 0.068-0.213 0.07v6.4c0 0.216-0.176 0.391-0.391 0.391-0.216 0-0.391-0.175-0.391-0.391zm6.655-2.363-0.107-0.069-0.192-0.096c-0.473-0.226-0.889-0.355-1.249-0.394-0.405-0.044-0.731 0.026-0.998 0.194-0.183 0.115-0.425 0.059-0.54-0.124-0.114-0.182-0.059-0.424 0.124-0.539 0.443-0.278 0.953-0.368 1.499-0.309 0.539 0.059 1.12 0.263 1.73 0.58 0.013 7e-3 0.026 0.015 0.039 0.023 0.573 0.387 1.11 0.52 1.626 0.482 0.523-0.039 1.058-0.256 1.615-0.627 0.18-0.119 0.422-0.071 0.542 0.109 0.12 0.179 0.071 0.422-0.108 0.542-0.628 0.418-1.292 0.704-1.992 0.756-0.664 0.049-1.329-0.115-1.989-0.528zm-9.933-11.709-0.065-2.999h1.909l9e-3 -0.019c0.146-0.368 0.144-0.661 0.056-0.915l-0.046-0.109-4.916 2e-3c-0.191 0.302-0.22 0.617-7e-3 1.004l0.024 0.037h1.928l0.066 2.999z" clip-rule="evenodd" fill="#fff" fill-rule="evenodd"/>
    </g>
    <g class="amphitheatre" data-popup-text="Амфітеатр">
		<path d="m140.95 36.156c-2.925-5.4206-8.738-9.1565-15.428-9.1565-6.032 0-11.881 2.981-15.025 7.5593l-3.948-3.6403c-0.402-0.293-0.805-0.6226-1.207-0.9157-2.815-1.9045-6.2145-3.0033-9.8703-3.0033-4.2042 0-8.0428 1.465-11.04 3.8824-0.1462 0.1099-0.2925 0.2564-0.4753 0.4029-1.2429 1.0621-2.3031 2.3074-3.2171 3.6626-0.1096 0.1831-0.2193 0.3296-0.329 0.5127-0.1828 0.3297-0.3656 0.6593-0.5483 0.9889-0.6581 1.282-1.1333 2.6738-1.4624 4.1022-0.0365 0.2197-0.0731 0.4029-0.1096 0.6226-0.1828 0.9889-0.2925 2.0145-0.2925 3.04 0 0.6226 0.0366 1.2453 0.1097 1.8313 0.0365 0.1831 0.0365 0.3663 0.0731 0.5494 0.1462 1.1354 0.4387 2.1976 0.8043 3.2597 0.4752 1.5383 1.7547 3.5528 2.0107 3.919 0 0.0367 0.0365 0.0367 0.0365 0.0733 0.1097 0.1465 0.2194 0.293 0.2925 0.4395 0 0.0366 0.0365 0.0366 0.0365 0.0732 0.1097 0.1465 0.2194 0.2931 0.3291 0.4396 0.0365 0.0366 0.0731 0.1098 0.1096 0.1465 0.0731 0.1098 0.1828 0.2197 0.2559 0.3296 0.1097 0.1465 0.2559 0.293 0.4022 0.4395l0.0365 0.0366c0.2925 0.293 0.5484 0.5861 0.8409 0.8791 0.0365 0 0.0365 0.0366 0.0731 0.0366l2.23 1.8313 3.473 2.8935 17.401 14.467 3.583 3.0033c0.219 0.1832 0.585 0.1832 0.804 0l11.004-9.1565 3.619-3.0033 4.424-3.6993 1.828-1.5017 0.073-0.0732 0.256-0.2198 2.961-2.4905 0.073-0.0733 2.449-1.9778c0.037 0 0.037-0.0366 0.074-0.0366 1.681-1.6116 3.07-3.5528 3.984-5.7137 0.878-2.0511 1.353-4.2853 1.353-6.666 0-2.9667-0.731-5.7137-2.047-8.0944z" class="heart"/>
	    <g fill="#fff">
	     <path d="m119.67 56.333v-1.3333h0.666v-0.6667h-1.333v-1.3333h0.667v-0.6667h-1.334v-1.3333h0.667v-0.6667h-0.667v-2.6666h0.667v-4.6667h-16v4.6667h0.667v2.6666h-0.667v0.6667h0.667v1.3333h-1.334v0.6667h0.667v1.3333h-1.333v0.6667h0.666v1.3333h-1.333v0.6667h0.667v1.3947c-0.195 0.0687-0.363 0.1957-0.482 0.3637-0.12 0.1681-0.184 0.3688-0.185 0.5749v3.6667h0.667v-1.3333h1v1.3333h0.666v-1.3333h1.334v1.3333h0.666v-1.3333h1.334v1.3333h0.666v-1.3333h1.334v1.3333h0.666v-1.3333h1.334v1.3333h0.666v-1.3333h1.334v1.3333h0.666v-1.3333h1.334v1.3333h0.666v-1.3333h1.334v1.3333h0.666v-1.3333h1.334v1.3333h0.666v-1.3333h1v1.3333h0.667v-3.6667c-1e-3 -0.2061-0.065-0.4068-0.185-0.5749-0.119-0.168-0.287-0.295-0.482-0.3637v-1.3947h0.667v-0.6667zm-0.667 0h-6v-1.3333h6zm1.333 3v0.3334h-1v-0.6667h0.667c0.088 0 0.173 0.0351 0.236 0.0976 0.062 0.0625 0.097 0.1473 0.097 0.2357zm-1.666 0.3334h-1.334v-0.6667h1.334zm-2 0h-1.334v-0.6667h1.334zm-2 0h-1.334v-0.6667h1.334zm-10-0.6667v0.6667h-1.334v-0.6667zm0.666 0h1.334v0.6667h-1.334zm2 0h1.334v0.6667h-1.334zm2 0h1.334v0.6667h-1.334zm2 0h1.334v0.6667h-1.334zm1.667-0.6667h-4v-1.3333h4zm-3.333-3.3333h2.666v1.3333h-2.666zm0.666-2h1.334v1.3333h-1.334zm8 1.3333h-6v-1.3333h6zm-0.666-2h-6.334v-1.3333h6.334zm-12-2v-2.6666h10.666v2.6666zm12 0h-0.667v-2.6666h0.667zm-14-6.6666h14.666v3.3333h-14.666zm0.666 4h0.667v2.6666h-0.667zm0 3.3333h6.334v1.3333h-6.334zm-0.666 2h6v1.3333h-6zm-0.667 2h6v1.3333h-6zm5.333 2v1.3333h-6v-1.3333zm-6.333 2h0.667v0.6667h-1v-0.3334c0-0.0884 0.035-0.1732 0.097-0.2357 0.063-0.0625 0.148-0.0976 0.236-0.0976zm-0.333 2v-0.6667h1v0.6667zm1.666 0v-0.6667h1.334v0.6667zm2 0v-0.6667h1.334v0.6667zm2 0v-0.6667h1.334v0.6667zm2 0v-0.6667h1.334v0.6667zm2 0v-0.6667h1.334v0.6667zm2 0v-0.6667h1.334v0.6667zm2 0v-0.6667h1.334v0.6667zm2 0v-0.6667h1.334v0.6667zm2 0v-0.6667h1v0.6667zm0.334-2.6667h-6v-1.3333h6z"/>
	     <path d="m111 46.333c0.198 0 0.391-0.0586 0.556-0.1685 0.164-0.1099 0.292-0.2661 0.368-0.4488s0.095-0.3838 0.057-0.5778c-0.039-0.194-0.134-0.3721-0.274-0.512-0.14-0.1398-0.318-0.2351-0.512-0.2737s-0.395-0.0188-0.578 0.0569c-0.182 0.0757-0.339 0.2039-0.449 0.3683-0.109 0.1645-0.168 0.3578-0.168 0.5556 0 0.2652 0.105 0.5196 0.293 0.7071 0.187 0.1876 0.442 0.2929 0.707 0.2929zm0-1.3333c0.066 0 0.13 0.0195 0.185 0.0562 0.055 0.0366 0.098 0.0886 0.123 0.1496 0.025 0.0609 0.032 0.1279 0.019 0.1925-0.013 0.0647-0.045 0.1241-0.091 0.1707-0.047 0.0466-0.106 0.0784-0.171 0.0912-0.065 0.0129-0.132 0.0063-0.193-0.0189-0.061-0.0253-0.113-0.068-0.149-0.1228-0.037-0.0548-0.056-0.1193-0.056-0.1852 0-0.0884 0.035-0.1732 0.097-0.2357 0.063-0.0625 0.148-0.0976 0.236-0.0976z"/>
	     <path d="m109 44.333h-4.667v2h4.667zm-0.667 1.3333h-3.333v-0.6666h3.333z"/>
	     <path d="m117.67 44.333h-4.667v2h4.667zm-0.667 1.3333h-3.333v-0.6666h3.333z"/>
	    </g>
    </g>
    <g class="basketball-field" data-popup-text="Баскетбольний майданчик">
		<path d="m776.95 211.16c-2.925-5.421-8.738-9.157-15.428-9.157-6.032 0-11.881 2.981-15.025 7.559l-3.948-3.64c-0.402-0.293-0.805-0.623-1.207-0.916-2.815-1.904-6.215-3.003-9.87-3.003-4.204 0-8.043 1.465-11.041 3.882-0.146 0.11-0.292 0.257-0.475 0.403-1.243 1.062-2.303 2.308-3.217 3.663-0.11 0.183-0.22 0.33-0.329 0.513-0.183 0.329-0.366 0.659-0.549 0.989-0.658 1.281-1.133 2.673-1.462 4.102-0.036 0.219-0.073 0.403-0.11 0.622-0.182 0.989-0.292 2.015-0.292 3.04 0 0.623 0.037 1.246 0.11 1.832 0.036 0.183 0.036 0.366 0.073 0.549 0.146 1.135 0.438 2.198 0.804 3.26 0.475 1.538 1.755 3.552 2.011 3.919 0 0.036 0.036 0.036 0.036 0.073 0.11 0.146 0.22 0.293 0.293 0.439 0 0.037 0.036 0.037 0.036 0.074 0.11 0.146 0.22 0.293 0.329 0.439 0.037 0.037 0.073 0.11 0.11 0.147 0.073 0.11 0.183 0.22 0.256 0.329 0.11 0.147 0.256 0.293 0.402 0.44l0.037 0.037c0.292 0.293 0.548 0.586 0.84 0.879 0.037 0 0.037 0.036 0.074 0.036l2.23 1.832 3.473 2.893 17.401 14.467 3.583 3.004c0.219 0.183 0.585 0.183 0.804 0l11.004-9.157 3.619-3.003 4.424-3.699 1.828-1.502 0.073-0.073 0.256-0.22 2.961-2.491 0.073-0.073 2.449-1.978c0.037 0 0.037-0.036 0.074-0.036 1.681-1.612 3.07-3.553 3.984-5.714 0.878-2.051 1.353-4.285 1.353-6.666 0-2.967-0.731-5.714-2.047-8.094z" class="heart"/>
	    <g fill="#fff" stroke="#fff" stroke-width=".5">
	     <path d="m755.8 229.8c-0.041 0-0.081-0.02-0.122-0.041-0.67-0.426-1.422-0.812-2.234-1.158-4.083-1.686-8.776-1.686-12.859 0-0.832 0.346-1.584 0.732-2.234 1.158-0.061 0.041-0.163 0.041-0.224 0-0.081-0.04-0.121-0.122-0.121-0.203v-11.335c-0.021-0.121 0.081-0.223 0.203-0.223h17.571c0.121 0 0.223 0.102 0.223 0.223v11.355c0 0.082-0.041 0.163-0.122 0.204-0.02 0.02-0.041 0.02-0.081 0.02zm-17.368-11.355v10.725c0.589-0.365 1.26-0.69 1.971-0.975 4.204-1.747 9.019-1.747 13.203 0 0.711 0.285 1.361 0.63 1.97 0.975v-10.725z"/>
	     <path d="m739.83 227.16c-0.041 0-0.081-0.02-0.122-0.04-0.061-0.041-0.102-0.102-0.102-0.183v-7.11c0-0.122 0.102-0.223 0.224-0.223h14.361c0.122 0 0.224 0.101 0.224 0.223v7.11c0 0.081-0.041 0.142-0.102 0.183-0.061 0.04-0.142 0.04-0.203 0.02l-0.041-0.02c-2.254-0.935-4.631-1.402-7.069-1.402-2.437 0-4.814 0.467-7.048 1.402l-0.041 0.02c-0.041 0.02-0.061 0.02-0.081 0.02zm7.17-1.889c2.397 0 4.733 0.447 6.968 1.32v-6.54h-13.935v6.561c2.234-0.894 4.57-1.341 6.967-1.341z"/>
	     <path d="m751.49 225.92h-0.447v-3.656h-8.084v3.656h-0.447v-3.859c0-0.122 0.101-0.224 0.223-0.224h8.532c0.122 0 0.223 0.102 0.223 0.224z"/>
	     <path d="m747.28 227.12h-0.447v1.99h0.447z"/>
	     <path d="m747.06 232.46c-2.437 0-5.017-0.65-5.017-1.869s2.58-1.869 5.017-1.869c2.438 0 5.038 0.65 5.038 1.869 0 1.199-2.6 1.869-5.038 1.869zm0-3.291c-2.701 0-4.59 0.752-4.59 1.422s1.889 1.422 4.59 1.422c2.702 0 4.591-0.752 4.591-1.422s-1.889-1.422-4.591-1.422z"/>
	     <path d="m749.48 238.31h-4.814c-0.65 0-1.199-0.508-1.24-1.158-0.203-3.169-1.34-6.459-1.361-6.48l0.427-0.142c0.02 0.041 1.178 3.372 1.381 6.602 0.021 0.427 0.386 0.752 0.793 0.752h4.834c0.427 0 0.772-0.325 0.792-0.752 0.203-3.23 1.382-6.581 1.382-6.602l0.426 0.142c-0.02 0.041-1.158 3.311-1.361 6.48-0.061 0.65-0.609 1.158-1.259 1.158z"/>
	    </g>
    </g>
    <g class="tennis-court" data-popup-text="Тенісний корт">
    	<path d="m709.95 221.16c-2.925-5.421-8.738-9.157-15.428-9.157-6.032 0-11.881 2.981-15.025 7.559l-3.948-3.64c-0.402-0.293-0.805-0.623-1.207-0.916-2.815-1.904-6.215-3.003-9.87-3.003-4.204 0-8.043 1.465-11.041 3.882-0.146 0.11-0.292 0.257-0.475 0.403-1.243 1.062-2.303 2.308-3.217 3.663-0.11 0.183-0.22 0.33-0.329 0.513-0.183 0.329-0.366 0.659-0.549 0.989-0.658 1.281-1.133 2.673-1.462 4.102-0.036 0.219-0.073 0.403-0.11 0.622-0.182 0.989-0.292 2.015-0.292 3.04 0 0.623 0.037 1.246 0.11 1.832 0.036 0.183 0.036 0.366 0.073 0.549 0.146 1.135 0.438 2.198 0.804 3.26 0.475 1.538 1.755 3.552 2.011 3.919 0 0.036 0.036 0.036 0.036 0.073 0.11 0.146 0.22 0.293 0.293 0.439 0 0.037 0.036 0.037 0.036 0.074 0.11 0.146 0.22 0.293 0.329 0.439 0.037 0.037 0.073 0.11 0.11 0.147 0.073 0.11 0.183 0.22 0.256 0.329 0.11 0.147 0.256 0.293 0.402 0.44l0.037 0.037c0.292 0.293 0.548 0.586 0.84 0.879 0.037 0 0.037 0.036 0.074 0.036l2.23 1.832 3.473 2.893 17.401 14.467 3.583 3.004c0.219 0.183 0.585 0.183 0.804 0l11.004-9.157 3.619-3.003 4.424-3.699 1.828-1.502 0.073-0.073 0.256-0.22 2.961-2.491 0.073-0.073 2.449-1.978c0.037 0 0.037-0.036 0.074-0.036 1.681-1.612 3.07-3.553 3.984-5.714 0.878-2.051 1.353-4.285 1.353-6.666 0-2.967-0.731-5.714-2.047-8.094z" class="heart"/>
    	<path d="m671.61 235.57c-0.096 0-0.188 0.038-0.255 0.106-0.068 0.068-0.106 0.159-0.106 0.255s0.038 0.187 0.106 0.255c0.067 0.068 0.159 0.106 0.255 0.106h3.913v1.381c0 0.096 0.038 0.188 0.106 0.255 0.068 0.068 0.159 0.106 0.255 0.106s0.187-0.038 0.255-0.106c0.068-0.067 0.106-0.159 0.106-0.255v-1.381h1.179v3.279c0 0.095 0.038 0.187 0.106 0.255 0.068 0.067 0.159 0.105 0.255 0.105s0.187-0.038 0.255-0.105c0.068-0.068 0.106-0.16 0.106-0.255v-3.279h0.746c0.096 0 0.188-0.038 0.255-0.106 0.068-0.068 0.106-0.159 0.106-0.255s-0.038-0.187-0.106-0.255c-0.067-0.068-0.159-0.106-0.255-0.106h-0.75v-1.179h2.648c0.095 0 0.187-0.038 0.255-0.106 0.067-0.067 0.105-0.159 0.105-0.255 0-0.095-0.038-0.187-0.105-0.255-0.068-0.068-0.16-0.106-0.255-0.106h-2.648v-1.377c0-0.096-0.038-0.188-0.106-0.255-0.067-0.068-0.159-0.106-0.255-0.106-0.095 0-0.187 0.038-0.255 0.106-0.067 0.067-0.105 0.159-0.105 0.255v1.381h-1.176v-3.282c0-0.096-0.038-0.188-0.106-0.255-0.068-0.068-0.159-0.106-0.255-0.106s-0.187 0.038-0.255 0.106c-0.068 0.067-0.106 0.159-0.106 0.255v3.278h-2.016c-0.096 0-0.187 0.038-0.255 0.106s-0.106 0.16-0.106 0.255c0 0.096 0.038 0.188 0.106 0.255 0.068 0.068 0.159 0.106 0.255 0.106h2.013v1.179zm4.635-1.179h1.179v1.179h-1.179z" fill="#fff"/>
    	<path d="m671.99 238.83c0.073-0.061 0.118-0.147 0.128-0.241 9e-3 -0.094-0.018-0.187-0.077-0.261-2.684-3.156-3.095-7.135-0.967-9.263 2.301-2.301 6.76-1.594 9.938 1.584 1.491 1.437 2.49 3.309 2.853 5.349 0.039 0.264 0.063 0.53 0.072 0.797 0.02 0.504-0.024 1.008-0.13 1.501 0 0.054-0.022 0.112-0.036 0.162-0.015 0.051-0.058 0.202-0.09 0.303-0.033 0.101-0.054 0.166-0.087 0.249-0.032 0.083-0.065 0.162-0.101 0.242-0.036 0.079-0.09 0.187-0.137 0.281s-0.068 0.13-0.108 0.195-0.13 0.202-0.198 0.299c-0.069 0.097-0.065 0.097-0.101 0.144-0.199 0.261-0.429 0.496-0.686 0.7l-0.086 0.069c-0.112 0.086-0.224 0.169-0.361 0.241-0.13 0.08-0.263 0.154-0.4 0.22l-0.073 0.033c-0.294 0.137-0.6 0.245-0.916 0.321-0.531 0.125-1.077 0.178-1.623 0.155-0.446-0.02-0.889-0.081-1.324-0.18 0.018-0.78-0.262-1.538-0.783-2.119-0.52-0.581-1.242-0.943-2.02-1.011-0.777-0.069-1.551 0.161-2.165 0.642-0.614 0.482-1.022 1.179-1.141 1.95-0.12 0.771 0.059 1.558 0.499 2.203 0.44 0.644 1.109 1.097 1.871 1.266 0.761 0.169 1.559 0.043 2.23-0.354 0.672-0.397 1.168-1.035 1.387-1.784v-0.079c0.462 0.102 0.933 0.164 1.406 0.184 1.72 0.034 3.421 0.37 5.025 0.992l0.101 0.039 4.404 4.408c0.117 0.118 0.256 0.211 0.409 0.275 0.152 0.063 0.316 0.096 0.482 0.096s0.33-0.033 0.483-0.096c0.153-0.064 0.291-0.157 0.408-0.275 0.235-0.235 0.367-0.554 0.367-0.887s-0.132-0.652-0.367-0.887l-4.386-4.39-0.04-0.101c-0.617-1.597-0.95-3.289-0.985-5-8e-3 -0.305-0.035-0.61-0.079-0.912-0.385-2.193-1.455-4.207-3.055-5.753-3.466-3.456-8.383-4.167-10.965-1.58-2.396 2.395-2.002 6.792 0.916 10.233 0.031 0.036 0.068 0.065 0.11 0.087 0.043 0.021 0.089 0.034 0.136 0.038s0.095-2e-3 0.14-0.017c0.045-0.014 0.086-0.038 0.122-0.068zm0.722 1.15c0.22-0.222 0.483-0.398 0.772-0.519 0.032 0.049 0.06 0.101 0.083 0.155v0.05c0.013 0.038 0.024 0.077 0.032 0.116v0.065c2e-3 0.036 2e-3 0.072 0 0.108v0.068c2e-3 0.035 2e-3 0.07 0 0.105v0.065c-9e-3 0.035-0.02 0.07-0.032 0.105 0 0.021 0 0.039-0.022 0.061-0.017 0.037-0.036 0.073-0.058 0.108l-0.029 0.047c-0.067 0.102-0.154 0.189-0.256 0.256l-0.05 0.029-0.105 0.054-0.065 0.022-0.101 0.029h-0.407l-0.119-0.036h-0.047c-0.053-0.024-0.104-0.051-0.152-0.083 0.125-0.302 0.311-0.574 0.545-0.801zm0 3.362c-0.24-0.24-0.426-0.529-0.545-0.847s-0.168-0.658-0.144-0.996h0.036l0.079 0.029c0.067 0.024 0.136 0.045 0.206 0.061l0.094 0.018c0.074 0.012 0.148 0.019 0.223 0.022h0.069c0.097-2e-3 0.193-0.011 0.288-0.029h0.058c0.076-0.017 0.151-0.038 0.224-0.065l0.086-0.036c0.066-0.03 0.13-0.063 0.191-0.101l0.08-0.047c0.084-0.057 0.162-0.121 0.234-0.191 0.072-0.073 0.138-0.153 0.195-0.238l0.047-0.076c0.038-0.062 0.071-0.125 0.101-0.191l0.036-0.087c0.027-0.074 0.049-0.15 0.065-0.227v-0.054c0.017-0.095 0.025-0.192 0.025-0.289v-0.079c-2e-3 -0.073-0.01-0.145-0.021-0.217 0-0.032 0-0.064-0.022-0.097-0.016-0.07-0.037-0.138-0.061-0.206 0-0.028-0.018-0.054-0.029-0.079v-0.029c0.337-0.021 0.675 0.029 0.991 0.148s0.603 0.305 0.842 0.544c0.239 0.238 0.425 0.526 0.544 0.842s0.169 0.654 0.148 0.991h-0.026c-0.069-0.027-0.14-0.05-0.212-0.068-0.037 0-0.073-0.026-0.112-0.033-0.113-0.024-0.228-0.036-0.343-0.036-0.271-2e-3 -0.538 0.062-0.778 0.188s-0.444 0.309-0.596 0.534l-0.047 0.079c-0.037 0.06-0.069 0.123-0.098 0.187l-0.036 0.087c-0.027 0.074-0.048 0.15-0.065 0.227v0.058c-0.016 0.095-0.025 0.192-0.025 0.289v0.075c3e-3 0.074 0.01 0.148 0.022 0.22 0 0.033 0 0.062 0.018 0.094 0.017 0.071 0.039 0.141 0.065 0.209 0 0.026 0 0.051 0.029 0.076v0.029c-0.339 0.024-0.679-0.025-0.998-0.143-0.318-0.118-0.608-0.303-0.849-0.542zm3.361 0c-0.224 0.226-0.491 0.405-0.786 0.527-0.032-0.049-0.06-0.101-0.083-0.156v-0.046c-0.014-0.039-0.026-0.079-0.036-0.119v-0.062c-2e-3 -0.036-2e-3 -0.072 0-0.108v-0.065c-2e-3 -0.036-2e-3 -0.072 0-0.108v-0.065c9e-3 -0.036 0.02-0.07 0.033-0.105 0-0.021 0-0.039 0.021-0.061 0.016-0.036 0.034-0.071 0.054-0.105l0.029-0.05c0.034-0.051 0.073-0.098 0.116-0.141 0.158-0.147 0.359-0.239 0.574-0.261s0.431 0.027 0.616 0.139c-0.127 0.297-0.314 0.566-0.548 0.79zm5.602-1.244 0.166-0.08c0.108-0.058 0.217-0.119 0.321-0.184l0.134-0.079c0.111-0.072 0.216-0.152 0.321-0.231l0.104-0.076c0.295-0.236 0.56-0.506 0.79-0.804l0.105-0.141c0.086-0.118 0.167-0.238 0.241-0.361l0.098-0.165c0.079-0.141 0.148-0.282 0.213-0.43 0-0.039 0.039-0.075 0.054-0.115 0.162 0.887 0.411 1.755 0.743 2.593l-0.465 0.466-0.466 0.465c-0.845-0.336-1.721-0.587-2.615-0.75 0.094-0.033 0.17-0.072 0.245-0.108zm8.04 5.075c-3e-3 0.135-0.059 0.264-0.155 0.36-0.102 0.098-0.237 0.152-0.379 0.152-0.141 0-0.276-0.054-0.378-0.152l-4.177-4.155 0.757-0.757 4.177 4.173c0.05 0.05 0.089 0.109 0.116 0.174 0.026 0.065 0.04 0.134 0.039 0.205z" fill="#fff"/>
    </g>
   <g class="city-beach" data-popup-text="Міський пляж">
 		<path d="m62.953 15.156c-2.9247-5.4206-8.7374-9.1565-15.428-9.1565-6.0321 0-11.881 2.981-15.025 7.5593l-3.9483-3.6403c-0.4021-0.29301-0.8042-0.62265-1.2064-0.91565-2.8149-1.9046-6.2148-3.0034-9.8706-3.0034-4.2042 0-8.0428 1.465-11.04 3.8824-0.14624 0.10988-0.29247 0.25643-0.47526 0.40293-1.243 1.0621-2.3032 2.3074-3.2171 3.6626-0.10967 0.1831-0.21934 0.3296-0.32902 0.5127-0.18279 0.3297-0.36558 0.6593-0.54837 0.9889-0.65804 1.282-1.1333 2.6738-1.4623 4.1022-0.036558 0.2197-0.073116 0.4029-0.10967 0.6226-0.18279 0.9889-0.29246 2.0145-0.29246 3.04 0 0.6226 0.036558 1.2453 0.10967 1.8313 0.036558 0.1831 0.036558 0.3663 0.073116 0.5494 0.14623 1.1354 0.4387 2.1976 0.80427 3.2597 0.47526 1.5383 1.7548 3.5528 2.0107 3.919 0 0.0367 0.03656 0.0367 0.03656 0.0733 0.10967 0.1465 0.21935 0.293 0.29246 0.4395 0 0.0366 0.03656 0.0366 0.03656 0.0732 0.10967 0.1465 0.21935 0.2931 0.32902 0.4396 0.03656 0.0366 0.07312 0.1098 0.10967 0.1465 0.07312 0.1098 0.18279 0.2197 0.25591 0.3296 0.10967 0.1465 0.25591 0.293 0.40214 0.4395l0.03656 0.0366c0.29246 0.293 0.54836 0.5861 0.84083 0.8791 0.03656 0 0.03656 0.0366 0.07311 0.0366l2.23 1.8313 3.473 2.8935 17.402 14.467 3.5827 3.0033c0.2193 0.1832 0.5849 0.1832 0.8042 0l11.004-9.1565 3.6192-3.0033 4.4235-3.6993 1.8279-1.5017 0.0731-0.0732 0.2559-0.2198 2.9612-2.4905 0.0731-0.0733 2.4494-1.9778c0.0366 0 0.0366-0.0366 0.0731-0.0366 1.6817-1.6116 3.0709-3.5528 3.9849-5.7137 0.8773-2.0511 1.3526-4.2853 1.3526-6.666 0-2.9667-0.7312-5.7137-2.0472-8.0944z" class="heart"/>
    	<g fill="#fff" stroke="#fff" stroke-width=".5">
	     <path d="m42 31.831h-19l0.0108-0.2059c0.1301-1.8968 1.1272-3.696 2.8072-5.0508l0.0217-0.0109c0.0108-0.0108 1.5933-1.1488 3.1757-2.2761 3.0998-2.1893 3.3816-2.2869 3.5009-2.2869 0.1192-0.0108 0.401 0.0976 3.49 2.2869 1.5824 1.1273 3.154 2.2653 3.1648 2.2761l0.0217 0.0109c1.68 1.3548 2.6663 3.1432 2.8072 5.0508zm-18.599-0.3794h18.187c-0.1842-1.7233-1.1163-3.3382-2.6446-4.5738-2.2544-1.6367-5.9395-4.2596-6.4381-4.4872-0.4986 0.2276-4.1945 2.8397-6.4598 4.4763l-0.1192-0.1409 0.1192 0.1518c-1.5282 1.2356-2.4603 2.8613-2.6446 4.5738z"/>
	     <path d="m35.823 31.658c0-0.0326-0.2167-3.4467-3.4791-9.3646l0.3359-0.1842c3.295 6.0045 3.5117 9.3862 3.5226 9.5271z"/>
	     <path d="m29.178 31.658-0.3794-0.0217c0.0109-0.1409 0.2168-3.5226 3.5226-9.5271l0.336 0.1842c-1.7017 3.089-2.5579 5.4735-2.9698 6.9259-0.4552 1.5716-0.5094 2.4278-0.5094 2.4387z"/>
	     <path d="m32.645 31.734h-0.3794v10.372h0.3794z"/>
    	</g>
   	</g>
    <g class="football-field" data-popup-text="Футбольне поле">
		<path d="m85.953 128.16c-2.9247-5.421-8.7374-9.157-15.428-9.157-6.0321 0-11.881 2.981-15.025 7.559l-3.9483-3.64c-0.4021-0.293-0.8042-0.623-1.2064-0.916-2.8149-1.904-6.2148-3.003-9.8706-3.003-4.2042 0-8.0428 1.465-11.04 3.882-0.1462 0.11-0.2925 0.257-0.4753 0.403-1.2429 1.062-2.3031 2.308-3.2171 3.663-0.1096 0.183-0.2193 0.33-0.329 0.513-0.1828 0.329-0.3656 0.659-0.5483 0.989-0.6581 1.281-1.1333 2.673-1.4624 4.102-0.0365 0.219-0.0731 0.403-0.1096 0.622-0.1828 0.989-0.2925 2.015-0.2925 3.04 0 0.623 0.0366 1.246 0.1097 1.832 0.0365 0.183 0.0365 0.366 0.0731 0.549 0.1462 1.135 0.4387 2.198 0.8043 3.26 0.4752 1.538 1.7547 3.552 2.0107 3.919 0 0.036 0.0365 0.036 0.0365 0.073 0.1097 0.146 0.2194 0.293 0.2925 0.439 0 0.037 0.0365 0.037 0.0365 0.074 0.1097 0.146 0.2194 0.293 0.3291 0.439 0.0365 0.037 0.0731 0.11 0.1096 0.147 0.0731 0.11 0.1828 0.22 0.2559 0.329 0.1097 0.147 0.2559 0.293 0.4022 0.44l0.0365 0.037c0.2925 0.293 0.5484 0.586 0.8409 0.879 0.0365 0 0.0365 0.036 0.0731 0.036l2.23 1.832 3.473 2.893 17.402 14.467 3.5827 3.004c0.2193 0.183 0.5849 0.183 0.8042 0l11.004-9.157 3.6192-3.003 4.4235-3.699 1.8279-1.502 0.0731-0.073 0.2559-0.22 2.9612-2.491 0.0731-0.073 2.4494-1.978c0.0366 0 0.0366-0.036 0.0731-0.036 1.6817-1.612 3.0709-3.553 3.9849-5.714 0.8773-2.051 1.3526-4.285 1.3526-6.666 0-2.967-0.7312-5.714-2.0472-8.094z" class="heart"/>
    	<path d="m56.781 154.98c0.0382-2e-3 0.0763-5e-3 0.1145-7e-3l0.1188-9e-3 0.0315-3e-3c2.3019-0.194 4.4408-1.204 6.0924-2.894 0.0361-0.037 0.0714-0.075 0.107-0.113 0.0078-8e-3 0.0158-0.016 0.0236-0.024 0.0348-0.037 0.0691-0.075 0.1033-0.112 0.0035-4e-3 0.0069-8e-3 0.0104-0.012 1.69-1.856 2.6171-4.26 2.6171-6.81 0-2.671-1.0162-5.183-2.8614-7.071-1.6525-1.692-3.7929-2.702-6.0966-2.894-0.0088-1e-3 -0.0175-2e-3 -0.0263-3e-3 -0.04-3e-3 -0.0802-6e-3 -0.1203-9e-3 -0.0377-2e-3 -0.0752-5e-3 -0.1129-7e-3 -0.0314-2e-3 -0.0628-3e-3 -0.0943-5e-3 -0.0613-3e-3 -0.1227-5e-3 -0.1841-7e-3 -0.0205 0-0.041-1e-3 -0.0615-1e-3 -0.071-2e-3 -0.142-3e-3 -0.213-3e-3 -0.0709 0-0.1418 1e-3 -0.2128 3e-3 -0.0206 0-0.0412 1e-3 -0.0618 1e-3 -0.0607 2e-3 -0.1214 4e-3 -0.182 7e-3 -0.0329 2e-3 -0.0658 4e-3 -0.0987 5e-3 -0.0363 3e-3 -0.0726 5e-3 -0.1088 7e-3 -0.0412 3e-3 -0.0823 6e-3 -0.1235 9e-3 -0.0056 1e-3 -0.0113 1e-3 -0.0169 2e-3 -2.3063 0.191-4.4496 1.202-6.1038 2.895-1.8451 1.888-2.8613 4.4-2.8613 7.071s1.0162 5.182 2.8613 7.071c0.8606 0.881 1.8536 1.577 2.9328 2.069h-6.8337c-0.2322 0-0.4204 0.193-0.4204 0.43s0.1882 0.43 0.4204 0.43h11.079c0.0231 0 0.0456-2e-3 0.0677-6e-3 0.0406-2e-3 0.0813-3e-3 0.1219-5e-3 0.0309-2e-3 0.0616-3e-3 0.0924-5e-3zm-9.0168-7.075c-0.0187-0.057-0.0369-0.114-0.0545-0.171-6e-3 -0.02-0.0119-0.04-0.0177-0.059-0.0119-0.04-0.0233-0.079-0.0346-0.119l0.3709-0.659 0.8308-1.471h3.3214l1.6605 2.944-1.6606 2.945h-2.3963c-0.8879-0.949-1.5784-2.092-2.0034-3.361-0.0056-0.016-0.0111-0.033-0.0165-0.049zm-0.0602-5.629c0.4162-1.364 1.1368-2.591 2.08-3.599h2.3958l0.44 0.779 1.2211 2.165-0.9321 1.653-0.7284 1.292h-3.3212l-1.2018-2.13c0.014-0.049 0.0279-0.098 0.0426-0.146 0.0014-5e-3 0.0027-9e-3 4e-3 -0.014zm6.4746-6.177c0.036-8e-3 0.0722-0.017 0.1083-0.025 0.0389-9e-3 0.0778-0.018 0.1168-0.026 0.072-0.015 0.1441-0.03 0.2164-0.043 0.0049-1e-3 0.0097-2e-3 0.0147-3e-3 1.05-0.193 2.1361-0.193 3.1858-1e-3 0.0169 3e-3 0.0336 7e-3 0.0504 0.01 0.0598 0.012 0.1195 0.023 0.1791 0.036 0.0454 0.01 0.0906 0.02 0.1358 0.03 0.0289 7e-3 0.0579 0.014 0.0868 0.021 0.0257 6e-3 0.0513 0.012 0.077 0.019l1.2009 2.13-1.6605 2.944h-3.3211l-0.8303-1.473-0.35-0.62-0.4802-0.851 1.201-2.13c0.023-6e-3 0.046-0.012 0.0691-0.018zm10.583 6.199c0.0138 0.046 0.027 0.091 0.04 0.137l-1.2018 2.131h-3.321l-1.6606-2.945 1.6606-2.944h2.3962c0.9422 1.007 1.6623 2.232 2.0787 3.595 0.0027 8e-3 0.0053 0.017 0.0079 0.026zm0.0015 5.391c-0.0035 0.011-7e-3 0.023-0.0105 0.035-0.0202 0.066-0.041 0.131-0.0626 0.197-9e-4 3e-3 -2e-3 6e-3 -3e-3 9e-3 -0.4244 1.278-1.1184 2.43-2.012 3.385h-2.3961l-1.6606-2.945 1.6605-2.944h3.3212l1.2018 2.13c-0.0127 0.045-0.0254 0.089-0.0387 0.133zm-10.194 0.251-1.6606-2.944 0.517-0.917 1.1436-2.028h3.321l1.2592 2.233 0.4013 0.712-1.5076 2.673-0.1529 0.271zm-7.2687-2.944c0-0.445 0.0318-0.882 0.092-1.31l0.7387 1.31-0.7389 1.308c-0.0601-0.427-0.0918-0.864-0.0918-1.308zm12.978 7.179h1.4713c-0.6666 0.538-1.4097 0.981-2.2096 1.309zm4.0491-7.179 0.7388-1.31c0.0602 0.428 0.092 0.865 0.092 1.31s-0.0318 0.882-0.092 1.309zm-4.0492-7.179-0.7382-1.309c0.7998 0.328 1.543 0.771 2.2096 1.309zm-8.0985 0h-1.4717c0.6668-0.538 1.4101-0.981 2.2101-1.31zm1e-4 14.358 0.7384 1.31c-0.8001-0.329-1.5434-0.772-2.2102-1.31zm0.7281-0.43 1.6606-2.946h3.321l1.6606 2.946-1.201 2.13c-0.0256 6e-3 -0.0512 0.013-0.0769 0.019-0.0291 7e-3 -0.0582 0.014-0.0873 0.021-0.0449 0.01-0.0898 0.02-0.1349 0.03-0.0612 0.013-0.1225 0.025-0.1839 0.037-0.0152 2e-3 -0.0303 6e-3 -0.0455 8e-3 -1.0501 0.193-2.1368 0.193-3.1871 0-0.0027-1e-3 -0.0054-1e-3 -0.0081-2e-3 -0.0746-0.014-0.1489-0.029-0.2231-0.044-0.0381-9e-3 -0.076-0.017-0.1139-0.026-0.0372-8e-3 -0.0743-0.017-0.1113-0.026-0.0228-5e-3 -0.0454-0.011-0.0681-0.017z" fill="#fff"/>
   	</g>
    <g class="culture-center" data-popup-text="Культурний центр">
    	<path d="m719.95 144.16c-2.925-5.421-8.738-9.157-15.428-9.157-6.032 0-11.881 2.981-15.025 7.559l-3.948-3.64c-0.402-0.293-0.805-0.623-1.207-0.916-2.815-1.904-6.215-3.003-9.87-3.003-4.204 0-8.043 1.465-11.041 3.882-0.146 0.11-0.292 0.257-0.475 0.403-1.243 1.062-2.303 2.308-3.217 3.663-0.11 0.183-0.22 0.33-0.329 0.513-0.183 0.329-0.366 0.659-0.549 0.989-0.658 1.281-1.133 2.673-1.462 4.102-0.036 0.219-0.073 0.403-0.11 0.622-0.182 0.989-0.292 2.015-0.292 3.04 0 0.623 0.037 1.246 0.11 1.832 0.036 0.183 0.036 0.366 0.073 0.549 0.146 1.135 0.438 2.198 0.804 3.26 0.475 1.538 1.755 3.552 2.011 3.919 0 0.036 0.036 0.036 0.036 0.073 0.11 0.146 0.22 0.293 0.293 0.439 0 0.037 0.036 0.037 0.036 0.074 0.11 0.146 0.22 0.293 0.329 0.439 0.037 0.037 0.073 0.11 0.11 0.147 0.073 0.11 0.183 0.22 0.256 0.329 0.11 0.147 0.256 0.293 0.402 0.44l0.037 0.037c0.292 0.293 0.548 0.586 0.84 0.879 0.037 0 0.037 0.036 0.074 0.036l2.23 1.832 3.473 2.893 17.401 14.467 3.583 3.004c0.219 0.183 0.585 0.183 0.804 0l11.004-9.157 3.619-3.003 4.424-3.699 1.828-1.502 0.073-0.073 0.256-0.22 2.961-2.491 0.073-0.073 2.449-1.978c0.037 0 0.037-0.036 0.074-0.036 1.681-1.612 3.07-3.553 3.984-5.714 0.878-2.051 1.353-4.285 1.353-6.666 0-2.967-0.731-5.714-2.047-8.094z" class="heart"/>
    	<path d="m700.38 168.89c-0.395 0-0.775-0.157-1.055-0.437-0.279-0.28-0.437-0.659-0.437-1.055 0-0.395 0.158-0.775 0.437-1.054 0.28-0.28 0.66-0.437 1.055-0.437 0.132 0 0.258-0.053 0.352-0.146 0.093-0.093 0.145-0.22 0.145-0.352 0-0.131-0.052-0.258-0.145-0.351-0.094-0.093-0.22-0.146-0.352-0.146h-1.989c-0.395 0-0.775-0.157-1.055-0.437-0.279-0.28-0.437-0.659-0.437-1.055 0-0.395 0.158-0.775 0.437-1.054 0.28-0.28 0.66-0.437 1.055-0.437 0.132 0 0.259-0.053 0.352-0.146s0.145-0.22 0.145-0.351c0-0.132-0.052-0.259-0.145-0.352s-0.22-0.146-0.352-0.146h-5.482c0.62-0.461 1.125-1.061 1.472-1.752 0.348-0.69 0.529-1.452 0.53-2.226 0-2.365-1.679-3.822-4.514-3.964-0.022-0.76 0.126-2.397 1.715-3.032 0.061-0.025 0.116-0.06 0.163-0.106s0.084-0.1 0.11-0.16 0.04-0.125 0.041-0.19c0-0.066-0.012-0.131-0.036-0.191-0.024-0.061-0.06-0.116-0.106-0.163s-0.1-0.084-0.16-0.11c-0.061-0.026-0.125-0.039-0.191-0.04-0.065-1e-3 -0.13 0.012-0.191 0.036-0.534 0.212-1.01 0.548-1.388 0.981s-0.647 0.95-0.784 1.508c-0.384-0.612-0.916-1.119-1.546-1.473-0.631-0.354-1.34-0.545-2.064-0.554-0.07 0-0.14 0.015-0.204 0.044-0.065 0.029-0.122 0.071-0.169 0.124s-0.081 0.116-0.102 0.183c-0.021 0.068-0.027 0.139-0.018 0.209 0.092 0.666 0.327 1.305 0.688 1.872 0.362 0.568 0.841 1.051 1.405 1.417-0.772 0.227-1.447 0.706-1.916 1.359-0.47 0.654-0.709 1.446-0.678 2.25 1e-3 0.774 0.182 1.536 0.529 2.226 0.348 0.691 0.852 1.291 1.472 1.752h-5.482c-0.659 0-1.292 0.262-1.758 0.728-0.466 0.467-0.728 1.099-0.728 1.758 0 0.66 0.262 1.292 0.728 1.758 0.466 0.467 1.099 0.729 1.758 0.729h0.013c-0.331 0.427-0.51 0.951-0.51 1.491s0.179 1.065 0.51 1.492h-0.013c-0.659 0-1.292 0.262-1.758 0.728s-0.728 1.099-0.728 1.758c0 0.66 0.262 1.292 0.728 1.758s1.099 0.728 1.758 0.728h16.906c0.132 0 0.259-0.052 0.352-0.145s0.145-0.22 0.145-0.352-0.052-0.258-0.145-0.351c-0.093-0.094-0.22-0.146-0.352-0.146-0.395 0-0.775-0.157-1.055-0.437-0.279-0.28-0.437-0.659-0.437-1.055 0-0.395 0.158-0.775 0.437-1.055 0.28-0.279 0.66-0.436 1.055-0.436h1.989c0.132 0 0.258-0.053 0.352-0.146 0.093-0.093 0.145-0.22 0.145-0.352s-0.052-0.258-0.145-0.351c-0.094-0.094-0.22-0.146-0.352-0.146zm-3.977-6.961c-0.219 0.294-0.37 0.634-0.442 0.994h-5.526c-0.131 0-0.258 0.053-0.351 0.146s-0.146 0.22-0.146 0.351c0 0.132 0.053 0.259 0.146 0.352s0.22 0.146 0.351 0.146h5.526c0.072 0.36 0.223 0.7 0.442 0.994h-7.957c-0.395 0-0.775-0.157-1.054-0.437-0.28-0.28-0.437-0.659-0.437-1.055 0-0.395 0.157-0.775 0.437-1.054 0.279-0.28 0.659-0.437 1.054-0.437zm-9.796-11.374c1.47 0.294 2.249 1.557 2.603 2.362-0.611-0.112-1.178-0.392-1.638-0.81-0.46-0.417-0.794-0.955-0.965-1.552zm-0.647 6.401c0-2.596 2.493-2.983 3.978-2.983 1.486 0 3.978 0.387 3.978 2.983 0 1.055-0.419 2.067-1.165 2.813s-1.758 1.165-2.813 1.165-2.067-0.419-2.813-1.165-1.165-1.758-1.165-2.813zm-5.967 6.464c1e-3 -0.395 0.158-0.774 0.438-1.054s0.659-0.437 1.054-0.437h4.974c-0.324 0.43-0.499 0.953-0.499 1.491 0 0.539 0.175 1.062 0.499 1.492h-4.974c-0.395 0-0.774-0.158-1.054-0.437-0.28-0.28-0.437-0.659-0.438-1.055zm1.989 3.978c1e-3 -0.395 0.158-0.774 0.438-1.054 0.279-0.28 0.659-0.437 1.054-0.437h4.974c-0.324 0.43-0.499 0.953-0.499 1.491s0.175 1.062 0.499 1.492h-4.974c-0.395 0-0.775-0.158-1.054-0.437-0.28-0.28-0.437-0.659-0.438-1.055zm-0.497 5.47c-0.395 0-0.775-0.157-1.055-0.437-0.279-0.28-0.437-0.659-0.437-1.055 0-0.395 0.158-0.775 0.437-1.055 0.28-0.279 0.66-0.436 1.055-0.436h4.974c-0.324 0.43-0.499 0.953-0.499 1.491s0.175 1.062 0.499 1.492zm14.476-1.989h-5.526c-0.131 0-0.258 0.052-0.351 0.146-0.093 0.093-0.146 0.219-0.146 0.351s0.053 0.259 0.146 0.352 0.22 0.145 0.351 0.145h5.526c0.072 0.361 0.223 0.7 0.442 0.995h-7.957c-0.395 0-0.775-0.157-1.054-0.437-0.28-0.28-0.437-0.659-0.437-1.055 0-0.395 0.157-0.775 0.437-1.055 0.279-0.279 0.659-0.436 1.054-0.436h7.957c-0.219 0.294-0.37 0.634-0.442 0.994zm-5.526-1.989c-0.395 0-0.775-0.157-1.054-0.437-0.28-0.28-0.437-0.659-0.437-1.055 0-0.395 0.157-0.775 0.437-1.054 0.279-0.28 0.659-0.437 1.054-0.437h7.957c-0.219 0.294-0.37 0.634-0.442 0.994h-5.526c-0.132 0-0.258 0.052-0.351 0.146-0.093 0.093-0.146 0.219-0.146 0.351s0.053 0.259 0.146 0.352 0.219 0.146 0.351 0.146h5.526c0.072 0.36 0.223 0.699 0.442 0.994z" fill="#fff"/>
    </g>
   	<g class="kindergarder" data-popup-text="Дитячий садок">
   		 <path d="m274.95 72.156c-2.925-5.4206-8.738-9.1565-15.428-9.1565-6.032 0-11.881 2.981-15.025 7.5593l-3.948-3.6403c-0.402-0.293-0.805-0.6226-1.207-0.9157-2.815-1.9045-6.215-3.0033-9.87-3.0033-4.204 0-8.043 1.465-11.041 3.8824-0.146 0.1099-0.292 0.2564-0.475 0.4029-1.243 1.0621-2.303 2.3074-3.217 3.6626-0.11 0.1831-0.22 0.3296-0.329 0.5127-0.183 0.3297-0.366 0.6593-0.549 0.9889-0.658 1.282-1.133 2.6738-1.462 4.1022-0.036 0.2197-0.073 0.4029-0.11 0.6226-0.182 0.9889-0.292 2.0145-0.292 3.04 0 0.6226 0.037 1.2453 0.11 1.8313 0.036 0.1831 0.036 0.3663 0.073 0.5494 0.146 1.1354 0.438 2.1976 0.804 3.2597 0.475 1.5383 1.755 3.5528 2.011 3.919 0 0.0367 0.036 0.0367 0.036 0.0733 0.11 0.1465 0.22 0.293 0.293 0.4395 0 0.0366 0.036 0.0366 0.036 0.0732 0.11 0.1465 0.22 0.2931 0.329 0.4396 0.037 0.0366 0.073 0.1098 0.11 0.1465 0.073 0.1098 0.183 0.2197 0.256 0.3296 0.11 0.1465 0.256 0.293 0.402 0.4395l0.037 0.0366c0.292 0.293 0.548 0.5861 0.84 0.8791 0.037 0 0.037 0.0366 0.074 0.0366l2.23 1.8313 3.473 2.8935 17.401 14.467 3.583 3.004c0.219 0.183 0.585 0.183 0.804 0l11.004-9.157 3.619-3.003 4.424-3.6995 1.828-1.5017 0.073-0.0732 0.256-0.2198 2.961-2.4905 0.073-0.0733 2.449-1.9778c0.037 0 0.037-0.0366 0.074-0.0366 1.681-1.6116 3.07-3.5528 3.984-5.7137 0.878-2.0511 1.353-4.2853 1.353-6.666 0-2.9667-0.731-5.7137-2.047-8.0944z" class="heart"/>
	    <g fill="#fff" stroke="#fff" stroke-width=".3">
	     <path d="m236.45 84.728c0.181-0.0566 0.282-0.2494 0.225-0.4305-0.056-0.1811-0.249-0.282-0.43-0.2254s-0.282 0.2493-0.225 0.4305c0.056 0.1811 0.249 0.282 0.43 0.2254z"/>
	     <path d="m238.01 85.743c0.273-0.0346 0.466-0.2838 0.431-0.5566-0.034-0.2728-0.284-0.4659-0.556-0.4313-0.273 0.0346-0.466 0.2838-0.432 0.5566 0.035 0.2728 0.284 0.4659 0.557 0.4313z"/>
	     <path d="m239 83.866c0.117-0.1493 0.091-0.3653-0.059-0.4824-0.149-0.117-0.365-0.0909-0.482 0.0585s-0.091 0.3653 0.059 0.4824c0.149 0.1171 0.365 0.0909 0.482-0.0585z"/>
	     <path d="m250.5 98.109c-0.211 0-0.418 0.0627-0.593 0.1801-0.176 0.1174-0.313 0.2843-0.394 0.4796s-0.102 0.4101-0.061 0.6174c0.042 0.2073 0.143 0.3978 0.293 0.5472 0.149 0.1493 0.34 0.2513 0.547 0.2923s0.422 0.02 0.617-0.061c0.196-0.081 0.363-0.2175 0.48-0.3932 0.117-0.1758 0.18-0.3824 0.18-0.5937 0-0.2835-0.113-0.5553-0.313-0.7557s-0.472-0.313-0.756-0.313zm0 1.552c-0.096 0-0.19-0.0286-0.27-0.0821-0.08-0.0536-0.142-0.1297-0.179-0.2187-0.037-0.0891-0.046-0.187-0.027-0.2814s0.065-0.181 0.134-0.2489c0.068-0.0679 0.155-0.114 0.249-0.1324 0.095-0.0185 0.193-0.0084 0.282 0.0288 0.088 0.0373 0.164 0.1001 0.217 0.1804 0.053 0.0804 0.081 0.1747 0.081 0.271 0 0.1289-0.052 0.2526-0.143 0.3438s-0.215 0.1424-0.344 0.1424z"/>
	     <path d="m238.61 98.109c-0.212 0-0.418 0.0627-0.594 0.1801s-0.313 0.2843-0.394 0.4796c-0.08 0.1953-0.102 0.4101-0.06 0.6174 0.041 0.2073 0.143 0.3978 0.292 0.5472 0.15 0.1493 0.34 0.2513 0.547 0.2923 0.208 0.041 0.422 0.02 0.618-0.061 0.195-0.081 0.362-0.2175 0.479-0.3932 0.118-0.1758 0.18-0.3824 0.18-0.5937 0-0.2835-0.112-0.5553-0.313-0.7557-0.2-0.2004-0.472-0.313-0.755-0.313zm0 1.552c-0.097 0-0.191-0.0286-0.271-0.0821-0.08-0.0536-0.142-0.1297-0.179-0.2187-0.037-0.0891-0.046-0.187-0.027-0.2814s0.066-0.181 0.134-0.2489 0.155-0.114 0.25-0.1324c0.094-0.0185 0.192-0.0084 0.281 0.0288 0.089 0.0373 0.164 0.1001 0.217 0.1804 0.054 0.0804 0.082 0.1747 0.081 0.271 0 0.1289-0.051 0.2526-0.142 0.3438-0.092 0.0912-0.215 0.1424-0.344 0.1424z"/>
	     <path d="m254 83.93c0.111-0.2142 0.027-0.4778-0.187-0.5887s-0.478-0.0272-0.589 0.1871c-0.111 0.2142-0.027 0.4778 0.187 0.5887 0.215 0.1109 0.478 0.0271 0.589-0.1871z"/>
	     <path d="m251.83 82.807c0.111-0.2142 0.027-0.4778-0.187-0.5887s-0.478-0.0271-0.589 0.1871c-0.11 0.2142-0.027 0.4778 0.187 0.5887 0.215 0.1109 0.478 0.0271 0.589-0.1871z"/>
	     <path d="m251.29 85.297c0.313 0.1623 0.661 0.2472 1.013 0.2475 0.333 1e-3 0.662-0.0747 0.961-0.2213 0.064-0.0372 0.111-0.097 0.132-0.1674s0.015-0.1463-0.018-0.2123c-0.032-0.0659-0.088-0.1172-0.157-0.1435-0.069-0.0262-0.145-0.0255-0.213 2e-3 -0.228 0.1105-0.478 0.1661-0.731 0.1621-0.253-0.0039-0.502-0.0672-0.726-0.1848s-0.417-0.2861-0.564-0.4921c-0.147-0.2059-0.244-0.4435-0.282-0.6936-6e-3 -0.0383-0.019-0.075-0.039-0.1083-0.019-0.0332-0.046-0.0622-0.077-0.0853-0.03-0.0231-0.066-0.0399-0.103-0.0494-0.038-0.0095-0.077-0.0115-0.115-6e-3s-0.075 0.0186-0.108 0.0383c-0.033 0.0198-0.062 0.0459-0.085 0.0768-0.023 0.031-0.04 0.0662-0.05 0.1037-9e-3 0.0374-0.011 0.0764-6e-3 0.1146 0.053 0.343 0.186 0.6686 0.389 0.9501 0.203 0.2814 0.47 0.5107 0.779 0.6689z"/>
	     <path d="m256.38 87.822-2.152-1.5928 0.049-0.0233c0.01 0.0084 0.019 0.0162 0.029 0.0233 0.319 0.1432 0.665 0.2138 1.014 0.2067 0.538 0 1.092-0.1572 1.307-0.5823v-0.0262c0.485-0.9314 0.658-1.9938 0.493-3.0307s-0.658-1.9935-1.407-2.729c0.099-0.1427 0.17-0.3027 0.21-0.4717 0.055-0.2362 0.047-0.4827-0.024-0.7147-0.07-0.232-0.201-0.4414-0.378-0.607s-0.395-0.2816-0.631-0.3364c-0.236-0.0547-0.483-0.0463-0.715 0.0245l-1.438 0.4339-1.077-1.0163c-0.259-0.2462-0.603-0.3824-0.96-0.3798-0.357 0.0027-0.7 0.1439-0.955 0.394-0.255 0.25-0.402 0.5894-0.412 0.9464s0.12 0.7037 0.361 0.9671c-0.782 0.4666-1.418 1.1436-1.834 1.9539l-0.027 0.0524c-0.349 0.6755 0.394 1.4734 0.95 1.8257 0 0.0437 0 0.0874 0.014 0.131l-2.504-0.7512c-0.203-0.0659-0.416-0.09-0.629-0.071-0.212 0.019-0.418 0.0808-0.606 0.1816-0.38 0.1978-0.667 0.5365-0.8 0.9435-0.136 0.4047-0.106 0.8467 0.084 1.2289s0.524 0.6733 0.929 0.8094l1.403 0.463-0.425 0.8386c-0.377-0.1202-0.769-0.1869-1.164-0.198-6e-3 -0.2412-0.066-0.478-0.176-0.6927-0.11-0.2148-0.267-0.4019-0.459-0.5475s-0.415-0.2459-0.652-0.2933c-0.236-0.0474-0.48-0.0408-0.714 0.0193l-2.224 0.5562c0.321-0.6193 0.408-1.3339 0.244-2.0121-0.086-0.3398-0.234-0.6608-0.437-0.9464 0.151-0.1416 0.267-0.3164 0.339-0.5105 0.071-0.1941 0.097-0.4022 0.074-0.6079-0.022-0.2056-0.093-0.4032-0.205-0.5771s-0.263-0.3192-0.441-0.4246-0.378-0.1679-0.585-0.1826c-0.206-0.0147-0.413 0.0189-0.604 0.098-0.192 0.0791-0.362 0.2017-0.497 0.3579-0.136 0.1562-0.233 0.3419-0.285 0.5423-0.991-0.1487-2 0.1016-2.807 0.6959-0.161-0.1787-0.368-0.3107-0.598-0.3819-0.23-0.0713-0.475-0.0791-0.709-0.0228-0.169 0.0378-0.329 0.1087-0.471 0.2087-0.141 0.0999-0.261 0.2269-0.353 0.3737-0.11 0.1714-0.176 0.3665-0.194 0.5688-0.018 0.2024 0.013 0.4062 0.09 0.5942s0.198 0.3548 0.353 0.4863c0.155 0.1316 0.339 0.224 0.537 0.2696-0.064 0.3783-0.05 0.7657 0.04 1.1385 0.175 0.6778 0.588 1.2695 1.165 1.6656l-2.329 0.5824c-0.407 0.1077-0.755 0.3713-0.969 0.7338-0.215 0.3625-0.277 0.7948-0.175 1.2032s0.361 0.7601 0.721 0.9791c0.359 0.2189 0.79 0.2875 1.2 0.1908l0.714-0.1776c0.149-0.037 0.307-0.0134 0.439 0.0657s0.227 0.2073 0.265 0.3565l0.073 0.2912h-0.853c-0.077 0-0.151 0.0307-0.206 0.0853s-0.085 0.1287-0.085 0.2059v7.5708c0 0.0773 0.03 0.1513 0.085 0.2059s0.129 0.0853 0.206 0.0853h1.398c0.074 0.6388 0.38 1.2278 0.86 1.6548 0.48 0.428 1.1 0.664 1.743 0.664s1.263-0.236 1.743-0.664c0.48-0.427 0.786-1.016 0.86-1.6548h6.732c0.074 0.6388 0.38 1.2278 0.86 1.6548 0.48 0.428 1.101 0.664 1.743 0.664 0.643 0 1.263-0.236 1.743-0.664 0.48-0.427 0.787-1.016 0.861-1.6548h1.84c0.077 0 0.151-0.0307 0.206-0.0853 0.054-0.0546 0.085-0.1286 0.085-0.2059v-7.5708c0-0.0772-0.031-0.1513-0.085-0.2059-0.055-0.0546-0.129-0.0853-0.206-0.0853h-2.822l0.987-1.9102 1.32 0.9842c0.167 0.1351 0.361 0.2348 0.568 0.2934 0.207 0.0585 0.424 0.0747 0.638 0.0474s0.42-0.0974 0.606-0.2061c0.186-0.1088 0.348-0.2539 0.476-0.4268 0.129-0.1728 0.221-0.3698 0.272-0.5792s0.059-0.4269 0.023-0.6394c-0.035-0.2125-0.113-0.4157-0.229-0.5974-0.115-0.1817-0.267-0.3382-0.444-0.4601zm-6.759-6.0072 0.041-0.0815c0.029-0.058 0.07-0.1091 0.12-0.1498s0.109-0.0701 0.171-0.0861c0.26-0.0554 0.524-0.0827 0.789-0.0815 0.797 0.0112 1.579 0.2107 2.283 0.5824 0.922 0.4555 1.672 1.1971 2.138 2.114 0.028 0.0604 0.044 0.1266 0.044 0.1936s-0.016 0.1332-0.044 0.1936l-0.07 0.1398c-0.682 1.3162-2.464 1.7471-3.969 0.9755-1.506-0.7717-2.184-2.4809-1.503-3.8zm4.741-3.2846c0.133-0.04 0.275-0.0442 0.411-0.0122 0.135 0.0321 0.26 0.0992 0.362 0.1947 0.101 0.0955 0.176 0.216 0.216 0.3495 0.04 0.1334 0.045 0.2751 0.013 0.4108s-0.099 0.2607-0.194 0.3624-0.216 0.1765-0.349 0.217c-0.134 0.0405-0.275 0.0452-0.411 0.0136-0.136-0.0315-0.261-0.0982-0.363-0.1934l-1.004-0.9434zm-4.423-0.3174c0.031-0.1366 0.097-0.2626 0.193-0.365 0.096-0.1023 0.217-0.1773 0.351-0.2173 0.076-0.023 0.154-0.0347 0.233-0.035 0.202-2e-4 0.395 0.0769 0.542 0.2155l1.004 0.9434-1.319 0.399c-0.133 0.0403-0.275 0.0449-0.411 0.0132-0.135-0.0317-0.26-0.0985-0.362-0.1938s-0.177-0.2157-0.218-0.349c-0.04-0.1334-0.045-0.2751-0.013-0.411zm-1.418 3.9136c-0.169-0.2242-0.233-0.4252-0.172-0.5416l0.026-0.0524c0.407-0.8006 1.056-1.4526 1.855-1.8636 0.152 0.0587 0.314 0.0893 0.477 0.0902 0.138-4e-4 0.274-0.021 0.405-0.0611l1.439-0.4339 1.094 1.0279c0.254 0.2404 0.589 0.3749 0.938 0.3756 0.251-2e-4 0.498-0.0686 0.713-0.198 0.67 0.6478 1.111 1.4946 1.26 2.4139 0.148 0.9194-4e-3 1.8622-0.435 2.6877v0.0262c-0.126 0.2417-0.769 0.3087-1.235 0.2126 0.295-0.25 0.539-0.5557 0.716-0.8998l0.076-0.1485c0.066-0.1386 0.101-0.2903 0.101-0.444s-0.035-0.3055-0.101-0.4441c-0.544-1.0371-1.398-1.8784-2.443-2.4062-1.045-0.5279-2.229-0.7158-3.387-0.5377-0.147 0.0338-0.284 0.0997-0.403 0.1928s-0.216 0.2112-0.284 0.3459l-0.041 0.0786c-0.143 0.2787-0.242 0.5785-0.291 0.8881-0.113-0.0919-0.216-0.1953-0.308-0.3086zm2.329 4.0096c0.563 0.2942 1.188 0.449 1.823 0.4513 0.305 1e-4 0.61-0.0381 0.905-0.1135l0.347 0.2562c-0.475 0.469-1.089 0.7729-1.75 0.8668s-1.335-0.0271-1.922-0.3451c-0.587-0.3181-1.057-0.8164-1.339-1.4214-0.283-0.6051-0.363-1.285-0.23-1.9393 1e-3 -0.0155 1e-3 -0.0311 0-0.0466l0.253 0.0757c0.32 0.9621 1.008 1.7585 1.913 2.2159zm-6.039-2.3906c0.088-0.262 0.274-0.48 0.518-0.6086 0.12-0.0647 0.252-0.1043 0.388-0.1163 0.135-0.012 0.272 0.0038 0.401 0.0464l0.123 0.0379-0.653 1.9888-0.134-0.0466c-0.257-0.0876-0.47-0.2738-0.59-0.5178-0.121-0.244-0.14-0.5259-0.053-0.7838zm3.753 7.5708h-5.561c0.133-0.5054 0.374-0.976 0.705-1.3797 0.332-0.4037 0.747-0.731 1.217-0.9594 0.471-0.2284 0.984-0.3525 1.507-0.364 0.522-0.0114 1.041 0.0902 1.521 0.2979 0.411 0.6003 0.631 1.3108 0.632 2.0383-6e-3 0.1252-6e-3 0.2475-0.021 0.3669zm-2.038-3.3137c-0.966-0.0027-1.903 0.3242-2.658 0.9268-0.754 0.6025-1.281 1.4446-1.491 2.3869h-1.04c0-0.1194-0.023-0.2417-0.023-0.3611-5e-3 -0.6777 0.181-1.3432 0.535-1.9209 0.355-0.5777 0.864-1.0445 1.47-1.3476 0.607-0.3032 1.286-0.4304 1.96-0.3674 0.675 0.0631 1.319 0.3139 1.858 0.7241-0.205-0.0287-0.412-0.0423-0.62-0.0408zm-6.954-6.9127c0.161-0.0397 0.329-0.0258 0.481 0.0395 0.151 0.0654 0.277 0.1786 0.358 0.3224 0.081 0.1437 0.113 0.31 0.09 0.4735-0.023 0.1634-0.098 0.3149-0.215 0.4312-0.215-0.2034-0.457-0.3759-0.719-0.5125-0.173-0.0888-0.354-0.1628-0.539-0.2213 0.035-0.1291 0.104-0.2466 0.2-0.3402 0.096-0.0937 0.215-0.1602 0.344-0.1926zm-5.634 2.1839c-0.036-0.1603-0.019-0.3279 0.049-0.4776 0.067-0.1496 0.182-0.273 0.327-0.3514 0.144-0.0785 0.31-0.1076 0.472-0.0831 0.163 0.0246 0.313 0.1015 0.427 0.219-0.349 0.3496-0.615 0.7736-0.777 1.2405-0.123-0.0408-0.233-0.1122-0.32-0.2075s-0.148-0.2113-0.178-0.337zm0.987 2.0091c-0.1-0.4547-0.072-0.9284 0.083-1.3677 0.154-0.4394 0.428-0.8269 0.791-1.119 0.379-0.3213 0.827-0.5505 1.31-0.6697 0.731-0.1912 1.507-0.1083 2.181 0.2329 0.304 0.1501 0.572 0.3638 0.786 0.6266 0.214 0.2627 0.369 0.5684 0.454 0.8963 0.338 1.354-0.646 2.7692-2.195 3.1565s-3.072-0.4018-3.41-1.753zm1.022 5.5966c-0.076-0.2966-0.266-0.5512-0.529-0.7087-0.263-0.1576-0.577-0.2052-0.874-0.1328l-0.714 0.1776c-0.261 0.0623-0.536 0.0192-0.765-0.1201-0.23-0.1392-0.395-0.3633-0.46-0.6236-0.065-0.2604-0.025-0.5359 0.112-0.7668 0.136-0.2309 0.359-0.3986 0.618-0.4666l2.965-0.7396c0.401 0.1467 0.825 0.2216 1.252 0.2213 0.314-7e-4 0.627-0.0398 0.931-0.1165 0.731-0.179 1.389-0.5749 1.89-1.1356 0.022 0.0023 0.043 0.0023 0.064 0l2.784-0.696c0.262-0.0651 0.54-0.0235 0.771 0.1157 0.232 0.1393 0.398 0.3647 0.464 0.6269 0.018 0.0734 0.027 0.1486 0.029 0.2242-1.036 0.1185-1.992 0.6135-2.687 1.3909s-1.079 1.7829-1.081 2.8254c0 0.1194 0 0.2417 0.017 0.3611h-4.676zm2.656 10.337c-0.403 0-0.797-0.119-1.133-0.343-0.335-0.224-0.596-0.542-0.75-0.9149-0.155-0.3725-0.195-0.7823-0.116-1.1777 0.078-0.3954 0.272-0.7586 0.558-1.0437 0.285-0.285 0.648-0.4792 1.043-0.5578 0.396-0.0787 0.805-0.0383 1.178 0.116 0.372 0.1543 0.691 0.4155 0.915 0.7507s0.343 0.7293 0.343 1.1324c0 0.5406-0.215 1.059-0.597 1.441-0.382 0.383-0.901 0.597-1.441 0.597zm11.938 0c-0.403 0-0.797-0.119-1.132-0.343s-0.596-0.542-0.751-0.9149c-0.154-0.3725-0.194-0.7823-0.116-1.1777 0.079-0.3954 0.273-0.7586 0.558-1.0437 0.285-0.285 0.648-0.4792 1.044-0.5578 0.395-0.0787 0.805-0.0383 1.177 0.116 0.373 0.1543 0.691 0.4155 0.915 0.7507s0.344 0.7293 0.344 1.1324c0 0.5406-0.215 1.059-0.597 1.441-0.383 0.383-0.901 0.597-1.442 0.597zm2.604-2.3292c-0.074-0.6384-0.381-1.2274-0.861-1.6548-0.48-0.4275-1.1-0.6637-1.743-0.6637-0.642 0-1.263 0.2362-1.743 0.6637-0.48 0.4274-0.786 1.0164-0.86 1.6548h-6.732c-0.074-0.6384-0.38-1.2274-0.86-1.6548-0.48-0.4275-1.1-0.6637-1.743-0.6637s-1.263 0.2362-1.743 0.6637c-0.48 0.4274-0.786 1.0164-0.86 1.6548h-1.107v-3.931c0.198 0.1593 0.362 0.3575 0.481 0.5824 0.265 0.4251 0.582 0.9522 1.266 0.9522 0.685 0 1.002-0.5271 1.267-0.9522s0.44-0.6697 0.772-0.6697c0.331 0 0.509 0.2591 0.771 0.6784s0.583 0.9522 1.267 0.9522 1.001-0.527 1.266-0.9522c0.265-0.4251 0.437-0.6784 0.772-0.6784s0.51 0.2591 0.772 0.6784 0.582 0.9522 1.266 0.9522c0.685 0 1.002-0.527 1.267-0.9522 0.265-0.4251 0.437-0.6784 0.772-0.6784s0.509 0.2562 0.771 0.6784c0.262 0.4223 0.583 0.9522 1.267 0.9522s1.002-0.527 1.267-0.9522c0.265-0.4251 0.436-0.6784 0.771-0.6784s0.51 0.2591 0.775 0.6784 0.582 0.9522 1.267 0.9522c0.684 0 1.001-0.527 1.266-0.9522 0.12-0.2252 0.284-0.4235 0.484-0.5823v3.9222zm1.549-4.5599c-0.481 0.1281-0.752 0.5532-0.976 0.9114-0.262 0.4193-0.442 0.6784-0.774 0.6784s-0.51-0.2591-0.775-0.6784-0.582-0.9522-1.266-0.9522c-0.685 0-0.999 0.5241-1.264 0.9522-0.265 0.428-0.443 0.6784-0.769 0.6784s-0.51-0.2562-0.772-0.6784-0.582-0.9522-1.266-0.9522c-0.685 0-1.005 0.5241-1.27 0.9522-0.265 0.428-0.44 0.6784-0.769 0.6784s-0.509-0.2591-0.771-0.6784-0.583-0.9522-1.267-0.9522-1.004 0.5241-1.269 0.9522c-0.265 0.428-0.44 0.6784-0.769 0.6784s-0.51-0.2591-0.772-0.6784-0.597-0.9522-1.266-0.9522c-0.67 0-1.002 0.5241-1.267 0.9522-0.265 0.428-0.44 0.6784-0.772 0.6784s-0.509-0.2591-0.771-0.6784c-0.225-0.3582-0.495-0.7833-0.976-0.9114v-2.4285h19.801zm-5.518-3.0109c0-0.1194 0.017-0.2417 0.017-0.3611 1e-3 -0.8815-0.275-1.741-0.789-2.4576-0.011-0.0178-0.023-0.0344-0.038-0.0495-0.411-0.5597-0.953-1.0105-1.578-1.3132l0.562-1.0861c0.019-0.0374 0.031-0.0785 0.033-0.1205 2e-3 -0.0421-6e-3 -0.0841-0.021-0.1231-0.016-0.039-0.04-0.0742-0.071-0.103-0.03-0.0288-0.067-0.0507-0.107-0.064l-1.042-0.3494 0.658-2.0092 1.354 0.4047c-0.016 0.0253-0.028 0.0528-0.035 0.0816-0.164 0.7854-0.068 1.6029 0.273 2.3289 0.342 0.7261 0.91 1.3212 1.62 1.6955 0.71 0.3742 1.522 0.5073 2.314 0.3791s1.521-0.5108 2.077-1.0898l1.051 0.7774-1.215 1.6336-1.001-0.7367h-0.026c-0.012-0.0118-0.025-0.0225-0.038-0.0321-0.034-0.0176-0.071-0.0284-0.11-0.0317-0.038-0.0032-0.076 0.0011-0.113 0.0127-0.036 0.0117-0.07 0.0304-0.099 0.0551-0.03 0.0248-0.054 0.0551-0.071 0.0892l-1.273 2.4692zm7.067-1.6015c-0.162 0.2165-0.403 0.3601-0.67 0.3994-0.268 0.0393-0.54-0.029-0.757-0.1898l-0.116-0.0873 1.217-1.6365 0.116 0.0874c0.108 0.0798 0.198 0.1801 0.267 0.2951 0.069 0.1149 0.114 0.2423 0.134 0.3748 0.019 0.1325 0.012 0.2676-0.02 0.3975-0.033 0.1298-0.091 0.252-0.171 0.3594z"/>
	    </g>
   	</g>
    <g class="kindergarder" data-popup-text="Дитячий садок">
    	<path d="m1036 397.16c-2.92-5.421-8.73-9.157-15.42-9.157-6.04 0-11.89 2.981-15.03 7.559l-3.95-3.64c-0.4-0.293-0.8-0.623-1.2-0.916-2.82-1.904-6.22-3.003-9.875-3.003-4.204 0-8.043 1.465-11.041 3.882-0.146 0.11-0.292 0.257-0.475 0.403-1.243 1.062-2.303 2.308-3.217 3.663-0.11 0.183-0.22 0.33-0.329 0.513-0.183 0.329-0.366 0.659-0.549 0.989-0.658 1.281-1.133 2.673-1.462 4.102-0.036 0.219-0.073 0.403-0.11 0.622-0.182 0.989-0.292 2.015-0.292 3.04 0 0.623 0.037 1.246 0.11 1.832 0.036 0.183 0.036 0.366 0.073 0.549 0.146 1.135 0.438 2.198 0.804 3.26 0.475 1.538 1.755 3.552 2.011 3.919 0 0.036 0.036 0.036 0.036 0.073 0.11 0.146 0.22 0.293 0.293 0.439 0 0.037 0.036 0.037 0.036 0.074 0.11 0.146 0.22 0.293 0.329 0.439 0.037 0.037 0.073 0.11 0.11 0.147 0.073 0.11 0.183 0.22 0.256 0.329 0.11 0.147 0.256 0.293 0.402 0.44l0.037 0.037c0.292 0.293 0.548 0.586 0.84 0.879 0.037 0 0.037 0.036 0.074 0.036l2.23 1.832 3.473 2.893 17.406 14.467 3.58 3.004c0.22 0.183 0.58 0.183 0.8 0l11.01-9.157 3.62-3.003 4.42-3.699 1.83-1.502 0.07-0.073 0.26-0.22 2.96-2.491 0.07-0.073 2.45-1.978c0.04 0 0.04-0.036 0.07-0.036 1.68-1.612 3.07-3.553 3.99-5.714 0.87-2.051 1.35-4.285 1.35-6.666 0-2.967-0.73-5.714-2.05-8.094z" class="heart"/>
	    <g fill="#fff" stroke="#fff" stroke-width=".3">
	     <path d="m997.45 409.73c0.181-0.057 0.282-0.249 0.225-0.431-0.056-0.181-0.249-0.282-0.43-0.225s-0.282 0.249-0.225 0.43c0.056 0.182 0.249 0.282 0.43 0.226z"/>
	     <path d="m999.01 410.74c0.273-0.035 0.466-0.284 0.431-0.557-0.034-0.273-0.284-0.466-0.556-0.431-0.273 0.034-0.466 0.284-0.432 0.556 0.035 0.273 0.284 0.466 0.557 0.432z"/>
	     <path d="m1e3 408.87c0.121-0.15 0.091-0.365-0.059-0.483-0.149-0.117-0.365-0.09-0.482 0.059s-0.091 0.365 0.059 0.482c0.149 0.117 0.365 0.091 0.482-0.058z"/>
	     <path d="m1011.5 423.11c-0.21 0-0.42 0.063-0.6 0.181-0.17 0.117-0.31 0.284-0.39 0.479s-0.1 0.41-0.06 0.618c0.04 0.207 0.14 0.397 0.29 0.547 0.15 0.149 0.34 0.251 0.55 0.292s0.42 0.02 0.62-0.061c0.19-0.081 0.36-0.217 0.47-0.393 0.12-0.176 0.19-0.383 0.19-0.594 0-0.283-0.12-0.555-0.32-0.756-0.2-0.2-0.47-0.313-0.75-0.313zm0 1.552c-0.1 0-0.19-0.028-0.27-0.082-0.08-0.053-0.15-0.129-0.18-0.218-0.04-0.089-0.05-0.187-0.03-0.282 0.02-0.094 0.07-0.181 0.13-0.249 0.07-0.068 0.16-0.114 0.25-0.132 0.1-0.019 0.2-9e-3 0.28 0.029 0.09 0.037 0.17 0.1 0.22 0.18 0.06 0.08 0.08 0.175 0.08 0.271 0 0.129-0.05 0.253-0.14 0.344s-0.21 0.142-0.34 0.142z"/>
	     <path d="m999.61 423.11c-0.212 0-0.418 0.063-0.594 0.181-0.176 0.117-0.313 0.284-0.394 0.479-0.08 0.195-0.102 0.41-0.06 0.618 0.041 0.207 0.143 0.397 0.292 0.547 0.15 0.149 0.34 0.251 0.547 0.292 0.208 0.041 0.422 0.02 0.621-0.061 0.19-0.081 0.36-0.217 0.48-0.393 0.11-0.176 0.18-0.383 0.18-0.594 0-0.283-0.12-0.555-0.32-0.756-0.2-0.2-0.469-0.313-0.752-0.313zm0 1.552c-0.097 0-0.191-0.028-0.271-0.082-0.08-0.053-0.142-0.129-0.179-0.218s-0.046-0.187-0.027-0.282c0.019-0.094 0.066-0.181 0.134-0.249s0.155-0.114 0.25-0.132c0.094-0.019 0.192-9e-3 0.281 0.029 0.089 0.037 0.164 0.1 0.214 0.18 0.06 0.08 0.08 0.175 0.08 0.271 0 0.129-0.05 0.253-0.138 0.344-0.092 0.091-0.215 0.142-0.344 0.142z"/>
	     <path d="m1015 408.93c0.11-0.214 0.03-0.477-0.19-0.588-0.21-0.111-0.48-0.027-0.59 0.187s-0.02 0.478 0.19 0.589c0.21 0.11 0.48 0.027 0.59-0.188z"/>
	     <path d="m1012.8 407.81c0.11-0.215 0.02-0.478-0.19-0.589-0.22-0.111-0.48-0.027-0.59 0.187s-0.03 0.478 0.19 0.589c0.21 0.111 0.48 0.027 0.59-0.187z"/>
	     <path d="m1012.3 410.3c0.31 0.162 0.66 0.247 1.01 0.248 0.33 1e-3 0.66-0.075 0.96-0.222 0.07-0.037 0.11-0.097 0.13-0.167s0.02-0.146-0.01-0.212c-0.04-0.066-0.09-0.118-0.16-0.144s-0.15-0.025-0.21 2e-3c-0.23 0.111-0.48 0.166-0.74 0.162-0.25-4e-3 -0.5-0.067-0.72-0.184-0.22-0.118-0.42-0.287-0.57-0.493-0.14-0.205-0.24-0.443-0.28-0.693 0-0.038-0.02-0.075-0.04-0.108-0.02-0.034-0.04-0.063-0.07-0.086s-0.07-0.04-0.11-0.049c-0.03-0.01-0.07-0.012-0.11-6e-3 -0.04 5e-3 -0.08 0.018-0.11 0.038s-0.06 0.046-0.08 0.077c-0.03 0.031-0.04 0.066-0.05 0.104-0.01 0.037-0.02 0.076-0.01 0.114 0.05 0.343 0.19 0.669 0.39 0.95 0.2 0.282 0.47 0.511 0.78 0.669z"/>
	     <path d="m1017.4 412.82-2.15-1.593 0.05-0.023c0.01 8e-3 0.02 0.016 0.03 0.023 0.32 0.143 0.67 0.214 1.01 0.207 0.54 0 1.1-0.158 1.31-0.583v-0.026c0.49-0.931 0.66-1.994 0.5-3.03-0.17-1.037-0.66-1.994-1.41-2.73 0.1-0.142 0.17-0.302 0.21-0.471 0.05-0.236 0.04-0.483-0.03-0.715s-0.2-0.441-0.37-0.607c-0.18-0.165-0.4-0.282-0.63-0.336-0.24-0.055-0.49-0.047-0.72 0.024l-1.44 0.434-1.08-1.016c-0.25-0.246-0.6-0.383-0.96-0.38-0.35 3e-3 -0.69 0.144-0.95 0.394-0.25 0.25-0.4 0.589-0.41 0.946s0.12 0.704 0.36 0.968c-0.78 0.466-1.42 1.143-1.84 1.953l-0.02 0.053c-0.35 0.675 0.39 1.473 0.95 1.826 0 0.043 0 0.087 0.01 0.131l-2.5-0.752c-0.2-0.066-0.42-0.09-0.63-0.071s-0.42 0.081-0.61 0.182c-0.38 0.198-0.66 0.536-0.8 0.943-0.13 0.405-0.1 0.847 0.09 1.229s0.52 0.674 0.93 0.81l1.4 0.463-0.43 0.838c-0.37-0.12-0.76-0.187-1.16-0.198-0.01-0.241-0.07-0.478-0.18-0.692-0.11-0.215-0.26-0.402-0.45-0.548-0.2-0.146-0.42-0.246-0.66-0.293-0.23-0.048-0.48-0.041-0.71 0.019l-2.23 0.556c0.33-0.619 0.41-1.334 0.25-2.012-0.09-0.34-0.23-0.661-0.44-0.946 0.15-0.142 0.27-0.317 0.34-0.511s0.1-0.402 0.08-0.608c-0.03-0.205-0.1-0.403-0.21-0.577s-0.26-0.319-0.44-0.424c-0.18-0.106-0.38-0.168-0.59-0.183-0.2-0.015-0.41 0.019-0.6 0.098s-0.362 0.202-0.497 0.358c-0.136 0.156-0.233 0.342-0.285 0.542-0.991-0.148-2 0.102-2.807 0.696-0.161-0.179-0.368-0.31-0.598-0.382-0.23-0.071-0.475-0.079-0.709-0.023-0.169 0.038-0.329 0.109-0.471 0.209-0.141 0.1-0.261 0.227-0.353 0.374-0.11 0.171-0.176 0.366-0.194 0.569-0.018 0.202 0.013 0.406 0.09 0.594s0.198 0.355 0.353 0.486c0.155 0.132 0.339 0.224 0.537 0.27-0.064 0.378-0.05 0.766 0.04 1.138 0.175 0.678 0.588 1.27 1.165 1.666l-2.329 0.582c-0.407 0.108-0.755 0.372-0.969 0.734-0.215 0.363-0.277 0.795-0.175 1.203 0.102 0.409 0.361 0.76 0.721 0.979 0.359 0.219 0.79 0.288 1.2 0.191l0.714-0.177c0.149-0.037 0.307-0.014 0.439 0.065s0.227 0.208 0.265 0.357l0.073 0.291h-0.853c-0.077 0-0.151 0.031-0.206 0.085-0.055 0.055-0.085 0.129-0.085 0.206v7.571c0 0.077 0.03 0.151 0.085 0.206s0.129 0.085 0.206 0.085h1.398c0.074 0.639 0.38 1.228 0.86 1.655 0.48 0.428 1.1 0.664 1.743 0.664 0.642 0 1.262-0.236 1.742-0.664 0.48-0.427 0.79-1.016 0.86-1.655h6.73c0.08 0.639 0.38 1.228 0.86 1.655 0.48 0.428 1.1 0.664 1.75 0.664 0.64 0 1.26-0.236 1.74-0.664 0.48-0.427 0.79-1.016 0.86-1.655h1.84c0.08 0 0.15-0.03 0.21-0.085 0.05-0.055 0.08-0.129 0.08-0.206v-7.571c0-0.077-0.03-0.151-0.08-0.206-0.06-0.054-0.13-0.085-0.21-0.085h-2.82l0.99-1.91 1.31 0.984c0.17 0.135 0.37 0.235 0.57 0.293 0.21 0.059 0.43 0.075 0.64 0.048s0.42-0.098 0.61-0.206c0.18-0.109 0.34-0.254 0.47-0.427s0.22-0.37 0.27-0.579c0.06-0.21 0.06-0.427 0.03-0.64-0.04-0.212-0.12-0.415-0.23-0.597-0.12-0.182-0.27-0.338-0.45-0.46zm-6.75-6.007 0.04-0.082c0.03-0.058 0.07-0.109 0.12-0.15 0.05-0.04 0.11-0.07 0.17-0.086 0.26-0.055 0.52-0.083 0.79-0.081 0.79 0.011 1.58 0.21 2.28 0.582 0.92 0.456 1.67 1.197 2.14 2.114 0.03 0.061 0.04 0.127 0.04 0.194s-0.01 0.133-0.04 0.193l-0.07 0.14c-0.68 1.316-2.47 1.747-3.97 0.976-1.51-0.772-2.19-2.481-1.5-3.8zm4.74-3.285c0.13-0.04 0.27-0.044 0.41-0.012 0.13 0.032 0.26 0.099 0.36 0.195 0.1 0.095 0.18 0.216 0.22 0.349s0.04 0.275 0.01 0.411-0.1 0.261-0.2 0.362c-0.09 0.102-0.21 0.177-0.34 0.217-0.14 0.041-0.28 0.045-0.41 0.014-0.14-0.032-0.27-0.098-0.37-0.194l-1-0.943zm-4.43-0.317c0.03-0.137 0.1-0.263 0.2-0.365 0.09-0.103 0.21-0.178 0.35-0.218 0.07-0.023 0.15-0.034 0.23-0.035 0.2 0 0.4 0.077 0.54 0.216l1.01 0.943-1.32 0.399c-0.14 0.041-0.28 0.045-0.41 0.013-0.14-0.031-0.26-0.098-0.37-0.193-0.1-0.096-0.17-0.216-0.21-0.349-0.04-0.134-0.05-0.276-0.02-0.411zm-1.41 3.913c-0.17-0.224-0.24-0.425-0.18-0.541l0.03-0.053c0.41-0.8 1.06-1.452 1.85-1.863 0.16 0.058 0.32 0.089 0.48 0.09 0.14-1e-3 0.28-0.021 0.41-0.061l1.44-0.434 1.09 1.028c0.25 0.24 0.59 0.375 0.94 0.375 0.25 0 0.5-0.068 0.71-0.198 0.67 0.648 1.11 1.495 1.26 2.414 0.15 0.92 0 1.862-0.43 2.688v0.026c-0.13 0.242-0.77 0.309-1.24 0.213 0.3-0.25 0.54-0.556 0.72-0.9l0.07-0.149c0.07-0.138 0.1-0.29 0.1-0.444 0-0.153-0.03-0.305-0.1-0.444-0.54-1.037-1.39-1.878-2.44-2.406s-2.23-0.716-3.39-0.538c-0.14 0.034-0.28 0.1-0.4 0.193s-0.22 0.211-0.28 0.346l-0.04 0.079c-0.15 0.278-0.25 0.578-0.3 0.888-0.11-0.092-0.21-0.196-0.3-0.309zm2.33 4.01c0.56 0.294 1.18 0.449 1.82 0.451 0.3 0 0.61-0.038 0.9-0.113l0.35 0.256c-0.48 0.469-1.09 0.773-1.75 0.867s-1.33-0.027-1.92-0.346c-0.59-0.318-1.06-0.816-1.34-1.421s-0.36-1.285-0.23-1.939v-0.047l0.25 0.076c0.32 0.962 1.01 1.758 1.92 2.216zm-6.04-2.391c0.08-0.262 0.27-0.48 0.51-0.608 0.12-0.065 0.26-0.105 0.39-0.117 0.14-0.012 0.27 4e-3 0.4 0.047l0.13 0.038-0.66 1.988-0.13-0.046c-0.26-0.088-0.47-0.274-0.59-0.518s-0.14-0.526-0.05-0.784zm3.75 7.571h-5.56c0.13-0.505 0.37-0.976 0.7-1.38 0.34-0.403 0.75-0.731 1.22-0.959s0.98-0.353 1.51-0.364c0.52-0.011 1.04 0.09 1.52 0.298 0.41 0.6 0.63 1.311 0.63 2.038-0.01 0.125-0.01 0.248-0.02 0.367zm-2.04-3.314c-0.96-2e-3 -1.9 0.325-2.66 0.927-0.75 0.603-1.28 1.445-1.49 2.387h-1.04c0-0.119-0.02-0.242-0.02-0.361-0.01-0.678 0.18-1.343 0.53-1.921 0.36-0.578 0.87-1.045 1.47-1.348 0.61-0.303 1.29-0.43 1.96-0.367 0.68 0.063 1.32 0.314 1.86 0.724-0.2-0.029-0.41-0.042-0.62-0.041zm-6.95-6.912c0.16-0.04 0.33-0.026 0.48 0.039s0.28 0.179 0.36 0.322c0.08 0.144 0.11 0.311 0.09 0.474-0.03 0.163-0.1 0.315-0.22 0.431-0.21-0.203-0.46-0.376-0.72-0.512-0.17-0.089-0.35-0.163-0.54-0.222 0.04-0.129 0.11-0.246 0.2-0.34 0.1-0.093 0.22-0.16 0.35-0.192zm-5.637 2.183c-0.036-0.16-0.019-0.327 0.049-0.477 0.067-0.15 0.182-0.273 0.327-0.352 0.144-0.078 0.31-0.107 0.472-0.083 0.163 0.025 0.313 0.102 0.427 0.219-0.349 0.35-0.615 0.774-0.777 1.241-0.123-0.041-0.233-0.112-0.32-0.208-0.087-0.095-0.148-0.211-0.178-0.337zm0.987 2.01c-0.1-0.455-0.072-0.929 0.083-1.368 0.154-0.439 0.428-0.827 0.791-1.119 0.379-0.321 0.827-0.551 1.31-0.67 0.731-0.191 1.507-0.108 2.186 0.233 0.3 0.15 0.57 0.364 0.78 0.627 0.21 0.262 0.37 0.568 0.46 0.896 0.33 1.354-0.65 2.769-2.2 3.156-1.549 0.388-3.072-0.401-3.41-1.752zm1.022 5.596c-0.076-0.296-0.266-0.551-0.529-0.709-0.263-0.157-0.577-0.205-0.874-0.132l-0.714 0.177c-0.261 0.063-0.536 0.019-0.765-0.12-0.23-0.139-0.395-0.363-0.46-0.623-0.065-0.261-0.025-0.536 0.112-0.767 0.136-0.231 0.359-0.399 0.618-0.467l2.965-0.739c0.401 0.146 0.825 0.221 1.252 0.221 0.314-1e-3 0.627-0.04 0.931-0.117 0.732-0.179 1.392-0.574 1.892-1.135 0.02 2e-3 0.04 2e-3 0.06 0l2.79-0.696c0.26-0.065 0.54-0.024 0.77 0.116 0.23 0.139 0.4 0.364 0.46 0.626 0.02 0.074 0.03 0.149 0.03 0.225-1.04 0.118-1.99 0.613-2.69 1.39-0.69 0.778-1.08 1.783-1.08 2.826 0 0.119 0 0.242 0.02 0.361h-4.677zm2.656 10.337c-0.403 0-0.797-0.119-1.133-0.343-0.335-0.224-0.596-0.542-0.75-0.915-0.155-0.372-0.195-0.782-0.116-1.178 0.078-0.395 0.272-0.758 0.558-1.043 0.285-0.285 0.648-0.479 1.043-0.558 0.396-0.079 0.81-0.038 1.18 0.116s0.69 0.415 0.91 0.751c0.23 0.335 0.35 0.729 0.35 1.132 0 0.541-0.22 1.059-0.6 1.441-0.38 0.383-0.9 0.597-1.442 0.597zm11.942 0c-0.41 0-0.8-0.119-1.14-0.343-0.33-0.224-0.59-0.542-0.75-0.915-0.15-0.372-0.19-0.782-0.11-1.178 0.08-0.395 0.27-0.758 0.56-1.043 0.28-0.285 0.64-0.479 1.04-0.558 0.39-0.079 0.8-0.038 1.18 0.116 0.37 0.154 0.69 0.415 0.91 0.751 0.23 0.335 0.34 0.729 0.34 1.132 0 0.541-0.21 1.059-0.59 1.441-0.38 0.383-0.9 0.597-1.44 0.597zm2.6-2.329c-0.07-0.639-0.38-1.228-0.86-1.655-0.48-0.428-1.1-0.664-1.74-0.664-0.65 0-1.27 0.236-1.75 0.664-0.48 0.427-0.78 1.016-0.86 1.655h-6.73c-0.07-0.639-0.38-1.228-0.86-1.655-0.48-0.428-1.1-0.664-1.742-0.664-0.643 0-1.263 0.236-1.743 0.664-0.48 0.427-0.786 1.016-0.86 1.655h-1.107v-3.931c0.198 0.159 0.362 0.357 0.481 0.582 0.265 0.425 0.582 0.952 1.266 0.952 0.685 0 1.002-0.527 1.267-0.952s0.44-0.67 0.772-0.67c0.336 0 0.506 0.26 0.776 0.679 0.26 0.419 0.58 0.952 1.26 0.952 0.69 0 1-0.527 1.27-0.952 0.26-0.425 0.44-0.679 0.77-0.679s0.51 0.26 0.77 0.679 0.58 0.952 1.27 0.952c0.68 0 1-0.527 1.27-0.952 0.26-0.425 0.43-0.679 0.77-0.679 0.33 0 0.51 0.257 0.77 0.679s0.58 0.952 1.27 0.952c0.68 0 1-0.527 1.26-0.952 0.27-0.425 0.44-0.679 0.77-0.679 0.34 0 0.51 0.26 0.78 0.679 0.26 0.419 0.58 0.952 1.26 0.952 0.69 0 1.01-0.527 1.27-0.952 0.12-0.225 0.29-0.424 0.48-0.582v3.922zm1.55-4.56c-0.48 0.128-0.75 0.553-0.98 0.911-0.26 0.42-0.44 0.679-0.77 0.679s-0.51-0.259-0.78-0.679c-0.26-0.419-0.58-0.952-1.26-0.952-0.69 0-1 0.524-1.27 0.952-0.26 0.428-0.44 0.679-0.76 0.679-0.33 0-0.51-0.256-0.78-0.679-0.26-0.422-0.58-0.952-1.26-0.952-0.69 0-1.01 0.524-1.27 0.952-0.27 0.428-0.44 0.679-0.77 0.679s-0.51-0.259-0.77-0.679c-0.27-0.419-0.59-0.952-1.27-0.952s-1 0.524-1.27 0.952c-0.26 0.428-0.44 0.679-0.77 0.679s-0.51-0.259-0.77-0.679c-0.26-0.419-0.6-0.952-1.266-0.952-0.67 0-1.002 0.524-1.267 0.952s-0.44 0.679-0.772 0.679-0.509-0.259-0.771-0.679c-0.225-0.358-0.495-0.783-0.976-0.911v-2.429h19.802zm-5.52-3.011c0-0.119 0.02-0.242 0.02-0.361 0-0.882-0.28-1.741-0.79-2.458-0.01-0.017-0.02-0.034-0.04-0.049-0.41-0.56-0.95-1.011-1.58-1.313l0.57-1.087c0.01-0.037 0.03-0.078 0.03-0.12s-0.01-0.084-0.02-0.123c-0.02-0.039-0.04-0.074-0.07-0.103s-0.07-0.051-0.11-0.064l-1.04-0.35 0.65-2.009 1.36 0.405c-0.02 0.025-0.03 0.053-0.04 0.082-0.16 0.785-0.06 1.602 0.28 2.329 0.34 0.726 0.91 1.321 1.62 1.695s1.52 0.507 2.31 0.379 1.52-0.511 2.08-1.09l1.05 0.778-1.22 1.633-1-0.736h-0.02c-0.02-0.012-0.03-0.023-0.04-0.032-0.04-0.018-0.07-0.029-0.11-0.032s-0.08 1e-3 -0.11 0.013c-0.04 0.011-0.07 0.03-0.1 0.055-0.03 0.024-0.06 0.055-0.07 0.089l-1.28 2.469zm7.07-1.602c-0.16 0.217-0.4 0.361-0.67 0.4s-0.54-0.029-0.76-0.19l-0.12-0.087 1.22-1.637 0.12 0.088c0.11 0.08 0.2 0.18 0.27 0.295 0.06 0.115 0.11 0.242 0.13 0.375 0.02 0.132 0.01 0.267-0.02 0.397s-0.09 0.252-0.17 0.359z"/>
	    </g>

    </g>
    <g class="school" data-popup-text="Школа">
    	<path d="m177.95 143.16c-2.925-5.421-8.738-9.157-15.428-9.157-6.032 0-11.881 2.981-15.025 7.559l-3.948-3.64c-0.402-0.293-0.805-0.623-1.207-0.916-2.815-1.904-6.215-3.003-9.87-3.003-4.204 0-8.043 1.465-11.041 3.882-0.146 0.11-0.292 0.257-0.475 0.403-1.243 1.062-2.303 2.308-3.217 3.663-0.11 0.183-0.22 0.33-0.329 0.513-0.183 0.329-0.366 0.659-0.549 0.989-0.658 1.281-1.133 2.673-1.462 4.102-0.036 0.219-0.073 0.403-0.11 0.622-0.182 0.989-0.292 2.015-0.292 3.04 0 0.623 0.037 1.246 0.11 1.832 0.036 0.183 0.036 0.366 0.073 0.549 0.146 1.135 0.438 2.198 0.804 3.26 0.475 1.538 1.755 3.552 2.011 3.919 0 0.036 0.036 0.036 0.036 0.073 0.11 0.146 0.22 0.293 0.293 0.439 0 0.037 0.036 0.037 0.036 0.074 0.11 0.146 0.22 0.293 0.329 0.439 0.037 0.037 0.073 0.11 0.11 0.147 0.073 0.11 0.183 0.22 0.256 0.329 0.11 0.147 0.256 0.293 0.402 0.44l0.037 0.037c0.292 0.293 0.548 0.586 0.84 0.879 0.037 0 0.037 0.036 0.074 0.036l2.23 1.832 3.473 2.893 17.401 14.467 3.583 3.004c0.219 0.183 0.585 0.183 0.804 0l11.004-9.157 3.619-3.003 4.424-3.699 1.828-1.502 0.073-0.073 0.256-0.22 2.961-2.491 0.073-0.073 2.449-1.978c0.037 0 0.037-0.036 0.074-0.036 1.681-1.612 3.07-3.553 3.984-5.714 0.878-2.051 1.353-4.285 1.353-6.666 0-2.967-0.731-5.714-2.047-8.094z" class="heart"/>
    	<path d="m158.97 154.36c-0.032-0.065-0.088-0.116-0.157-0.14l-3.294-1.157 0.098-0.278c0.218-0.622-0.169-1.326-0.863-1.57l-0.615-0.216c0.143-0.808-0.316-1.626-1.115-1.907-0.799-0.28-1.67 0.072-2.062 0.793l-0.616-0.216c-0.694-0.243-1.436 0.065-1.654 0.687l-0.097 0.276-3.294-1.156c-0.069-0.025-0.144-0.021-0.21 0.011s-0.116 0.088-0.14 0.157l-2.193 6.246-0.577-4.636c-9e-3 -0.073-0.046-0.139-0.103-0.183-0.058-0.045-0.13-0.066-0.203-0.056l-4.637 0.576c-0.151 0.019-0.258 0.156-0.239 0.307l2.343 18.857c9e-3 0.072 0.047 0.138 0.104 0.183 0.049 0.038 0.108 0.058 0.169 0.058 0.012 0 0.023-1e-3 0.034-2e-3l4.637-0.576c0.151-0.019 0.258-0.156 0.239-0.307l-0.271-2.176 2.484 0.872-0.261 1.623c-0.024 0.15 0.078 0.291 0.228 0.315l1.536 0.248c0.014 2e-3 0.029 3e-3 0.043 3e-3 0.058 0 0.114-0.018 0.162-0.052 0.059-0.043 0.098-0.107 0.11-0.179l0.201-1.249 4.171 1.464c0.03 0.011 0.06 0.016 0.091 0.016 0.041 0 0.082-9e-3 0.119-0.027 0.066-0.032 0.116-0.088 0.141-0.157l0.88-2.508c0.349 0.103 0.709 0.154 1.07 0.154 0.964 0 1.928-0.367 2.663-1.102 0.711-0.71 1.102-1.655 1.103-2.66s-0.39-1.949-1.1-2.659c-0.367-0.367-0.792-0.642-1.245-0.825l2.331-6.641c0.025-0.069 0.02-0.145-0.011-0.211zm-8.806-4.172 0.854 0.3c0.069 0.024 0.145 0.019 0.21-0.012 0.066-0.032 0.117-0.088 0.141-0.157 0.102-0.291 0.311-0.525 0.59-0.659 0.277-0.133 0.591-0.151 0.883-0.049 0.601 0.211 0.918 0.872 0.707 1.473-0.024 0.069-0.019 0.145 0.012 0.21 0.032 0.066 0.088 0.117 0.157 0.141l0.854 0.299c0.408 0.143 0.644 0.533 0.526 0.869l-0.398 1.132-5.886-2.065 0.397-1.132c0.118-0.336 0.546-0.492 0.953-0.35zm-1.949 1.77c0.032 0.066 0.088 0.116 0.157 0.141l6.406 2.247c0.029 0.01 0.06 0.015 0.091 0.015 0.041 0 0.082-9e-3 0.119-0.027 0.066-0.032 0.116-0.088 0.14-0.157l0.209-0.595 1.016 0.357-2.559 7.287c-0.443 0.183-0.859 0.454-1.219 0.814-0.711 0.71-1.103 1.655-1.103 2.66-1e-3 0.645 0.162 1.265 0.466 1.814l-0.398 1.133-2.349-0.825 1.052-6.534c0.012 1e-3 0.024 3e-3 0.036 3e-3 0.132 0 0.249-0.097 0.271-0.232l0.651-4.045 0.646 0.104-0.83 5.155c-0.024 0.15 0.078 0.292 0.228 0.316 0.015 2e-3 0.03 3e-3 0.044 3e-3 0.133 0 0.25-0.096 0.271-0.231l0.874-5.427c0.012-0.072-6e-3 -0.146-0.048-0.205-0.043-0.059-0.108-0.099-0.18-0.111l-0.917-0.147 0.115-0.715c0.011-0.073-6e-3 -0.146-0.049-0.205-0.042-0.059-0.107-0.099-0.179-0.111l-2.063-0.332c-0.151-0.024-0.291 0.078-0.315 0.228l-0.854 5.304c-0.012 0.072 5e-3 0.145 0.048 0.205 0.041 0.056 0.103 0.094 0.172 0.107l-0.992 6.161-3.288-1.154-0.381-3.073 3.894-11.092 1.016 0.357-0.209 0.597c-0.024 0.069-0.02 0.144 0.011 0.21zm6.675 9.55c-0.066 0.732-0.382 1.417-0.905 1.939-0.524 0.524-1.21 0.84-1.943 0.906 0.078-0.727 0.398-1.4 0.922-1.924 0.539-0.539 1.222-0.845 1.926-0.921zm-6.36-2.052 0.767-4.761 1.52 0.244-0.766 4.761zm-3.151-9.37 1.499 0.526-3.528 10.047-0.44-3.543zm-5.525 20.328-2.275-18.311 4.091-0.509 0.235 1.895-1.347 0.168c-0.151 0.019-0.258 0.156-0.239 0.307 0.017 0.139 0.136 0.241 0.272 0.241 0.012 0 0.023-1e-3 0.035-2e-3l1.347-0.168 0.279 2.25-1.347 0.167c-0.15 0.019-0.257 0.156-0.239 0.307 0.018 0.139 0.136 0.241 0.273 0.241 0.011 0 0.023-1e-3 0.034-2e-3l1.347-0.168 0.28 2.25-1.347 0.167c-0.151 0.019-0.258 0.156-0.239 0.307 0.017 0.139 0.136 0.241 0.272 0.241 0.012 0 0.023-1e-3 0.035-2e-3l1.347-0.168 0.279 2.25-1.347 0.167c-0.151 0.019-0.258 0.156-0.239 0.307 0.017 0.139 0.136 0.241 0.273 0.241 0.011 0 0.022-1e-3 0.034-2e-3l1.347-0.167 0.279 2.249-1.347 0.167c-0.15 0.019-0.257 0.156-0.239 0.307 0.018 0.139 0.136 0.241 0.273 0.241 0.011 0 0.023 0 0.034-2e-3l1.347-0.167 0.28 2.249-1.347 0.168c-0.151 0.018-0.258 0.156-0.239 0.306 0.017 0.14 0.136 0.241 0.272 0.241 0.012 0 0.023 0 0.035-2e-3l1.347-0.167 0.235 1.895zm4.325-3.089-0.219-1.757 3.123 1.097-0.256 1.59zm3.878 3.081-0.993-0.16 1.643-10.205 0.993 0.16zm4.794-0.036-4.005-1.406 0.256-1.59 2.515 0.883c0.03 0.01 0.061 0.015 0.091 0.015 0.114 0 0.22-0.07 0.26-0.184l0.353-1.005c0.078 0.095 0.162 0.188 0.251 0.276 0.32 0.321 0.685 0.566 1.074 0.746zm4.652-3.402c-0.523 0.523-1.184 0.824-1.866 0.911 0.077-0.71 0.391-1.372 0.899-1.88 0.509-0.509 1.171-0.822 1.881-0.9-0.089 0.705-0.404 1.358-0.914 1.869zm0.935-2.423c-0.865 0.076-1.673 0.448-2.29 1.065-0.618 0.617-0.99 1.426-1.065 2.291-0.772-0.035-1.534-0.342-2.122-0.93-0.558-0.558-0.881-1.285-0.929-2.065 0.884-0.065 1.713-0.44 2.342-1.07 0.628-0.628 1.003-1.456 1.069-2.338 0.752 0.048 1.49 0.355 2.063 0.928 0.57 0.57 0.895 1.318 0.932 2.119zm-2.314-3.497c-0.55-0.133-1.123-0.142-1.676-0.024l2.424-6.903 1.499 0.527z" fill="#fff" stroke="#fff" stroke-width=".2"/>
    </g>
    <g class="boat" data-popup-text="Причали для яхт">
		<path d="m649.95 9.1565c-2.925-5.4207-8.738-9.1565-15.428-9.1565-6.032 0-11.881 2.981-15.025 7.5593l-3.948-3.6403c-0.402-0.29301-0.805-0.62265-1.207-0.91565-2.815-1.9046-6.215-3.0034-9.87-3.0034-4.204 0-8.043 1.465-11.041 3.8824-0.146 0.10988-0.292 0.25639-0.475 0.40289-1.243 1.0622-2.303 2.3074-3.217 3.6626-0.11 0.18313-0.22 0.32963-0.329 0.51276-0.183 0.32964-0.366 0.65928-0.549 0.98891-0.658 1.282-1.133 2.6738-1.462 4.1022-0.036 0.2197-0.073 0.4029-0.11 0.6226-0.182 0.9889-0.292 2.0145-0.292 3.04 0 0.6226 0.037 1.2453 0.11 1.8313 0.036 0.1831 0.036 0.3663 0.073 0.5494 0.146 1.1354 0.438 2.1976 0.804 3.2597 0.475 1.5383 1.755 3.5528 2.011 3.919 0 0.0367 0.036 0.0367 0.036 0.0733 0.11 0.1465 0.22 0.293 0.293 0.4395 0 0.0366 0.036 0.0366 0.036 0.0732 0.11 0.1465 0.22 0.2931 0.329 0.4396 0.037 0.0366 0.073 0.1098 0.11 0.1465 0.073 0.1098 0.183 0.2197 0.256 0.3296 0.11 0.1465 0.256 0.293 0.402 0.4395l0.037 0.0366c0.292 0.293 0.548 0.5861 0.84 0.8791 0.037 0 0.037 0.0366 0.074 0.0366l2.23 1.8313 3.473 2.8935 17.401 14.467 3.583 3.0033c0.219 0.1832 0.585 0.1832 0.804 0l11.004-9.1565 3.619-3.0033 4.424-3.6993 1.828-1.5017 0.073-0.0732 0.256-0.2198 2.961-2.4905 0.073-0.0733 2.449-1.9778c0.037 0 0.037-0.0366 0.074-0.0366 1.681-1.6116 3.07-3.5528 3.984-5.7137 0.878-2.0511 1.353-4.2853 1.353-6.666 0-2.9667-0.731-5.7137-2.047-8.0944z" class="heart"/>
		<g fill="#fff" stroke="#fff" stroke-width=".5">
	     <path d="m623.46 31.81h-18.463l5.209-7.2855h24.093l-4.533 4.6178c-1.697 1.7222-3.934 2.6677-6.306 2.6677zm-17.889-0.2955h17.889c2.296 0 4.457-0.9117 6.095-2.5748l4.044-4.1197h-23.241z"/>
	     <path d="m621.88 24.77-3.487-3.5456c-0.591-0.5994-1.376-0.9286-2.203-0.9286h-3.005l1.46 4.3392-0.279 0.0928-1.587-4.7275h3.411c0.912 0 1.764 0.363 2.414 1.0215l3.487 3.5456z"/>
	     <path d="m630.51 28.02h-22.675v0.2955h22.675z"/>
	    </g>
    </g>
    <g class="boulevard" data-popup-text="Бульвар" transform="matrix(.87752 0 0 .87752 392.87 187.15)">
     <path d="m62.953 9.1565c-2.9247-5.4207-8.7374-9.1565-15.428-9.1565-6.0321 0-11.881 2.981-15.025 7.5593l-3.9483-3.6403c-0.4021-0.29301-0.8042-0.62265-1.2064-0.91565-2.8149-1.9046-6.2148-3.0034-9.8706-3.0034-4.2042 0-8.0428 1.465-11.04 3.8824-0.14624 0.10988-0.29247 0.25639-0.47526 0.40289-1.243 1.0622-2.3032 2.3074-3.2171 3.6626-0.10967 0.18313-0.21934 0.32963-0.32902 0.51276-0.18279 0.32964-0.36558 0.65928-0.54837 0.98891-0.65804 1.282-1.1333 2.6738-1.4623 4.1022-0.036558 0.2197-0.073116 0.4029-0.10967 0.6226-0.18279 0.9889-0.29246 2.0145-0.29246 3.04 0 0.6226 0.036558 1.2453 0.10967 1.8313 0.036558 0.1831 0.036558 0.3663 0.073116 0.5494 0.14623 1.1354 0.4387 2.1976 0.80427 3.2597 0.47526 1.5383 1.7548 3.5528 2.0107 3.919 0 0.0367 0.03656 0.0367 0.03656 0.0733 0.10967 0.1465 0.21935 0.293 0.29246 0.4395 0 0.0366 0.03656 0.0366 0.03656 0.0732 0.10967 0.1465 0.21935 0.2931 0.32902 0.4396 0.03656 0.0366 0.07312 0.1098 0.10967 0.1465 0.07312 0.1098 0.18279 0.2197 0.25591 0.3296 0.10967 0.1465 0.25591 0.293 0.40214 0.4395l0.03656 0.0366c0.29246 0.293 0.54836 0.5861 0.84083 0.8791 0.03656 0 0.03656 0.0366 0.07311 0.0366l2.23 1.8313 3.473 2.8935 17.402 14.467 3.5827 3.0033c0.2193 0.1832 0.5849 0.1832 0.8042 0l11.004-9.1565 3.6192-3.0033 4.4235-3.6993 1.8279-1.5017 0.0731-0.0732 0.2559-0.2198 2.9612-2.4905 0.0731-0.0733 2.4494-1.9778c0.0366 0 0.0366-0.0366 0.0731-0.0366 1.6817-1.6116 3.0709-3.5528 3.9849-5.7137 0.8773-2.0511 1.3526-4.2853 1.3526-6.666 0-2.9667-0.7312-5.7137-2.0472-8.0944z" class="heart"/>
     <path d="m23.587 15.246c3.382 0 5.0208 3.9399 5.0208 6.8338 0 2.8241-1.5341 6.6246-4.7418 6.8338v2.3708h9.5185v-2.3708c-2.2663-0.13954-4.0793-2.0222-4.0793-4.2885 0-2.4058 1.9525-4.3234 4.3234-4.3234 2.3708 0 4.3234 1.9176 4.3234 4.3234 0 2.2663-1.813 4.149-4.0793 4.2885v2.3708h8.6467v-3.7655c-3.2425-0.1743-5.2647-3.7307-3.7306-6.6246-0.20919-2.7545 0.38349-9.7625 4.0096-9.7625s4.2189 7.0081 4.0097 9.7625c1.4992 2.8939-0.52303 6.4503-3.7656 6.6246v3.7655h3.2077c0.31385 0 0.27896 0.48815-0.03489 0.45326h-25.173c-0.31385 0.03489-0.3486-0.45326-0.03489-0.45326h2.3361v-2.3708c-3.2077-0.20919-4.7767-4.0097-4.7767-6.8338 0-2.8939 1.6387-6.8338 5.0208-6.8338zm2.4057 6.1365-2.1268 2.2663v4.7418c2.3359-0.1743 4.2188-2.9288 4.2188-6.3108 0-3.4867-2.0222-6.3108-4.4977-6.3108s-4.4977 2.8241-4.4977 6.3108c0 3.382 1.8827 6.1365 4.2536 6.3108v-2.371l-2.1269-2.2663c-0.20919-0.20919 0.13954-0.5229 0.34873-0.31372l1.7782 1.9176v-4.5675c-0.03489-0.3486 0.52303-0.3486 0.52303 0v2.1967l1.7782-1.9177c0.20919-0.24407 0.55779 0.06977 0.3486 0.31385zm6.6246 4.1491 0.76711 0.90652v-2.8242c-0.03489-0.3486 0.48815-0.3486 0.48815 0v4.7767c1.9873-0.13942 3.5563-1.7782 3.5563-3.7655 0-2.1269-1.7085-3.8005-3.8004-3.8005-2.092 0-3.8005 1.6736-3.8005 3.8005 0 1.9873 1.569 3.6261 3.5564 3.7655v-1.2204l-1.1157-1.3249c-0.20919-0.24407 0.13942-0.55779 0.3486-0.31372zm7.7752-6.4154 2.1268 2.2663v5.6134c-2.9288-0.1743-4.672-3.4518-3.1728-5.9969-0.27883-2.4756 0.27896-9.3442 3.4518-9.3442s3.7307 6.8686 3.4518 9.3442c1.4644 2.5451-0.24407 5.8226-3.2077 5.9969v-2.3708l2.1269-2.2315c0.20919-0.24407-0.13955-0.55779-0.34873-0.31372l-1.7782 1.8827v-6.7291c0-0.3486-0.52303-0.3486-0.52303 0.03489v3.4518l-1.7782-1.8828c-0.20919-0.24407-0.55779 0.06977-0.3486 0.27896z" clip-rule="evenodd" fill="#fff" fill-rule="evenodd" stroke="#fff" stroke-width=".5"/>
    </g>
   </g>
  </g>
 </g>
</svg>
