<svg width="65" height="52" viewBox="0 0 65 52" fill="none" xmlns="http://www.w3.org/2000/svg">
<path d="M62.9528 9.15654C60.0281 3.73587 54.2154 0 47.5253 0C41.4932 0 35.644 2.98099 32.5 7.55926L28.5517 3.919C28.1496 3.62599 27.7475 3.29635 27.3453 3.00335C24.5304 1.09878 21.1305 0 17.4747 0C13.2705 0 9.43195 1.46505 6.4342 3.88237C6.28796 3.99225 6.14173 4.13876 5.95894 4.28526C4.71597 5.34742 3.65579 6.59271 2.74184 7.94788C2.63217 8.13101 2.5225 8.27751 2.41282 8.46064C2.23003 8.79028 2.04724 9.11992 1.86445 9.44955C1.20641 10.7315 0.731159 12.1233 0.402137 13.5517C0.365579 13.7714 0.329021 13.9546 0.292463 14.1743C0.109674 15.1632 0 16.1888 0 17.2143C0 17.8369 0.0365579 18.4596 0.109674 19.0456C0.146232 19.2287 0.146232 19.4119 0.18279 19.595C0.329021 20.7304 0.621485 21.7926 0.987064 22.8547C1.46232 24.393 2.74184 26.4075 2.99775 26.7737C2.99775 26.8104 3.03431 26.8104 3.03431 26.847C3.14398 26.9935 3.25366 27.14 3.32677 27.2865C3.32677 27.3231 3.36333 27.3231 3.36333 27.3597C3.473 27.5062 3.58268 27.6528 3.69235 27.7993C3.72891 27.8359 3.76547 27.9091 3.80202 27.9458C3.87514 28.0556 3.98481 28.1655 4.05793 28.2754C4.1676 28.4219 4.31384 28.5684 4.46007 28.7149L4.49663 28.7515C4.78909 29.0445 5.04499 29.3376 5.33746 29.6306C5.37402 29.6306 5.37402 29.6672 5.41057 29.6672L7.64061 31.4985L11.1136 34.392L28.5152 48.8593L32.0979 51.8626C32.3172 52.0458 32.6828 52.0458 32.9021 51.8626L43.9061 42.7061L47.5253 39.7028L51.9488 36.0035L53.7767 34.5018L53.8498 34.4286L54.1057 34.2088L57.0669 31.7183L57.14 31.645L59.5894 29.6672C59.626 29.6672 59.626 29.6306 59.6625 29.6306C61.3442 28.019 62.7334 26.0778 63.6474 23.9169C64.5247 21.8658 65 19.6316 65 17.2509C65 14.2842 64.2688 11.5372 62.9528 9.15654Z" fill="#1798D5"/>
<path fill-rule="evenodd" clip-rule="evenodd" d="M25.8426 21.1488C28.431 21.1488 29.6852 24.1642 29.6852 26.379C29.6852 28.5404 28.5111 31.4491 26.0561 31.6092V33.4237H33.341V31.6092C31.6065 31.5024 30.2189 30.0615 30.2189 28.327C30.2189 26.4857 31.7132 25.0181 33.5278 25.0181C35.3423 25.0181 36.8367 26.4857 36.8367 28.327C36.8367 30.0615 35.4491 31.5024 33.7146 31.6092V33.4237H40.3323V30.5418C37.8507 30.4084 36.303 27.6865 37.4771 25.4717C37.317 23.3636 37.7706 18 40.5458 18C43.321 18 43.7747 23.3636 43.6146 25.4717C44.762 27.6865 43.2143 30.4084 40.7326 30.5418V33.4237H43.1876C43.4278 33.4237 43.4011 33.7973 43.1609 33.7706C41.4264 33.7706 25.6291 33.7706 23.8946 33.7706C23.6544 33.7973 23.6278 33.4237 23.8679 33.4237H25.6558V31.6092C23.2008 31.4491 22 28.5404 22 26.379C22 24.1642 23.2542 21.1488 25.8426 21.1488ZM27.6838 25.8453L26.0561 27.5798V31.2089C27.8439 31.0755 29.2849 28.9674 29.2849 26.379C29.2849 23.7105 27.7372 21.5491 25.8426 21.5491C23.948 21.5491 22.4003 23.7105 22.4003 26.379C22.4003 28.9674 23.8412 31.0755 25.6558 31.2089V29.3943L24.028 27.6598C23.8679 27.4997 24.1348 27.2596 24.2949 27.4197L25.6558 28.8873V25.3916C25.6291 25.1248 26.0561 25.1248 26.0561 25.3916V27.0728L27.417 25.6051C27.5771 25.4183 27.8439 25.6585 27.6838 25.8453ZM32.7539 29.0208L33.341 29.7146V27.5531C33.3143 27.2863 33.7146 27.2863 33.7146 27.5531V31.2089C35.2356 31.1022 36.4364 29.848 36.4364 28.327C36.4364 26.6992 35.1288 25.4183 33.5278 25.4183C31.9267 25.4183 30.6191 26.6992 30.6191 28.327C30.6191 29.848 31.8199 31.1022 33.341 31.2089V30.2749L32.4871 29.2609C32.327 29.0741 32.5938 28.834 32.7539 29.0208ZM38.7046 24.1108L40.3323 25.8453V30.1415C38.0908 30.0081 36.7566 27.4997 37.904 25.5518C37.6906 23.6571 38.1175 18.4003 40.5458 18.4003C42.9741 18.4003 43.4011 23.6571 43.1876 25.5518C44.3084 27.4997 43.0008 30.0081 40.7326 30.1415V28.327L42.3604 26.6191C42.5205 26.4323 42.2536 26.1922 42.0935 26.379L40.7326 27.8199V22.6698C40.7326 22.403 40.3323 22.403 40.3323 22.6965V25.3383L38.9714 23.8973C38.8113 23.7105 38.5445 23.9507 38.7046 24.1108Z" fill="white" stroke="white" stroke-width="0.5"/>
</svg>
