<svg width="1038" height="440" viewBox="0 0 1038 440" fill="none" xmlns="http://www.w3.org/2000/svg">
<path d="M972.953 278.157C970.028 272.736 964.215 269 957.525 269C951.493 269 945.644 271.981 942.5 276.559L938.552 272.919C938.15 272.626 937.747 272.296 937.345 272.003C934.53 270.099 931.13 269 927.475 269C923.271 269 919.432 270.465 916.434 272.882C916.288 272.992 916.142 273.139 915.959 273.285C914.716 274.347 913.656 275.593 912.742 276.948C912.632 277.131 912.522 277.278 912.413 277.461C912.23 277.79 912.047 278.12 911.864 278.45C911.206 279.731 910.731 281.123 910.402 282.552C910.366 282.771 910.329 282.955 910.292 283.174C910.11 284.163 910 285.189 910 286.214C910 286.837 910.037 287.46 910.11 288.046C910.146 288.229 910.146 288.412 910.183 288.595C910.329 289.73 910.621 290.793 910.987 291.855C911.462 293.393 912.742 295.407 912.998 295.774C912.998 295.81 913.034 295.81 913.034 295.847C913.144 295.993 913.254 296.14 913.327 296.286C913.327 296.323 913.363 296.323 913.363 296.36C913.473 296.506 913.583 296.653 913.692 296.799C913.729 296.836 913.765 296.909 913.802 296.946C913.875 297.056 913.985 297.166 914.058 297.275C914.168 297.422 914.314 297.568 914.46 297.715L914.497 297.752C914.789 298.045 915.045 298.338 915.337 298.631C915.374 298.631 915.374 298.667 915.411 298.667L917.641 300.499L921.114 303.392L938.515 317.859L942.098 320.863C942.317 321.046 942.683 321.046 942.902 320.863L953.906 311.706L957.525 308.703L961.949 305.004L963.777 303.502L963.85 303.429L964.106 303.209L967.067 300.718L967.14 300.645L969.589 298.667C969.626 298.667 969.626 298.631 969.663 298.631C971.344 297.019 972.733 295.078 973.647 292.917C974.525 290.866 975 288.632 975 286.251C975 283.284 974.269 280.537 972.953 278.157Z" fill="#83529B"/>
<path fill-rule="evenodd" clip-rule="evenodd" d="M943.089 303.609V290.319H929.391C929.175 290.319 929 290.143 929 289.928C929 289.712 929.175 289.537 929.391 289.537H937.986L937.938 287.32H936.36L936.243 287.157C935.645 286.323 935.709 285.531 936.258 284.857L936.375 284.713H942.119L942.235 284.893C942.63 285.507 942.707 286.235 942.253 287.109L942.144 287.32H940.546L940.594 289.537H943.48C943.493 289.537 943.506 289.537 943.519 289.539C943.717 289.559 943.871 289.725 943.871 289.928L943.871 296.349C944.512 295.981 945.24 295.86 946.031 295.955C946.909 296.061 947.866 296.431 948.885 297.017C948.899 297.025 948.912 297.034 948.925 297.043C950.927 298.54 952.798 298.183 954.71 296.772C954.884 296.644 955.129 296.681 955.257 296.855C955.385 297.028 955.348 297.274 955.174 297.402C953.13 298.91 950.941 299.392 948.676 297.827L948.48 297.687L948.138 297.498C947.316 297.063 946.582 296.809 945.937 296.732C945.209 296.645 944.598 296.781 944.084 297.139C944.019 297.184 943.944 297.207 943.871 297.209L943.871 303.609C943.871 303.825 943.695 304 943.48 304C943.264 304 943.089 303.825 943.089 303.609ZM949.744 301.246L949.637 301.177L949.445 301.081C948.972 300.855 948.556 300.726 948.196 300.687C947.791 300.643 947.465 300.713 947.198 300.881C947.015 300.996 946.773 300.94 946.658 300.757C946.544 300.575 946.599 300.333 946.782 300.218C947.225 299.94 947.735 299.85 948.281 299.909C948.82 299.968 949.401 300.172 950.011 300.489C950.024 300.496 950.037 300.504 950.05 300.512C950.623 300.899 951.16 301.032 951.676 300.994C952.199 300.955 952.734 300.738 953.291 300.367C953.471 300.248 953.713 300.296 953.833 300.476C953.953 300.655 953.904 300.898 953.725 301.018C953.097 301.436 952.433 301.722 951.733 301.774C951.069 301.823 950.404 301.659 949.744 301.246ZM939.811 289.537L939.746 286.538H941.655L941.664 286.519C941.81 286.151 941.808 285.858 941.72 285.604L941.674 285.495L936.758 285.497C936.567 285.799 936.538 286.114 936.751 286.501L936.775 286.538H938.703L938.769 289.537H939.811Z" fill="white"/>
<path d="M140.953 36.1565C138.028 30.7359 132.215 27 125.525 27C119.493 27 113.644 29.981 110.5 34.5593L106.552 30.919C106.15 30.626 105.747 30.2964 105.345 30.0033C102.53 28.0988 99.1305 27 95.4747 27C91.2705 27 87.4319 28.465 84.4342 30.8824C84.288 30.9923 84.1417 31.1388 83.9589 31.2853C82.716 32.3474 81.6558 33.5927 80.7418 34.9479C80.6322 35.131 80.5225 35.2775 80.4128 35.4606C80.23 35.7903 80.0472 36.1199 79.8645 36.4495C79.2064 37.7315 78.7312 39.1233 78.4021 40.5517C78.3656 40.7714 78.329 40.9546 78.2925 41.1743C78.1097 42.1632 78 43.1888 78 44.2143C78 44.8369 78.0366 45.4596 78.1097 46.0456C78.1462 46.2287 78.1462 46.4119 78.1828 46.595C78.329 47.7304 78.6215 48.7926 78.9871 49.8547C79.4623 51.393 80.7418 53.4075 80.9978 53.7737C80.9978 53.8104 81.0343 53.8104 81.0343 53.847C81.144 53.9935 81.2537 54.14 81.3268 54.2865C81.3268 54.3231 81.3633 54.3231 81.3633 54.3597C81.473 54.5062 81.5827 54.6528 81.6924 54.7993C81.7289 54.8359 81.7655 54.9091 81.802 54.9458C81.8751 55.0556 81.9848 55.1655 82.0579 55.2754C82.1676 55.4219 82.3138 55.5684 82.4601 55.7149L82.4966 55.7515C82.7891 56.0445 83.045 56.3376 83.3375 56.6306C83.374 56.6306 83.374 56.6672 83.4106 56.6672L85.6406 58.4985L89.1136 61.392L106.515 75.8593L110.098 78.8626C110.317 79.0458 110.683 79.0458 110.902 78.8626L121.906 69.7061L125.525 66.7028L129.949 63.0035L131.777 61.5018L131.85 61.4286L132.106 61.2088L135.067 58.7183L135.14 58.645L137.589 56.6672C137.626 56.6672 137.626 56.6306 137.663 56.6306C139.344 55.019 140.733 53.0778 141.647 50.9169C142.525 48.8658 143 46.6316 143 44.2509C143 41.2842 142.269 38.5372 140.953 36.1565Z" fill="#83529B"/>
<path d="M119.667 56.3333V55H120.333V54.3333H119V53H119.667V52.3333H118.333V51H119V50.3333H118.333V47.6667H119V43H103V47.6667H103.667V50.3333H103V51H103.667V52.3333H102.333V53H103V54.3333H101.667V55H102.333V56.3333H101V57H101.667V58.3947C101.472 58.4634 101.304 58.5904 101.185 58.7584C101.065 58.9265 101.001 59.1272 101 59.3333V63H101.667V61.6667H102.667V63H103.333V61.6667H104.667V63H105.333V61.6667H106.667V63H107.333V61.6667H108.667V63H109.333V61.6667H110.667V63H111.333V61.6667H112.667V63H113.333V61.6667H114.667V63H115.333V61.6667H116.667V63H117.333V61.6667H118.667V63H119.333V61.6667H120.333V63H121V59.3333C120.999 59.1272 120.935 58.9265 120.815 58.7584C120.696 58.5904 120.528 58.4634 120.333 58.3947V57H121V56.3333H119.667ZM119 56.3333H113V55H119V56.3333ZM120.333 59.3333V59.6667H119.333V59H120C120.088 59 120.173 59.0351 120.236 59.0976C120.298 59.1601 120.333 59.2449 120.333 59.3333ZM118.667 59.6667H117.333V59H118.667V59.6667ZM116.667 59.6667H115.333V59H116.667V59.6667ZM114.667 59.6667H113.333V59H114.667V59.6667ZM104.667 59V59.6667H103.333V59H104.667ZM105.333 59H106.667V59.6667H105.333V59ZM107.333 59H108.667V59.6667H107.333V59ZM109.333 59H110.667V59.6667H109.333V59ZM111.333 59H112.667V59.6667H111.333V59ZM113 58.3333H109V57H113V58.3333ZM109.667 55H112.333V56.3333H109.667V55ZM110.333 53H111.667V54.3333H110.333V53ZM118.333 54.3333H112.333V53H118.333V54.3333ZM117.667 52.3333H111.333V51H117.667V52.3333ZM105.667 50.3333V47.6667H116.333V50.3333H105.667ZM117.667 50.3333H117V47.6667H117.667V50.3333ZM103.667 43.6667H118.333V47H103.667V43.6667ZM104.333 47.6667H105V50.3333H104.333V47.6667ZM104.333 51H110.667V52.3333H104.333V51ZM103.667 53H109.667V54.3333H103.667V53ZM103 55H109V56.3333H103V55ZM108.333 57V58.3333H102.333V57H108.333ZM102 59H102.667V59.6667H101.667V59.3333C101.667 59.2449 101.702 59.1601 101.764 59.0976C101.827 59.0351 101.912 59 102 59ZM101.667 61V60.3333H102.667V61H101.667ZM103.333 61V60.3333H104.667V61H103.333ZM105.333 61V60.3333H106.667V61H105.333ZM107.333 61V60.3333H108.667V61H107.333ZM109.333 61V60.3333H110.667V61H109.333ZM111.333 61V60.3333H112.667V61H111.333ZM113.333 61V60.3333H114.667V61H113.333ZM115.333 61V60.3333H116.667V61H115.333ZM117.333 61V60.3333H118.667V61H117.333ZM119.333 61V60.3333H120.333V61H119.333ZM119.667 58.3333H113.667V57H119.667V58.3333Z" fill="white"/>
<path d="M111.002 46.3333C111.2 46.3333 111.393 46.2747 111.558 46.1648C111.722 46.0549 111.85 45.8987 111.926 45.716C112.002 45.5333 112.021 45.3322 111.983 45.1382C111.944 44.9442 111.849 44.7661 111.709 44.6262C111.569 44.4864 111.391 44.3911 111.197 44.3525C111.003 44.3139 110.802 44.3337 110.619 44.4094C110.437 44.4851 110.28 44.6133 110.17 44.7777C110.061 44.9422 110.002 45.1355 110.002 45.3333C110.002 45.5985 110.107 45.8529 110.295 46.0404C110.482 46.228 110.737 46.3333 111.002 46.3333ZM111.002 45C111.068 45 111.132 45.0195 111.187 45.0562C111.242 45.0928 111.285 45.1448 111.31 45.2058C111.335 45.2667 111.342 45.3337 111.329 45.3983C111.316 45.463 111.284 45.5224 111.238 45.569C111.191 45.6156 111.132 45.6474 111.067 45.6602C111.002 45.6731 110.935 45.6665 110.874 45.6413C110.813 45.616 110.761 45.5733 110.725 45.5185C110.688 45.4637 110.669 45.3992 110.669 45.3333C110.669 45.2449 110.704 45.1601 110.766 45.0976C110.829 45.0351 110.914 45 111.002 45Z" fill="white"/>
<path d="M109.001 44.3333H104.334V46.3333H109.001V44.3333ZM108.334 45.6666H105.001V45H108.334V45.6666Z" fill="white"/>
<path d="M117.667 44.3333H113V46.3333H117.667V44.3333ZM117 45.6666H113.667V45H117V45.6666Z" fill="white"/>
<path d="M776.953 211.157C774.028 205.736 768.215 202 761.525 202C755.493 202 749.644 204.981 746.5 209.559L742.552 205.919C742.15 205.626 741.747 205.296 741.345 205.003C738.53 203.099 735.13 202 731.475 202C727.271 202 723.432 203.465 720.434 205.882C720.288 205.992 720.142 206.139 719.959 206.285C718.716 207.347 717.656 208.593 716.742 209.948C716.632 210.131 716.522 210.278 716.413 210.461C716.23 210.79 716.047 211.12 715.864 211.45C715.206 212.731 714.731 214.123 714.402 215.552C714.366 215.771 714.329 215.955 714.292 216.174C714.11 217.163 714 218.189 714 219.214C714 219.837 714.037 220.46 714.11 221.046C714.146 221.229 714.146 221.412 714.183 221.595C714.329 222.73 714.621 223.793 714.987 224.855C715.462 226.393 716.742 228.407 716.998 228.774C716.998 228.81 717.034 228.81 717.034 228.847C717.144 228.993 717.254 229.14 717.327 229.286C717.327 229.323 717.363 229.323 717.363 229.36C717.473 229.506 717.583 229.653 717.692 229.799C717.729 229.836 717.765 229.909 717.802 229.946C717.875 230.056 717.985 230.166 718.058 230.275C718.168 230.422 718.314 230.568 718.46 230.715L718.497 230.752C718.789 231.045 719.045 231.338 719.337 231.631C719.374 231.631 719.374 231.667 719.411 231.667L721.641 233.499L725.114 236.392L742.515 250.859L746.098 253.863C746.317 254.046 746.683 254.046 746.902 253.863L757.906 244.706L761.525 241.703L765.949 238.004L767.777 236.502L767.85 236.429L768.106 236.209L771.067 233.718L771.14 233.645L773.589 231.667C773.626 231.667 773.626 231.631 773.663 231.631C775.344 230.019 776.733 228.078 777.647 225.917C778.525 223.866 779 221.632 779 219.251C779 216.284 778.269 213.537 776.953 211.157Z" fill="#83529B"/>
<path d="M755.797 229.802C755.756 229.802 755.716 229.782 755.675 229.761C755.005 229.335 754.253 228.949 753.441 228.603C749.358 226.917 744.665 226.917 740.582 228.603C739.75 228.949 738.998 229.335 738.348 229.761C738.287 229.802 738.185 229.802 738.124 229.761C738.043 229.721 738.003 229.639 738.003 229.558V218.223C737.982 218.102 738.084 218 738.206 218H755.777C755.898 218 756 218.102 756 218.223V229.578C756 229.66 755.959 229.741 755.878 229.782C755.858 229.802 755.837 229.802 755.797 229.802ZM738.429 218.447V229.172C739.018 228.807 739.689 228.482 740.4 228.197C744.604 226.45 749.419 226.45 753.603 228.197C754.314 228.482 754.964 228.827 755.573 229.172V218.447H738.429Z" fill="white" stroke="white" stroke-width="0.5"/>
<path d="M739.831 227.161C739.79 227.161 739.75 227.141 739.709 227.121C739.648 227.08 739.607 227.019 739.607 226.938V219.828C739.607 219.706 739.709 219.605 739.831 219.605H754.192C754.314 219.605 754.416 219.706 754.416 219.828V226.938C754.416 227.019 754.375 227.08 754.314 227.121C754.253 227.161 754.172 227.161 754.111 227.141L754.07 227.121C751.816 226.186 749.439 225.719 747.001 225.719C744.564 225.719 742.187 226.186 739.953 227.121L739.912 227.141C739.871 227.161 739.851 227.161 739.831 227.161ZM747.001 225.272C749.398 225.272 751.734 225.719 753.969 226.592V220.052H740.034V226.613C742.268 225.719 744.604 225.272 747.001 225.272Z" fill="white" stroke="white" stroke-width="0.5"/>
<path d="M751.486 225.922H751.039V222.266H742.955V225.922H742.508V222.063C742.508 221.941 742.609 221.839 742.731 221.839H751.263C751.385 221.839 751.486 221.941 751.486 222.063V225.922Z" fill="white" stroke="white" stroke-width="0.5"/>
<path d="M747.285 227.121H746.838V229.111H747.285V227.121Z" fill="white" stroke="white" stroke-width="0.5"/>
<path d="M747.06 232.463C744.623 232.463 742.043 231.813 742.043 230.594C742.043 229.375 744.623 228.725 747.06 228.725C749.498 228.725 752.098 229.375 752.098 230.594C752.098 231.793 749.498 232.463 747.06 232.463ZM747.06 229.172C744.359 229.172 742.47 229.924 742.47 230.594C742.47 231.264 744.359 232.016 747.06 232.016C749.762 232.016 751.651 231.264 751.651 230.594C751.651 229.924 749.762 229.172 747.06 229.172Z" fill="white" stroke="white" stroke-width="0.5"/>
<path d="M749.479 238.313H744.665C744.015 238.313 743.466 237.805 743.425 237.155C743.222 233.986 742.085 230.696 742.064 230.675L742.491 230.533C742.511 230.574 743.669 233.905 743.872 237.135C743.893 237.562 744.258 237.887 744.665 237.887H749.499C749.926 237.887 750.271 237.562 750.291 237.135C750.494 233.905 751.673 230.554 751.673 230.533L752.099 230.675C752.079 230.716 750.941 233.986 750.738 237.155C750.677 237.805 750.129 238.313 749.479 238.313Z" fill="white" stroke="white" stroke-width="0.5"/>
<path d="M709.953 221.157C707.028 215.736 701.215 212 694.525 212C688.493 212 682.644 214.981 679.5 219.559L675.552 215.919C675.15 215.626 674.747 215.296 674.345 215.003C671.53 213.099 668.13 212 664.475 212C660.271 212 656.432 213.465 653.434 215.882C653.288 215.992 653.142 216.139 652.959 216.285C651.716 217.347 650.656 218.593 649.742 219.948C649.632 220.131 649.522 220.278 649.413 220.461C649.23 220.79 649.047 221.12 648.864 221.45C648.206 222.731 647.731 224.123 647.402 225.552C647.366 225.771 647.329 225.955 647.292 226.174C647.11 227.163 647 228.189 647 229.214C647 229.837 647.037 230.46 647.11 231.046C647.146 231.229 647.146 231.412 647.183 231.595C647.329 232.73 647.621 233.793 647.987 234.855C648.462 236.393 649.742 238.407 649.998 238.774C649.998 238.81 650.034 238.81 650.034 238.847C650.144 238.993 650.254 239.14 650.327 239.286C650.327 239.323 650.363 239.323 650.363 239.36C650.473 239.506 650.583 239.653 650.692 239.799C650.729 239.836 650.765 239.909 650.802 239.946C650.875 240.056 650.985 240.166 651.058 240.275C651.168 240.422 651.314 240.568 651.46 240.715L651.497 240.752C651.789 241.045 652.045 241.338 652.337 241.631C652.374 241.631 652.374 241.667 652.411 241.667L654.641 243.499L658.114 246.392L675.515 260.859L679.098 263.863C679.317 264.046 679.683 264.046 679.902 263.863L690.906 254.706L694.525 251.703L698.949 248.004L700.777 246.502L700.85 246.429L701.106 246.209L704.067 243.718L704.14 243.645L706.589 241.667C706.626 241.667 706.626 241.631 706.663 241.631C708.344 240.019 709.733 238.078 710.647 235.917C711.525 233.866 712 231.632 712 229.251C712 226.284 711.269 223.537 709.953 221.157Z" fill="#83529B"/>
<path d="M671.611 235.572C671.515 235.572 671.423 235.61 671.356 235.678C671.288 235.746 671.25 235.837 671.25 235.933C671.25 236.029 671.288 236.12 671.356 236.188C671.423 236.256 671.515 236.294 671.611 236.294H675.524V237.675C675.524 237.771 675.562 237.863 675.63 237.93C675.698 237.998 675.789 238.036 675.885 238.036C675.981 238.036 676.072 237.998 676.14 237.93C676.208 237.863 676.246 237.771 676.246 237.675V236.294H677.425V239.573C677.425 239.668 677.463 239.76 677.531 239.828C677.599 239.895 677.69 239.933 677.786 239.933C677.882 239.933 677.973 239.895 678.041 239.828C678.109 239.76 678.147 239.668 678.147 239.573V236.294H678.893C678.989 236.294 679.081 236.256 679.148 236.188C679.216 236.12 679.254 236.029 679.254 235.933C679.254 235.837 679.216 235.746 679.148 235.678C679.081 235.61 678.989 235.572 678.893 235.572H678.143V234.393H680.791C680.886 234.393 680.978 234.355 681.046 234.287C681.113 234.22 681.151 234.128 681.151 234.032C681.151 233.937 681.113 233.845 681.046 233.777C680.978 233.709 680.886 233.671 680.791 233.671H678.143V232.294C678.143 232.198 678.105 232.106 678.037 232.039C677.97 231.971 677.878 231.933 677.782 231.933C677.687 231.933 677.595 231.971 677.527 232.039C677.46 232.106 677.422 232.198 677.422 232.294V233.675H676.246V230.393C676.246 230.297 676.208 230.205 676.14 230.138C676.072 230.07 675.981 230.032 675.885 230.032C675.789 230.032 675.698 230.07 675.63 230.138C675.562 230.205 675.524 230.297 675.524 230.393V233.671H673.508C673.412 233.671 673.321 233.709 673.253 233.777C673.185 233.845 673.147 233.937 673.147 234.032C673.147 234.128 673.185 234.22 673.253 234.287C673.321 234.355 673.412 234.393 673.508 234.393H675.521V235.572H671.611ZM676.246 234.393H677.425V235.572H676.246V234.393Z" fill="white"/>
<path d="M671.989 238.83C672.062 238.769 672.107 238.683 672.117 238.589C672.126 238.495 672.099 238.402 672.04 238.328C669.356 235.172 668.945 231.193 671.073 229.065C673.374 226.764 677.833 227.471 681.011 230.649C682.502 232.086 683.501 233.958 683.864 235.998C683.903 236.262 683.927 236.528 683.936 236.795C683.956 237.299 683.912 237.803 683.806 238.296C683.806 238.35 683.784 238.408 683.77 238.458C683.755 238.509 683.712 238.66 683.68 238.761C683.647 238.862 683.626 238.927 683.593 239.01C683.561 239.093 683.528 239.172 683.492 239.252C683.456 239.331 683.402 239.439 683.355 239.533C683.308 239.627 683.287 239.663 683.247 239.728C683.207 239.793 683.117 239.93 683.049 240.027C682.98 240.124 682.984 240.124 682.948 240.171C682.749 240.432 682.519 240.667 682.262 240.871L682.176 240.94C682.064 241.026 681.952 241.109 681.815 241.181C681.685 241.261 681.552 241.335 681.415 241.401L681.342 241.434C681.048 241.571 680.742 241.679 680.426 241.755C679.895 241.88 679.349 241.933 678.803 241.91C678.357 241.89 677.914 241.829 677.479 241.73C677.497 240.95 677.217 240.192 676.696 239.611C676.176 239.03 675.454 238.668 674.676 238.6C673.899 238.531 673.125 238.761 672.511 239.242C671.897 239.724 671.489 240.421 671.37 241.192C671.25 241.963 671.429 242.75 671.869 243.395C672.309 244.039 672.978 244.492 673.74 244.661C674.501 244.83 675.299 244.704 675.97 244.307C676.642 243.91 677.138 243.272 677.357 242.523C677.357 242.498 677.357 242.469 677.357 242.444C677.819 242.546 678.29 242.608 678.763 242.628C680.483 242.662 682.184 242.998 683.788 243.62L683.889 243.659L688.293 248.067C688.41 248.185 688.549 248.278 688.702 248.342C688.854 248.405 689.018 248.438 689.184 248.438C689.35 248.438 689.514 248.405 689.667 248.342C689.82 248.278 689.958 248.185 690.075 248.067C690.31 247.832 690.442 247.513 690.442 247.18C690.442 246.847 690.31 246.528 690.075 246.293L685.689 241.903L685.649 241.802C685.032 240.205 684.699 238.513 684.664 236.802C684.656 236.497 684.629 236.192 684.585 235.89C684.2 233.697 683.13 231.683 681.53 230.137C678.064 226.681 673.147 225.97 670.565 228.557C668.169 230.952 668.563 235.349 671.481 238.79C671.512 238.826 671.549 238.855 671.591 238.877C671.634 238.898 671.68 238.911 671.727 238.915C671.774 238.919 671.822 238.913 671.867 238.898C671.912 238.884 671.953 238.86 671.989 238.83ZM672.711 239.98C672.931 239.758 673.194 239.582 673.483 239.461C673.515 239.51 673.543 239.562 673.566 239.616C673.566 239.616 673.566 239.652 673.566 239.666C673.579 239.704 673.59 239.743 673.598 239.782C673.598 239.803 673.598 239.825 673.598 239.847C673.6 239.883 673.6 239.919 673.598 239.955C673.598 239.977 673.598 239.998 673.598 240.023C673.6 240.058 673.6 240.093 673.598 240.128C673.598 240.15 673.598 240.171 673.598 240.193C673.589 240.228 673.578 240.263 673.566 240.298C673.566 240.319 673.566 240.337 673.544 240.359C673.527 240.396 673.508 240.432 673.486 240.467L673.457 240.514C673.39 240.616 673.303 240.703 673.201 240.77L673.151 240.799L673.046 240.853L672.981 240.875L672.88 240.904H672.812H672.711H672.642H672.538H672.473L672.354 240.868H672.307C672.254 240.844 672.203 240.817 672.155 240.785C672.28 240.483 672.466 240.211 672.7 239.984L672.711 239.98ZM672.711 243.342C672.471 243.102 672.285 242.813 672.166 242.495C672.047 242.177 671.998 241.837 672.022 241.499H672.058L672.137 241.528C672.204 241.552 672.273 241.573 672.343 241.589L672.437 241.607C672.511 241.619 672.585 241.626 672.66 241.629H672.729C672.826 241.627 672.922 241.618 673.017 241.6H673.075C673.151 241.583 673.226 241.562 673.299 241.535L673.385 241.499C673.451 241.469 673.515 241.436 673.576 241.398L673.656 241.351C673.74 241.294 673.818 241.23 673.89 241.16C673.962 241.087 674.028 241.007 674.085 240.922L674.132 240.846C674.17 240.784 674.203 240.721 674.233 240.655L674.269 240.568C674.296 240.494 674.318 240.418 674.334 240.341C674.334 240.323 674.334 240.305 674.334 240.287C674.351 240.192 674.359 240.095 674.359 239.998C674.359 239.973 674.359 239.944 674.359 239.919C674.357 239.846 674.349 239.774 674.338 239.702C674.338 239.67 674.338 239.638 674.316 239.605C674.3 239.535 674.279 239.467 674.255 239.399C674.255 239.371 674.237 239.345 674.226 239.32V239.291C674.563 239.27 674.901 239.32 675.217 239.439C675.533 239.558 675.82 239.744 676.059 239.983C676.298 240.221 676.484 240.509 676.603 240.825C676.722 241.141 676.772 241.479 676.751 241.816H676.725C676.656 241.789 676.585 241.766 676.513 241.748C676.476 241.748 676.44 241.722 676.401 241.715C676.288 241.691 676.173 241.679 676.058 241.679C675.787 241.677 675.52 241.741 675.28 241.867C675.04 241.993 674.836 242.176 674.684 242.401L674.637 242.48C674.6 242.54 674.568 242.603 674.539 242.667L674.503 242.754C674.476 242.828 674.455 242.904 674.438 242.981C674.438 242.999 674.438 243.017 674.438 243.039C674.422 243.134 674.413 243.231 674.413 243.328C674.413 243.353 674.413 243.378 674.413 243.403C674.416 243.477 674.423 243.551 674.435 243.623C674.435 243.656 674.435 243.685 674.453 243.717C674.47 243.788 674.492 243.858 674.518 243.926C674.518 243.952 674.518 243.977 674.547 244.002V244.031C674.208 244.055 673.868 244.006 673.549 243.888C673.231 243.77 672.941 243.585 672.7 243.346L672.711 243.342ZM676.072 243.342C675.848 243.568 675.581 243.747 675.286 243.869C675.254 243.82 675.226 243.768 675.203 243.713C675.203 243.713 675.203 243.681 675.203 243.667C675.189 243.628 675.177 243.588 675.167 243.548C675.167 243.526 675.167 243.508 675.167 243.486C675.165 243.45 675.165 243.414 675.167 243.378C675.167 243.356 675.167 243.335 675.167 243.313C675.165 243.277 675.165 243.241 675.167 243.205C675.167 243.183 675.167 243.162 675.167 243.14C675.176 243.104 675.187 243.07 675.2 243.035C675.2 243.014 675.2 242.996 675.221 242.974C675.237 242.938 675.255 242.903 675.275 242.869L675.304 242.819C675.338 242.768 675.377 242.721 675.42 242.678C675.578 242.531 675.779 242.439 675.994 242.417C676.209 242.395 676.425 242.444 676.61 242.556C676.483 242.853 676.296 243.122 676.062 243.346L676.072 243.342ZM681.674 242.098L681.84 242.018C681.948 241.96 682.057 241.899 682.161 241.834L682.295 241.755C682.406 241.683 682.511 241.603 682.616 241.524L682.72 241.448C683.015 241.212 683.28 240.942 683.51 240.644L683.615 240.503C683.701 240.385 683.782 240.265 683.856 240.142L683.954 239.977C684.033 239.836 684.102 239.695 684.167 239.547C684.167 239.508 684.206 239.472 684.221 239.432C684.383 240.319 684.632 241.187 684.964 242.025L684.499 242.491L684.033 242.956C683.188 242.62 682.312 242.369 681.418 242.206C681.512 242.173 681.588 242.134 681.663 242.098H681.674ZM689.714 247.173C689.711 247.308 689.655 247.437 689.559 247.533C689.457 247.631 689.322 247.685 689.18 247.685C689.039 247.685 688.904 247.631 688.802 247.533L684.625 243.378L685.382 242.621L689.559 246.794C689.609 246.844 689.648 246.903 689.675 246.968C689.701 247.033 689.715 247.102 689.714 247.173Z" fill="white"/>
<path d="M62.9528 15.1565C60.0281 9.73587 54.2154 6 47.5253 6C41.4932 6 35.644 8.98099 32.5 13.5593L28.5517 9.919C28.1496 9.62599 27.7475 9.29635 27.3453 9.00335C24.5304 7.09878 21.1305 6 17.4747 6C13.2705 6 9.43195 7.46505 6.4342 9.88237C6.28796 9.99225 6.14173 10.1388 5.95894 10.2853C4.71597 11.3474 3.65579 12.5927 2.74184 13.9479C2.63217 14.131 2.5225 14.2775 2.41282 14.4606C2.23003 14.7903 2.04724 15.1199 1.86445 15.4495C1.20641 16.7315 0.731159 18.1233 0.402137 19.5517C0.365579 19.7714 0.329021 19.9546 0.292463 20.1743C0.109674 21.1632 0 22.1888 0 23.2143C0 23.8369 0.0365579 24.4596 0.109674 25.0456C0.146232 25.2287 0.146232 25.4119 0.18279 25.595C0.329021 26.7304 0.621485 27.7926 0.987064 28.8547C1.46232 30.393 2.74184 32.4075 2.99775 32.7737C2.99775 32.8104 3.03431 32.8104 3.03431 32.847C3.14398 32.9935 3.25366 33.14 3.32677 33.2865C3.32677 33.3231 3.36333 33.3231 3.36333 33.3597C3.473 33.5062 3.58268 33.6528 3.69235 33.7993C3.72891 33.8359 3.76547 33.9091 3.80202 33.9458C3.87514 34.0556 3.98481 34.1655 4.05793 34.2754C4.1676 34.4219 4.31384 34.5684 4.46007 34.7149L4.49663 34.7515C4.78909 35.0445 5.04499 35.3376 5.33746 35.6306C5.37402 35.6306 5.37402 35.6672 5.41057 35.6672L7.64061 37.4985L11.1136 40.392L28.5152 54.8593L32.0979 57.8626C32.3172 58.0458 32.6828 58.0458 32.9021 57.8626L43.9061 48.7061L47.5253 45.7028L51.9488 42.0035L53.7767 40.5018L53.8498 40.4286L54.1057 40.2088L57.0669 37.7183L57.14 37.645L59.5894 35.6672C59.626 35.6672 59.626 35.6306 59.6625 35.6306C61.3442 34.019 62.7334 32.0778 63.6474 29.9169C64.5247 27.8658 65 25.6316 65 23.2509C65 20.2842 64.2688 17.5372 62.9528 15.1565Z" fill="#83529B"/>
<path d="M42 31.8312H23L23.0108 31.6253C23.1409 29.7285 24.138 27.9293 25.818 26.5745L25.8397 26.5636C25.8505 26.5528 27.433 25.4148 29.0154 24.2875C32.1152 22.0982 32.397 22.0006 32.5163 22.0006C32.6355 21.9898 32.9173 22.0982 36.0063 24.2875C37.5887 25.4148 39.1603 26.5528 39.1711 26.5636L39.1928 26.5745C40.8728 27.9293 41.8591 29.7177 42 31.6253V31.8312ZM23.401 31.4518H41.5881C41.4039 29.7285 40.4718 28.1136 38.9435 26.878C36.6891 25.2413 33.004 22.6184 32.5054 22.3908C32.0068 22.6184 28.3109 25.2305 26.0456 26.8671L25.9264 26.7262L26.0456 26.878C24.5174 28.1136 23.5853 29.7393 23.401 31.4518Z" fill="white" stroke="white" stroke-width="0.5"/>
<path d="M35.8229 31.6578C35.8229 31.6252 35.6062 28.2111 32.3438 22.2932L32.6797 22.109C35.9747 28.1135 36.1914 31.4952 36.2023 31.6361L35.8229 31.6578Z" fill="white" stroke="white" stroke-width="0.5"/>
<path d="M29.1782 31.6578L28.7988 31.6361C28.8097 31.4952 29.0156 28.1135 32.3214 22.109L32.6574 22.2932C30.9557 25.3822 30.0995 27.7667 29.6876 29.2191C29.2324 30.7907 29.1782 31.6469 29.1782 31.6578Z" fill="white" stroke="white" stroke-width="0.5"/>
<path d="M32.645 31.7336H32.2656V42.1061H32.645V31.7336Z" fill="white" stroke="white" stroke-width="0.5"/>
<path d="M85.9528 128.157C83.0281 122.736 77.2154 119 70.5253 119C64.4932 119 58.644 121.981 55.5 126.559L51.5517 122.919C51.1496 122.626 50.7475 122.296 50.3453 122.003C47.5304 120.099 44.1305 119 40.4747 119C36.2705 119 32.4319 120.465 29.4342 122.882C29.288 122.992 29.1417 123.139 28.9589 123.285C27.716 124.347 26.6558 125.593 25.7418 126.948C25.6322 127.131 25.5225 127.278 25.4128 127.461C25.23 127.79 25.0472 128.12 24.8645 128.45C24.2064 129.731 23.7312 131.123 23.4021 132.552C23.3656 132.771 23.329 132.955 23.2925 133.174C23.1097 134.163 23 135.189 23 136.214C23 136.837 23.0366 137.46 23.1097 138.046C23.1462 138.229 23.1462 138.412 23.1828 138.595C23.329 139.73 23.6215 140.793 23.9871 141.855C24.4623 143.393 25.7418 145.407 25.9978 145.774C25.9978 145.81 26.0343 145.81 26.0343 145.847C26.144 145.993 26.2537 146.14 26.3268 146.286C26.3268 146.323 26.3633 146.323 26.3633 146.36C26.473 146.506 26.5827 146.653 26.6924 146.799C26.7289 146.836 26.7655 146.909 26.802 146.946C26.8751 147.056 26.9848 147.166 27.0579 147.275C27.1676 147.422 27.3138 147.568 27.4601 147.715L27.4966 147.752C27.7891 148.045 28.045 148.338 28.3375 148.631C28.374 148.631 28.374 148.667 28.4106 148.667L30.6406 150.499L34.1136 153.392L51.5152 167.859L55.0979 170.863C55.3172 171.046 55.6828 171.046 55.9021 170.863L66.9061 161.706L70.5253 158.703L74.9488 155.004L76.7767 153.502L76.8498 153.429L77.1057 153.209L80.0669 150.718L80.14 150.645L82.5894 148.667C82.626 148.667 82.626 148.631 82.6625 148.631C84.3442 147.019 85.7334 145.078 86.6474 142.917C87.5247 140.866 88 138.632 88 136.251C88 133.284 87.2688 130.537 85.9528 128.157Z" fill="#83529B"/>
<path d="M56.7814 154.984C56.8196 154.982 56.8577 154.979 56.8959 154.977C56.9355 154.974 56.9751 154.971 57.0147 154.968C57.0252 154.967 57.0357 154.966 57.0462 154.965C59.3481 154.771 61.487 153.761 63.1386 152.071C63.1747 152.034 63.21 151.996 63.2456 151.958C63.2534 151.95 63.2614 151.942 63.2692 151.934C63.304 151.897 63.3383 151.859 63.3725 151.822C63.376 151.818 63.3794 151.814 63.3829 151.81C65.0729 149.954 66 147.55 66 145C66 142.329 64.9838 139.817 63.1386 137.929C61.4861 136.237 59.3457 135.227 57.042 135.035C57.0332 135.034 57.0245 135.033 57.0157 135.032C56.9757 135.029 56.9355 135.026 56.8954 135.023C56.8577 135.021 56.8202 135.018 56.7825 135.016C56.7511 135.014 56.7197 135.013 56.6882 135.011C56.6269 135.008 56.5655 135.006 56.5041 135.004C56.4836 135.004 56.4631 135.003 56.4426 135.003C56.3716 135.001 56.3006 135 56.2296 135C56.1587 135 56.0878 135.001 56.0168 135.003C55.9962 135.003 55.9756 135.004 55.955 135.004C55.8943 135.006 55.8336 135.008 55.773 135.011C55.7401 135.013 55.7072 135.015 55.6743 135.016C55.638 135.019 55.6017 135.021 55.5655 135.023C55.5243 135.026 55.4832 135.029 55.442 135.032C55.4364 135.033 55.4307 135.033 55.4251 135.034C53.1188 135.225 50.9755 136.236 49.3213 137.929C47.4762 139.817 46.46 142.329 46.46 145C46.46 147.671 47.4762 150.182 49.3213 152.071C50.1819 152.952 51.1749 153.648 52.2541 154.14H45.4204C45.1882 154.14 45 154.333 45 154.57C45 154.807 45.1882 155 45.4204 155H56.4994C56.5225 155 56.545 154.998 56.5671 154.994C56.6077 154.992 56.6484 154.991 56.689 154.989C56.7199 154.987 56.7506 154.986 56.7814 154.984ZM47.7646 147.909C47.7459 147.852 47.7277 147.795 47.7101 147.738C47.7041 147.718 47.6982 147.698 47.6924 147.679C47.6805 147.639 47.6691 147.6 47.6578 147.56L48.0287 146.901L48.8595 145.43H52.1809L53.8414 148.374L52.1808 151.319H49.7845C48.8966 150.37 48.2061 149.227 47.7811 147.958C47.7755 147.942 47.77 147.925 47.7646 147.909ZM47.7044 142.28C48.1206 140.916 48.8412 139.689 49.7844 138.681H52.1802L52.6202 139.46L53.8413 141.625L52.9092 143.278L52.1808 144.57H48.8596L47.6578 142.44C47.6718 142.391 47.6857 142.342 47.7004 142.294C47.7018 142.289 47.7031 142.285 47.7044 142.28ZM54.179 136.103C54.215 136.095 54.2512 136.086 54.2873 136.078C54.3262 136.069 54.3651 136.06 54.4041 136.052C54.4761 136.037 54.5482 136.022 54.6205 136.009C54.6254 136.008 54.6302 136.007 54.6352 136.006C55.6852 135.813 56.7713 135.813 57.821 136.005C57.8379 136.008 57.8546 136.012 57.8714 136.015C57.9312 136.027 57.9909 136.038 58.0505 136.051C58.0959 136.061 58.1411 136.071 58.1863 136.081C58.2152 136.088 58.2442 136.095 58.2731 136.102C58.2988 136.108 58.3244 136.114 58.3501 136.121L59.551 138.251L57.8905 141.195H54.5694L53.7391 139.722L53.3891 139.102L52.9089 138.251L54.1099 136.121C54.1329 136.115 54.1559 136.109 54.179 136.103ZM64.762 142.302C64.7758 142.348 64.789 142.393 64.802 142.439L63.6002 144.57H60.2792L58.6186 141.625L60.2792 138.681L62.6754 138.681C63.6176 139.688 64.3377 140.913 64.7541 142.276C64.7568 142.284 64.7594 142.293 64.762 142.302ZM64.7635 147.693C64.76 147.704 64.7565 147.716 64.753 147.728C64.7328 147.794 64.712 147.859 64.6904 147.925C64.6895 147.928 64.6884 147.931 64.6874 147.934C64.263 149.212 63.569 150.364 62.6754 151.319H60.2793L58.6187 148.374L60.2792 145.43H63.6004L64.8022 147.56C64.7895 147.605 64.7768 147.649 64.7635 147.693ZM54.5695 147.944L52.9089 145L53.4259 144.083L54.5695 142.055H57.8905L59.1497 144.288L59.551 145L58.0434 147.673L57.8905 147.944H54.5695ZM47.3008 145C47.3008 144.555 47.3326 144.118 47.3928 143.69L48.1315 145L47.3926 146.308C47.3325 145.881 47.3008 145.444 47.3008 145ZM60.2793 152.179H61.7506C61.084 152.717 60.3409 153.16 59.541 153.488L60.2793 152.179ZM64.3284 145L65.0672 143.69C65.1274 144.118 65.1592 144.555 65.1592 145C65.1592 145.445 65.1274 145.882 65.0672 146.309L64.3284 145ZM60.2792 137.821L59.541 136.512C60.3408 136.84 61.084 137.283 61.7506 137.821H60.2792ZM52.1807 137.821H50.709C51.3758 137.283 52.1191 136.84 52.9191 136.511L52.1807 137.821ZM52.1808 152.179L52.9192 153.489C52.1191 153.16 51.3758 152.717 50.709 152.179H52.1808ZM52.9089 151.749L54.5695 148.803H57.8905L59.5511 151.749L58.3501 153.879C58.3245 153.885 58.2989 153.892 58.2732 153.898C58.2441 153.905 58.215 153.912 58.1859 153.919C58.141 153.929 58.0961 153.939 58.051 153.949C57.9898 153.962 57.9285 153.974 57.8671 153.986C57.8519 153.988 57.8368 153.992 57.8216 153.994C56.7715 154.187 55.6848 154.187 54.6345 153.994C54.6318 153.993 54.6291 153.993 54.6264 153.992C54.5518 153.978 54.4775 153.963 54.4033 153.948C54.3652 153.939 54.3273 153.931 54.2894 153.922C54.2522 153.914 54.2151 153.905 54.1781 153.896C54.1553 153.891 54.1327 153.885 54.11 153.879L52.9089 151.749Z" fill="white"/>
<path d="M719.953 144.157C717.028 138.736 711.215 135 704.525 135C698.493 135 692.644 137.981 689.5 142.559L685.552 138.919C685.15 138.626 684.747 138.296 684.345 138.003C681.53 136.099 678.13 135 674.475 135C670.271 135 666.432 136.465 663.434 138.882C663.288 138.992 663.142 139.139 662.959 139.285C661.716 140.347 660.656 141.593 659.742 142.948C659.632 143.131 659.522 143.278 659.413 143.461C659.23 143.79 659.047 144.12 658.864 144.45C658.206 145.731 657.731 147.123 657.402 148.552C657.366 148.771 657.329 148.955 657.292 149.174C657.11 150.163 657 151.189 657 152.214C657 152.837 657.037 153.46 657.11 154.046C657.146 154.229 657.146 154.412 657.183 154.595C657.329 155.73 657.621 156.793 657.987 157.855C658.462 159.393 659.742 161.407 659.998 161.774C659.998 161.81 660.034 161.81 660.034 161.847C660.144 161.993 660.254 162.14 660.327 162.286C660.327 162.323 660.363 162.323 660.363 162.36C660.473 162.506 660.583 162.653 660.692 162.799C660.729 162.836 660.765 162.909 660.802 162.946C660.875 163.056 660.985 163.166 661.058 163.275C661.168 163.422 661.314 163.568 661.46 163.715L661.497 163.752C661.789 164.045 662.045 164.338 662.337 164.631C662.374 164.631 662.374 164.667 662.411 164.667L664.641 166.499L668.114 169.392L685.515 183.859L689.098 186.863C689.317 187.046 689.683 187.046 689.902 186.863L700.906 177.706L704.525 174.703L708.949 171.004L710.777 169.502L710.85 169.429L711.106 169.209L714.067 166.718L714.14 166.645L716.589 164.667C716.626 164.667 716.626 164.631 716.663 164.631C718.344 163.019 719.733 161.078 720.647 158.917C721.525 156.866 722 154.632 722 152.251C722 149.284 721.269 146.537 719.953 144.157Z" fill="#83529B"/>
<path d="M700.381 168.89C699.986 168.89 699.606 168.733 699.326 168.453C699.047 168.173 698.889 167.794 698.889 167.398C698.889 167.003 699.047 166.623 699.326 166.344C699.606 166.064 699.986 165.907 700.381 165.907C700.513 165.907 700.639 165.854 700.733 165.761C700.826 165.668 700.878 165.541 700.878 165.409C700.878 165.278 700.826 165.151 700.733 165.058C700.639 164.965 700.513 164.912 700.381 164.912H698.392C697.997 164.912 697.617 164.755 697.337 164.475C697.058 164.195 696.9 163.816 696.9 163.42C696.9 163.025 697.058 162.645 697.337 162.366C697.617 162.086 697.997 161.929 698.392 161.929C698.524 161.929 698.651 161.876 698.744 161.783C698.837 161.69 698.889 161.563 698.889 161.432C698.889 161.3 698.837 161.173 698.744 161.08C698.651 160.987 698.524 160.934 698.392 160.934H692.91C693.53 160.473 694.035 159.873 694.382 159.182C694.73 158.492 694.911 157.73 694.912 156.956C694.912 154.591 693.233 153.134 690.398 152.992C690.376 152.232 690.524 150.595 692.113 149.96C692.174 149.935 692.229 149.9 692.276 149.854C692.323 149.808 692.36 149.754 692.386 149.694C692.412 149.634 692.426 149.569 692.427 149.504C692.427 149.438 692.415 149.373 692.391 149.313C692.367 149.252 692.331 149.197 692.285 149.15C692.239 149.103 692.185 149.066 692.125 149.04C692.064 149.014 692 149.001 691.934 149C691.869 148.999 691.804 149.012 691.743 149.036C691.209 149.248 690.733 149.584 690.355 150.017C689.977 150.45 689.708 150.967 689.571 151.525C689.187 150.913 688.655 150.406 688.025 150.052C687.394 149.698 686.685 149.507 685.961 149.498C685.891 149.498 685.821 149.513 685.757 149.542C685.692 149.571 685.635 149.613 685.588 149.666C685.541 149.719 685.507 149.782 685.486 149.849C685.465 149.917 685.459 149.988 685.468 150.058C685.56 150.724 685.795 151.363 686.156 151.93C686.518 152.498 686.997 152.981 687.561 153.347C686.789 153.574 686.114 154.053 685.645 154.706C685.175 155.36 684.936 156.152 684.967 156.956C684.968 157.73 685.149 158.492 685.496 159.182C685.844 159.873 686.348 160.473 686.968 160.934H681.486C680.827 160.934 680.194 161.196 679.728 161.662C679.262 162.129 679 162.761 679 163.42C679 164.08 679.262 164.712 679.728 165.178C680.194 165.645 680.827 165.907 681.486 165.907H681.499C681.168 166.334 680.989 166.858 680.989 167.398C680.989 167.938 681.168 168.463 681.499 168.89H681.486C680.827 168.89 680.194 169.152 679.728 169.618C679.262 170.084 679 170.717 679 171.376C679 172.036 679.262 172.668 679.728 173.134C680.194 173.6 680.827 173.862 681.486 173.862H698.392C698.524 173.862 698.651 173.81 698.744 173.717C698.837 173.624 698.889 173.497 698.889 173.365C698.889 173.233 698.837 173.107 698.744 173.014C698.651 172.92 698.524 172.868 698.392 172.868C697.997 172.868 697.617 172.711 697.337 172.431C697.058 172.151 696.9 171.772 696.9 171.376C696.9 170.981 697.058 170.601 697.337 170.321C697.617 170.042 697.997 169.885 698.392 169.885H700.381C700.513 169.885 700.639 169.832 700.733 169.739C700.826 169.646 700.878 169.519 700.878 169.387C700.878 169.255 700.826 169.129 700.733 169.036C700.639 168.942 700.513 168.89 700.381 168.89ZM696.404 161.929C696.185 162.223 696.034 162.563 695.962 162.923H690.436C690.305 162.923 690.178 162.976 690.085 163.069C689.992 163.162 689.939 163.289 689.939 163.42C689.939 163.552 689.992 163.679 690.085 163.772C690.178 163.865 690.305 163.918 690.436 163.918H695.962C696.034 164.278 696.185 164.618 696.404 164.912H688.447C688.052 164.912 687.672 164.755 687.393 164.475C687.113 164.195 686.956 163.816 686.956 163.42C686.956 163.025 687.113 162.645 687.393 162.366C687.672 162.086 688.052 161.929 688.447 161.929H696.404ZM686.608 150.555C688.078 150.849 688.857 152.112 689.211 152.917C688.6 152.805 688.033 152.525 687.573 152.107C687.113 151.69 686.779 151.152 686.608 150.555ZM685.961 156.956C685.961 154.36 688.454 153.973 689.939 153.973C691.425 153.973 693.917 154.36 693.917 156.956C693.917 158.011 693.498 159.023 692.752 159.769C692.006 160.515 690.994 160.934 689.939 160.934C688.884 160.934 687.872 160.515 687.126 159.769C686.38 159.023 685.961 158.011 685.961 156.956ZM679.994 163.42C679.995 163.025 680.152 162.646 680.432 162.366C680.712 162.086 681.091 161.929 681.486 161.929H686.46C686.136 162.359 685.961 162.882 685.961 163.42C685.961 163.959 686.136 164.482 686.46 164.912H681.486C681.091 164.912 680.712 164.754 680.432 164.475C680.152 164.195 679.995 163.816 679.994 163.42ZM681.983 167.398C681.984 167.003 682.141 166.624 682.421 166.344C682.7 166.064 683.08 165.907 683.475 165.907H688.449C688.125 166.337 687.95 166.86 687.95 167.398C687.95 167.936 688.125 168.46 688.449 168.89H683.475C683.08 168.89 682.7 168.732 682.421 168.453C682.141 168.173 681.984 167.794 681.983 167.398ZM681.486 172.868C681.091 172.868 680.711 172.711 680.431 172.431C680.152 172.151 679.994 171.772 679.994 171.376C679.994 170.981 680.152 170.601 680.431 170.321C680.711 170.042 681.091 169.885 681.486 169.885H686.46C686.136 170.315 685.961 170.838 685.961 171.376C685.961 171.914 686.136 172.438 686.46 172.868H681.486ZM695.962 170.879H690.436C690.305 170.879 690.178 170.931 690.085 171.025C689.992 171.118 689.939 171.244 689.939 171.376C689.939 171.508 689.992 171.635 690.085 171.728C690.178 171.821 690.305 171.873 690.436 171.873H695.962C696.034 172.234 696.185 172.573 696.404 172.868H688.447C688.052 172.868 687.672 172.711 687.393 172.431C687.113 172.151 686.956 171.772 686.956 171.376C686.956 170.981 687.113 170.601 687.393 170.321C687.672 170.042 688.052 169.885 688.447 169.885H696.404C696.185 170.179 696.034 170.519 695.962 170.879ZM690.436 168.89C690.041 168.89 689.661 168.733 689.382 168.453C689.102 168.173 688.945 167.794 688.945 167.398C688.945 167.003 689.102 166.623 689.382 166.344C689.661 166.064 690.041 165.907 690.436 165.907H698.393C698.174 166.201 698.023 166.541 697.951 166.901H692.425C692.293 166.901 692.167 166.953 692.074 167.047C691.981 167.14 691.928 167.266 691.928 167.398C691.928 167.53 691.981 167.657 692.074 167.75C692.167 167.843 692.293 167.896 692.425 167.896H697.951C698.023 168.256 698.174 168.595 698.393 168.89H690.436Z" fill="white"/>
<path d="M274.953 72.1565C272.028 66.7359 266.215 63 259.525 63C253.493 63 247.644 65.981 244.5 70.5593L240.552 66.919C240.15 66.626 239.747 66.2964 239.345 66.0033C236.53 64.0988 233.13 63 229.475 63C225.271 63 221.432 64.465 218.434 66.8824C218.288 66.9923 218.142 67.1388 217.959 67.2853C216.716 68.3474 215.656 69.5927 214.742 70.9479C214.632 71.131 214.522 71.2775 214.413 71.4606C214.23 71.7903 214.047 72.1199 213.864 72.4495C213.206 73.7315 212.731 75.1233 212.402 76.5517C212.366 76.7714 212.329 76.9546 212.292 77.1743C212.11 78.1632 212 79.1888 212 80.2143C212 80.8369 212.037 81.4596 212.11 82.0456C212.146 82.2287 212.146 82.4119 212.183 82.595C212.329 83.7304 212.621 84.7926 212.987 85.8547C213.462 87.393 214.742 89.4075 214.998 89.7737C214.998 89.8104 215.034 89.8104 215.034 89.847C215.144 89.9935 215.254 90.14 215.327 90.2865C215.327 90.3231 215.363 90.3231 215.363 90.3597C215.473 90.5062 215.583 90.6528 215.692 90.7993C215.729 90.8359 215.765 90.9091 215.802 90.9458C215.875 91.0556 215.985 91.1655 216.058 91.2754C216.168 91.4219 216.314 91.5684 216.46 91.7149L216.497 91.7515C216.789 92.0445 217.045 92.3376 217.337 92.6306C217.374 92.6306 217.374 92.6672 217.411 92.6672L219.641 94.4985L223.114 97.392L240.515 111.859L244.098 114.863C244.317 115.046 244.683 115.046 244.902 114.863L255.906 105.706L259.525 102.703L263.949 99.0035L265.777 97.5018L265.85 97.4286L266.106 97.2088L269.067 94.7183L269.14 94.645L271.589 92.6672C271.626 92.6672 271.626 92.6306 271.663 92.6306C273.344 91.019 274.733 89.0778 275.647 86.9169C276.525 84.8658 277 82.6316 277 80.2509C277 77.2842 276.269 74.5372 274.953 72.1565Z" fill="#83529B"/>
<path d="M236.447 84.7279C236.628 84.6713 236.729 84.4785 236.672 84.2974C236.616 84.1163 236.423 84.0154 236.242 84.072C236.061 84.1286 235.96 84.3213 236.017 84.5025C236.073 84.6836 236.266 84.7845 236.447 84.7279Z" fill="white" stroke="white" stroke-width="0.3"/>
<path d="M238.01 85.7426C238.283 85.708 238.476 85.4588 238.441 85.186C238.407 84.9132 238.157 84.7201 237.885 84.7547C237.612 84.7893 237.419 85.0385 237.453 85.3113C237.488 85.5841 237.737 85.7772 238.01 85.7426Z" fill="white" stroke="white" stroke-width="0.3"/>
<path d="M238.999 83.8658C239.116 83.7165 239.09 83.5005 238.94 83.3834C238.791 83.2664 238.575 83.2925 238.458 83.4419C238.341 83.5913 238.367 83.8072 238.517 83.9243C238.666 84.0414 238.882 84.0152 238.999 83.8658Z" fill="white" stroke="white" stroke-width="0.3"/>
<path d="M250.496 98.1094C250.285 98.1094 250.078 98.1721 249.903 98.2895C249.727 98.4069 249.59 98.5738 249.509 98.7691C249.428 98.9644 249.407 99.1792 249.448 99.3865C249.49 99.5938 249.591 99.7843 249.741 99.9337C249.89 100.083 250.081 100.185 250.288 100.226C250.495 100.267 250.71 100.246 250.905 100.165C251.101 100.084 251.268 99.9475 251.385 99.7718C251.502 99.596 251.565 99.3894 251.565 99.1781C251.565 98.8946 251.452 98.6228 251.252 98.4224C251.052 98.222 250.78 98.1094 250.496 98.1094ZM250.496 99.6614C250.4 99.6614 250.306 99.6328 250.226 99.5793C250.146 99.5257 250.084 99.4496 250.047 99.3606C250.01 99.2715 250.001 99.1736 250.02 99.0792C250.039 98.9848 250.085 98.8982 250.154 98.8303C250.222 98.7624 250.309 98.7163 250.403 98.6979C250.498 98.6794 250.596 98.6895 250.685 98.7267C250.773 98.764 250.849 98.8268 250.902 98.9071C250.955 98.9875 250.983 99.0818 250.983 99.1781C250.983 99.307 250.931 99.4307 250.84 99.5219C250.749 99.6131 250.625 99.6643 250.496 99.6643V99.6614Z" fill="white" stroke="white" stroke-width="0.3"/>
<path d="M238.608 98.1094C238.396 98.1094 238.19 98.1721 238.014 98.2895C237.838 98.4069 237.701 98.5738 237.62 98.7691C237.54 98.9644 237.518 99.1792 237.56 99.3865C237.601 99.5938 237.703 99.7843 237.852 99.9337C238.002 100.083 238.192 100.185 238.399 100.226C238.607 100.267 238.821 100.246 239.017 100.165C239.212 100.084 239.379 99.9475 239.496 99.7718C239.614 99.596 239.676 99.3894 239.676 99.1781C239.676 98.8946 239.564 98.6228 239.363 98.4224C239.163 98.222 238.891 98.1094 238.608 98.1094ZM238.608 99.6614C238.511 99.6614 238.417 99.6328 238.337 99.5793C238.257 99.5257 238.195 99.4496 238.158 99.3606C238.121 99.2715 238.112 99.1736 238.131 99.0792C238.15 98.9848 238.197 98.8982 238.265 98.8303C238.333 98.7624 238.42 98.7163 238.515 98.6979C238.609 98.6794 238.707 98.6895 238.796 98.7267C238.885 98.764 238.96 98.8268 239.013 98.9071C239.067 98.9875 239.095 99.0818 239.094 99.1781C239.094 99.307 239.043 99.4307 238.952 99.5219C238.86 99.6131 238.737 99.6643 238.608 99.6643V99.6614Z" fill="white" stroke="white" stroke-width="0.3"/>
<path d="M253.998 83.9305C254.109 83.7163 254.025 83.4527 253.811 83.3418C253.597 83.2309 253.333 83.3146 253.222 83.5289C253.111 83.7431 253.195 84.0067 253.409 84.1176C253.624 84.2285 253.887 84.1447 253.998 83.9305Z" fill="white" stroke="white" stroke-width="0.3"/>
<path d="M251.826 82.8066C251.937 82.5924 251.853 82.3288 251.639 82.2179C251.425 82.107 251.161 82.1908 251.05 82.405C250.94 82.6192 251.023 82.8828 251.237 82.9937C251.452 83.1046 251.715 83.0208 251.826 82.8066Z" fill="white" stroke="white" stroke-width="0.3"/>
<path d="M251.288 85.2972C251.601 85.4595 251.949 85.5444 252.301 85.5447C252.634 85.5457 252.963 85.47 253.262 85.3234C253.326 85.2862 253.373 85.2264 253.394 85.156C253.415 85.0856 253.409 85.0097 253.376 84.9437C253.344 84.8778 253.288 84.8265 253.219 84.8002C253.15 84.774 253.074 84.7747 253.006 84.8022C252.778 84.9127 252.528 84.9683 252.275 84.9643C252.022 84.9604 251.773 84.8971 251.549 84.7795C251.325 84.6619 251.132 84.4934 250.985 84.2874C250.838 84.0815 250.741 83.8439 250.703 83.5938C250.697 83.5555 250.684 83.5188 250.664 83.4855C250.645 83.4523 250.618 83.4233 250.587 83.4002C250.557 83.3771 250.521 83.3603 250.484 83.3508C250.446 83.3413 250.407 83.3393 250.369 83.3448C250.331 83.3503 250.294 83.3634 250.261 83.3831C250.228 83.4029 250.199 83.429 250.176 83.4599C250.153 83.4909 250.136 83.5261 250.126 83.5636C250.117 83.601 250.115 83.64 250.12 83.6782C250.173 84.0212 250.306 84.3468 250.509 84.6283C250.712 84.9097 250.979 85.139 251.288 85.2972Z" fill="white" stroke="white" stroke-width="0.3"/>
<path d="M256.385 87.8218L254.233 86.229L254.282 86.2057C254.292 86.2141 254.301 86.2219 254.311 86.229C254.63 86.3722 254.976 86.4428 255.325 86.4357C255.863 86.4357 256.417 86.2785 256.632 85.8534V85.8272C257.117 84.8958 257.29 83.8334 257.125 82.7965C256.96 81.7596 256.467 80.803 255.718 80.0675C255.817 79.9248 255.888 79.7648 255.928 79.5958C255.983 79.3596 255.975 79.1131 255.904 78.8811C255.834 78.6491 255.703 78.4397 255.526 78.2741C255.349 78.1085 255.131 77.9925 254.895 77.9377C254.659 77.883 254.412 77.8914 254.18 77.9622L252.742 78.3961L251.665 77.3798C251.406 77.1336 251.062 76.9974 250.705 77C250.348 77.0027 250.005 77.1439 249.75 77.394C249.495 77.644 249.348 77.9834 249.338 78.3404C249.328 78.6974 249.458 79.0441 249.699 79.3075C248.917 79.7741 248.281 80.4511 247.865 81.2614L247.838 81.3138C247.489 81.9893 248.232 82.7872 248.788 83.1395C248.788 83.1832 248.788 83.2269 248.802 83.2705L246.298 82.5193C246.095 82.4534 245.882 82.4293 245.669 82.4483C245.457 82.4673 245.251 82.5291 245.063 82.6299C244.683 82.8277 244.396 83.1664 244.263 83.5734C244.127 83.9781 244.157 84.4201 244.347 84.8023C244.537 85.1845 244.871 85.4756 245.276 85.6117L246.679 86.0747L246.254 86.9133C245.877 86.7931 245.485 86.7264 245.09 86.7153C245.084 86.4741 245.024 86.2373 244.914 86.0226C244.804 85.8078 244.647 85.6207 244.455 85.4751C244.263 85.3295 244.04 85.2292 243.803 85.1818C243.567 85.1344 243.323 85.141 243.089 85.2011L240.865 85.7573C241.186 85.138 241.273 84.4234 241.109 83.7452C241.023 83.4054 240.875 83.0844 240.672 82.7988C240.823 82.6572 240.939 82.4824 241.011 82.2883C241.082 82.0942 241.108 81.8861 241.085 81.6804C241.063 81.4748 240.992 81.2772 240.88 81.1033C240.768 80.9294 240.617 80.7841 240.439 80.6787C240.261 80.5733 240.061 80.5108 239.854 80.4961C239.648 80.4814 239.441 80.515 239.25 80.5941C239.058 80.6732 238.888 80.7958 238.753 80.952C238.617 81.1082 238.52 81.2939 238.468 81.4943C237.477 81.3456 236.468 81.5959 235.661 82.1902C235.5 82.0115 235.293 81.8795 235.063 81.8083C234.833 81.737 234.588 81.7292 234.354 81.7855C234.185 81.8233 234.025 81.8942 233.883 81.9942C233.742 82.0941 233.622 82.2211 233.53 82.3679C233.42 82.5393 233.354 82.7344 233.336 82.9367C233.318 83.1391 233.349 83.3429 233.426 83.5309C233.503 83.7189 233.624 83.8857 233.779 84.0172C233.934 84.1488 234.118 84.2412 234.316 84.2868C234.252 84.6651 234.266 85.0525 234.356 85.4253C234.531 86.1031 234.944 86.6948 235.521 87.0909L233.192 87.6733C232.785 87.781 232.437 88.0446 232.223 88.4071C232.008 88.7696 231.946 89.2019 232.048 89.6103C232.15 90.0187 232.409 90.3704 232.769 90.5894C233.128 90.8083 233.559 90.8769 233.969 90.7802L234.683 90.6026C234.832 90.5656 234.99 90.5892 235.122 90.6683C235.254 90.7474 235.349 90.8756 235.387 91.0248L235.46 91.316H234.607C234.53 91.316 234.456 91.3467 234.401 91.4013C234.346 91.4559 234.316 91.53 234.316 91.6072V99.178C234.316 99.2553 234.346 99.3293 234.401 99.3839C234.456 99.4385 234.53 99.4692 234.607 99.4692H236.005C236.079 100.108 236.385 100.697 236.865 101.124C237.345 101.552 237.965 101.788 238.608 101.788C239.251 101.788 239.871 101.552 240.351 101.124C240.831 100.697 241.137 100.108 241.211 99.4692H247.943C248.017 100.108 248.323 100.697 248.803 101.124C249.283 101.552 249.904 101.788 250.546 101.788C251.189 101.788 251.809 101.552 252.289 101.124C252.769 100.697 253.076 100.108 253.15 99.4692H254.99C255.067 99.4692 255.141 99.4385 255.196 99.3839C255.25 99.3293 255.281 99.2553 255.281 99.178V91.6072C255.281 91.53 255.25 91.4559 255.196 91.4013C255.141 91.3467 255.067 91.316 254.99 91.316H252.168L253.155 89.4058L254.475 90.39C254.642 90.5251 254.836 90.6248 255.043 90.6834C255.25 90.7419 255.467 90.7581 255.681 90.7308C255.895 90.7035 256.101 90.6334 256.287 90.5247C256.473 90.4159 256.635 90.2708 256.763 90.0979C256.892 89.9251 256.984 89.7281 257.035 89.5187C257.086 89.3093 257.094 89.0918 257.058 88.8793C257.023 88.6668 256.945 88.4636 256.829 88.2819C256.714 88.1002 256.562 87.9437 256.385 87.8218ZM249.626 81.8146L249.667 81.7331C249.696 81.6751 249.737 81.624 249.787 81.5833C249.837 81.5426 249.896 81.5132 249.958 81.4972C250.218 81.4418 250.482 81.4145 250.747 81.4157C251.544 81.4269 252.326 81.6264 253.03 81.9981C253.952 82.4536 254.702 83.1952 255.168 84.1121C255.196 84.1725 255.212 84.2387 255.212 84.3057C255.212 84.3727 255.196 84.4389 255.168 84.4993L255.098 84.6391C254.416 85.9553 252.634 86.3862 251.129 85.6146C249.623 84.8429 248.945 83.1337 249.626 81.8146ZM254.367 78.53C254.5 78.49 254.642 78.4858 254.778 78.5178C254.913 78.5499 255.038 78.617 255.14 78.7125C255.241 78.808 255.316 78.9285 255.356 79.062C255.396 79.1954 255.401 79.3371 255.369 79.4728C255.337 79.6085 255.27 79.7335 255.175 79.8352C255.08 79.9369 254.959 80.0117 254.826 80.0522C254.692 80.0927 254.551 80.0974 254.415 80.0658C254.279 80.0343 254.154 79.9676 254.052 79.8724L253.048 78.929L254.367 78.53ZM249.944 78.2126C249.975 78.076 250.041 77.95 250.137 77.8476C250.233 77.7453 250.354 77.6703 250.488 77.6303C250.564 77.6073 250.642 77.5956 250.721 77.5953C250.923 77.5951 251.116 77.6722 251.263 77.8108L252.267 78.7542L250.948 79.1532C250.815 79.1935 250.673 79.1981 250.537 79.1664C250.402 79.1347 250.277 79.0679 250.175 78.9726C250.073 78.8773 249.998 78.7569 249.957 78.6236C249.917 78.4902 249.912 78.3485 249.944 78.2126ZM248.526 82.1262C248.357 81.902 248.293 81.701 248.354 81.5846L248.38 81.5322C248.787 80.7316 249.436 80.0796 250.235 79.6686C250.387 79.7273 250.549 79.7579 250.712 79.7588C250.85 79.7584 250.986 79.7378 251.117 79.6977L252.556 79.2638L253.65 80.2917C253.904 80.5321 254.239 80.6666 254.588 80.6673C254.839 80.6671 255.086 80.5987 255.301 80.4693C255.971 81.1171 256.412 81.9639 256.561 82.8832C256.709 83.8026 256.557 84.7454 256.126 85.5709V85.5971C256 85.8388 255.357 85.9058 254.891 85.8097C255.186 85.5597 255.43 85.254 255.607 84.9099L255.683 84.7614C255.749 84.6228 255.784 84.4711 255.784 84.3174C255.784 84.1637 255.749 84.0119 255.683 83.8733C255.139 82.8362 254.285 81.9949 253.24 81.4671C252.195 80.9392 251.011 80.7513 249.853 80.9294C249.706 80.9632 249.569 81.0291 249.45 81.1222C249.331 81.2153 249.234 81.3334 249.166 81.4681L249.125 81.5467C248.982 81.8254 248.883 82.1252 248.834 82.4348C248.721 82.3429 248.618 82.2395 248.526 82.1262ZM250.855 86.1358C251.418 86.43 252.043 86.5848 252.678 86.5871C252.983 86.5872 253.288 86.549 253.583 86.4736L253.93 86.7298C253.455 87.1988 252.841 87.5027 252.18 87.5966C251.519 87.6905 250.845 87.5695 250.258 87.2515C249.671 86.9334 249.201 86.4351 248.919 85.8301C248.636 85.225 248.556 84.5451 248.689 83.8908C248.69 83.8753 248.69 83.8597 248.689 83.8442L248.942 83.9199C249.262 84.882 249.95 85.6784 250.855 86.1358ZM244.816 83.7452C244.904 83.4832 245.09 83.2652 245.334 83.1366C245.454 83.0719 245.586 83.0323 245.722 83.0203C245.857 83.0083 245.994 83.0241 246.123 83.0667L246.246 83.1046L245.593 85.0934L245.459 85.0468C245.202 84.9592 244.989 84.773 244.869 84.529C244.748 84.285 244.729 84.0031 244.816 83.7452ZM248.569 91.316H243.008C243.141 90.8106 243.382 90.34 243.713 89.9363C244.045 89.5326 244.46 89.2053 244.93 88.9769C245.401 88.7485 245.914 88.6244 246.437 88.6129C246.959 88.6015 247.478 88.7031 247.958 88.9108C248.369 89.5111 248.589 90.2216 248.59 90.9491C248.584 91.0743 248.584 91.1966 248.569 91.316ZM246.531 88.0023C245.565 87.9996 244.628 88.3265 243.873 88.9291C243.119 89.5316 242.592 90.3737 242.382 91.316H241.342C241.342 91.1966 241.319 91.0743 241.319 90.9549C241.314 90.2772 241.5 89.6117 241.854 89.034C242.209 88.4563 242.718 87.9895 243.324 87.6864C243.931 87.3832 244.61 87.256 245.284 87.319C245.959 87.3821 246.603 87.6329 247.142 88.0431C246.937 88.0144 246.73 88.0008 246.522 88.0023H246.531ZM239.577 81.0896C239.738 81.0499 239.906 81.0638 240.058 81.1291C240.209 81.1945 240.335 81.3077 240.416 81.4515C240.497 81.5952 240.529 81.7615 240.506 81.925C240.483 82.0884 240.408 82.2399 240.291 82.3562C240.076 82.1528 239.834 81.9803 239.572 81.8437C239.399 81.7549 239.218 81.6809 239.033 81.6224C239.068 81.4933 239.137 81.3758 239.233 81.2822C239.329 81.1885 239.448 81.122 239.577 81.0896ZM233.943 83.2735C233.907 83.1132 233.924 82.9456 233.992 82.7959C234.059 82.6463 234.174 82.5229 234.319 82.4445C234.463 82.366 234.629 82.3369 234.791 82.3614C234.954 82.386 235.104 82.4629 235.218 82.5804C234.869 82.93 234.603 83.354 234.441 83.8209C234.318 83.7801 234.208 83.7087 234.121 83.6134C234.034 83.5181 233.973 83.4021 233.943 83.2764V83.2735ZM234.93 85.2826C234.83 84.8279 234.858 84.3542 235.013 83.9149C235.167 83.4755 235.441 83.088 235.804 82.7959C236.183 82.4746 236.631 82.2454 237.114 82.1262C237.845 81.935 238.621 82.0179 239.295 82.3591C239.599 82.5092 239.867 82.7229 240.081 82.9857C240.295 83.2484 240.45 83.5541 240.535 83.882C240.873 85.236 239.889 86.6512 238.34 87.0385C236.791 87.4258 235.268 86.6367 234.93 85.2855V85.2826ZM235.952 90.8792C235.876 90.5826 235.686 90.328 235.423 90.1705C235.16 90.0129 234.846 89.9653 234.549 90.0377L233.835 90.2153C233.574 90.2776 233.299 90.2345 233.07 90.0952C232.84 89.956 232.675 89.7319 232.61 89.4716C232.545 89.2112 232.585 88.9357 232.722 88.7048C232.858 88.4739 233.081 88.3062 233.34 88.2382L236.305 87.4986C236.706 87.6453 237.13 87.7202 237.557 87.7199C237.871 87.7192 238.184 87.6801 238.488 87.6034C239.219 87.4244 239.877 87.0285 240.378 86.4678C240.4 86.4701 240.421 86.4701 240.442 86.4678L243.226 85.7718C243.488 85.7067 243.766 85.7483 243.997 85.8875C244.229 86.0268 244.395 86.2522 244.461 86.5144C244.479 86.5878 244.488 86.663 244.49 86.7386C243.454 86.8571 242.498 87.3521 241.803 88.1295C241.108 88.9069 240.724 89.9124 240.722 90.9549C240.722 91.0743 240.722 91.1966 240.739 91.316H236.063L235.952 90.8792ZM238.608 101.216C238.205 101.216 237.811 101.097 237.475 100.873C237.14 100.649 236.879 100.331 236.725 99.9581C236.57 99.5856 236.53 99.1758 236.609 98.7804C236.687 98.385 236.881 98.0218 237.167 97.7367C237.452 97.4517 237.815 97.2575 238.21 97.1789C238.606 97.1002 239.015 97.1406 239.388 97.2949C239.76 97.4492 240.079 97.7104 240.303 98.0456C240.527 98.3808 240.646 98.7749 240.646 99.178C240.646 99.7186 240.431 100.237 240.049 100.619C239.667 101.002 239.148 101.216 238.608 101.216ZM250.546 101.216C250.143 101.216 249.749 101.097 249.414 100.873C249.079 100.649 248.818 100.331 248.663 99.9581C248.509 99.5856 248.469 99.1758 248.547 98.7804C248.626 98.385 248.82 98.0218 249.105 97.7367C249.39 97.4517 249.753 97.2575 250.149 97.1789C250.544 97.1002 250.954 97.1406 251.326 97.2949C251.699 97.4492 252.017 97.7104 252.241 98.0456C252.465 98.3808 252.585 98.7749 252.585 99.178C252.585 99.7186 252.37 100.237 251.988 100.619C251.605 101.002 251.087 101.216 250.546 101.216ZM253.15 98.8868C253.076 98.2484 252.769 97.6594 252.289 97.232C251.809 96.8045 251.189 96.5683 250.546 96.5683C249.904 96.5683 249.283 96.8045 248.803 97.232C248.323 97.6594 248.017 98.2484 247.943 98.8868H241.211C241.137 98.2484 240.831 97.6594 240.351 97.232C239.871 96.8045 239.251 96.5683 238.608 96.5683C237.965 96.5683 237.345 96.8045 236.865 97.232C236.385 97.6594 236.079 98.2484 236.005 98.8868H234.898V94.9558C235.096 95.1151 235.26 95.3133 235.379 95.5382C235.644 95.9633 235.961 96.4904 236.645 96.4904C237.33 96.4904 237.647 95.9633 237.912 95.5382C238.177 95.1131 238.352 94.8685 238.684 94.8685C239.015 94.8685 239.193 95.1276 239.455 95.5469C239.717 95.9662 240.038 96.4991 240.722 96.4991C241.406 96.4991 241.723 95.9721 241.988 95.5469C242.253 95.1218 242.425 94.8685 242.76 94.8685C243.095 94.8685 243.27 95.1276 243.532 95.5469C243.794 95.9662 244.114 96.4991 244.798 96.4991C245.483 96.4991 245.8 95.9721 246.065 95.5469C246.33 95.1218 246.502 94.8685 246.837 94.8685C247.172 94.8685 247.346 95.1247 247.608 95.5469C247.87 95.9692 248.191 96.4991 248.875 96.4991C249.559 96.4991 249.877 95.9721 250.142 95.5469C250.407 95.1218 250.578 94.8685 250.913 94.8685C251.248 94.8685 251.423 95.1276 251.688 95.5469C251.953 95.9662 252.27 96.4991 252.955 96.4991C253.639 96.4991 253.956 95.9721 254.221 95.5469C254.341 95.3217 254.505 95.1234 254.705 94.9646V98.8868H253.15ZM254.699 94.3269C254.218 94.455 253.947 94.8801 253.723 95.2383C253.461 95.6576 253.281 95.9167 252.949 95.9167C252.617 95.9167 252.439 95.6576 252.174 95.2383C251.909 94.819 251.592 94.2861 250.908 94.2861C250.223 94.2861 249.909 94.8102 249.644 95.2383C249.379 95.6663 249.201 95.9167 248.875 95.9167C248.549 95.9167 248.365 95.6605 248.103 95.2383C247.841 94.8161 247.521 94.2861 246.837 94.2861C246.152 94.2861 245.832 94.8102 245.567 95.2383C245.302 95.6663 245.127 95.9167 244.798 95.9167C244.469 95.9167 244.289 95.6576 244.027 95.2383C243.765 94.819 243.444 94.2861 242.76 94.2861C242.076 94.2861 241.756 94.8102 241.491 95.2383C241.226 95.6663 241.051 95.9167 240.722 95.9167C240.393 95.9167 240.212 95.6576 239.95 95.2383C239.688 94.819 239.353 94.2861 238.684 94.2861C238.014 94.2861 237.682 94.8102 237.417 95.2383C237.152 95.6663 236.977 95.9167 236.645 95.9167C236.313 95.9167 236.136 95.6576 235.874 95.2383C235.649 94.8801 235.379 94.455 234.898 94.3269V91.8984H254.699V94.3269ZM249.181 91.316C249.181 91.1966 249.198 91.0743 249.198 90.9549C249.199 90.0734 248.923 89.2139 248.409 88.4973C248.398 88.4795 248.386 88.4629 248.371 88.4478C247.96 87.8881 247.418 87.4373 246.793 87.1346L247.355 86.0485C247.374 86.0111 247.386 85.97 247.388 85.928C247.39 85.8859 247.382 85.8439 247.367 85.8049C247.351 85.7659 247.327 85.7307 247.296 85.7019C247.266 85.6731 247.229 85.6512 247.189 85.6379L246.147 85.2885L246.805 83.2793L248.159 83.684C248.143 83.7093 248.131 83.7368 248.124 83.7656C247.96 84.551 248.056 85.3685 248.397 86.0945C248.739 86.8206 249.307 87.4157 250.017 87.79C250.727 88.1642 251.539 88.2973 252.331 88.1691C253.123 88.0409 253.852 87.6583 254.408 87.0793L255.459 87.8567L254.244 89.4903L253.243 88.7536H253.217C253.205 88.7418 253.192 88.7311 253.179 88.7215C253.145 88.7039 253.108 88.6931 253.069 88.6898C253.031 88.6866 252.993 88.6909 252.956 88.7025C252.92 88.7142 252.886 88.7329 252.857 88.7576C252.827 88.7824 252.803 88.8127 252.786 88.8468L251.513 91.316H249.181ZM256.248 89.7145C256.086 89.931 255.845 90.0746 255.578 90.1139C255.31 90.1532 255.038 90.0849 254.821 89.9241L254.705 89.8368L255.922 88.2003L256.038 88.2877C256.146 88.3675 256.236 88.4678 256.305 88.5828C256.374 88.6977 256.419 88.8251 256.439 88.9576C256.458 89.0901 256.451 89.2252 256.419 89.3551C256.386 89.4849 256.328 89.6071 256.248 89.7145Z" fill="white" stroke="white" stroke-width="0.3"/>
<path d="M1035.95 397.157C1033.03 391.736 1027.22 388 1020.53 388C1014.49 388 1008.64 390.981 1005.5 395.559L1001.55 391.919C1001.15 391.626 1000.75 391.296 1000.35 391.003C997.53 389.099 994.13 388 990.475 388C986.271 388 982.432 389.465 979.434 391.882C979.288 391.992 979.142 392.139 978.959 392.285C977.716 393.347 976.656 394.593 975.742 395.948C975.632 396.131 975.522 396.278 975.413 396.461C975.23 396.79 975.047 397.12 974.864 397.45C974.206 398.731 973.731 400.123 973.402 401.552C973.366 401.771 973.329 401.955 973.292 402.174C973.11 403.163 973 404.189 973 405.214C973 405.837 973.037 406.46 973.11 407.046C973.146 407.229 973.146 407.412 973.183 407.595C973.329 408.73 973.621 409.793 973.987 410.855C974.462 412.393 975.742 414.407 975.998 414.774C975.998 414.81 976.034 414.81 976.034 414.847C976.144 414.993 976.254 415.14 976.327 415.286C976.327 415.323 976.363 415.323 976.363 415.36C976.473 415.506 976.583 415.653 976.692 415.799C976.729 415.836 976.765 415.909 976.802 415.946C976.875 416.056 976.985 416.166 977.058 416.275C977.168 416.422 977.314 416.568 977.46 416.715L977.497 416.752C977.789 417.045 978.045 417.338 978.337 417.631C978.374 417.631 978.374 417.667 978.411 417.667L980.641 419.499L984.114 422.392L1001.52 436.859L1005.1 439.863C1005.32 440.046 1005.68 440.046 1005.9 439.863L1016.91 430.706L1020.53 427.703L1024.95 424.004L1026.78 422.502L1026.85 422.429L1027.11 422.209L1030.07 419.718L1030.14 419.645L1032.59 417.667C1032.63 417.667 1032.63 417.631 1032.66 417.631C1034.34 416.019 1035.73 414.078 1036.65 411.917C1037.52 409.866 1038 407.632 1038 405.251C1038 402.284 1037.27 399.537 1035.95 397.157Z" fill="#83529B"/>
<path d="M997.447 409.728C997.628 409.671 997.729 409.479 997.672 409.297C997.616 409.116 997.423 409.015 997.242 409.072C997.061 409.129 996.96 409.321 997.017 409.502C997.073 409.684 997.266 409.784 997.447 409.728Z" fill="white" stroke="white" stroke-width="0.3"/>
<path d="M999.01 410.743C999.283 410.708 999.476 410.459 999.441 410.186C999.407 409.913 999.157 409.72 998.885 409.755C998.612 409.789 998.419 410.039 998.453 410.311C998.488 410.584 998.737 410.777 999.01 410.743Z" fill="white" stroke="white" stroke-width="0.3"/>
<path d="M999.999 408.866C1000.12 408.716 1000.09 408.501 999.94 408.383C999.791 408.266 999.575 408.293 999.458 408.442C999.341 408.591 999.367 408.807 999.517 408.924C999.666 409.041 999.882 409.015 999.999 408.866Z" fill="white" stroke="white" stroke-width="0.3"/>
<path d="M1011.5 423.109C1011.29 423.109 1011.08 423.172 1010.9 423.29C1010.73 423.407 1010.59 423.574 1010.51 423.769C1010.43 423.964 1010.41 424.179 1010.45 424.387C1010.49 424.594 1010.59 424.784 1010.74 424.934C1010.89 425.083 1011.08 425.185 1011.29 425.226C1011.5 425.267 1011.71 425.246 1011.91 425.165C1012.1 425.084 1012.27 424.948 1012.38 424.772C1012.5 424.596 1012.57 424.389 1012.57 424.178C1012.57 423.895 1012.45 423.623 1012.25 423.422C1012.05 423.222 1011.78 423.109 1011.5 423.109ZM1011.5 424.661C1011.4 424.661 1011.31 424.633 1011.23 424.579C1011.15 424.526 1011.08 424.45 1011.05 424.361C1011.01 424.272 1011 424.174 1011.02 424.079C1011.04 423.985 1011.09 423.898 1011.15 423.83C1011.22 423.762 1011.31 423.716 1011.4 423.698C1011.5 423.679 1011.6 423.689 1011.68 423.727C1011.77 423.764 1011.85 423.827 1011.9 423.907C1011.96 423.987 1011.98 424.082 1011.98 424.178C1011.98 424.307 1011.93 424.431 1011.84 424.522C1011.75 424.613 1011.63 424.664 1011.5 424.664V424.661Z" fill="white" stroke="white" stroke-width="0.3"/>
<path d="M999.608 423.109C999.396 423.109 999.19 423.172 999.014 423.29C998.838 423.407 998.701 423.574 998.62 423.769C998.54 423.964 998.518 424.179 998.56 424.387C998.601 424.594 998.703 424.784 998.852 424.934C999.002 425.083 999.192 425.185 999.399 425.226C999.607 425.267 999.821 425.246 1000.02 425.165C1000.21 425.084 1000.38 424.948 1000.5 424.772C1000.61 424.596 1000.68 424.389 1000.68 424.178C1000.68 423.895 1000.56 423.623 1000.36 423.422C1000.16 423.222 999.891 423.109 999.608 423.109ZM999.608 424.661C999.511 424.661 999.417 424.633 999.337 424.579C999.257 424.526 999.195 424.45 999.158 424.361C999.121 424.272 999.112 424.174 999.131 424.079C999.15 423.985 999.197 423.898 999.265 423.83C999.333 423.762 999.42 423.716 999.515 423.698C999.609 423.679 999.707 423.689 999.796 423.727C999.885 423.764 999.96 423.827 1000.01 423.907C1000.07 423.987 1000.09 424.082 1000.09 424.178C1000.09 424.307 1000.04 424.431 999.952 424.522C999.86 424.613 999.737 424.664 999.608 424.664V424.661Z" fill="white" stroke="white" stroke-width="0.3"/>
<path d="M1015 408.93C1015.11 408.716 1015.03 408.453 1014.81 408.342C1014.6 408.231 1014.33 408.315 1014.22 408.529C1014.11 408.743 1014.2 409.007 1014.41 409.118C1014.62 409.228 1014.89 409.145 1015 408.93Z" fill="white" stroke="white" stroke-width="0.3"/>
<path d="M1012.83 407.807C1012.94 407.592 1012.85 407.329 1012.64 407.218C1012.42 407.107 1012.16 407.191 1012.05 407.405C1011.94 407.619 1012.02 407.883 1012.24 407.994C1012.45 408.105 1012.72 408.021 1012.83 407.807Z" fill="white" stroke="white" stroke-width="0.3"/>
<path d="M1012.29 410.297C1012.6 410.459 1012.95 410.544 1013.3 410.545C1013.63 410.546 1013.96 410.47 1014.26 410.323C1014.33 410.286 1014.37 410.226 1014.39 410.156C1014.41 410.086 1014.41 410.01 1014.38 409.944C1014.34 409.878 1014.29 409.826 1014.22 409.8C1014.15 409.774 1014.07 409.775 1014.01 409.802C1013.78 409.913 1013.53 409.968 1013.27 409.964C1013.02 409.96 1012.77 409.897 1012.55 409.78C1012.33 409.662 1012.13 409.493 1011.98 409.287C1011.84 409.082 1011.74 408.844 1011.7 408.594C1011.7 408.556 1011.68 408.519 1011.66 408.486C1011.64 408.452 1011.62 408.423 1011.59 408.4C1011.56 408.377 1011.52 408.36 1011.48 408.351C1011.45 408.341 1011.41 408.339 1011.37 408.345C1011.33 408.35 1011.29 408.363 1011.26 408.383C1011.23 408.403 1011.2 408.429 1011.18 408.46C1011.15 408.491 1011.14 408.526 1011.13 408.564C1011.12 408.601 1011.11 408.64 1011.12 408.678C1011.17 409.021 1011.31 409.347 1011.51 409.628C1011.71 409.91 1011.98 410.139 1012.29 410.297Z" fill="white" stroke="white" stroke-width="0.3"/>
<path d="M1017.38 412.822L1015.23 411.229L1015.28 411.206C1015.29 411.214 1015.3 411.222 1015.31 411.229C1015.63 411.372 1015.98 411.443 1016.32 411.436C1016.86 411.436 1017.42 411.278 1017.63 410.853V410.827C1018.12 409.896 1018.29 408.833 1018.13 407.797C1017.96 406.76 1017.47 405.803 1016.72 405.067C1016.82 404.925 1016.89 404.765 1016.93 404.596C1016.98 404.36 1016.97 404.113 1016.9 403.881C1016.83 403.649 1016.7 403.44 1016.53 403.274C1016.35 403.109 1016.13 402.992 1015.9 402.938C1015.66 402.883 1015.41 402.891 1015.18 402.962L1013.74 403.396L1012.66 402.38C1012.41 402.134 1012.06 401.997 1011.7 402C1011.35 402.003 1011.01 402.144 1010.75 402.394C1010.5 402.644 1010.35 402.983 1010.34 403.34C1010.33 403.697 1010.46 404.044 1010.7 404.308C1009.92 404.774 1009.28 405.451 1008.86 406.261L1008.84 406.314C1008.49 406.989 1009.23 407.787 1009.79 408.14C1009.79 408.183 1009.79 408.227 1009.8 408.271L1007.3 407.519C1007.1 407.453 1006.88 407.429 1006.67 407.448C1006.46 407.467 1006.25 407.529 1006.06 407.63C1005.68 407.828 1005.4 408.166 1005.26 408.573C1005.13 408.978 1005.16 409.42 1005.35 409.802C1005.54 410.184 1005.87 410.476 1006.28 410.612L1007.68 411.075L1007.25 411.913C1006.88 411.793 1006.49 411.726 1006.09 411.715C1006.08 411.474 1006.02 411.237 1005.91 411.023C1005.8 410.808 1005.65 410.621 1005.46 410.475C1005.26 410.329 1005.04 410.229 1004.8 410.182C1004.57 410.134 1004.32 410.141 1004.09 410.201L1001.86 410.757C1002.19 410.138 1002.27 409.423 1002.11 408.745C1002.02 408.405 1001.88 408.084 1001.67 407.799C1001.82 407.657 1001.94 407.482 1002.01 407.288C1002.08 407.094 1002.11 406.886 1002.09 406.68C1002.06 406.475 1001.99 406.277 1001.88 406.103C1001.77 405.929 1001.62 405.784 1001.44 405.679C1001.26 405.573 1001.06 405.511 1000.85 405.496C1000.65 405.481 1000.44 405.515 1000.25 405.594C1000.06 405.673 999.888 405.796 999.753 405.952C999.617 406.108 999.52 406.294 999.468 406.494C998.477 406.346 997.468 406.596 996.661 407.19C996.5 407.011 996.293 406.88 996.063 406.808C995.833 406.737 995.588 406.729 995.354 406.785C995.185 406.823 995.025 406.894 994.883 406.994C994.742 407.094 994.622 407.221 994.53 407.368C994.42 407.539 994.354 407.734 994.336 407.937C994.318 408.139 994.349 408.343 994.426 408.531C994.503 408.719 994.624 408.886 994.779 409.017C994.934 409.149 995.118 409.241 995.316 409.287C995.252 409.665 995.266 410.053 995.356 410.425C995.531 411.103 995.944 411.695 996.521 412.091L994.192 412.673C993.785 412.781 993.437 413.045 993.223 413.407C993.008 413.77 992.946 414.202 993.048 414.61C993.15 415.019 993.409 415.37 993.769 415.589C994.128 415.808 994.559 415.877 994.969 415.78L995.683 415.603C995.832 415.566 995.99 415.589 996.122 415.668C996.254 415.747 996.349 415.876 996.387 416.025L996.46 416.316H995.607C995.53 416.316 995.456 416.347 995.401 416.401C995.346 416.456 995.316 416.53 995.316 416.607V424.178C995.316 424.255 995.346 424.329 995.401 424.384C995.456 424.439 995.53 424.469 995.607 424.469H997.005C997.079 425.108 997.385 425.697 997.865 426.124C998.345 426.552 998.965 426.788 999.608 426.788C1000.25 426.788 1000.87 426.552 1001.35 426.124C1001.83 425.697 1002.14 425.108 1002.21 424.469H1008.94C1009.02 425.108 1009.32 425.697 1009.8 426.124C1010.28 426.552 1010.9 426.788 1011.55 426.788C1012.19 426.788 1012.81 426.552 1013.29 426.124C1013.77 425.697 1014.08 425.108 1014.15 424.469H1015.99C1016.07 424.469 1016.14 424.439 1016.2 424.384C1016.25 424.329 1016.28 424.255 1016.28 424.178V416.607C1016.28 416.53 1016.25 416.456 1016.2 416.401C1016.14 416.347 1016.07 416.316 1015.99 416.316H1013.17L1014.16 414.406L1015.47 415.39C1015.64 415.525 1015.84 415.625 1016.04 415.683C1016.25 415.742 1016.47 415.758 1016.68 415.731C1016.89 415.704 1017.1 415.633 1017.29 415.525C1017.47 415.416 1017.63 415.271 1017.76 415.098C1017.89 414.925 1017.98 414.728 1018.03 414.519C1018.09 414.309 1018.09 414.092 1018.06 413.879C1018.02 413.667 1017.94 413.464 1017.83 413.282C1017.71 413.1 1017.56 412.944 1017.38 412.822ZM1010.63 406.815L1010.67 406.733C1010.7 406.675 1010.74 406.624 1010.79 406.583C1010.84 406.543 1010.9 406.513 1010.96 406.497C1011.22 406.442 1011.48 406.414 1011.75 406.416C1012.54 406.427 1013.33 406.626 1014.03 406.998C1014.95 407.454 1015.7 408.195 1016.17 409.112C1016.2 409.173 1016.21 409.239 1016.21 409.306C1016.21 409.373 1016.2 409.439 1016.17 409.499L1016.1 409.639C1015.42 410.955 1013.63 411.386 1012.13 410.615C1010.62 409.843 1009.94 408.134 1010.63 406.815ZM1015.37 403.53C1015.5 403.49 1015.64 403.486 1015.78 403.518C1015.91 403.55 1016.04 403.617 1016.14 403.713C1016.24 403.808 1016.32 403.929 1016.36 404.062C1016.4 404.195 1016.4 404.337 1016.37 404.473C1016.34 404.609 1016.27 404.734 1016.17 404.835C1016.08 404.937 1015.96 405.012 1015.83 405.052C1015.69 405.093 1015.55 405.097 1015.42 405.066C1015.28 405.034 1015.15 404.968 1015.05 404.872L1014.05 403.929L1015.37 403.53ZM1010.94 403.213C1010.97 403.076 1011.04 402.95 1011.14 402.848C1011.23 402.745 1011.35 402.67 1011.49 402.63C1011.56 402.607 1011.64 402.596 1011.72 402.595C1011.92 402.595 1012.12 402.672 1012.26 402.811L1013.27 403.754L1011.95 404.153C1011.81 404.194 1011.67 404.198 1011.54 404.166C1011.4 404.135 1011.28 404.068 1011.17 403.973C1011.07 403.877 1011 403.757 1010.96 403.624C1010.92 403.49 1010.91 403.348 1010.94 403.213ZM1009.53 407.126C1009.36 406.902 1009.29 406.701 1009.35 406.585L1009.38 406.532C1009.79 405.732 1010.44 405.08 1011.23 404.669C1011.39 404.727 1011.55 404.758 1011.71 404.759C1011.85 404.758 1011.99 404.738 1012.12 404.698L1013.56 404.264L1014.65 405.292C1014.9 405.532 1015.24 405.667 1015.59 405.667C1015.84 405.667 1016.09 405.599 1016.3 405.469C1016.97 406.117 1017.41 406.964 1017.56 407.883C1017.71 408.803 1017.56 409.745 1017.13 410.571V410.597C1017 410.839 1016.36 410.906 1015.89 410.81C1016.19 410.56 1016.43 410.254 1016.61 409.91L1016.68 409.761C1016.75 409.623 1016.78 409.471 1016.78 409.317C1016.78 409.164 1016.75 409.012 1016.68 408.873C1016.14 407.836 1015.29 406.995 1014.24 406.467C1013.19 405.939 1012.01 405.751 1010.85 405.929C1010.71 405.963 1010.57 406.029 1010.45 406.122C1010.33 406.215 1010.23 406.333 1010.17 406.468L1010.13 406.547C1009.98 406.825 1009.88 407.125 1009.83 407.435C1009.72 407.343 1009.62 407.239 1009.53 407.126ZM1011.86 411.136C1012.42 411.43 1013.04 411.585 1013.68 411.587C1013.98 411.587 1014.29 411.549 1014.58 411.474L1014.93 411.73C1014.45 412.199 1013.84 412.503 1013.18 412.597C1012.52 412.691 1011.85 412.57 1011.26 412.251C1010.67 411.933 1010.2 411.435 1009.92 410.83C1009.64 410.225 1009.56 409.545 1009.69 408.891C1009.69 408.875 1009.69 408.86 1009.69 408.844L1009.94 408.92C1010.26 409.882 1010.95 410.678 1011.86 411.136ZM1005.82 408.745C1005.9 408.483 1006.09 408.265 1006.33 408.137C1006.45 408.072 1006.59 408.032 1006.72 408.02C1006.86 408.008 1006.99 408.024 1007.12 408.067L1007.25 408.105L1006.59 410.093L1006.46 410.047C1006.2 409.959 1005.99 409.773 1005.87 409.529C1005.75 409.285 1005.73 409.003 1005.82 408.745ZM1009.57 416.316H1004.01C1004.14 415.811 1004.38 415.34 1004.71 414.936C1005.05 414.533 1005.46 414.205 1005.93 413.977C1006.4 413.749 1006.91 413.624 1007.44 413.613C1007.96 413.602 1008.48 413.703 1008.96 413.911C1009.37 414.511 1009.59 415.222 1009.59 415.949C1009.58 416.074 1009.58 416.197 1009.57 416.316ZM1007.53 413.002C1006.57 413 1005.63 413.327 1004.87 413.929C1004.12 414.532 1003.59 415.374 1003.38 416.316H1002.34C1002.34 416.197 1002.32 416.074 1002.32 415.955C1002.31 415.277 1002.5 414.612 1002.85 414.034C1003.21 413.456 1003.72 412.989 1004.32 412.686C1004.93 412.383 1005.61 412.256 1006.28 412.319C1006.96 412.382 1007.6 412.633 1008.14 413.043C1007.94 413.014 1007.73 413.001 1007.52 413.002H1007.53ZM1000.58 406.09C1000.74 406.05 1000.91 406.064 1001.06 406.129C1001.21 406.194 1001.34 406.308 1001.42 406.451C1001.5 406.595 1001.53 406.762 1001.51 406.925C1001.48 407.088 1001.41 407.24 1001.29 407.356C1001.08 407.153 1000.83 406.98 1000.57 406.844C1000.4 406.755 1000.22 406.681 1000.03 406.622C1000.07 406.493 1000.14 406.376 1000.23 406.282C1000.33 406.189 1000.45 406.122 1000.58 406.09ZM994.943 408.273C994.907 408.113 994.924 407.946 994.992 407.796C995.059 407.646 995.174 407.523 995.319 407.444C995.463 407.366 995.629 407.337 995.791 407.361C995.954 407.386 996.104 407.463 996.218 407.58C995.869 407.93 995.603 408.354 995.441 408.821C995.318 408.78 995.208 408.709 995.121 408.613C995.034 408.518 994.973 408.402 994.943 408.276V408.273ZM995.93 410.283C995.83 409.828 995.858 409.354 996.013 408.915C996.167 408.476 996.441 408.088 996.804 407.796C997.183 407.475 997.631 407.245 998.114 407.126C998.845 406.935 999.621 407.018 1000.3 407.359C1000.6 407.509 1000.87 407.723 1001.08 407.986C1001.29 408.248 1001.45 408.554 1001.54 408.882C1001.87 410.236 1000.89 411.651 999.34 412.038C997.791 412.426 996.268 411.637 995.93 410.286V410.283ZM996.952 415.879C996.876 415.583 996.686 415.328 996.423 415.17C996.16 415.013 995.846 414.965 995.549 415.038L994.835 415.215C994.574 415.278 994.299 415.234 994.07 415.095C993.84 414.956 993.675 414.732 993.61 414.472C993.545 414.211 993.585 413.936 993.722 413.705C993.858 413.474 994.081 413.306 994.34 413.238L997.305 412.499C997.706 412.645 998.13 412.72 998.557 412.72C998.871 412.719 999.184 412.68 999.488 412.603C1000.22 412.424 1000.88 412.029 1001.38 411.468C1001.4 411.47 1001.42 411.47 1001.44 411.468L1004.23 410.772C1004.49 410.707 1004.77 410.748 1005 410.888C1005.23 411.027 1005.4 411.252 1005.46 411.514C1005.48 411.588 1005.49 411.663 1005.49 411.739C1004.45 411.857 1003.5 412.352 1002.8 413.129C1002.11 413.907 1001.72 414.912 1001.72 415.955C1001.72 416.074 1001.72 416.197 1001.74 416.316H997.063L996.952 415.879ZM999.608 426.216C999.205 426.216 998.811 426.097 998.475 425.873C998.14 425.649 997.879 425.331 997.725 424.958C997.57 424.586 997.53 424.176 997.609 423.78C997.687 423.385 997.881 423.022 998.167 422.737C998.452 422.452 998.815 422.258 999.21 422.179C999.606 422.1 1000.02 422.141 1000.39 422.295C1000.76 422.449 1001.08 422.71 1001.3 423.046C1001.53 423.381 1001.65 423.775 1001.65 424.178C1001.65 424.719 1001.43 425.237 1001.05 425.619C1000.67 426.002 1000.15 426.216 999.608 426.216ZM1011.55 426.216C1011.14 426.216 1010.75 426.097 1010.41 425.873C1010.08 425.649 1009.82 425.331 1009.66 424.958C1009.51 424.586 1009.47 424.176 1009.55 423.78C1009.63 423.385 1009.82 423.022 1010.11 422.737C1010.39 422.452 1010.75 422.258 1011.15 422.179C1011.54 422.1 1011.95 422.141 1012.33 422.295C1012.7 422.449 1013.02 422.71 1013.24 423.046C1013.47 423.381 1013.58 423.775 1013.58 424.178C1013.58 424.719 1013.37 425.237 1012.99 425.619C1012.61 426.002 1012.09 426.216 1011.55 426.216ZM1014.15 423.887C1014.08 423.248 1013.77 422.659 1013.29 422.232C1012.81 421.804 1012.19 421.568 1011.55 421.568C1010.9 421.568 1010.28 421.804 1009.8 422.232C1009.32 422.659 1009.02 423.248 1008.94 423.887H1002.21C1002.14 423.248 1001.83 422.659 1001.35 422.232C1000.87 421.804 1000.25 421.568 999.608 421.568C998.965 421.568 998.345 421.804 997.865 422.232C997.385 422.659 997.079 423.248 997.005 423.887H995.898V419.956C996.096 420.115 996.26 420.313 996.379 420.538C996.644 420.963 996.961 421.49 997.645 421.49C998.33 421.49 998.647 420.963 998.912 420.538C999.177 420.113 999.352 419.868 999.684 419.868C1000.02 419.868 1000.19 420.128 1000.46 420.547C1000.72 420.966 1001.04 421.499 1001.72 421.499C1002.41 421.499 1002.72 420.972 1002.99 420.547C1003.25 420.122 1003.43 419.868 1003.76 419.868C1004.09 419.868 1004.27 420.128 1004.53 420.547C1004.79 420.966 1005.11 421.499 1005.8 421.499C1006.48 421.499 1006.8 420.972 1007.07 420.547C1007.33 420.122 1007.5 419.868 1007.84 419.868C1008.17 419.868 1008.35 420.125 1008.61 420.547C1008.87 420.969 1009.19 421.499 1009.88 421.499C1010.56 421.499 1010.88 420.972 1011.14 420.547C1011.41 420.122 1011.58 419.868 1011.91 419.868C1012.25 419.868 1012.42 420.128 1012.69 420.547C1012.95 420.966 1013.27 421.499 1013.95 421.499C1014.64 421.499 1014.96 420.972 1015.22 420.547C1015.34 420.322 1015.51 420.123 1015.7 419.965V423.887H1014.15ZM1015.7 419.327C1015.22 419.455 1014.95 419.88 1014.72 420.238C1014.46 420.658 1014.28 420.917 1013.95 420.917C1013.62 420.917 1013.44 420.658 1013.17 420.238C1012.91 419.819 1012.59 419.286 1011.91 419.286C1011.22 419.286 1010.91 419.81 1010.64 420.238C1010.38 420.666 1010.2 420.917 1009.88 420.917C1009.55 420.917 1009.37 420.661 1009.1 420.238C1008.84 419.816 1008.52 419.286 1007.84 419.286C1007.15 419.286 1006.83 419.81 1006.57 420.238C1006.3 420.666 1006.13 420.917 1005.8 420.917C1005.47 420.917 1005.29 420.658 1005.03 420.238C1004.76 419.819 1004.44 419.286 1003.76 419.286C1003.08 419.286 1002.76 419.81 1002.49 420.238C1002.23 420.666 1002.05 420.917 1001.72 420.917C1001.39 420.917 1001.21 420.658 1000.95 420.238C1000.69 419.819 1000.35 419.286 999.684 419.286C999.014 419.286 998.682 419.81 998.417 420.238C998.152 420.666 997.977 420.917 997.645 420.917C997.313 420.917 997.136 420.658 996.874 420.238C996.649 419.88 996.379 419.455 995.898 419.327V416.898H1015.7V419.327ZM1010.18 416.316C1010.18 416.197 1010.2 416.074 1010.2 415.955C1010.2 415.073 1009.92 414.214 1009.41 413.497C1009.4 413.48 1009.39 413.463 1009.37 413.448C1008.96 412.888 1008.42 412.437 1007.79 412.135L1008.36 411.048C1008.37 411.011 1008.39 410.97 1008.39 410.928C1008.39 410.886 1008.38 410.844 1008.37 410.805C1008.35 410.766 1008.33 410.731 1008.3 410.702C1008.27 410.673 1008.23 410.651 1008.19 410.638L1007.15 410.288L1007.8 408.279L1009.16 408.684C1009.14 408.709 1009.13 408.737 1009.12 408.766C1008.96 409.551 1009.06 410.368 1009.4 411.095C1009.74 411.821 1010.31 412.416 1011.02 412.79C1011.73 413.164 1012.54 413.297 1013.33 413.169C1014.12 413.041 1014.85 412.658 1015.41 412.079L1016.46 412.857L1015.24 414.49L1014.24 413.754H1014.22C1014.2 413.742 1014.19 413.731 1014.18 413.722C1014.14 413.704 1014.11 413.693 1014.07 413.69C1014.03 413.687 1013.99 413.691 1013.96 413.703C1013.92 413.714 1013.89 413.733 1013.86 413.758C1013.83 413.782 1013.8 413.813 1013.79 413.847L1012.51 416.316H1010.18ZM1017.25 414.714C1017.09 414.931 1016.85 415.075 1016.58 415.114C1016.31 415.153 1016.04 415.085 1015.82 414.924L1015.7 414.837L1016.92 413.2L1017.04 413.288C1017.15 413.368 1017.24 413.468 1017.31 413.583C1017.37 413.698 1017.42 413.825 1017.44 413.958C1017.46 414.09 1017.45 414.225 1017.42 414.355C1017.39 414.485 1017.33 414.607 1017.25 414.714Z" fill="white" stroke="white" stroke-width="0.3"/>
<path d="M177.953 143.157C175.028 137.736 169.215 134 162.525 134C156.493 134 150.644 136.981 147.5 141.559L143.552 137.919C143.15 137.626 142.747 137.296 142.345 137.003C139.53 135.099 136.13 134 132.475 134C128.271 134 124.432 135.465 121.434 137.882C121.288 137.992 121.142 138.139 120.959 138.285C119.716 139.347 118.656 140.593 117.742 141.948C117.632 142.131 117.522 142.278 117.413 142.461C117.23 142.79 117.047 143.12 116.864 143.45C116.206 144.731 115.731 146.123 115.402 147.552C115.366 147.771 115.329 147.955 115.292 148.174C115.11 149.163 115 150.189 115 151.214C115 151.837 115.037 152.46 115.11 153.046C115.146 153.229 115.146 153.412 115.183 153.595C115.329 154.73 115.621 155.793 115.987 156.855C116.462 158.393 117.742 160.407 117.998 160.774C117.998 160.81 118.034 160.81 118.034 160.847C118.144 160.993 118.254 161.14 118.327 161.286C118.327 161.323 118.363 161.323 118.363 161.36C118.473 161.506 118.583 161.653 118.692 161.799C118.729 161.836 118.765 161.909 118.802 161.946C118.875 162.056 118.985 162.166 119.058 162.275C119.168 162.422 119.314 162.568 119.46 162.715L119.497 162.752C119.789 163.045 120.045 163.338 120.337 163.631C120.374 163.631 120.374 163.667 120.411 163.667L122.641 165.499L126.114 168.392L143.515 182.859L147.098 185.863C147.317 186.046 147.683 186.046 147.902 185.863L158.906 176.706L162.525 173.703L166.949 170.004L168.777 168.502L168.85 168.429L169.106 168.209L172.067 165.718L172.14 165.645L174.589 163.667C174.626 163.667 174.626 163.631 174.663 163.631C176.344 162.019 177.733 160.078 178.647 157.917C179.525 155.866 180 153.632 180 151.251C180 148.284 179.269 145.537 177.953 143.157Z" fill="#83529B"/>
<path d="M158.973 154.364C158.941 154.299 158.885 154.248 158.816 154.224L155.522 153.067L155.62 152.789C155.838 152.167 155.451 151.463 154.757 151.219L154.142 151.003C154.285 150.195 153.826 149.377 153.027 149.096C152.228 148.816 151.357 149.168 150.965 149.889L150.349 149.673C149.655 149.43 148.913 149.738 148.695 150.36L148.598 150.636L145.304 149.48C145.235 149.455 145.16 149.459 145.094 149.491C145.028 149.523 144.978 149.579 144.954 149.648L142.761 155.894L142.184 151.258C142.175 151.185 142.138 151.119 142.081 151.075C142.023 151.03 141.951 151.009 141.878 151.019L137.241 151.595C137.09 151.614 136.983 151.751 137.002 151.902L139.345 170.759C139.354 170.831 139.392 170.897 139.449 170.942C139.498 170.98 139.557 171 139.618 171C139.63 171 139.641 170.999 139.652 170.998L144.289 170.422C144.44 170.403 144.547 170.266 144.528 170.115L144.257 167.939L146.741 168.811L146.48 170.434C146.456 170.584 146.558 170.725 146.708 170.749L148.244 170.997C148.258 170.999 148.273 171 148.287 171C148.345 171 148.401 170.982 148.449 170.948C148.508 170.905 148.547 170.841 148.559 170.769L148.76 169.52L152.931 170.984C152.961 170.995 152.991 171 153.022 171C153.063 171 153.104 170.991 153.141 170.973C153.207 170.941 153.257 170.885 153.282 170.816L154.162 168.308C154.511 168.411 154.871 168.462 155.232 168.462C156.196 168.462 157.16 168.095 157.895 167.36C158.606 166.65 158.997 165.705 158.998 164.7C158.999 163.695 158.608 162.751 157.898 162.041C157.531 161.674 157.106 161.399 156.653 161.216L158.984 154.575C159.009 154.506 159.004 154.43 158.973 154.364ZM150.167 150.192L151.021 150.492C151.09 150.516 151.166 150.511 151.231 150.48C151.297 150.448 151.348 150.392 151.372 150.323C151.474 150.032 151.683 149.798 151.962 149.664C152.239 149.531 152.553 149.513 152.845 149.615C153.446 149.826 153.763 150.487 153.552 151.088C153.528 151.157 153.533 151.233 153.564 151.298C153.596 151.364 153.652 151.415 153.721 151.439L154.575 151.738C154.983 151.881 155.219 152.271 155.101 152.607L154.703 153.739L148.817 151.674L149.214 150.542C149.332 150.206 149.76 150.05 150.167 150.192ZM148.218 151.962C148.25 152.028 148.306 152.078 148.375 152.103L154.781 154.35C154.81 154.36 154.841 154.365 154.872 154.365C154.913 154.365 154.954 154.356 154.991 154.338C155.057 154.306 155.107 154.25 155.131 154.181L155.34 153.586L156.356 153.943L153.797 161.23C153.354 161.413 152.938 161.684 152.578 162.044C151.867 162.754 151.475 163.699 151.475 164.704C151.474 165.349 151.637 165.969 151.941 166.518L151.543 167.651L149.194 166.826L150.246 160.292C150.258 160.293 150.27 160.295 150.282 160.295C150.414 160.295 150.531 160.198 150.553 160.063L151.204 156.018L151.85 156.122L151.02 161.277C150.996 161.427 151.098 161.569 151.248 161.593C151.263 161.595 151.278 161.596 151.292 161.596C151.425 161.596 151.542 161.5 151.563 161.365L152.437 155.938C152.449 155.866 152.431 155.792 152.389 155.733C152.346 155.674 152.281 155.634 152.209 155.622L151.292 155.475L151.407 154.76C151.418 154.687 151.401 154.614 151.358 154.555C151.316 154.496 151.251 154.456 151.179 154.444L149.116 154.112C148.965 154.088 148.825 154.19 148.801 154.34L147.947 159.644C147.935 159.716 147.952 159.789 147.995 159.849C148.036 159.905 148.098 159.943 148.167 159.956L147.175 166.117L143.887 164.963L143.506 161.89L147.4 150.798L148.416 151.155L148.207 151.752C148.183 151.821 148.187 151.896 148.218 151.962ZM154.893 161.512C154.827 162.244 154.511 162.929 153.988 163.451C153.464 163.975 152.778 164.291 152.045 164.357C152.123 163.63 152.443 162.957 152.967 162.433C153.506 161.894 154.189 161.588 154.893 161.512ZM148.533 159.46L149.3 154.699L150.82 154.943L150.054 159.704L148.533 159.46ZM145.382 150.09L146.881 150.616L143.353 160.663L142.913 157.12L145.382 150.09ZM139.857 170.418L137.582 152.107L141.673 151.598L141.908 153.493L140.561 153.661C140.41 153.68 140.303 153.817 140.322 153.968C140.339 154.107 140.458 154.209 140.594 154.209C140.606 154.209 140.617 154.208 140.629 154.207L141.976 154.039L142.255 156.289L140.908 156.456C140.758 156.475 140.651 156.612 140.669 156.763C140.687 156.902 140.805 157.004 140.942 157.004C140.953 157.004 140.965 157.003 140.976 157.002L142.323 156.834L142.603 159.084L141.256 159.251C141.105 159.27 140.998 159.407 141.017 159.558C141.034 159.697 141.153 159.799 141.289 159.799C141.301 159.799 141.312 159.798 141.324 159.797L142.671 159.629L142.95 161.879L141.603 162.046C141.452 162.065 141.345 162.202 141.364 162.353C141.381 162.492 141.5 162.594 141.637 162.594C141.648 162.594 141.659 162.593 141.671 162.592L143.018 162.425L143.297 164.674L141.95 164.841C141.8 164.86 141.693 164.997 141.711 165.148C141.729 165.287 141.847 165.389 141.984 165.389C141.995 165.389 142.007 165.389 142.018 165.387L143.365 165.22L143.645 167.469L142.298 167.637C142.147 167.655 142.04 167.793 142.059 167.943C142.076 168.083 142.195 168.184 142.331 168.184C142.343 168.184 142.354 168.184 142.366 168.182L143.713 168.015L143.948 169.91L139.857 170.418ZM144.182 167.329L143.963 165.572L147.086 166.669L146.83 168.259L144.182 167.329ZM148.06 170.41L147.067 170.25L148.71 160.045L149.703 160.205L148.06 170.41ZM152.854 170.374L148.849 168.968L149.105 167.378L151.62 168.261C151.65 168.271 151.681 168.276 151.711 168.276C151.825 168.276 151.931 168.206 151.971 168.092L152.324 167.087C152.402 167.182 152.486 167.275 152.575 167.363C152.895 167.684 153.26 167.929 153.649 168.109L152.854 170.374ZM157.506 166.972C156.983 167.495 156.322 167.796 155.64 167.883C155.717 167.173 156.031 166.511 156.539 166.003C157.048 165.494 157.71 165.181 158.42 165.103C158.331 165.808 158.016 166.461 157.506 166.972ZM158.441 164.549C157.576 164.625 156.768 164.997 156.151 165.614C155.533 166.231 155.161 167.04 155.086 167.905C154.314 167.87 153.552 167.563 152.964 166.975C152.406 166.417 152.083 165.69 152.035 164.91C152.919 164.845 153.748 164.47 154.377 163.84C155.005 163.212 155.38 162.384 155.446 161.502C156.198 161.55 156.936 161.857 157.509 162.43C158.079 163 158.404 163.748 158.441 164.549ZM156.127 161.052C155.577 160.919 155.004 160.91 154.451 161.028L156.875 154.125L158.374 154.652L156.127 161.052Z" fill="white" stroke="white" stroke-width="0.2"/>
<path d="M649.953 9.15654C647.028 3.73587 641.215 0 634.525 0C628.493 0 622.644 2.98099 619.5 7.55926L615.552 3.919C615.15 3.62599 614.747 3.29635 614.345 3.00335C611.53 1.09878 608.13 0 604.475 0C600.271 0 596.432 1.46505 593.434 3.88237C593.288 3.99225 593.142 4.13876 592.959 4.28526C591.716 5.34742 590.656 6.59271 589.742 7.94788C589.632 8.13101 589.522 8.27751 589.413 8.46064C589.23 8.79028 589.047 9.11992 588.864 9.44955C588.206 10.7315 587.731 12.1233 587.402 13.5517C587.366 13.7714 587.329 13.9546 587.292 14.1743C587.11 15.1632 587 16.1888 587 17.2143C587 17.8369 587.037 18.4596 587.11 19.0456C587.146 19.2287 587.146 19.4119 587.183 19.595C587.329 20.7304 587.621 21.7926 587.987 22.8547C588.462 24.393 589.742 26.4075 589.998 26.7737C589.998 26.8104 590.034 26.8104 590.034 26.847C590.144 26.9935 590.254 27.14 590.327 27.2865C590.327 27.3231 590.363 27.3231 590.363 27.3597C590.473 27.5062 590.583 27.6528 590.692 27.7993C590.729 27.8359 590.765 27.9091 590.802 27.9458C590.875 28.0556 590.985 28.1655 591.058 28.2754C591.168 28.4219 591.314 28.5684 591.46 28.7149L591.497 28.7515C591.789 29.0445 592.045 29.3376 592.337 29.6306C592.374 29.6306 592.374 29.6672 592.411 29.6672L594.641 31.4985L598.114 34.392L615.515 48.8593L619.098 51.8626C619.317 52.0458 619.683 52.0458 619.902 51.8626L630.906 42.7061L634.525 39.7028L638.949 36.0035L640.777 34.5018L640.85 34.4286L641.106 34.2088L644.067 31.7183L644.14 31.645L646.589 29.6672C646.626 29.6672 646.626 29.6306 646.663 29.6306C648.344 28.019 649.733 26.0778 650.647 23.9169C651.525 21.8658 652 19.6316 652 17.2509C652 14.2842 651.269 11.5372 649.953 9.15654Z" fill="#83529B"/>
<path d="M623.463 31.8104H605L610.209 24.5249H634.302L629.769 29.1427C628.072 30.8649 625.835 31.8104 623.463 31.8104ZM605.574 31.5149H623.463C625.759 31.5149 627.92 30.6032 629.558 28.9401L633.602 24.8204H610.361L605.574 31.5149Z" fill="white" stroke="white" stroke-width="0.5"/>
<path d="M621.876 24.7697L618.389 21.2241C617.798 20.6247 617.013 20.2955 616.186 20.2955H613.181L614.641 24.6347L614.362 24.7275L612.775 20H616.186C617.098 20 617.95 20.363 618.6 21.0215L622.087 24.5671L621.876 24.7697Z" fill="white" stroke="white" stroke-width="0.5"/>
<path d="M630.511 28.0199H607.836V28.3154H630.511V28.0199Z" fill="white" stroke="white" stroke-width="0.5"/>
</svg>
