
<svg xmlns="http://www.w3.org/2000/svg" viewBox="0 0 380 248"><defs><style>.a{fill:#fff;}.b{fill:#fff;}</style></defs><title>-</title><path class="a" d="M181.18,194q0,.33-.29.33t-.34-.44a3.79,3.79,0,0,0-.41-1.56q-.46-.83-2.09-.84l-.74,0v9.65q0,.46.7.48t.7.19q0,.17-.41.17h-3.91q-.48,0-.48-.17t.79-.19a1,1,0,0,0,.38,0,.27.27,0,0,0,.22-.25q0-.2,0-1.21V191.5a4.65,4.65,0,0,0-2.44.38,2.77,2.77,0,0,0-.76,1.9q-.07.55-.31.55c-.14,0-.22-.18-.22-.54s.07-1.36.22-2.7h5.59l3,0a2.12,2.12,0,0,0,.5-.08l0,.49.07.85.07,1,0,.42C181.18,193.86,181.18,194,181.18,194Z"/><path class="a" d="M193.33,201.85q0,.17-.72.17h-3.34c-.35,0-.53,0-.53-.16s.13-.14.4-.16c.52,0,.79-.09.82-.22a3.5,3.5,0,0,0,0-.79V196.3h-4.54v4.94a.42.42,0,0,0,.2.34,2.86,2.86,0,0,0,.81.1c.17,0,.26.06.26.17s-.16.17-.48.17h-3.72q-.36,0-.36-.17t.7-.19q.53,0,.58-.29v-9a4.83,4.83,0,0,0,0-.72q0-.19-.43-.19c-.54,0-.82-.1-.82-.24s.11-.14.34-.14h3.79c.27,0,.41.06.41.19s-.21.21-.64.19a1,1,0,0,0-.51.08q-.11.08-.11.49v3.79H190v-3.26a3.71,3.71,0,0,0,0-.85c0-.19-.19-.27-.47-.24h-.45q-.31-.05-.31-.2c0-.14.17-.2.5-.2h3.48c.38,0,.58.06.58.17s-.11.19-.32.19l-.54,0c-.21,0-.33,0-.36.12a3.22,3.22,0,0,0,0,.77v8.3q0,.82.12.9a2.19,2.19,0,0,0,.84.08C193.22,201.65,193.33,201.72,193.33,201.85Z"/><path class="a" d="M203.53,199.43s0,.12,0,.31a4,4,0,0,0,0,.5v1.39a1.84,1.84,0,0,0,.07.48l-4-.07-4.58.07q-.51,0-.51-.19c0-.14.1-.22.29-.22a2,2,0,0,0,.9-.11q.13-.11.13-.78v-8.26q0-1-.17-1a3.41,3.41,0,0,0-.84-.06q-.29,0-.29-.17c0-.13.1-.19.31-.19H203v.17l0,.35q0,.35.19,2.13a1.48,1.48,0,0,1,0,.28c0,.21-.06.31-.17.31s-.25-.16-.31-.48q-.33-1.82-1.27-2.14a10.82,10.82,0,0,0-2.49-.17h-1.22V196h.57a4.12,4.12,0,0,0,1.88-.25q.36-.25.48-1.38c0-.45.14-.67.29-.67s.24.16.24.48,0,.49,0,.89,0,.7,0,.91q0,1.56.05,2.14c0,.13,0,.23,0,.31,0,.26-.08.38-.24.38s-.24-.2-.28-.6q-.14-1.3-.47-1.55a4,4,0,0,0-1.87-.25h-.59v5.18a27.11,27.11,0,0,0,4.13-.19q1-.26,1.12-2.3c0-.24.1-.36.26-.36S203.53,199,203.53,199.43Z"/><path class="a" d="M125.21,230.73q0,.61-1.92.6-4.32,0-4.8,1.27-.32.88-.32,6.93v2.55a28.21,28.21,0,0,1-7.92,4.94,25.46,25.46,0,0,1-9,1.43q-12.64,0-20.08-7.56t-7.44-20.52q0-13.12,7.28-21.2t19.2-8.08A27.07,27.07,0,0,1,111.53,194a7.44,7.44,0,0,0,3,.88q1.52,0,2-1.92.4-1.12,1-1.12t.64.72-.14,1.52a54.69,54.69,0,0,0-.42,7v4.32a26.39,26.39,0,0,1-.08,4.08.85.85,0,0,1-.88.8q-.72,0-.8-1.13-.4-7.71-4.48-12.18a13.85,13.85,0,0,0-10.72-4.46q-8.32,0-13.16,7.42t-4.84,20.26q0,12.44,4.92,19.7t13.32,7.26q6.4,0,8.8-3.7,1.2-1.85,1.2-6.67,0-4-.76-4.74t-5.24-.64a5.77,5.77,0,0,1-1.44-.11.44.44,0,0,1-.32-.46q0-.79,1.76-.79h1.44q1.76.08,8.8,0h8.48Q125.21,230,125.21,230.73Z"/><path class="a" d="M160.89,247.09q0,.48-1.6.48H143.53q-1.44,0-1.44-.64t2.88-.71q3.44-.08,3.44-.79a11,11,0,0,0-.48-1.51q-.16-.63-1.84-5.32l-1-2.7H133.69q-3.28,8.24-3.28,9.52,0,.72,1,.8l1,.08h1.2l.72.24c.64,0,1,.16,1,.49s-.56.56-1.68.56l-2.84-.12q-2.6-.12-4.6-.12h-.72l-.72.12-.88.12h-.16q-1.28,0-1.28-.48c0-.37.35-.59,1-.64q1.44-.08,1.92-.16a3,3,0,0,0,1.76-.72q.48-.24,3.92-9.14,1.36-3.61,2.64-6.74a15.8,15.8,0,0,0,.64-1.68,15.68,15.68,0,0,1,.64-1.68q1.36-3.29,3.84-9.95L140,213l.55-1.44q.48-1.2,1-1.2.24,0,1,2.24,2.4,5.84,12.4,30.88,1,2.48,1.84,2.64a24.08,24.08,0,0,0,2.56.24Q160.89,246.45,160.89,247.09Zm-16.24-12.56-5.15-13.67q-1.94,4.8-5.35,13.67Z"/><path class="a" d="M193.85,245.49q0,2.56-4.46,2.56a8.69,8.69,0,0,1-7-3.27,7.76,7.76,0,0,1-1.6-2.87,55.14,55.14,0,0,1-1-6.77q-.4-3.43-2.19-4.78t-6.18-1.51v16.48q-.24,1.12,4,1.12c.58,0,.87.19.87.56s-.37.56-1.12.56H162.33q-2.24,0-2.24-.52c0-.4.27-.6.8-.6H162q2.72,0,2.72-1.12v-31.6a1.29,1.29,0,0,0-.44-1.16,5.6,5.6,0,0,0-2.32-.28q-1.88,0-1.88-.64t1.12-.56h15.12a15.12,15.12,0,0,1,8.6,2.19,6.68,6.68,0,0,1,3.24,5.77,7.43,7.43,0,0,1-3.44,6.33q-3.44,2.43-9.68,2.83,6.72.72,9.24,3.5t3.24,10q.48,4.94,3,4.94c.27,0,.4-.08.4-.23a2.28,2.28,0,0,0-.2-.51,1.73,1.73,0,0,1-.2-.66q0-1.48,1.6-1.48Q193.85,243.81,193.85,245.49Zm-12.64-25.88q0-7.16-7.06-7.16a4.29,4.29,0,0,0-2.26.36q-.44.36-.44,1.71v13.05Q181.21,227.57,181.21,219.62Z"/><path class="a" d="M234.08,229.29q0,9.38-7.2,14.51-5.2,3.69-13.36,3.69H198q-1.36,0-1.36-.76t1-.6h1.84q1.6.08,1.76-.88a11.81,11.81,0,0,0,.16-2.79V216.91a22.26,22.26,0,0,0-.16-4.06q-.4-.48-2.8-.56-1.44,0-1.44-.56t1.44-.64h9q10.48,0,14.88,1.28a15.44,15.44,0,0,1,8.56,6.21A18.22,18.22,0,0,1,234.08,229.29Zm-7.68-.28q0-16.56-13.38-16.56-4.06,0-4.5.44t-.44,2.92v28.24q0,1.44.68,1.76a10.81,10.81,0,0,0,3.47.32Q226.4,246.13,226.41,229Z"/><path class="a" d="M268.41,238.89c0,.06,0,.39-.12,1a13.38,13.38,0,0,0-.12,1.67v4.64a6.06,6.06,0,0,0,.24,1.6l-13.35-.24-15.28.24q-1.69,0-1.69-.63c0-.48.32-.73,1-.73a6.71,6.71,0,0,0,3-.36q.44-.36.44-2.6V216q0-3.28-.56-3.48a11.34,11.34,0,0,0-2.8-.2q-1,0-1-.56t1-.64h27.36v.55l.08,1.18q.16,1.18.64,7.1a4.89,4.89,0,0,1,.08.95q0,1-.56,1-.72,0-1-1.6-1.12-6.08-4.22-7.12-1.75-.56-8.28-.56h-4.06v15h1.9q5.08,0,6.27-.84t1.59-4.6q.24-2.24,1-2.24t.8,1.6q0,1-.12,3t-.12,3q0,5.2.18,7.12.06.64.06,1,0,1.28-.79,1.28t-.95-2q-.47-4.32-1.58-5.16t-6.23-.84h-2v17.28q11.71-.08,13.78-.64,3.18-.88,3.74-7.68.08-1.2.88-1.2T268.41,238.89Z"/><path class="a" d="M306.49,211.65q0,.56-1.76.56h-2q-.72,0-.84.32a10.19,10.19,0,0,0-.12,2.17V244.2q0,2.89-.08,3.38c-.05.32-.29.48-.72.48q-.88,0-5.69-6.71-.56-.88-1.75-2.41-.16-.24-.88-1.2-4-5.31-14.49-19.95v25.37q0,3,.84,3.14a19.34,19.34,0,0,0,3.08.16h.32c.64,0,1,.18,1,.52s-.59.6-1.76.6q-.32,0-2.64-.16-1.2-.08-2.16-.08-.8,0-1.6.08a31.6,31.6,0,0,1-3.28.16q-1.28,0-1.28-.6t1.52-.52h.72l1-.08q1.92-.16,2-.73a17.53,17.53,0,0,0,.08-2.34V221.16q0-6-.72-7.25-1-1.61-3.76-1.61-2,0-2-.68t1-.53h10.16l18.88,26V214.85a8.64,8.64,0,0,0-.16-2.32q-.16-.32-1.28-.32H296q-1.52,0-1.52-.6,0-.37.76-.45t5.4-.08q4.4,0,5.12.07C306.25,211.21,306.49,211.37,306.49,211.65Z"/><path class="b" d="M190.09.61A87.36,87.36,0,1,0,277.45,88,87.36,87.36,0,0,0,190.09.61ZM191.92,171c-2-.93-6.46-3.16-7.87-4.85-1.84-2.2-4.62-5-5.22-5.92-1.08-1.58-3-4.8-3-4.8a20.44,20.44,0,0,1-2-4c-1-2.67-2.38-5-1.39-8.42s1.84-4.66,2.48-5.29,1.18-.34,1.66-.4a3.62,3.62,0,0,0,1.71-1.1,5.79,5.79,0,0,0,1.22-2.39,1.52,1.52,0,0,0-1.88-1.61,4.78,4.78,0,0,0-2.76,3.14c0,.67-.82,1.36-1.29,2a17.26,17.26,0,0,0-2.11,3.87c-.5,1.44-.48,2.2-.85,1.52a11.13,11.13,0,0,1,.31-6.35c.9-2.23,3.49-5,4.59-6.25s2.89-4.05,4.05-5.15,3.63-3.61,4.23-4,2.49-3.94,2.79-4.53,1.16-5.81,1.43-6.53a9.92,9.92,0,0,0,1.21-4.37,18,18,0,0,0-.36-4.3c-.15-.74.22-.35.28-1.1s-2.64-4.36-4.43-5.07-2,.28-2.57-.31-.15-.89-.15-.89-.65-.47-1.14-.88-.44.11-.78-.11-1.57-1.4-2.37-1.39-1.2.76-1.57.66-2-1.16-2.42-1-4,2.09-4.65,2.5-3.23,2.61-3.67,3.94-2.16-.18-3.36,1.46-1.32,3.05-1.63,4.95-1.17,4.13-1,4.9a25.15,25.15,0,0,0,.9,5c.73,2.25,1.71,4.54,2.46,5.23s5.1,4.72,5.44,6.75a91,91,0,0,1,.52,10.26c-.11.74-.22,1.57-.87.51s-3.93-9.39-5.53-12.06-4.86-8.18-5.85-11a14,14,0,0,1-.85-4.71c-.21-1.46-1-4.48,1.67-7.34a44.75,44.75,0,0,1,7.45-6.27c1.71-1.1,4.58-2.89,5.24-4.31s1.72-4.13,1.69-5.36,0-1.31.29-1.43-.27-1.64-1.1-2a8.19,8.19,0,0,1-3.1-3.68c-.29-1.22-5.06-.55-7-4.69s-.16-4.23-.61-4.88-.86-2.27-1.67-2.47-3.42-.19-3.88-.55-2.63.72-3.41.61-6.3,1.09-8.42,2.72-2.8.78-3.3,2.23-.42,2.38-1.27,2.72-5.05,3.58-4.44,6.65,3.3,4,3,4.46-2.78,2.68-.85,5.73,3.79,4.41,5.25,4.83,10.3,4.24,10.84,6.67,3,8.55,2.23,9.2-1.29-1.57-3.83-2.39-5.05-1.47-5.72-1.78.24-2.58-2.7-2.61-4.51,1.25-4.23,2.51,2.05,2.14,3.83,2.06,1.51-.54,2.44-.62,5.59,1.51,7.17,2.57,5.44,4.39,9.29,12.85,9.2,19.44,10,22.37,1.37,3.1,1.26,3.88-4.68-4.28-6.52-6.65-3.8-4.87-5.61-14-5.61-10-9.49-12-8.62-1-12.37.56a20.93,20.93,0,0,0-7.54,4.78c-2.88,2.5-3.52,1.77-4.16,4.21s.14,2.76.36,3.88-1.3,1.12-1.17,2,1.79,2.19,1.75,3.4.63,4.76,1.47,5.38,12,10.45,13.26,10.09,1-.91,1.68-.56,4.3,1.75,6.19.88,5.91-1.94,7.29-3.3,5.77-3.6,6.94-3.56,3.72,2.59,5.85,5.33,5.89,6.71,6.55,7.83c2.33,3.94,6.32,7.34,6.49,8.24s0,1.06-3.91-.45a90.89,90.89,0,0,1-8.88-3.76c-1.12-.71-.74-2.21-2.24-2.59s-3.35.45-3.17,1.32.46,3.26,2.33,3.78,2.07.5,2.49-.07.12-1.12,1.42-.81,14.19,6,15.9,6.61A83,83,0,0,1,117.79,47.1c2.06-1.35,5.37-3.37,7.22-3.68,2.82-.47,6.69-1.42,7.75-1.49,1.91-.13,5.68-.17,5.68-.17a20.44,20.44,0,0,1,4.49.36c2.81.48,5.54.5,8,3.07s3.08,4,3.3,4.82-.31,1.19-.5,1.63a3.62,3.62,0,0,0,.08,2,5.79,5.79,0,0,0,1.44,2.27,1.52,1.52,0,0,0,2.34-.8,4.78,4.78,0,0,0-1.31-4c-.57-.35-.75-1.4-1-2.11a17.27,17.27,0,0,0-2.26-3.78c-1-1.16-1.66-1.53-.88-1.5a11.13,11.13,0,0,1,5.31,3.49c1.46,1.91,2.55,5.55,3.06,7.13s2,4.55,2.38,6.11,1.27,5,1.29,5.67,2.13,4.15,2.49,4.7,4.42,4,4.9,4.55a9.92,9.92,0,0,0,3.15,3.26,18,18,0,0,0,3.89,1.88c.71.25.19.36.8.8s5.09-.06,6.62-1.24.79-1.88,1.57-2.05.85.32.85.32.73-.32,1.33-.54.13-.43.49-.62,2-.64,2.4-1.34,0-1.42.23-1.69,2-1.12,2.11-1.57.21-4.47.21-5.27-.61-4.11-1.53-5.16,1.25-1.77.45-3.64-2-2.68-3.43-3.91-3-3.11-3.7-3.38a25.16,25.16,0,0,0-4.73-1.75c-2.31-.51-4.78-.83-5.75-.54s-6.65,2-8.57,1.26a91,91,0,0,1-9.1-4.76c-.59-.47-1.24-1,0-1s10.09,1.38,13.2,1.36,9.51,0,12.46.55a14,14,0,0,1,4.49,1.66c1.37.56,4.39,1.37,5.47,5.17a44.75,44.75,0,0,1,1.61,9.6c.08,2,.16,5.41,1.05,6.7s2.69,3.58,3.76,4.17,1.14.64,1.09,1,1.55.6,2.29.07a8.19,8.19,0,0,1,4.74-.8c1.2.37,3-4.08,7.57-3.61s3.73,2,4.52,2,2.39.41,3-.19,1.9-2.85,2.44-3.06.71-2.63,1.21-3.25,2.26-6,1.93-8.64.75-2.81-.24-4-1.84-1.57-1.7-2.48-.52-6.17-3.48-7.2-5.16.79-5.36.31-.9-3.75-4.5-3.64-5.72,1-6.82,2.07-8.88,6.72-11.25,6-8.88-1.76-9.06-2.75,2-.32,4-2.08,3.83-3.6,4.44-4,2.1,1.51,3.62-1,1.21-4.52,0-4.92-2.89.68-3.72,2.26-.3,1.58-.71,2.42-4.14,4.05-5.86,4.87-6.54,2.46-15.78,1.48-21.42-1.95-24.33-2.78-3.36-.39-4-.89,6.07-1.86,9-2.24,6.12-.8,14.95,2.3,11.47.25,15.15-2.09,5.21-6.93,5.8-10.94a20.93,20.93,0,0,0-.29-8.92c-.69-3.75.26-3.93-1.51-5.72s-2.45-1.28-3.53-1.66-.31-1.68-1.15-2-2.8.43-3.82-.22S175,7.37,174.08,7.78s-15.09,5-15.42,6.3.27,1.33-.37,1.73-3.69,2.82-3.9,4.89-1.33,6.08-.85,8,.17,6.8-.46,7.79-4.12,1.89-7.56,2.33-8.77,1.66-10.07,1.67c-4.57,0-9.53,1.73-10.4,1.41s-.89-.57,2.38-3.14A90.89,90.89,0,0,1,135.16,33c1.18-.61,2.28.48,3.37-.62s1.31-3.11.48-3.4-3-1.26-4.44.08-1.49,1.53-1.21,2.18.91.67,0,1.63c-.78.81-9.32,7-12.62,9.47a83,83,0,0,1,140.09,2.14c.17,2.35.36,6.84-.36,8.78-1,2.68-2.1,6.51-2.57,7.46-.84,1.72-2.67,5-2.67,5a20.44,20.44,0,0,1-2.55,3.71c-1.82,2.2-3.19,4.55-6.63,5.37s-5,.71-5.82.46-.88-.86-1.16-1.24a3.62,3.62,0,0,0-1.81-.94,5.79,5.79,0,0,0-2.69.12,1.52,1.52,0,0,0-.47,2.43,4.78,4.78,0,0,0,4.1.84c.59-.32,1.59,0,2.34.15a17.26,17.26,0,0,0,4.4-.08c1.5-.28,2.15-.67,1.74,0A11.13,11.13,0,0,1,241,79.39c-2.38.32-6.09-.55-7.7-.9s-4.95-.51-6.48-1-4.93-1.37-5.56-1.7-4.66-.22-5.31-.18-5.62,1.87-6.38,2a9.92,9.92,0,0,0-4.4,1.11,18,18,0,0,0-3.56,2.44c-.57.49-.41,0-1.09.3s-2.48,4.45-2.22,6.36,1.24,1.62,1,2.38-.7.57-.7.57-.09.8-.2,1.42.31.33.29.74-.44,2.06,0,2.75,1.25.67,1.35,1,0,2.3.31,2.61,3.77,2.41,4.47,2.8,3.87,1.52,5.24,1.24.91,2,2.93,2.2,3.31-.37,5.1-1,4.17-1,4.77-1.53a25.16,25.16,0,0,0,3.87-3.23C228.3,98,229.8,96,230,95.06s1.58-6.76,3.17-8.07a91,91,0,0,1,8.66-5.53c.7-.28,1.47-.58.87.51S236.52,90,235,92.74s-4.71,8.27-6.68,10.53a14,14,0,0,1-3.67,3.07c-1.16.91-3.38,3.13-7.2,2.18a44.75,44.75,0,0,1-9.13-3.38c-1.81-.94-4.77-2.55-6.34-2.42s-4.44.55-5.49,1.19-1.12.67-1.39.46-1.29,1-1.2,2a8.19,8.19,0,0,1-1.67,4.51c-.92.86,2,4.67-.64,8.36s-3.6,2.23-3.94,2.95-1.55,1.87-1.32,2.67,1.53,3.07,1.44,3.64,1.93,1.93,2.22,2.66,4.06,4.94,6.53,6,2.07,2.05,3.57,1.77,2.28-.81,3-.24,5.61,2.62,8,.57,1.88-4.87,2.4-4.8,3.7,1.09,5.4-2.09,2-5.48,1.6-6.95-1.41-11,.44-12.72,5.95-6.83,6.89-6.49-.73,1.9-.19,4.51,1.22,5.12,1.28,5.85-2.36,1.07-.94,3.64,3.32,3.3,4.28,2.43.85-2.84-.11-4.35-1.22-1-1.75-1.82-1.46-5.61-1.31-7.5,1.13-6.9,6.57-14.43S248,76.85,250.14,74.74s2-2.72,2.75-3-1.41,6.18-2.56,9S248,86.39,240.9,92.51s-5.93,9.83-5.73,14.18,3.42,8,6.61,10.47a20.93,20.93,0,0,0,7.88,4.19c3.59,1.27,3.28,2.18,5.71,1.53s2.32-1.49,3.19-2.23,1.61.57,2.34,0,1-2.64,2.09-3.2,3.83-2.9,4-3.94,3.16-15.59,2.21-16.51-1.29-.43-1.32-1.18-.61-4.6-2.3-5.81-4.61-4.18-6.47-4.7-6-3.23-6.53-4.27.41-4.51,1.74-7.72,2.92-8.43,3.57-9.56c2.27-4,3.25-9.13,4-9.72s.94-.49,1.54,3.62a90.91,90.91,0,0,1,1.13,9.57c-.06,1.32-1.55,1.74-1.14,3.23s2,2.69,2.72,2.11,2.61-2,2.14-3.89-.59-2.05-1.29-2.13-1,.45-1.4-.83S263.8,51.77,263.41,49a83.05,83.05,0,0,1-71.49,122Zm-23.13-52.47c.23,1.42.63,3.12.25,3.28s-1.84-2.21-2-2.56a21.77,21.77,0,0,1-2.52-7.17,23.77,23.77,0,0,1,1.25-11.82,17.07,17.07,0,0,1,3.64-5.5,4.48,4.48,0,0,1,3-1.47c.37,0,.7,0,.85.21.53.71-1.81,2.73-3.12,5.11-.62,1.13-.8,4-1.11,9.65S168.51,116.81,168.79,118.52Zm-5.66-6.1a19.88,19.88,0,0,0,1.33,5.2c.12.26.31.66.24.71s-1.59-1.43-2.51-3.34a12.53,12.53,0,0,1-1-3.64,12.83,12.83,0,0,1-.12-5.07c.25-1.23.48-1.17.75-2.63a7.59,7.59,0,0,1,.77-2.75,2,2,0,0,1,1.11-1c.11,0,.39-.11.54,0s0,.86-.1,1c-.6,1.47-.7,3.11-1.16,4.63C162.32,107.59,162.6,109.24,163.13,112.42Zm7.4-11.24c.7-3.18,1.14-2.42,2.39-5.55a1.93,1.93,0,0,1,.87-1.06,1.29,1.29,0,0,1,1-.11c.73.33.47,2.15.41,3.93-.08,2.72.42,2.37.7,7a33.89,33.89,0,0,1,.09,5.32c-.08.94-.23,2-2,7.89-1.39,4.7-1.9,6.05-2.41,6-.35,0-.58-.69-.79-1.29a7.38,7.38,0,0,1-.32-3.37c.34-2.15-.4-2.55-.62-8.08A41.21,41.21,0,0,1,170.53,101.18Zm6.63,4.26c-.11-1.41-.17-.87-.56-4.08-.57-4.78-.14-3.67-.35-4.93a6.08,6.08,0,0,1,.05-1.84c.1-.57.18-.6.21-.6s.3.72.36,1c.8,4,.9,5,.9,5,.54,5.47.58,5.42.51,5.92a26.2,26.2,0,0,0-.68,3.9,10.83,10.83,0,0,1-.14,2.46s0,0-.36-.72C177.25,106.84,177.21,106,177.17,105.44Zm.18,12.16a39,39,0,0,0,1.85-7.31c.52-3.56.61-8.1-.17-11.05a44.7,44.7,0,0,0-1.43-5,.94.94,0,0,1-.23-.76.63.63,0,0,1,.33-.35c.6-.27,1.65.78,1.9,1a15.52,15.52,0,0,1,3.19,5.61,22.38,22.38,0,0,1,.88,8A19.31,19.31,0,0,1,183,112c-.28,1-.73,2.24-4.16,7.6-2.83,4.43-4,5.83-4.59,7.23a13.78,13.78,0,0,1-1.11,1.92c-.53.82-.85,1.21-1,1.15s-.12-.28-.12-.35a1.09,1.09,0,0,1,.2-.64c.28-.42.4-.93.67-1.36.81-1.3,2.44-4.92,2.81-5.75C175.9,121.32,176.64,119.66,177.35,117.6Zm8-13a12.22,12.22,0,0,0-.51-2.93c-.48-1.45-1.29-2.77-1.23-4.38,0-.35.07-.75.32-.88s.7.13,1.09.43a8.57,8.57,0,0,1,2.29,2.65,12.34,12.34,0,0,1,.79,6.87,33.25,33.25,0,0,1-1.31,5.12c-1.19,4-1.81,6-2.93,7.41,0,.05-1.05,1-3.06,3-2.64,2.59-2.77,2.69-3.12,3.21-.59.87-1.32,2.19-1.69,2.06a.33.33,0,0,1-.19-.22c0-.22.21-.44.27-.5,1-.91,1.37-2.31,2.16-3.4a57.45,57.45,0,0,0,4.6-7.09,20.88,20.88,0,0,0,2-5A18.79,18.79,0,0,0,185.34,104.59ZM142,82.32a41.2,41.2,0,0,0,2.86,4.19A34.21,34.21,0,0,1,147,89.68c.53.89,1.38,2.31,1.16,2.48s-1.36-1.2-3.48-3.06-5.22-4.17-5.83-4.61c-1.58-1.16-2.32-1.64-2.81-2.75a4.93,4.93,0,0,1-.09-3.51c.4-1.06,1.37-2.4,2.17-2.26.5.09.75.72,1,1.28C139.34,77.65,140.23,79.21,142,82.32Zm-1.16-7.87c.13,0,.32.31.47.57a14.73,14.73,0,0,1,1.07,2.55c.55,1.69,1.15,2.7,1,2.76s-.13-.08-.37-.39a12.49,12.49,0,0,1-1.32-2,6.37,6.37,0,0,1-1-2.54C140.76,75.37,140.67,74.51,140.86,74.46ZM137,87.38c.05-.13.36-.9,1-1,.47-.1.91.19,1.84,1a22,22,0,0,1,2,1.89c1,1,.83.7,3.06,2.75a30.27,30.27,0,0,1,3.28,3.28c.85,1.06,2.12,2.87,1.82,3.16s-.85-.26-1.35-.57c-3.29-2-3.73-1.34-6.74-3.23a11.49,11.49,0,0,1-4.11-3.65C137.4,90.23,136.48,88.72,137,87.38Zm12-2c-1-1.7-1.05-1.19-2-2.89-1.15-2.1-.88-2.65-2.17-4.89a8.1,8.1,0,0,1-1.05-2.08,5.49,5.49,0,0,1,.75-4.69,7.37,7.37,0,0,1,3.75-2.71,6.59,6.59,0,0,1,3.48-.52,4.66,4.66,0,0,1,2.46,1c1.18,1.07,1.29,2.79,1.24,4.59-.11,3.86-.85,4.66-1.41,8.76-.11.8-.72,5.43-1.21,9.13-.09.72-.29,2.2-.65,2.22s-.48-.92-1-2.59A29.65,29.65,0,0,0,149,85.34Zm5.3,8c.23-2.81.15-2.51.26-3.62.2-1.92.56-4.06,1.25-7.61.55-2.84.87-5.71,1.38-8.56.16-.86.65-3.56-.42-4.44a5,5,0,0,1-1.19-1.43c-.2-.36-.21-.5-.17-.61.18-.42,1.25-.43,2-.13a1.41,1.41,0,0,1,.77.49c.35.54,0,1.24-.19,2a5.62,5.62,0,0,0,.33,3.33c.67,1.81,1.91,1.73,2.5,3.47a5.45,5.45,0,0,1,.08,2.7c-.29,2.08-1,3.24-2,5.23a93.57,93.57,0,0,0-3.88,9.55c-.19.57-.63,1.86-.81,1.82S154.23,94.74,154.34,93.37ZM166.4,81.61a17.21,17.21,0,0,1-1.5,3.78A44.44,44.44,0,0,1,162,89.54c-1.6,2.19-2.6,3.57-4.24,5.54s-2.06,2.31-2.21,2.21.13-.77.23-1c1.24-3.06.6-2.79,2.07-6.31,2.1-5,3.43-5.6,3.71-7.76.15-1.14.67-2.2.89-3.32.07-.35.15-.81.47-.94s.76.4,1.86.85,1.29.2,1.6.56S166.74,80.41,166.4,81.61Zm.7,1.87c.17-.57.54-2,1-2,.24,0,.32.32.77.78.69.71,1.18.65,1.54,1,.89.9-.06,3.22-.54,4.38a11.22,11.22,0,0,1-2.48,3.86c-1,1-1.14.74-3.54,2.44-3.34,2.36-5.38,4.08-5.38,4.08-.75.63-1.51,1.31-1.72,1.15s.39-1.33.52-1.57a13.18,13.18,0,0,1,3.27-3.75,18.93,18.93,0,0,0,3.68-4.87A26,26,0,0,0,167.11,83.48Zm-16.62,57.57c-1.33.09-3.11-.44-6.69-1.5a65.64,65.64,0,0,1-12-4.85,7.12,7.12,0,0,1-3.2-2.39c-1.25-1.86-1.45-4.68-.12-6.29.49-.59,1.39-1.26,2-1s.47,1.21,1,2.29a5.92,5.92,0,0,0,3,2.58,102.23,102.23,0,0,0,9.88,3.93c6.07,2.34,6.32,3.66,9.4,4.07a10.81,10.81,0,0,1,3.94,1.32c1,.58,2.16,1.47,2,1.76s-1.35-.22-2.92-.46C154.06,140.07,152.81,140.9,150.49,141.05Zm3.74,1.83c-.1.28-1,.11-2.2.07-2.26-.09-2.3.37-3.69.19-1.93-.25-3.56-1.37-3.47-1.63s.39-.08.89,0a14.06,14.06,0,0,1,2.78.6,7.39,7.39,0,0,0,2.43.34c1.31-.08,2-.6,2.76-.16C154,142.42,154.29,142.71,154.23,142.89ZM138,139.74a6.41,6.41,0,0,1-2.45-.22,12.84,12.84,0,0,1-3-.93c-2.51-1.16-2.07-2.1-4.42-3.28-.36-.18-1.05-.5-1.11-1,0-.38.22-.83.5-.85s.49.39.67.64c.66,1,1.61,1,2.88,1.63,1.6.74,1.24,1.14,3.17,2.3C136.33,139.26,138.06,139.55,138,139.74Zm9.65-15.55c4.66,2.87,5.33,3.42,6.1,4.19a23.64,23.64,0,0,1,3.33,4.43c1,1.55,2.85,4.49,2.23,5.07-.29.28-1-.15-3-1-1.29-.52-2.62-.91-3.93-1.4-7.2-2.68-7.6-2.83-9.07-3.39a38.94,38.94,0,0,1-8.19-4,6.31,6.31,0,0,1-2.75-3.46,3,3,0,0,1-.08-1.53c.47-1.92,3.1-2.63,3.72-2.8a8,8,0,0,1,3.22-.17C141.41,120.48,142.87,121.24,147.66,124.2Zm-7.12-5.6c0-.53,2.61-1,5-.85a14,14,0,0,1,6.83,2.57,15.46,15.46,0,0,1,5.45,6.12c1.69,3.5,1.78,7.27,1.44,7.36-.11,0-.35-.44-.81-1.38-.9-1.8-1.61-2.76-2-3.48s-1.24-1.83-3.7-3.6a26.64,26.64,0,0,0-4.23-2.57,30.74,30.74,0,0,0-5.21-3C141.56,119.09,140.52,118.94,140.54,118.6Zm41-64.58a23.77,23.77,0,0,1,9.54,7.08A17.07,17.07,0,0,1,194,67a4.48,4.48,0,0,1-.25,3.32c-.18.32-.35.6-.61.63-.88.1-1.43-2.94-2.82-5.29-.66-1.11-3-2.71-7.75-5.86s-7.15-4.76-8.76-5.39c-1.34-.52-3-1-2.95-1.45s2.84-.46,3.24-.45A21.76,21.76,0,0,1,181.53,54ZM176,51c0-.19,2-.65,4.16-.47a12.52,12.52,0,0,1,3.66,1A12.83,12.83,0,0,1,188.29,54c.93.84.76,1,1.88,2a7.59,7.59,0,0,1,2,2.06,2,2,0,0,1,.28,1.45c0,.11-.11.39-.31.45s-.73-.47-.84-.62c-1-1.27-2.32-2.18-3.4-3.35-1.4-1.52-3-2.12-6-3.27a19.88,19.88,0,0,0-5.15-1.5C176.48,51.14,176,51.11,176,51Zm-4.3,4.19c1.68,1.38,2.4.94,7.28,3.57a41.21,41.21,0,0,1,8.83,6c2.38,2.22,1.51,2.21,3.57,4.88a1.93,1.93,0,0,1,.47,1.28,1.29,1.29,0,0,1-.4.91c-.66.47-2.08-.69-3.59-1.64-2.3-1.45-2.26-.84-6.35-2.93a33.89,33.89,0,0,1-4.62-2.62c-.77-.55-1.63-1.23-5.8-5.69-3.35-3.58-4.25-4.71-4-5.13s.89-.15,1.51,0A7.38,7.38,0,0,1,171.74,55.21ZM191,73.56c-.07.13-.78-.11-1.06-.21-3.86-1.34-4.73-1.75-4.73-1.75-5-2.31-5-2.25-5.36-2.57a26.2,26.2,0,0,0-3-2.57c-.94-.61-2.12-1.23-2.05-1.37s0,0,.81.06c4,2.51,4.69,2.89,5.22,3.15,1.27.63.84.29,3.8,1.59,4.41,1.93,3.23,1.74,4.43,2.2a6.08,6.08,0,0,1,1.56,1C191,73.45,191,73.54,191,73.56ZM167.46,58.73c.3.43,1.36,1.91,2.77,3.56a39,39,0,0,0,5.36,5.31c2.81,2.26,6.67,4.64,9.61,5.46a44.7,44.7,0,0,0,5,1.29.94.94,0,0,1,.77.19.63.63,0,0,1,.13.46c-.07.65-1.51,1-1.85,1.12a15.52,15.52,0,0,1-6.46-.1,22.38,22.38,0,0,1-7.35-3.3A19.31,19.31,0,0,1,172.19,70c-.72-.75-1.56-1.77-4.44-7.45-2.38-4.69-3-6.38-3.9-7.63A13.78,13.78,0,0,1,162.76,53c-.44-.87-.61-1.34-.48-1.45s.3,0,.36.08a1.09,1.09,0,0,1,.45.5c.22.46.6.82.83,1.27C164.64,54.75,166.94,58,167.46,58.73Zm17.71,20c0,.32-.47.54-.93.72a8.57,8.57,0,0,1-3.45.63,12.34,12.34,0,0,1-6.32-2.81,33.25,33.25,0,0,1-3.74-3.73c-2.83-3.05-4.26-4.61-4.9-6.29,0-.06-.36-1.43-1-4.17-.89-3.59-.91-3.75-1.18-4.31-.45-.95-1.21-2.25-.91-2.51a.33.33,0,0,1,.29-.05c.21.07.28.41.29.48.28,1.31,1.29,2.36,1.83,3.59a57.45,57.45,0,0,0,3.78,7.56,20.88,20.88,0,0,0,3.23,4.28,18.79,18.79,0,0,0,5.28,3.68,12.23,12.23,0,0,0,2.79,1.05c1.5.32,3,.3,4.4,1.17C184.86,78.18,185.19,78.43,185.16,78.71Zm39-11.41c-1.53.48-3.06-.3-4.59-1.26-3.27-2.05-3.58-3.09-6.83-5.66l-7.25-5.68c-.57-.45-1.75-1.37-1.58-1.69s1,0,2.75.43a29.64,29.64,0,0,0,5.73.84c2,0,1.56-.3,3.5-.25,2.39.07,2.73.59,5.32.62a8.1,8.1,0,0,1,2.33.15,5.49,5.49,0,0,1,3.66,3,7.37,7.37,0,0,1,.43,4.61,6.59,6.59,0,0,1-1.32,3.26A4.66,4.66,0,0,1,224.18,67.3Zm-.25,3.59a1.41,1.41,0,0,1-.81.42c-.64,0-1.06-.64-1.58-1.16a5.62,5.62,0,0,0-3-1.41c-1.9-.34-2.46.76-4.26.39a5.45,5.45,0,0,1-2.37-1.3c-1.64-1.3-2.27-2.54-3.49-4.38a93.56,93.56,0,0,0-6.26-8.19c-.39-.46-1.29-1.49-1.16-1.62s.69.34,1.82,1.13c2.3,1.62,2.08,1.4,3,2.07,1.55,1.14,3.21,2.54,5.92,4.94,2.16,1.91,4.48,3.65,6.67,5.53.66.57,2.73,2.37,4,1.89a5,5,0,0,1,1.83-.3c.41,0,.54.07.61.17C225.12,69.43,224.59,70.36,223.93,70.89ZM219.55,52s.13-.07.52-.12a12.49,12.49,0,0,1,2.36-.15,6.37,6.37,0,0,1,2.69.44c.07,0,.86.4.81.59s-.43.12-.73.11a14.73,14.73,0,0,1-2.74-.37C220.72,52.11,219.55,52.12,219.55,52ZM226,49.67c-.33.39-1,.28-1.61.21-.44-.05-2.23-.07-5.82-.12a41.2,41.2,0,0,0-5.06.33,34.22,34.22,0,0,1-3.83.25c-1,0-2.69,0-2.73-.26s1.72-.56,4.4-1.44,6.24-2.38,6.93-2.68c1.8-.77,2.59-1.17,3.8-1a4.93,4.93,0,0,1,3.07,1.7C225.86,47.53,226.53,49,226,49.67Zm-8.85-5.41c-.15.45-.62.69-1.77,1.09a22,22,0,0,1-2.67.8c-1.38.32-1,.36-3.92,1.24a30.27,30.27,0,0,1-4.49,1.16c-1.35.2-3.55.37-3.65,0-.06-.24.65-.6,1.18-.87,3.42-1.81,3-2.53,6.2-4.17a11.49,11.49,0,0,1,5.24-1.69c.85,0,2.62-.05,3.5,1.09A1.68,1.68,0,0,1,217.14,44.26Zm-13.22,15.3c3.25,4.35,3.08,5.8,4.81,7.14.91.7,1.55,1.7,2.41,2.46.26.23.62.54.57.88s-.73.45-1.68,1.17-.83,1-1.3,1.1-1.07-.28-1.94-1.18a17.21,17.21,0,0,1-2.5-3.22,44.45,44.45,0,0,1-2.11-4.57c-1.07-2.49-1.76-4.05-2.63-6.46s-.94-2.95-.79-3,.6.5.76.71C201.54,57.2,201.64,56.5,203.92,59.56Zm-4.77.3a18.93,18.93,0,0,0,2.32,5.64,26,26,0,0,0,3.35,5.29c.4.43,1.41,1.46,1.16,1.89-.12.2-.44.11-1.07.27-1,.24-1.16.68-1.66.81-1.23.31-2.75-1.69-3.5-2.69A11.22,11.22,0,0,1,197.7,67c-.37-1.4-.06-1.36-.31-4.29-.34-4.08-.78-6.7-.78-6.7-.16-1-.36-2-.11-2.06s.95,1,1.09,1.24A13.18,13.18,0,0,1,199.15,59.86ZM160.94,33c1.76-2.18,1.68-3.68,2.73-5.76.6-1.19,2-2.46,4.68-5a65.64,65.64,0,0,1,10.26-7.86,7.12,7.12,0,0,1,3.68-1.54c2.24-.13,4.77,1.13,5.48,3.09.26.72.39,1.84-.13,2.24s-1.29-.21-2.47-.32a5.92,5.92,0,0,0-3.77,1.31,102.22,102.22,0,0,0-8.4,6.52c-5.1,4-6.37,3.59-8.28,6a10.81,10.81,0,0,1-3.13,2.72c-1,.58-2.36,1.12-2.54.85S159.93,34.25,160.94,33Zm.31-5.4c1.22-1.9.85-2.17,1.71-3.28,1.2-1.53,3-2.37,3.17-2.16s-.13.38-.42.79A14.06,14.06,0,0,1,163.77,25,7.39,7.39,0,0,0,162.24,27c-.6,1.17-.5,2-1.27,2.46-.27.15-.67.26-.79.12S160.61,28.59,161.25,27.6Zm11.32-12.45A12.85,12.85,0,0,1,174.9,13c2.28-1.57,2.86-.72,5.07-2.14.34-.22,1-.65,1.46-.43s.6.62.48.86-.58.23-.89.25c-1.16.08-1.72.86-2.87,1.66-1.45,1-1.62.49-3.59,1.56-2.17,1.18-3.3,2.52-3.44,2.37S171.91,15.88,172.56,15.15Zm14.78,13c-1.34,1.7-2.74,2.57-7.72,5.2s-5.65,2.86-6.7,3.13a23.64,23.64,0,0,1-5.5.62c-1.84.06-5.31.17-5.5-.66-.09-.39.61-.75,2.35-2.07,1.1-.84,2.12-1.8,3.2-2.67,6-4.84,6.3-5.11,7.53-6.1a38.94,38.94,0,0,1,7.59-5A6.31,6.31,0,0,1,187,20a3,3,0,0,1,1.35.71c1.41,1.38.69,4,.52,4.63A8,8,0,0,1,187.34,28.16Zm-1.09,6.65a14,14,0,0,1-5.68,4.58,15.46,15.46,0,0,1-8,1.59c-3.87-.32-7.17-2.15-7.07-2.5,0-.11.55-.08,1.6,0,2,.14,3.19,0,4,.05s2.21-.14,5-1.36a26.63,26.63,0,0,0,4.36-2.34,30.74,30.74,0,0,0,5.21-3c1.5-1.16,2.16-2,2.44-1.79C188.5,30.36,187.63,32.84,186.25,34.81Zm41.87,56.43a21.77,21.77,0,0,1-5,5.74,23.77,23.77,0,0,1-10.89,4.75,17.07,17.07,0,0,1-6.58-.44,4.48,4.48,0,0,1-2.75-1.87c-.18-.32-.35-.61-.24-.84.36-.81,3.26.23,6,.19,1.29,0,3.86-1.28,8.94-3.8s7.69-3.83,9-4.92c1.12-.91,2.4-2.1,2.72-1.84S228.33,90.9,228.12,91.24Zm-1.32,6.3a12.52,12.52,0,0,1-2.65,2.71,12.83,12.83,0,0,1-4.34,2.61c-1.2.39-1.26.16-2.66.65a7.59,7.59,0,0,1-2.77.69,2,2,0,0,1-1.4-.48c-.08-.08-.29-.29-.24-.49s.76-.4,1-.42c1.58-.2,3-.93,4.6-1.28,2-.46,3.32-1.52,5.81-3.55A19.88,19.88,0,0,0,228,94.26c.17-.23.42-.59.5-.56S228,95.8,226.81,97.54Zm-24.7-2.19c-.55.2-.61.14-.63.11s.48-.62.71-.82c3.08-2.68,3.87-3.23,3.87-3.23,4.48-3.17,4.43-3.19,4.9-3.37a26.2,26.2,0,0,0,3.73-1.34,10.83,10.83,0,0,1,2.21-1.1s0,.05-.45.67c-4.15,2.19-4.84,2.63-5.33,3-1.18.79-.67.58-3.27,2.5-3.87,2.86-3.12,1.94-4.11,2.75A6.08,6.08,0,0,1,202.1,95.35ZM227,87.89c-2,.77-2,1.61-6.72,4.54a41.21,41.21,0,0,1-9.57,4.68c-3.11,1-2.67.21-6,.67a1.93,1.93,0,0,1-1.35-.23,1.29,1.29,0,0,1-.58-.8c-.08-.8,1.63-1.47,3.21-2.3,2.4-1.27,1.86-1.54,5.7-4a33.88,33.88,0,0,1,4.58-2.71c.86-.39,1.88-.8,7.82-2.2,4.77-1.12,6.2-1.35,6.42-.88s-.31.85-.73,1.32A7.38,7.38,0,0,1,227,87.89Zm-.92-5.46c-.52,0-2.33.23-4.47.63a39,39,0,0,0-7.27,2c-3.35,1.31-7.34,3.47-9.52,5.62a44.7,44.7,0,0,0-3.62,3.7c0,.09-.21.51-.55.58a.63.63,0,0,1-.46-.12c-.53-.39-.14-1.82,0-2.16a15.52,15.52,0,0,1,3.3-5.55,22.38,22.38,0,0,1,6.52-4.73,19.31,19.31,0,0,1,4-1.49c1-.25,2.31-.47,8.67-.14,5.25.27,7,.56,8.56.41a13.78,13.78,0,0,1,2.22,0c1,.05,1.47.14,1.49.31s-.18.24-.25.28a1.09,1.09,0,0,1-.66.14c-.51,0-1,.11-1.52.09C230.91,82,227,82.34,226.06,82.43Zm-26.31,4.25a8.57,8.57,0,0,1,1.17-3.3,12.34,12.34,0,0,1,5.58-4.09,33.25,33.25,0,0,1,5.1-1.39c4.06-.94,6.12-1.4,7.89-1.12L223.63,78c3.55,1,3.7,1.08,4.33,1.13,1,.08,2.56.07,2.63.45a.33.33,0,0,1-.1.28c-.17.15-.49,0-.56,0-1.28-.41-2.69-.05-4-.2a57.45,57.45,0,0,0-8.44-.49,20.88,20.88,0,0,0-5.32.67,18.79,18.79,0,0,0-5.81,2.75,12.23,12.23,0,0,0-2.3,1.89c-1,1.14-1.77,2.49-3.2,3.24-.31.16-.69.32-.92.16S199.67,87.17,199.75,86.68ZM195.2,106c.34-1.22,2.83-1.54,4.08-1.7a11.22,11.22,0,0,1,4.58.25c1.39.38,1.21.62,3.88,1.87,3.71,1.74,6.2,2.66,6.2,2.66.92.34,1.89.67,1.85.93s-1.35.32-1.62.33a13.18,13.18,0,0,1-4.87-1,18.93,18.93,0,0,0-6-.79,26,26,0,0,0-6.25.28c-.58.14-2,.5-2.21.07-.12-.21.12-.44.3-1.06C195.35,106.9,195.06,106.51,195.2,106Zm.52,4.37a17.21,17.21,0,0,1,4-.56,44.44,44.44,0,0,1,5,.44c2.69.31,4.39.49,6.91.94s3,.65,3,.82-.73.27-1,.31c-3.27.43-2.72.86-6.51,1.32-5.39.65-6.57-.21-8.58.62-1.06.44-2.24.5-3.33.87-.33.11-.78.27-1.05.06s0-.86-.18-2-.46-1.22-.3-1.67S194.51,110.68,195.72,110.37Zm-2,7.46a5.45,5.45,0,0,1,2.31-1.41c1.95-.77,3.33-.7,5.54-.84a93.56,93.56,0,0,0,10.22-1.35c.59-.11,1.93-.38,2-.2s-.64.43-1.88,1c-2.55,1.19-2.25,1.11-3.28,1.57-1.76.78-3.8,1.52-7.23,2.68-2.74.92-5.39,2.07-8.12,3-.82.29-3.41,1.19-3.65,2.56a5,5,0,0,1-.66,1.74c-.21.35-.33.43-.45.45-.45.05-1-.87-1.12-1.71a1.41,1.41,0,0,1,0-.91c.29-.57,1.08-.6,1.79-.8a5.62,5.62,0,0,0,2.73-1.93C193.21,120.24,192.53,119.2,193.74,117.83Zm-3.36,9.53c.35-1.56,1.78-2.5,3.38-3.35,3.41-1.82,4.47-1.57,8.31-3.11l8.53-3.46c.67-.27,2.06-.84,2.25-.53s-.56.87-1.74,2.17a29.64,29.64,0,0,0-3.58,4.55c-1,1.67-.51,1.5-1.53,3.16-1.25,2-1.87,2.07-3.18,4.3a8.1,8.1,0,0,1-1.29,1.94,5.49,5.49,0,0,1-4.45,1.67,7.37,7.37,0,0,1-4.21-1.92,6.59,6.59,0,0,1-2.17-2.77A4.66,4.66,0,0,1,190.38,127.36Zm12,8.06a14.74,14.74,0,0,1,1.69-2.19c1.19-1.31,1.78-2.33,1.88-2.27s0,.15-.16.51a12.49,12.49,0,0,1-1,2.12A6.37,6.37,0,0,1,203,135.7c-.07,0-.78.55-.91.41S202.24,135.68,202.4,135.42Zm3,.79c.26-.35,1.18-1.9,3-5a41.2,41.2,0,0,0,2.23-4.56,34.2,34.2,0,0,1,1.68-3.44c.51-.9,1.33-2.34,1.58-2.24s-.37,1.77-.94,4.54-1,6.6-1.13,7.35c-.23,1.94-.28,2.83-1,3.8a4.93,4.93,0,0,1-3,1.81c-1.12.18-2.77,0-3-.77C204.61,137.23,205,136.7,205.4,136.21Zm8.42-5.57a22,22,0,0,1,.63-2.71c.41-1.35.19-1.07.87-4a30.27,30.27,0,0,1,1.23-4.48c.5-1.26,1.44-3.27,1.85-3.15.24.07.19.86.17,1.46-.14,3.86.67,3.9.53,7.45a11.49,11.49,0,0,1-1.14,5.38c-.4.75-1.26,2.3-2.69,2.5a1.68,1.68,0,0,1-1.39-.35C213.56,132.37,213.59,131.84,213.82,130.64Zm41.44-35.83c.73,1.11,1.16,2.92,2,6.55A65.64,65.64,0,0,1,259,114.17a7.12,7.12,0,0,1-.5,4c-1,2-3.36,3.57-5.41,3.21-.75-.13-1.78-.58-1.88-1.23s.82-1,1.5-2a5.92,5.92,0,0,0,.74-3.92A102.22,102.22,0,0,0,252,103.69c-1-6.44.05-7.31-1.11-10.18a10.81,10.81,0,0,1-.8-4.07c0-1.17.21-2.61.53-2.63s.47,1.28,1,2.77C252.63,92.18,254,92.87,255.25,94.81Zm-.54-3.41c0-.31.11-.71.29-.74s.6.83,1.15,1.88c1,2,1.46,1.81,2,3.11.73,1.8.57,3.77.3,3.82-.11,0-.26-.3-.48-.75a14.06,14.06,0,0,1-.85-2.71,7.39,7.39,0,0,0-.9-2.29C255.49,92.61,254.7,92.27,254.71,91.39Zm-14.38,14.16a30.74,30.74,0,0,0,0,6c.26,1.88.64,2.85.34,3-.47.24-2.19-1.76-3.21-3.93a14,14,0,0,1-1.15-7.21,15.46,15.46,0,0,1,2.62-7.76c2.2-3.2,5.43-5.14,5.68-4.89.08.08-.21.52-.79,1.39-1.12,1.67-1.6,2.76-2,3.45s-1,2-1.3,5A26.64,26.64,0,0,0,240.33,105.56Zm1.67,0c.19-5.47.33-6.32.62-7.37a23.64,23.64,0,0,1,2.2-5.08c.86-1.62,2.49-4.69,3.31-4.44.39.12.34.9.63,3.07.18,1.38.5,2.73.73,4.1,1.23,7.58,1.3,8,1.54,9.56a38.94,38.94,0,0,1,.59,9.09,6.31,6.31,0,0,1-1.65,4.1,3,3,0,0,1-1.29.82c-1.9.54-3.82-1.39-4.27-1.85a8,8,0,0,1-1.75-2.71C241.86,112.88,241.8,111.23,242,105.6Zm18.2,8.75c-.15-1.76.38-1.64.43-3.89.06-2.47-.54-4.11-.35-4.16s.72,1.31,1,2.24a12.84,12.84,0,0,1,.68,3.09c.23,2.76-.8,2.84-.66,5.46,0,.4.09,1.16-.35,1.48s-.83.22-1,0,.09-.62.23-.9C260.72,116.63,260.32,115.75,260.2,114.36Z"/></svg>