<svg enable-background="new 0 0 246.6 246.6" viewBox="0 0 246.6 246.6" xmlns="http://www.w3.org/2000/svg"><g fill="#fff"><path d="m14.7 0v217.7h217.7v-217.7zm168 84.5c-2.5 1.2-12.7-12.3-14-13.7-14.2-17.9-25.1-20.4-34.6-16.6-6.9 3.1-12.3 9.8-12.1 18.7.2 17.9 24.7 35 24.7 35s29.3 18.3 27.2 42.6c-1.6 13.2-8.6 22.8-16 30.5-1.5-1.4-3.9-5.7-15.6-7.1-17.1-2.1-53.3 15.6-68.2-17.6 25.2 19.5 66-2 75.4 10.5-8.4-22-71.7 13.2-83.5-36.7 24.7 29.7 80.4 4.2 89 26.8-2.8-33.5-89.6 7-91.1-59 11 36.4 79.8 21.1 92.3 43-4.4-29.8-111.4-10-77.6-95.9-6.3 47 32.5 56.1 55.8 65.6-18-13.9-25.9-21.1-25.9-38.9-1.2-20.4 18-40.4 42.2-33.6 19.7 6.4 22.5 22.8 26.1 32.1 5.9 5.6 6.8 14 5.9 14.3z"/><path d="m23.2 228.1-8.4 15.6h3.7l6.3-12.2 6.1 12.2h4.2l-8.5-15.6z"/><path d="m43.1 236.8h7.1v-2.6h-7.1v-3.5h12.2v-2.6-.1h-15.8v15.5h16v-2.8h-12.4z"/><path d="m77.7 235c-1-.9-2.1-.9-3.1-.9h-9.4v-3.1h12.3v-2.8h-16v15.5h12.5c1 0 2.7 0 3.7-.9 1-.7 1-1.6 1-2.1v-3.3c0-.6 0-1.6-1-2.4zm-2.7 4.5c0 .5-.1.9-.4 1-.2.4-1 .4-1.4.4h-8.1v-4.2-.1h8.4c.2 0 .9 0 1.1.2.4.4.4.9.4 1.1z"/><path d="m88.5 236.8h7.2v-2.6h-7.2v-3.5h12.2v-2.6-.1h-15.7v15.5h16v-2.8h-12.5z"/><path d="m115.5 228.1h-3.6l-6.4 12.7h-1.8v5.8h3.4v-3h13.3v3h3.4v-5.8h-1.8zm-6.8 12.9 4.8-9.7 4.9 9.7z"/><path d="m131.6 239.6v-11.5h-3.5v15.6h2.9l12.9-11.5v11.5h3.6v-15.6h-2.9z"/><path d="m169.8 234.1h-11.3v-6.1h-3.6v15.5h3.6v-6.6h11.3v6.6h3.6v-15.5h-3.6z"/><path d="m192.4 233.7h-8.2-.2v-5.8h-3.6v15.5h11.9c1 0 2.7 0 3.7-.9 1-.7 1-1.6 1-2.1v-3.8c0-1-.4-1.6-.7-2-1-1-2.7-.9-3.9-.9zm1.2 5.8c0 .5-.1.9-.4 1-.2.4-1 .4-1.4.4h-7.6v-4.6-.1h7.9c.2 0 .9 0 1.1.2.4.4.4.9.4 1.1z"/><path d="m201.1 228.1h3.6v15.5h-3.6z"/><path d="m215.6 239.6v-11.5h-3.6v15.6h3l12.9-11.5v11.5h3.6v-15.6h-3z"/><path d="m221.9 226.8c1.4 0 2.8-.1 3.9-1.4.6-.6 1-1.7.9-3h-2c0 .5-.1 1-.5 1.4s-1.1.6-2.1.6c-1.1 0-1.7-.2-2.1-.6-.4-.2-.5-.9-.5-1.4h-2.5c-.2 1.1.2 2.2.9 3 1 1.3 2.6 1.4 4 1.4z"/></g></svg>