
<svg xmlns="http://www.w3.org/2000/svg" viewBox="0 0 380 248"><defs><style>.a{fill:#fff;}.b{fill:#fff;}</style></defs><title>-</title><path class="a" d="M14.67,82.14q-.28,4.88-.28,12.59V99.3h7.1Q40,99.3,40.05,112a14.37,14.37,0,0,1-5.78,11.61,21.41,21.41,0,0,1-13.89,4.67q-.91,0-2.75-.08-3.48-.16-5.5-.16t-4.66.14q-2,.1-2.89.1V126.7a8.08,8.08,0,0,0,2.56-1.6,8.35,8.35,0,0,0,.56-3.28q.16-2.72.16-8V92.1a60.17,60.17,0,0,0-.42-9.16Q7,80.88,3.49,80.88H1.13V78.72H4q.9,0,3.2.12Q10,79,11.54,79t5.19-.09q9.85-.26,14.38-.26a47.69,47.69,0,0,1,5.81.31q-1.15,3.4-1.22,10.52H33.47a37.86,37.86,0,0,0-.87-6.51,36,36,0,0,0-9.77-1.26A74.24,74.24,0,0,0,14.67,82.14Zm-.14,42.65a30.51,30.51,0,0,0,5.26.49q6.16,0,9.54-3.31a11.89,11.89,0,0,0,3.38-8.89,14.11,14.11,0,0,0-1-5.28A8.33,8.33,0,0,0,28,103.67q-2.73-1.59-9.31-1.59-2.16,0-4.25.1v12.38Q14.39,121.79,14.53,124.79Z"/><path class="a" d="M58.5,104.59v8.55l0,4.92q0,4.6.1,6.73,5.09.38,10.91.38a51.56,51.56,0,0,0,6.56-.35,16.57,16.57,0,0,0,3.63-.9q.87-3.06,1.78-7.66h2.3q-.94,7.65-.94,10.2l.07,1.57q-4,.35-7.87.35l-5.47-.1q-9.05-.24-13.3-.24-4.07,0-10.83.24v-2.19h1.08q3,0,3.81-.59t1-2.79q.26-2.19.26-9.68V93.9q0-4.7-.23-7.69A16,16,0,0,0,51,82.64a2,2,0,0,0-.75-.89,9.56,9.56,0,0,0-3-.56l-2.68-.28V78.72H48.3l3.69.12q3.1.12,4.7.12l13.37-.2,6.34,0q3.24,0,6.55.24a38.81,38.81,0,0,0-1.46,10.76H79.12a44,44,0,0,0-.38-6.37,29.07,29.07,0,0,0-10.1-1.53q-4.77,0-10,.42,0,3.27-.07,6.53l-.07,5.35v7.06q3.45.24,6.09.24,8.29,0,9.38-.57t1.1-3.57V95h2.37q-.24,5.26-.24,8.39,0,3.31.24,7.8H75.08v-2q0-3.34-1.31-4.09t-9.21-.75Q61.64,104.35,58.5,104.59Z"/><path class="a" d="M101.75,82.52q-.24,5-.24,10.69v19.88q0,10.48.63,11.73t4.11,1.25h2.4v2.19q-6.16-.24-9.71-.24-3.13,0-11.11.24v-2.19H91a4.8,4.8,0,0,0,2.82-.54,3.36,3.36,0,0,0,.8-2.19q.17-1.65.38-10.11V94.63l-.1-7.21q-.07-4.49-1-5.5t-4.33-1H87.82V78.72q4.35.17,11,.17,3.93,0,8.74-.21,3.17-.14,4.8-.14,8.43,0,12.26,3.06a10.09,10.09,0,0,1,3.8,8.29,13.54,13.54,0,0,1-2.19,7.29,15.9,15.9,0,0,1-6.21,5.62,18.11,18.11,0,0,1-8.58,2.12,26.16,26.16,0,0,1-5.22-.66l-.7-2.61a21.85,21.85,0,0,0,5.12.77,10.13,10.13,0,0,0,7.62-2.91,10.94,10.94,0,0,0,2.82-8,9.75,9.75,0,0,0-3-7.61q-3-2.73-9-2.73A24.25,24.25,0,0,0,101.75,82.52Z"/><path class="a" d="M145.13,104.59v8.55l0,4.92q0,4.6.1,6.73,5.09.38,10.91.38a51.56,51.56,0,0,0,6.56-.35,16.57,16.57,0,0,0,3.63-.9q.87-3.06,1.78-7.66h2.3q-.94,7.65-.94,10.2l.07,1.57q-4,.35-7.87.35l-5.47-.1q-9.05-.24-13.3-.24-4.07,0-10.83.24v-2.19h1.08q3,0,3.81-.59t1-2.79q.26-2.19.26-9.68V93.9q0-4.7-.23-7.69a16,16,0,0,0-.49-3.57,2,2,0,0,0-.75-.89,9.56,9.56,0,0,0-3-.56l-2.68-.28V78.72h3.76l3.69.12q3.1.12,4.7.12l13.37-.2,6.34,0q3.24,0,6.55.24a38.81,38.81,0,0,0-1.46,10.76h-2.37a44,44,0,0,0-.38-6.37,29.07,29.07,0,0,0-10.1-1.53q-4.77,0-10,.42,0,3.27-.07,6.53l-.07,5.35v7.06q3.45.24,6.09.24,8.29,0,9.38-.57t1.1-3.57V95h2.37q-.24,5.26-.24,8.39,0,3.31.24,7.8H161.7v-2q0-3.34-1.31-4.09t-9.21-.75Q148.26,104.35,145.13,104.59Z"/><path class="a" d="M195,126.07v2.19q-6.27-.24-10.62-.24t-10.2.24v-2.19H177q3.2,0,3.78-1.3t.57-8.23V90.31a40.75,40.75,0,0,0-.44-7.6q-.44-1.79-4.2-1.79h-2.51V78.72q5.57.24,10.13.24l20.33-.38a48.69,48.69,0,0,1,5.88.31q-1.15,3.41-1.22,10.55h-2.23a35.6,35.6,0,0,0-.84-6.48,36.44,36.44,0,0,0-9.82-1.25,73.81,73.81,0,0,0-8.15.45q-.42,4.49-.42,8.14v26.23q0,7.13.77,8.33t3.9,1.2Z"/><path class="a" d="M233.91,80.92h-1.5q-4.14,0-4.72,1.15t-.57,10.41V122l7.42-10.58,10.65-15.53,11.45-17.13,5.29.24q1.11,0,7.9-.24v2.19h-2.68q-3.45,0-4,1.29t-.5,11.42v19.29q0,10.27.5,11.72t4,1.44h2.68v2.19q-4.28-.24-10.06-.24-6,0-10.76.24v-2.19h2.4q3.34,0,4-1.41t.7-11.93V93.63q0-2.79.28-9.44L233.91,117.3q-6.65,9.78-7.45,10.38t-6.37,1.5q.56-8.57.56-15.15V92.48q0-8.95-.66-10.25t-3.9-1.31h-2.58V78.72q5.4.24,9.89.24,6.16,0,10.51-.24Z"/><path class="a" d="M286.52,103.65v9.73q0,2.51.17,5.89.21,4.74.35,5.25a2,2,0,0,0,1,1,5.71,5.71,0,0,0,2.82.52h2.37v2.19q-4.53-.24-8.74-.24t-11.66.24v-2.19H275q3.66,0,4.32-1.24t.66-11.33v-21q0-9.12-.68-10.36t-3.88-1.24h-2.58V78.72q5.74.24,10.69.24t9.71-.24v2.19h-1.5q-3.24,0-4,.52a2.36,2.36,0,0,0-.94,1.71,89.64,89.64,0,0,0-.28,9.31v8q6.2.24,15.77.24,8.11,0,13.2-.24v-6.8a100,100,0,0,0-.42-10,2.83,2.83,0,0,0-.94-2.06,5.78,5.78,0,0,0-3.27-.63h-2.51V78.72q5.33.24,10.1.24,5.15,0,10.72-.24v2.19h-2.65q-2.68,0-3.43.59a3.05,3.05,0,0,0-.9,2.18q-.16,1.59-.16,10v19.25q0,10.69.61,11.92t3.81,1.24h2.71v2.19q-4.8-.24-9.92-.24-5.85,0-10.9.24v-2.19h2.4q2.65,0,3.41-.61a3.26,3.26,0,0,0,.94-2.28q.38-3.59.38-10.46v-9.07q-4.91-.24-12.53-.24Q292.09,103.41,286.52,103.65Z"/><path class="a" d="M340.47,98a12.28,12.28,0,0,1-3.53-8.67,9.56,9.56,0,0,1,6.35-9.42q3.12-1.27,9.14-1.27,2.19,0,7.21.17,4.32.17,6.62.17,3.41,0,9.89-.24v2.19h-1.88q-3.55,0-4.2,1.29t-.64,12.08V111q0,12.43.56,13.74t3.55,1.31h2.61v2.19q-7.83-.24-10.83-.24-3.8,0-9.57.24v-2.19h2.72q3.24,0,3.83-1.34t.59-13.63V94.29q0-6.3-.42-11.84a21.16,21.16,0,0,0-7.35-1.36q-5.26,0-8,2.52a9,9,0,0,0-2.78,7,10.3,10.3,0,0,0,3.29,8q3.29,3,9.1,3,1,0,3-.17l.35,1.18q-3.93,4.39-7.38,9l-12.33,16.64a37.88,37.88,0,0,0-4.18-.24q-2.16,0-5,.24v-2.19h.9a2.57,2.57,0,0,0,1.22-.31,12.44,12.44,0,0,0,2.37-2.54l6.68-8.67q5-6.51,8.46-11.42Q344,101.74,340.47,98Z"/><path class="b" d="M2.13,141.88H58.88v5.32H2.13ZM7.8,152.53l5.68,5.32L7.8,163.18l-5.68-5.32Zm0,21.3,5.68,5.32L7.8,184.48l-5.68-5.32Zm0,21.3,5.68,5.32L7.8,205.77l-5.68-5.32Zm-5.68,16H58.88v5.32H2.13Zm17-47.92,11.35,10.65,5.68-5.32L24.83,157.86l5.68-5.32,17,16L36.18,179.15,47.53,189.8l-17,16-17-16,11.35-10.65L13.48,168.51Zm5.68,26.62,5.68,5.32,5.68-5.32-5.68-5.32Zm28.38-37.27,5.68,5.32-5.68,5.32-5.68-5.32Zm0,21.3,5.68,5.32-5.68,5.32-5.68-5.32Zm0,21.3,5.68,5.32-5.68,5.32-5.68-5.32Z"/><path class="b" d="M47.53,141.88h56.76v5.32H47.53Zm5.68,10.65,5.68,5.32-5.68,5.32-5.68-5.32Zm0,21.3,5.68,5.32-5.68,5.32-5.68-5.32Zm0,21.3,5.68,5.32-5.68,5.32-5.68-5.32Zm-5.68,16h56.76v5.32H47.53Zm28.38-5.32-17-16,11.35-10.65L58.88,168.51l17-16,17,16-5.68,5.32L75.91,163.18l-5.68,5.32,11.35,10.65L70.23,189.8l5.68,5.32,11.35-10.65,5.68,5.32Zm22.7-53.24,5.68,5.32-5.68,5.32-5.68-5.32Zm0,21.3,5.68,5.32-5.68,5.32-5.68-5.32Zm0,21.3,5.68,5.32-5.68,5.32-5.68-5.32Z"/><path class="b" d="M92.94,141.88h56.76v5.32H92.94Zm5.68,10.65,5.68,5.32-5.68,5.32-5.68-5.32Zm0,21.3,5.68,5.32-5.68,5.32-5.68-5.32Zm0,21.3,5.68,5.32-5.68,5.32-5.68-5.32Zm-5.68,16h56.76v5.32H92.94Zm28.38-16L127,189.8l-22.7-21.3,17-16,17,16L127,179.15l11.35,10.65-17,16-17-16,5.68-5.32Zm-5.68-26.62,5.68,5.32,5.68-5.32-5.68-5.32Zm28.38-16,5.68,5.32L144,163.18l-5.68-5.32Zm0,21.3,5.68,5.32L144,184.48l-5.68-5.32Zm0,21.3,5.68,5.32L144,205.77l-5.68-5.32Z"/><path class="b" d="M138.34,141.88H195.1v5.32H138.34ZM144,152.53l5.68,5.32L144,163.18l-5.68-5.32Zm0,21.3,5.68,5.32L144,184.48l-5.68-5.32Zm0,21.3,5.68,5.32L144,205.77l-5.68-5.32Zm-5.68,16H195.1v5.32H138.34Zm28.38-5.32-17-16L161,179.15l-11.35-10.65,17-16,17,16-5.68,5.32-11.35-10.65L161,168.51l11.35,10.65L161,189.8l5.68,5.32,11.35-10.65,5.68,5.32Zm22.7-53.24,5.68,5.32-5.68,5.32-5.68-5.32Zm0,21.3,5.68,5.32-5.68,5.32-5.68-5.32Zm0,21.3,5.68,5.32-5.68,5.32-5.68-5.32Z"/><path class="b" d="M183.75,141.88H240.5v5.32H183.75Zm5.68,10.65,5.68,5.32-5.68,5.32-5.68-5.32Zm0,21.3,5.68,5.32-5.68,5.32-5.68-5.32Zm0,21.3,5.68,5.32-5.68,5.32-5.68-5.32Zm-5.68,16H240.5v5.32H183.75Zm45.4-42.59-5.68,5.32-11.35-10.65-5.68,5.32,22.7,21.3-17,16-17-16,5.68-5.32,11.35,10.65,5.68-5.32-22.7-21.3,17-16Zm5.68-16,5.68,5.32-5.68,5.32-5.68-5.32Zm0,21.3,5.68,5.32-5.68,5.32-5.68-5.32Zm0,21.3,5.68,5.32-5.68,5.32-5.68-5.32Z"/><path class="b" d="M229.15,141.88h56.76v5.32H229.15Zm5.68,10.65,5.68,5.32-5.68,5.32-5.68-5.32Zm34.05,10.65,17,16-17,16-5.68-5.32,11.35-10.65-5.68-5.32-22.7,21.3-17-16,17-16,5.68,5.32L240.5,179.15l5.68,5.32Zm-34.05,31.94,5.68,5.32-5.68,5.32-5.68-5.32Zm-5.68,16h56.76v5.32H229.15Zm28.38-58.57,5.68,5.32-5.68,5.32-5.68-5.32Zm0,42.59,5.68,5.32-5.68,5.32-5.68-5.32Zm22.7-42.59,5.68,5.32-5.68,5.32-5.68-5.32Zm0,42.59,5.68,5.32-5.68,5.32-5.68-5.32Z"/><path class="b" d="M274.55,141.88h56.76v5.32H274.55Zm28.38,10.65,17,16-5.68,5.32-11.35-10.65-5.68,5.32,17,16,11.35-10.65,5.68,5.32-28.38,26.62-17-16,5.68-5.32,11.35,10.65,5.68-5.32-17-16-11.35,10.65-5.68-5.32Zm-22.7,0,5.68,5.32-5.68,5.32-5.68-5.32Zm0,42.59,5.68,5.32-5.68,5.32-5.68-5.32Zm-5.68,16h56.76v5.32H274.55Zm51.08-58.57,5.68,5.32-5.68,5.32L320,157.86Zm0,42.59,5.68,5.32-5.68,5.32L320,200.45Z"/><path class="b" d="M320,141.88h56.76v5.32H320Zm5.68,31.94L337,184.48l5.68-5.32-11.35-10.65,17-16,17,16L354,179.15l5.68,5.32L371,173.83l5.68,5.32-17,16-11.35-10.65L337,195.13l-17-16Zm0-21.3,5.68,5.32-5.68,5.32L320,157.86Zm0,42.59,5.68,5.32-5.68,5.32L320,200.45Zm-5.68,16h56.76v5.32H320Zm22.7-42.59,5.68,5.32,5.68-5.32-5.68-5.32Zm5.68,26.62,5.68,5.32-5.68,5.32-5.68-5.32ZM371,152.53l5.68,5.32L371,163.18l-5.68-5.32Zm0,42.59,5.68,5.32L371,205.77l-5.68-5.32Z"/><path class="a" d="M18.31,67.21V65.77H20q2.1,0,2.38-.67a27.92,27.92,0,0,0,.29-5.72v-7q0-.89-.5-.89-.27,0-1,.75L7.4,67.21Q5.67,67,4.3,67t-3.17.16V65.77h.64a2.34,2.34,0,0,0,1.35-.39,13.33,13.33,0,0,0,1.78-1.67L18.58,49.23l-6.85-8A20.55,20.55,0,0,0,7.56,37.3a7.1,7.1,0,0,0-3.88-1.13H2.45V34.74q2,.16,3.67.16,1.8,0,4-.16v1.6l5.13,6.09q6.11,7.23,7.12,7.85h.32V44.12q0-6.39-.3-7.15t-4.11-.79V34.74l1.39,0q3.93.11,5.05.11.78,0,6.42-.16v1.44l-1.81.07q-2,.07-2.29.86t-.3,7v6.16h.32a74,74,0,0,0,7.12-7.85l5.13-6.09v-1.6q2.28.16,4,.16T47,34.74v1.44H45.8a7.07,7.07,0,0,0-4,1.19,20.81,20.81,0,0,0-4.08,3.85l-6.84,8L44.59,63.71a13.37,13.37,0,0,0,1.81,1.7,2.33,2.33,0,0,0,1.31.35h.64v1.44Q46.58,67,45.16,67t-3.08.16L28.23,52.28q-.71-.75-1-.75-.46,0-.46.89v7A28.86,28.86,0,0,0,27,65.11q.27.66,2.41.66h1.72v1.44Q27.66,67,24.75,67T18.31,67.21Z"/><path class="a" d="M77.22,45.6v1.32H75.6q-2.05,0-2.16,1.22t-.1,8.24l0,5.4q0,2.73.09,3.1a1.14,1.14,0,0,0,.51.68,2.92,2.92,0,0,0,1.61.32h1.62v1.32Q73.57,67,70.9,67q-2.33,0-5.32.16V65.88h1.64q1.51,0,1.87-.57a10.23,10.23,0,0,0,.37-3.74V51.52A13.94,13.94,0,0,1,69.81,48q-.82,1.25-1.62,2.37-1.12,1.57-1.92,2.78l-5.1,7.8a48.52,48.52,0,0,1-4.71,6.43q-.72.09-3.45.59.25-5.08.25-9.76,0-9.46-.22-10.37t-2-.91H49.36V45.6q3,.16,5.31.16,2.46,0,6.31-.16v1.32H59.35a4,4,0,0,0-1.33.23,1.08,1.08,0,0,0-.78.71,26.66,26.66,0,0,0-.13,3.67v9.8A18.5,18.5,0,0,1,57,63.9,49.8,49.8,0,0,0,61.17,58L64.53,53q.94-1.41,4.71-7.39,1.94.16,3.15.16Q73.07,45.76,77.22,45.6Z"/><path class="a" d="M105.19,45.6v1.32h-1.62q-2.05,0-2.16,1.21t-.1,8.25l0,5.38q0,2.76.09,3.12a1.14,1.14,0,0,0,.52.68,3,3,0,0,0,1.62.32h1.62v1.32Q101.55,67,98.89,67q-2.35,0-5.31.16V65.88h1.64q1.62,0,1.93-.72t.31-5.91V51.64l0-3.3,0-1.21A48.27,48.27,0,0,0,92,46.9q-1.37,0-3.68.14,0,10.17-.62,13.5a9.08,9.08,0,0,1-2.57,5.16,5.64,5.64,0,0,1-3.73,1.82,6.3,6.3,0,0,1-1.78-.32l.07-.89q.07-.66.07-.84t-.07-.68q0-.34-.07-1l.52-.25a2.8,2.8,0,0,0,2.28,1.21q2.08,0,3-2.57t.91-11.26a14.1,14.1,0,0,0-.23-3.22q-.23-.76-2-.76H82.49V45.6q3.44.16,5.75.16H98.87Q101.16,45.76,105.19,45.6Z"/><path class="a" d="M107.61,56.25a11.23,11.23,0,0,1,1.46-5.69,10.32,10.32,0,0,1,4.1-4,12.31,12.31,0,0,1,6-1.44A10.61,10.61,0,0,1,126.94,48a10.27,10.27,0,0,1,2.92,7.67,11.34,11.34,0,0,1-3.81,9,11.92,11.92,0,0,1-8.15,3,9.69,9.69,0,0,1-7.43-3.07A11.74,11.74,0,0,1,107.61,56.25Zm4.29-1.61a15.87,15.87,0,0,0,1.93,8.05A6.08,6.08,0,0,0,119.39,66a5.46,5.46,0,0,0,4.46-2.1q1.7-2.1,1.7-6.37a16.13,16.13,0,0,0-1-6,7.9,7.9,0,0,0-2.65-3.68,6.24,6.24,0,0,0-3.67-1.15,6,6,0,0,0-3.25.91,5.49,5.49,0,0,0-2.13,2.44A10.89,10.89,0,0,0,111.9,54.64Z"/><path class="a" d="M159.29,45.6v1.32h-1.62q-2.05,0-2.16,1.22t-.1,8.24l0,5.4q0,2.73.09,3.1a1.14,1.14,0,0,0,.51.68,2.92,2.92,0,0,0,1.61.32h1.62v1.32Q155.64,67,153,67q-2.33,0-5.32.16V65.88h1.64q1.51,0,1.87-.57a10.23,10.23,0,0,0,.37-3.74V51.52a13.94,13.94,0,0,1,.34-3.53q-.82,1.25-1.62,2.37-1.12,1.57-1.92,2.78l-5.1,7.8a48.51,48.51,0,0,1-4.71,6.43q-.72.09-3.45.59.25-5.08.25-9.76,0-9.46-.22-10.37t-2-.91h-1.64V45.6q3,.16,5.31.16,2.46,0,6.31-.16v1.32h-1.62a4,4,0,0,0-1.33.23,1.08,1.08,0,0,0-.78.71,26.66,26.66,0,0,0-.13,3.67v9.8A18.51,18.51,0,0,1,139,63.9,49.82,49.82,0,0,0,143.24,58L146.6,53q.94-1.41,4.71-7.39,1.94.16,3.15.16Q155.14,45.76,159.29,45.6Zm-18.87-4.79-.18-.66A25.89,25.89,0,0,0,143.44,38a21.63,21.63,0,0,0,8.94,2.4l.11.71-1.48.71-2.12,0A44.75,44.75,0,0,1,140.42,40.81Z"/><path class="a" d="M180.31,55.78V58.7q0,5.73.37,6.46t2.3.73h1.37v1.32l-1.23,0q-3.25-.11-4.32-.11l-6.08.16V65.88H174q2,0,2.2-.94a46.75,46.75,0,0,0,.22-6.25V51.92a16.05,16.05,0,0,0-.31-4.3c-.2-.46-.86-.7-2-.7h-1.64V45.6q2.95.16,5.33.16,3.56,0,6.38-.16v1.32h-1.73a3.94,3.94,0,0,0-1.39.24,1,1,0,0,0-.73.74q-.09.5-.09,4.2v2.4l.27.16a69.16,69.16,0,0,0,6.95-6l3.3-3.08h4.58v1.32h-.82a6.69,6.69,0,0,0-3,1.32q-2,1.32-7.3,5.66a119.4,119.4,0,0,1,9.14,9.76q1.84,2.19,3.37,2.22v1.32l-.91,0c-1.09-.08-1.75-.11-2-.11s-1.28.05-2.73.16a76,76,0,0,0-10.66-11.43Z"/><path class="a" d="M198.72,56.25a11.24,11.24,0,0,1,1.46-5.69,10.32,10.32,0,0,1,4.09-4,12.31,12.31,0,0,1,6-1.44A10.61,10.61,0,0,1,218,48,10.27,10.27,0,0,1,221,55.68a11.33,11.33,0,0,1-3.81,9,11.92,11.92,0,0,1-8.15,3,9.69,9.69,0,0,1-7.43-3.07A11.74,11.74,0,0,1,198.72,56.25ZM203,54.64a15.89,15.89,0,0,0,1.93,8.05A6.09,6.09,0,0,0,210.49,66a5.46,5.46,0,0,0,4.46-2.1q1.7-2.1,1.7-6.37a16.13,16.13,0,0,0-1-6A7.88,7.88,0,0,0,213,47.92a6.24,6.24,0,0,0-3.67-1.15,6,6,0,0,0-3.25.91,5.49,5.49,0,0,0-2.13,2.44A10.92,10.92,0,0,0,203,54.64Z"/><path class="a" d="M254.24,45.6v1.28h-1.62c-1.37,0-2.09.4-2.16,1.21s-.1,3.64-.1,8.5l0,4q0,4,.12,4.4a1.08,1.08,0,0,0,.68.63,3.6,3.6,0,0,0,1.43.25h1.62v1.32Q250.6,67,247.9,67q-2.33,0-5.3.16V65.88h1.62q1.55,0,1.92-.64t.37-5.53V49.32l-3.9,8.15q-2.3,4.77-4.28,9.87h-1.5q-.87-2.42-2.1-5.16l-1.44-3.27L229,48.8V59.46l0,3.45a12.47,12.47,0,0,0,.11,2.07,1.19,1.19,0,0,0,.57.61,2.94,2.94,0,0,0,1.51.3h1.62v1.32l-1.28,0q-2.76-.12-3.86-.12-.84,0-4.36.16V65.88H225q1.76,0,2-.85a64,64,0,0,0,.25-8.29,82.86,82.86,0,0,0-.23-9q-.23-.9-2-.9h-1.64V45.6l1.23,0,2.48.11,1.89-.09,1.91-.11.71,0q2,5.16,3.74,9.16l3.38,7.77,3.9-8.38q2.26-4.89,2.8-6.26l.94-2.28q1.53.11,2.72.11Q250,45.71,254.24,45.6Z"/><path class="a" d="M271.24,65.88h1.64q1.8,0,2-.9a41.48,41.48,0,0,0,.23-6.05V52.55c0-.17,0-.56,0-1.19q-.11-1.89-.11-4a39.35,39.35,0,0,0-4-.16h-3.59q-2,0-3.79.16-.09,2.69-.09,5.22v6.38q0,4.74.06,5.49a1.43,1.43,0,0,0,.53,1.11,2.87,2.87,0,0,0,1.64.35h1.64v1.32q-3.65-.16-6.33-.16-2.32,0-5.3.16V65.88h1.64q1.76,0,2-.84a64.21,64.21,0,0,0,.25-8.27,82.12,82.12,0,0,0-.23-8.95q-.23-.9-2-.9h-1.64V45.6q2.85.16,6.48.16H276.8q2.17,0,6.07-.16v1.32h-1.62q-2.08,0-2.17,1.22T279,56.61l0,4.19a40.57,40.57,0,0,0,.12,4.24,1.1,1.1,0,0,0,.69.59,3.58,3.58,0,0,0,1.43.25h1.62v1.32q-3.65-.16-6.32-.16-2.35,0-5.31.16Z"/><path class="a" d="M309.13,45.6v1.32h-1.62q-2.05,0-2.16,1.21t-.1,8.25l0,5.38q0,2.76.09,3.12a1.13,1.13,0,0,0,.52.68,3,3,0,0,0,1.62.32h1.62v1.32q-3.64-.16-6.31-.16-2.35,0-5.31.16V65.88h1.64c1.08,0,1.72-.24,1.93-.72s.31-2.45.31-5.91V51.64l0-3.3,0-1.21A48.27,48.27,0,0,0,296,46.9q-1.37,0-3.68.14,0,10.17-.61,13.5a9.08,9.08,0,0,1-2.57,5.16,5.64,5.64,0,0,1-3.73,1.82,6.31,6.31,0,0,1-1.78-.32l.07-.89q.07-.66.07-.84t-.07-.68c0-.23-.05-.56-.07-1l.52-.25a2.8,2.8,0,0,0,2.28,1.21q2.08,0,3-2.57t.91-11.26a14.09,14.09,0,0,0-.23-3.22q-.23-.76-2-.76h-1.64V45.6q3.44.16,5.75.16h10.63Q305.09,45.76,309.13,45.6Z"/><path class="a" d="M315.57,56.16q.12,4.5,2.3,6.82a7.51,7.51,0,0,0,5.74,2.33,9.92,9.92,0,0,0,3.16-.53,12.76,12.76,0,0,0,3.12-1.57l.39.34-.73,1.92a16.36,16.36,0,0,1-3.9,1.64,15.62,15.62,0,0,1-4.13.55A9.94,9.94,0,0,1,314,64.73a10.94,10.94,0,0,1-2.84-8,13.18,13.18,0,0,1,1.6-6.64,9.71,9.71,0,0,1,3.88-3.42,11.28,11.28,0,0,1,5.5-1.57,8.62,8.62,0,0,1,6.4,2.37,9,9,0,0,1,2.36,6.64l0,1.35A18.73,18.73,0,0,1,328,56q-2.44.18-6.76.18Zm0-1.71q3.53.16,7.8.16,1.71,0,3.31-.16V53.17a9.31,9.31,0,0,0-.8-3.81,4.16,4.16,0,0,0-1.76-1.86,5.6,5.6,0,0,0-2.9-.74,5,5,0,0,0-4.09,1.87Q315.66,50.5,315.61,54.45Z"/><path class="a" d="M340.85,55.78V58.7q0,5.73.37,6.46t2.3.73h1.37v1.32l-1.23,0q-3.25-.11-4.32-.11l-6.08.16V65.88h1.32q2,0,2.2-.94A46.77,46.77,0,0,0,337,58.7V51.92a16.06,16.06,0,0,0-.31-4.3c-.2-.46-.86-.7-2-.7h-1.64V45.6q2.95.16,5.33.16,3.56,0,6.38-.16v1.32h-1.73a3.94,3.94,0,0,0-1.39.24,1,1,0,0,0-.73.74q-.09.5-.09,4.2v2.4l.27.16a69.16,69.16,0,0,0,6.95-6l3.3-3.08H356v1.32h-.82a6.69,6.69,0,0,0-3,1.32q-2,1.32-7.3,5.66A119.42,119.42,0,0,1,354,63.67q1.84,2.19,3.37,2.22v1.32l-.91,0c-1.09-.08-1.75-.11-2-.11s-1.28.05-2.73.16a76,76,0,0,0-10.66-11.43Z"/><path class="a" d="M376.1,64l.62.55L375.78,66a13.91,13.91,0,0,1-3.19,1.27,13.42,13.42,0,0,1-3.35.42,11.72,11.72,0,0,1-5.69-1.28,8.77,8.77,0,0,1-3.62-3.7,12.16,12.16,0,0,1-1.28-5.75,12.38,12.38,0,0,1,1-5.12,8.09,8.09,0,0,1,2.75-3.41A27.34,27.34,0,0,1,366.79,46a10,10,0,0,1,4.17-.84,13.86,13.86,0,0,1,3,.29,12.08,12.08,0,0,1,2.73,1,35.56,35.56,0,0,0-.62,6h-1.44V51.35a3.76,3.76,0,0,0-.42-2.06,4.32,4.32,0,0,0-1.93-1.2,8.89,8.89,0,0,0-3.29-.59,6,6,0,0,0-4.74,1.88q-1.67,1.88-1.67,5.62a11.47,11.47,0,0,0,2.47,7.7,7.12,7.12,0,0,0,5.7,2.62,10.72,10.72,0,0,0,2.69-.34A12.91,12.91,0,0,0,376.1,64Z"/></svg>