<svg width="80%" height="80%" version="1.1" viewBox="0 0 180.00979 235.02621" xmlns="http://www.w3.org/2000/svg">
 <defs>
  <style type="text/css"><![CDATA[
    .fil2 {fill:#fff;fill-rule:nonzero}
    .fil1 {fill:#000;fill-rule:nonzero}
   ]]></style>
 </defs>
 <g transform="translate(491.76 -91.891)">
  <g transform="matrix(.0254 0 0 .0254 -491.76 91.968)" clip-rule="evenodd" fill-rule="evenodd" image-rendering="optimizeQuality" shape-rendering="geometricPrecision">
   <polygon class="fil0" points="0 9250 7087 9250 7087 -3 0 -3" fill="none"/>
   <polygon class="fil1" points="0 9250 7087 9250 7087 -3 0 -3" fill-opacity="0"/>
   <g fill="#fff" fill-rule="nonzero">
    <path class="fil2" d="m882 898h919c283 0 478 74 602 198 108 108 164 248 164 431v5c0 285-151 473-380 571l441 645h-589l-372-560h-271v560h-512v-1849zm898 888c172 0 275-85 275-219v-5c0-148-108-222-277-222h-382v446h385z"/>
    <polygon class="fil2" points="3962 898 4535 898 3833 2047 3833 2747 3320 2747 3320 2054 2615 898 3199 898 3579 1571" fill-opacity=".99608"/>
    <g>
     <path class="fil2" d="m742 7161 288-341c186 145 389 222 605 222 141 0 216-48 216-127v-5c0-79-61-119-317-180-397-90-703-201-703-579v-5c0-343 274-592 722-592 317 0 565 85 767 246l-258 362c-171-122-357-182-522-182-125 0-186 50-186 119v5c0 85 64 122 325 180 426 92 693 230 693 576v5c0 378-301 602-754 602-330 0-642-103-874-306z"/>
     <polygon class="fil2" points="3869 5586 4482 5586 3714 6482 4519 7435 3885 7435 3309 6728 3106 6728 3109 7435 2596 7435 2596 5586 3109 5586 3106 6284 3309 6284"/>
     <polygon class="fil2" points="5724 5586 6297 5586 5594 6735 5594 7435 5082 7435 5082 6743 4376 5586 4960 5586 5341 6260"/>
     <path class="fil2" d="m6013 2017c-2 303-247 554-562 593v-963h541v-169h-541v-194c100-34 172-124 172-231 0-135-115-245-256-245s-256 110-256 245c0 107 72 198 172 231v194h-541v169h541v963c-315-39-560-290-562-593l-169 1c3 423 368 766 815 766s813-344 815-766zm-646-1059c58 0 106 43 106 95s-48 95-106 95c-59 0-106-43-106-95s48-95 106-95z"/>
     <path class="fil2" d="m882 3243h948c232 0 396 58 505 164 74 77 119 174 119 301v5c0 214-122 341-285 412 225 74 367 201 367 452v5c0 317-259 510-700 510h-954zm1067 571c0-103-82-158-232-158h-335v325h322c156 0 246-53 246-161v-5zm-177 526h-391v341h396c158 0 246-61 246-169v-5c0-100-79-166-251-166z"/>
     <path class="fil2" d="m3328 3241h491l782 1851h-546l-131-331h-712l-131 331h-533zm446 1124-205-520-207 520z"/>
     <polygon class="fil2" points="6182 5092 4774 5092 4774 3243 5286 3243 5286 4643 6182 4643"/>
     <path class="fil2" d="m860 8328 40-48c28 23 57 37 92 37 28 0 44-11 44-29v-1c0-17-11-26-62-39-62-16-102-33-102-94v-1c0-56 45-93 108-93 45 0 83 14 114 39l-35 51c-27-19-54-30-80-30s-40 12-40 27v1c0 20 13 27 66 40 62 16 98 39 98 92v1c0 61-47 95-113 95-47 0-94-16-131-49z"/>
     <path class="fil2" d="m1234 8064h126c73 0 118 44 118 106v1c0 71-55 108-125 108h-51v92h-68v-308zm121 155c34 0 54-20 54-47v-1c0-30-21-47-55-47h-52v94h54z"/>
     <path class="fil2" d="m1679 8062h62l132 310h-71l-28-69h-130l-28 69h-69zm71 181-41-100-41 100z"/>
     <path class="fil2" d="m1958 8219v-1c0-88 66-159 161-159 58 0 93 19 121 48l-43 50c-24-22-48-35-79-35-52 0-89 43-89 96v1c0 53 37 97 89 97 35 0 57-14 81-36l43 44c-32 34-67 55-126 55-91 0-158-70-158-158z"/>
     <polygon class="fil2" points="2430 8187 2575 8187 2575 8247 2430 8247 2430 8312 2597 8312 2597 8372 2363 8372 2363 8064 2595 8064 2595 8125 2430 8125"/>
     <polygon class="fil2" points="3e3 8192 3147 8192 3147 8253 3e3 8253 3e3 8372 2932 8372 2932 8064 3167 8064 3167 8126 3e3 8126"/>
     <path class="fil2" d="m3268 8219v-1c0-88 69-159 164-159s163 71 163 158v1c0 88-69 159-164 159s-163-71-163-158zm256 0v-1c0-53-39-97-93-97-55 0-92 43-92 96v1c0 53 39 97 93 97 55 0 92-43 92-96z"/>
     <path class="fil2" d="m3727 8064h141c39 0 70 11 90 31 17 17 26 41 26 70v1c0 50-27 81-66 95l75 110h-79l-66-99h-53v99h-68v-308zm136 150c33 0 52-18 52-44v-1c0-29-20-44-53-44h-67v88h69z"/>
     <polygon class="fil2" points="4540 8372 4319 8372 4319 8064 4387 8064 4387 8311 4540 8311"/>
     <polygon class="fil2" points="4659 8372 4727 8372 4727 8064 4659 8064"/>
     <polygon class="fil2" points="5152 8064 5027 8375 4967 8375 4843 8064 4918 8064 4998 8281 5079 8064"/>
     <polygon class="fil2" points="5269 8372 5336 8372 5336 8064 5269 8064"/>
     <polygon class="fil2" points="5758 8064 5758 8372 5700 8372 5551 8177 5551 8372 5484 8372 5484 8064 5547 8064 5691 8254 5691 8064"/>
     <path class="fil2" d="m5889 8219v-1c0-88 68-159 161-159 55 0 89 15 121 42l-43 51c-24-20-45-31-81-31-49 0-88 44-88 96v1c0 56 39 98 93 98 25 0 47-6 64-18v-44h-68v-59h134v134c-32 27-75 49-132 49-96 0-162-67-162-158z"/>
    </g>
   </g>
  </g>
 </g>
</svg>
