<svg viewBox="0 0 380 248" xmlns="http://www.w3.org/2000/svg"><path d="m162.36 147.73h-19.63a1.29 1.29 0 0 1 0-2.58h19.63a1.29 1.29 0 0 1 0 2.58z" fill="#fff"/><path d="m73.81 112.39-16.46-16.89a1.44 1.44 0 0 1 -.23-1.71l16.17-28.79a1.44 1.44 0 0 1 2.5 0l17.11 28.77a1.44 1.44 0 0 1 -.22 1.75l-16.81 16.88a1.44 1.44 0 0 1 -2.06-.01z" fill="#fff"/><path d="m305.19 112.39-16.47-16.89a1.44 1.44 0 0 1 -.23-1.71l16.17-28.79a1.44 1.44 0 0 1 2.5 0l17.11 28.83a1.44 1.44 0 0 1 -.22 1.75l-16.81 16.82a1.44 1.44 0 0 1 -2.05-.01z" fill="#fff"/><path d="m142 147.73a1.29 1.29 0 0 1 -1.29-1.29v-45.62l-22.3-22.2-22.3 22.2v45.62a1.29 1.29 0 0 1 -1.29 1.29h-47.42a1.29 1.29 0 0 1 0-2.58h46.17v-44.86a1.29 1.29 0 0 1 .38-.92l23.59-23.48a1.29 1.29 0 0 1 1.82 0l23.64 23.48a1.29 1.29 0 0 1 .38.92v46.15a1.29 1.29 0 0 1 -1.38 1.29z" fill="#fff"/><path d="m74.53 114.93a1.29 1.29 0 0 1 -.92-.39l-18.24-18.71a1.29 1.29 0 0 1 -.2-1.53l17.91-31.95a1.29 1.29 0 0 1 2.24 0l19 31.94a1.29 1.29 0 0 1 -.2 1.57l-18.67 18.69a1.29 1.29 0 0 1 -.92.38zm-16.64-20.21 16.65 17.08 17-17.07-17.3-29.16z" fill="#fff"/><path d="m74.47 147.48a1.29 1.29 0 0 1 -1.29-1.29v-68.73a1.29 1.29 0 1 1 2.58 0v68.73a1.29 1.29 0 0 1 -1.29 1.29z" fill="#fff"/><path d="m74.47 102.09a1.29 1.29 0 0 1 -1-2.12l7.37-8.87a1.29 1.29 0 0 1 2 1.65l-7.37 8.87a1.29 1.29 0 0 1 -1 .47z" fill="#fff"/><path d="m74.4 96.74a1.29 1.29 0 0 1 -1-.45l-6.69-7.89a1.29 1.29 0 1 1 2-1.67l6.71 7.89a1.29 1.29 0 0 1 -1 2.13z" fill="#fff"/><path d="m74.4 87.81a1.29 1.29 0 0 1 -.91-2.2l4.17-4.17a1.29 1.29 0 1 1 1.83 1.83l-4.17 4.17a1.29 1.29 0 0 1 -.92.37z" fill="#fff"/><path d="m161.57 94.92 27.32-32.69-26.92-57.99-29.15 57.99z" fill="#fff"/><path d="m161.57 96.21a1.29 1.29 0 0 1 -1-.44l-28.72-32.69a1.29 1.29 0 0 1 -.18-1.43l29.15-58a1.29 1.29 0 0 1 2.32 0l26.92 58a1.29 1.29 0 0 1 -.18 1.37l-27.32 32.73a1.29 1.29 0 0 1 -1 .46zm-27.2-34.21 27.17 30.91 25.84-30.91-25.45-54.8z" fill="#fff"/><path d="m161.67 147.17a1.29 1.29 0 0 1 -1.29-1.29v-107.13a1.29 1.29 0 1 1 2.58 0v107.13a1.29 1.29 0 0 1 -1.29 1.29z" fill="#fff"/><path d="m161.67 76.28a1.29 1.29 0 0 1 -1-.47l-11.43-13.81a1.29 1.29 0 1 1 2-1.65l11.44 13.76a1.29 1.29 0 0 1 -1 2.12z" fill="#fff"/><path d="m161.77 68a1.29 1.29 0 0 1 -1-2.13l10.44-12.27a1.29 1.29 0 0 1 2 1.67l-10.46 12.25a1.29 1.29 0 0 1 -.98.48z" fill="#fff"/><path d="m161.77 54.11a1.29 1.29 0 0 1 -.91-.38l-6.48-6.48a1.29 1.29 0 1 1 1.83-1.83l6.48 6.48a1.29 1.29 0 0 1 -.91 2.2z" fill="#fff"/><path d="m218.65 94.92 25-32.08-26.41-36.13-24.6 36.43z" fill="#fff"/><g fill="#fff"><path d="m218.65 96.21a1.29 1.29 0 0 1 -1-.47l-26.01-31.74a1.29 1.29 0 0 1 -.07-1.54l24.59-36.46a1.29 1.29 0 0 1 1-.57 1.27 1.27 0 0 1 1.07.53l26.42 36.13a1.29 1.29 0 0 1 0 1.56l-25 32.08a1.29 1.29 0 0 1 -1 .5zm-24.4-33.15 24.38 29.79 23.41-30-24.76-33.85z"/><path d="m218.65 63a1.29 1.29 0 0 1 -.93-.4l-7-7.29a1.29 1.29 0 0 1 1.86-1.79l7 7.29a1.29 1.29 0 0 1 -.93 2.18z"/><path d="m218.85 68a1.29 1.29 0 0 1 -1.08-2l9.31-14.17a1.29 1.29 0 1 1 2.16 1.42l-9.31 14.17a1.29 1.29 0 0 1 -1.08.58z"/><path d="m218.85 53.35a1.29 1.29 0 0 1 -1-.44l-3.85-4.4a1.29 1.29 0 0 1 1.95-1.7l3.85 4.4a1.29 1.29 0 0 1 -1 2.14z"/><path d="m305.79 114.44a1.29 1.29 0 0 1 -.91-.37l-18.63-18.54a1.29 1.29 0 0 1 -.2-1.57l19-31.64a1.29 1.29 0 0 1 1.1-.62 1.28 1.28 0 0 1 1.1.65l17.9 31.65a1.28 1.28 0 0 1 -.2 1.53l-18.25 18.52a1.28 1.28 0 0 1 -.91.38zm-17-20 17 16.91 16.66-16.92-16.37-28.9z"/><path d="m305.85 147a1.28 1.28 0 0 1 -1.29-1.29v-68.4a1.29 1.29 0 0 1 2.57 0v68.42a1.29 1.29 0 0 1 -1.28 1.27z"/><path d="m305.85 101.71a1.28 1.28 0 0 1 -1-.46l-7.37-8.78a1.28 1.28 0 0 1 2-1.65l7.37 8.78a1.29 1.29 0 0 1 -1 2.11z"/><path d="m305.92 96.42a1.29 1.29 0 0 1 -1-2.12l6.71-7.81a1.28 1.28 0 1 1 1.95 1.67l-6.69 7.84a1.28 1.28 0 0 1 -.97.42z"/><path d="m305.07 86.74a1.28 1.28 0 0 1 -.9-.37l-3.33-3.3a1.29 1.29 0 0 1 1.81-1.83l3.33 3.3a1.28 1.28 0 0 1 -.9 2.2z"/><path d="m218.75 147.78a1.29 1.29 0 0 1 -1.29-1.29v-97.42a1.29 1.29 0 1 1 2.58 0v96.13h16.95v-44.91a1.29 1.29 0 0 1 .38-.92l23.63-23.48a1.29 1.29 0 0 1 1.82 0l23.59 23.48a1.29 1.29 0 0 1 .38.92v44.86h46.17a1.29 1.29 0 0 1 0 2.58h-47.5a1.29 1.29 0 0 1 -1.29-1.29v-45.62l-22.3-22.2-22.3 22.2v45.62a1.29 1.29 0 0 1 -1.29 1.29z"/><path d="m218.68 80.49a1.28 1.28 0 0 1 -.87-.34l-16-14.74a1.29 1.29 0 0 1 1.75-1.9l16 14.74a1.29 1.29 0 0 1 -.87 2.24z"/><path d="m209.34 60.08a1.29 1.29 0 0 1 -.29-2.55l5.16-1.21a1.29 1.29 0 0 1 .59 2.51l-5.16 1.17a1.3 1.3 0 0 1 -.3.08z"/><path d="m177.36 63.32a1.3 1.3 0 0 1 -.28 0l-9.61-2.13a1.29 1.29 0 0 1 .56-2.52l9.61 2.13a1.29 1.29 0 0 1 -.28 2.55z"/><path d="m205.19 72.94a1.29 1.29 0 0 1 -.11-2.58l4.76-.4a1.29 1.29 0 1 1 .22 2.57l-4.76.4z"/><path d="m218.75 83.66a1.29 1.29 0 0 1 -1.06-2l11-15.89a1.29 1.29 0 1 1 2.12 1.47l-11 15.89a1.29 1.29 0 0 1 -1.06.53z"/><path d="m225.93 73.24a1.29 1.29 0 0 1 -1.29-1.24l-.09-4.45a1.29 1.29 0 0 1 1.27-1.32 1.29 1.29 0 0 1 1.29 1.27l.09 4.45a1.29 1.29 0 0 1 -1.2 1.29z"/><path d="m141.83 66.05a1.29 1.29 0 0 1 -.1-2.58l10.53-.81a1.29 1.29 0 0 1 .2 2.57l-10.53.77z"/><path d="m162.07 46a1.29 1.29 0 0 1 -.9-2.21l5.77-5.67a1.29 1.29 0 1 1 1.81 1.88l-5.75 5.64a1.29 1.29 0 0 1 -.93.36z"/><path d="m116.2 115.14h-7a1.29 1.29 0 0 1 -1.29-1.29v-7a1.29 1.29 0 0 1 1.29-1.29h7a1.29 1.29 0 0 1 1.29 1.29v7a1.29 1.29 0 0 1 -1.29 1.29zm-5.69-2.58h4.4v-4.4h-4.4z"/><path d="m127.13 115.14h-7a1.29 1.29 0 0 1 -1.29-1.29v-7a1.29 1.29 0 0 1 1.29-1.29h7a1.29 1.29 0 0 1 1.29 1.29v7a1.29 1.29 0 0 1 -1.29 1.29zm-5.69-2.58h4.4v-4.4h-4.4z"/><path d="m116.2 126.07h-7a1.29 1.29 0 0 1 -1.29-1.29v-7a1.29 1.29 0 0 1 1.29-1.29h7a1.29 1.29 0 0 1 1.29 1.29v7a1.29 1.29 0 0 1 -1.29 1.29zm-5.69-2.58h4.4v-4.4h-4.4z"/><path d="m127.13 126.07h-7a1.29 1.29 0 0 1 -1.29-1.29v-7a1.29 1.29 0 0 1 1.29-1.29h7a1.29 1.29 0 0 1 1.29 1.29v7a1.29 1.29 0 0 1 -1.29 1.29zm-5.69-2.58h4.4v-4.4h-4.4z"/><path d="m259.44 115.14h-7a1.29 1.29 0 0 1 -1.29-1.29v-7a1.29 1.29 0 0 1 1.29-1.29h7a1.29 1.29 0 0 1 1.29 1.29v7a1.29 1.29 0 0 1 -1.29 1.29zm-5.69-2.58h4.4v-4.4h-4.4z"/><path d="m270.37 115.14h-7a1.29 1.29 0 0 1 -1.29-1.29v-7a1.29 1.29 0 0 1 1.29-1.29h7a1.29 1.29 0 0 1 1.29 1.29v7a1.29 1.29 0 0 1 -1.29 1.29zm-5.69-2.58h4.4v-4.4h-4.4z"/><path d="m259.44 126.07h-7a1.29 1.29 0 0 1 -1.29-1.29v-7a1.29 1.29 0 0 1 1.29-1.29h7a1.29 1.29 0 0 1 1.29 1.29v7a1.29 1.29 0 0 1 -1.29 1.29zm-5.69-2.58h4.4v-4.4h-4.4z"/><path d="m270.37 126.07h-7a1.29 1.29 0 0 1 -1.29-1.29v-7a1.29 1.29 0 0 1 1.29-1.29h7a1.29 1.29 0 0 1 1.29 1.29v7a1.29 1.29 0 0 1 -1.29 1.29zm-5.69-2.58h4.4v-4.4h-4.4z"/><path d="m187.13 103.86h-9a1.29 1.29 0 0 1 -1.29-1.29v-9a1.29 1.29 0 0 1 1.29-1.29h9a1.29 1.29 0 0 1 1.29 1.29v9a1.29 1.29 0 0 1 -1.29 1.29zm-7.74-2.58h6.45v-6.45h-6.45z"/><path d="m201.26 103.86h-9a1.29 1.29 0 0 1 -1.29-1.29v-9a1.29 1.29 0 0 1 1.29-1.29h9a1.29 1.29 0 0 1 1.29 1.29v9a1.29 1.29 0 0 1 -1.29 1.29zm-7.74-2.58h6.48v-6.45h-6.45z"/><path d="m187.13 118h-9a1.29 1.29 0 0 1 -1.29-1.29v-9a1.29 1.29 0 0 1 1.29-1.29h9a1.29 1.29 0 0 1 1.29 1.29v9a1.29 1.29 0 0 1 -1.29 1.29zm-7.74-2.58h6.45v-6.42h-6.45z"/><path d="m201.26 118h-9a1.29 1.29 0 0 1 -1.29-1.29v-9a1.29 1.29 0 0 1 1.29-1.29h9a1.29 1.29 0 0 1 1.29 1.29v9a1.29 1.29 0 0 1 -1.29 1.29zm-7.74-2.58h6.48v-6.42h-6.45z"/><path d="m162.44 228.66a4.13 4.13 0 0 0 2.4-.61 2 2 0 0 0 .86-1.73.8.8 0 0 0 -.11-.42.36.36 0 0 0 -.33-.19h-1.16a3.82 3.82 0 0 1 -.09.9 1.38 1.38 0 0 1 -.29.59 1.12 1.12 0 0 1 -.51.33 3 3 0 0 1 -1.55 0 1.12 1.12 0 0 1 -.51-.33 1.38 1.38 0 0 1 -.29-.59 3.82 3.82 0 0 1 -.09-.9h-1.17a.36.36 0 0 0 -.33.19.8.8 0 0 0 -.11.42 2 2 0 0 0 .86 1.73 4.13 4.13 0 0 0 2.42.61z"/><path d="m95.49 237.91a3.08 3.08 0 0 0 -1-.52 2.26 2.26 0 0 0 .81-.46 4.11 4.11 0 0 0 .65-.77l4.69-6.43h-1.64a1.2 1.2 0 0 0 -.63.17 1.33 1.33 0 0 0 -.47.48l-4 5.58a1.88 1.88 0 0 1 -.74.66 2.24 2.24 0 0 1 -.89.16h-1.67v-7.05h-2.05v7.05h-1.55a2.32 2.32 0 0 1 -.9-.16 1.79 1.79 0 0 1 -.74-.66l-4-5.58a1.35 1.35 0 0 0 -.47-.48 1.2 1.2 0 0 0 -.63-.17h-1.77l4.68 6.43a4.11 4.11 0 0 0 .65.77 2.25 2.25 0 0 0 .82.46 2.79 2.79 0 0 0 -1 .52 3.73 3.73 0 0 0 -.78.93l-4.78 7h1.46a1.57 1.57 0 0 0 .82-.21 1.52 1.52 0 0 0 .55-.57l4.07-5.7a1.93 1.93 0 0 1 .69-.68 2.09 2.09 0 0 1 1-.21h1.85v7.36h2.08v-7.36h1.86a2.06 2.06 0 0 1 1 .21 1.93 1.93 0 0 1 .69.68l4.08 5.7a1.59 1.59 0 0 0 .56.57 1.57 1.57 0 0 0 .82.21h1.39l-4.77-7a3.58 3.58 0 0 0 -.74-.93z"/><path d="m114.13 229.93a2 2 0 0 0 -.4.47l-7.54 11.15a8.86 8.86 0 0 0 -.43.77 9.47 9.47 0 0 0 -.41 1q.08-.6.1-1.12t0-1v-11.48h-2.18v16.08h1.62a.85.85 0 0 0 .57-.21 2 2 0 0 0 .4-.47l7.57-11.12a6 6 0 0 0 .44-.76q.21-.44.4-.94-.08.58-.1 1.11t0 1v11.39h2.18v-16.08h-1.62a.85.85 0 0 0 -.6.21z"/><path d="m123 235.26q-.21 2.32-.51 3.92a16 16 0 0 1 -.65 2.58 5.8 5.8 0 0 1 -.76 1.5 2.07 2.07 0 0 1 -.84.7 2.38 2.38 0 0 1 -.89.17h-.79v1.38c0 .14.11.25.33.32a3.14 3.14 0 0 0 .93.11 4.4 4.4 0 0 0 1.38-.21 3 3 0 0 0 1.22-.8 5.87 5.87 0 0 0 1-1.6 13.5 13.5 0 0 0 .85-2.63 35.49 35.49 0 0 0 .64-3.9q.26-2.28.42-5.38h5.32v14.38h2.18v-16.08h-9.55q-.11 3.22-.28 5.54z"/><path d="m149.62 231.84a7.25 7.25 0 0 0 -2.51-1.7 8.93 8.93 0 0 0 -6.47 0 7.26 7.26 0 0 0 -2.5 1.7 7.65 7.65 0 0 0 -1.62 2.6 9.89 9.89 0 0 0 0 6.63 7.6 7.6 0 0 0 1.62 2.6 7.24 7.24 0 0 0 2.5 1.69 9 9 0 0 0 6.47 0 7.23 7.23 0 0 0 2.51-1.69 7.6 7.6 0 0 0 1.62-2.6 9.89 9.89 0 0 0 0-6.63 7.65 7.65 0 0 0 -1.62-2.6zm-.45 8.58a5.63 5.63 0 0 1 -1.15 2 4.91 4.91 0 0 1 -1.8 1.25 6.61 6.61 0 0 1 -4.7 0 5 5 0 0 1 -1.8-1.25 5.58 5.58 0 0 1 -1.15-2 8.95 8.95 0 0 1 0-5.32 5.58 5.58 0 0 1 1.15-2 5 5 0 0 1 1.8-1.25 6.54 6.54 0 0 1 4.7 0 5 5 0 0 1 1.8 1.25 5.63 5.63 0 0 1 1.15 2 8.95 8.95 0 0 1 0 5.32z"/><path d="m166.76 229.93a2 2 0 0 0 -.4.47l-7.54 11.15a8.85 8.85 0 0 0 -.43.77 9.46 9.46 0 0 0 -.41 1c.05-.4.09-.77.1-1.12s0-.68 0-1v-11.48h-2.18v16.08h1.62a.85.85 0 0 0 .57-.21 2 2 0 0 0 .4-.47l7.57-11.12a5.94 5.94 0 0 0 .44-.76q.21-.44.4-.94c-.05.39-.09.76-.1 1.11s0 .68 0 1v11.39h2.2v-16.08h-1.62a.85.85 0 0 0 -.62.21z"/><path d="m186 237.9a2.56 2.56 0 0 0 -1-.5 2.81 2.81 0 0 0 1.42-1.07l4.86-6.61h-1.88a.94.94 0 0 0 -.57.17 1.55 1.55 0 0 0 -.41.44l-4.21 5.67a1.9 1.9 0 0 1 -.7.62 2.11 2.11 0 0 1 -.86.16h-1.65v-7.05h-2.17v16.07h2.17v-7.36h1.93a2 2 0 0 1 .92.17 1.76 1.76 0 0 1 .63.61l4.25 5.89a1.77 1.77 0 0 0 .43.51.9.9 0 0 0 .56.17h2l-4.92-7a3.82 3.82 0 0 0 -.8-.89z"/><path d="m205.79 231.84a7.24 7.24 0 0 0 -2.51-1.7 8.93 8.93 0 0 0 -6.47 0 7.25 7.25 0 0 0 -2.5 1.7 7.65 7.65 0 0 0 -1.62 2.6 9.89 9.89 0 0 0 0 6.63 7.6 7.6 0 0 0 1.62 2.6 7.23 7.23 0 0 0 2.5 1.69 9 9 0 0 0 6.47 0 7.22 7.22 0 0 0 2.51-1.69 7.6 7.6 0 0 0 1.62-2.6 9.89 9.89 0 0 0 0-6.63 7.65 7.65 0 0 0 -1.62-2.6zm-.45 8.58a5.63 5.63 0 0 1 -1.14 2 4.91 4.91 0 0 1 -1.8 1.25 6.61 6.61 0 0 1 -4.7 0 5 5 0 0 1 -1.8-1.25 5.57 5.57 0 0 1 -1.15-2 8.94 8.94 0 0 1 0-5.32 5.57 5.57 0 0 1 1.15-2 5 5 0 0 1 1.8-1.25 6.54 6.54 0 0 1 4.7 0 5 5 0 0 1 1.8 1.25 5.63 5.63 0 0 1 1.14 2 8.94 8.94 0 0 1 0 5.32z"/><path d="m225.77 229.77a.6.6 0 0 0 -.3.31l-5.47 9.92a6 6 0 0 0 -.27.57q-.12.3-.24.6-.11-.3-.24-.6t-.25-.57l-5.56-9.9a.65.65 0 0 0 -.3-.31 1.4 1.4 0 0 0 -.45-.06h-1.6v16.07h1.91v-11.8a9.79 9.79 0 0 0 -.07-1.1l5.64 10.1a.84.84 0 0 0 .79.51h.31a.84.84 0 0 0 .79-.51l5.54-10.07q0 .28 0 .55v.51 11.81h1.91v-16.08h-1.61a1.45 1.45 0 0 0 -.53.05z"/><path d="m249.86 235.26q-.21 2.32-.51 3.92a16 16 0 0 1 -.65 2.58 5.81 5.81 0 0 1 -.76 1.5 2.07 2.07 0 0 1 -.84.7 2.38 2.38 0 0 1 -.89.17h-.79v1.38c0 .14.11.25.32.32a3.14 3.14 0 0 0 .93.11 4.4 4.4 0 0 0 1.38-.21 3 3 0 0 0 1.22-.8 5.87 5.87 0 0 0 1-1.6 13.5 13.5 0 0 0 .85-2.63 35.79 35.79 0 0 0 .64-3.9q.26-2.28.42-5.38h5.32v14.38h2.18v-16.08h-9.55q-.06 3.22-.27 5.54z"/><path d="m266.02 238.54h6.27v-1.71h-6.27v-5.34h7.74v-1.77h-9.91v16.09h9.91l.01-1.78h-7.75z"/><path d="m284 237.9a2.57 2.57 0 0 0 -1-.5 2.8 2.8 0 0 0 1.41-1.07l4.86-6.61h-1.87a.94.94 0 0 0 -.57.17 1.56 1.56 0 0 0 -.41.44l-4.21 5.67a1.9 1.9 0 0 1 -.7.62 2.11 2.11 0 0 1 -.86.16h-1.65v-7.05h-2.17v16.07h2.17v-7.36h1.93a2 2 0 0 1 .92.17 1.76 1.76 0 0 1 .63.61l4.25 5.89a1.77 1.77 0 0 0 .43.51.89.89 0 0 0 .56.17h2l-4.92-7a3.81 3.81 0 0 0 -.8-.89z"/><path d="m302.41 242.48a.58.58 0 0 0 -.38.17 6.36 6.36 0 0 1 -.84.66 4.5 4.5 0 0 1 -.91.45 5.26 5.26 0 0 1 -1.07.26 9 9 0 0 1 -1.3.08 5.61 5.61 0 0 1 -2.2-.43 5 5 0 0 1 -1.76-1.24 5.92 5.92 0 0 1 -1.18-2 7.76 7.76 0 0 1 -.43-2.68 8 8 0 0 1 .42-2.66 5.78 5.78 0 0 1 1.16-2 5 5 0 0 1 1.78-1.25 5.85 5.85 0 0 1 2.28-.43 5.68 5.68 0 0 1 2.92.71 7.5 7.5 0 0 1 .76.49.89.89 0 0 0 .49.22.5.5 0 0 0 .29-.07.59.59 0 0 0 .17-.19l.72-1a7.64 7.64 0 0 0 -2.31-1.49 7.8 7.8 0 0 0 -3-.55 8.27 8.27 0 0 0 -3.2.6 7.21 7.21 0 0 0 -2.49 1.69 7.63 7.63 0 0 0 -1.61 2.6 9.36 9.36 0 0 0 -.57 3.33 9.71 9.71 0 0 0 .55 3.33 7.59 7.59 0 0 0 1.55 2.6 6.91 6.91 0 0 0 2.41 1.68 8 8 0 0 0 3.14.6 8.21 8.21 0 0 0 3.41-.64 6.89 6.89 0 0 0 2.4-1.79l-.86-.93a.42.42 0 0 0 -.34-.12z"/><path d="m230.68 245.8v-16.08h13v16.08h-2.13v-14.42h-8.77v14.42z"/><path d="m17.71 166a30.06 30.06 0 0 1 7.67.85 14.61 14.61 0 0 1 5.23 2.43 9.44 9.44 0 0 1 3 3.82 12.87 12.87 0 0 1 .95 5.05 10 10 0 0 1 -.47 3.08 8.92 8.92 0 0 1 -1.47 2.75 11 11 0 0 1 -2.53 2.32 15.28 15.28 0 0 1 -3.67 1.7q9.41 2.12 9.41 10.17a13 13 0 0 1 -1.11 5.37 11.85 11.85 0 0 1 -3.22 4.25 15.39 15.39 0 0 1 -5.21 2.79 22.75 22.75 0 0 1 -7.07 1h-17.22v-45.58zm-7.23 6.57v13.2h6.76q4.36 0 6.58-1.58a5.73 5.73 0 0 0 2.23-5q0-3.57-2-5.08t-6.32-1.52zm8.58 32.43a12.06 12.06 0 0 0 4-.57 6.87 6.87 0 0 0 2.57-1.52 5.56 5.56 0 0 0 1.37-2.21 8.34 8.34 0 0 0 .43-2.68 7.13 7.13 0 0 0 -.47-2.67 5 5 0 0 0 -1.48-2 7 7 0 0 0 -2.61-1.35 14.53 14.53 0 0 0 -3.87-.4h-8.53v13.4z"/><path d="m79 166-18.41 39.28a16.13 16.13 0 0 1 -2.08 3.38 9.3 9.3 0 0 1 -2.38 2.08 8.81 8.81 0 0 1 -2.75 1.06 15.69 15.69 0 0 1 -3.14.3 9.76 9.76 0 0 1 -3.32-.41q-1-.41-1-1.2v-5.31h2.46a8.23 8.23 0 0 0 1.42-.13 4.77 4.77 0 0 0 1.44-.51 5.5 5.5 0 0 0 1.37-1.07 7.48 7.48 0 0 0 1.23-1.83l1.76-3.64-18.32-32h8a2.73 2.73 0 0 1 1.77.54 4.43 4.43 0 0 1 1.11 1.36l8.84 16.69q.73 1.39 1.31 2.75a28.46 28.46 0 0 1 1 2.78 35.05 35.05 0 0 1 2.12-5.53l7.74-16.74a4.22 4.22 0 0 1 1-1.29 2.61 2.61 0 0 1 1.83-.56z"/><path d="m123.46 205.09v15a2.26 2.26 0 0 1 -.74 1.77 2.8 2.8 0 0 1 -1.94.66h-5.12v-10.9h-33.53v8.43a2.26 2.26 0 0 1 -.74 1.77 2.8 2.8 0 0 1 -1.94.66h-5.13v-17.4h5a6.14 6.14 0 0 0 1.75-1.52 12.26 12.26 0 0 0 1.69-2.94 32.66 32.66 0 0 0 1.56-4.8 68.58 68.58 0 0 0 1.34-7.09q.6-4.18 1-9.81t.65-13h29v39.13zm-15.63 0v-32.59h-12.47q-.38 6.73-1 11.94t-1.5 9.16a50.17 50.17 0 0 1 -1.89 6.76 26.3 26.3 0 0 1 -2.24 4.74z"/><path d="m160.09 200.86a1.69 1.69 0 0 1 1.23.54l3.35 3.63a18.38 18.38 0 0 1 -6.84 5.27 23.56 23.56 0 0 1 -9.74 1.83 23 23 0 0 1 -9.14-1.74 20.13 20.13 0 0 1 -6.93-4.83 21.13 21.13 0 0 1 -4.41-7.39 27.71 27.71 0 0 1 -1.53-9.38 26.11 26.11 0 0 1 1.64-9.43 21.65 21.65 0 0 1 4.63-7.37 20.94 20.94 0 0 1 7.12-4.82 23.63 23.63 0 0 1 9.16-1.72 22.5 22.5 0 0 1 8.86 1.64 21.12 21.12 0 0 1 6.58 4.29l-2.84 3.95a2.58 2.58 0 0 1 -.65.66 1.84 1.84 0 0 1 -1.09.28 2.08 2.08 0 0 1 -1-.27q-.51-.27-1.11-.66t-1.39-.87a11.5 11.5 0 0 0 -1.83-.87 15 15 0 0 0 -2.42-.66 16.72 16.72 0 0 0 -3.17-.27 14.09 14.09 0 0 0 -5.61 1.09 12.18 12.18 0 0 0 -4.37 3.16 14.55 14.55 0 0 0 -2.84 5.05 21.17 21.17 0 0 0 -1 6.81 20 20 0 0 0 1.09 6.85 15.06 15.06 0 0 0 3 5.05 12.59 12.59 0 0 0 4.39 3.14 13.56 13.56 0 0 0 5.43 1.09 23.67 23.67 0 0 0 3.14-.19 13.33 13.33 0 0 0 2.59-.6 11.46 11.46 0 0 0 2.24-1.06 14 14 0 0 0 2.1-1.59 3 3 0 0 1 .66-.46 1.62 1.62 0 0 1 .7-.15z"/><path d="m202.41 172.94h-13.77v38.68h-8.49v-38.68h-13.77v-7h36z"/><path d="m250.44 188.79a25.52 25.52 0 0 1 -1.66 9.3 21.82 21.82 0 0 1 -4.69 7.41 21.31 21.31 0 0 1 -7.29 4.88 26.4 26.4 0 0 1 -18.92 0 21.48 21.48 0 0 1 -7.31-4.88 21.89 21.89 0 0 1 -4.72-7.41 26.68 26.68 0 0 1 0-18.6 21.9 21.9 0 0 1 4.72-7.4 21.47 21.47 0 0 1 7.31-4.88 24.61 24.61 0 0 1 9.44-1.75 25.64 25.64 0 0 1 6.54.81 23 23 0 0 1 5.62 2.27 20.79 20.79 0 0 1 4.59 3.57 21.69 21.69 0 0 1 3.46 4.69 23 23 0 0 1 2.16 5.62 26.77 26.77 0 0 1 .75 6.37zm-8.68 0a21 21 0 0 0 -1-6.74 14.47 14.47 0 0 0 -2.87-5.07 12.31 12.31 0 0 0 -4.53-3.19 16.92 16.92 0 0 0 -12 0 12.44 12.44 0 0 0 -4.55 3.19 14.3 14.3 0 0 0 -2.89 5.07 23 23 0 0 0 0 13.48 14.13 14.13 0 0 0 2.89 5.05 12.53 12.53 0 0 0 4.55 3.17 16.92 16.92 0 0 0 12 0 12.39 12.39 0 0 0 4.53-3.17 14.3 14.3 0 0 0 2.87-5.05 21 21 0 0 0 .99-6.74z"/><path d="m272.76 166a26.06 26.06 0 0 1 7.93 1.07 15.27 15.27 0 0 1 5.53 3 11.9 11.9 0 0 1 3.24 4.61 15.88 15.88 0 0 1 1.06 5.87 16.23 16.23 0 0 1 -1.11 6.08 12.62 12.62 0 0 1 -3.32 4.75 15.42 15.42 0 0 1 -5.54 3.09 24.75 24.75 0 0 1 -7.78 1.11h-6.35v16.07h-8.49v-45.65zm0 23a12.79 12.79 0 0 0 4.07-.58 7.73 7.73 0 0 0 2.89-1.67 6.78 6.78 0 0 0 1.72-2.65 10.16 10.16 0 0 0 .57-3.49 9.21 9.21 0 0 0 -.57-3.32 6.56 6.56 0 0 0 -1.71-2.53 7.58 7.58 0 0 0 -2.87-1.59 13.6 13.6 0 0 0 -4.11-.55h-6.35v16.39z"/><path d="m335.51 166v45.66h-8.51v-28.66q0-1.61.08-3.38t.36-3.76a30.57 30.57 0 0 1 -1.37 3.27q-.74 1.5-1.44 2.64l-17.48 27.23a7.65 7.65 0 0 1 -.68.95 5.45 5.45 0 0 1 -.87.84 4.65 4.65 0 0 1 -1 .6 3 3 0 0 1 -1.17.24h-6.43v-45.63h8.53v28.61q0 1.61-.08 3.39t-.36 3.77a31.72 31.72 0 0 1 1.37-3.28 26.8 26.8 0 0 1 1.47-2.65l17.43-27.22a7.47 7.47 0 0 1 .68-.95 5.43 5.43 0 0 1 .87-.84 4.78 4.78 0 0 1 1-.6 3 3 0 0 1 1.18-.24z"/><path d="m378.39 211.62h-8.49v-18.88h-4.67a7.5 7.5 0 0 0 -1.47.14 4.63 4.63 0 0 0 -1.36.51 6.2 6.2 0 0 0 -1.28 1 8.18 8.18 0 0 0 -1.23 1.59l-8.05 12.73a6.12 6.12 0 0 1 -2.12 2.13 6 6 0 0 1 -3.16.81h-6.41l10.48-16a10.81 10.81 0 0 1 4.83-4.33 16.59 16.59 0 0 1 -4.41-1.8 11.7 11.7 0 0 1 -3.11-2.67 10.47 10.47 0 0 1 -1.83-3.41 13.17 13.17 0 0 1 -.6-4 12.88 12.88 0 0 1 1.12-5.4 11.78 11.78 0 0 1 3.25-4.23 15.5 15.5 0 0 1 5.24-2.76 23.23 23.23 0 0 1 7.09-1h16.17zm-8.49-25.51v-13.55h-7.67a12.91 12.91 0 0 0 -4 .52 6.64 6.64 0 0 0 -2.56 1.44 5.35 5.35 0 0 0 -1.39 2.13 7.92 7.92 0 0 0 -.43 2.64 9 9 0 0 0 .41 2.81 4.87 4.87 0 0 0 1.39 2.15 6.71 6.71 0 0 0 2.57 1.37 13.68 13.68 0 0 0 4 .49z"/></g></svg>