<svg width="14" height="12" viewBox="0 0 14 12" fill="none" xmlns="http://www.w3.org/2000/svg">
<path d="M13.5591 2.11305C12.9291 0.862124 11.6772 0 10.2362 0C8.93701 0 7.67717 0.687921 7 1.74444L6.14961 0.904385C6.06299 0.836767 5.97638 0.760697 5.88976 0.69308C5.28346 0.253566 4.55118 0 3.76378 0C2.85827 0 2.0315 0.338088 1.38583 0.895932C1.35433 0.921289 1.32283 0.955098 1.28346 0.988906C1.01575 1.23402 0.787402 1.52139 0.590551 1.83413C0.566929 1.87639 0.543307 1.9102 0.519685 1.95246C0.480315 2.02853 0.440945 2.1046 0.401575 2.18067C0.259843 2.47649 0.15748 2.79768 0.0866142 3.12731C0.0787402 3.17802 0.0708661 3.22029 0.0629921 3.271C0.023622 3.49921 0 3.73587 0 3.97253C0 4.11622 0.00787402 4.2599 0.023622 4.39514C0.0314961 4.4374 0.0314961 4.47966 0.0393701 4.52192C0.0708661 4.78394 0.133858 5.02905 0.212598 5.27417C0.314961 5.62916 0.590551 6.09403 0.645669 6.17855C0.645669 6.187 0.653543 6.18701 0.653543 6.19546C0.677165 6.22927 0.700787 6.26307 0.716535 6.29688C0.716535 6.30534 0.724409 6.30534 0.724409 6.31379C0.748031 6.3476 0.771654 6.38141 0.795276 6.41521C0.80315 6.42367 0.811024 6.44057 0.818898 6.44902C0.834646 6.47438 0.858268 6.49974 0.874016 6.52509C0.897638 6.5589 0.929134 6.59271 0.96063 6.62652L0.968504 6.63497C1.0315 6.70259 1.08661 6.77021 1.14961 6.83782C1.15748 6.83782 1.15748 6.84628 1.16535 6.84628L1.64567 7.26889L2.3937 7.93661L6.14173 11.2752L6.91339 11.9683C6.96063 12.0106 7.03937 12.0106 7.08661 11.9683L9.45669 9.85526L10.2362 9.16218L11.189 8.30851L11.5827 7.96196L11.5984 7.94506L11.6535 7.89435L12.2913 7.3196L12.3071 7.30269L12.8346 6.84628C12.8425 6.84628 12.8425 6.83782 12.8504 6.83782C13.2126 6.46593 13.5118 6.01796 13.7087 5.51928C13.8976 5.04596 14 4.53037 14 3.98098C14 3.29635 13.8425 2.66244 13.5591 2.11305Z" fill="#FFDA05"/>
</svg>
